P3
64 64
255
90 90 90
75 75 75
64 64 64
68 68 68
80 80 80
92 92 92
106 106 106
120 120 120
129 129 129
132 132 132
134 134 134
135 135 135
135 135 135
134 134 134
132 132 132
131 131 131
131 131 131
129 129 129
130 130 130
132 132 132
132 132 132
132 132 132
133 133 133
134 134 134
135 135 135
136 136 136
137 137 137
140 140 140
142 142 142
145 145 145
147 147 147
145 145 145
146 146 146
148 148 148
149 149 149
151 151 151
155 155 155
159 159 159
161 161 161
163 163 163
165 165 165
168 168 168
171 171 171
173 173 173
175 175 175
177 177 177
179 179 179
182 182 182
184 184 184
184 184 184
185 185 185
186 186 186
186 186 186
187 187 187
185 185 185
182 182 182
183 183 183
184 184 184
183 183 183
178 178 178
173 173 173
176 176 176
185 185 185
173 173 173
84 84 84
68 68 68
59 59 59
67 67 67
79 79 79
91 91 91
104 104 104
118 118 118
129 129 129
133 133 133
134 134 134
134 134 134
134 134 134
132 132 132
130 130 130
129 129 129
130 130 130
129 129 129
130 130 130
130 130 130
130 130 130
131 131 131
132 132 132
133 133 133
134 134 134
135 135 135
138 138 138
140 140 140
141 141 141
144 144 144
145 145 145
144 144 144
145 145 145
146 146 146
147 147 147
148 148 148
151 151 151
155 155 155
157 157 157
158 158 158
160 160 160
163 163 163
166 166 166
169 169 169
171 171 171
173 173 173
175 175 175
179 179 179
181 181 181
183 183 183
184 184 184
185 185 185
184 184 184
184 184 184
185 185 185
182 182 182
182 182 182
184 184 184
182 182 182
178 178 178
175 175 175
175 175 175
184 184 184
176 176 176
77 77 77
63 63 63
57 57 57
66 66 66
79 79 79
90 90 90
103 103 103
118 118 118
131 131 131
133 133 133
133 133 133
132 132 132
132 132 132
131 131 131
129 129 129
128 128 128
129 129 129
128 128 128
128 128 128
129 129 129
130 130 130
131 131 131
132 132 132
132 132 132
133 133 133
133 133 133
136 136 136
139 139 139
140 140 140
141 141 141
143 143 143
142 142 142
144 144 144
144 144 144
146 146 146
145 145 145
147 147 147
150 150 150
152 152 152
153 153 153
155 155 155
159 159 159
161 161 161
164 164 164
168 168 168
170 170 170
172 172 172
175 175 175
176 176 176
179 179 179
181 181 181
183 183 183
183 183 183
183 183 183
183 183 183
182 182 182
182 182 182
183 183 183
181 181 181
178 178 178
174 174 174
173 173 173
180 180 180
177 177 177
70 70 70
58 58 58
55 55 55
66 66 66
80 80 80
89 89 89
102 102 102
120 120 120
131 131 131
132 132 132
131 131 131
130 130 130
131 131 131
130 130 130
129 129 129
128 128 128
128 128 128
128 128 128
127 127 127
127 127 127
129 129 129
130 130 130
131 131 131
132 132 132
133 133 133
135 135 135
137 137 137
139 139 139
141 141 141
140 140 140
142 142 142
141 141 141
141 141 141
141 141 141
142 142 142
144 144 144
145 145 145
148 148 148
148 148 148
149 149 149
150 150 150
153 153 153
156 156 156
159 159 159
162 162 162
164 164 164
166 166 166
169 169 169
170 170 170
172 172 172
176 176 176
177 177 177
179 179 179
181 181 181
181 181 181
181 181 181
179 179 179
181 181 181
179 179 179
177 177 177
174 174 174
173 173 173
177 177 177
177 177 177
65 65 65
53 53 53
53 53 53
64 64 64
79 79 79
89 89 89
102 102 102
121 121 121
130 130 130
130 130 130
130 130 130
131 131 131
131 131 131
129 129 129
127 127 127
126 126 126
127 127 127
126 126 126
126 126 126
126 126 126
128 128 128
130 130 130
131 131 131
133 133 133
135 135 135
136 136 136
137 137 137
138 138 138
141 141 141
142 142 142
141 141 141
141 141 141
141 141 141
140 140 140
140 140 140
143 143 143
145 145 145
146 146 146
146 146 146
145 145 145
146 146 146
146 146 146
148 148 148
152 152 152
153 153 153
154 154 154
156 156 156
160 160 160
163 163 163
164 164 164
167 167 167
169 169 169
172 172 172
176 176 176
177 177 177
177 177 177
177 177 177
178 178 178
178 178 178
177 177 177
175 175 175
173 173 173
176 176 176
176 176 176
59 59 59
50 50 50
51 51 51
64 64 64
81 81 81
89 89 89
103 103 103
121 121 121
128 128 128
128 128 128
129 129 129
132 132 132
131 131 131
128 128 128
126 126 126
126 126 126
125 125 125
125 125 125
126 126 126
129 129 129
132 132 132
133 133 133
135 135 135
137 137 137
138 138 138
139 139 139
139 139 139
139 139 139
141 141 141
143 143 143
142 142 142
141 141 141
141 141 141
140 140 140
139 139 139
142 142 142
144 144 144
144 144 144
143 143 143
143 143 143
142 142 142
141 141 141
142 142 142
145 145 145
148 148 148
149 149 149
149 149 149
152 152 152
157 157 157
158 158 158
160 160 160
163 163 163
164 164 164
169 169 169
172 172 172
171 171 171
172 172 172
173 173 173
175 175 175
175 175 175
173 173 173
172 172 172
175 175 175
176 176 176
56 56 56
49 49 49
51 51 51
65 65 65
81 81 81
89 89 89
104 104 104
121 121 121
126 126 126
125 125 125
127 127 127
130 130 130
131 131 131
130 130 130
128 128 128
129 129 129
128 128 128
131 131 131
133 133 133
136 136 136
138 138 138
140 140 140
141 141 141
143 143 143
144 144 144
144 144 144
144 144 144
144 144 144
146 146 146
145 145 145
144 144 144
142 142 142
141 141 141
140 140 140
140 140 140
142 142 142
143 143 143
142 142 142
143 143 143
145 145 145
143 143 143
143 143 143
141 141 141
142 142 142
146 146 146
148 148 148
149 149 149
151 151 151
153 153 153
154 154 154
156 156 156
159 159 159
155 155 155
154 154 154
165 165 165
168 168 168
164 164 164
164 164 164
168 168 168
170 170 170
169 169 169
169 169 169
173 173 173
178 178 178
58 58 58
51 51 51
54 54 54
67 67 67
84 84 84
92 92 92
106 106 106
122 122 122
124 124 124
124 124 124
127 127 127
132 132 132
137 137 137
136 136 136
135 135 135
134 134 134
136 136 136
138 138 138
140 140 140
142 142 142
143 143 143
146 146 146
146 146 146
149 149 149
150 150 150
150 150 150
154 154 154
154 154 154
153 153 153
150 150 150
147 147 147
143 143 143
141 141 141
141 141 141
142 142 142
142 142 142
143 143 143
143 143 143
146 146 146
147 147 147
147 147 147
148 148 148
147 147 147
145 145 145
146 146 146
151 151 151
152 152 152
152 152 152
154 154 154
155 155 155
155 155 155
160 160 160
156 156 156
148 148 148
153 153 153
164 164 164
164 164 164
156 156 156
155 155 155
159 159 159
163 163 163
165 165 165
171 171 171
175 175 175
60 60 60
52 52 52
56 56 56
70 70 70
88 88 88
97 97 97
110 110 110
122 122 122
125 125 125
125 125 125
127 127 127
134 134 134
138 138 138
137 137 137
139 139 139
139 139 139
143 143 143
143 143 143
142 142 142
143 143 143
146 146 146
148 148 148
150 150 150
151 151 151
153 153 153
153 153 153
158 158 158
159 159 159
157 157 157
154 154 154
150 150 150
144 144 144
144 144 144
143 143 143
143 143 143
143 143 143
141 141 141
144 144 144
150 150 150
149 149 149
148 148 148
150 150 150
150 150 150
144 144 144
145 145 145
147 147 147
148 148 148
154 154 154
154 154 154
155 155 155
155 155 155
161 161 161
164 164 164
156 156 156
149 149 149
153 153 153
160 160 160
159 159 159
151 151 151
149 149 149
154 154 154
158 158 158
164 164 164
171 171 171
61 61 61
51 51 51
56 56 56
70 70 70
91 91 91
102 102 102
115 115 115
122 122 122
123 123 123
122 122 122
125 125 125
133 133 133
137 137 137
139 139 139
140 140 140
143 143 143
147 147 147
147 147 147
145 145 145
147 147 147
148 148 148
149 149 149
152 152 152
152 152 152
155 155 155
155 155 155
156 156 156
161 161 161
158 158 158
153 153 153
149 149 149
144 144 144
143 143 143
145 145 145
143 143 143
140 140 140
137 137 137
140 140 140
151 151 151
150 150 150
146 146 146
150 150 150
150 150 150
140 140 140
142 142 142
143 143 143
144 144 144
162 162 162
162 162 162
160 160 160
156 156 156
157 157 157
162 162 162
160 160 160
154 154 154
147 147 147
151 151 151
158 158 158
159 159 159
150 150 150
148 148 148
150 150 150
157 157 157
166 166 166
62 62 62
53 53 53
58 58 58
70 70 70
93 93 93
108 108 108
121 121 121
124 124 124
121 121 121
122 122 122
124 124 124
130 130 130
134 134 134
136 136 136
140 140 140
144 144 144
147 147 147
147 147 147
146 146 146
146 146 146
148 148 148
149 149 149
149 149 149
151 151 151
154 154 154
155 155 155
161 161 161
160 160 160
155 155 155
149 149 149
143 143 143
143 143 143
141 141 141
144 144 144
142 142 142
136 136 136
129 129 129
133 133 133
140 140 140
143 143 143
141 141 141
139 139 139
137 137 137
134 134 134
139 139 139
141 141 141
146 146 146
154 154 154
164 164 164
168 168 168
168 168 168
167 167 167
167 167 167
165 165 165
162 162 162
160 160 160
158 158 158
153 153 153
162 162 162
156 156 156
147 147 147
147 147 147
151 151 151
161 161 161
61 61 61
53 53 53
60 60 60
71 71 71
96 96 96
114 114 114
122 122 122
122 122 122
117 117 117
116 116 116
120 120 120
126 126 126
132 132 132
139 139 139
143 143 143
147 147 147
152 152 152
151 151 151
153 153 153
151 151 151
154 154 154
152 152 152
151 151 151
155 155 155
160 160 160
155 155 155
157 157 157
167 167 167
159 159 159
146 146 146
144 144 144
146 146 146
147 147 147
145 145 145
142 142 142
134 134 134
127 127 127
128 128 128
128 128 128
130 130 130
128 128 128
129 129 129
133 133 133
138 138 138
142 142 142
143 143 143
147 147 147
149 149 149
163 163 163
168 168 168
167 167 167
165 165 165
162 162 162
159 159 159
154 154 154
153 153 153
160 160 160
167 167 167
159 159 159
157 157 157
150 150 150
147 147 147
147 147 147
157 157 157
56 56 56
52 52 52
63 63 63
76 76 76
101 101 101
115 115 115
118 118 118
119 119 119
113 113 113
116 116 116
123 123 123
132 132 132
142 142 142
148 148 148
148 148 148
150 150 150
149 149 149
147 147 147
146 146 146
146 146 146
149 149 149
151 151 151
153 153 153
156 156 156
165 165 165
165 165 165
163 163 163
161 161 161
158 158 158
149 149 149
146 146 146
148 148 148
150 150 150
147 147 147
143 143 143
136 136 136
127 127 127
124 124 124
122 122 122
126 126 126
132 132 132
136 136 136
141 141 141
145 145 145
147 147 147
150 150 150
156 156 156
162 162 162
174 174 174
172 172 172
168 168 168
165 165 165
158 158 158
145 145 145
136 136 136
135 135 135
141 141 141
155 155 155
160 160 160
158 158 158
152 152 152
150 150 150
148 148 148
154 154 154
51 51 51
53 53 53
65 65 65
77 77 77
99 99 99
110 110 110
116 116 116
120 120 120
124 124 124
127 127 127
127 127 127
130 130 130
132 132 132
133 133 133
136 136 136
142 142 142
149 149 149
151 151 151
153 153 153
151 151 151
152 152 152
151 151 151
151 151 151
151 151 151
157 157 157
165 165 165
164 164 164
160 160 160
156 156 156
150 150 150
149 149 149
148 148 148
149 149 149
145 145 145
143 143 143
136 136 136
127 127 127
123 123 123
124 124 124
131 131 131
138 138 138
140 140 140
143 143 143
146 146 146
147 147 147
153 153 153
159 159 159
167 167 167
181 181 181
179 179 179
174 174 174
169 169 169
164 164 164
150 150 150
136 136 136
127 127 127
130 130 130
142 142 142
156 156 156
157 157 157
152 152 152
151 151 151
151 151 151
153 153 153
49 49 49
63 63 63
75 75 75
79 79 79
94 94 94
105 105 105
118 118 118
127 127 127
131 131 131
131 131 131
118 118 118
109 109 109
116 116 116
126 126 126
135 135 135
147 147 147
156 156 156
157 157 157
162 162 162
160 160 160
156 156 156
148 148 148
144 144 144
139 139 139
142 142 142
152 152 152
158 158 158
160 160 160
155 155 155
155 155 155
152 152 152
150 150 150
149 149 149
145 145 145
137 137 137
130 130 130
126 126 126
123 123 123
128 128 128
136 136 136
140 140 140
142 142 142
144 144 144
146 146 146
145 145 145
147 147 147
154 154 154
157 157 157
167 167 167
170 170 170
166 166 166
163 163 163
152 152 152
146 146 146
139 139 139
131 131 131
128 128 128
137 137 137
151 151 151
156 156 156
155 155 155
154 154 154
149 149 149
151 151 151
51 51 51
63 63 63
69 69 69
75 75 75
93 93 93
102 102 102
121 121 121
134 134 134
137 137 137
134 134 134
116 116 116
109 109 109
122 122 122
135 135 135
141 141 141
147 147 147
146 146 146
149 149 149
152 152 152
154 154 154
152 152 152
148 148 148
147 147 147
145 145 145
140 140 140
144 144 144
152 152 152
156 156 156
153 153 153
153 153 153
147 147 147
147 147 147
146 146 146
141 141 141
133 133 133
127 127 127
123 123 123
125 125 125
133 133 133
146 146 146
146 146 146
151 151 151
155 155 155
155 155 155
151 151 151
140 140 140
132 132 132
138 138 138
146 146 146
155 155 155
153 153 153
153 153 153
146 146 146
138 138 138
141 141 141
137 137 137
133 133 133
134 134 134
145 145 145
152 152 152
162 162 162
160 160 160
146 146 146
149 149 149
54 54 54
61 61 61
63 63 63
78 78 78
98 98 98
107 107 107
122 122 122
138 138 138
141 141 141
138 138 138
132 132 132
130 130 130
138 138 138
146 146 146
146 146 146
150 150 150
141 141 141
142 142 142
144 144 144
147 147 147
147 147 147
149 149 149
153 153 153
157 157 157
153 153 153
147 147 147
148 148 148
151 151 151
151 151 151
150 150 150
147 147 147
147 147 147
146 146 146
141 141 141
133 133 133
129 129 129
124 124 124
126 126 126
137 137 137
154 154 154
153 153 153
162 162 162
164 164 164
166 166 166
162 162 162
155 155 155
141 141 141
141 141 141
140 140 140
145 145 145
137 137 137
142 142 142
151 151 151
148 148 148
143 143 143
146 146 146
146 146 146
139 139 139
140 140 140
146 146 146
154 154 154
157 157 157
153 153 153
146 146 146
60 60 60
63 63 63
65 65 65
81 81 81
98 98 98
108 108 108
119 119 119
134 134 134
138 138 138
143 143 143
151 151 151
152 152 152
154 154 154
152 152 152
147 147 147
153 153 153
144 144 144
139 139 139
145 145 145
146 146 146
150 150 150
152 152 152
153 153 153
158 158 158
154 154 154
148 148 148
146 146 146
145 145 145
150 150 150
149 149 149
146 146 146
145 145 145
144 144 144
140 140 140
133 133 133
130 130 130
125 125 125
131 131 131
143 143 143
152 152 152
157 157 157
163 163 163
162 162 162
168 168 168
163 163 163
157 157 157
152 152 152
147 147 147
149 149 149
152 152 152
145 145 145
143 143 143
143 143 143
155 155 155
161 161 161
159 159 159
158 158 158
151 151 151
142 142 142
142 142 142
146 146 146
150 150 150
144 144 144
145 145 145
64 64 64
61 61 61
62 62 62
81 81 81
102 102 102
107 107 107
120 120 120
138 138 138
143 143 143
147 147 147
155 155 155
156 156 156
154 154 154
151 151 151
146 146 146
143 143 143
142 142 142
142 142 142
145 145 145
147 147 147
154 154 154
157 157 157
157 157 157
156 156 156
158 158 158
154 154 154
135 135 135
139 139 139
149 149 149
148 148 148
146 146 146
143 143 143
141 141 141
139 139 139
133 133 133
130 130 130
125 125 125
133 133 133
145 145 145
150 150 150
157 157 157
160 160 160
162 162 162
168 168 168
165 165 165
160 160 160
157 157 157
152 152 152
156 156 156
157 157 157
151 151 151
146 146 146
143 143 143
154 154 154
166 166 166
167 167 167
162 162 162
155 155 155
146 146 146
145 145 145
149 149 149
152 152 152
147 147 147
142 142 142
74 74 74
64 64 64
57 57 57
72 72 72
98 98 98
110 110 110
125 125 125
137 137 137
144 144 144
146 146 146
146 146 146
147 147 147
148 148 148
146 146 146
142 142 142
141 141 141
141 141 141
145 145 145
150 150 150
154 154 154
158 158 158
159 159 159
160 160 160
155 155 155
155 155 155
146 146 146
128 128 128
137 137 137
147 147 147
147 147 147
144 144 144
139 139 139
138 138 138
137 137 137
134 134 134
129 129 129
126 126 126
132 132 132
146 146 146
154 154 154
157 157 157
164 164 164
163 163 163
164 164 164
166 166 166
164 164 164
160 160 160
156 156 156
156 156 156
157 157 157
155 155 155
150 150 150
148 148 148
156 156 156
164 164 164
165 165 165
163 163 163
157 157 157
148 148 148
144 144 144
148 148 148
149 149 149
146 146 146
144 144 144
92 92 92
75 75 75
62 62 62
70 70 70
95 95 95
106 106 106
120 120 120
134 134 134
138 138 138
140 140 140
139 139 139
144 144 144
146 146 146
144 144 144
140 140 140
141 141 141
143 143 143
147 147 147
151 151 151
153 153 153
156 156 156
159 159 159
161 161 161
158 158 158
150 150 150
134 134 134
126 126 126
137 137 137
146 146 146
146 146 146
141 141 141
137 137 137
135 135 135
135 135 135
134 134 134
131 131 131
128 128 128
132 132 132
145 145 145
154 154 154
157 157 157
163 163 163
165 165 165
166 166 166
166 166 166
168 168 168
166 166 166
161 161 161
158 158 158
157 157 157
154 154 154
151 151 151
147 147 147
150 150 150
159 159 159
162 162 162
158 158 158
154 154 154
151 151 151
145 145 145
148 148 148
149 149 149
147 147 147
146 146 146
110 110 110
83 83 83
69 69 69
76 76 76
94 94 94
107 107 107
120 120 120
135 135 135
137 137 137
137 137 137
137 137 137
141 141 141
145 145 145
147 147 147
146 146 146
145 145 145
147 147 147
148 148 148
152 152 152
153 153 153
154 154 154
155 155 155
156 156 156
152 152 152
139 139 139
126 126 126
128 128 128
138 138 138
145 145 145
143 143 143
139 139 139
136 136 136
138 138 138
136 136 136
132 132 132
131 131 131
131 131 131
131 131 131
139 139 139
149 149 149
154 154 154
159 159 159
162 162 162
164 164 164
167 167 167
167 167 167
168 168 168
165 165 165
162 162 162
160 160 160
158 158 158
154 154 154
151 151 151
151 151 151
153 153 153
159 159 159
157 157 157
157 157 157
154 154 154
148 148 148
147 147 147
146 146 146
145 145 145
149 149 149
110 110 110
81 81 81
71 71 71
79 79 79
97 97 97
110 110 110
121 121 121
133 133 133
136 136 136
135 135 135
132 132 132
133 133 133
135 135 135
138 138 138
141 141 141
140 140 140
141 141 141
143 143 143
145 145 145
147 147 147
149 149 149
148 148 148
147 147 147
141 141 141
131 131 131
125 125 125
129 129 129
138 138 138
142 142 142
139 139 139
138 138 138
137 137 137
140 140 140
137 137 137
133 133 133
131 131 131
130 130 130
131 131 131
136 136 136
142 142 142
149 149 149
154 154 154
158 158 158
158 158 158
160 160 160
162 162 162
164 164 164
164 164 164
162 162 162
161 161 161
158 158 158
155 155 155
152 152 152
152 152 152
154 154 154
157 157 157
157 157 157
159 159 159
154 154 154
148 148 148
149 149 149
147 147 147
149 149 149
152 152 152
107 107 107
81 81 81
73 73 73
84 84 84
101 101 101
111 111 111
119 119 119
128 128 128
133 133 133
133 133 133
133 133 133
131 131 131
129 129 129
129 129 129
131 131 131
131 131 131
132 132 132
136 136 136
139 139 139
141 141 141
140 140 140
138 138 138
134 134 134
132 132 132
131 131 131
126 126 126
129 129 129
136 136 136
138 138 138
136 136 136
136 136 136
140 140 140
140 140 140
136 136 136
135 135 135
133 133 133
131 131 131
132 132 132
138 138 138
140 140 140
143 143 143
149 149 149
152 152 152
152 152 152
154 154 154
155 155 155
157 157 157
155 155 155
156 156 156
157 157 157
156 156 156
154 154 154
154 154 154
153 153 153
153 153 153
154 154 154
155 155 155
157 157 157
153 153 153
149 149 149
150 150 150
148 148 148
148 148 148
152 152 152
103 103 103
81 81 81
78 78 78
89 89 89
102 102 102
112 112 112
118 118 118
126 126 126
130 130 130
133 133 133
134 134 134
132 132 132
128 128 128
127 127 127
127 127 127
128 128 128
129 129 129
131 131 131
132 132 132
134 134 134
131 131 131
128 128 128
131 131 131
132 132 132
129 129 129
125 125 125
131 131 131
137 137 137
138 138 138
133 133 133
135 135 135
139 139 139
138 138 138
135 135 135
135 135 135
133 133 133
130 130 130
129 129 129
136 136 136
144 144 144
141 141 141
143 143 143
150 150 150
149 149 149
149 149 149
149 149 149
150 150 150
150 150 150
150 150 150
150 150 150
150 150 150
150 150 150
149 149 149
149 149 149
150 150 150
153 153 153
155 155 155
154 154 154
148 148 148
149 149 149
151 151 151
148 148 148
146 146 146
148 148 148
101 101 101
81 81 81
82 82 82
93 93 93
104 104 104
113 113 113
119 119 119
126 126 126
129 129 129
128 128 128
130 130 130
129 129 129
129 129 129
126 126 126
126 126 126
127 127 127
129 129 129
127 127 127
126 126 126
126 126 126
127 127 127
129 129 129
132 132 132
129 129 129
127 127 127
127 127 127
134 134 134
138 138 138
138 138 138
134 134 134
134 134 134
138 138 138
139 139 139
136 136 136
135 135 135
133 133 133
130 130 130
125 125 125
131 131 131
141 141 141
143 143 143
144 144 144
146 146 146
146 146 146
146 146 146
146 146 146
148 148 148
149 149 149
149 149 149
148 148 148
148 148 148
148 148 148
146 146 146
146 146 146
148 148 148
150 150 150
151 151 151
149 149 149
148 148 148
148 148 148
149 149 149
145 145 145
144 144 144
147 147 147
97 97 97
83 83 83
83 83 83
91 91 91
104 104 104
112 112 112
119 119 119
125 125 125
127 127 127
129 129 129
130 130 130
130 130 130
128 128 128
126 126 126
126 126 126
126 126 126
126 126 126
127 127 127
127 127 127
127 127 127
127 127 127
128 128 128
127 127 127
126 126 126
127 127 127
130 130 130
136 136 136
140 140 140
139 139 139
136 136 136
137 137 137
140 140 140
143 143 143
141 141 141
139 139 139
136 136 136
133 133 133
124 124 124
128 128 128
137 137 137
140 140 140
146 146 146
149 149 149
144 144 144
142 142 142
142 142 142
144 144 144
145 145 145
146 146 146
145 145 145
145 145 145
144 144 144
142 142 142
141 141 141
142 142 142
145 145 145
147 147 147
149 149 149
149 149 149
148 148 148
147 147 147
143 143 143
142 142 142
148 148 148
91 91 91
82 82 82
83 83 83
93 93 93
105 105 105
112 112 112
118 118 118
124 124 124
126 126 126
128 128 128
130 130 130
130 130 130
129 129 129
128 128 128
128 128 128
127 127 127
125 125 125
125 125 125
126 126 126
126 126 126
125 125 125
124 124 124
122 122 122
125 125 125
127 127 127
130 130 130
135 135 135
142 142 142
142 142 142
142 142 142
141 141 141
142 142 142
144 144 144
146 146 146
142 142 142
138 138 138
134 134 134
128 128 128
131 131 131
135 135 135
135 135 135
141 141 141
149 149 149
148 148 148
145 145 145
142 142 142
142 142 142
141 141 141
140 140 140
139 139 139
141 141 141
139 139 139
139 139 139
139 139 139
139 139 139
143 143 143
147 147 147
149 149 149
149 149 149
147 147 147
145 145 145
139 139 139
140 140 140
150 150 150
88 88 88
84 84 84
87 87 87
99 99 99
106 106 106
111 111 111
118 118 118
121 121 121
124 124 124
125 125 125
126 126 126
124 124 124
123 123 123
124 124 124
123 123 123
124 124 124
123 123 123
123 123 123
124 124 124
123 123 123
123 123 123
121 121 121
119 119 119
125 125 125
127 127 127
125 125 125
131 131 131
142 142 142
149 149 149
151 151 151
148 148 148
143 143 143
144 144 144
146 146 146
144 144 144
137 137 137
133 133 133
133 133 133
140 140 140
145 145 145
136 136 136
137 137 137
144 144 144
146 146 146
144 144 144
142 142 142
141 141 141
140 140 140
138 138 138
137 137 137
139 139 139
138 138 138
139 139 139
138 138 138
138 138 138
142 142 142
146 146 146
147 147 147
147 147 147
145 145 145
144 144 144
137 137 137
139 139 139
150 150 150
86 86 86
85 85 85
93 93 93
102 102 102
105 105 105
108 108 108
115 115 115
120 120 120
121 121 121
121 121 121
122 122 122
120 120 120
120 120 120
121 121 121
122 122 122
122 122 122
123 123 123
124 124 124
124 124 124
121 121 121
119 119 119
120 120 120
119 119 119
125 125 125
124 124 124
120 120 120
123 123 123
141 141 141
158 158 158
161 161 161
153 153 153
143 143 143
140 140 140
143 143 143
140 140 140
131 131 131
126 126 126
134 134 134
145 145 145
153 153 153
146 146 146
141 141 141
140 140 140
139 139 139
141 141 141
139 139 139
138 138 138
137 137 137
137 137 137
135 135 135
135 135 135
134 134 134
135 135 135
135 135 135
137 137 137
140 140 140
143 143 143
146 146 146
146 146 146
144 144 144
142 142 142
136 136 136
140 140 140
148 148 148
82 82 82
86 86 86
94 94 94
102 102 102
102 102 102
104 104 104
110 110 110
117 117 117
120 120 120
120 120 120
120 120 120
121 121 121
120 120 120
122 122 122
124 124 124
123 123 123
124 124 124
124 124 124
123 123 123
119 119 119
115 115 115
116 116 116
115 115 115
120 120 120
120 120 120
114 114 114
116 116 116
136 136 136
162 162 162
165 165 165
149 149 149
136 136 136
133 133 133
138 138 138
135 135 135
123 123 123
121 121 121
130 130 130
145 145 145
155 155 155
151 151 151
147 147 147
144 144 144
138 138 138
137 137 137
135 135 135
135 135 135
135 135 135
135 135 135
134 134 134
133 133 133
132 132 132
131 131 131
134 134 134
136 136 136
137 137 137
141 141 141
143 143 143
143 143 143
142 142 142
140 140 140
135 135 135
139 139 139
144 144 144
77 77 77
83 83 83
92 92 92
100 100 100
99 99 99
101 101 101
106 106 106
114 114 114
117 117 117
119 119 119
119 119 119
122 122 122
122 122 122
123 123 123
124 124 124
125 125 125
126 126 126
124 124 124
121 121 121
116 116 116
113 113 113
113 113 113
111 111 111
113 113 113
116 116 116
113 113 113
113 113 113
135 135 135
159 159 159
158 158 158
138 138 138
123 123 123
125 125 125
135 135 135
135 135 135
123 123 123
117 117 117
124 124 124
137 137 137
148 148 148
148 148 148
147 147 147
146 146 146
141 141 141
138 138 138
136 136 136
136 136 136
136 136 136
134 134 134
134 134 134
132 132 132
132 132 132
132 132 132
134 134 134
135 135 135
136 136 136
140 140 140
141 141 141
140 140 140
139 139 139
139 139 139
132 132 132
137 137 137
140 140 140
68 68 68
77 77 77
89 89 89
99 99 99
99 99 99
98 98 98
103 103 103
110 110 110
115 115 115
117 117 117
119 119 119
122 122 122
125 125 125
125 125 125
125 125 125
126 126 126
126 126 126
123 123 123
119 119 119
114 114 114
114 114 114
117 117 117
112 112 112
112 112 112
112 112 112
112 112 112
117 117 117
132 132 132
143 143 143
139 139 139
120 120 120
111 111 111
119 119 119
131 131 131
132 132 132
121 121 121
113 113 113
116 116 116
128 128 128
140 140 140
145 145 145
145 145 145
148 148 148
144 144 144
141 141 141
139 139 139
136 136 136
136 136 136
137 137 137
135 135 135
135 135 135
136 136 136
135 135 135
136 136 136
136 136 136
136 136 136
138 138 138
138 138 138
136 136 136
137 137 137
136 136 136
130 130 130
127 127 127
139 139 139
66 66 66
70 70 70
83 83 83
94 94 94
96 96 96
97 97 97
100 100 100
106 106 106
111 111 111
115 115 115
119 119 119
122 122 122
125 125 125
125 125 125
125 125 125
126 126 126
125 125 125
119 119 119
116 116 116
114 114 114
118 118 118
125 125 125
120 120 120
116 116 116
113 113 113
112 112 112
116 116 116
126 126 126
128 128 128
118 118 118
105 105 105
106 106 106
118 118 118
131 131 131
132 132 132
125 125 125
118 118 118
118 118 118
127 127 127
136 136 136
141 141 141
144 144 144
147 147 147
148 148 148
146 146 146
142 142 142
137 137 137
136 136 136
137 137 137
137 137 137
137 137 137
138 138 138
137 137 137
137 137 137
137 137 137
136 136 136
135 135 135
135 135 135
132 132 132
134 134 134
134 134 134
126 126 126
126 126 126
140 140 140
67 67 67
65 65 65
77 77 77
90 90 90
93 93 93
96 96 96
97 97 97
103 103 103
109 109 109
113 113 113
119 119 119
122 122 122
125 125 125
124 124 124
126 126 126
126 126 126
122 122 122
119 119 119
118 118 118
120 120 120
125 125 125
130 130 130
126 126 126
119 119 119
112 112 112
112 112 112
116 116 116
120 120 120
116 116 116
105 105 105
103 103 103
110 110 110
122 122 122
131 131 131
133 133 133
131 131 131
128 128 128
127 127 127
131 131 131
136 136 136
138 138 138
142 142 142
147 147 147
150 150 150
149 149 149
144 144 144
141 141 141
136 136 136
134 134 134
137 137 137
139 139 139
139 139 139
138 138 138
137 137 137
137 137 137
136 136 136
133 133 133
132 132 132
129 129 129
129 129 129
129 129 129
126 126 126
129 129 129
141 141 141
72 72 72
64 64 64
71 71 71
88 88 88
93 93 93
96 96 96
98 98 98
100 100 100
106 106 106
111 111 111
118 118 118
122 122 122
123 123 123
123 123 123
124 124 124
123 123 123
120 120 120
119 119 119
121 121 121
126 126 126
127 127 127
127 127 127
124 124 124
122 122 122
113 113 113
109 109 109
112 112 112
110 110 110
106 106 106
103 103 103
108 108 108
117 117 117
129 129 129
134 134 134
133 133 133
133 133 133
131 131 131
128 128 128
129 129 129
128 128 128
131 131 131
136 136 136
147 147 147
151 151 151
149 149 149
145 145 145
143 143 143
140 140 140
134 134 134
133 133 133
136 136 136
138 138 138
139 139 139
137 137 137
134 134 134
134 134 134
131 131 131
127 127 127
126 126 126
126 126 126
125 125 125
126 126 126
130 130 130
144 144 144
76 76 76
66 66 66
71 71 71
85 85 85
94 94 94
97 97 97
99 99 99
102 102 102
104 104 104
110 110 110
118 118 118
121 121 121
123 123 123
124 124 124
122 122 122
121 121 121
121 121 121
121 121 121
127 127 127
129 129 129
126 126 126
124 124 124
117 117 117
117 117 117
114 114 114
112 112 112
110 110 110
101 101 101
99 99 99
103 103 103
110 110 110
120 120 120
129 129 129
132 132 132
130 130 130
130 130 130
127 127 127
129 129 129
130 130 130
129 129 129
129 129 129
136 136 136
145 145 145
151 151 151
148 148 148
144 144 144
142 142 142
142 142 142
138 138 138
131 131 131
131 131 131
134 134 134
136 136 136
135 135 135
134 134 134
131 131 131
128 128 128
125 125 125
123 123 123
122 122 122
122 122 122
125 125 125
130 130 130
143 143 143
79 79 79
69 69 69
74 74 74
84 84 84
94 94 94
98 98 98
101 101 101
103 103 103
105 105 105
111 111 111
118 118 118
121 121 121
123 123 123
122 122 122
123 123 123
122 122 122
121 121 121
124 124 124
126 126 126
126 126 126
124 124 124
122 122 122
115 115 115
109 109 109
110 110 110
112 112 112
110 110 110
101 101 101
96 96 96
103 103 103
109 109 109
114 114 114
121 121 121
122 122 122
123 123 123
125 125 125
124 124 124
123 123 123
127 127 127
126 126 126
129 129 129
135 135 135
142 142 142
148 148 148
148 148 148
144 144 144
141 141 141
143 143 143
141 141 141
134 134 134
132 132 132
132 132 132
131 131 131
131 131 131
131 131 131
129 129 129
125 125 125
123 123 123
120 120 120
120 120 120
121 121 121
123 123 123
131 131 131
144 144 144
81 81 81
71 71 71
73 73 73
82 82 82
94 94 94
97 97 97
102 102 102
104 104 104
105 105 105
110 110 110
117 117 117
122 122 122
123 123 123
123 123 123
123 123 123
123 123 123
122 122 122
121 121 121
123 123 123
124 124 124
124 124 124
120 120 120
114 114 114
108 108 108
105 105 105
109 109 109
108 108 108
105 105 105
100 100 100
106 106 106
108 108 108
110 110 110
115 115 115
116 116 116
119 119 119
125 125 125
124 124 124
122 122 122
125 125 125
128 128 128
130 130 130
134 134 134
141 141 141
144 144 144
148 148 148
145 145 145
144 144 144
142 142 142
143 143 143
139 139 139
135 135 135
135 135 135
132 132 132
128 128 128
127 127 127
126 126 126
122 122 122
121 121 121
119 119 119
117 117 117
118 118 118
123 123 123
132 132 132
140 140 140
80 80 80
74 74 74
72 72 72
78 78 78
94 94 94
98 98 98
100 100 100
105 105 105
107 107 107
110 110 110
117 117 117
122 122 122
123 123 123
125 125 125
127 127 127
123 123 123
116 116 116
117 117 117
119 119 119
119 119 119
118 118 118
116 116 116
109 109 109
107 107 107
106 106 106
105 105 105
107 107 107
104 104 104
103 103 103
107 107 107
109 109 109
108 108 108
114 114 114
120 120 120
123 123 123
126 126 126
125 125 125
127 127 127
128 128 128
129 129 129
131 131 131
133 133 133
137 137 137
141 141 141
143 143 143
141 141 141
145 145 145
144 144 144
142 142 142
141 141 141
137 137 137
136 136 136
137 137 137
132 132 132
125 125 125
122 122 122
119 119 119
121 121 121
118 118 118
116 116 116
115 115 115
120 120 120
127 127 127
130 130 130
78 78 78
75 75 75
73 73 73
77 77 77
92 92 92
100 100 100
99 99 99
104 104 104
108 108 108
108 108 108
115 115 115
121 121 121
124 124 124
132 132 132
132 132 132
120 120 120
113 113 113
114 114 114
112 112 112
109 109 109
109 109 109
108 108 108
105 105 105
105 105 105
104 104 104
103 103 103
106 106 106
105 105 105
106 106 106
111 111 111
113 113 113
113 113 113
120 120 120
123 123 123
126 126 126
126 126 126
128 128 128
131 131 131
131 131 131
131 131 131
131 131 131
132 132 132
134 134 134
136 136 136
135 135 135
136 136 136
140 140 140
141 141 141
142 142 142
143 143 143
139 139 139
137 137 137
138 138 138
136 136 136
126 126 126
122 122 122
121 121 121
121 121 121
117 117 117
114 114 114
110 110 110
115 115 115
121 121 121
119 119 119
73 73 73
73 73 73
73 73 73
75 75 75
87 87 87
97 97 97
98 98 98
101 101 101
106 106 106
106 106 106
112 112 112
121 121 121
129 129 129
138 138 138
134 134 134
119 119 119
112 112 112
111 111 111
106 106 106
100 100 100
100 100 100
104 104 104
102 102 102
103 103 103
103 103 103
101 101 101
104 104 104
106 106 106
110 110 110
117 117 117
122 122 122
126 126 126
128 128 128
127 127 127
128 128 128
131 131 131
130 130 130
131 131 131
131 131 131
132 132 132
131 131 131
130 130 130
132 132 132
133 133 133
131 131 131
131 131 131
132 132 132
137 137 137
138 138 138
142 142 142
142 142 142
137 137 137
134 134 134
134 134 134
127 127 127
123 123 123
122 122 122
121 121 121
115 115 115
110 110 110
106 106 106
115 115 115
118 118 118
115 115 115
72 72 72
72 72 72
72 72 72
74 74 74
82 82 82
92 92 92
100 100 100
98 98 98
105 105 105
108 108 108
108 108 108
120 120 120
129 129 129
136 136 136
135 135 135
123 123 123
113 113 113
109 109 109
106 106 106
99 99 99
97 97 97
102 102 102
106 106 106
109 109 109
109 109 109
109 109 109
109 109 109
113 113 113
121 121 121
126 126 126
131 131 131
134 134 134
134 134 134
132 132 132
133 133 133
134 134 134
132 132 132
130 130 130
132 132 132
132 132 132
131 131 131
130 130 130
130 130 130
130 130 130
126 126 126
125 125 125
128 128 128
133 133 133
135 135 135
139 139 139
142 142 142
141 141 141
135 135 135
134 134 134
130 130 130
124 124 124
121 121 121
119 119 119
112 112 112
105 105 105
105 105 105
116 116 116
113 113 113
110 110 110
73 73 73
73 73 73
73 73 73
73 73 73
77 77 77
85 85 85
98 98 98
96 96 96
99 99 99
107 107 107
107 107 107
117 117 117
127 127 127
130 130 130
133 133 133
128 128 128
120 120 120
114 114 114
114 114 114
111 111 111
107 107 107
110 110 110
107 107 107
106 106 106
110 110 110
114 114 114
118 118 118
120 120 120
129 129 129
136 136 136
141 141 141
141 141 141
143 143 143
144 144 144
144 144 144
139 139 139
139 139 139
138 138 138
138 138 138
136 136 136
135 135 135
131 131 131
132 132 132
128 128 128
125 125 125
124 124 124
128 128 128
132 132 132
135 135 135
138 138 138
142 142 142
143 143 143
141 141 141
135 135 135
132 132 132
125 125 125
120 120 120
116 116 116
111 111 111
104 104 104
107 107 107
115 115 115
111 111 111
107 107 107
77 77 77
76 76 76
76 76 76
73 73 73
73 73 73
81 81 81
94 94 94
98 98 98
94 94 94
102 102 102
106 106 106
110 110 110
121 121 121
127 127 127
130 130 130
134 134 134
133 133 133
129 129 129
125 125 125
121 121 121
119 119 119
119 119 119
118 118 118
111 111 111
105 105 105
104 104 104
110 110 110
114 114 114
122 122 122
129 129 129
134 134 134
136 136 136
139 139 139
142 142 142
141 141 141
139 139 139
139 139 139
138 138 138
135 135 135
132 132 132
132 132 132
133 133 133
135 135 135
132 132 132
129 129 129
129 129 129
131 131 131
132 132 132
135 135 135
140 140 140
143 143 143
143 143 143
142 142 142
137 137 137
132 132 132
125 125 125
118 118 118
113 113 113
110 110 110
104 104 104
109 109 109
113 113 113
112 112 112
109 109 109
85 85 85
82 82 82
78 78 78
73 73 73
72 72 72
77 77 77
90 90 90
99 99 99
91 91 91
97 97 97
105 105 105
106 106 106
114 114 114
122 122 122
126 126 126
135 135 135
140 140 140
141 141 141
136 136 136
135 135 135
128 128 128
127 127 127
128 128 128
126 126 126
119 119 119
112 112 112
111 111 111
114 114 114
116 116 116
120 120 120
124 124 124
127 127 127
131 131 131
134 134 134
137 137 137
136 136 136
135 135 135
137 137 137
136 136 136
135 135 135
137 137 137
140 140 140
141 141 141
142 142 142
138 138 138
137 137 137
137 137 137
135 135 135
138 138 138
140 140 140
141 141 141
141 141 141
142 142 142
136 136 136
130 130 130
122 122 122
114 114 114
112 112 112
106 106 106
105 105 105
109 109 109
114 114 114
113 113 113
113 113 113
96 96 96
90 90 90
84 84 84
73 73 73
71 71 71
73 73 73
84 84 84
99 99 99
93 93 93
92 92 92
101 101 101
108 108 108
107 107 107
114 114 114
122 122 122
132 132 132
140 140 140
141 141 141
139 139 139
141 141 141
140 140 140
139 139 139
133 133 133
131 131 131
127 127 127
120 120 120
120 120 120
123 123 123
127 127 127
130 130 130
134 134 134
137 137 137
137 137 137
139 139 139
142 142 142
144 144 144
144 144 144
147 147 147
146 146 146
145 145 145
145 145 145
148 148 148
149 149 149
153 153 153
149 149 149
146 146 146
144 144 144
139 139 139
139 139 139
138 138 138
140 140 140
141 141 141
141 141 141
135 135 135
126 126 126
119 119 119
113 113 113
111 111 111
104 104 104
105 105 105
108 108 108
116 116 116
116 116 116
125 125 125
107 107 107
99 99 99
89 89 89
76 76 76
71 71 71
70 70 70
79 79 79
96 96 96
98 98 98
90 90 90
96 96 96
103 103 103
106 106 106
109 109 109
119 119 119
129 129 129
137 137 137
139 139 139
139 139 139
140 140 140
140 140 140
140 140 140
138 138 138
132 132 132
128 128 128
125 125 125
124 124 124
128 128 128
131 131 131
137 137 137
142 142 142
145 145 145
145 145 145
147 147 147
149 149 149
152 152 152
154 154 154
155 155 155
158 158 158
154 154 154
152 152 152
154 154 154
153 153 153
153 153 153
150 150 150
148 148 148
145 145 145
140 140 140
139 139 139
135 135 135
140 140 140
140 140 140
138 138 138
131 131 131
123 123 123
118 118 118
115 115 115
109 109 109
102 102 102
103 103 103
107 107 107
119 119 119
126 126 126
136 136 136
115 115 115
109 109 109
96 96 96
81 81 81
74 74 74
70 70 70
75 75 75
92 92 92
97 97 97
94 94 94
91 91 91
98 98 98
104 104 104
107 107 107
116 116 116
127 127 127
134 134 134
139 139 139
140 140 140
140 140 140
139 139 139
136 136 136
137 137 137
133 133 133
129 129 129
128 128 128
128 128 128
134 134 134
138 138 138
142 142 142
144 144 144
147 147 147
148 148 148
150 150 150
153 153 153
156 156 156
156 156 156
158 158 158
161 161 161
155 155 155
152 152 152
153 153 153
153 153 153
154 154 154
151 151 151
152 152 152
148 148 148
143 143 143
140 140 140
138 138 138
138 138 138
139 139 139
135 135 135
125 125 125
122 122 122
118 118 118
117 117 117
109 109 109
100 100 100
103 103 103
110 110 110
125 125 125
136 136 136
141 141 141
118 118 118
116 116 116
101 101 101
86 86 86
77 77 77
70 70 70
73 73 73
90 90 90
97 97 97
97 97 97
90 90 90
91 91 91
100 100 100
108 108 108
111 111 111
119 119 119
129 129 129
135 135 135
137 137 137
140 140 140
139 139 139
134 134 134
133 133 133
130 130 130
126 126 126
123 123 123
126 126 126
131 131 131
134 134 134
136 136 136
138 138 138
143 143 143
146 146 146
145 145 145
145 145 145
147 147 147
149 149 149
152 152 152
154 154 154
150 150 150
149 149 149
150 150 150
151 151 151
155 155 155
153 153 153
152 152 152
147 147 147
144 144 144
141 141 141
140 140 140
139 139 139
136 136 136
128 128 128
123 123 123
118 118 118
119 119 119
120 120 120
110 110 110
98 98 98
104 104 104
115 115 115
133 133 133
142 142 142
139 139 139
117 117 117
116 116 116
108 108 108
89 89 89
80 80 80
73 73 73
75 75 75
88 88 88
94 94 94
96 96 96
93 93 93
91 91 91
93 93 93
104 104 104
112 112 112
112 112 112
121 121 121
128 128 128
130 130 130
132 132 132
134 134 134
132 132 132
132 132 132
128 128 128
122 122 122
117 117 117
121 121 121
126 126 126
126 126 126
128 128 128
130 130 130
133 133 133
136 136 136
135 135 135
136 136 136
138 138 138
141 141 141
142 142 142
143 143 143
143 143 143
145 145 145
149 149 149
151 151 151
153 153 153
151 151 151
149 149 149
146 146 146
144 144 144
142 142 142
141 141 141
137 137 137
132 132 132
125 125 125
121 121 121
118 118 118
121 121 121
121 121 121
110 110 110
96 96 96
106 106 106
123 123 123
141 141 141
146 146 146
139 139 139
119 119 119
117 117 117
113 113 113
97 97 97
85 85 85
75 75 75
80 80 80
86 86 86
90 90 90
94 94 94
96 96 96
95 95 95
90 90 90
96 96 96
108 108 108
111 111 111
112 112 112
121 121 121
124 124 124
124 124 124
127 127 127
126 126 126
128 128 128
129 129 129
121 121 121
117 117 117
120 120 120
121 121 121
119 119 119
123 123 123
124 124 124
124 124 124
127 127 127
129 129 129
130 130 130
133 133 133
136 136 136
137 137 137
139 139 139
142 142 142
148 148 148
151 151 151
150 150 150
151 151 151
147 147 147
144 144 144
143 143 143
144 144 144
143 143 143
140 140 140
135 135 135
130 130 130
125 125 125
121 121 121
121 121 121
123 123 123
121 121 121
112 112 112
98 98 98
110 110 110
131 131 131
146 146 146
149 149 149
141 141 141
118 118 118
116 116 116
114 114 114
105 105 105
89 89 89
76 76 76
84 84 84
86 86 86
87 87 87
93 93 93
97 97 97
98 98 98
95 95 95
92 92 92
100 100 100
107 107 107
108 108 108
113 113 113
119 119 119
120 120 120
122 122 122
122 122 122
124 124 124
126 126 126
123 123 123
121 121 121
126 126 126
127 127 127
126 126 126
126 126 126
127 127 127
124 124 124
127 127 127
131 131 131
133 133 133
137 137 137
138 138 138
139 139 139
139 139 139
143 143 143
151 151 151
150 150 150
147 147 147
146 146 146
144 144 144
142 142 142
142 142 142
142 142 142
141 141 141
137 137 137
132 132 132
128 128 128
124 124 124
124 124 124
125 125 125
124 124 124
120 120 120
110 110 110
101 101 101
119 119 119
140 140 140
149 149 149
150 150 150
144 144 144
119 119 119
115 115 115
115 115 115
111 111 111
94 94 94
81 81 81
85 85 85
85 85 85
87 87 87
95 95 95
100 100 100
99 99 99
99 99 99
95 95 95
95 95 95
99 99 99
104 104 104
109 109 109
114 114 114
119 119 119
119 119 119
121 121 121
123 123 123
124 124 124
122 122 122
122 122 122
126 126 126
130 130 130
133 133 133
133 133 133
134 134 134
131 131 131
132 132 132
136 136 136
139 139 139
142 142 142
142 142 142
143 143 143
143 143 143
144 144 144
148 148 148
146 146 146
144 144 144
144 144 144
142 142 142
142 142 142
141 141 141
139 139 139
137 137 137
133 133 133
130 130 130
125 125 125
125 125 125
125 125 125
126 126 126
125 125 125
119 119 119
108 108 108
106 106 106
129 129 129
145 145 145
151 151 151
151 151 151
146 146 146
121 121 121
115 115 115
115 115 115
114 114 114
99 99 99
85 85 85
85 85 85
82 82 82
87 87 87
96 96 96
101 101 101
98 98 98
99 99 99
98 98 98
93 93 93
95 95 95
99 99 99
106 106 106
111 111 111
119 119 119
121 121 121
122 122 122
123 123 123
125 125 125
126 126 126
125 125 125
127 127 127
131 131 131
136 136 136
139 139 139
137 137 137
136 136 136
137 137 137
141 141 141
145 145 145
145 145 145
144 144 144
142 142 142
145 145 145
146 146 146
146 146 146
146 146 146
144 144 144
145 145 145
145 145 145
143 143 143
141 141 141
136 136 136
134 134 134
131 131 131
130 130 130
125 125 125
126 126 126
125 125 125
126 126 126
124 124 124
120 120 120
108 108 108
113 113 113
139 139 139
149 149 149
153 153 153
152 152 152
148 148 148
120 120 120
116 116 116
116 116 116
115 115 115
105 105 105
86 86 86
80 80 80
80 80 80
89 89 89
97 97 97
101 101 101
100 100 100
95 95 95
97 97 97
95 95 95
95 95 95
96 96 96
101 101 101
108 108 108
118 118 118
123 123 123
124 124 124
129 129 129
130 130 130
128 128 128
127 127 127
130 130 130
134 134 134
136 136 136
140 140 140
140 140 140
138 138 138
139 139 139
142 142 142
144 144 144
145 145 145
142 142 142
142 142 142
146 146 146
147 147 147
147 147 147
147 147 147
147 147 147
147 147 147
146 146 146
143 143 143
139 139 139
136 136 136
133 133 133
131 131 131
130 130 130
127 127 127
128 128 128
125 125 125
124 124 124
122 122 122
116 116 116
115 115 115
120 120 120
144 144 144
150 150 150
155 155 155
153 153 153
150 150 150
118 118 118
116 116 116
115 115 115
114 114 114
109 109 109
91 91 91
82 82 82
80 80 80
92 92 92
98 98 98
100 100 100
99 99 99
97 97 97
94 94 94
95 95 95
92 92 92
96 96 96
98 98 98
101 101 101
112 112 112
120 120 120
126 126 126
130 130 130
132 132 132
129 129 129
128 128 128
132 132 132
133 133 133
134 134 134
136 136 136
137 137 137
138 138 138
136 136 136
139 139 139
141 141 141
145 145 145
144 144 144
144 144 144
147 147 147
147 147 147
150 150 150
149 149 149
150 150 150
149 149 149
145 145 145
141 141 141
137 137 137
133 133 133
132 132 132
130 130 130
130 130 130
128 128 128
127 127 127
123 123 123
120 120 120
119 119 119
119 119 119
120 120 120
124 124 124
145 145 145
151 151 151
156 156 156
152 152 152
149 149 149
119 119 119
113 113 113
110 110 110
108 108 108
107 107 107
96 96 96
83 83 83
80 80 80
90 90 90
98 98 98
100 100 100
100 100 100
97 97 97
94 94 94
95 95 95
92 92 92
96 96 96
96 96 96
95 95 95
104 104 104
115 115 115
123 123 123
130 130 130
132 132 132
130 130 130
134 134 134
135 135 135
133 133 133
133 133 133
134 134 134
136 136 136
138 138 138
135 135 135
135 135 135
139 139 139
143 143 143
145 145 145
146 146 146
146 146 146
148 148 148
152 152 152
152 152 152
150 150 150
147 147 147
141 141 141
138 138 138
134 134 134
132 132 132
131 131 131
131 131 131
130 130 130
128 128 128
125 125 125
118 118 118
119 119 119
122 122 122
122 122 122
124 124 124
128 128 128
144 144 144
151 151 151
156 156 156
153 153 153
147 147 147
112 112 112
106 106 106
105 105 105
104 104 104
107 107 107
102 102 102
87 87 87
82 82 82
88 88 88
98 98 98
101 101 101
100 100 100
98 98 98
96 96 96
95 95 95
91 91 91
95 95 95
94 94 94
94 94 94
97 97 97
107 107 107
115 115 115
125 125 125
131 131 131
129 129 129
135 135 135
138 138 138
138 138 138
135 135 135
136 136 136
138 138 138
139 139 139
136 136 136
136 136 136
139 139 139
142 142 142
145 145 145
145 145 145
144 144 144
147 147 147
151 151 151
148 148 148
146 146 146
143 143 143
139 139 139
134 134 134
131 131 131
131 131 131
131 131 131
132 132 132
130 130 130
126 126 126
122 122 122
119 119 119
122 122 122
125 125 125
126 126 126
128 128 128
130 130 130
143 143 143
152 152 152
155 155 155
152 152 152
147 147 147
107 107 107
102 102 102
103 103 103
104 104 104
107 107 107
106 106 106
92 92 92
84 84 84
87 87 87
95 95 95
101 101 101
102 102 102
100 100 100
97 97 97
97 97 97
92 92 92
93 93 93
96 96 96
92 92 92
94 94 94
100 100 100
109 109 109
118 118 118
125 125 125
128 128 128
131 131 131
134 134 134
135 135 135
135 135 135
134 134 134
137 137 137
136 136 136
134 134 134
137 137 137
138 138 138
140 140 140
142 142 142
144 144 144
143 143 143
145 145 145
148 148 148
144 144 144
141 141 141
140 140 140
136 136 136
132 132 132
129 129 129
129 129 129
131 131 131
131 131 131
125 125 125
120 120 120
122 122 122
123 123 123
126 126 126
129 129 129
130 130 130
131 131 131
131 131 131
142 142 142
152 152 152
152 152 152
149 149 149
145 145 145
103 103 103
103 103 103
103 103 103
105 105 105
108 108 108
110 110 110
96 96 96
84 84 84
85 85 85
97 97 97
102 102 102
102 102 102
99 99 99
98 98 98
100 100 100
95 95 95
95 95 95
94 94 94
92 92 92
92 92 92
96 96 96
101 101 101
111 111 111
117 117 117
120 120 120
122 122 122
125 125 125
127 127 127
129 129 129
129 129 129
130 130 130
130 130 130
131 131 131
131 131 131
133 133 133
137 137 137
137 137 137
139 139 139
140 140 140
142 142 142
142 142 142
140 140 140
138 138 138
136 136 136
132 132 132
128 128 128
130 130 130
127 127 127
128 128 128
128 128 128
119 119 119
119 119 119
122 122 122
129 129 129
130 130 130
135 135 135
135 135 135
134 134 134
131 131 131
142 142 142
153 153 153
148 148 148
146 146 146
144 144 144
100 100 100
103 103 103
102 102 102
105 105 105
107 107 107
110 110 110
97 97 97
85 85 85
88 88 88
101 101 101
104 104 104
102 102 102
98 98 98
97 97 97
102 102 102
97 97 97
100 100 100
94 94 94
90 90 90
92 92 92
96 96 96
95 95 95
103 103 103
109 109 109
113 113 113
115 115 115
117 117 117
120 120 120
124 124 124
126 126 126
129 129 129
129 129 129
129 129 129
131 131 131
133 133 133
135 135 135
137 137 137
139 139 139
138 138 138
138 138 138
136 136 136
136 136 136
133 133 133
132 132 132
129 129 129
125 125 125
127 127 127
128 128 128
126 126 126
121 121 121
120 120 120
123 123 123
123 123 123
132 132 132
135 135 135
139 139 139
138 138 138
136 136 136
133 133 133
142 142 142
153 153 153
148 148 148
143 143 143
142 142 142
99 99 99
103 103 103
102 102 102
102 102 102
104 104 104
109 109 109
96 96 96
85 85 85
91 91 91
105 105 105
106 106 106
101 101 101
96 96 96
98 98 98
101 101 101
98 98 98
103 103 103
96 96 96
88 88 88
91 91 91
98 98 98
97 97 97
97 97 97
102 102 102
108 108 108
110 110 110
114 114 114
117 117 117
121 121 121
125 125 125
127 127 127
128 128 128
128 128 128
130 130 130
133 133 133
132 132 132
133 133 133
135 135 135
133 133 133
133 133 133
131 131 131
130 130 130
127 127 127
127 127 127
124 124 124
122 122 122
123 123 123
125 125 125
122 122 122
119 119 119
122 122 122
126 126 126
129 129 129
135 135 135
139 139 139
141 141 141
139 139 139
137 137 137
133 133 133
140 140 140
154 154 154
151 151 151
143 143 143
140 140 140
98 98 98
99 99 99
100 100 100
100 100 100
103 103 103
107 107 107
95 95 95
86 86 86
93 93 93
106 106 106
106 106 106
102 102 102
97 97 97
97 97 97
99 99 99
95 95 95
102 102 102
100 100 100
93 93 93
87 87 87
98 98 98
100 100 100
96 96 96
97 97 97
101 101 101
107 107 107
111 111 111
115 115 115
118 118 118
121 121 121
127 127 127
129 129 129
127 127 127
127 127 127
128 128 128
129 129 129
128 128 128
129 129 129
129 129 129
127 127 127
126 126 126
124 124 124
123 123 123
123 123 123
119 119 119
119 119 119
119 119 119
122 122 122
119 119 119
119 119 119
125 125 125
132 132 132
135 135 135
139 139 139
141 141 141
143 143 143
140 140 140
139 139 139
133 133 133
139 139 139
152 152 152
150 150 150
143 143 143
138 138 138
