P3
64 64
255
90 90 90
80 80 80
73 73 73
78 78 78
90 90 90
103 103 103
116 116 116
127 127 127
133 133 133
136 136 136
137 137 137
136 136 136
136 136 136
135 135 135
133 133 133
131 131 131
130 130 130
128 128 128
129 129 129
130 130 130
130 130 130
129 129 129
130 130 130
131 131 131
132 132 132
133 133 133
134 134 134
136 136 136
138 138 138
141 141 141
143 143 143
142 142 142
143 143 143
145 145 145
147 147 147
149 149 149
152 152 152
157 157 157
159 159 159
161 161 161
164 164 164
166 166 166
170 170 170
172 172 172
174 174 174
176 176 176
179 179 179
182 182 182
183 183 183
183 183 183
185 185 185
186 186 186
186 186 186
187 187 187
185 185 185
182 182 182
183 183 183
184 184 184
182 182 182
178 178 178
173 173 173
175 175 175
178 178 178
163 163 163
86 86 86
75 75 75
70 70 70
77 77 77
89 89 89
102 102 102
114 114 114
125 125 125
134 134 134
136 136 136
136 136 136
136 136 136
135 135 135
133 133 133
131 131 131
130 130 130
130 130 130
128 128 128
129 129 129
129 129 129
128 128 128
129 129 129
130 130 130
131 131 131
131 131 131
132 132 132
134 134 134
136 136 136
137 137 137
140 140 140
142 142 142
141 141 141
142 142 142
143 143 143
145 145 145
146 146 146
149 149 149
153 153 153
155 155 155
156 156 156
159 159 159
162 162 162
164 164 164
168 168 168
170 170 170
172 172 172
174 174 174
178 178 178
180 180 180
182 182 182
184 184 184
184 184 184
184 184 184
184 184 184
186 186 186
183 183 183
183 183 183
184 184 184
182 182 182
178 178 178
175 175 175
174 174 174
179 179 179
168 168 168
80 80 80
71 71 71
68 68 68
77 77 77
89 89 89
102 102 102
113 113 113
125 125 125
135 135 135
136 136 136
135 135 135
134 134 134
133 133 133
132 132 132
130 130 130
129 129 129
129 129 129
128 128 128
127 127 127
128 128 128
128 128 128
130 130 130
130 130 130
130 130 130
131 131 131
131 131 131
134 134 134
136 136 136
137 137 137
138 138 138
140 140 140
140 140 140
141 141 141
142 142 142
143 143 143
143 143 143
146 146 146
149 149 149
151 151 151
152 152 152
154 154 154
158 158 158
160 160 160
163 163 163
167 167 167
169 169 169
172 172 172
174 174 174
176 176 176
179 179 179
181 181 181
182 182 182
183 183 183
184 184 184
183 183 183
183 183 183
182 182 182
183 183 183
181 181 181
178 178 178
174 174 174
173 173 173
176 176 176
169 169 169
74 74 74
67 67 67
67 67 67
78 78 78
91 91 91
101 101 101
112 112 112
127 127 127
135 135 135
135 135 135
133 133 133
132 132 132
132 132 132
131 131 131
130 130 130
129 129 129
128 128 128
128 128 128
127 127 127
126 126 126
128 128 128
129 129 129
130 130 130
130 130 130
131 131 131
133 133 133
134 134 134
136 136 136
138 138 138
137 137 137
139 139 139
139 139 139
140 140 140
140 140 140
141 141 141
142 142 142
144 144 144
146 146 146
148 148 148
149 149 149
150 150 150
153 153 153
155 155 155
159 159 159
162 162 162
164 164 164
166 166 166
168 168 168
170 170 170
172 172 172
176 176 176
177 177 177
179 179 179
180 180 180
181 181 181
182 182 182
180 180 180
181 181 181
180 180 180
178 178 178
174 174 174
173 173 173
174 174 174
170 170 170
70 70 70
63 63 63
66 66 66
76 76 76
92 92 92
101 101 101
112 112 112
127 127 127
134 134 134
133 133 133
132 132 132
132 132 132
132 132 132
130 130 130
129 129 129
127 127 127
128 128 128
126 126 126
126 126 126
126 126 126
127 127 127
129 129 129
130 130 130
131 131 131
133 133 133
133 133 133
135 135 135
136 136 136
139 139 139
140 140 140
139 139 139
139 139 139
140 140 140
139 139 139
139 139 139
142 142 142
144 144 144
145 145 145
146 146 146
146 146 146
146 146 146
146 146 146
149 149 149
152 152 152
153 153 153
155 155 155
157 157 157
160 160 160
163 163 163
165 165 165
168 168 168
169 169 169
172 172 172
176 176 176
177 177 177
178 178 178
178 178 178
179 179 179
179 179 179
177 177 177
175 175 175
173 173 173
173 173 173
169 169 169
65 65 65
60 60 60
64 64 64
77 77 77
93 93 93
101 101 101
112 112 112
127 127 127
132 132 132
132 132 132
131 131 131
133 133 133
132 132 132
129 129 129
127 127 127
127 127 127
126 126 126
126 126 126
126 126 126
128 128 128
130 130 130
131 131 131
133 133 133
134 134 134
136 136 136
136 136 136
136 136 136
137 137 137
139 139 139
141 141 141
140 140 140
140 140 140
140 140 140
140 140 140
138 138 138
141 141 141
143 143 143
143 143 143
143 143 143
143 143 143
143 143 143
141 141 141
142 142 142
145 145 145
148 148 148
149 149 149
150 150 150
153 153 153
157 157 157
158 158 158
160 160 160
163 163 163
164 164 164
168 168 168
171 171 171
171 171 171
172 172 172
174 174 174
176 176 176
176 176 176
173 173 173
172 172 172
173 173 173
170 170 170
63 63 63
60 60 60
64 64 64
78 78 78
94 94 94
101 101 101
113 113 113
126 126 126
131 131 131
129 129 129
130 130 130
131 131 131
130 130 130
129 129 129
127 127 127
127 127 127
126 126 126
129 129 129
131 131 131
133 133 133
134 134 134
135 135 135
137 137 137
138 138 138
140 140 140
139 139 139
140 140 140
140 140 140
143 143 143
143 143 143
142 142 142
141 141 141
141 141 141
140 140 140
139 139 139
140 140 140
141 141 141
141 141 141
142 142 142
144 144 144
142 142 142
142 142 142
140 140 140
140 140 140
144 144 144
147 147 147
148 148 148
149 149 149
151 151 151
153 153 153
155 155 155
157 157 157
154 154 154
154 154 154
163 163 163
167 167 167
164 164 164
165 165 165
169 169 169
171 171 171
170 170 170
170 170 170
171 171 171
172 172 172
66 66 66
62 62 62
68 68 68
81 81 81
96 96 96
103 103 103
114 114 114
127 127 127
128 128 128
126 126 126
128 128 128
130 130 130
133 133 133
132 132 132
131 131 131
130 130 130
131 131 131
133 133 133
134 134 134
135 135 135
137 137 137
138 138 138
139 139 139
142 142 142
144 144 144
144 144 144
147 147 147
148 148 148
148 148 148
146 146 146
144 144 144
142 142 142
141 141 141
141 141 141
140 140 140
140 140 140
140 140 140
141 141 141
144 144 144
144 144 144
143 143 143
144 144 144
142 142 142
139 139 139
141 141 141
145 145 145
146 146 146
146 146 146
149 149 149
149 149 149
150 150 150
156 156 156
152 152 152
145 145 145
150 150 150
160 160 160
162 162 162
157 157 157
157 157 157
160 160 160
165 165 165
166 166 166
169 169 169
169 169 169
68 68 68
64 64 64
70 70 70
84 84 84
100 100 100
108 108 108
118 118 118
125 125 125
126 126 126
124 124 124
125 125 125
129 129 129
132 132 132
131 131 131
132 132 132
132 132 132
136 136 136
135 135 135
134 134 134
134 134 134
138 138 138
139 139 139
141 141 141
143 143 143
145 145 145
145 145 145
150 150 150
151 151 151
150 150 150
148 148 148
146 146 146
143 143 143
143 143 143
142 142 142
141 141 141
140 140 140
138 138 138
139 139 139
146 146 146
143 143 143
141 141 141
143 143 143
142 142 142
136 136 136
137 137 137
139 139 139
139 139 139
147 147 147
147 147 147
147 147 147
147 147 147
154 154 154
158 158 158
149 149 149
143 143 143
148 148 148
155 155 155
156 156 156
151 151 151
150 150 150
155 155 155
159 159 159
163 163 163
166 166 166
69 69 69
64 64 64
70 70 70
84 84 84
103 103 103
112 112 112
120 120 120
124 124 124
121 121 121
120 120 120
122 122 122
128 128 128
132 132 132
133 133 133
134 134 134
137 137 137
139 139 139
139 139 139
137 137 137
139 139 139
140 140 140
141 141 141
143 143 143
144 144 144
148 148 148
148 148 148
149 149 149
153 153 153
150 150 150
147 147 147
145 145 145
143 143 143
141 141 141
143 143 143
140 140 140
137 137 137
132 132 132
134 134 134
146 146 146
144 144 144
139 139 139
143 143 143
142 142 142
132 132 132
133 133 133
133 133 133
134 134 134
156 156 156
158 158 158
155 155 155
152 152 152
152 152 152
158 158 158
156 156 156
149 149 149
142 142 142
146 146 146
154 154 154
156 156 156
149 149 149
149 149 149
152 152 152
157 157 157
160 160 160
70 70 70
65 65 65
71 71 71
85 85 85
105 105 105
116 116 116
123 123 123
123 123 123
119 119 119
120 120 120
123 123 123
128 128 128
131 131 131
133 133 133
136 136 136
139 139 139
141 141 141
140 140 140
139 139 139
139 139 139
142 142 142
142 142 142
142 142 142
145 145 145
149 149 149
151 151 151
156 156 156
154 154 154
149 149 149
144 144 144
141 141 141
141 141 141
139 139 139
142 142 142
140 140 140
133 133 133
125 125 125
128 128 128
135 135 135
139 139 139
136 136 136
134 134 134
131 131 131
127 127 127
130 130 130
132 132 132
137 137 137
148 148 148
161 161 161
166 166 166
167 167 167
167 167 167
167 167 167
165 165 165
162 162 162
159 159 159
155 155 155
148 148 148
157 157 157
153 153 153
147 147 147
148 148 148
152 152 152
157 157 157
69 69 69
65 65 65
73 73 73
86 86 86
108 108 108
119 119 119
123 123 123
122 122 122
117 117 117
117 117 117
121 121 121
127 127 127
131 131 131
136 136 136
140 140 140
142 142 142
147 147 147
145 145 145
147 147 147
145 145 145
148 148 148
146 146 146
145 145 145
151 151 151
158 158 158
153 153 153
156 156 156
166 166 166
158 158 158
145 145 145
143 143 143
146 146 146
146 146 146
144 144 144
140 140 140
132 132 132
125 125 125
126 126 126
126 126 126
126 126 126
124 124 124
124 124 124
126 126 126
129 129 129
133 133 133
135 135 135
139 139 139
143 143 143
162 162 162
168 168 168
167 167 167
165 165 165
163 163 163
160 160 160
155 155 155
154 154 154
160 160 160
165 165 165
152 152 152
153 153 153
150 150 150
149 149 149
148 148 148
154 154 154
64 64 64
64 64 64
77 77 77
91 91 91
111 111 111
120 120 120
121 121 121
122 122 122
117 117 117
121 121 121
127 127 127
133 133 133
141 141 141
146 146 146
146 146 146
147 147 147
146 146 146
142 142 142
142 142 142
141 141 141
144 144 144
146 146 146
147 147 147
152 152 152
163 163 163
165 165 165
164 164 164
161 161 161
160 160 160
149 149 149
145 145 145
148 148 148
149 149 149
147 147 147
143 143 143
136 136 136
126 126 126
123 123 123
119 119 119
123 123 123
127 127 127
129 129 129
133 133 133
137 137 137
139 139 139
143 143 143
149 149 149
159 159 159
175 175 175
173 173 173
169 169 169
166 166 166
158 158 158
145 145 145
137 137 137
134 134 134
140 140 140
153 153 153
154 154 154
154 154 154
150 150 150
150 150 150
149 149 149
152 152 152
59 59 59
64 64 64
78 78 78
90 90 90
107 107 107
115 115 115
122 122 122
126 126 126
129 129 129
131 131 131
129 129 129
131 131 131
134 134 134
135 135 135
137 137 137
143 143 143
147 147 147
147 147 147
149 149 149
147 147 147
149 149 149
147 147 147
147 147 147
147 147 147
153 153 153
161 161 161
163 163 163
159 159 159
157 157 157
151 151 151
147 147 147
147 147 147
147 147 147
144 144 144
143 143 143
136 136 136
126 126 126
122 122 122
121 121 121
125 125 125
131 131 131
132 132 132
136 136 136
139 139 139
142 142 142
148 148 148
154 154 154
162 162 162
179 179 179
179 179 179
175 175 175
171 171 171
166 166 166
149 149 149
137 137 137
126 126 126
128 128 128
140 140 140
152 152 152
153 153 153
150 150 150
151 151 151
151 151 151
151 151 151
58 58 58
76 76 76
89 89 89
91 91 91
102 102 102
112 112 112
125 125 125
134 134 134
136 136 136
134 134 134
120 120 120
115 115 115
123 123 123
130 130 130
136 136 136
145 145 145
151 151 151
152 152 152
157 157 157
154 154 154
152 152 152
144 144 144
139 139 139
134 134 134
136 136 136
144 144 144
151 151 151
159 159 159
156 156 156
155 155 155
150 150 150
148 148 148
147 147 147
144 144 144
135 135 135
129 129 129
125 125 125
123 123 123
124 124 124
130 130 130
134 134 134
137 137 137
140 140 140
142 142 142
142 142 142
143 143 143
148 148 148
151 151 151
162 162 162
168 168 168
166 166 166
164 164 164
152 152 152
145 145 145
139 139 139
130 130 130
127 127 127
136 136 136
148 148 148
152 152 152
152 152 152
153 153 153
148 148 148
150 150 150
59 59 59
74 74 74
81 81 81
85 85 85
100 100 100
110 110 110
129 129 129
140 140 140
141 141 141
135 135 135
121 121 121
118 118 118
127 127 127
136 136 136
139 139 139
144 144 144
142 142 142
145 145 145
149 149 149
150 150 150
149 149 149
144 144 144
141 141 141
139 139 139
134 134 134
136 136 136
145 145 145
152 152 152
153 153 153
152 152 152
145 145 145
144 144 144
142 142 142
138 138 138
131 131 131
125 125 125
122 122 122
124 124 124
129 129 129
141 141 141
141 141 141
148 148 148
151 151 151
150 150 150
148 148 148
137 137 137
130 130 130
135 135 135
141 141 141
150 150 150
151 151 151
152 152 152
145 145 145
137 137 137
141 141 141
137 137 137
132 132 132
133 133 133
144 144 144
150 150 150
161 161 161
160 160 160
145 145 145
147 147 147
62 62 62
69 69 69
73 73 73
89 89 89
105 105 105
114 114 114
129 129 129
142 142 142
144 144 144
141 141 141
135 135 135
132 132 132
137 137 137
144 144 144
144 144 144
146 146 146
138 138 138
138 138 138
142 142 142
144 144 144
145 145 145
145 145 145
147 147 147
149 149 149
145 145 145
140 140 140
142 142 142
146 146 146
150 150 150
149 149 149
144 144 144
144 144 144
143 143 143
138 138 138
132 132 132
128 128 128
123 123 123
125 125 125
134 134 134
151 151 151
149 149 149
156 156 156
159 159 159
160 160 160
157 157 157
151 151 151
138 138 138
136 136 136
135 135 135
141 141 141
136 136 136
139 139 139
147 147 147
145 145 145
142 142 142
145 145 145
145 145 145
139 139 139
140 140 140
145 145 145
152 152 152
155 155 155
153 153 153
145 145 145
66 66 66
70 70 70
74 74 74
90 90 90
104 104 104
113 113 113
124 124 124
138 138 138
142 142 142
145 145 145
150 150 150
149 149 149
151 151 151
150 150 150
146 146 146
149 149 149
141 141 141
138 138 138
143 143 143
143 143 143
145 145 145
147 147 147
148 148 148
152 152 152
147 147 147
142 142 142
141 141 141
142 142 142
150 150 150
148 148 148
144 144 144
142 142 142
141 141 141
137 137 137
132 132 132
129 129 129
123 123 123
128 128 128
139 139 139
149 149 149
153 153 153
156 156 156
156 156 156
160 160 160
156 156 156
153 153 153
148 148 148
143 143 143
145 145 145
148 148 148
143 143 143
139 139 139
138 138 138
150 150 150
157 157 157
156 156 156
157 157 157
151 151 151
142 142 142
141 141 141
143 143 143
146 146 146
141 141 141
142 142 142
68 68 68
67 67 67
69 69 69
88 88 88
107 107 107
113 113 113
127 127 127
144 144 144
148 148 148
150 150 150
155 155 155
154 154 154
152 152 152
148 148 148
143 143 143
140 140 140
138 138 138
138 138 138
141 141 141
141 141 141
146 146 146
150 150 150
151 151 151
149 149 149
151 151 151
149 149 149
131 131 131
138 138 138
149 149 149
147 147 147
143 143 143
140 140 140
139 139 139
136 136 136
131 131 131
129 129 129
123 123 123
130 130 130
141 141 141
146 146 146
153 153 153
155 155 155
155 155 155
159 159 159
157 157 157
154 154 154
152 152 152
149 149 149
152 152 152
153 153 153
148 148 148
141 141 141
139 139 139
149 149 149
160 160 160
163 163 163
160 160 160
154 154 154
145 145 145
143 143 143
145 145 145
150 150 150
144 144 144
137 137 137
76 76 76
69 69 69
63 63 63
79 79 79
104 104 104
116 116 116
133 133 133
144 144 144
148 148 148
150 150 150
149 149 149
148 148 148
147 147 147
144 144 144
138 138 138
135 135 135
135 135 135
138 138 138
143 143 143
146 146 146
149 149 149
150 150 150
152 152 152
148 148 148
149 149 149
142 142 142
125 125 125
136 136 136
147 147 147
146 146 146
142 142 142
137 137 137
135 135 135
135 135 135
133 133 133
128 128 128
124 124 124
128 128 128
142 142 142
150 150 150
152 152 152
158 158 158
156 156 156
156 156 156
157 157 157
155 155 155
153 153 153
149 149 149
150 150 150
151 151 151
150 150 150
145 145 145
144 144 144
151 151 151
159 159 159
161 161 161
161 161 161
157 157 157
148 148 148
142 142 142
144 144 144
146 146 146
143 143 143
139 139 139
95 95 95
82 82 82
69 69 69
78 78 78
102 102 102
113 113 113
126 126 126
139 139 139
142 142 142
143 143 143
142 142 142
146 146 146
147 147 147
142 142 142
136 136 136
135 135 135
136 136 136
139 139 139
143 143 143
146 146 146
149 149 149
152 152 152
155 155 155
153 153 153
147 147 147
130 130 130
124 124 124
138 138 138
146 146 146
145 145 145
140 140 140
136 136 136
134 134 134
134 134 134
133 133 133
130 130 130
125 125 125
128 128 128
141 141 141
150 150 150
154 154 154
158 158 158
159 159 159
158 158 158
158 158 158
158 158 158
157 157 157
153 153 153
150 150 150
150 150 150
148 148 148
146 146 146
143 143 143
146 146 146
155 155 155
159 159 159
156 156 156
154 154 154
150 150 150
143 143 143
145 145 145
147 147 147
144 144 144
139 139 139
113 113 113
90 90 90
77 77 77
86 86 86
101 101 101
113 113 113
125 125 125
139 139 139
140 140 140
140 140 140
140 140 140
143 143 143
146 146 146
146 146 146
143 143 143
141 141 141
142 142 142
144 144 144
147 147 147
148 148 148
150 150 150
152 152 152
154 154 154
152 152 152
138 138 138
123 123 123
127 127 127
139 139 139
145 145 145
142 142 142
138 138 138
135 135 135
136 136 136
135 135 135
132 132 132
131 131 131
129 129 129
128 128 128
134 134 134
146 146 146
152 152 152
155 155 155
158 158 158
159 159 159
161 161 161
160 160 160
159 159 159
157 157 157
154 154 154
153 153 153
151 151 151
148 148 148
146 146 146
147 147 147
149 149 149
155 155 155
155 155 155
155 155 155
152 152 152
144 144 144
144 144 144
144 144 144
142 142 142
143 143 143
111 111 111
87 87 87
79 79 79
89 89 89
105 105 105
116 116 116
126 126 126
136 136 136
139 139 139
138 138 138
135 135 135
135 135 135
137 137 137
139 139 139
141 141 141
139 139 139
140 140 140
141 141 141
144 144 144
145 145 145
148 148 148
147 147 147
147 147 147
142 142 142
131 131 131
124 124 124
130 130 130
139 139 139
142 142 142
138 138 138
136 136 136
136 136 136
139 139 139
136 136 136
133 133 133
130 130 130
128 128 128
128 128 128
131 131 131
137 137 137
146 146 146
151 151 151
154 154 154
154 154 154
155 155 155
157 157 157
159 159 159
159 159 159
157 157 157
156 156 156
153 153 153
150 150 150
148 148 148
148 148 148
150 150 150
152 152 152
153 153 153
155 155 155
151 151 151
144 144 144
146 146 146
145 145 145
146 146 146
146 146 146
107 107 107
85 85 85
81 81 81
95 95 95
109 109 109
117 117 117
123 123 123
131 131 131
135 135 135
135 135 135
135 135 135
133 133 133
130 130 130
130 130 130
131 131 131
130 130 130
131 131 131
134 134 134
138 138 138
140 140 140
139 139 139
137 137 137
134 134 134
133 133 133
132 132 132
127 127 127
130 130 130
137 137 137
138 138 138
135 135 135
135 135 135
138 138 138
139 139 139
135 135 135
134 134 134
132 132 132
129 129 129
129 129 129
134 134 134
135 135 135
138 138 138
145 145 145
149 149 149
149 149 149
151 151 151
151 151 151
152 152 152
151 151 151
152 152 152
152 152 152
152 152 152
149 149 149
148 148 148
147 147 147
148 148 148
149 149 149
151 151 151
152 152 152
148 148 148
145 145 145
146 146 146
146 146 146
146 146 146
147 147 147
104 104 104
86 86 86
86 86 86
99 99 99
111 111 111
118 118 118
122 122 122
128 128 128
132 132 132
134 134 134
134 134 134
132 132 132
128 128 128
127 127 127
126 126 126
126 126 126
128 128 128
130 130 130
131 131 131
133 133 133
130 130 130
126 126 126
132 132 132
135 135 135
132 132 132
127 127 127
132 132 132
138 138 138
137 137 137
133 133 133
134 134 134
138 138 138
138 138 138
135 135 135
134 134 134
133 133 133
129 129 129
126 126 126
132 132 132
139 139 139
136 136 136
138 138 138
146 146 146
145 145 145
145 145 145
145 145 145
146 146 146
146 146 146
146 146 146
146 146 146
146 146 146
146 146 146
144 144 144
144 144 144
145 145 145
147 147 147
150 150 150
148 148 148
143 143 143
144 144 144
149 149 149
146 146 146
144 144 144
144 144 144
102 102 102
87 87 87
91 91 91
103 103 103
112 112 112
119 119 119
123 123 123
128 128 128
130 130 130
128 128 128
130 130 130
129 129 129
128 128 128
126 126 126
125 125 125
126 126 126
127 127 127
126 126 126
124 124 124
123 123 123
124 124 124
128 128 128
134 134 134
132 132 132
129 129 129
128 128 128
135 135 135
139 139 139
138 138 138
133 133 133
133 133 133
138 138 138
139 139 139
136 136 136
134 134 134
133 133 133
129 129 129
124 124 124
129 129 129
138 138 138
138 138 138
139 139 139
140 140 140
140 140 140
141 141 141
142 142 142
144 144 144
145 145 145
146 146 146
145 145 145
144 144 144
144 144 144
141 141 141
141 141 141
143 143 143
145 145 145
145 145 145
144 144 144
143 143 143
145 145 145
147 147 147
144 144 144
142 142 142
143 143 143
99 99 99
89 89 89
93 93 93
101 101 101
112 112 112
118 118 118
124 124 124
127 127 127
129 129 129
130 130 130
129 129 129
129 129 129
126 126 126
124 124 124
124 124 124
123 123 123
123 123 123
124 124 124
124 124 124
124 124 124
125 125 125
128 128 128
129 129 129
128 128 128
128 128 128
131 131 131
137 137 137
140 140 140
138 138 138
134 134 134
135 135 135
139 139 139
141 141 141
140 140 140
137 137 137
135 135 135
132 132 132
124 124 124
126 126 126
134 134 134
137 137 137
142 142 142
144 144 144
137 137 137
135 135 135
136 136 136
139 139 139
140 140 140
141 141 141
140 140 140
141 141 141
139 139 139
136 136 136
136 136 136
137 137 137
139 139 139
142 142 142
145 145 145
146 146 146
146 146 146
146 146 146
142 142 142
140 140 140
144 144 144
96 96 96
88 88 88
92 92 92
103 103 103
113 113 113
119 119 119
123 123 123
127 127 127
128 128 128
129 129 129
130 130 130
130 130 130
128 128 128
127 127 127
126 126 126
125 125 125
123 123 123
123 123 123
124 124 124
123 123 123
124 124 124
124 124 124
123 123 123
126 126 126
128 128 128
130 130 130
134 134 134
141 141 141
139 139 139
137 137 137
136 136 136
138 138 138
140 140 140
142 142 142
139 139 139
135 135 135
132 132 132
127 127 127
129 129 129
132 132 132
132 132 132
138 138 138
145 145 145
142 142 142
139 139 139
135 135 135
136 136 136
135 135 135
134 134 134
133 133 133
135 135 135
133 133 133
132 132 132
133 133 133
134 134 134
137 137 137
143 143 143
146 146 146
147 147 147
146 146 146
145 145 145
138 138 138
138 138 138
146 146 146
93 93 93
91 91 91
97 97 97
109 109 109
114 114 114
118 118 118
123 123 123
125 125 125
126 126 126
126 126 126
126 126 126
124 124 124
122 122 122
122 122 122
121 121 121
121 121 121
120 120 120
121 121 121
122 122 122
122 122 122
122 122 122
121 121 121
120 120 120
126 126 126
127 127 127
124 124 124
128 128 128
138 138 138
142 142 142
141 141 141
139 139 139
136 136 136
137 137 137
139 139 139
138 138 138
131 131 131
128 128 128
129 129 129
135 135 135
139 139 139
132 132 132
133 133 133
140 140 140
141 141 141
139 139 139
136 136 136
135 135 135
134 134 134
133 133 133
132 132 132
133 133 133
132 132 132
133 133 133
132 132 132
133 133 133
137 137 137
142 142 142
145 145 145
146 146 146
145 145 145
143 143 143
137 137 137
137 137 137
145 145 145
92 92 92
92 92 92
102 102 102
112 112 112
114 114 114
115 115 115
120 120 120
123 123 123
123 123 123
123 123 123
122 122 122
119 119 119
118 118 118
119 119 119
119 119 119
119 119 119
120 120 120
121 121 121
122 122 122
120 120 120
119 119 119
120 120 120
119 119 119
125 125 125
123 123 123
116 116 116
117 117 117
132 132 132
147 147 147
147 147 147
140 140 140
133 133 133
132 132 132
134 134 134
131 131 131
122 122 122
118 118 118
125 125 125
137 137 137
146 146 146
141 141 141
137 137 137
137 137 137
136 136 136
136 136 136
134 134 134
132 132 132
131 131 131
131 131 131
130 130 130
130 130 130
129 129 129
130 130 130
130 130 130
132 132 132
135 135 135
140 140 140
145 145 145
146 146 146
144 144 144
142 142 142
135 135 135
137 137 137
143 143 143
88 88 88
94 94 94
103 103 103
111 111 111
111 111 111
112 112 112
116 116 116
121 121 121
123 123 123
122 122 122
121 121 121
120 120 120
119 119 119
120 120 120
121 121 121
121 121 121
122 122 122
122 122 122
122 122 122
119 119 119
116 116 116
117 117 117
115 115 115
120 120 120
118 118 118
109 109 109
106 106 106
125 125 125
149 149 149
150 150 150
135 135 135
125 125 125
124 124 124
128 128 128
124 124 124
112 112 112
110 110 110
120 120 120
135 135 135
147 147 147
146 146 146
144 144 144
141 141 141
135 135 135
134 134 134
130 130 130
130 130 130
129 129 129
129 129 129
128 128 128
128 128 128
127 127 127
126 126 126
129 129 129
131 131 131
134 134 134
139 139 139
142 142 142
143 143 143
142 142 142
140 140 140
134 134 134
137 137 137
139 139 139
82 82 82
92 92 92
101 101 101
110 110 110
108 108 108
109 109 109
112 112 112
119 119 119
121 121 121
121 121 121
120 120 120
121 121 121
121 121 121
122 122 122
123 123 123
123 123 123
124 124 124
122 122 122
120 120 120
116 116 116
115 115 115
115 115 115
112 112 112
113 113 113
115 115 115
109 109 109
105 105 105
125 125 125
148 148 148
146 146 146
127 127 127
114 114 114
117 117 117
126 126 126
125 125 125
113 113 113
107 107 107
115 115 115
129 129 129
142 142 142
144 144 144
145 145 145
145 145 145
140 140 140
136 136 136
133 133 133
131 131 131
131 131 131
129 129 129
128 128 128
126 126 126
127 127 127
127 127 127
129 129 129
131 131 131
133 133 133
138 138 138
140 140 140
140 140 140
139 139 139
138 138 138
132 132 132
134 134 134
136 136 136
74 74 74
86 86 86
98 98 98
108 108 108
108 108 108
107 107 107
110 110 110
116 116 116
119 119 119
120 120 120
121 121 121
122 122 122
124 124 124
124 124 124
124 124 124
124 124 124
124 124 124
122 122 122
119 119 119
116 116 116
117 117 117
120 120 120
114 114 114
114 114 114
112 112 112
111 111 111
114 114 114
128 128 128
137 137 137
131 131 131
112 112 112
104 104 104
112 112 112
123 123 123
125 125 125
115 115 115
107 107 107
110 110 110
122 122 122
136 136 136
142 142 142
143 143 143
147 147 147
144 144 144
141 141 141
139 139 139
134 134 134
133 133 133
133 133 133
131 131 131
131 131 131
131 131 131
131 131 131
132 132 132
134 134 134
134 134 134
137 137 137
137 137 137
136 136 136
137 137 137
136 136 136
129 129 129
124 124 124
135 135 135
71 71 71
79 79 79
94 94 94
104 104 104
106 106 106
106 106 106
108 108 108
113 113 113
116 116 116
118 118 118
121 121 121
123 123 123
125 125 125
124 124 124
124 124 124
125 125 125
123 123 123
119 119 119
118 118 118
118 118 118
123 123 123
128 128 128
123 123 123
119 119 119
116 116 116
114 114 114
117 117 117
126 126 126
125 125 125
114 114 114
100 100 100
100 100 100
112 112 112
124 124 124
126 126 126
121 121 121
115 115 115
115 115 115
124 124 124
133 133 133
140 140 140
142 142 142
147 147 147
148 148 148
146 146 146
142 142 142
136 136 136
134 134 134
135 135 135
134 134 134
134 134 134
134 134 134
134 134 134
135 135 135
135 135 135
135 135 135
135 135 135
136 136 136
133 133 133
134 134 134
134 134 134
126 126 126
124 124 124
136 136 136
70 70 70
74 74 74
88 88 88
100 100 100
103 103 103
105 105 105
105 105 105
110 110 110
114 114 114
117 117 117
121 121 121
123 123 123
125 125 125
124 124 124
125 125 125
124 124 124
122 122 122
120 120 120
121 121 121
125 125 125
130 130 130
133 133 133
129 129 129
123 123 123
117 117 117
117 117 117
120 120 120
122 122 122
115 115 115
103 103 103
99 99 99
104 104 104
116 116 116
125 125 125
128 128 128
128 128 128
126 126 126
125 125 125
129 129 129
134 134 134
137 137 137
141 141 141
147 147 147
150 150 150
150 150 150
144 144 144
141 141 141
136 136 136
133 133 133
135 135 135
136 136 136
137 137 137
136 136 136
135 135 135
135 135 135
136 136 136
134 134 134
133 133 133
131 131 131
130 130 130
130 130 130
125 125 125
127 127 127
138 138 138
74 74 74
71 71 71
81 81 81
99 99 99
104 104 104
105 105 105
107 107 107
108 108 108
112 112 112
116 116 116
121 121 121
123 123 123
124 124 124
124 124 124
124 124 124
123 123 123
121 121 121
122 122 122
126 126 126
131 131 131
132 132 132
131 131 131
128 128 128
126 126 126
119 119 119
116 116 116
118 118 118
113 113 113
107 107 107
101 101 101
104 104 104
113 113 113
123 123 123
129 129 129
129 129 129
131 131 131
131 131 131
128 128 128
129 129 129
129 129 129
131 131 131
136 136 136
146 146 146
151 151 151
149 149 149
145 145 145
144 144 144
140 140 140
134 134 134
132 132 132
134 134 134
136 136 136
137 137 137
136 136 136
134 134 134
134 134 134
132 132 132
129 129 129
128 128 128
127 127 127
126 126 126
125 125 125
129 129 129
140 140 140
78 78 78
72 72 72
80 80 80
96 96 96
104 104 104
107 107 107
108 108 108
110 110 110
111 111 111
116 116 116
121 121 121
123 123 123
124 124 124
124 124 124
122 122 122
123 123 123
123 123 123
125 125 125
131 131 131
133 133 133
131 131 131
128 128 128
122 122 122
122 122 122
120 120 120
118 118 118
116 116 116
105 105 105
101 101 101
103 103 103
109 109 109
117 117 117
126 126 126
129 129 129
128 128 128
129 129 129
128 128 128
130 130 130
131 131 131
130 130 130
130 130 130
136 136 136
144 144 144
150 150 150
148 148 148
145 145 145
143 143 143
142 142 142
138 138 138
132 132 132
131 131 131
133 133 133
135 135 135
134 134 134
134 134 134
132 132 132
129 129 129
127 127 127
125 125 125
124 124 124
123 123 123
124 124 124
129 129 129
140 140 140
81 81 81
74 74 74
82 82 82
95 95 95
105 105 105
107 107 107
110 110 110
111 111 111
112 112 112
117 117 117
122 122 122
124 124 124
124 124 124
123 123 123
124 124 124
125 125 125
125 125 125
128 128 128
131 131 131
131 131 131
129 129 129
126 126 126
119 119 119
114 114 114
115 115 115
117 117 117
115 115 115
106 106 106
100 100 100
105 105 105
110 110 110
114 114 114
121 121 121
122 122 122
124 124 124
126 126 126
126 126 126
126 126 126
129 129 129
128 128 128
130 130 130
135 135 135
142 142 142
147 147 147
148 148 148
144 144 144
141 141 141
143 143 143
141 141 141
134 134 134
132 132 132
132 132 132
132 132 132
132 132 132
131 131 131
130 130 130
127 127 127
125 125 125
122 122 122
121 121 121
121 121 121
123 123 123
131 131 131
141 141 141
83 83 83
75 75 75
80 80 80
91 91 91
104 104 104
107 107 107
111 111 111
112 112 112
113 113 113
117 117 117
122 122 122
125 125 125
125 125 125
125 125 125
126 126 126
126 126 126
126 126 126
125 125 125
128 128 128
128 128 128
128 128 128
124 124 124
117 117 117
112 112 112
109 109 109
113 113 113
114 114 114
110 110 110
105 105 105
109 109 109
112 112 112
113 113 113
117 117 117
119 119 119
121 121 121
127 127 127
127 127 127
125 125 125
127 127 127
130 130 130
131 131 131
134 134 134
140 140 140
143 143 143
147 147 147
144 144 144
144 144 144
142 142 142
142 142 142
139 139 139
135 135 135
135 135 135
133 133 133
129 129 129
128 128 128
128 128 128
124 124 124
123 123 123
121 121 121
119 119 119
119 119 119
124 124 124
131 131 131
137 137 137
82 82 82
77 77 77
77 77 77
86 86 86
103 103 103
108 108 108
109 109 109
113 113 113
114 114 114
117 117 117
122 122 122
126 126 126
125 125 125
126 126 126
129 129 129
126 126 126
120 120 120
121 121 121
123 123 123
123 123 123
121 121 121
118 118 118
112 112 112
111 111 111
109 109 109
109 109 109
112 112 112
109 109 109
108 108 108
112 112 112
114 114 114
113 113 113
119 119 119
124 124 124
126 126 126
128 128 128
128 128 128
129 129 129
130 130 130
130 130 130
131 131 131
133 133 133
136 136 136
140 140 140
141 141 141
140 140 140
144 144 144
143 143 143
142 142 142
141 141 141
137 137 137
137 137 137
137 137 137
132 132 132
126 126 126
124 124 124
121 121 121
122 122 122
119 119 119
118 118 118
116 116 116
120 120 120
127 127 127
127 127 127
80 80 80
78 78 78
77 77 77
83 83 83
101 101 101
109 109 109
107 107 107
111 111 111
114 114 114
115 115 115
120 120 120
125 125 125
127 127 127
132 132 132
133 133 133
123 123 123
116 116 116
117 117 117
115 115 115
112 112 112
111 111 111
110 110 110
107 107 107
107 107 107
106 106 106
105 105 105
109 109 109
108 108 108
110 110 110
116 116 116
118 118 118
117 117 117
123 123 123
126 126 126
129 129 129
128 128 128
130 130 130
132 132 132
132 132 132
132 132 132
131 131 131
132 132 132
134 134 134
135 135 135
134 134 134
135 135 135
138 138 138
140 140 140
141 141 141
142 142 142
139 139 139
137 137 137
138 138 138
135 135 135
127 127 127
123 123 123
122 122 122
122 122 122
118 118 118
116 116 116
110 110 110
113 113 113
118 118 118
116 116 116
77 77 77
76 76 76
76 76 76
80 80 80
95 95 95
106 106 106
107 107 107
109 109 109
113 113 113
113 113 113
117 117 117
124 124 124
130 130 130
137 137 137
133 133 133
120 120 120
113 113 113
110 110 110
107 107 107
102 102 102
102 102 102
104 104 104
103 103 103
103 103 103
104 104 104
102 102 102
105 105 105
107 107 107
111 111 111
119 119 119
123 123 123
127 127 127
128 128 128
127 127 127
128 128 128
131 131 131
129 129 129
130 130 130
130 130 130
131 131 131
131 131 131
129 129 129
131 131 131
132 132 132
130 130 130
130 130 130
130 130 130
135 135 135
136 136 136
141 141 141
141 141 141
137 137 137
135 135 135
134 134 134
128 128 128
124 124 124
122 122 122
122 122 122
116 116 116
111 111 111
104 104 104
111 111 111
114 114 114
111 111 111
76 76 76
75 75 75
75 75 75
78 78 78
89 89 89
100 100 100
108 108 108
106 106 106
111 111 111
114 114 114
114 114 114
124 124 124
130 130 130
134 134 134
133 133 133
122 122 122
111 111 111
107 107 107
103 103 103
98 98 98
97 97 97
101 101 101
104 104 104
106 106 106
107 107 107
106 106 106
107 107 107
110 110 110
117 117 117
123 123 123
128 128 128
131 131 131
131 131 131
129 129 129
129 129 129
131 131 131
128 128 128
127 127 127
129 129 129
129 129 129
129 129 129
127 127 127
128 128 128
128 128 128
124 124 124
124 124 124
126 126 126
131 131 131
133 133 133
137 137 137
140 140 140
141 141 141
135 135 135
133 133 133
130 130 130
124 124 124
122 122 122
120 120 120
113 113 113
105 105 105
102 102 102
111 111 111
109 109 109
106 106 106
77 77 77
76 76 76
76 76 76
76 76 76
83 83 83
94 94 94
106 106 106
104 104 104
106 106 106
113 113 113
112 112 112
120 120 120
128 128 128
129 129 129
131 131 131
125 125 125
116 116 116
110 110 110
111 111 111
108 108 108
105 105 105
108 108 108
106 106 106
104 104 104
108 108 108
110 110 110
113 113 113
114 114 114
123 123 123
129 129 129
134 134 134
135 135 135
136 136 136
137 137 137
137 137 137
134 134 134
133 133 133
133 133 133
133 133 133
132 132 132
131 131 131
128 128 128
129 129 129
126 126 126
123 123 123
122 122 122
126 126 126
130 130 130
133 133 133
136 136 136
140 140 140
142 142 142
140 140 140
134 134 134
131 131 131
124 124 124
121 121 121
117 117 117
111 111 111
103 103 103
103 103 103
110 110 110
107 107 107
104 104 104
79 79 79
78 78 78
78 78 78
76 76 76
78 78 78
89 89 89
102 102 102
105 105 105
101 101 101
108 108 108
111 111 111
114 114 114
123 123 123
126 126 126
128 128 128
130 130 130
127 127 127
123 123 123
121 121 121
118 118 118
116 116 116
117 117 117
117 117 117
111 111 111
104 104 104
103 103 103
107 107 107
110 110 110
116 116 116
123 123 123
127 127 127
130 130 130
133 133 133
136 136 136
136 136 136
134 134 134
134 134 134
133 133 133
131 131 131
129 129 129
130 130 130
131 131 131
132 132 132
129 129 129
127 127 127
127 127 127
129 129 129
130 130 130
133 133 133
137 137 137
141 141 141
140 140 140
140 140 140
135 135 135
131 131 131
125 125 125
119 119 119
114 114 114
110 110 110
101 101 101
105 105 105
108 108 108
107 107 107
105 105 105
86 86 86
82 82 82
79 79 79
75 75 75
76 76 76
84 84 84
98 98 98
106 106 106
98 98 98
103 103 103
109 109 109
111 111 111
116 116 116
122 122 122
124 124 124
131 131 131
134 134 134
135 135 135
132 132 132
132 132 132
126 126 126
126 126 126
127 127 127
126 126 126
119 119 119
112 112 112
111 111 111
113 113 113
114 114 114
117 117 117
120 120 120
123 123 123
126 126 126
130 130 130
133 133 133
132 132 132
132 132 132
133 133 133
132 132 132
132 132 132
134 134 134
137 137 137
138 138 138
139 139 139
135 135 135
134 134 134
134 134 134
132 132 132
135 135 135
138 138 138
139 139 139
139 139 139
139 139 139
135 135 135
129 129 129
122 122 122
115 115 115
113 113 113
105 105 105
102 102 102
105 105 105
109 109 109
107 107 107
108 108 108
94 94 94
89 89 89
84 84 84
75 75 75
74 74 74
79 79 79
91 91 91
105 105 105
100 100 100
98 98 98
106 106 106
112 112 112
111 111 111
115 115 115
121 121 121
129 129 129
135 135 135
137 137 137
137 137 137
139 139 139
139 139 139
138 138 138
132 132 132
131 131 131
127 127 127
121 121 121
119 119 119
122 122 122
125 125 125
126 126 126
129 129 129
132 132 132
132 132 132
135 135 135
138 138 138
140 140 140
139 139 139
142 142 142
142 142 142
141 141 141
141 141 141
144 144 144
145 145 145
148 148 148
145 145 145
142 142 142
140 140 140
136 136 136
137 137 137
136 136 136
138 138 138
138 138 138
138 138 138
134 134 134
126 126 126
119 119 119
114 114 114
110 110 110
102 102 102
101 101 101
104 104 104
110 110 110
110 110 110
118 118 118
103 103 103
95 95 95
88 88 88
78 78 78
74 74 74
74 74 74
85 85 85
102 102 102
103 103 103
96 96 96
102 102 102
108 108 108
110 110 110
111 111 111
119 119 119
128 128 128
134 134 134
137 137 137
139 139 139
141 141 141
141 141 141
141 141 141
139 139 139
132 132 132
129 129 129
125 125 125
123 123 123
126 126 126
128 128 128
131 131 131
135 135 135
138 138 138
138 138 138
140 140 140
143 143 143
146 146 146
148 148 148
149 149 149
153 153 153
150 150 150
148 148 148
150 150 150
150 150 150
150 150 150
146 146 146
144 144 144
142 142 142
138 138 138
137 137 137
134 134 134
138 138 138
137 137 137
136 136 136
130 130 130
123 123 123
119 119 119
115 115 115
108 108 108
100 100 100
100 100 100
103 103 103
112 112 112
118 118 118
127 127 127
109 109 109
104 104 104
93 93 93
81 81 81
76 76 76
73 73 73
80 80 80
98 98 98
103 103 103
99 99 99
97 97 97
103 103 103
108 108 108
110 110 110
117 117 117
127 127 127
133 133 133
139 139 139
142 142 142
143 143 143
142 142 142
138 138 138
139 139 139
134 134 134
129 129 129
128 128 128
127 127 127
130 130 130
133 133 133
136 136 136
137 137 137
139 139 139
140 140 140
142 142 142
146 146 146
149 149 149
150 150 150
152 152 152
156 156 156
151 151 151
150 150 150
151 151 151
151 151 151
152 152 152
150 150 150
150 150 150
145 145 145
141 141 141
138 138 138
136 136 136
136 136 136
136 136 136
133 133 133
125 125 125
122 122 122
118 118 118
116 116 116
108 108 108
97 97 97
99 99 99
105 105 105
117 117 117
126 126 126
130 130 130
111 111 111
110 110 110
97 97 97
85 85 85
79 79 79
73 73 73
76 76 76
95 95 95
102 102 102
102 102 102
96 96 96
97 97 97
104 104 104
111 111 111
114 114 114
121 121 121
130 130 130
136 136 136
139 139 139
143 143 143
142 142 142
137 137 137
135 135 135
132 132 132
127 127 127
123 123 123
125 125 125
128 128 128
129 129 129
131 131 131
132 132 132
136 136 136
139 139 139
137 137 137
139 139 139
142 142 142
144 144 144
147 147 147
150 150 150
147 147 147
147 147 147
149 149 149
150 150 150
155 155 155
152 152 152
151 151 151
145 145 145
142 142 142
139 139 139
137 137 137
137 137 137
134 134 134
127 127 127
122 122 122
118 118 118
118 118 118
119 119 119
108 108 108
95 95 95
100 100 100
108 108 108
123 123 123
131 131 131
129 129 129
111 111 111
110 110 110
102 102 102
87 87 87
81 81 81
75 75 75
77 77 77
91 91 91
98 98 98
101 101 101
99 99 99
96 96 96
98 98 98
108 108 108
115 115 115
116 116 116
123 123 123
129 129 129
131 131 131
134 134 134
137 137 137
135 135 135
133 133 133
129 129 129
122 122 122
117 117 117
119 119 119
123 123 123
122 122 122
123 123 123
125 125 125
127 127 127
130 130 130
129 129 129
130 130 130
132 132 132
136 136 136
138 138 138
140 140 140
141 141 141
144 144 144
148 148 148
150 150 150
152 152 152
149 149 149
147 147 147
144 144 144
142 142 142
140 140 140
138 138 138
135 135 135
130 130 130
125 125 125
121 121 121
117 117 117
121 121 121
121 121 121
109 109 109
94 94 94
101 101 101
115 115 115
130 130 130
135 135 135
129 129 129
112 112 112
110 110 110
106 106 106
94 94 94
85 85 85
77 77 77
81 81 81
89 89 89
94 94 94
99 99 99
101 101 101
100 100 100
96 96 96
101 101 101
112 112 112
114 114 114
115 115 115
122 122 122
125 125 125
125 125 125
128 128 128
127 127 127
129 129 129
129 129 129
121 121 121
115 115 115
117 117 117
117 117 117
115 115 115
118 118 118
120 120 120
118 118 118
121 121 121
123 123 123
124 124 124
128 128 128
131 131 131
133 133 133
136 136 136
140 140 140
146 146 146
150 150 150
148 148 148
149 149 149
145 145 145
142 142 142
141 141 141
142 142 142
141 141 141
137 137 137
133 133 133
128 128 128
125 125 125
121 121 121
120 120 120
123 123 123
120 120 120
111 111 111
95 95 95
105 105 105
121 121 121
134 134 134
137 137 137
130 130 130
111 111 111
109 109 109
107 107 107
100 100 100
88 88 88
77 77 77
84 84 84
88 88 88
90 90 90
98 98 98
102 102 102
103 103 103
100 100 100
98 98 98
105 105 105
111 111 111
111 111 111
115 115 115
120 120 120
121 121 121
122 122 122
123 123 123
124 124 124
125 125 125
121 121 121
118 118 118
122 122 122
123 123 123
121 121 121
121 121 121
122 122 122
119 119 119
121 121 121
124 124 124
127 127 127
132 132 132
133 133 133
135 135 135
136 136 136
140 140 140
148 148 148
148 148 148
145 145 145
144 144 144
142 142 142
139 139 139
139 139 139
140 140 140
139 139 139
135 135 135
130 130 130
127 127 127
123 123 123
123 123 123
123 123 123
123 123 123
120 120 120
110 110 110
98 98 98
112 112 112
129 129 129
137 137 137
138 138 138
134 134 134
112 112 112
109 109 109
108 108 108
105 105 105
92 92 92
81 81 81
85 85 85
87 87 87
90 90 90
99 99 99
105 105 105
104 104 104
104 104 104
100 100 100
101 101 101
104 104 104
107 107 107
111 111 111
115 115 115
119 119 119
118 118 118
121 121 121
122 122 122
123 123 123
120 120 120
119 119 119
122 122 122
126 126 126
128 128 128
128 128 128
128 128 128
126 126 126
126 126 126
130 130 130
134 134 134
137 137 137
138 138 138
139 139 139
140 140 140
141 141 141
145 145 145
144 144 144
142 142 142
142 142 142
140 140 140
139 139 139
138 138 138
137 137 137
134 134 134
131 131 131
129 129 129
124 124 124
124 124 124
123 123 123
125 125 125
125 125 125
119 119 119
108 108 108
102 102 102
120 120 120
133 133 133
139 139 139
139 139 139
135 135 135
114 114 114
109 109 109
108 108 108
108 108 108
96 96 96
84 84 84
84 84 84
82 82 82
91 91 91
101 101 101
107 107 107
103 103 103
103 103 103
103 103 103
99 99 99
100 100 100
103 103 103
108 108 108
112 112 112
120 120 120
120 120 120
121 121 121
122 122 122
123 123 123
123 123 123
122 122 122
123 123 123
126 126 126
131 131 131
133 133 133
132 132 132
131 131 131
132 132 132
136 136 136
140 140 140
141 141 141
140 140 140
139 139 139
141 141 141
143 143 143
143 143 143
144 144 144
142 142 142
142 142 142
142 142 142
140 140 140
138 138 138
134 134 134
132 132 132
130 130 130
128 128 128
124 124 124
125 125 125
124 124 124
125 125 125
125 125 125
120 120 120
109 109 109
108 108 108
128 128 128
136 136 136
141 141 141
140 140 140
137 137 137
113 113 113
110 110 110
109 109 109
108 108 108
100 100 100
84 84 84
79 79 79
81 81 81
92 92 92
102 102 102
107 107 107
106 106 106
100 100 100
102 102 102
101 101 101
100 100 100
100 100 100
104 104 104
109 109 109
117 117 117
122 122 122
123 123 123
127 127 127
127 127 127
125 125 125
123 123 123
126 126 126
130 130 130
132 132 132
135 135 135
136 136 136
134 134 134
134 134 134
138 138 138
140 140 140
141 141 141
139 139 139
139 139 139
142 142 142
144 144 144
144 144 144
144 144 144
144 144 144
144 144 144
142 142 142
140 140 140
136 136 136
133 133 133
131 131 131
129 129 129
128 128 128
126 126 126
126 126 126
125 125 125
124 124 124
123 123 123
117 117 117
115 115 115
114 114 114
132 132 132
138 138 138
143 143 143
141 141 141
139 139 139
112 112 112
110 110 110
108 108 108
107 107 107
103 103 103
87 87 87
80 80 80
81 81 81
95 95 95
103 103 103
107 107 107
105 105 105
103 103 103
100 100 100
100 100 100
97 97 97
100 100 100
101 101 101
103 103 103
112 112 112
119 119 119
124 124 124
127 127 127
129 129 129
126 126 126
124 124 124
127 127 127
129 129 129
129 129 129
131 131 131
132 132 132
133 133 133
132 132 132
135 135 135
137 137 137
141 141 141
141 141 141
141 141 141
143 143 143
144 144 144
146 146 146
146 146 146
146 146 146
145 145 145
141 141 141
138 138 138
134 134 134
130 130 130
130 130 130
129 129 129
128 128 128
127 127 127
126 126 126
123 123 123
121 121 121
120 120 120
119 119 119
119 119 119
118 118 118
133 133 133
139 139 139
143 143 143
140 140 140
138 138 138
112 112 112
107 107 107
103 103 103
101 101 101
100 100 100
91 91 91
81 81 81
82 82 82
93 93 93
103 103 103
106 106 106
106 106 106
103 103 103
100 100 100
100 100 100
97 97 97
99 99 99
99 99 99
98 98 98
105 105 105
114 114 114
122 122 122
128 128 128
130 130 130
127 127 127
130 130 130
131 131 131
129 129 129
128 128 128
129 129 129
131 131 131
133 133 133
130 130 130
130 130 130
135 135 135
139 139 139
141 141 141
142 142 142
142 142 142
143 143 143
147 147 147
147 147 147
145 145 145
143 143 143
138 138 138
134 134 134
131 131 131
129 129 129
128 128 128
129 129 129
128 128 128
127 127 127
125 125 125
120 120 120
121 121 121
123 123 123
122 122 122
123 123 123
122 122 122
133 133 133
139 139 139
144 144 144
141 141 141
136 136 136
105 105 105
99 99 99
98 98 98
97 97 97
100 100 100
96 96 96
85 85 85
83 83 83
91 91 91
103 103 103
107 107 107
107 107 107
104 104 104
102 102 102
100 100 100
96 96 96
98 98 98
97 97 97
97 97 97
99 99 99
108 108 108
115 115 115
124 124 124
128 128 128
127 127 127
132 132 132
134 134 134
133 133 133
131 131 131
132 132 132
134 134 134
134 134 134
132 132 132
132 132 132
135 135 135
138 138 138
141 141 141
141 141 141
140 140 140
142 142 142
146 146 146
144 144 144
142 142 142
139 139 139
135 135 135
131 131 131
128 128 128
128 128 128
129 129 129
130 130 130
129 129 129
125 125 125
123 123 123
121 121 121
124 124 124
126 126 126
125 125 125
127 127 127
124 124 124
132 132 132
139 139 139
143 143 143
140 140 140
136 136 136
99 99 99
94 94 94
96 96 96
97 97 97
100 100 100
99 99 99
89 89 89
85 85 85
91 91 91
102 102 102
108 108 108
108 108 108
106 106 106
103 103 103
102 102 102
97 97 97
97 97 97
99 99 99
95 95 95
97 97 97
101 101 101
109 109 109
117 117 117
123 123 123
125 125 125
128 128 128
130 130 130
131 131 131
131 131 131
130 130 130
133 133 133
132 132 132
130 130 130
133 133 133
134 134 134
136 136 136
137 137 137
139 139 139
138 138 138
141 141 141
143 143 143
140 140 140
137 137 137
136 136 136
132 132 132
129 129 129
126 126 126
126 126 126
129 129 129
129 129 129
125 125 125
121 121 121
124 124 124
124 124 124
127 127 127
130 130 130
129 129 129
130 130 130
125 125 125
132 132 132
139 139 139
140 140 140
138 138 138
135 135 135
96 96 96
95 95 95
95 95 95
97 97 97
101 101 101
102 102 102
92 92 92
86 86 86
90 90 90
104 104 104
109 109 109
109 109 109
106 106 106
104 104 104
104 104 104
99 99 99
98 98 98
98 98 98
95 95 95
95 95 95
98 98 98
102 102 102
110 110 110
115 115 115
118 118 118
119 119 119
121 121 121
123 123 123
124 124 124
125 125 125
126 126 126
126 126 126
127 127 127
127 127 127
129 129 129
132 132 132
132 132 132
134 134 134
135 135 135
137 137 137
137 137 137
135 135 135
133 133 133
132 132 132
128 128 128
125 125 125
127 127 127
125 125 125
126 126 126
127 127 127
119 119 119
120 120 120
123 123 123
130 130 130
131 131 131
135 135 135
133 133 133
133 133 133
126 126 126
132 132 132
140 140 140
136 136 136
135 135 135
134 134 134
93 93 93
95 95 95
94 94 94
97 97 97
99 99 99
102 102 102
93 93 93
87 87 87
93 93 93
108 108 108
111 111 111
109 109 109
105 105 105
103 103 103
105 105 105
100 100 100
102 102 102
97 97 97
93 93 93
95 95 95
98 98 98
97 97 97
103 103 103
107 107 107
110 110 110
111 111 111
113 113 113
115 115 115
119 119 119
121 121 121
124 124 124
124 124 124
124 124 124
126 126 126
128 128 128
130 130 130
132 132 132
134 134 134
132 132 132
133 133 133
131 131 131
131 131 131
128 128 128
128 128 128
125 125 125
122 122 122
125 125 125
126 126 126
125 125 125
121 121 121
121 121 121
123 123 123
125 125 125
132 132 132
135 135 135
138 138 138
137 137 137
135 135 135
128 128 128
133 133 133
141 141 141
137 137 137
132 132 132
132 132 132
91 91 91
94 94 94
94 94 94
94 94 94
97 97 97
101 101 101
92 92 92
86 86 86
97 97 97
113 113 113
114 114 114
108 108 108
103 103 103
103 103 103
104 104 104
101 101 101
105 105 105
99 99 99
92 92 92
93 93 93
99 99 99
98 98 98
97 97 97
101 101 101
105 105 105
106 106 106
109 109 109
112 112 112
115 115 115
119 119 119
121 121 121
122 122 122
123 123 123
124 124 124
127 127 127
126 126 126
127 127 127
129 129 129
128 128 128
128 128 128
126 126 126
126 126 126
123 123 123
123 123 123
121 121 121
119 119 119
121 121 121
124 124 124
122 122 122
119 119 119
123 123 123
127 127 127
129 129 129
135 135 135
138 138 138
140 140 140
138 138 138
136 136 136
130 130 130
132 132 132
142 142 142
139 139 139
132 132 132
130 130 130
91 91 91
91 91 91
93 93 93
93 93 93
95 95 95
99 99 99
91 91 91
88 88 88
100 100 100
114 114 114
113 113 113
109 109 109
103 103 103
102 102 102
102 102 102
98 98 98
103 103 103
101 101 101
96 96 96
90 90 90
99 99 99
99 99 99
96 96 96
97 97 97
99 99 99
103 103 103
106 106 106
110 110 110
112 112 112
115 115 115
120 120 120
122 122 122
121 121 121
121 121 121
121 121 121
122 122 122
122 122 122
123 123 123
123 123 123
122 122 122
122 122 122
120 120 120
119 119 119
119 119 119
116 116 116
117 117 117
118 118 118
121 121 121
119 119 119
119 119 119
125 125 125
132 132 132
135 135 135
138 138 138
140 140 140
142 142 142
139 139 139
138 138 138
130 130 130
131 131 131
140 140 140
139 139 139
133 133 133
129 129 129
