P3
64 64
255
101 101 101
90 90 90
82 82 82
87 87 87
100 100 100
115 115 115
131 131 131
143 143 143
151 151 151
154 154 154
155 155 155
155 155 155
155 155 155
153 153 153
150 150 150
149 149 149
148 148 148
146 146 146
146 146 146
147 147 147
147 147 147
147 147 147
148 148 148
149 149 149
150 150 150
151 151 151
152 152 152
155 155 155
157 157 157
161 161 161
163 163 163
162 162 162
163 163 163
165 165 165
167 167 167
170 170 170
173 173 173
179 179 179
181 181 181
183 183 183
186 186 186
190 190 190
193 193 193
196 196 196
198 198 198
201 201 201
204 204 204
207 207 207
209 209 209
209 209 209
211 211 211
212 212 212
212 212 212
213 213 213
211 211 211
208 208 208
208 208 208
210 210 210
208 208 208
202 202 202
197 197 197
199 199 199
204 204 204
186 186 186
96 96 96
84 84 84
77 77 77
86 86 86
100 100 100
114 114 114
128 128 128
141 141 141
151 151 151
154 154 154
154 154 154
155 155 155
154 154 154
151 151 151
148 148 148
147 147 147
147 147 147
145 145 145
146 146 146
146 146 146
146 146 146
147 147 147
148 148 148
148 148 148
149 149 149
150 150 150
153 153 153
155 155 155
156 156 156
159 159 159
161 161 161
160 160 160
162 162 162
163 163 163
165 165 165
166 166 166
169 169 169
174 174 174
176 176 176
178 178 178
181 181 181
184 184 184
187 187 187
191 191 191
194 194 194
196 196 196
199 199 199
203 203 203
206 206 206
208 208 208
210 210 210
210 210 210
210 210 210
210 210 210
212 212 212
209 209 209
208 208 208
209 209 209
207 207 207
202 202 202
199 199 199
199 199 199
204 204 204
191 191 191
90 90 90
79 79 79
76 76 76
86 86 86
100 100 100
114 114 114
127 127 127
142 142 142
153 153 153
155 155 155
153 153 153
152 152 152
151 151 151
149 149 149
148 148 148
146 146 146
146 146 146
145 145 145
145 145 145
145 145 145
146 146 146
147 147 147
148 148 148
147 147 147
148 148 148
149 149 149
152 152 152
155 155 155
156 156 156
157 157 157
159 159 159
159 159 159
161 161 161
161 161 161
163 163 163
163 163 163
166 166 166
169 169 169
171 171 171
173 173 173
176 176 176
180 180 180
183 183 183
186 186 186
190 190 190
192 192 192
196 196 196
198 198 198
201 201 201
204 204 204
206 206 206
208 208 208
208 208 208
209 209 209
209 209 209
209 209 209
208 208 208
209 209 209
207 207 207
203 203 203
198 198 198
197 197 197
201 201 201
193 193 193
83 83 83
75 75 75
74 74 74
87 87 87
102 102 102
113 113 113
126 126 126
143 143 143
153 153 153
153 153 153
151 151 151
150 150 150
150 150 150
148 148 148
147 147 147
146 146 146
145 145 145
145 145 145
144 144 144
143 143 143
145 145 145
147 147 147
147 147 147
147 147 147
149 149 149
151 151 151
152 152 152
155 155 155
157 157 157
156 156 156
158 158 158
158 158 158
159 159 159
159 159 159
160 160 160
162 162 162
163 163 163
167 167 167
168 168 168
169 169 169
171 171 171
174 174 174
177 177 177
180 180 180
184 184 184
186 186 186
189 189 189
192 192 192
194 194 194
196 196 196
200 200 200
202 202 202
204 204 204
206 206 206
206 206 206
207 207 207
206 206 206
207 207 207
205 205 205
203 203 203
198 198 198
197 197 197
199 199 199
194 194 194
78 78 78
70 70 70
73 73 73
85 85 85
102 102 102
113 113 113
126 126 126
143 143 143
151 151 151
151 151 151
150 150 150
150 150 150
150 150 150
148 148 148
146 146 146
144 144 144
145 145 145
143 143 143
142 142 142
143 143 143
145 145 145
146 146 146
147 147 147
148 148 148
151 151 151
152 152 152
153 153 153
154 154 154
158 158 158
159 159 159
158 158 158
158 158 158
159 159 159
158 158 158
158 158 158
161 161 161
163 163 163
165 165 165
165 165 165
166 166 166
166 166 166
166 166 166
169 169 169
172 172 172
174 174 174
176 176 176
178 178 178
183 183 183
186 186 186
188 188 188
191 191 191
193 193 193
196 196 196
200 200 200
201 201 201
202 202 202
203 203 203
203 203 203
204 204 204
202 202 202
199 199 199
197 197 197
197 197 197
193 193 193
72 72 72
66 66 66
71 71 71
85 85 85
104 104 104
113 113 113
126 126 126
143 143 143
150 150 150
149 149 149
149 149 149
151 151 151
149 149 149
146 146 146
144 144 144
144 144 144
143 143 143
142 142 142
143 143 143
145 145 145
148 148 148
149 149 149
151 151 151
152 152 152
154 154 154
154 154 154
154 154 154
155 155 155
158 158 158
160 160 160
159 159 159
159 159 159
159 159 159
159 159 159
157 157 157
160 160 160
162 162 162
163 163 163
163 163 163
163 163 163
162 162 162
161 161 161
162 162 162
165 165 165
168 168 168
169 169 169
170 170 170
174 174 174
179 179 179
180 180 180
182 182 182
185 185 185
186 186 186
192 192 192
195 195 195
195 195 195
196 196 196
198 198 198
200 200 200
200 200 200
197 197 197
196 196 196
197 197 197
194 194 194
70 70 70
66 66 66
71 71 71
87 87 87
105 105 105
113 113 113
127 127 127
143 143 143
148 148 148
146 146 146
147 147 147
148 148 148
148 148 148
146 146 146
144 144 144
144 144 144
144 144 144
146 146 146
148 148 148
151 151 151
152 152 152
154 154 154
155 155 155
157 157 157
159 159 159
158 158 158
159 159 159
160 160 160
163 163 163
162 162 162
162 162 162
160 160 160
160 160 160
159 159 159
158 158 158
159 159 159
161 161 161
160 160 160
162 162 162
163 163 163
161 161 161
161 161 161
159 159 159
159 159 159
164 164 164
167 167 167
168 168 168
170 170 170
172 172 172
174 174 174
176 176 176
179 179 179
175 175 175
175 175 175
186 186 186
190 190 190
187 187 187
188 188 188
192 192 192
194 194 194
194 194 194
193 193 193
195 195 195
196 196 196
73 73 73
68 68 68
75 75 75
90 90 90
108 108 108
116 116 116
129 129 129
144 144 144
145 145 145
142 142 142
145 145 145
148 148 148
151 151 151
150 150 150
149 149 149
147 147 147
149 149 149
152 152 152
153 153 153
154 154 154
156 156 156
157 157 157
159 159 159
162 162 162
164 164 164
164 164 164
167 167 167
169 169 169
168 168 168
166 166 166
164 164 164
162 162 162
161 161 161
160 160 160
159 159 159
159 159 159
159 159 159
160 160 160
164 164 164
164 164 164
163 163 163
164 164 164
162 162 162
159 159 159
161 161 161
165 165 165
166 166 166
167 167 167
169 169 169
170 170 170
171 171 171
178 178 178
173 173 173
165 165 165
170 170 170
182 182 182
184 184 184
178 178 178
178 178 178
182 182 182
187 187 187
189 189 189
192 192 192
193 193 193
75 75 75
71 71 71
77 77 77
93 93 93
112 112 112
121 121 121
133 133 133
142 142 142
143 143 143
141 141 141
141 141 141
147 147 147
150 150 150
149 149 149
150 150 150
150 150 150
155 155 155
154 154 154
152 152 152
153 153 153
157 157 157
158 158 158
161 161 161
163 163 163
165 165 165
166 166 166
171 171 171
172 172 172
171 171 171
168 168 168
167 167 167
162 162 162
163 163 163
161 161 161
160 160 160
159 159 159
156 156 156
159 159 159
167 167 167
163 163 163
161 161 161
163 163 163
161 161 161
155 155 155
156 156 156
158 158 158
159 159 159
168 168 168
168 168 168
168 168 168
168 168 168
176 176 176
180 180 180
170 170 170
163 163 163
169 169 169
177 177 177
178 178 178
172 172 172
170 170 170
177 177 177
181 181 181
186 186 186
189 189 189
77 77 77
70 70 70
77 77 77
93 93 93
115 115 115
126 126 126
136 136 136
140 140 140
137 137 137
136 136 136
138 138 138
145 145 145
150 150 150
151 151 151
153 153 153
155 155 155
159 159 159
158 158 158
156 156 156
158 158 158
160 160 160
160 160 160
163 163 163
164 164 164
169 169 169
168 168 168
169 169 169
175 175 175
171 171 171
167 167 167
165 165 165
162 162 162
161 161 161
163 163 163
159 159 159
155 155 155
150 150 150
153 153 153
166 166 166
164 164 164
158 158 158
163 163 163
162 162 162
150 150 150
151 151 151
152 152 152
153 153 153
178 178 178
180 180 180
177 177 177
173 173 173
173 173 173
180 180 180
178 178 178
170 170 170
162 162 162
166 166 166
175 175 175
178 178 178
170 170 170
169 169 169
173 173 173
179 179 179
183 183 183
77 77 77
72 72 72
79 79 79
94 94 94
118 118 118
131 131 131
140 140 140
140 140 140
135 135 135
136 136 136
139 139 139
146 146 146
149 149 149
151 151 151
154 154 154
158 158 158
160 160 160
159 159 159
158 158 158
159 159 159
162 162 162
162 162 162
161 161 161
165 165 165
170 170 170
172 172 172
178 178 178
176 176 176
169 169 169
164 164 164
160 160 160
160 160 160
158 158 158
161 161 161
159 159 159
151 151 151
142 142 142
145 145 145
154 154 154
158 158 158
155 155 155
152 152 152
149 149 149
144 144 144
148 148 148
151 151 151
156 156 156
168 168 168
183 183 183
189 189 189
190 190 190
190 190 190
190 190 190
188 188 188
184 184 184
181 181 181
177 177 177
169 169 169
179 179 179
174 174 174
167 167 167
169 169 169
172 172 172
179 179 179
77 77 77
71 71 71
81 81 81
95 95 95
121 121 121
135 135 135
140 140 140
138 138 138
133 133 133
133 133 133
137 137 137
144 144 144
149 149 149
155 155 155
159 159 159
162 162 162
167 167 167
165 165 165
167 167 167
165 165 165
169 169 169
166 166 166
166 166 166
172 172 172
180 180 180
174 174 174
177 177 177
190 190 190
180 180 180
165 165 165
162 162 162
166 166 166
166 166 166
164 164 164
159 159 159
150 150 150
142 142 142
143 143 143
143 143 143
143 143 143
141 141 141
141 141 141
144 144 144
147 147 147
151 151 151
153 153 153
158 158 158
163 163 163
185 185 185
191 191 191
191 191 191
188 188 188
185 185 185
182 182 182
177 177 177
175 175 175
183 183 183
188 188 188
174 174 174
175 175 175
170 170 170
169 169 169
168 168 168
175 175 175
71 71 71
70 70 70
86 86 86
101 101 101
124 124 124
135 135 135
137 137 137
138 138 138
133 133 133
136 136 136
143 143 143
151 151 151
160 160 160
166 166 166
166 166 166
167 167 167
166 166 166
162 162 162
161 161 161
161 161 161
164 164 164
166 166 166
168 168 168
173 173 173
186 186 186
188 188 188
186 186 186
184 184 184
182 182 182
170 170 170
165 165 165
168 168 168
169 169 169
167 167 167
162 162 162
154 154 154
143 143 143
140 140 140
135 135 135
139 139 139
144 144 144
147 147 147
151 151 151
156 156 156
159 159 159
163 163 163
170 170 170
181 181 181
199 199 199
196 196 196
192 192 192
189 189 189
180 180 180
165 165 165
156 156 156
152 152 152
159 159 159
174 174 174
176 176 176
175 175 175
171 171 171
171 171 171
169 169 169
173 173 173
65 65 65
71 71 71
87 87 87
101 101 101
121 121 121
130 130 130
138 138 138
142 142 142
146 146 146
149 149 149
146 146 146
148 148 148
152 152 152
154 154 154
156 156 156
162 162 162
168 168 168
168 168 168
170 170 170
167 167 167
169 169 169
168 168 168
167 167 167
167 167 167
174 174 174
184 184 184
185 185 185
181 181 181
179 179 179
171 171 171
168 168 168
167 167 167
167 167 167
164 164 164
162 162 162
154 154 154
143 143 143
139 139 139
137 137 137
142 142 142
149 149 149
150 150 150
155 155 155
159 159 159
162 162 162
168 168 168
175 175 175
184 184 184
205 205 205
204 204 204
199 199 199
195 195 195
188 188 188
170 170 170
155 155 155
143 143 143
145 145 145
159 159 159
173 173 173
175 175 175
171 171 171
171 171 171
172 172 172
172 172 172
64 64 64
84 84 84
99 99 99
102 102 102
115 115 115
126 126 126
141 141 141
151 151 151
154 154 154
152 152 152
136 136 136
130 130 130
139 139 139
147 147 147
154 154 154
165 165 165
171 171 171
174 174 174
179 179 179
176 176 176
173 173 173
164 164 164
159 159 159
153 153 153
155 155 155
165 165 165
172 172 172
181 181 181
178 178 178
176 176 176
171 171 171
168 168 168
167 167 167
163 163 163
154 154 154
146 146 146
142 142 142
139 139 139
141 141 141
148 148 148
153 153 153
156 156 156
159 159 159
161 161 161
161 161 161
163 163 163
169 169 169
172 172 172
184 184 184
192 192 192
189 189 189
186 186 186
172 172 172
165 165 165
158 158 158
148 148 148
144 144 144
154 154 154
169 169 169
173 173 173
174 174 174
174 174 174
169 169 169
170 170 170
65 65 65
82 82 82
90 90 90
95 95 95
112 112 112
124 124 124
145 145 145
158 158 158
160 160 160
154 154 154
137 137 137
133 133 133
143 143 143
154 154 154
158 158 158
164 164 164
162 162 162
165 165 165
169 169 169
171 171 171
170 170 170
164 164 164
161 161 161
158 158 158
152 152 152
155 155 155
165 165 165
174 174 174
174 174 174
173 173 173
165 165 165
163 163 163
162 162 162
157 157 157
148 148 148
141 141 141
138 138 138
140 140 140
146 146 146
161 161 161
161 161 161
168 168 168
172 172 172
171 171 171
168 168 168
156 156 156
148 148 148
153 153 153
160 160 160
171 171 171
172 172 172
173 173 173
165 165 165
156 156 156
160 160 160
155 155 155
150 150 150
151 151 151
164 164 164
171 171 171
183 183 183
183 183 183
165 165 165
168 168 168
68 68 68
77 77 77
81 81 81
99 99 99
118 118 118
128 128 128
145 145 145
161 161 161
164 164 164
160 160 160
153 153 153
150 150 150
156 156 156
164 164 164
163 163 163
166 166 166
156 156 156
157 157 157
161 161 161
164 164 164
165 165 165
165 165 165
167 167 167
170 170 170
165 165 165
159 159 159
162 162 162
167 167 167
171 171 171
169 169 169
164 164 164
164 164 164
163 163 163
157 157 157
149 149 149
145 145 145
139 139 139
141 141 141
153 153 153
172 172 172
170 170 170
178 178 178
181 181 181
182 182 182
179 179 179
172 172 172
157 157 157
155 155 155
154 154 154
160 160 160
154 154 154
158 158 158
167 167 167
165 165 165
162 162 162
165 165 165
165 165 165
157 157 157
159 159 159
165 165 165
173 173 173
177 177 177
174 174 174
165 165 165
73 73 73
78 78 78
82 82 82
101 101 101
117 117 117
127 127 127
140 140 140
157 157 157
161 161 161
165 165 165
171 171 171
170 170 170
172 172 172
171 171 171
166 166 166
170 170 170
160 160 160
157 157 157
163 163 163
163 163 163
165 165 165
168 168 168
169 169 169
173 173 173
168 168 168
162 162 162
161 161 161
161 161 161
171 171 171
168 168 168
163 163 163
161 161 161
161 161 161
156 156 156
149 149 149
147 147 147
140 140 140
145 145 145
158 158 158
170 170 170
174 174 174
178 178 178
178 178 178
182 182 182
178 178 178
174 174 174
169 169 169
163 163 163
165 165 165
169 169 169
162 162 162
158 158 158
157 157 157
171 171 171
179 179 179
178 178 178
179 179 179
171 171 171
161 161 161
160 160 160
162 162 162
166 166 166
161 161 161
162 162 162
75 75 75
74 74 74
77 77 77
98 98 98
121 121 121
127 127 127
143 143 143
164 164 164
168 168 168
171 171 171
176 176 176
176 176 176
173 173 173
169 169 169
163 163 163
159 159 159
157 157 157
157 157 157
160 160 160
161 161 161
167 167 167
171 171 171
172 172 172
170 170 170
172 172 172
169 169 169
149 149 149
156 156 156
170 170 170
167 167 167
163 163 163
160 160 160
158 158 158
155 155 155
149 149 149
146 146 146
139 139 139
147 147 147
160 160 160
166 166 166
174 174 174
177 177 177
176 176 176
182 182 182
179 179 179
175 175 175
173 173 173
169 169 169
173 173 173
174 174 174
168 168 168
161 161 161
158 158 158
170 170 170
183 183 183
186 186 186
182 182 182
175 175 175
165 165 165
163 163 163
165 165 165
170 170 170
164 164 164
156 156 156
86 86 86
77 77 77
70 70 70
88 88 88
117 117 117
131 131 131
150 150 150
163 163 163
168 168 168
170 170 170
169 169 169
168 168 168
168 168 168
164 164 164
157 157 157
154 154 154
154 154 154
157 157 157
163 163 163
166 166 166
171 171 171
171 171 171
173 173 173
168 168 168
170 170 170
161 161 161
142 142 142
155 155 155
167 167 167
166 166 166
162 162 162
156 156 156
154 154 154
153 153 153
151 151 151
145 145 145
140 140 140
145 145 145
161 161 161
171 171 171
173 173 173
180 180 180
178 178 178
178 178 178
179 179 179
177 177 177
174 174 174
170 170 170
171 171 171
172 172 172
171 171 171
165 165 165
164 164 164
172 172 172
182 182 182
184 184 184
183 183 183
178 178 178
168 168 168
161 161 161
164 164 164
166 166 166
163 163 163
158 158 158
107 107 107
91 91 91
77 77 77
87 87 87
114 114 114
127 127 127
143 143 143
158 158 158
161 161 161
163 163 163
162 162 162
166 166 166
167 167 167
161 161 161
155 155 155
154 154 154
155 155 155
159 159 159
163 163 163
166 166 166
170 170 170
173 173 173
176 176 176
174 174 174
167 167 167
148 148 148
140 140 140
156 156 156
166 166 166
165 165 165
159 159 159
154 154 154
152 152 152
152 152 152
151 151 151
147 147 147
142 142 142
145 145 145
160 160 160
171 171 171
175 175 175
180 180 180
182 182 182
181 181 181
180 180 180
181 181 181
179 179 179
174 174 174
171 171 171
171 171 171
169 169 169
166 166 166
163 163 163
167 167 167
177 177 177
181 181 181
178 178 178
175 175 175
171 171 171
162 162 162
165 165 165
167 167 167
163 163 163
159 159 159
127 127 127
101 101 101
86 86 86
96 96 96
114 114 114
127 127 127
142 142 142
157 157 157
159 159 159
158 158 158
158 158 158
163 163 163
166 166 166
166 166 166
162 162 162
161 161 161
162 162 162
164 164 164
167 167 167
169 169 169
171 171 171
173 173 173
175 175 175
172 172 172
157 157 157
140 140 140
144 144 144
158 158 158
165 165 165
161 161 161
156 156 156
153 153 153
155 155 155
153 153 153
150 150 150
148 148 148
146 146 146
145 145 145
153 153 153
166 166 166
173 173 173
177 177 177
180 180 180
181 181 181
184 184 184
182 182 182
182 182 182
179 179 179
175 175 175
174 174 174
172 172 172
169 169 169
167 167 167
167 167 167
170 170 170
177 177 177
176 176 176
176 176 176
173 173 173
164 164 164
164 164 164
164 164 164
162 162 162
162 162 162
126 126 126
98 98 98
88 88 88
100 100 100
118 118 118
131 131 131
143 143 143
155 155 155
158 158 158
156 156 156
153 153 153
153 153 153
155 155 155
158 158 158
160 160 160
158 158 158
159 159 159
161 161 161
163 163 163
165 165 165
168 168 168
167 167 167
167 167 167
161 161 161
149 149 149
140 140 140
147 147 147
158 158 158
161 161 161
157 157 157
155 155 155
155 155 155
158 158 158
155 155 155
151 151 151
148 148 148
145 145 145
146 146 146
149 149 149
156 156 156
166 166 166
172 172 172
176 176 176
176 176 176
177 177 177
179 179 179
181 181 181
181 181 181
179 179 179
177 177 177
175 175 175
171 171 171
168 168 168
168 168 168
170 170 170
174 174 174
175 175 175
177 177 177
171 171 171
164 164 164
166 166 166
165 165 165
166 166 166
167 167 167
121 121 121
96 96 96
90 90 90
106 106 106
123 123 123
132 132 132
140 140 140
149 149 149
153 153 153
153 153 153
153 153 153
150 150 150
147 147 147
147 147 147
148 148 148
148 148 148
149 149 149
153 153 153
157 157 157
159 159 159
158 158 158
156 156 156
153 153 153
151 151 151
150 150 150
144 144 144
147 147 147
156 156 156
157 157 157
153 153 153
153 153 153
157 157 157
158 158 158
154 154 154
152 152 152
150 150 150
147 147 147
146 146 146
152 152 152
153 153 153
157 157 157
165 165 165
170 170 170
170 170 170
171 171 171
172 172 172
174 174 174
172 172 172
173 173 173
174 174 174
173 173 173
170 170 170
169 169 169
168 168 168
168 168 168
170 170 170
172 172 172
174 174 174
169 169 169
165 165 165
167 167 167
166 166 166
166 166 166
167 167 167
117 117 117
96 96 96
96 96 96
111 111 111
125 125 125
133 133 133
138 138 138
145 145 145
149 149 149
152 152 152
153 153 153
150 150 150
145 145 145
143 143 143
143 143 143
143 143 143
145 145 145
148 148 148
149 149 149
151 151 151
147 147 147
143 143 143
149 149 149
153 153 153
149 149 149
143 143 143
149 149 149
156 156 156
155 155 155
150 150 150
152 152 152
157 157 157
156 156 156
153 153 153
152 152 152
151 151 151
146 146 146
143 143 143
150 150 150
159 159 159
155 155 155
157 157 157
166 166 166
165 165 165
165 165 165
165 165 165
167 167 167
166 166 166
166 166 166
166 166 166
166 166 166
166 166 166
164 164 164
164 164 164
165 165 165
168 168 168
171 171 171
169 169 169
163 163 163
164 164 164
169 169 169
166 166 166
164 164 164
164 164 164
115 115 115
97 97 97
102 102 102
116 116 116
126 126 126
134 134 134
140 140 140
146 146 146
147 147 147
145 145 145
147 147 147
146 146 146
145 145 145
143 143 143
142 142 142
143 143 143
144 144 144
143 143 143
141 141 141
140 140 140
141 141 141
145 145 145
152 152 152
150 150 150
146 146 146
146 146 146
153 153 153
158 158 158
156 156 156
151 151 151
152 152 152
157 157 157
158 158 158
154 154 154
152 152 152
151 151 151
147 147 147
141 141 141
146 146 146
157 157 157
158 158 158
158 158 158
159 159 159
160 160 160
161 161 161
162 162 162
163 163 163
166 166 166
166 166 166
164 164 164
164 164 164
164 164 164
160 160 160
160 160 160
163 163 163
165 165 165
165 165 165
164 164 164
163 163 163
165 165 165
167 167 167
163 163 163
162 162 162
163 163 163
112 112 112
100 100 100
104 104 104
114 114 114
126 126 126
134 134 134
140 140 140
144 144 144
146 146 146
147 147 147
146 146 146
146 146 146
143 143 143
141 141 141
140 140 140
140 140 140
140 140 140
140 140 140
141 141 141
141 141 141
142 142 142
145 145 145
146 146 146
146 146 146
146 146 146
148 148 148
155 155 155
160 160 160
157 157 157
153 153 153
154 154 154
158 158 158
161 161 161
159 159 159
156 156 156
153 153 153
150 150 150
140 140 140
143 143 143
152 152 152
156 156 156
161 161 161
164 164 164
156 156 156
154 154 154
155 155 155
158 158 158
160 160 160
161 161 161
160 160 160
160 160 160
158 158 158
155 155 155
155 155 155
156 156 156
159 159 159
162 162 162
165 165 165
166 166 166
166 166 166
166 166 166
161 161 161
159 159 159
164 164 164
107 107 107
99 99 99
103 103 103
116 116 116
127 127 127
134 134 134
139 139 139
144 144 144
145 145 145
147 147 147
148 148 148
147 147 147
145 145 145
144 144 144
143 143 143
142 142 142
139 139 139
139 139 139
140 140 140
140 140 140
140 140 140
141 141 141
140 140 140
143 143 143
145 145 145
147 147 147
152 152 152
160 160 160
158 158 158
156 156 156
155 155 155
157 157 157
160 160 160
161 161 161
158 158 158
153 153 153
150 150 150
144 144 144
146 146 146
150 150 150
150 150 150
157 157 157
165 165 165
162 162 162
158 158 158
154 154 154
154 154 154
153 153 153
153 153 153
152 152 152
153 153 153
151 151 151
150 150 150
151 151 151
152 152 152
156 156 156
162 162 162
166 166 166
167 167 167
166 166 166
165 165 165
157 157 157
157 157 157
166 166 166
104 104 104
101 101 101
108 108 108
122 122 122
129 129 129
133 133 133
139 139 139
141 141 141
143 143 143
143 143 143
143 143 143
140 140 140
138 138 138
139 139 139
137 137 137
137 137 137
136 136 136
137 137 137
138 138 138
138 138 138
138 138 138
137 137 137
135 135 135
142 142 142
144 144 144
140 140 140
145 145 145
157 157 157
162 162 162
161 161 161
159 159 159
155 155 155
157 157 157
159 159 159
157 157 157
149 149 149
145 145 145
146 146 146
154 154 154
158 158 158
150 150 150
152 152 152
159 159 159
160 160 160
158 158 158
155 155 155
154 154 154
152 152 152
151 151 151
150 150 150
151 151 151
150 150 150
151 151 151
150 150 150
152 152 152
156 156 156
162 162 162
165 165 165
166 166 166
165 165 165
163 163 163
155 155 155
156 156 156
166 166 166
103 103 103
103 103 103
115 115 115
126 126 126
128 128 128
130 130 130
136 136 136
139 139 139
140 140 140
139 139 139
138 138 138
135 135 135
134 134 134
135 135 135
135 135 135
135 135 135
137 137 137
138 138 138
138 138 138
136 136 136
135 135 135
136 136 136
135 135 135
141 141 141
139 139 139
131 131 131
132 132 132
151 151 151
168 168 168
168 168 168
159 159 159
152 152 152
150 150 150
153 153 153
149 149 149
138 138 138
134 134 134
143 143 143
156 156 156
166 166 166
161 161 161
156 156 156
155 155 155
154 154 154
155 155 155
152 152 152
151 151 151
149 149 149
149 149 149
148 148 148
148 148 148
147 147 147
147 147 147
148 148 148
150 150 150
154 154 154
159 159 159
165 165 165
165 165 165
164 164 164
161 161 161
153 153 153
156 156 156
163 163 163
99 99 99
105 105 105
115 115 115
125 125 125
124 124 124
126 126 126
131 131 131
137 137 137
139 139 139
138 138 138
137 137 137
136 136 136
134 134 134
136 136 136
138 138 138
138 138 138
138 138 138
138 138 138
138 138 138
134 134 134
131 131 131
132 132 132
130 130 130
136 136 136
134 134 134
123 123 123
121 121 121
142 142 142
170 170 170
171 171 171
154 154 154
143 143 143
141 141 141
146 146 146
141 141 141
128 128 128
126 126 126
136 136 136
153 153 153
167 167 167
167 167 167
164 164 164
161 161 161
154 154 154
152 152 152
148 148 148
147 147 147
147 147 147
146 146 146
146 146 146
145 145 145
144 144 144
144 144 144
146 146 146
149 149 149
152 152 152
158 158 158
161 161 161
162 162 162
161 161 161
159 159 159
152 152 152
155 155 155
158 158 158
92 92 92
103 103 103
113 113 113
123 123 123
122 122 122
123 123 123
127 127 127
134 134 134
137 137 137
136 136 136
135 135 135
137 137 137
137 137 137
138 138 138
140 140 140
140 140 140
140 140 140
138 138 138
136 136 136
132 132 132
131 131 131
130 130 130
127 127 127
128 128 128
131 131 131
123 123 123
119 119 119
143 143 143
169 169 169
166 166 166
144 144 144
129 129 129
133 133 133
143 143 143
142 142 142
129 129 129
122 122 122
130 130 130
146 146 146
162 162 162
164 164 164
165 165 165
165 165 165
159 159 159
155 155 155
151 151 151
149 149 149
149 149 149
146 146 146
146 146 146
144 144 144
144 144 144
144 144 144
147 147 147
149 149 149
152 152 152
157 157 157
159 159 159
159 159 159
158 158 158
157 157 157
149 149 149
152 152 152
154 154 154
83 83 83
96 96 96
110 110 110
122 122 122
121 121 121
120 120 120
124 124 124
131 131 131
134 134 134
136 136 136
137 137 137
138 138 138
140 140 140
140 140 140
141 141 141
141 141 141
141 141 141
138 138 138
134 134 134
131 131 131
133 133 133
135 135 135
129 129 129
128 128 128
127 127 127
125 125 125
129 129 129
145 145 145
156 156 156
149 149 149
127 127 127
118 118 118
127 127 127
140 140 140
142 142 142
130 130 130
122 122 122
125 125 125
139 139 139
154 154 154
161 161 161
163 163 163
168 168 168
164 164 164
160 160 160
157 157 157
152 152 152
152 152 152
151 151 151
149 149 149
149 149 149
149 149 149
149 149 149
151 151 151
152 152 152
153 153 153
156 156 156
156 156 156
155 155 155
156 156 156
155 155 155
147 147 147
141 141 141
153 153 153
79 79 79
88 88 88
105 105 105
117 117 117
119 119 119
119 119 119
122 122 122
127 127 127
130 130 130
134 134 134
137 137 137
139 139 139
142 142 142
141 141 141
141 141 141
141 141 141
139 139 139
135 135 135
133 133 133
133 133 133
139 139 139
145 145 145
140 140 140
134 134 134
131 131 131
129 129 129
133 133 133
143 143 143
142 142 142
129 129 129
113 113 113
114 114 114
127 127 127
141 141 141
143 143 143
138 138 138
130 130 130
131 131 131
141 141 141
151 151 151
159 159 159
162 162 162
167 167 167
168 168 168
166 166 166
161 161 161
155 155 155
153 153 153
153 153 153
152 152 152
153 153 153
153 153 153
152 152 152
153 153 153
154 154 154
153 153 153
153 153 153
154 154 154
151 151 151
152 152 152
152 152 152
143 143 143
140 140 140
155 155 155
79 79 79
82 82 82
98 98 98
112 112 112
116 116 116
118 118 118
119 119 119
124 124 124
129 129 129
132 132 132
137 137 137
140 140 140
141 141 141
141 141 141
142 142 142
141 141 141
138 138 138
135 135 135
137 137 137
141 141 141
147 147 147
151 151 151
146 146 146
139 139 139
133 133 133
133 133 133
136 136 136
138 138 138
130 130 130
116 116 116
112 112 112
118 118 118
131 131 131
142 142 142
145 145 145
145 145 145
143 143 143
142 142 142
147 147 147
153 153 153
156 156 156
160 160 160
167 167 167
171 171 171
170 170 170
164 164 164
161 161 161
154 154 154
151 151 151
153 153 153
155 155 155
156 156 156
155 155 155
154 154 154
154 154 154
154 154 154
152 152 152
150 150 150
148 148 148
148 148 148
147 147 147
142 142 142
144 144 144
157 157 157
83 83 83
79 79 79
91 91 91
111 111 111
117 117 117
118 118 118
120 120 120
121 121 121
126 126 126
131 131 131
137 137 137
140 140 140
141 141 141
140 140 140
140 140 140
139 139 139
137 137 137
138 138 138
142 142 142
148 148 148
149 149 149
148 148 148
145 145 145
143 143 143
134 134 134
131 131 131
133 133 133
128 128 128
121 121 121
115 115 115
118 118 118
128 128 128
140 140 140
147 147 147
147 147 147
148 148 148
148 148 148
145 145 145
147 147 147
146 146 146
148 148 148
154 154 154
166 166 166
171 171 171
169 169 169
165 165 165
163 163 163
159 159 159
152 152 152
150 150 150
153 153 153
155 155 155
156 156 156
154 154 154
152 152 152
152 152 152
150 150 150
146 146 146
145 145 145
144 144 144
142 142 142
142 142 142
147 147 147
160 160 160
87 87 87
80 80 80
90 90 90
108 108 108
117 117 117
120 120 120
121 121 121
124 124 124
125 125 125
130 130 130
137 137 137
139 139 139
141 141 141
141 141 141
139 139 139
139 139 139
139 139 139
142 142 142
149 149 149
151 151 151
149 149 149
145 145 145
138 138 138
138 138 138
135 135 135
133 133 133
130 130 130
119 119 119
114 114 114
117 117 117
123 123 123
133 133 133
143 143 143
147 147 147
145 145 145
146 146 146
145 145 145
147 147 147
149 149 149
147 147 147
147 147 147
154 154 154
164 164 164
171 171 171
168 168 168
165 165 165
162 162 162
162 162 162
156 156 156
149 149 149
149 149 149
151 151 151
153 153 153
153 153 153
152 152 152
150 150 150
147 147 147
144 144 144
142 142 142
140 140 140
139 139 139
141 141 141
147 147 147
159 159 159
91 91 91
82 82 82
92 92 92
106 106 106
118 118 118
121 121 121
124 124 124
125 125 125
126 126 126
132 132 132
138 138 138
140 140 140
141 141 141
140 140 140
140 140 140
141 141 141
141 141 141
145 145 145
148 148 148
148 148 148
146 146 146
143 143 143
135 135 135
128 128 128
130 130 130
132 132 132
130 130 130
119 119 119
113 113 113
119 119 119
125 125 125
129 129 129
137 137 137
139 139 139
140 140 140
143 143 143
143 143 143
142 142 142
146 146 146
145 145 145
147 147 147
154 154 154
161 161 161
167 167 167
168 168 168
164 164 164
161 161 161
162 162 162
160 160 160
153 153 153
150 150 150
150 150 150
149 149 149
149 149 149
149 149 149
147 147 147
143 143 143
141 141 141
139 139 139
138 138 138
137 137 137
140 140 140
149 149 149
161 161 161
93 93 93
84 84 84
89 89 89
102 102 102
117 117 117
120 120 120
125 125 125
126 126 126
127 127 127
132 132 132
138 138 138
141 141 141
141 141 141
141 141 141
142 142 142
143 143 143
142 142 142
142 142 142
145 145 145
145 145 145
145 145 145
140 140 140
133 133 133
126 126 126
123 123 123
128 128 128
128 128 128
124 124 124
118 118 118
124 124 124
126 126 126
127 127 127
133 133 133
135 135 135
137 137 137
144 144 144
143 143 143
141 141 141
144 144 144
147 147 147
148 148 148
153 153 153
159 159 159
163 163 163
167 167 167
164 164 164
163 163 163
161 161 161
162 162 162
158 158 158
154 154 154
153 153 153
151 151 151
146 146 146
145 145 145
144 144 144
140 140 140
140 140 140
137 137 137
135 135 135
135 135 135
141 141 141
149 149 149
156 156 156
92 92 92
87 87 87
86 86 86
96 96 96
116 116 116
121 121 121
123 123 123
127 127 127
128 128 128
132 132 132
138 138 138
142 142 142
142 142 142
143 143 143
146 146 146
142 142 142
136 136 136
137 137 137
139 139 139
139 139 139
137 137 137
133 133 133
127 127 127
125 125 125
123 123 123
123 123 123
126 126 126
123 123 123
122 122 122
126 126 126
129 129 129
128 128 128
134 134 134
140 140 140
142 142 142
145 145 145
145 145 145
146 146 146
147 147 147
148 148 148
149 149 149
151 151 151
155 155 155
159 159 159
161 161 161
159 159 159
164 164 164
162 162 162
161 161 161
160 160 160
156 156 156
155 155 155
156 156 156
150 150 150
143 143 143
140 140 140
137 137 137
139 139 139
135 135 135
133 133 133
131 131 131
136 136 136
144 144 144
145 145 145
90 90 90
87 87 87
86 86 86
93 93 93
114 114 114
122 122 122
121 121 121
125 125 125
129 129 129
129 129 129
136 136 136
142 142 142
143 143 143
150 150 150
150 150 150
139 139 139
132 132 132
132 132 132
130 130 130
126 126 126
125 125 125
124 124 124
121 121 121
121 121 121
120 120 120
119 119 119
122 122 122
122 122 122
124 124 124
131 131 131
133 133 133
133 133 133
139 139 139
143 143 143
146 146 146
145 145 145
147 147 147
149 149 149
150 150 150
149 149 149
148 148 148
149 149 149
152 152 152
154 154 154
153 153 153
153 153 153
157 157 157
159 159 159
160 160 160
161 161 161
157 157 157
156 156 156
156 156 156
154 154 154
144 144 144
140 140 140
138 138 138
138 138 138
134 134 134
131 131 131
124 124 124
128 128 128
134 134 134
132 132 132
86 86 86
85 85 85
85 85 85
89 89 89
107 107 107
119 119 119
120 120 120
122 122 122
127 127 127
127 127 127
133 133 133
141 141 141
148 148 148
156 156 156
152 152 152
136 136 136
128 128 128
125 125 125
120 120 120
115 115 115
115 115 115
118 118 118
116 116 116
116 116 116
117 117 117
115 115 115
118 118 118
121 121 121
125 125 125
134 134 134
139 139 139
144 144 144
146 146 146
144 144 144
146 146 146
148 148 148
146 146 146
148 148 148
148 148 148
149 149 149
148 148 148
147 147 147
149 149 149
150 150 150
147 147 147
147 147 147
148 148 148
153 153 153
155 155 155
160 160 160
161 161 161
156 156 156
153 153 153
152 152 152
145 145 145
140 140 140
139 139 139
138 138 138
132 132 132
125 125 125
118 118 118
126 126 126
129 129 129
126 126 126
85 85 85
84 84 84
83 83 83
87 87 87
99 99 99
113 113 113
121 121 121
119 119 119
125 125 125
129 129 129
129 129 129
140 140 140
148 148 148
152 152 152
151 151 151
138 138 138
126 126 126
121 121 121
117 117 117
111 111 111
109 109 109
114 114 114
118 118 118
120 120 120
121 121 121
120 120 120
121 121 121
125 125 125
133 133 133
140 140 140
145 145 145
149 149 149
149 149 149
146 146 146
147 147 147
148 148 148
146 146 146
145 145 145
146 146 146
146 146 146
146 146 146
145 145 145
146 146 146
145 145 145
141 141 141
140 140 140
143 143 143
148 148 148
151 151 151
156 156 156
160 160 160
160 160 160
154 154 154
151 151 151
147 147 147
140 140 140
138 138 138
135 135 135
128 128 128
119 119 119
115 115 115
126 126 126
124 124 124
120 120 120
86 86 86
85 85 85
85 85 85
85 85 85
93 93 93
105 105 105
119 119 119
116 116 116
120 120 120
127 127 127
126 126 126
136 136 136
145 145 145
147 147 147
148 148 148
141 141 141
132 132 132
125 125 125
125 125 125
123 123 123
119 119 119
123 123 123
120 120 120
118 118 118
122 122 122
124 124 124
128 128 128
130 130 130
139 139 139
147 147 147
152 152 152
153 153 153
155 155 155
156 156 156
156 156 156
152 152 152
152 152 152
151 151 151
151 151 151
150 150 150
149 149 149
145 145 145
147 147 147
142 142 142
140 140 140
139 139 139
143 143 143
147 147 147
151 151 151
154 154 154
159 159 159
161 161 161
159 159 159
152 152 152
149 149 149
141 141 141
137 137 137
133 133 133
126 126 126
116 116 116
117 117 117
125 125 125
121 121 121
118 118 118
89 89 89
87 87 87
87 87 87
85 85 85
87 87 87
100 100 100
115 115 115
118 118 118
113 113 113
122 122 122
126 126 126
129 129 129
139 139 139
143 143 143
145 145 145
148 148 148
144 144 144
140 140 140
137 137 137
134 134 134
132 132 132
132 132 132
133 133 133
125 125 125
118 118 118
117 117 117
121 121 121
125 125 125
132 132 132
140 140 140
145 145 145
148 148 148
151 151 151
154 154 154
154 154 154
152 152 152
152 152 152
151 151 151
149 149 149
146 146 146
147 147 147
148 148 148
150 150 150
147 147 147
145 145 145
144 144 144
146 146 146
147 147 147
151 151 151
156 156 156
160 160 160
159 159 159
159 159 159
154 154 154
149 149 149
142 142 142
135 135 135
129 129 129
124 124 124
114 114 114
119 119 119
123 123 123
121 121 121
119 119 119
96 96 96
92 92 92
89 89 89
84 84 84
85 85 85
94 94 94
110 110 110
119 119 119
110 110 110
116 116 116
123 123 123
125 125 125
131 131 131
138 138 138
141 141 141
149 149 149
153 153 153
154 154 154
150 150 150
150 150 150
143 143 143
142 142 142
144 144 144
143 143 143
135 135 135
127 127 127
125 125 125
128 128 128
129 129 129
133 133 133
137 137 137
140 140 140
144 144 144
148 148 148
151 151 151
150 150 150
150 150 150
152 152 152
150 150 150
150 150 150
153 153 153
156 156 156
157 157 157
158 158 158
154 154 154
153 153 153
152 152 152
150 150 150
154 154 154
157 157 157
158 158 158
158 158 158
158 158 158
153 153 153
146 146 146
139 139 139
131 131 131
128 128 128
119 119 119
115 115 115
119 119 119
123 123 123
121 121 121
122 122 122
106 106 106
100 100 100
94 94 94
84 84 84
83 83 83
88 88 88
103 103 103
119 119 119
112 112 112
111 111 111
120 120 120
126 126 126
125 125 125
130 130 130
137 137 137
146 146 146
154 154 154
156 156 156
155 155 155
158 158 158
157 157 157
157 157 157
150 150 150
148 148 148
144 144 144
137 137 137
135 135 135
138 138 138
141 141 141
144 144 144
147 147 147
150 150 150
150 150 150
153 153 153
156 156 156
159 159 159
158 158 158
162 162 162
161 161 161
161 161 161
161 161 161
164 164 164
165 165 165
169 169 169
165 165 165
162 162 162
160 160 160
155 155 155
155 155 155
154 154 154
156 156 156
157 157 157
157 157 157
152 152 152
142 142 142
135 135 135
129 129 129
125 125 125
116 116 116
114 114 114
118 118 118
124 124 124
125 125 125
134 134 134
116 116 116
108 108 108
99 99 99
87 87 87
83 83 83
83 83 83
95 95 95
115 115 115
116 116 116
108 108 108
114 114 114
121 121 121
124 124 124
126 126 126
135 135 135
145 145 145
153 153 153
156 156 156
158 158 158
160 160 160
160 160 160
160 160 160
158 158 158
150 150 150
146 146 146
141 141 141
140 140 140
142 142 142
145 145 145
150 150 150
154 154 154
157 157 157
157 157 157
160 160 160
162 162 162
166 166 166
169 169 169
170 170 170
174 174 174
171 171 171
169 169 169
171 171 171
170 170 170
171 171 171
166 166 166
164 164 164
162 162 162
156 156 156
155 155 155
152 152 152
157 157 157
156 156 156
154 154 154
148 148 148
140 140 140
134 134 134
130 130 130
122 122 122
113 113 113
113 113 113
116 116 116
127 127 127
134 134 134
144 144 144
124 124 124
117 117 117
105 105 105
91 91 91
85 85 85
82 82 82
89 89 89
110 110 110
116 116 116
112 112 112
109 109 109
116 116 116
122 122 122
125 125 125
133 133 133
144 144 144
151 151 151
158 158 158
161 161 161
162 162 162
161 161 161
157 157 157
158 158 158
152 152 152
147 147 147
145 145 145
144 144 144
148 148 148
151 151 151
154 154 154
156 156 156
158 158 158
160 160 160
162 162 162
166 166 166
170 170 170
171 171 171
174 174 174
178 178 178
172 172 172
170 170 170
172 172 172
172 172 172
173 173 173
170 170 170
170 170 170
165 165 165
160 160 160
157 157 157
155 155 155
155 155 155
155 155 155
151 151 151
141 141 141
138 138 138
133 133 133
132 132 132
122 122 122
110 110 110
112 112 112
118 118 118
133 133 133
144 144 144
148 148 148
127 127 127
124 124 124
110 110 110
96 96 96
88 88 88
82 82 82
85 85 85
107 107 107
115 115 115
115 115 115
108 108 108
109 109 109
118 118 118
125 125 125
128 128 128
137 137 137
147 147 147
154 154 154
158 158 158
163 163 163
162 162 162
156 156 156
153 153 153
150 150 150
144 144 144
140 140 140
142 142 142
145 145 145
147 147 147
149 149 149
150 150 150
155 155 155
158 158 158
156 156 156
158 158 158
161 161 161
164 164 164
168 168 168
171 171 171
168 168 168
167 167 167
169 169 169
171 171 171
176 176 176
173 173 173
171 171 171
165 165 165
161 161 161
158 158 158
156 156 156
155 155 155
152 152 152
144 144 144
139 139 139
134 134 134
134 134 134
135 135 135
123 123 123
107 107 107
113 113 113
123 123 123
140 140 140
149 149 149
147 147 147
126 126 126
124 124 124
116 116 116
98 98 98
91 91 91
84 84 84
86 86 86
102 102 102
111 111 111
114 114 114
111 111 111
108 108 108
110 110 110
122 122 122
130 130 130
131 131 131
140 140 140
146 146 146
148 148 148
152 152 152
155 155 155
153 153 153
151 151 151
146 146 146
139 139 139
132 132 132
135 135 135
139 139 139
139 139 139
140 140 140
142 142 142
145 145 145
147 147 147
147 147 147
148 148 148
150 150 150
155 155 155
157 157 157
160 160 160
160 160 160
164 164 164
169 169 169
170 170 170
173 173 173
170 170 170
167 167 167
164 164 164
161 161 161
159 159 159
157 157 157
153 153 153
148 148 148
141 141 141
137 137 137
133 133 133
137 137 137
137 137 137
124 124 124
106 106 106
115 115 115
130 130 130
148 148 148
154 154 154
147 147 147
127 127 127
125 125 125
120 120 120
106 106 106
95 95 95
86 86 86
91 91 91
100 100 100
106 106 106
112 112 112
114 114 114
113 113 113
108 108 108
114 114 114
127 127 127
129 129 129
130 130 130
138 138 138
141 141 141
142 142 142
145 145 145
144 144 144
146 146 146
146 146 146
137 137 137
130 130 130
133 133 133
133 133 133
130 130 130
133 133 133
136 136 136
134 134 134
137 137 137
140 140 140
141 141 141
145 145 145
149 149 149
151 151 151
155 155 155
159 159 159
167 167 167
170 170 170
169 169 169
170 170 170
165 165 165
162 162 162
160 160 160
161 161 161
160 160 160
156 156 156
151 151 151
145 145 145
141 141 141
137 137 137
136 136 136
139 139 139
136 136 136
125 125 125
108 108 108
119 119 119
138 138 138
153 153 153
156 156 156
149 149 149
126 126 126
124 124 124
122 122 122
114 114 114
99 99 99
87 87 87
95 95 95
99 99 99
102 102 102
110 110 110
115 115 115
116 116 116
113 113 113
110 110 110
118 118 118
125 125 125
125 125 125
130 130 130
136 136 136
137 137 137
138 138 138
139 139 139
141 141 141
142 142 142
137 137 137
134 134 134
139 139 139
140 140 140
137 137 137
137 137 137
138 138 138
135 135 135
137 137 137
141 141 141
145 145 145
150 150 150
152 152 152
154 154 154
155 155 155
159 159 159
169 169 169
168 168 168
165 165 165
163 163 163
161 161 161
158 158 158
158 158 158
159 159 159
158 158 158
153 153 153
147 147 147
144 144 144
139 139 139
140 140 140
140 140 140
140 140 140
136 136 136
125 125 125
111 111 111
127 127 127
147 147 147
156 156 156
157 157 157
152 152 152
127 127 127
123 123 123
123 123 123
119 119 119
104 104 104
90 90 90
96 96 96
97 97 97
102 102 102
111 111 111
118 118 118
118 118 118
117 117 117
113 113 113
113 113 113
117 117 117
121 121 121
125 125 125
130 130 130
135 135 135
134 134 134
137 137 137
138 138 138
139 139 139
136 136 136
135 135 135
138 138 138
143 143 143
145 145 145
146 146 146
146 146 146
143 143 143
143 143 143
148 148 148
153 153 153
156 156 156
157 157 157
158 158 158
159 159 159
161 161 161
165 165 165
164 164 164
161 161 161
162 162 162
159 159 159
158 158 158
157 157 157
155 155 155
153 153 153
149 149 149
146 146 146
141 141 141
141 141 141
140 140 140
141 141 141
141 141 141
135 135 135
123 123 123
115 115 115
137 137 137
152 152 152
158 158 158
159 159 159
154 154 154
129 129 129
123 123 123
123 123 123
123 123 123
108 108 108
95 95 95
94 94 94
93 93 93
102 102 102
114 114 114
120 120 120
116 116 116
116 116 116
116 116 116
112 112 112
112 112 112
116 116 116
122 122 122
127 127 127
135 135 135
136 136 136
137 137 137
138 138 138
140 140 140
140 140 140
138 138 138
140 140 140
143 143 143
149 149 149
152 152 152
150 150 150
149 149 149
150 150 150
155 155 155
160 160 160
161 161 161
159 159 159
158 158 158
160 160 160
162 162 162
163 163 163
163 163 163
161 161 161
162 162 162
161 161 161
159 159 159
157 157 157
152 152 152
150 150 150
147 147 147
146 146 146
141 141 141
142 142 142
140 140 140
142 142 142
141 141 141
136 136 136
123 123 123
122 122 122
146 146 146
155 155 155
161 161 161
160 160 160
156 156 156
128 128 128
124 124 124
123 123 123
123 123 123
114 114 114
95 95 95
89 89 89
91 91 91
103 103 103
114 114 114
120 120 120
119 119 119
113 113 113
114 114 114
113 113 113
113 113 113
112 112 112
117 117 117
123 123 123
133 133 133
138 138 138
139 139 139
144 144 144
145 145 145
142 142 142
140 140 140
143 143 143
148 148 148
150 150 150
153 153 153
154 154 154
152 152 152
153 153 153
157 157 157
159 159 159
161 161 161
158 158 158
158 158 158
162 162 162
164 164 164
164 164 164
164 164 164
164 164 164
164 164 164
162 162 162
159 159 159
154 154 154
151 151 151
149 149 149
146 146 146
146 146 146
142 142 142
143 143 143
141 141 141
140 140 140
139 139 139
133 133 133
130 130 130
129 129 129
151 151 151
157 157 157
163 163 163
161 161 161
158 158 158
127 127 127
125 125 125
123 123 123
122 122 122
117 117 117
98 98 98
90 90 90
91 91 91
107 107 107
116 116 116
120 120 120
119 119 119
116 116 116
112 112 112
113 113 113
109 109 109
112 112 112
114 114 114
116 116 116
127 127 127
135 135 135
141 141 141
145 145 145
146 146 146
143 143 143
141 141 141
145 145 145
146 146 146
147 147 147
149 149 149
151 151 151
152 152 152
150 150 150
153 153 153
155 155 155
160 160 160
160 160 160
160 160 160
163 163 163
163 163 163
166 166 166
166 166 166
166 166 166
165 165 165
160 160 160
157 157 157
152 152 152
148 148 148
147 147 147
146 146 146
145 145 145
144 144 144
143 143 143
140 140 140
137 137 137
136 136 136
135 135 135
135 135 135
134 134 134
152 152 152
158 158 158
164 164 164
160 160 160
157 157 157
127 127 127
121 121 121
117 117 117
115 115 115
113 113 113
103 103 103
91 91 91
92 92 92
105 105 105
116 116 116
120 120 120
119 119 119
116 116 116
112 112 112
112 112 112
109 109 109
112 112 112
112 112 112
110 110 110
118 118 118
129 129 129
138 138 138
145 145 145
147 147 147
144 144 144
147 147 147
149 149 149
146 146 146
146 146 146
147 147 147
149 149 149
152 152 152
148 148 148
148 148 148
153 153 153
158 158 158
161 161 161
161 161 161
161 161 161
163 163 163
168 168 168
168 168 168
166 166 166
163 163 163
157 157 157
153 153 153
149 149 149
146 146 146
146 146 146
147 147 147
145 145 145
144 144 144
141 141 141
135 135 135
137 137 137
139 139 139
139 139 139
139 139 139
138 138 138
151 151 151
158 158 158
164 164 164
161 161 161
155 155 155
119 119 119
112 112 112
111 111 111
110 110 110
113 113 113
108 108 108
95 95 95
93 93 93
103 103 103
116 116 116
121 121 121
120 120 120
117 117 117
114 114 114
112 112 112
108 108 108
111 111 111
109 109 109
109 109 109
112 112 112
122 122 122
130 130 130
141 141 141
146 146 146
144 144 144
150 150 150
152 152 152
151 151 151
149 149 149
149 149 149
152 152 152
153 153 153
150 150 150
150 150 150
153 153 153
157 157 157
160 160 160
160 160 160
159 159 159
162 162 162
166 166 166
164 164 164
161 161 161
158 158 158
154 154 154
149 149 149
145 145 145
146 146 146
147 147 147
148 148 148
146 146 146
142 142 142
139 139 139
137 137 137
140 140 140
143 143 143
142 142 142
144 144 144
141 141 141
151 151 151
159 159 159
163 163 163
160 160 160
155 155 155
113 113 113
107 107 107
108 108 108
110 110 110
113 113 113
113 113 113
101 101 101
95 95 95
102 102 102
114 114 114
121 121 121
122 122 122
120 120 120
116 116 116
115 115 115
109 109 109
109 109 109
111 111 111
107 107 107
109 109 109
114 114 114
124 124 124
132 132 132
140 140 140
142 142 142
145 145 145
148 148 148
149 149 149
148 148 148
148 148 148
151 151 151
150 150 150
148 148 148
151 151 151
153 153 153
155 155 155
156 156 156
158 158 158
158 158 158
160 160 160
163 163 163
159 159 159
156 156 156
154 154 154
150 150 150
147 147 147
143 143 143
143 143 143
146 146 146
147 147 147
141 141 141
137 137 137
140 140 140
141 141 141
144 144 144
147 147 147
146 146 146
147 147 147
142 142 142
150 150 150
159 159 159
160 160 160
158 158 158
154 154 154
109 109 109
108 108 108
108 108 108
110 110 110
115 115 115
116 116 116
104 104 104
96 96 96
101 101 101
117 117 117
123 123 123
122 122 122
119 119 119
117 117 117
117 117 117
111 111 111
111 111 111
110 110 110
107 107 107
107 107 107
110 110 110
115 115 115
125 125 125
130 130 130
133 133 133
135 135 135
138 138 138
140 140 140
141 141 141
142 142 142
143 143 143
143 143 143
144 144 144
144 144 144
147 147 147
150 150 150
150 150 150
153 153 153
154 154 154
156 156 156
156 156 156
154 154 154
152 152 152
150 150 150
146 146 146
142 142 142
144 144 144
142 142 142
143 143 143
144 144 144
135 135 135
136 136 136
140 140 140
147 147 147
149 149 149
153 153 153
151 151 151
151 151 151
144 144 144
151 151 151
160 160 160
155 155 155
154 154 154
153 153 153
105 105 105
107 107 107
106 106 106
110 110 110
113 113 113
116 116 116
105 105 105
97 97 97
105 105 105
122 122 122
125 125 125
122 122 122
118 118 118
116 116 116
119 119 119
113 113 113
115 115 115
109 109 109
105 105 105
106 106 106
110 110 110
109 109 109
116 116 116
122 122 122
125 125 125
126 126 126
128 128 128
131 131 131
135 135 135
138 138 138
141 141 141
141 141 141
141 141 141
144 144 144
146 146 146
147 147 147
150 150 150
152 152 152
151 151 151
151 151 151
149 149 149
149 149 149
146 146 146
145 145 145
142 142 142
139 139 139
142 142 142
143 143 143
142 142 142
138 138 138
137 137 137
140 140 140
141 141 141
150 150 150
154 154 154
157 157 157
155 155 155
153 153 153
146 146 146
151 151 151
161 161 161
156 156 156
151 151 151
150 150 150
104 104 104
107 107 107
107 107 107
107 107 107
110 110 110
114 114 114
104 104 104
97 97 97
110 110 110
128 128 128
128 128 128
122 122 122
115 115 115
116 116 116
118 118 118
114 114 114
119 119 119
111 111 111
103 103 103
105 105 105
111 111 111
110 110 110
110 110 110
114 114 114
118 118 118
120 120 120
124 124 124
127 127 127
131 131 131
136 136 136
138 138 138
139 139 139
139 139 139
141 141 141
144 144 144
143 143 143
144 144 144
147 147 147
145 145 145
145 145 145
143 143 143
143 143 143
140 140 140
139 139 139
137 137 137
135 135 135
138 138 138
141 141 141
138 138 138
135 135 135
139 139 139
144 144 144
147 147 147
153 153 153
157 157 157
160 160 160
157 157 157
155 155 155
147 147 147
150 150 150
162 162 162
159 159 159
150 150 150
149 149 149
103 103 103
103 103 103
105 105 105
105 105 105
107 107 107
112 112 112
103 103 103
99 99 99
113 113 113
128 128 128
128 128 128
123 123 123
116 116 116
114 114 114
115 115 115
110 110 110
117 117 117
114 114 114
108 108 108
101 101 101
111 111 111
112 112 112
108 108 108
109 109 109
112 112 112
117 117 117
120 120 120
125 125 125
127 127 127
131 131 131
136 136 136
138 138 138
138 138 138
138 138 138
138 138 138
139 139 139
139 139 139
140 140 140
140 140 140
138 138 138
138 138 138
136 136 136
135 135 135
135 135 135
132 132 132
133 133 133
133 133 133
138 138 138
135 135 135
135 135 135
142 142 142
150 150 150
153 153 153
157 157 157
160 160 160
162 162 162
158 158 158
156 156 156
148 148 148
149 149 149
160 160 160
159 159 159
152 152 152
146 146 146
