P3
64 64
255
138 138 138
147 147 147
154 154 154
154 154 154
154 154 154
154 154 154
152 152 152
146 146 146
141 141 141
139 139 139
138 138 138
137 137 137
136 136 136
135 135 135
135 135 135
134 134 134
134 134 134
133 133 133
132 132 132
131 131 131
131 131 131
130 130 130
130 130 130
129 129 129
129 129 129
129 129 129
129 129 129
128 128 128
127 127 127
128 128 128
128 128 128
128 128 128
129 129 129
129 129 129
129 129 129
129 129 129
128 128 128
128 128 128
129 129 129
129 129 129
129 129 129
129 129 129
129 129 129
129 129 129
129 129 129
129 129 129
129 129 129
129 129 129
129 129 129
130 130 130
129 129 129
129 129 129
129 129 129
130 130 130
130 130 130
130 130 130
130 130 130
129 129 129
129 129 129
130 130 130
131 131 131
129 129 129
120 120 120
116 116 116
141 141 141
150 150 150
156 156 156
156 156 156
155 155 155
155 155 155
153 153 153
147 147 147
141 141 141
139 139 139
138 138 138
137 137 137
136 136 136
136 136 136
135 135 135
135 135 135
134 134 134
134 134 134
133 133 133
132 132 132
132 132 132
131 131 131
131 131 131
130 130 130
130 130 130
130 130 130
129 129 129
128 128 128
128 128 128
128 128 128
128 128 128
128 128 128
129 129 129
129 129 129
129 129 129
129 129 129
129 129 129
129 129 129
129 129 129
130 130 130
130 130 130
130 130 130
130 130 130
129 129 129
129 129 129
130 130 130
130 130 130
130 130 130
130 130 130
130 130 130
129 129 129
129 129 129
130 130 130
130 130 130
131 131 131
132 132 132
131 131 131
130 130 130
131 131 131
131 131 131
131 131 131
130 130 130
122 122 122
117 117 117
143 143 143
153 153 153
158 158 158
157 157 157
156 156 156
156 156 156
153 153 153
146 146 146
141 141 141
139 139 139
138 138 138
137 137 137
136 136 136
136 136 136
136 136 136
136 136 136
135 135 135
134 134 134
133 133 133
133 133 133
132 132 132
132 132 132
131 131 131
131 131 131
131 131 131
130 130 130
129 129 129
129 129 129
129 129 129
128 128 128
128 128 128
129 129 129
129 129 129
130 130 130
130 130 130
130 130 130
130 130 130
130 130 130
131 131 131
131 131 131
131 131 131
131 131 131
131 131 131
130 130 130
130 130 130
130 130 130
130 130 130
130 130 130
130 130 130
130 130 130
129 129 129
129 129 129
130 130 130
131 131 131
131 131 131
132 132 132
132 132 132
131 131 131
132 132 132
131 131 131
131 131 131
131 131 131
124 124 124
118 118 118
146 146 146
155 155 155
160 160 160
159 159 159
157 157 157
157 157 157
153 153 153
145 145 145
141 141 141
139 139 139
138 138 138
137 137 137
137 137 137
136 136 136
136 136 136
136 136 136
136 136 136
135 135 135
134 134 134
133 133 133
133 133 133
132 132 132
132 132 132
131 131 131
131 131 131
130 130 130
129 129 129
129 129 129
130 130 130
130 130 130
129 129 129
130 130 130
131 131 131
131 131 131
131 131 131
131 131 131
131 131 131
131 131 131
132 132 132
132 132 132
133 133 133
132 132 132
132 132 132
132 132 132
131 131 131
131 131 131
131 131 131
131 131 131
132 132 132
131 131 131
131 131 131
130 130 130
130 130 130
130 130 130
131 131 131
132 132 132
132 132 132
132 132 132
132 132 132
132 132 132
132 132 132
131 131 131
126 126 126
119 119 119
148 148 148
156 156 156
160 160 160
160 160 160
158 158 158
157 157 157
152 152 152
145 145 145
141 141 141
139 139 139
138 138 138
137 137 137
137 137 137
137 137 137
137 137 137
137 137 137
136 136 136
135 135 135
135 135 135
134 134 134
133 133 133
132 132 132
132 132 132
131 131 131
130 130 130
130 130 130
130 130 130
130 130 130
130 130 130
130 130 130
130 130 130
131 131 131
132 132 132
133 133 133
132 132 132
131 131 131
131 131 131
132 132 132
133 133 133
134 134 134
133 133 133
133 133 133
133 133 133
133 133 133
133 133 133
133 133 133
133 133 133
133 133 133
133 133 133
133 133 133
132 132 132
132 132 132
131 131 131
130 130 130
131 131 131
132 132 132
132 132 132
132 132 132
132 132 132
132 132 132
131 131 131
131 131 131
127 127 127
120 120 120
150 150 150
158 158 158
161 161 161
161 161 161
158 158 158
156 156 156
151 151 151
144 144 144
141 141 141
140 140 140
139 139 139
137 137 137
136 136 136
136 136 136
136 136 136
136 136 136
136 136 136
135 135 135
134 134 134
133 133 133
132 132 132
131 131 131
130 130 130
129 129 129
129 129 129
129 129 129
129 129 129
130 130 130
130 130 130
131 131 131
131 131 131
132 132 132
133 133 133
134 134 134
132 132 132
131 131 131
131 131 131
132 132 132
133 133 133
133 133 133
134 134 134
134 134 134
134 134 134
133 133 133
133 133 133
133 133 133
133 133 133
133 133 133
132 132 132
132 132 132
132 132 132
132 132 132
132 132 132
130 130 130
130 130 130
132 132 132
132 132 132
132 132 132
132 132 132
132 132 132
132 132 132
132 132 132
128 128 128
121 121 121
152 152 152
158 158 158
162 162 162
161 161 161
157 157 157
155 155 155
150 150 150
144 144 144
142 142 142
141 141 141
138 138 138
135 135 135
133 133 133
132 132 132
132 132 132
132 132 132
132 132 132
131 131 131
130 130 130
128 128 128
127 127 127
127 127 127
126 126 126
125 125 125
126 126 126
126 126 126
126 126 126
127 127 127
128 128 128
129 129 129
130 130 130
132 132 132
134 134 134
134 134 134
132 132 132
131 131 131
131 131 131
131 131 131
132 132 132
131 131 131
132 132 132
131 131 131
132 132 132
131 131 131
130 130 130
130 130 130
131 131 131
130 130 130
130 130 130
130 130 130
130 130 130
130 130 130
131 131 131
131 131 131
128 128 128
129 129 129
132 132 132
134 134 134
133 133 133
132 132 132
133 133 133
133 133 133
128 128 128
121 121 121
152 152 152
158 158 158
162 162 162
161 161 161
157 157 157
155 155 155
150 150 150
143 143 143
141 141 141
138 138 138
135 135 135
132 132 132
128 128 128
127 127 127
127 127 127
127 127 127
127 127 127
125 125 125
124 124 124
123 123 123
122 122 122
121 121 121
122 122 122
122 122 122
123 123 123
122 122 122
122 122 122
124 124 124
124 124 124
125 125 125
129 129 129
132 132 132
133 133 133
133 133 133
131 131 131
130 130 130
129 129 129
129 129 129
130 130 130
128 128 128
127 127 127
126 126 126
125 125 125
125 125 125
124 124 124
123 123 123
123 123 123
124 124 124
123 123 123
123 123 123
125 125 125
125 125 125
126 126 126
129 129 129
128 128 128
126 126 126
128 128 128
133 133 133
135 135 135
134 134 134
134 134 134
134 134 134
129 129 129
121 121 121
153 153 153
160 160 160
162 162 162
161 161 161
157 157 157
154 154 154
148 148 148
140 140 140
136 136 136
134 134 134
131 131 131
127 127 127
124 124 124
123 123 123
123 123 123
122 122 122
122 122 122
121 121 121
120 120 120
120 120 120
119 119 119
118 118 118
118 118 118
119 119 119
120 120 120
120 120 120
119 119 119
120 120 120
120 120 120
123 123 123
127 127 127
131 131 131
132 132 132
132 132 132
130 130 130
129 129 129
128 128 128
126 126 126
126 126 126
124 124 124
122 122 122
121 121 121
120 120 120
120 120 120
119 119 119
119 119 119
119 119 119
122 122 122
121 121 121
121 121 121
121 121 121
121 121 121
122 122 122
121 121 121
123 123 123
124 124 124
125 125 125
128 128 128
133 133 133
135 135 135
134 134 134
135 135 135
130 130 130
122 122 122
153 153 153
161 161 161
162 162 162
161 161 161
157 157 157
152 152 152
144 144 144
137 137 137
132 132 132
131 131 131
129 129 129
127 127 127
125 125 125
124 124 124
124 124 124
122 122 122
122 122 122
119 119 119
120 120 120
120 120 120
120 120 120
119 119 119
118 118 118
120 120 120
121 121 121
121 121 121
120 120 120
119 119 119
119 119 119
122 122 122
127 127 127
130 130 130
132 132 132
130 130 130
129 129 129
128 128 128
127 127 127
125 125 125
124 124 124
123 123 123
122 122 122
122 122 122
121 121 121
120 120 120
119 119 119
118 118 118
118 118 118
123 123 123
125 125 125
125 125 125
125 125 125
125 125 125
126 126 126
125 125 125
124 124 124
125 125 125
125 125 125
125 125 125
127 127 127
132 132 132
134 134 134
136 136 136
132 132 132
123 123 123
152 152 152
159 159 159
161 161 161
162 162 162
157 157 157
149 149 149
139 139 139
133 133 133
132 132 132
132 132 132
132 132 132
131 131 131
129 129 129
128 128 128
126 126 126
125 125 125
123 123 123
121 121 121
122 122 122
122 122 122
122 122 122
122 122 122
121 121 121
123 123 123
125 125 125
125 125 125
125 125 125
122 122 122
122 122 122
126 126 126
129 129 129
131 131 131
132 132 132
130 130 130
129 129 129
129 129 129
128 128 128
127 127 127
126 126 126
125 125 125
126 126 126
126 126 126
124 124 124
122 122 122
120 120 120
119 119 119
118 118 118
122 122 122
127 127 127
128 128 128
130 130 130
131 131 131
131 131 131
132 132 132
132 132 132
130 130 130
128 128 128
125 125 125
123 123 123
128 128 128
133 133 133
135 135 135
134 134 134
125 125 125
152 152 152
159 159 159
161 161 161
163 163 163
155 155 155
144 144 144
137 137 137
135 135 135
136 136 136
138 138 138
138 138 138
136 136 136
133 133 133
129 129 129
128 128 128
126 126 126
125 125 125
122 122 122
123 123 123
123 123 123
124 124 124
123 123 123
123 123 123
126 126 126
130 130 130
130 130 130
129 129 129
130 130 130
131 131 131
131 131 131
132 132 132
132 132 132
133 133 133
131 131 131
131 131 131
131 131 131
131 131 131
131 131 131
130 130 130
129 129 129
128 128 128
126 126 126
122 122 122
120 120 120
119 119 119
119 119 119
120 120 120
124 124 124
130 130 130
131 131 131
132 132 132
132 132 132
132 132 132
133 133 133
135 135 135
134 134 134
132 132 132
127 127 127
122 122 122
126 126 126
132 132 132
135 135 135
134 134 134
127 127 127
153 153 153
158 158 158
162 162 162
162 162 162
152 152 152
142 142 142
140 140 140
140 140 140
143 143 143
143 143 143
140 140 140
137 137 137
132 132 132
130 130 130
128 128 128
128 128 128
127 127 127
125 125 125
125 125 125
125 125 125
126 126 126
123 123 123
123 123 123
126 126 126
129 129 129
131 131 131
132 132 132
132 132 132
135 135 135
134 134 134
131 131 131
132 132 132
132 132 132
132 132 132
133 133 133
133 133 133
134 134 134
133 133 133
132 132 132
129 129 129
125 125 125
122 122 122
119 119 119
119 119 119
120 120 120
122 122 122
122 122 122
126 126 126
132 132 132
132 132 132
133 133 133
133 133 133
133 133 133
133 133 133
135 135 135
133 133 133
131 131 131
128 128 128
123 123 123
125 125 125
131 131 131
134 134 134
134 134 134
129 129 129
154 154 154
158 158 158
160 160 160
160 160 160
151 151 151
145 145 145
145 145 145
144 144 144
144 144 144
142 142 142
138 138 138
136 136 136
138 138 138
138 138 138
137 137 137
134 134 134
130 130 130
127 127 127
126 126 126
126 126 126
127 127 127
126 126 126
125 125 125
125 125 125
126 126 126
126 126 126
129 129 129
131 131 131
135 135 135
134 134 134
131 131 131
131 131 131
131 131 131
131 131 131
134 134 134
134 134 134
134 134 134
134 134 134
131 131 131
126 126 126
122 122 122
122 122 122
121 121 121
122 122 122
125 125 125
124 124 124
123 123 123
123 123 123
128 128 128
131 131 131
133 133 133
135 135 135
134 134 134
132 132 132
135 135 135
133 133 133
131 131 131
130 130 130
126 126 126
126 126 126
129 129 129
132 132 132
132 132 132
130 130 130
155 155 155
160 160 160
161 161 161
158 158 158
150 150 150
148 148 148
147 147 147
145 145 145
142 142 142
139 139 139
139 139 139
146 146 146
147 147 147
142 142 142
136 136 136
130 130 130
124 124 124
125 125 125
123 123 123
123 123 123
125 125 125
127 127 127
126 126 126
125 125 125
124 124 124
121 121 121
122 122 122
130 130 130
134 134 134
133 133 133
130 130 130
130 130 130
130 130 130
131 131 131
132 132 132
132 132 132
133 133 133
134 134 134
128 128 128
124 124 124
124 124 124
125 125 125
127 127 127
127 127 127
128 128 128
127 127 127
124 124 124
122 122 122
123 123 123
128 128 128
132 132 132
133 133 133
133 133 133
132 132 132
134 134 134
134 134 134
132 132 132
131 131 131
129 129 129
127 127 127
128 128 128
131 131 131
132 132 132
130 130 130
154 154 154
157 157 157
158 158 158
155 155 155
149 149 149
149 149 149
147 147 147
143 143 143
140 140 140
137 137 137
143 143 143
150 150 150
143 143 143
134 134 134
132 132 132
129 129 129
127 127 127
127 127 127
127 127 127
126 126 126
128 128 128
127 127 127
124 124 124
123 123 123
123 123 123
121 121 121
120 120 120
126 126 126
132 132 132
131 131 131
129 129 129
128 128 128
128 128 128
129 129 129
131 131 131
132 132 132
133 133 133
133 133 133
128 128 128
125 125 125
126 126 126
126 126 126
126 126 126
125 125 125
127 127 127
130 130 130
130 130 130
128 128 128
124 124 124
124 124 124
129 129 129
130 130 130
132 132 132
133 133 133
133 133 133
133 133 133
132 132 132
133 133 133
132 132 132
130 130 130
130 130 130
133 133 133
132 132 132
131 131 131
152 152 152
154 154 154
156 156 156
155 155 155
149 149 149
147 147 147
146 146 146
141 141 141
138 138 138
137 137 137
140 140 140
138 138 138
132 132 132
130 130 130
130 130 130
127 127 127
128 128 128
128 128 128
129 129 129
129 129 129
129 129 129
127 127 127
123 123 123
119 119 119
119 119 119
121 121 121
123 123 123
126 126 126
132 132 132
130 130 130
129 129 129
128 128 128
128 128 128
129 129 129
131 131 131
133 133 133
133 133 133
132 132 132
129 129 129
127 127 127
126 126 126
122 122 122
123 123 123
121 121 121
124 124 124
127 127 127
128 128 128
125 125 125
126 126 126
126 126 126
132 132 132
129 129 129
127 127 127
130 130 130
132 132 132
131 131 131
131 131 131
132 132 132
132 132 132
130 130 130
129 129 129
130 130 130
133 133 133
132 132 132
149 149 149
151 151 151
154 154 154
152 152 152
148 148 148
144 144 144
144 144 144
141 141 141
140 140 140
138 138 138
132 132 132
129 129 129
127 127 127
129 129 129
130 130 130
126 126 126
129 129 129
131 131 131
130 130 130
128 128 128
124 124 124
124 124 124
124 124 124
122 122 122
121 121 121
124 124 124
125 125 125
128 128 128
133 133 133
131 131 131
129 129 129
129 129 129
128 128 128
129 129 129
131 131 131
132 132 132
132 132 132
130 130 130
128 128 128
128 128 128
126 126 126
122 122 122
121 121 121
119 119 119
122 122 122
126 126 126
126 126 126
127 127 127
126 126 126
127 127 127
129 129 129
127 127 127
125 125 125
124 124 124
126 126 126
129 129 129
130 130 130
132 132 132
133 133 133
131 131 131
128 128 128
127 127 127
129 129 129
129 129 129
146 146 146
149 149 149
151 151 151
150 150 150
146 146 146
144 144 144
146 146 146
143 143 143
141 141 141
138 138 138
132 132 132
129 129 129
129 129 129
129 129 129
128 128 128
128 128 128
127 127 127
128 128 128
126 126 126
123 123 123
121 121 121
120 120 120
121 121 121
121 121 121
121 121 121
124 124 124
127 127 127
131 131 131
133 133 133
131 131 131
129 129 129
129 129 129
129 129 129
130 130 130
131 131 131
132 132 132
131 131 131
128 128 128
127 127 127
127 127 127
125 125 125
123 123 123
121 121 121
118 118 118
118 118 118
123 123 123
125 125 125
126 126 126
126 126 126
126 126 126
127 127 127
126 126 126
126 126 126
124 124 124
123 123 123
125 125 125
128 128 128
131 131 131
132 132 132
130 130 130
128 128 128
128 128 128
129 129 129
127 127 127
143 143 143
148 148 148
150 150 150
151 151 151
146 146 146
146 146 146
148 148 148
144 144 144
141 141 141
139 139 139
137 137 137
134 134 134
132 132 132
130 130 130
127 127 127
125 125 125
123 123 123
122 122 122
121 121 121
120 120 120
118 118 118
119 119 119
119 119 119
121 121 121
123 123 123
127 127 127
129 129 129
133 133 133
133 133 133
131 131 131
130 130 130
130 130 130
130 130 130
131 131 131
132 132 132
133 133 133
131 131 131
128 128 128
126 126 126
126 126 126
124 124 124
122 122 122
121 121 121
118 118 118
116 116 116
118 118 118
120 120 120
122 122 122
122 122 122
123 123 123
123 123 123
125 125 125
126 126 126
125 125 125
124 124 124
126 126 126
129 129 129
131 131 131
132 132 132
130 130 130
127 127 127
128 128 128
128 128 128
124 124 124
142 142 142
149 149 149
151 151 151
152 152 152
147 147 147
147 147 147
146 146 146
142 142 142
140 140 140
139 139 139
139 139 139
136 136 136
134 134 134
130 130 130
127 127 127
123 123 123
122 122 122
121 121 121
120 120 120
121 121 121
121 121 121
121 121 121
122 122 122
125 125 125
128 128 128
129 129 129
131 131 131
134 134 134
133 133 133
132 132 132
131 131 131
131 131 131
131 131 131
132 132 132
132 132 132
133 133 133
131 131 131
128 128 128
126 126 126
127 127 127
126 126 126
124 124 124
122 122 122
120 120 120
118 118 118
116 116 116
116 116 116
118 118 118
119 119 119
121 121 121
123 123 123
125 125 125
127 127 127
127 127 127
125 125 125
126 126 126
130 130 130
132 132 132
132 132 132
129 129 129
127 127 127
130 130 130
128 128 128
123 123 123
141 141 141
151 151 151
152 152 152
154 154 154
148 148 148
146 146 146
145 145 145
140 140 140
139 139 139
139 139 139
139 139 139
137 137 137
135 135 135
131 131 131
128 128 128
127 127 127
126 126 126
126 126 126
125 125 125
126 126 126
126 126 126
127 127 127
129 129 129
131 131 131
132 132 132
131 131 131
133 133 133
135 135 135
134 134 134
133 133 133
132 132 132
132 132 132
132 132 132
132 132 132
133 133 133
133 133 133
131 131 131
129 129 129
126 126 126
128 128 128
128 128 128
127 127 127
124 124 124
123 123 123
122 122 122
121 121 121
118 118 118
119 119 119
119 119 119
120 120 120
121 121 121
124 124 124
125 125 125
126 126 126
127 127 127
127 127 127
128 128 128
129 129 129
128 128 128
128 128 128
128 128 128
130 130 130
128 128 128
123 123 123
138 138 138
149 149 149
152 152 152
155 155 155
149 149 149
145 145 145
143 143 143
139 139 139
138 138 138
138 138 138
138 138 138
138 138 138
137 137 137
134 134 134
132 132 132
132 132 132
131 131 131
130 130 130
130 130 130
130 130 130
131 131 131
132 132 132
133 133 133
134 134 134
134 134 134
133 133 133
135 135 135
136 136 136
134 134 134
133 133 133
132 132 132
132 132 132
131 131 131
132 132 132
133 133 133
133 133 133
131 131 131
129 129 129
126 126 126
126 126 126
129 129 129
128 128 128
127 127 127
125 125 125
124 124 124
124 124 124
124 124 124
123 123 123
123 123 123
123 123 123
124 124 124
124 124 124
125 125 125
125 125 125
125 125 125
126 126 126
126 126 126
126 126 126
126 126 126
126 126 126
127 127 127
129 129 129
128 128 128
124 124 124
136 136 136
146 146 146
152 152 152
155 155 155
150 150 150
145 145 145
143 143 143
139 139 139
137 137 137
137 137 137
137 137 137
137 137 137
136 136 136
135 135 135
133 133 133
133 133 133
132 132 132
132 132 132
132 132 132
133 133 133
133 133 133
133 133 133
134 134 134
136 136 136
137 137 137
136 136 136
136 136 136
135 135 135
133 133 133
133 133 133
132 132 132
131 131 131
132 132 132
132 132 132
132 132 132
133 133 133
131 131 131
129 129 129
127 127 127
125 125 125
126 126 126
128 128 128
127 127 127
127 127 127
126 126 126
126 126 126
126 126 126
126 126 126
125 125 125
125 125 125
125 125 125
125 125 125
124 124 124
124 124 124
124 124 124
124 124 124
125 125 125
125 125 125
125 125 125
125 125 125
128 128 128
130 130 130
129 129 129
125 125 125
137 137 137
146 146 146
152 152 152
154 154 154
150 150 150
145 145 145
141 141 141
138 138 138
137 137 137
136 136 136
135 135 135
135 135 135
134 134 134
134 134 134
133 133 133
132 132 132
133 133 133
133 133 133
133 133 133
132 132 132
132 132 132
132 132 132
135 135 135
139 139 139
139 139 139
137 137 137
136 136 136
135 135 135
133 133 133
133 133 133
133 133 133
132 132 132
133 133 133
133 133 133
133 133 133
133 133 133
132 132 132
131 131 131
128 128 128
126 126 126
125 125 125
125 125 125
126 126 126
126 126 126
127 127 127
127 127 127
127 127 127
127 127 127
126 126 126
126 126 126
126 126 126
126 126 126
125 125 125
125 125 125
124 124 124
124 124 124
124 124 124
124 124 124
125 125 125
126 126 126
128 128 128
130 130 130
130 130 130
127 127 127
139 139 139
147 147 147
152 152 152
153 153 153
149 149 149
145 145 145
142 142 142
138 138 138
136 136 136
135 135 135
134 134 134
134 134 134
133 133 133
133 133 133
133 133 133
132 132 132
132 132 132
132 132 132
131 131 131
131 131 131
130 130 130
133 133 133
137 137 137
139 139 139
138 138 138
136 136 136
136 136 136
135 135 135
133 133 133
133 133 133
133 133 133
133 133 133
133 133 133
133 133 133
133 133 133
133 133 133
133 133 133
133 133 133
130 130 130
128 128 128
126 126 126
125 125 125
123 123 123
124 124 124
125 125 125
126 126 126
126 126 126
127 127 127
127 127 127
127 127 127
127 127 127
126 126 126
125 125 125
125 125 125
125 125 125
124 124 124
124 124 124
124 124 124
125 125 125
128 128 128
130 130 130
131 131 131
130 130 130
127 127 127
142 142 142
148 148 148
153 153 153
154 154 154
149 149 149
146 146 146
142 142 142
139 139 139
137 137 137
135 135 135
134 134 134
132 132 132
131 131 131
131 131 131
131 131 131
130 130 130
130 130 130
130 130 130
130 130 130
131 131 131
131 131 131
134 134 134
137 137 137
139 139 139
138 138 138
135 135 135
134 134 134
135 135 135
132 132 132
131 131 131
131 131 131
132 132 132
131 131 131
131 131 131
131 131 131
132 132 132
132 132 132
134 134 134
132 132 132
129 129 129
128 128 128
126 126 126
125 125 125
123 123 123
122 122 122
124 124 124
124 124 124
125 125 125
126 126 126
126 126 126
126 126 126
125 125 125
125 125 125
125 125 125
125 125 125
124 124 124
124 124 124
126 126 126
128 128 128
130 130 130
132 132 132
131 131 131
130 130 130
126 126 126
144 144 144
149 149 149
153 153 153
153 153 153
150 150 150
146 146 146
143 143 143
139 139 139
138 138 138
136 136 136
135 135 135
134 134 134
133 133 133
132 132 132
131 131 131
131 131 131
131 131 131
131 131 131
131 131 131
131 131 131
133 133 133
135 135 135
137 137 137
137 137 137
136 136 136
134 134 134
133 133 133
132 132 132
129 129 129
125 125 125
126 126 126
128 128 128
127 127 127
127 127 127
128 128 128
129 129 129
130 130 130
132 132 132
130 130 130
128 128 128
128 128 128
128 128 128
126 126 126
124 124 124
123 123 123
123 123 123
123 123 123
124 124 124
124 124 124
125 125 125
124 124 124
123 123 123
123 123 123
124 124 124
125 125 125
125 125 125
126 126 126
128 128 128
130 130 130
132 132 132
132 132 132
132 132 132
131 131 131
126 126 126
146 146 146
149 149 149
153 153 153
152 152 152
150 150 150
147 147 147
143 143 143
140 140 140
138 138 138
137 137 137
135 135 135
134 134 134
133 133 133
132 132 132
132 132 132
130 130 130
130 130 130
131 131 131
131 131 131
132 132 132
134 134 134
136 136 136
136 136 136
136 136 136
135 135 135
132 132 132
129 129 129
127 127 127
122 122 122
117 117 117
118 118 118
122 122 122
123 123 123
123 123 123
124 124 124
125 125 125
126 126 126
127 127 127
125 125 125
125 125 125
127 127 127
128 128 128
127 127 127
126 126 126
125 125 125
124 124 124
125 125 125
124 124 124
125 125 125
125 125 125
124 124 124
124 124 124
124 124 124
125 125 125
125 125 125
126 126 126
127 127 127
129 129 129
132 132 132
133 133 133
133 133 133
133 133 133
130 130 130
125 125 125
147 147 147
150 150 150
152 152 152
152 152 152
150 150 150
148 148 148
144 144 144
141 141 141
139 139 139
138 138 138
135 135 135
134 134 134
133 133 133
132 132 132
131 131 131
131 131 131
131 131 131
131 131 131
131 131 131
133 133 133
136 136 136
135 135 135
135 135 135
135 135 135
133 133 133
128 128 128
124 124 124
120 120 120
114 114 114
109 109 109
111 111 111
118 118 118
120 120 120
119 119 119
119 119 119
120 120 120
121 121 121
121 121 121
120 120 120
121 121 121
125 125 125
128 128 128
128 128 128
128 128 128
126 126 126
125 125 125
124 124 124
124 124 124
125 125 125
125 125 125
125 125 125
125 125 125
125 125 125
125 125 125
126 126 126
127 127 127
128 128 128
130 130 130
132 132 132
133 133 133
133 133 133
133 133 133
130 130 130
125 125 125
147 147 147
150 150 150
152 152 152
151 151 151
150 150 150
149 149 149
145 145 145
142 142 142
140 140 140
138 138 138
136 136 136
134 134 134
133 133 133
132 132 132
132 132 132
132 132 132
131 131 131
131 131 131
132 132 132
134 134 134
137 137 137
137 137 137
136 136 136
135 135 135
133 133 133
127 127 127
120 120 120
115 115 115
111 111 111
107 107 107
109 109 109
117 117 117
120 120 120
118 118 118
116 116 116
117 117 117
118 118 118
117 117 117
117 117 117
119 119 119
125 125 125
128 128 128
129 129 129
130 130 130
128 128 128
127 127 127
125 125 125
125 125 125
125 125 125
125 125 125
125 125 125
126 126 126
126 126 126
126 126 126
127 127 127
128 128 128
129 129 129
131 131 131
133 133 133
134 134 134
133 133 133
132 132 132
130 130 130
125 125 125
148 148 148
152 152 152
152 152 152
151 151 151
151 151 151
149 149 149
147 147 147
143 143 143
141 141 141
138 138 138
137 137 137
135 135 135
133 133 133
133 133 133
133 133 133
132 132 132
131 131 131
132 132 132
134 134 134
137 137 137
139 139 139
139 139 139
138 138 138
136 136 136
134 134 134
129 129 129
123 123 123
118 118 118
114 114 114
113 113 113
115 115 115
120 120 120
122 122 122
119 119 119
118 118 118
120 120 120
121 121 121
120 120 120
120 120 120
123 123 123
127 127 127
130 130 130
131 131 131
132 132 132
131 131 131
129 129 129
127 127 127
126 126 126
126 126 126
125 125 125
126 126 126
126 126 126
126 126 126
127 127 127
128 128 128
129 129 129
131 131 131
132 132 132
134 134 134
134 134 134
133 133 133
133 133 133
129 129 129
126 126 126
148 148 148
153 153 153
153 153 153
152 152 152
151 151 151
150 150 150
148 148 148
144 144 144
142 142 142
139 139 139
137 137 137
135 135 135
133 133 133
133 133 133
133 133 133
132 132 132
131 131 131
133 133 133
135 135 135
139 139 139
141 141 141
140 140 140
140 140 140
138 138 138
137 137 137
134 134 134
130 130 130
127 127 127
123 123 123
122 122 122
123 123 123
125 125 125
124 124 124
121 121 121
123 123 123
126 126 126
127 127 127
126 126 126
126 126 126
127 127 127
129 129 129
131 131 131
132 132 132
134 134 134
133 133 133
132 132 132
131 131 131
129 129 129
128 128 128
127 127 127
127 127 127
127 127 127
127 127 127
128 128 128
129 129 129
130 130 130
132 132 132
133 133 133
135 135 135
135 135 135
134 134 134
133 133 133
131 131 131
127 127 127
148 148 148
154 154 154
154 154 154
153 153 153
152 152 152
151 151 151
149 149 149
146 146 146
143 143 143
140 140 140
138 138 138
136 136 136
134 134 134
134 134 134
133 133 133
132 132 132
132 132 132
134 134 134
138 138 138
142 142 142
143 143 143
140 140 140
140 140 140
140 140 140
140 140 140
140 140 140
138 138 138
134 134 134
130 130 130
129 129 129
128 128 128
127 127 127
125 125 125
123 123 123
125 125 125
129 129 129
131 131 131
131 131 131
130 130 130
130 130 130
130 130 130
131 131 131
132 132 132
133 133 133
134 134 134
133 133 133
133 133 133
132 132 132
130 130 130
129 129 129
129 129 129
128 128 128
129 129 129
129 129 129
130 130 130
132 132 132
134 134 134
135 135 135
136 136 136
135 135 135
134 134 134
133 133 133
131 131 131
128 128 128
146 146 146
153 153 153
155 155 155
154 154 154
154 154 154
151 151 151
150 150 150
148 148 148
144 144 144
142 142 142
139 139 139
137 137 137
135 135 135
134 134 134
133 133 133
132 132 132
134 134 134
137 137 137
141 141 141
143 143 143
143 143 143
140 140 140
140 140 140
142 142 142
144 144 144
144 144 144
142 142 142
138 138 138
134 134 134
132 132 132
130 130 130
127 127 127
125 125 125
125 125 125
126 126 126
130 130 130
132 132 132
133 133 133
132 132 132
131 131 131
132 132 132
132 132 132
132 132 132
133 133 133
133 133 133
134 134 134
133 133 133
133 133 133
133 133 133
131 131 131
130 130 130
130 130 130
130 130 130
131 131 131
132 132 132
133 133 133
135 135 135
136 136 136
137 137 137
136 136 136
135 135 135
133 133 133
131 131 131
128 128 128
143 143 143
151 151 151
155 155 155
155 155 155
154 154 154
152 152 152
151 151 151
149 149 149
146 146 146
143 143 143
140 140 140
137 137 137
136 136 136
135 135 135
134 134 134
134 134 134
137 137 137
139 139 139
143 143 143
143 143 143
142 142 142
141 141 141
141 141 141
142 142 142
145 145 145
147 147 147
145 145 145
141 141 141
137 137 137
134 134 134
131 131 131
128 128 128
126 126 126
126 126 126
128 128 128
130 130 130
133 133 133
135 135 135
135 135 135
135 135 135
135 135 135
134 134 134
132 132 132
132 132 132
133 133 133
134 134 134
134 134 134
133 133 133
134 134 134
133 133 133
132 132 132
131 131 131
131 131 131
132 132 132
133 133 133
134 134 134
136 136 136
137 137 137
138 138 138
137 137 137
135 135 135
134 134 134
133 133 133
128 128 128
142 142 142
148 148 148
153 153 153
155 155 155
154 154 154
152 152 152
151 151 151
149 149 149
147 147 147
145 145 145
141 141 141
139 139 139
137 137 137
135 135 135
135 135 135
137 137 137
139 139 139
141 141 141
142 142 142
142 142 142
142 142 142
142 142 142
143 143 143
143 143 143
145 145 145
146 146 146
145 145 145
143 143 143
140 140 140
137 137 137
134 134 134
131 131 131
129 129 129
129 129 129
131 131 131
133 133 133
136 136 136
136 136 136
136 136 136
136 136 136
135 135 135
133 133 133
132 132 132
131 131 131
133 133 133
134 134 134
134 134 134
134 134 134
134 134 134
135 135 135
134 134 134
133 133 133
133 133 133
133 133 133
134 134 134
135 135 135
137 137 137
138 138 138
138 138 138
137 137 137
136 136 136
134 134 134
133 133 133
128 128 128
141 141 141
146 146 146
151 151 151
154 154 154
154 154 154
152 152 152
150 150 150
149 149 149
148 148 148
145 145 145
142 142 142
140 140 140
137 137 137
136 136 136
137 137 137
139 139 139
141 141 141
142 142 142
143 143 143
143 143 143
142 142 142
142 142 142
143 143 143
144 144 144
144 144 144
145 145 145
144 144 144
144 144 144
143 143 143
140 140 140
138 138 138
135 135 135
134 134 134
136 136 136
136 136 136
137 137 137
138 138 138
139 139 139
138 138 138
137 137 137
136 136 136
134 134 134
132 132 132
131 131 131
132 132 132
133 133 133
134 134 134
134 134 134
133 133 133
135 135 135
135 135 135
135 135 135
135 135 135
135 135 135
135 135 135
136 136 136
138 138 138
138 138 138
139 139 139
138 138 138
136 136 136
135 135 135
134 134 134
128 128 128
141 141 141
145 145 145
150 150 150
153 153 153
154 154 154
153 153 153
150 150 150
149 149 149
148 148 148
146 146 146
143 143 143
140 140 140
138 138 138
137 137 137
139 139 139
141 141 141
142 142 142
142 142 142
142 142 142
142 142 142
140 140 140
140 140 140
141 141 141
143 143 143
144 144 144
144 144 144
144 144 144
144 144 144
145 145 145
143 143 143
142 142 142
141 141 141
140 140 140
140 140 140
140 140 140
138 138 138
139 139 139
140 140 140
139 139 139
137 137 137
136 136 136
134 134 134
132 132 132
131 131 131
131 131 131
132 132 132
132 132 132
133 133 133
133 133 133
134 134 134
134 134 134
134 134 134
135 135 135
136 136 136
136 136 136
137 137 137
138 138 138
138 138 138
138 138 138
138 138 138
136 136 136
136 136 136
134 134 134
130 130 130
142 142 142
144 144 144
148 148 148
151 151 151
152 152 152
152 152 152
151 151 151
148 148 148
147 147 147
146 146 146
144 144 144
141 141 141
138 138 138
137 137 137
138 138 138
140 140 140
143 143 143
142 142 142
142 142 142
141 141 141
139 139 139
139 139 139
140 140 140
141 141 141
141 141 141
143 143 143
143 143 143
144 144 144
145 145 145
144 144 144
144 144 144
144 144 144
143 143 143
141 141 141
140 140 140
139 139 139
139 139 139
138 138 138
137 137 137
136 136 136
135 135 135
134 134 134
133 133 133
132 132 132
131 131 131
132 132 132
131 131 131
131 131 131
133 133 133
133 133 133
134 134 134
134 134 134
134 134 134
135 135 135
137 137 137
138 138 138
138 138 138
138 138 138
138 138 138
138 138 138
136 136 136
136 136 136
133 133 133
130 130 130
143 143 143
143 143 143
145 145 145
148 148 148
151 151 151
151 151 151
151 151 151
148 148 148
147 147 147
146 146 146
144 144 144
141 141 141
138 138 138
134 134 134
135 135 135
139 139 139
140 140 140
140 140 140
141 141 141
141 141 141
140 140 140
138 138 138
140 140 140
140 140 140
140 140 140
141 141 141
141 141 141
142 142 142
143 143 143
143 143 143
143 143 143
143 143 143
141 141 141
140 140 140
139 139 139
138 138 138
137 137 137
136 136 136
135 135 135
135 135 135
135 135 135
134 134 134
133 133 133
132 132 132
132 132 132
132 132 132
131 131 131
131 131 131
132 132 132
132 132 132
134 134 134
134 134 134
134 134 134
134 134 134
136 136 136
137 137 137
137 137 137
137 137 137
138 138 138
138 138 138
136 136 136
133 133 133
131 131 131
130 130 130
145 145 145
144 144 144
144 144 144
146 146 146
150 150 150
151 151 151
150 150 150
149 149 149
146 146 146
147 147 147
145 145 145
141 141 141
137 137 137
132 132 132
133 133 133
137 137 137
137 137 137
136 136 136
137 137 137
139 139 139
139 139 139
137 137 137
137 137 137
137 137 137
138 138 138
138 138 138
137 137 137
137 137 137
138 138 138
138 138 138
137 137 137
136 136 136
135 135 135
135 135 135
135 135 135
133 133 133
133 133 133
132 132 132
133 133 133
133 133 133
133 133 133
133 133 133
133 133 133
132 132 132
133 133 133
131 131 131
131 131 131
130 130 130
131 131 131
131 131 131
132 132 132
134 134 134
134 134 134
134 134 134
135 135 135
136 136 136
136 136 136
136 136 136
138 138 138
137 137 137
134 134 134
130 130 130
129 129 129
130 130 130
146 146 146
144 144 144
144 144 144
145 145 145
149 149 149
151 151 151
150 150 150
149 149 149
146 146 146
145 145 145
145 145 145
141 141 141
136 136 136
132 132 132
132 132 132
134 134 134
133 133 133
132 132 132
133 133 133
135 135 135
137 137 137
135 135 135
134 134 134
132 132 132
133 133 133
132 132 132
131 131 131
131 131 131
130 130 130
130 130 130
129 129 129
129 129 129
129 129 129
129 129 129
129 129 129
129 129 129
129 129 129
130 130 130
130 130 130
130 130 130
130 130 130
131 131 131
131 131 131
131 131 131
132 132 132
132 132 132
131 131 131
130 130 130
131 131 131
131 131 131
131 131 131
133 133 133
134 134 134
134 134 134
134 134 134
135 135 135
136 136 136
137 137 137
138 138 138
136 136 136
132 132 132
128 128 128
129 129 129
130 130 130
145 145 145
144 144 144
143 143 143
144 144 144
148 148 148
151 151 151
149 149 149
150 150 150
147 147 147
145 145 145
145 145 145
141 141 141
136 136 136
132 132 132
131 131 131
130 130 130
129 129 129
129 129 129
130 130 130
131 131 131
133 133 133
133 133 133
134 134 134
133 133 133
131 131 131
129 129 129
127 127 127
126 126 126
124 124 124
122 122 122
122 122 122
123 123 123
122 122 122
122 122 122
123 123 123
125 125 125
125 125 125
126 126 126
126 126 126
127 127 127
128 128 128
129 129 129
129 129 129
131 131 131
132 132 132
132 132 132
131 131 131
130 130 130
131 131 131
131 131 131
130 130 130
131 131 131
131 131 131
133 133 133
133 133 133
134 134 134
136 136 136
137 137 137
137 137 137
134 134 134
130 130 130
127 127 127
129 129 129
131 131 131
143 143 143
142 142 142
142 142 142
143 143 143
147 147 147
151 151 151
150 150 150
149 149 149
148 148 148
145 145 145
144 144 144
142 142 142
137 137 137
134 134 134
131 131 131
127 127 127
125 125 125
125 125 125
128 128 128
131 131 131
131 131 131
132 132 132
133 133 133
135 135 135
136 136 136
135 135 135
131 131 131
129 129 129
127 127 127
124 124 124
123 123 123
124 124 124
123 123 123
123 123 123
124 124 124
125 125 125
126 126 126
126 126 126
128 128 128
129 129 129
130 130 130
130 130 130
129 129 129
130 130 130
131 131 131
131 131 131
130 130 130
130 130 130
130 130 130
130 130 130
129 129 129
129 129 129
130 130 130
131 131 131
133 133 133
134 134 134
136 136 136
138 138 138
136 136 136
133 133 133
129 129 129
128 128 128
127 127 127
129 129 129
139 139 139
139 139 139
140 140 140
142 142 142
145 145 145
149 149 149
149 149 149
147 147 147
149 149 149
147 147 147
144 144 144
143 143 143
140 140 140
135 135 135
131 131 131
127 127 127
124 124 124
124 124 124
128 128 128
129 129 129
132 132 132
133 133 133
133 133 133
134 134 134
135 135 135
137 137 137
136 136 136
134 134 134
132 132 132
130 130 130
128 128 128
128 128 128
128 128 128
128 128 128
128 128 128
128 128 128
128 128 128
127 127 127
128 128 128
129 129 129
129 129 129
129 129 129
129 129 129
128 128 128
129 129 129
129 129 129
129 129 129
130 130 130
129 129 129
130 130 130
130 130 130
129 129 129
129 129 129
131 131 131
133 133 133
135 135 135
138 138 138
137 137 137
134 134 134
131 131 131
129 129 129
127 127 127
126 126 126
127 127 127
134 134 134
135 135 135
138 138 138
142 142 142
144 144 144
148 148 148
149 149 149
146 146 146
147 147 147
148 148 148
145 145 145
143 143 143
142 142 142
138 138 138
133 133 133
130 130 130
126 126 126
127 127 127
130 130 130
131 131 131
131 131 131
132 132 132
134 134 134
134 134 134
135 135 135
136 136 136
135 135 135
132 132 132
130 130 130
128 128 128
126 126 126
125 125 125
126 126 126
126 126 126
126 126 126
126 126 126
126 126 126
125 125 125
126 126 126
127 127 127
127 127 127
126 126 126
126 126 126
125 125 125
126 126 126
127 127 127
127 127 127
129 129 129
129 129 129
131 131 131
130 130 130
129 129 129
129 129 129
131 131 131
134 134 134
136 136 136
137 137 137
136 136 136
133 133 133
130 130 130
129 129 129
125 125 125
125 125 125
123 123 123
130 130 130
131 131 131
135 135 135
141 141 141
144 144 144
146 146 146
148 148 148
147 147 147
146 146 146
148 148 148
146 146 146
144 144 144
142 142 142
140 140 140
136 136 136
132 132 132
130 130 130
131 131 131
133 133 133
134 134 134
135 135 135
135 135 135
134 134 134
135 135 135
135 135 135
135 135 135
133 133 133
131 131 131
128 128 128
125 125 125
122 122 122
122 122 122
122 122 122
122 122 122
123 123 123
122 122 122
123 123 123
124 124 124
124 124 124
125 125 125
126 126 126
126 126 126
126 126 126
127 127 127
127 127 127
127 127 127
128 128 128
130 130 130
130 130 130
131 131 131
129 129 129
129 129 129
130 130 130
132 132 132
135 135 135
136 136 136
136 136 136
135 135 135
132 132 132
131 131 131
129 129 129
123 123 123
122 122 122
119 119 119
126 126 126
127 127 127
132 132 132
139 139 139
143 143 143
145 145 145
146 146 146
146 146 146
146 146 146
146 146 146
147 147 147
145 145 145
143 143 143
141 141 141
138 138 138
135 135 135
134 134 134
134 134 134
136 136 136
137 137 137
138 138 138
138 138 138
137 137 137
136 136 136
135 135 135
135 135 135
132 132 132
128 128 128
126 126 126
123 123 123
121 121 121
121 121 121
120 120 120
120 120 120
121 121 121
121 121 121
122 122 122
123 123 123
124 124 124
126 126 126
128 128 128
129 129 129
129 129 129
130 130 130
130 130 130
129 129 129
129 129 129
130 130 130
130 130 130
130 130 130
130 130 130
129 129 129
131 131 131
134 134 134
135 135 135
136 136 136
135 135 135
135 135 135
132 132 132
131 131 131
127 127 127
121 121 121
118 118 118
117 117 117
125 125 125
125 125 125
130 130 130
137 137 137
141 141 141
143 143 143
144 144 144
145 145 145
146 146 146
146 146 146
147 147 147
146 146 146
144 144 144
141 141 141
140 140 140
138 138 138
136 136 136
136 136 136
137 137 137
138 138 138
139 139 139
139 139 139
138 138 138
137 137 137
136 136 136
135 135 135
133 133 133
130 130 130
127 127 127
124 124 124
123 123 123
122 122 122
121 121 121
121 121 121
122 122 122
124 124 124
125 125 125
126 126 126
126 126 126
128 128 128
131 131 131
131 131 131
132 132 132
132 132 132
131 131 131
130 130 130
130 130 130
130 130 130
130 130 130
130 130 130
129 129 129
130 130 130
132 132 132
134 134 134
135 135 135
135 135 135
134 134 134
134 134 134
132 132 132
131 131 131
125 125 125
118 118 118
116 116 116
118 118 118
125 125 125
125 125 125
127 127 127
135 135 135
140 140 140
143 143 143
142 142 142
143 143 143
145 145 145
146 146 146
146 146 146
146 146 146
146 146 146
143 143 143
140 140 140
141 141 141
138 138 138
137 137 137
137 137 137
138 138 138
138 138 138
138 138 138
137 137 137
136 136 136
136 136 136
134 134 134
133 133 133
130 130 130
128 128 128
127 127 127
126 126 126
125 125 125
124 124 124
124 124 124
125 125 125
125 125 125
126 126 126
127 127 127
129 129 129
130 130 130
132 132 132
132 132 132
132 132 132
131 131 131
131 131 131
130 130 130
130 130 130
129 129 129
130 130 130
129 129 129
130 130 130
131 131 131
133 133 133
134 134 134
135 135 135
134 134 134
134 134 134
134 134 134
133 133 133
129 129 129
122 122 122
115 115 115
115 115 115
118 118 118
124 124 124
125 125 125
125 125 125
132 132 132
138 138 138
141 141 141
141 141 141
142 142 142
144 144 144
145 145 145
145 145 145
145 145 145
147 147 147
146 146 146
142 142 142
141 141 141
140 140 140
138 138 138
136 136 136
137 137 137
137 137 137
137 137 137
135 135 135
134 134 134
134 134 134
132 132 132
131 131 131
130 130 130
129 129 129
127 127 127
127 127 127
126 126 126
125 125 125
125 125 125
125 125 125
125 125 125
126 126 126
128 128 128
129 129 129
130 130 130
130 130 130
130 130 130
131 131 131
130 130 130
130 130 130
130 130 130
129 129 129
129 129 129
130 130 130
130 130 130
130 130 130
132 132 132
134 134 134
134 134 134
133 133 133
133 133 133
134 134 134
134 134 134
132 132 132
127 127 127
119 119 119
114 114 114
115 115 115
117 117 117
124 124 124
125 125 125
125 125 125
129 129 129
136 136 136
140 140 140
139 139 139
141 141 141
143 143 143
145 145 145
145 145 145
145 145 145
146 146 146
147 147 147
145 145 145
141 141 141
141 141 141
139 139 139
136 136 136
136 136 136
136 136 136
136 136 136
135 135 135
134 134 134
132 132 132
131 131 131
129 129 129
128 128 128
127 127 127
126 126 126
126 126 126
126 126 126
125 125 125
125 125 125
125 125 125
125 125 125
127 127 127
128 128 128
129 129 129
129 129 129
129 129 129
129 129 129
130 130 130
130 130 130
129 129 129
130 130 130
129 129 129
129 129 129
130 130 130
130 130 130
131 131 131
133 133 133
134 134 134
133 133 133
133 133 133
134 134 134
134 134 134
136 136 136
131 131 131
124 124 124
115 115 115
113 113 113
114 114 114
116 116 116
124 124 124
125 125 125
125 125 125
127 127 127
134 134 134
138 138 138
138 138 138
140 140 140
143 143 143
144 144 144
145 145 145
145 145 145
145 145 145
146 146 146
147 147 147
144 144 144
141 141 141
140 140 140
137 137 137
136 136 136
135 135 135
134 134 134
134 134 134
133 133 133
132 132 132
130 130 130
128 128 128
127 127 127
126 126 126
125 125 125
125 125 125
125 125 125
125 125 125
125 125 125
125 125 125
126 126 126
127 127 127
128 128 128
128 128 128
129 129 129
129 129 129
129 129 129
130 130 130
129 129 129
129 129 129
129 129 129
129 129 129
130 130 130
130 130 130
131 131 131
132 132 132
133 133 133
133 133 133
133 133 133
133 133 133
134 134 134
135 135 135
136 136 136
130 130 130
120 120 120
114 114 114
113 113 113
114 114 114
115 115 115
124 124 124
125 125 125
124 124 124
126 126 126
132 132 132
136 136 136
137 137 137
139 139 139
142 142 142
144 144 144
145 145 145
146 146 146
144 144 144
145 145 145
147 147 147
146 146 146
142 142 142
140 140 140
138 138 138
135 135 135
134 134 134
133 133 133
132 132 132
131 131 131
131 131 131
130 130 130
129 129 129
127 127 127
126 126 126
125 125 125
126 126 126
126 126 126
126 126 126
126 126 126
126 126 126
126 126 126
127 127 127
128 128 128
127 127 127
128 128 128
129 129 129
129 129 129
130 130 130
129 129 129
128 128 128
128 128 128
129 129 129
130 130 130
130 130 130
131 131 131
132 132 132
133 133 133
133 133 133
133 133 133
133 133 133
135 135 135
136 136 136
137 137 137
128 128 128
117 117 117
112 112 112
113 113 113
114 114 114
115 115 115
124 124 124
125 125 125
124 124 124
125 125 125
129 129 129
134 134 134
136 136 136
139 139 139
142 142 142
145 145 145
146 146 146
146 146 146
146 146 146
145 145 145
146 146 146
146 146 146
143 143 143
140 140 140
138 138 138
135 135 135
134 134 134
133 133 133
131 131 131
130 130 130
130 130 130
129 129 129
128 128 128
127 127 127
127 127 127
126 126 126
126 126 126
127 127 127
127 127 127
127 127 127
127 127 127
127 127 127
128 128 128
128 128 128
127 127 127
128 128 128
129 129 129
128 128 128
128 128 128
128 128 128
128 128 128
128 128 128
129 129 129
130 130 130
131 131 131
132 132 132
132 132 132
132 132 132
132 132 132
134 134 134
135 135 135
136 136 136
137 137 137
135 135 135
126 126 126
115 115 115
112 112 112
113 113 113
113 113 113
114 114 114
125 125 125
125 125 125
124 124 124
125 125 125
126 126 126
131 131 131
136 136 136
140 140 140
142 142 142
145 145 145
146 146 146
147 147 147
147 147 147
147 147 147
146 146 146
146 146 146
143 143 143
141 141 141
140 140 140
136 136 136
134 134 134
132 132 132
131 131 131
130 130 130
129 129 129
128 128 128
127 127 127
127 127 127
127 127 127
127 127 127
126 126 126
126 126 126
127 127 127
127 127 127
127 127 127
126 126 126
128 128 128
127 127 127
127 127 127
127 127 127
127 127 127
127 127 127
127 127 127
127 127 127
127 127 127
128 128 128
129 129 129
130 130 130
131 131 131
132 132 132
132 132 132
132 132 132
133 133 133
135 135 135
137 137 137
138 138 138
136 136 136
134 134 134
125 125 125
114 114 114
112 112 112
112 112 112
114 114 114
115 115 115
124 124 124
125 125 125
125 125 125
125 125 125
125 125 125
129 129 129
135 135 135
140 140 140
142 142 142
145 145 145
147 147 147
147 147 147
147 147 147
147 147 147
145 145 145
145 145 145
142 142 142
142 142 142
141 141 141
138 138 138
135 135 135
133 133 133
131 131 131
130 130 130
130 130 130
128 128 128
127 127 127
127 127 127
127 127 127
127 127 127
126 126 126
126 126 126
127 127 127
127 127 127
127 127 127
127 127 127
127 127 127
127 127 127
126 126 126
126 126 126
126 126 126
126 126 126
126 126 126
127 127 127
128 128 128
128 128 128
129 129 129
130 130 130
131 131 131
131 131 131
132 132 132
133 133 133
134 134 134
137 137 137
138 138 138
137 137 137
135 135 135
133 133 133
125 125 125
115 115 115
112 112 112
112 112 112
114 114 114
116 116 116
125 125 125
125 125 125
124 124 124
125 125 125
125 125 125
127 127 127
134 134 134
140 140 140
143 143 143
146 146 146
147 147 147
147 147 147
147 147 147
146 146 146
145 145 145
146 146 146
143 143 143
142 142 142
142 142 142
140 140 140
137 137 137
135 135 135
132 132 132
131 131 131
130 130 130
129 129 129
127 127 127
127 127 127
127 127 127
127 127 127
126 126 126
127 127 127
128 128 128
128 128 128
128 128 128
127 127 127
127 127 127
126 126 126
126 126 126
126 126 126
125 125 125
126 126 126
126 126 126
127 127 127
128 128 128
129 129 129
129 129 129
130 130 130
131 131 131
131 131 131
132 132 132
135 135 135
136 136 136
138 138 138
138 138 138
136 136 136
134 134 134
132 132 132
125 125 125
116 116 116
112 112 112
113 113 113
115 115 115
116 116 116
124 124 124
125 125 125
124 124 124
124 124 124
125 125 125
125 125 125
132 132 132
140 140 140
144 144 144
148 148 148
148 148 148
147 147 147
147 147 147
146 146 146
144 144 144
145 145 145
143 143 143
142 142 142
142 142 142
141 141 141
139 139 139
136 136 136
134 134 134
132 132 132
131 131 131
129 129 129
128 128 128
127 127 127
127 127 127
127 127 127
127 127 127
128 128 128
128 128 128
128 128 128
127 127 127
127 127 127
126 126 126
126 126 126
126 126 126
126 126 126
125 125 125
126 126 126
126 126 126
127 127 127
128 128 128
129 129 129
129 129 129
131 131 131
131 131 131
132 132 132
134 134 134
136 136 136
137 137 137
137 137 137
137 137 137
135 135 135
133 133 133
131 131 131
125 125 125
116 116 116
112 112 112
113 113 113
115 115 115
116 116 116
124 124 124
124 124 124
124 124 124
124 124 124
124 124 124
124 124 124
131 131 131
140 140 140
146 146 146
148 148 148
148 148 148
147 147 147
147 147 147
146 146 146
143 143 143
143 143 143
143 143 143
142 142 142
142 142 142
141 141 141
140 140 140
138 138 138
135 135 135
133 133 133
131 131 131
130 130 130
129 129 129
128 128 128
127 127 127
128 128 128
128 128 128
128 128 128
128 128 128
128 128 128
128 128 128
127 127 127
127 127 127
126 126 126
126 126 126
126 126 126
126 126 126
126 126 126
127 127 127
127 127 127
128 128 128
130 130 130
130 130 130
131 131 131
132 132 132
133 133 133
136 136 136
136 136 136
137 137 137
136 136 136
136 136 136
134 134 134
132 132 132
132 132 132
126 126 126
117 117 117
112 112 112
114 114 114
116 116 116
117 117 117
125 125 125
123 123 123
124 124 124
124 124 124
124 124 124
124 124 124
130 130 130
140 140 140
146 146 146
148 148 148
148 148 148
148 148 148
147 147 147
145 145 145
142 142 142
143 143 143
141 141 141
142 142 142
142 142 142
141 141 141
139 139 139
139 139 139
136 136 136
133 133 133
131 131 131
130 130 130
128 128 128
128 128 128
127 127 127
126 126 126
127 127 127
127 127 127
127 127 127
126 126 126
126 126 126
126 126 126
126 126 126
125 125 125
125 125 125
125 125 125
126 126 126
126 126 126
127 127 127
128 128 128
129 129 129
130 130 130
130 130 130
132 132 132
133 133 133
135 135 135
136 136 136
135 135 135
137 137 137
135 135 135
134 134 134
133 133 133
132 132 132
131 131 131
127 127 127
118 118 118
112 112 112
114 114 114
116 116 116
117 117 117
125 125 125
123 123 123
124 124 124
125 125 125
125 125 125
123 123 123
131 131 131
140 140 140
147 147 147
149 149 149
149 149 149
148 148 148
148 148 148
145 145 145
141 141 141
141 141 141
140 140 140
141 141 141
143 143 143
141 141 141
138 138 138
138 138 138
138 138 138
135 135 135
131 131 131
130 130 130
129 129 129
127 127 127
126 126 126
125 125 125
125 125 125
125 125 125
125 125 125
125 125 125
124 124 124
125 125 125
125 125 125
125 125 125
125 125 125
125 125 125
126 126 126
127 127 127
128 128 128
128 128 128
129 129 129
131 131 131
131 131 131
133 133 133
134 134 134
136 136 136
136 136 136
135 135 135
136 136 136
134 134 134
133 133 133
133 133 133
132 132 132
132 132 132
128 128 128
120 120 120
113 113 113
114 114 114
116 116 116
118 118 118
125 125 125
124 124 124
124 124 124
125 125 125
124 124 124
123 123 123
131 131 131
141 141 141
148 148 148
149 149 149
148 148 148
147 147 147
147 147 147
145 145 145
141 141 141
141 141 141
139 139 139
140 140 140
141 141 141
142 142 142
138 138 138
136 136 136
137 137 137
136 136 136
133 133 133
130 130 130
129 129 129
128 128 128
126 126 126
125 125 125
124 124 124
124 124 124
124 124 124
124 124 124
124 124 124
124 124 124
124 124 124
125 125 125
125 125 125
126 126 126
127 127 127
128 128 128
128 128 128
128 128 128
131 131 131
132 132 132
133 133 133
134 134 134
135 135 135
135 135 135
135 135 135
134 134 134
133 133 133
133 133 133
133 133 133
132 132 132
132 132 132
132 132 132
129 129 129
121 121 121
114 114 114
114 114 114
117 117 117
118 118 118
