P3
64 64
255
93 93 93
94 94 94
95 95 95
96 96 96
99 99 99
102 102 102
105 105 105
105 105 105
105 105 105
104 104 104
104 104 104
104 104 104
103 103 103
103 103 103
102 102 102
101 101 101
101 101 101
100 100 100
100 100 100
100 100 100
100 100 100
99 99 99
99 99 99
99 99 99
99 99 99
100 100 100
100 100 100
100 100 100
100 100 100
101 101 101
102 102 102
102 102 102
102 102 102
103 103 103
103 103 103
104 104 104
104 104 104
105 105 105
106 106 106
107 107 107
107 107 107
108 108 108
109 109 109
109 109 109
110 110 110
110 110 110
111 111 111
112 112 112
112 112 112
112 112 112
112 112 112
113 113 113
113 113 113
113 113 113
113 113 113
112 112 112
112 112 112
112 112 112
112 112 112
111 111 111
110 110 110
110 110 110
107 107 107
102 102 102
93 93 93
94 94 94
95 95 95
97 97 97
99 99 99
102 102 102
104 104 104
104 104 104
105 105 105
104 104 104
104 104 104
104 104 104
103 103 103
102 102 102
102 102 102
101 101 101
101 101 101
100 100 100
100 100 100
100 100 100
100 100 100
100 100 100
100 100 100
100 100 100
100 100 100
100 100 100
100 100 100
100 100 100
100 100 100
101 101 101
101 101 101
101 101 101
102 102 102
102 102 102
103 103 103
103 103 103
104 104 104
105 105 105
105 105 105
106 106 106
106 106 106
107 107 107
108 108 108
108 108 108
109 109 109
109 109 109
110 110 110
111 111 111
112 112 112
112 112 112
112 112 112
112 112 112
112 112 112
113 113 113
113 113 113
113 113 113
113 113 113
113 113 113
112 112 112
111 111 111
111 111 111
110 110 110
108 108 108
103 103 103
92 92 92
94 94 94
95 95 95
97 97 97
100 100 100
103 103 103
104 104 104
105 105 105
105 105 105
104 104 104
104 104 104
103 103 103
103 103 103
102 102 102
102 102 102
101 101 101
101 101 101
101 101 101
100 100 100
100 100 100
100 100 100
100 100 100
100 100 100
100 100 100
100 100 100
100 100 100
100 100 100
101 101 101
101 101 101
101 101 101
101 101 101
101 101 101
102 102 102
102 102 102
103 103 103
103 103 103
103 103 103
104 104 104
105 105 105
105 105 105
106 106 106
107 107 107
107 107 107
108 108 108
108 108 108
109 109 109
110 110 110
110 110 110
111 111 111
111 111 111
111 111 111
112 112 112
112 112 112
113 113 113
113 113 113
113 113 113
113 113 113
113 113 113
112 112 112
112 112 112
111 111 111
110 110 110
108 108 108
104 104 104
92 92 92
94 94 94
96 96 96
98 98 98
100 100 100
103 103 103
104 104 104
105 105 105
105 105 105
104 104 104
103 103 103
103 103 103
103 103 103
102 102 102
102 102 102
101 101 101
101 101 101
101 101 101
100 100 100
100 100 100
100 100 100
100 100 100
100 100 100
100 100 100
100 100 100
100 100 100
100 100 100
101 101 101
101 101 101
101 101 101
101 101 101
102 102 102
102 102 102
102 102 102
102 102 102
103 103 103
103 103 103
104 104 104
105 105 105
105 105 105
105 105 105
106 106 106
106 106 106
107 107 107
108 108 108
108 108 108
109 109 109
109 109 109
110 110 110
110 110 110
111 111 111
111 111 111
111 111 111
112 112 112
112 112 112
113 113 113
112 112 112
113 113 113
112 112 112
112 112 112
111 111 111
110 110 110
108 108 108
105 105 105
92 92 92
93 93 93
96 96 96
98 98 98
101 101 101
103 103 103
104 104 104
104 104 104
104 104 104
104 104 104
103 103 103
103 103 103
103 103 103
102 102 102
102 102 102
101 101 101
101 101 101
101 101 101
100 100 100
100 100 100
100 100 100
100 100 100
100 100 100
100 100 100
100 100 100
100 100 100
100 100 100
101 101 101
102 102 102
102 102 102
102 102 102
102 102 102
103 103 103
103 103 103
102 102 102
103 103 103
103 103 103
104 104 104
104 104 104
105 105 105
105 105 105
105 105 105
105 105 105
106 106 106
106 106 106
107 107 107
107 107 107
108 108 108
109 109 109
109 109 109
109 109 109
110 110 110
110 110 110
110 110 110
111 111 111
112 112 112
112 112 112
112 112 112
112 112 112
112 112 112
111 111 111
110 110 110
109 109 109
105 105 105
91 91 91
93 93 93
96 96 96
98 98 98
101 101 101
102 102 102
103 103 103
104 104 104
104 104 104
104 104 104
103 103 103
103 103 103
102 102 102
101 101 101
101 101 101
101 101 101
101 101 101
100 100 100
100 100 100
100 100 100
100 100 100
100 100 100
100 100 100
100 100 100
100 100 100
101 101 101
100 100 100
101 101 101
102 102 102
102 102 102
102 102 102
102 102 102
103 103 103
103 103 103
102 102 102
102 102 102
103 103 103
103 103 103
104 104 104
104 104 104
104 104 104
104 104 104
104 104 104
104 104 104
105 105 105
105 105 105
105 105 105
106 106 106
107 107 107
107 107 107
107 107 107
108 108 108
108 108 108
109 109 109
109 109 109
110 110 110
111 111 111
111 111 111
111 111 111
111 111 111
111 111 111
110 110 110
109 109 109
106 106 106
92 92 92
93 93 93
96 96 96
99 99 99
101 101 101
102 102 102
103 103 103
104 104 104
104 104 104
103 103 103
103 103 103
102 102 102
101 101 101
100 100 100
100 100 100
100 100 100
99 99 99
100 100 100
100 100 100
100 100 100
99 99 99
99 99 99
100 100 100
100 100 100
100 100 100
100 100 100
100 100 100
101 101 101
102 102 102
102 102 102
103 103 103
103 103 103
104 104 104
103 103 103
102 102 102
102 102 102
102 102 102
103 103 103
103 103 103
103 103 103
103 103 103
103 103 103
102 102 102
102 102 102
103 103 103
103 103 103
104 104 104
104 104 104
105 105 105
105 105 105
106 106 106
106 106 106
106 106 106
106 106 106
107 107 107
108 108 108
109 109 109
109 109 109
110 110 110
110 110 110
110 110 110
110 110 110
109 109 109
106 106 106
92 92 92
94 94 94
97 97 97
99 99 99
102 102 102
103 103 103
103 103 103
104 104 104
103 103 103
102 102 102
101 101 101
100 100 100
99 99 99
99 99 99
99 99 99
98 98 98
99 99 99
99 99 99
98 98 98
98 98 98
98 98 98
98 98 98
99 99 99
99 99 99
100 100 100
100 100 100
101 101 101
101 101 101
101 101 101
102 102 102
102 102 102
103 103 103
104 104 104
103 103 103
102 102 102
102 102 102
102 102 102
102 102 102
103 103 103
102 102 102
101 101 101
101 101 101
100 100 100
100 100 100
100 100 100
101 101 101
101 101 101
101 101 101
101 101 101
102 102 102
102 102 102
104 104 104
103 103 103
103 103 103
103 103 103
105 105 105
106 106 106
107 107 107
108 108 108
108 108 108
109 109 109
110 110 110
108 108 108
106 106 106
93 93 93
95 95 95
97 97 97
100 100 100
102 102 102
103 103 103
103 103 103
102 102 102
101 101 101
99 99 99
99 99 99
98 98 98
98 98 98
97 97 97
97 97 97
97 97 97
98 98 98
97 97 97
97 97 97
97 97 97
97 97 97
97 97 97
98 98 98
98 98 98
99 99 99
99 99 99
100 100 100
101 101 101
101 101 101
101 101 101
102 102 102
103 103 103
104 104 104
103 103 103
102 102 102
102 102 102
100 100 100
100 100 100
102 102 102
100 100 100
99 99 99
99 99 99
98 98 98
97 97 97
97 97 97
97 97 97
97 97 97
101 101 101
100 100 100
100 100 100
100 100 100
102 102 102
103 103 103
101 101 101
100 100 100
101 101 101
103 103 103
105 105 105
106 106 106
106 106 106
107 107 107
108 108 108
107 107 107
105 105 105
94 94 94
95 95 95
97 97 97
100 100 100
103 103 103
104 104 104
103 103 103
101 101 101
98 98 98
97 97 97
97 97 97
98 98 98
98 98 98
98 98 98
98 98 98
98 98 98
99 99 99
98 98 98
97 97 97
98 98 98
98 98 98
98 98 98
98 98 98
99 99 99
100 100 100
100 100 100
100 100 100
101 101 101
100 100 100
101 101 101
102 102 102
103 103 103
103 103 103
103 103 103
101 101 101
100 100 100
99 99 99
99 99 99
101 101 101
100 100 100
98 98 98
100 100 100
99 99 99
96 96 96
96 96 96
96 96 96
96 96 96
103 103 103
104 104 104
104 104 104
103 103 103
103 103 103
105 105 105
104 104 104
102 102 102
100 100 100
101 101 101
103 103 103
104 104 104
105 105 105
105 105 105
107 107 107
107 107 107
104 104 104
93 93 93
95 95 95
97 97 97
101 101 101
104 104 104
103 103 103
101 101 101
99 99 99
98 98 98
98 98 98
99 99 99
99 99 99
99 99 99
99 99 99
100 100 100
100 100 100
100 100 100
98 98 98
99 99 99
99 99 99
100 100 100
99 99 99
99 99 99
101 101 101
102 102 102
103 103 103
104 104 104
102 102 102
101 101 101
101 101 101
102 102 102
102 102 102
102 102 102
102 102 102
101 101 101
100 100 100
98 98 98
98 98 98
99 99 99
100 100 100
99 99 99
99 99 99
97 97 97
96 96 96
96 96 96
96 96 96
97 97 97
101 101 101
106 106 106
108 108 108
108 108 108
109 109 109
109 109 109
109 109 109
108 108 108
107 107 107
105 105 105
102 102 102
103 103 103
104 104 104
105 105 105
106 106 106
106 106 106
104 104 104
93 93 93
95 95 95
97 97 97
101 101 101
104 104 104
102 102 102
100 100 100
99 99 99
99 99 99
100 100 100
100 100 100
101 101 101
101 101 101
101 101 101
101 101 101
101 101 101
101 101 101
100 100 100
101 101 101
100 100 100
101 101 101
101 101 101
101 101 101
103 103 103
106 106 106
105 105 105
105 105 105
108 108 108
106 106 106
104 104 104
103 103 103
104 104 104
104 104 104
103 103 103
102 102 102
100 100 100
99 99 99
99 99 99
99 99 99
98 98 98
97 97 97
97 97 97
96 96 96
96 96 96
96 96 96
97 97 97
98 98 98
100 100 100
107 107 107
109 109 109
109 109 109
109 109 109
108 108 108
108 108 108
107 107 107
107 107 107
108 108 108
107 107 107
102 102 102
104 104 104
105 105 105
106 106 106
106 106 106
104 104 104
93 93 93
94 94 94
99 99 99
102 102 102
103 103 103
102 102 102
101 101 101
101 101 101
101 101 101
102 102 102
102 102 102
103 103 103
103 103 103
103 103 103
103 103 103
103 103 103
102 102 102
101 101 101
100 100 100
100 100 100
101 101 101
101 101 101
101 101 101
103 103 103
107 107 107
109 109 109
109 109 109
108 108 108
109 109 109
105 105 105
104 104 104
104 104 104
105 105 105
104 104 104
104 104 104
102 102 102
100 100 100
99 99 99
98 98 98
97 97 97
97 97 97
96 96 96
96 96 96
97 97 97
98 98 98
99 99 99
101 101 101
105 105 105
111 111 111
111 111 111
110 110 110
109 109 109
107 107 107
104 104 104
103 103 103
102 102 102
102 102 102
104 104 104
103 103 103
103 103 103
105 105 105
106 106 106
105 105 105
104 104 104
91 91 91
94 94 94
99 99 99
101 101 101
102 102 102
102 102 102
103 103 103
104 104 104
104 104 104
104 104 104
102 102 102
102 102 102
103 103 103
104 104 104
104 104 104
104 104 104
104 104 104
102 102 102
103 103 103
102 102 102
103 103 103
102 102 102
102 102 102
102 102 102
103 103 103
106 106 106
107 107 107
107 107 107
108 108 108
106 106 106
104 104 104
104 104 104
104 104 104
103 103 103
104 104 104
102 102 102
100 100 100
99 99 99
98 98 98
97 97 97
97 97 97
97 97 97
98 98 98
99 99 99
100 100 100
102 102 102
102 102 102
105 105 105
111 111 111
112 112 112
112 112 112
111 111 111
110 110 110
105 105 105
103 103 103
100 100 100
99 99 99
102 102 102
103 103 103
103 103 103
104 104 104
105 105 105
105 105 105
104 104 104
92 92 92
98 98 98
101 101 101
101 101 101
100 100 100
102 102 102
105 105 105
106 106 106
106 106 106
104 104 104
101 101 101
102 102 102
104 104 104
104 104 104
103 103 103
103 103 103
102 102 102
103 103 103
103 103 103
102 102 102
103 103 103
102 102 102
100 100 100
99 99 99
99 99 99
100 100 100
101 101 101
106 106 106
107 107 107
107 107 107
104 104 104
104 104 104
103 103 103
103 103 103
101 101 101
100 100 100
99 99 99
99 99 99
97 97 97
97 97 97
98 98 98
100 100 100
101 101 101
101 101 101
101 101 101
101 101 101
102 102 102
102 102 102
104 104 104
108 108 108
109 109 109
109 109 109
106 106 106
104 104 104
103 103 103
101 101 101
100 100 100
101 101 101
104 104 104
104 104 104
104 104 104
105 105 105
105 105 105
104 104 104
92 92 92
96 96 96
98 98 98
98 98 98
99 99 99
102 102 102
106 106 106
107 107 107
106 106 106
103 103 103
103 103 103
104 104 104
104 104 104
102 102 102
102 102 102
102 102 102
101 101 101
102 102 102
103 103 103
103 103 103
103 103 103
102 102 102
100 100 100
99 99 99
98 98 98
98 98 98
99 99 99
103 103 103
106 106 106
105 105 105
103 103 103
102 102 102
102 102 102
101 101 101
100 100 100
99 99 99
99 99 99
99 99 99
98 98 98
100 100 100
101 101 101
102 102 102
103 103 103
102 102 102
103 103 103
101 101 101
100 100 100
100 100 100
100 100 100
102 102 102
104 104 104
105 105 105
104 104 104
102 102 102
103 103 103
102 102 102
101 101 101
101 101 101
104 104 104
104 104 104
107 107 107
108 108 108
104 104 104
104 104 104
91 91 91
94 94 94
96 96 96
99 99 99
101 101 101
102 102 102
105 105 105
107 107 107
106 106 106
105 105 105
104 104 104
103 103 103
102 102 102
103 103 103
103 103 103
102 102 102
101 101 101
101 101 101
102 102 102
103 103 103
103 103 103
102 102 102
101 101 101
100 100 100
99 99 99
98 98 98
100 100 100
102 102 102
105 105 105
104 104 104
103 103 103
102 102 102
102 102 102
101 101 101
100 100 100
100 100 100
99 99 99
99 99 99
100 100 100
103 103 103
103 103 103
103 103 103
104 104 104
103 103 103
104 104 104
103 103 103
101 101 101
99 99 99
99 99 99
101 101 101
102 102 102
102 102 102
102 102 102
103 103 103
103 103 103
104 104 104
104 104 104
102 102 102
103 103 103
103 103 103
104 104 104
106 106 106
106 106 106
104 104 104
91 91 91
93 93 93
95 95 95
98 98 98
100 100 100
101 101 101
103 103 103
106 106 106
106 106 106
106 106 106
105 105 105
104 104 104
103 103 103
104 104 104
103 103 103
103 103 103
102 102 102
102 102 102
103 103 103
102 102 102
101 101 101
101 101 101
102 102 102
102 102 102
100 100 100
100 100 100
100 100 100
102 102 102
105 105 105
104 104 104
102 102 102
102 102 102
102 102 102
101 101 101
100 100 100
100 100 100
99 99 99
99 99 99
101 101 101
103 103 103
103 103 103
103 103 103
102 102 102
102 102 102
103 103 103
103 103 103
102 102 102
102 102 102
102 102 102
103 103 103
102 102 102
101 101 101
100 100 100
102 102 102
104 104 104
105 105 105
106 106 106
105 105 105
104 104 104
103 103 103
102 102 102
102 102 102
102 102 102
102 102 102
90 90 90
92 92 92
93 93 93
97 97 97
100 100 100
101 101 101
105 105 105
108 108 108
108 108 108
107 107 107
106 106 106
105 105 105
104 104 104
103 103 103
102 102 102
101 101 101
100 100 100
101 101 101
101 101 101
100 100 100
100 100 100
101 101 101
101 101 101
101 101 101
101 101 101
102 102 102
99 99 99
102 102 102
105 105 105
104 104 104
102 102 102
102 102 102
101 101 101
101 101 101
100 100 100
100 100 100
98 98 98
99 99 99
101 101 101
102 102 102
103 103 103
103 103 103
102 102 102
102 102 102
101 101 101
102 102 102
103 103 103
103 103 103
103 103 103
104 104 104
103 103 103
101 101 101
100 100 100
102 102 102
104 104 104
106 106 106
106 106 106
105 105 105
104 104 104
103 103 103
102 102 102
103 103 103
102 102 102
100 100 100
91 91 91
92 92 92
91 91 91
95 95 95
99 99 99
102 102 102
107 107 107
108 108 108
108 108 108
108 108 108
107 107 107
106 106 106
105 105 105
103 103 103
100 100 100
99 99 99
98 98 98
98 98 98
99 99 99
99 99 99
100 100 100
100 100 100
101 101 101
100 100 100
102 102 102
101 101 101
98 98 98
102 102 102
105 105 105
104 104 104
103 103 103
101 101 101
101 101 101
101 101 101
101 101 101
100 100 100
98 98 98
98 98 98
101 101 101
103 103 103
103 103 103
103 103 103
102 102 102
101 101 101
101 101 101
101 101 101
101 101 101
101 101 101
101 101 101
102 102 102
102 102 102
101 101 101
101 101 101
103 103 103
104 104 104
105 105 105
107 107 107
106 106 106
105 105 105
102 102 102
102 102 102
103 103 103
102 102 102
99 99 99
95 95 95
95 95 95
93 93 93
96 96 96
99 99 99
102 102 102
105 105 105
106 106 106
106 106 106
106 106 106
106 106 106
106 106 106
105 105 105
102 102 102
100 100 100
98 98 98
98 98 98
98 98 98
99 99 99
100 100 100
101 101 101
101 101 101
102 102 102
103 103 103
103 103 103
99 99 99
98 98 98
103 103 103
105 105 105
104 104 104
102 102 102
101 101 101
101 101 101
101 101 101
101 101 101
100 100 100
99 99 99
98 98 98
101 101 101
103 103 103
104 104 104
104 104 104
104 104 104
103 103 103
102 102 102
101 101 101
101 101 101
101 101 101
100 100 100
101 101 101
101 101 101
101 101 101
102 102 102
102 102 102
104 104 104
105 105 105
106 106 106
106 106 106
105 105 105
102 102 102
102 102 102
103 103 103
102 102 102
99 99 99
99 99 99
98 98 98
95 95 95
98 98 98
100 100 100
102 102 102
104 104 104
105 105 105
105 105 105
105 105 105
105 105 105
105 105 105
105 105 105
104 104 104
102 102 102
101 101 101
101 101 101
101 101 101
102 102 102
102 102 102
103 103 103
104 104 104
105 105 105
105 105 105
102 102 102
98 98 98
100 100 100
104 104 104
104 104 104
103 103 103
102 102 102
101 101 101
102 102 102
101 101 101
101 101 101
101 101 101
99 99 99
99 99 99
99 99 99
103 103 103
104 104 104
104 104 104
104 104 104
104 104 104
104 104 104
103 103 103
102 102 102
102 102 102
101 101 101
101 101 101
101 101 101
101 101 101
102 102 102
102 102 102
103 103 103
104 104 104
105 105 105
105 105 105
104 104 104
102 102 102
102 102 102
103 103 103
102 102 102
100 100 100
98 98 98
96 96 96
96 96 96
99 99 99
101 101 101
102 102 102
104 104 104
105 105 105
105 105 105
104 104 104
104 104 104
104 104 104
104 104 104
103 103 103
103 103 103
103 103 103
102 102 102
102 102 102
103 103 103
103 103 103
104 104 104
104 104 104
105 105 105
104 104 104
101 101 101
99 99 99
101 101 101
104 104 104
104 104 104
102 102 102
102 102 102
102 102 102
102 102 102
102 102 102
101 101 101
101 101 101
100 100 100
99 99 99
98 98 98
100 100 100
103 103 103
104 104 104
104 104 104
104 104 104
104 104 104
104 104 104
104 104 104
104 104 104
103 103 103
103 103 103
103 103 103
102 102 102
102 102 102
102 102 102
102 102 102
103 103 103
104 104 104
104 104 104
103 103 103
101 101 101
102 102 102
103 103 103
103 103 103
101 101 101
96 96 96
95 95 95
96 96 96
100 100 100
102 102 102
102 102 102
103 103 103
103 103 103
103 103 103
103 103 103
103 103 103
103 103 103
102 102 102
101 101 101
101 101 101
101 101 101
101 101 101
101 101 101
102 102 102
103 103 103
103 103 103
102 102 102
102 102 102
103 103 103
103 103 103
101 101 101
102 102 102
103 103 103
103 103 103
102 102 102
101 101 101
102 102 102
102 102 102
102 102 102
101 101 101
101 101 101
100 100 100
99 99 99
99 99 99
99 99 99
100 100 100
102 102 102
103 103 103
103 103 103
103 103 103
103 103 103
103 103 103
103 103 103
103 103 103
103 103 103
103 103 103
102 102 102
102 102 102
101 101 101
102 102 102
102 102 102
103 103 103
103 103 103
102 102 102
101 101 101
102 102 102
103 103 103
103 103 103
102 102 102
96 96 96
95 95 95
97 97 97
101 101 101
102 102 102
102 102 102
102 102 102
102 102 102
102 102 102
103 103 103
102 102 102
102 102 102
101 101 101
100 100 100
100 100 100
100 100 100
100 100 100
101 101 101
101 101 101
101 101 101
100 100 100
99 99 99
102 102 102
104 104 104
103 103 103
101 101 101
102 102 102
103 103 103
102 102 102
101 101 101
101 101 101
102 102 102
102 102 102
102 102 102
101 101 101
101 101 101
100 100 100
99 99 99
99 99 99
100 100 100
99 99 99
100 100 100
102 102 102
102 102 102
102 102 102
102 102 102
102 102 102
102 102 102
102 102 102
102 102 102
102 102 102
102 102 102
101 101 101
101 101 101
101 101 101
101 101 101
102 102 102
102 102 102
101 101 101
101 101 101
103 103 103
103 103 103
103 103 103
102 102 102
96 96 96
96 96 96
99 99 99
102 102 102
102 102 102
103 103 103
102 102 102
102 102 102
102 102 102
101 101 101
101 101 101
101 101 101
100 100 100
100 100 100
99 99 99
99 99 99
99 99 99
99 99 99
99 99 99
98 98 98
98 98 98
100 100 100
103 103 103
103 103 103
103 103 103
102 102 102
103 103 103
103 103 103
102 102 102
101 101 101
102 102 102
103 103 103
103 103 103
102 102 102
102 102 102
101 101 101
100 100 100
99 99 99
99 99 99
101 101 101
100 100 100
100 100 100
99 99 99
100 100 100
100 100 100
101 101 101
101 101 101
102 102 102
102 102 102
102 102 102
102 102 102
101 101 101
100 100 100
100 100 100
101 101 101
101 101 101
101 101 101
101 101 101
101 101 101
102 102 102
103 103 103
103 103 103
102 102 102
101 101 101
97 97 97
96 96 96
99 99 99
102 102 102
102 102 102
103 103 103
103 103 103
102 102 102
102 102 102
101 101 101
101 101 101
100 100 100
99 99 99
98 98 98
98 98 98
98 98 98
98 98 98
98 98 98
98 98 98
98 98 98
99 99 99
101 101 101
102 102 102
102 102 102
102 102 102
102 102 102
103 103 103
104 104 104
102 102 102
101 101 101
101 101 101
102 102 102
103 103 103
102 102 102
102 102 102
101 101 101
101 101 101
99 99 99
99 99 99
100 100 100
100 100 100
101 101 101
101 101 101
98 98 98
98 98 98
99 99 99
100 100 100
100 100 100
100 100 100
100 100 100
100 100 100
100 100 100
99 99 99
99 99 99
99 99 99
99 99 99
100 100 100
101 101 101
102 102 102
103 103 103
104 104 104
103 103 103
102 102 102
102 102 102
97 97 97
97 97 97
99 99 99
102 102 102
103 103 103
103 103 103
103 103 103
102 102 102
102 102 102
102 102 102
102 102 102
101 101 101
100 100 100
100 100 100
99 99 99
98 98 98
98 98 98
98 98 98
98 98 98
98 98 98
99 99 99
100 100 100
101 101 101
101 101 101
102 102 102
101 101 101
102 102 102
103 103 103
101 101 101
99 99 99
99 99 99
100 100 100
101 101 101
101 101 101
101 101 101
100 100 100
100 100 100
99 99 99
99 99 99
99 99 99
99 99 99
100 100 100
101 101 101
100 100 100
99 99 99
98 98 98
98 98 98
98 98 98
98 98 98
98 98 98
98 98 98
98 98 98
97 97 97
98 98 98
98 98 98
99 99 99
101 101 101
103 103 103
104 104 104
104 104 104
104 104 104
102 102 102
102 102 102
102 102 102
97 97 97
97 97 97
100 100 100
103 103 103
103 103 103
103 103 103
103 103 103
102 102 102
102 102 102
101 101 101
101 101 101
100 100 100
99 99 99
98 98 98
98 98 98
97 97 97
97 97 97
98 98 98
98 98 98
98 98 98
99 99 99
100 100 100
99 99 99
101 101 101
101 101 101
99 99 99
99 99 99
100 100 100
99 99 99
97 97 97
97 97 97
98 98 98
99 99 99
99 99 99
99 99 99
98 98 98
97 97 97
98 98 98
99 99 99
100 100 100
99 99 99
100 100 100
101 101 101
101 101 101
100 100 100
99 99 99
99 99 99
98 98 98
98 98 98
98 98 98
98 98 98
98 98 98
98 98 98
98 98 98
99 99 99
100 100 100
101 101 101
103 103 103
104 104 104
104 104 104
104 104 104
102 102 102
101 101 101
101 101 101
97 97 97
98 98 98
101 101 101
103 103 103
103 103 103
103 103 103
102 102 102
102 102 102
101 101 101
101 101 101
100 100 100
98 98 98
98 98 98
97 97 97
97 97 97
97 97 97
97 97 97
98 98 98
98 98 98
98 98 98
99 99 99
99 99 99
99 99 99
100 100 100
99 99 99
95 95 95
94 94 94
96 96 96
98 98 98
95 95 95
95 95 95
95 95 95
96 96 96
96 96 96
95 95 95
94 94 94
93 93 93
95 95 95
97 97 97
100 100 100
100 100 100
100 100 100
100 100 100
100 100 100
100 100 100
98 98 98
98 98 98
98 98 98
98 98 98
98 98 98
98 98 98
97 97 97
98 98 98
98 98 98
99 99 99
100 100 100
101 101 101
103 103 103
104 104 104
104 104 104
103 103 103
102 102 102
101 101 101
101 101 101
96 96 96
99 99 99
101 101 101
103 103 103
103 103 103
102 102 102
102 102 102
102 102 102
102 102 102
100 100 100
99 99 99
99 99 99
98 98 98
98 98 98
98 98 98
98 98 98
98 98 98
98 98 98
98 98 98
98 98 98
99 99 99
99 99 99
98 98 98
99 99 99
98 98 98
93 93 93
90 90 90
93 93 93
97 97 97
95 95 95
93 93 93
93 93 93
94 94 94
94 94 94
93 93 93
90 90 90
90 90 90
92 92 92
95 95 95
99 99 99
102 102 102
102 102 102
102 102 102
101 101 101
100 100 100
98 98 98
97 97 97
97 97 97
97 97 97
97 97 97
97 97 97
97 97 97
97 97 97
98 98 98
99 99 99
100 100 100
101 101 101
103 103 103
104 104 104
104 104 104
103 103 103
101 101 101
101 101 101
100 100 100
95 95 95
98 98 98
101 101 101
103 103 103
102 102 102
102 102 102
102 102 102
102 102 102
101 101 101
100 100 100
99 99 99
99 99 99
98 98 98
99 99 99
99 99 99
99 99 99
99 99 99
98 98 98
98 98 98
99 99 99
99 99 99
99 99 99
98 98 98
98 98 98
98 98 98
94 94 94
91 91 91
94 94 94
98 98 98
97 97 97
93 93 93
92 92 92
93 93 93
94 94 94
94 94 94
92 92 92
90 90 90
92 92 92
95 95 95
100 100 100
102 102 102
103 103 103
103 103 103
103 103 103
101 101 101
100 100 100
99 99 99
98 98 98
98 98 98
97 97 97
97 97 97
97 97 97
97 97 97
98 98 98
99 99 99
100 100 100
102 102 102
103 103 103
103 103 103
103 103 103
103 103 103
101 101 101
100 100 100
99 99 99
93 93 93
98 98 98
101 101 101
103 103 103
102 102 102
102 102 102
102 102 102
102 102 102
101 101 101
101 101 101
100 100 100
100 100 100
99 99 99
99 99 99
99 99 99
99 99 99
99 99 99
99 99 99
99 99 99
100 100 100
101 101 101
101 101 101
99 99 99
99 99 99
98 98 98
96 96 96
96 96 96
98 98 98
99 99 99
97 97 97
93 93 93
91 91 91
93 93 93
95 95 95
95 95 95
94 94 94
93 93 93
93 93 93
96 96 96
100 100 100
102 102 102
103 103 103
104 104 104
104 104 104
103 103 103
102 102 102
101 101 101
100 100 100
99 99 99
99 99 99
98 98 98
98 98 98
99 99 99
99 99 99
100 100 100
101 101 101
102 102 102
103 103 103
103 103 103
103 103 103
102 102 102
101 101 101
98 98 98
100 100 100
92 92 92
96 96 96
100 100 100
102 102 102
102 102 102
102 102 102
102 102 102
101 101 101
101 101 101
101 101 101
100 100 100
100 100 100
100 100 100
99 99 99
99 99 99
99 99 99
99 99 99
99 99 99
100 100 100
101 101 101
103 103 103
103 103 103
102 102 102
101 101 101
100 100 100
99 99 99
99 99 99
100 100 100
98 98 98
95 95 95
92 92 92
91 91 91
93 93 93
95 95 95
97 97 97
97 97 97
96 96 96
96 96 96
98 98 98
100 100 100
102 102 102
103 103 103
104 104 104
105 105 105
105 105 105
104 104 104
102 102 102
101 101 101
101 101 101
100 100 100
100 100 100
100 100 100
100 100 100
100 100 100
101 101 101
101 101 101
102 102 102
103 103 103
103 103 103
102 102 102
102 102 102
100 100 100
98 98 98
100 100 100
91 91 91
95 95 95
99 99 99
102 102 102
102 102 102
102 102 102
101 101 101
101 101 101
101 101 101
101 101 101
101 101 101
100 100 100
100 100 100
100 100 100
99 99 99
99 99 99
99 99 99
100 100 100
101 101 101
103 103 103
104 104 104
104 104 104
103 103 103
102 102 102
102 102 102
102 102 102
102 102 102
101 101 101
97 97 97
94 94 94
92 92 92
92 92 92
94 94 94
96 96 96
97 97 97
99 99 99
99 99 99
99 99 99
100 100 100
101 101 101
102 102 102
103 103 103
104 104 104
106 106 106
106 106 106
104 104 104
103 103 103
102 102 102
101 101 101
101 101 101
101 101 101
101 101 101
101 101 101
101 101 101
101 101 101
102 102 102
102 102 102
102 102 102
102 102 102
102 102 102
101 101 101
99 99 99
99 99 99
101 101 101
91 91 91
93 93 93
97 97 97
101 101 101
102 102 102
102 102 102
102 102 102
101 101 101
101 101 101
101 101 101
101 101 101
101 101 101
100 100 100
100 100 100
100 100 100
99 99 99
100 100 100
101 101 101
103 103 103
105 105 105
105 105 105
104 104 104
103 103 103
103 103 103
103 103 103
103 103 103
102 102 102
100 100 100
96 96 96
94 94 94
94 94 94
94 94 94
96 96 96
98 98 98
98 98 98
100 100 100
101 101 101
101 101 101
101 101 101
101 101 101
102 102 102
102 102 102
104 104 104
105 105 105
105 105 105
105 105 105
104 104 104
103 103 103
102 102 102
101 101 101
101 101 101
102 102 102
102 102 102
102 102 102
102 102 102
102 102 102
102 102 102
102 102 102
102 102 102
101 101 101
100 100 100
100 100 100
100 100 100
101 101 101
91 91 91
92 92 92
96 96 96
101 101 101
102 102 102
102 102 102
102 102 102
102 102 102
102 102 102
102 102 102
102 102 102
101 101 101
101 101 101
100 100 100
100 100 100
100 100 100
101 101 101
103 103 103
104 104 104
105 105 105
105 105 105
104 104 104
103 103 103
102 102 102
103 103 103
103 103 103
102 102 102
99 99 99
96 96 96
96 96 96
96 96 96
97 97 97
98 98 98
99 99 99
100 100 100
100 100 100
101 101 101
102 102 102
102 102 102
102 102 102
101 101 101
102 102 102
104 104 104
105 105 105
105 105 105
105 105 105
104 104 104
104 104 104
103 103 103
102 102 102
101 101 101
102 102 102
102 102 102
102 102 102
102 102 102
102 102 102
102 102 102
102 102 102
101 101 101
101 101 101
100 100 100
100 100 100
101 101 101
101 101 101
92 92 92
92 92 92
96 96 96
100 100 100
103 103 103
103 103 103
102 102 102
102 102 102
102 102 102
102 102 102
102 102 102
102 102 102
101 101 101
100 100 100
101 101 101
102 102 102
103 103 103
103 103 103
105 105 105
104 104 104
104 104 104
103 103 103
102 102 102
101 101 101
101 101 101
102 102 102
101 101 101
99 99 99
97 97 97
97 97 97
98 98 98
98 98 98
99 99 99
100 100 100
100 100 100
101 101 101
102 102 102
102 102 102
102 102 102
102 102 102
102 102 102
102 102 102
103 103 103
104 104 104
104 104 104
104 104 104
104 104 104
104 104 104
103 103 103
102 102 102
102 102 102
102 102 102
102 102 102
102 102 102
102 102 102
102 102 102
102 102 102
101 101 101
101 101 101
100 100 100
100 100 100
100 100 100
101 101 101
102 102 102
92 92 92
92 92 92
95 95 95
99 99 99
102 102 102
103 103 103
103 103 103
102 102 102
102 102 102
102 102 102
103 103 103
102 102 102
101 101 101
101 101 101
102 102 102
103 103 103
103 103 103
103 103 103
104 104 104
104 104 104
103 103 103
102 102 102
101 101 101
100 100 100
100 100 100
101 101 101
101 101 101
100 100 100
99 99 99
99 99 99
100 100 100
99 99 99
100 100 100
101 101 101
101 101 101
102 102 102
102 102 102
102 102 102
102 102 102
102 102 102
102 102 102
102 102 102
103 103 103
103 103 103
104 104 104
104 104 104
104 104 104
103 103 103
104 104 104
103 103 103
102 102 102
102 102 102
102 102 102
102 102 102
102 102 102
101 101 101
101 101 101
101 101 101
100 100 100
100 100 100
99 99 99
100 100 100
101 101 101
101 101 101
92 92 92
92 92 92
94 94 94
97 97 97
102 102 102
103 103 103
102 102 102
102 102 102
102 102 102
103 103 103
103 103 103
103 103 103
102 102 102
101 101 101
102 102 102
102 102 102
102 102 102
102 102 102
102 102 102
102 102 102
101 101 101
100 100 100
99 99 99
99 99 99
99 99 99
99 99 99
100 100 100
100 100 100
100 100 100
101 101 101
101 101 101
101 101 101
102 102 102
102 102 102
102 102 102
102 102 102
102 102 102
102 102 102
102 102 102
102 102 102
102 102 102
102 102 102
102 102 102
102 102 102
103 103 103
103 103 103
103 103 103
103 103 103
103 103 103
103 103 103
103 103 103
103 103 103
103 103 103
102 102 102
101 101 101
101 101 101
101 101 101
101 101 101
100 100 100
100 100 100
99 99 99
99 99 99
100 100 100
99 99 99
92 92 92
92 92 92
92 92 92
95 95 95
101 101 101
102 102 102
102 102 102
102 102 102
102 102 102
102 102 102
103 103 103
103 103 103
102 102 102
102 102 102
102 102 102
101 101 101
100 100 100
100 100 100
100 100 100
99 99 99
99 99 99
98 98 98
98 98 98
98 98 98
97 97 97
98 98 98
99 99 99
99 99 99
99 99 99
101 101 101
101 101 101
101 101 101
102 102 102
103 103 103
103 103 103
102 102 102
102 102 102
102 102 102
102 102 102
102 102 102
102 102 102
101 101 101
101 101 101
102 102 102
101 101 101
101 101 101
102 102 102
102 102 102
103 103 103
103 103 103
103 103 103
103 103 103
103 103 103
102 102 102
101 101 101
100 100 100
100 100 100
100 100 100
100 100 100
99 99 99
97 97 97
97 97 97
97 97 97
96 96 96
92 92 92
92 92 92
92 92 92
94 94 94
99 99 99
102 102 102
102 102 102
101 101 101
101 101 101
102 102 102
102 102 102
102 102 102
102 102 102
102 102 102
101 101 101
100 100 100
98 98 98
97 97 97
97 97 97
96 96 96
96 96 96
96 96 96
96 96 96
96 96 96
96 96 96
96 96 96
96 96 96
97 97 97
98 98 98
100 100 100
100 100 100
101 101 101
101 101 101
101 101 101
101 101 101
101 101 101
100 100 100
101 101 101
101 101 101
101 101 101
101 101 101
101 101 101
101 101 101
101 101 101
100 100 100
100 100 100
100 100 100
101 101 101
102 102 102
103 103 103
103 103 103
103 103 103
102 102 102
102 102 102
101 101 101
100 100 100
100 100 100
100 100 100
99 99 99
97 97 97
95 95 95
95 95 95
95 95 95
95 95 95
93 93 93
92 92 92
91 91 91
93 93 93
97 97 97
100 100 100
102 102 102
101 101 101
101 101 101
102 102 102
102 102 102
102 102 102
102 102 102
101 101 101
101 101 101
99 99 99
96 96 96
94 94 94
94 94 94
94 94 94
94 94 94
95 95 95
95 95 95
95 95 95
95 95 95
95 95 95
94 94 94
95 95 95
96 96 96
98 98 98
99 99 99
99 99 99
99 99 99
99 99 99
99 99 99
99 99 99
99 99 99
99 99 99
99 99 99
99 99 99
99 99 99
99 99 99
99 99 99
100 100 100
99 99 99
99 99 99
99 99 99
100 100 100
101 101 101
102 102 102
103 103 103
103 103 103
102 102 102
102 102 102
101 101 101
100 100 100
100 100 100
100 100 100
98 98 98
96 96 96
93 93 93
94 94 94
94 94 94
94 94 94
92 92 92
92 92 92
91 91 91
92 92 92
95 95 95
99 99 99
101 101 101
101 101 101
100 100 100
101 101 101
101 101 101
101 101 101
101 101 101
100 100 100
100 100 100
98 98 98
96 96 96
94 94 94
95 95 95
95 95 95
95 95 95
95 95 95
95 95 95
95 95 95
95 95 95
94 94 94
94 94 94
94 94 94
95 95 95
96 96 96
97 97 97
98 98 98
98 98 98
98 98 98
99 99 99
98 98 98
98 98 98
98 98 98
99 99 99
99 99 99
99 99 99
99 99 99
99 99 99
99 99 99
99 99 99
99 99 99
99 99 99
99 99 99
101 101 101
101 101 101
102 102 102
103 103 103
102 102 102
102 102 102
101 101 101
100 100 100
100 100 100
99 99 99
98 98 98
95 95 95
93 93 93
94 94 94
94 94 94
94 94 94
92 92 92
92 92 92
91 91 91
91 91 91
93 93 93
97 97 97
100 100 100
101 101 101
99 99 99
100 100 100
101 101 101
100 100 100
100 100 100
100 100 100
99 99 99
98 98 98
97 97 97
96 96 96
97 97 97
97 97 97
97 97 97
97 97 97
98 98 98
97 97 97
95 95 95
95 95 95
94 94 94
95 95 95
95 95 95
96 96 96
96 96 96
97 97 97
98 98 98
98 98 98
99 99 99
99 99 99
99 99 99
99 99 99
99 99 99
99 99 99
99 99 99
100 100 100
100 100 100
99 99 99
99 99 99
99 99 99
99 99 99
100 100 100
100 100 100
101 101 101
102 102 102
102 102 102
102 102 102
101 101 101
101 101 101
100 100 100
99 99 99
99 99 99
97 97 97
94 94 94
93 93 93
93 93 93
93 93 93
93 93 93
92 92 92
91 91 91
91 91 91
91 91 91
92 92 92
96 96 96
99 99 99
100 100 100
99 99 99
99 99 99
100 100 100
100 100 100
100 100 100
99 99 99
99 99 99
99 99 99
98 98 98
98 98 98
99 99 99
100 100 100
99 99 99
99 99 99
100 100 100
100 100 100
99 99 99
98 98 98
97 97 97
97 97 97
96 96 96
96 96 96
97 97 97
97 97 97
98 98 98
99 99 99
99 99 99
99 99 99
99 99 99
99 99 99
99 99 99
99 99 99
100 100 100
101 101 101
101 101 101
101 101 101
100 100 100
100 100 100
100 100 100
100 100 100
100 100 100
101 101 101
102 102 102
101 101 101
101 101 101
101 101 101
100 100 100
100 100 100
99 99 99
98 98 98
95 95 95
93 93 93
93 93 93
93 93 93
92 92 92
93 93 93
92 92 92
91 91 91
91 91 91
91 91 91
92 92 92
94 94 94
98 98 98
100 100 100
99 99 99
99 99 99
100 100 100
100 100 100
99 99 99
99 99 99
99 99 99
99 99 99
99 99 99
100 100 100
101 101 101
102 102 102
102 102 102
102 102 102
101 101 101
101 101 101
101 101 101
99 99 99
99 99 99
98 98 98
98 98 98
98 98 98
98 98 98
98 98 98
98 98 98
99 99 99
100 100 100
100 100 100
100 100 100
100 100 100
101 101 101
101 101 101
101 101 101
102 102 102
102 102 102
102 102 102
102 102 102
101 101 101
101 101 101
101 101 101
101 101 101
101 101 101
101 101 101
101 101 101
101 101 101
101 101 101
100 100 100
99 99 99
98 98 98
97 97 97
94 94 94
93 93 93
93 93 93
93 93 93
93 93 93
94 94 94
93 93 93
92 92 92
91 91 91
91 91 91
91 91 91
92 92 92
96 96 96
99 99 99
99 99 99
98 98 98
99 99 99
99 99 99
99 99 99
99 99 99
99 99 99
100 100 100
101 101 101
102 102 102
103 103 103
104 104 104
104 104 104
104 104 104
103 103 103
102 102 102
101 101 101
100 100 100
99 99 99
99 99 99
98 98 98
98 98 98
98 98 98
98 98 98
99 99 99
99 99 99
100 100 100
100 100 100
101 101 101
102 102 102
103 103 103
102 102 102
102 102 102
103 103 103
103 103 103
103 103 103
102 102 102
102 102 102
102 102 102
101 101 101
101 101 101
101 101 101
101 101 101
101 101 101
101 101 101
100 100 100
100 100 100
99 99 99
98 98 98
96 96 96
93 93 93
92 92 92
93 93 93
93 93 93
94 94 94
95 95 95
93 93 93
92 92 92
91 91 91
91 91 91
91 91 91
91 91 91
94 94 94
98 98 98
99 99 99
98 98 98
98 98 98
99 99 99
99 99 99
99 99 99
100 100 100
100 100 100
102 102 102
103 103 103
105 105 105
105 105 105
105 105 105
104 104 104
104 104 104
103 103 103
101 101 101
101 101 101
100 100 100
99 99 99
99 99 99
98 98 98
98 98 98
98 98 98
98 98 98
99 99 99
100 100 100
101 101 101
101 101 101
102 102 102
104 104 104
103 103 103
103 103 103
104 104 104
104 104 104
105 105 105
104 104 104
104 104 104
103 103 103
102 102 102
102 102 102
101 101 101
101 101 101
101 101 101
101 101 101
100 100 100
99 99 99
99 99 99
98 98 98
96 96 96
92 92 92
92 92 92
92 92 92
93 93 93
94 94 94
95 95 95
93 93 93
92 92 92
91 91 91
91 91 91
92 92 92
91 91 91
92 92 92
97 97 97
99 99 99
99 99 99
98 98 98
98 98 98
99 99 99
99 99 99
99 99 99
100 100 100
102 102 102
103 103 103
105 105 105
106 106 106
106 106 106
105 105 105
104 104 104
103 103 103
101 101 101
100 100 100
99 99 99
99 99 99
98 98 98
98 98 98
97 97 97
98 98 98
98 98 98
98 98 98
99 99 99
100 100 100
101 101 101
102 102 102
103 103 103
103 103 103
104 104 104
105 105 105
105 105 105
106 106 106
105 105 105
104 104 104
103 103 103
102 102 102
102 102 102
101 101 101
101 101 101
100 100 100
100 100 100
99 99 99
99 99 99
98 98 98
98 98 98
96 96 96
92 92 92
93 93 93
92 92 92
93 93 93
95 95 95
95 95 95
93 93 93
93 93 93
92 92 92
91 91 91
92 92 92
91 91 91
91 91 91
95 95 95
98 98 98
99 99 99
98 98 98
98 98 98
98 98 98
99 99 99
100 100 100
100 100 100
101 101 101
102 102 102
102 102 102
103 103 103
104 104 104
104 104 104
103 103 103
101 101 101
100 100 100
98 98 98
98 98 98
98 98 98
97 97 97
97 97 97
97 97 97
97 97 97
97 97 97
97 97 97
98 98 98
98 98 98
100 100 100
100 100 100
102 102 102
102 102 102
104 104 104
105 105 105
105 105 105
105 105 105
104 104 104
104 104 104
103 103 103
102 102 102
102 102 102
101 101 101
101 101 101
100 100 100
99 99 99
99 99 99
98 98 98
99 99 99
99 99 99
96 96 96
92 92 92
92 92 92
93 93 93
94 94 94
95 95 95
95 95 95
93 93 93
93 93 93
92 92 92
92 92 92
92 92 92
91 91 91
92 92 92
94 94 94
96 96 96
98 98 98
98 98 98
98 98 98
98 98 98
99 99 99
100 100 100
100 100 100
100 100 100
101 101 101
100 100 100
101 101 101
102 102 102
102 102 102
101 101 101
101 101 101
99 99 99
97 97 97
97 97 97
96 96 96
95 95 95
95 95 95
96 96 96
95 95 95
95 95 95
96 96 96
96 96 96
97 97 97
98 98 98
99 99 99
101 101 101
102 102 102
104 104 104
104 104 104
104 104 104
104 104 104
103 103 103
103 103 103
102 102 102
102 102 102
102 102 102
101 101 101
100 100 100
100 100 100
100 100 100
99 99 99
98 98 98
99 99 99
99 99 99
96 96 96
92 92 92
92 92 92
93 93 93
94 94 94
95 95 95
95 95 95
93 93 93
93 93 93
92 92 92
92 92 92
92 92 92
91 91 91
92 92 92
94 94 94
95 95 95
97 97 97
98 98 98
99 99 99
98 98 98
98 98 98
99 99 99
99 99 99
99 99 99
99 99 99
99 99 99
99 99 99
100 100 100
100 100 100
100 100 100
100 100 100
98 98 98
97 97 97
97 97 97
97 97 97
96 96 96
96 96 96
96 96 96
95 95 95
95 95 95
96 96 96
97 97 97
98 98 98
99 99 99
100 100 100
101 101 101
102 102 102
103 103 103
104 104 104
103 103 103
103 103 103
102 102 102
102 102 102
101 101 101
102 102 102
101 101 101
101 101 101
100 100 100
100 100 100
99 99 99
99 99 99
99 99 99
99 99 99
99 99 99
97 97 97
92 92 92
93 93 93
93 93 93
95 95 95
95 95 95
95 95 95
93 93 93
92 92 92
92 92 92
92 92 92
92 92 92
91 91 91
92 92 92
93 93 93
95 95 95
97 97 97
99 99 99
99 99 99
99 99 99
99 99 99
99 99 99
98 98 98
98 98 98
99 99 99
98 98 98
99 99 99
99 99 99
99 99 99
99 99 99
99 99 99
98 98 98
97 97 97
97 97 97
97 97 97
98 98 98
97 97 97
97 97 97
97 97 97
97 97 97
98 98 98
99 99 99
99 99 99
100 100 100
101 101 101
101 101 101
102 102 102
103 103 103
103 103 103
102 102 102
102 102 102
101 101 101
101 101 101
101 101 101
101 101 101
101 101 101
100 100 100
100 100 100
99 99 99
99 99 99
99 99 99
99 99 99
100 100 100
99 99 99
97 97 97
93 93 93
93 93 93
94 94 94
95 95 95
96 96 96
95 95 95
93 93 93
93 93 93
92 92 92
93 93 93
92 92 92
91 91 91
91 91 91
92 92 92
95 95 95
98 98 98
100 100 100
99 99 99
99 99 99
99 99 99
99 99 99
98 98 98
98 98 98
98 98 98
98 98 98
99 99 99
99 99 99
99 99 99
98 98 98
98 98 98
98 98 98
97 97 97
97 97 97
97 97 97
98 98 98
99 99 99
98 98 98
98 98 98
98 98 98
99 99 99
100 100 100
101 101 101
101 101 101
101 101 101
101 101 101
102 102 102
102 102 102
102 102 102
102 102 102
102 102 102
102 102 102
101 101 101
101 101 101
100 100 100
100 100 100
100 100 100
100 100 100
99 99 99
99 99 99
99 99 99
100 100 100
100 100 100
99 99 99
97 97 97
93 93 93
94 94 94
94 94 94
96 96 96
96 96 96
95 95 95
93 93 93
93 93 93
92 92 92
92 92 92
92 92 92
90 90 90
90 90 90
91 91 91
95 95 95
98 98 98
100 100 100
100 100 100
99 99 99
98 98 98
99 99 99
98 98 98
97 97 97
97 97 97
98 98 98
98 98 98
99 99 99
99 99 99
99 99 99
99 99 99
98 98 98
97 97 97
98 98 98
98 98 98
99 99 99
99 99 99
99 99 99
99 99 99
99 99 99
100 100 100
101 101 101
101 101 101
101 101 101
101 101 101
101 101 101
102 102 102
102 102 102
102 102 102
102 102 102
102 102 102
101 101 101
101 101 101
101 101 101
100 100 100
100 100 100
100 100 100
100 100 100
99 99 99
99 99 99
100 100 100
100 100 100
100 100 100
99 99 99
98 98 98
94 94 94
94 94 94
95 95 95
96 96 96
96 96 96
96 96 96
93 93 93
93 93 93
92 92 92
92 92 92
92 92 92
90 90 90
90 90 90
91 91 91
96 96 96
99 99 99
100 100 100
100 100 100
99 99 99
99 99 99
98 98 98
98 98 98
97 97 97
97 97 97
97 97 97
98 98 98
98 98 98
99 99 99
99 99 99
99 99 99
98 98 98
97 97 97
98 98 98
98 98 98
98 98 98
99 99 99
99 99 99
99 99 99
99 99 99
99 99 99
100 100 100
101 101 101
101 101 101
101 101 101
101 101 101
102 102 102
102 102 102
102 102 102
102 102 102
102 102 102
101 101 101
101 101 101
100 100 100
100 100 100
100 100 100
100 100 100
100 100 100
100 100 100
100 100 100
100 100 100
100 100 100
100 100 100
99 99 99
98 98 98
95 95 95
94 94 94
95 95 95
96 96 96
96 96 96
95 95 95
93 93 93
92 92 92
91 91 91
91 91 91
90 90 90
90 90 90
90 90 90
92 92 92
95 95 95
99 99 99
100 100 100
100 100 100
99 99 99
99 99 99
98 98 98
97 97 97
97 97 97
97 97 97
96 96 96
97 97 97
97 97 97
99 99 99
99 99 99
99 99 99
99 99 99
99 99 99
99 99 99
98 98 98
98 98 98
98 98 98
98 98 98
99 99 99
99 99 99
99 99 99
100 100 100
100 100 100
101 101 101
101 101 101
101 101 101
101 101 101
102 102 102
102 102 102
102 102 102
101 101 101
101 101 101
100 100 100
99 99 99
99 99 99
99 99 99
100 100 100
100 100 100
100 100 100
100 100 100
100 100 100
100 100 100
101 101 101
100 100 100
99 99 99
95 95 95
94 94 94
95 95 95
96 96 96
96 96 96
95 95 95
91 91 91
90 90 90
89 89 89
90 90 90
90 90 90
90 90 90
90 90 90
92 92 92
95 95 95
99 99 99
100 100 100
100 100 100
100 100 100
99 99 99
98 98 98
97 97 97
97 97 97
96 96 96
96 96 96
96 96 96
97 97 97
98 98 98
99 99 99
99 99 99
99 99 99
99 99 99
99 99 99
99 99 99
99 99 99
99 99 99
99 99 99
99 99 99
99 99 99
99 99 99
100 100 100
100 100 100
101 101 101
101 101 101
101 101 101
101 101 101
102 102 102
101 101 101
101 101 101
101 101 101
100 100 100
99 99 99
99 99 99
99 99 99
100 100 100
100 100 100
100 100 100
100 100 100
100 100 100
100 100 100
101 101 101
101 101 101
100 100 100
99 99 99
96 96 96
95 95 95
95 95 95
96 96 96
96 96 96
95 95 95
90 90 90
89 89 89
89 89 89
89 89 89
90 90 90
90 90 90
91 91 91
92 92 92
95 95 95
99 99 99
101 101 101
101 101 101
100 100 100
99 99 99
98 98 98
97 97 97
97 97 97
96 96 96
96 96 96
96 96 96
96 96 96
97 97 97
98 98 98
99 99 99
99 99 99
99 99 99
99 99 99
99 99 99
99 99 99
99 99 99
99 99 99
99 99 99
99 99 99
99 99 99
100 100 100
100 100 100
100 100 100
100 100 100
100 100 100
100 100 100
101 101 101
100 100 100
100 100 100
100 100 100
99 99 99
99 99 99
98 98 98
99 99 99
100 100 100
100 100 100
100 100 100
100 100 100
101 101 101
101 101 101
101 101 101
102 102 102
100 100 100
100 100 100
97 97 97
95 95 95
95 95 95
96 96 96
96 96 96
95 95 95
89 89 89
89 89 89
89 89 89
89 89 89
90 90 90
90 90 90
91 91 91
93 93 93
96 96 96
100 100 100
101 101 101
101 101 101
100 100 100
99 99 99
98 98 98
97 97 97
97 97 97
96 96 96
96 96 96
95 95 95
96 96 96
96 96 96
96 96 96
97 97 97
97 97 97
97 97 97
97 97 97
97 97 97
97 97 97
97 97 97
98 98 98
98 98 98
98 98 98
98 98 98
98 98 98
99 99 99
99 99 99
99 99 99
99 99 99
100 100 100
100 100 100
99 99 99
99 99 99
99 99 99
98 98 98
98 98 98
99 99 99
99 99 99
100 100 100
100 100 100
99 99 99
99 99 99
101 101 101
102 102 102
102 102 102
102 102 102
101 101 101
101 101 101
97 97 97
95 95 95
95 95 95
95 95 95
95 95 95
95 95 95
89 89 89
88 88 88
89 89 89
89 89 89
90 90 90
90 90 90
91 91 91
93 93 93
97 97 97
101 101 101
102 102 102
101 101 101
100 100 100
99 99 99
98 98 98
97 97 97
97 97 97
96 96 96
95 95 95
95 95 95
95 95 95
95 95 95
95 95 95
95 95 95
95 95 95
95 95 95
95 95 95
95 95 95
96 96 96
96 96 96
97 97 97
97 97 97
97 97 97
97 97 97
98 98 98
98 98 98
98 98 98
99 99 99
98 98 98
98 98 98
98 98 98
98 98 98
98 98 98
98 98 98
98 98 98
98 98 98
98 98 98
99 99 99
100 100 100
99 99 99
100 100 100
100 100 100
101 101 101
102 102 102
102 102 102
103 103 103
102 102 102
101 101 101
98 98 98
96 96 96
95 95 95
95 95 95
95 95 95
95 95 95
88 88 88
88 88 88
89 89 89
89 89 89
89 89 89
90 90 90
91 91 91
93 93 93
98 98 98
103 103 103
103 103 103
101 101 101
100 100 100
99 99 99
98 98 98
97 97 97
97 97 97
96 96 96
95 95 95
95 95 95
95 95 95
95 95 95
95 95 95
94 94 94
94 94 94
94 94 94
94 94 94
94 94 94
94 94 94
95 95 95
96 96 96
96 96 96
96 96 96
96 96 96
96 96 96
97 97 97
97 97 97
97 97 97
97 97 97
97 97 97
97 97 97
97 97 97
97 97 97
97 97 97
97 97 97
97 97 97
98 98 98
99 99 99
99 99 99
99 99 99
100 100 100
101 101 101
101 101 101
102 102 102
103 103 103
103 103 103
102 102 102
102 102 102
99 99 99
96 96 96
96 96 96
96 96 96
95 95 95
95 95 95
88 88 88
88 88 88
88 88 88
89 89 89
89 89 89
89 89 89
90 90 90
94 94 94
99 99 99
103 103 103
102 102 102
101 101 101
99 99 99
98 98 98
97 97 97
96 96 96
96 96 96
96 96 96
95 95 95
94 94 94
95 95 95
94 94 94
94 94 94
94 94 94
93 93 93
93 93 93
93 93 93
94 94 94
94 94 94
94 94 94
95 95 95
95 95 95
95 95 95
95 95 95
95 95 95
95 95 95
95 95 95
96 96 96
96 96 96
96 96 96
96 96 96
96 96 96
96 96 96
96 96 96
96 96 96
97 97 97
98 98 98
99 99 99
99 99 99
99 99 99
100 100 100
101 101 101
102 102 102
102 102 102
103 103 103
103 103 103
103 103 103
102 102 102
99 99 99
96 96 96
96 96 96
96 96 96
95 95 95
95 95 95
