P3
64 64
255
86 86 86
80 80 80
76 76 76
77 77 77
81 81 81
86 86 86
91 91 91
96 96 96
100 100 100
102 102 102
102 102 102
103 103 103
103 103 103
102 102 102
102 102 102
102 102 102
101 101 101
101 101 101
101 101 101
102 102 102
102 102 102
102 102 102
102 102 102
103 103 103
103 103 103
104 104 104
104 104 104
105 105 105
106 106 106
107 107 107
108 108 108
107 107 107
107 107 107
108 108 108
109 109 109
109 109 109
111 111 111
112 112 112
113 113 113
113 113 113
114 114 114
115 115 115
117 117 117
117 117 117
118 118 118
119 119 119
119 119 119
121 121 121
121 121 121
121 121 121
122 122 122
122 122 122
122 122 122
122 122 122
121 121 121
120 120 120
121 121 121
121 121 121
121 121 121
119 119 119
117 117 117
118 118 118
122 122 122
118 118 118
84 84 84
77 77 77
74 74 74
76 76 76
81 81 81
85 85 85
90 90 90
96 96 96
100 100 100
102 102 102
102 102 102
103 103 103
102 102 102
102 102 102
101 101 101
101 101 101
101 101 101
101 101 101
101 101 101
101 101 101
101 101 101
102 102 102
102 102 102
103 103 103
103 103 103
103 103 103
104 104 104
105 105 105
105 105 105
107 107 107
107 107 107
107 107 107
107 107 107
107 107 107
108 108 108
108 108 108
109 109 109
111 111 111
111 111 111
112 112 112
113 113 113
113 113 113
114 114 114
116 116 116
117 117 117
117 117 117
118 118 118
119 119 119
120 120 120
121 121 121
121 121 121
121 121 121
121 121 121
121 121 121
121 121 121
120 120 120
120 120 120
121 121 121
120 120 120
119 119 119
118 118 118
118 118 118
122 122 122
119 119 119
81 81 81
75 75 75
72 72 72
76 76 76
81 81 81
85 85 85
90 90 90
96 96 96
101 101 101
102 102 102
102 102 102
102 102 102
102 102 102
101 101 101
101 101 101
100 100 100
101 101 101
100 100 100
100 100 100
101 101 101
101 101 101
102 102 102
102 102 102
102 102 102
102 102 102
103 103 103
104 104 104
105 105 105
105 105 105
106 106 106
106 106 106
106 106 106
106 106 106
107 107 107
107 107 107
107 107 107
108 108 108
109 109 109
109 109 109
110 110 110
110 110 110
112 112 112
113 113 113
114 114 114
115 115 115
116 116 116
117 117 117
118 118 118
118 118 118
119 119 119
120 120 120
121 121 121
121 121 121
121 121 121
121 121 121
120 120 120
120 120 120
121 121 121
120 120 120
119 119 119
117 117 117
117 117 117
120 120 120
120 120 120
78 78 78
73 73 73
72 72 72
76 76 76
81 81 81
84 84 84
89 89 89
97 97 97
101 101 101
101 101 101
101 101 101
101 101 101
101 101 101
101 101 101
101 101 101
100 100 100
100 100 100
100 100 100
100 100 100
100 100 100
101 101 101
101 101 101
102 102 102
102 102 102
103 103 103
103 103 103
104 104 104
105 105 105
105 105 105
105 105 105
106 106 106
105 105 105
106 106 106
105 105 105
106 106 106
106 106 106
107 107 107
108 108 108
108 108 108
108 108 108
109 109 109
110 110 110
111 111 111
112 112 112
113 113 113
114 114 114
114 114 114
115 115 115
116 116 116
116 116 116
118 118 118
119 119 119
119 119 119
120 120 120
120 120 120
120 120 120
119 119 119
120 120 120
119 119 119
118 118 118
117 117 117
117 117 117
119 119 119
119 119 119
76 76 76
71 71 71
71 71 71
75 75 75
81 81 81
84 84 84
90 90 90
97 97 97
100 100 100
101 101 101
101 101 101
101 101 101
101 101 101
101 101 101
100 100 100
99 99 99
100 100 100
99 99 99
99 99 99
100 100 100
101 101 101
101 101 101
102 102 102
102 102 102
103 103 103
104 104 104
104 104 104
104 104 104
105 105 105
106 106 106
106 106 106
105 105 105
105 105 105
105 105 105
105 105 105
106 106 106
107 107 107
107 107 107
107 107 107
107 107 107
107 107 107
107 107 107
108 108 108
109 109 109
110 110 110
110 110 110
111 111 111
112 112 112
113 113 113
114 114 114
115 115 115
116 116 116
117 117 117
118 118 118
118 118 118
118 118 118
119 119 119
119 119 119
119 119 119
118 118 118
118 118 118
117 117 117
118 118 118
119 119 119
74 74 74
70 70 70
70 70 70
75 75 75
81 81 81
84 84 84
90 90 90
97 97 97
100 100 100
100 100 100
100 100 100
102 102 102
101 101 101
100 100 100
100 100 100
100 100 100
99 99 99
99 99 99
100 100 100
101 101 101
102 102 102
103 103 103
103 103 103
104 104 104
105 105 105
105 105 105
105 105 105
105 105 105
106 106 106
106 106 106
106 106 106
105 105 105
105 105 105
105 105 105
105 105 105
106 106 106
106 106 106
106 106 106
106 106 106
106 106 106
106 106 106
105 105 105
105 105 105
107 107 107
108 108 108
108 108 108
108 108 108
109 109 109
111 111 111
112 112 112
112 112 112
113 113 113
114 114 114
116 116 116
117 117 117
116 116 116
116 116 116
117 117 117
118 118 118
118 118 118
117 117 117
116 116 116
118 118 118
119 119 119
73 73 73
70 70 70
70 70 70
75 75 75
81 81 81
85 85 85
90 90 90
97 97 97
99 99 99
99 99 99
100 100 100
101 101 101
101 101 101
101 101 101
101 101 101
101 101 101
101 101 101
102 102 102
103 103 103
104 104 104
105 105 105
105 105 105
106 106 106
106 106 106
107 107 107
107 107 107
107 107 107
107 107 107
107 107 107
107 107 107
107 107 107
106 106 106
105 105 105
105 105 105
105 105 105
106 106 106
106 106 106
106 106 106
106 106 106
107 107 107
106 106 106
106 106 106
105 105 105
106 106 106
107 107 107
108 108 108
108 108 108
109 109 109
110 110 110
110 110 110
111 111 111
112 112 112
110 110 110
110 110 110
114 114 114
115 115 115
114 114 114
113 113 113
115 115 115
116 116 116
115 115 115
115 115 115
117 117 117
120 120 120
73 73 73
70 70 70
71 71 71
76 76 76
83 83 83
86 86 86
91 91 91
97 97 97
98 98 98
98 98 98
100 100 100
102 102 102
104 104 104
104 104 104
104 104 104
103 103 103
104 104 104
105 105 105
106 106 106
106 106 106
107 107 107
108 108 108
108 108 108
109 109 109
109 109 109
110 110 110
111 111 111
111 111 111
110 110 110
109 109 109
108 108 108
106 106 106
105 105 105
105 105 105
106 106 106
106 106 106
106 106 106
106 106 106
107 107 107
108 108 108
108 108 108
108 108 108
108 108 108
107 107 107
108 108 108
110 110 110
110 110 110
110 110 110
111 111 111
111 111 111
111 111 111
113 113 113
111 111 111
108 108 108
110 110 110
114 114 114
114 114 114
111 111 111
110 110 110
112 112 112
113 113 113
114 114 114
116 116 116
118 118 118
74 74 74
71 71 71
72 72 72
77 77 77
84 84 84
87 87 87
93 93 93
98 98 98
99 99 99
99 99 99
100 100 100
103 103 103
105 105 105
105 105 105
105 105 105
105 105 105
107 107 107
107 107 107
107 107 107
107 107 107
108 108 108
109 109 109
110 110 110
110 110 110
111 111 111
111 111 111
112 112 112
113 113 113
112 112 112
111 111 111
109 109 109
107 107 107
106 106 106
106 106 106
106 106 106
106 106 106
106 106 106
107 107 107
109 109 109
109 109 109
109 109 109
109 109 109
110 110 110
108 108 108
108 108 108
109 109 109
109 109 109
111 111 111
111 111 111
111 111 111
111 111 111
114 114 114
114 114 114
112 112 112
109 109 109
111 111 111
113 113 113
112 112 112
109 109 109
108 108 108
110 110 110
111 111 111
114 114 114
117 117 117
75 75 75
70 70 70
72 72 72
77 77 77
85 85 85
90 90 90
95 95 95
98 98 98
99 99 99
99 99 99
100 100 100
103 103 103
105 105 105
105 105 105
106 106 106
107 107 107
108 108 108
109 109 109
108 108 108
108 108 108
109 109 109
109 109 109
110 110 110
110 110 110
111 111 111
111 111 111
112 112 112
114 114 114
112 112 112
111 111 111
109 109 109
107 107 107
106 106 106
107 107 107
106 106 106
105 105 105
104 104 104
105 105 105
110 110 110
109 109 109
108 108 108
110 110 110
109 109 109
106 106 106
107 107 107
107 107 107
108 108 108
114 114 114
114 114 114
113 113 113
112 112 112
112 112 112
113 113 113
113 113 113
111 111 111
108 108 108
109 109 109
112 112 112
112 112 112
109 109 109
108 108 108
108 108 108
111 111 111
115 115 115
75 75 75
71 71 71
73 73 73
77 77 77
86 86 86
92 92 92
97 97 97
99 99 99
98 98 98
98 98 98
99 99 99
102 102 102
103 103 103
104 104 104
105 105 105
107 107 107
108 108 108
108 108 108
108 108 108
108 108 108
109 109 109
109 109 109
109 109 109
110 110 110
110 110 110
111 111 111
113 113 113
113 113 113
111 111 111
109 109 109
106 106 106
106 106 106
105 105 105
107 107 107
106 106 106
104 104 104
101 101 101
103 103 103
106 106 106
107 107 107
106 106 106
105 105 105
105 105 105
104 104 104
105 105 105
107 107 107
108 108 108
111 111 111
114 114 114
115 115 115
115 115 115
115 115 115
115 115 115
114 114 114
113 113 113
113 113 113
112 112 112
110 110 110
114 114 114
111 111 111
107 107 107
107 107 107
109 109 109
113 113 113
75 75 75
71 71 71
73 73 73
77 77 77
87 87 87
94 94 94
98 98 98
98 98 98
96 96 96
96 96 96
97 97 97
100 100 100
102 102 102
105 105 105
106 106 106
108 108 108
110 110 110
110 110 110
110 110 110
110 110 110
111 111 111
110 110 110
110 110 110
111 111 111
112 112 112
110 110 110
111 111 111
115 115 115
112 112 112
107 107 107
106 106 106
107 107 107
107 107 107
107 107 107
106 106 106
103 103 103
100 100 100
101 101 101
101 101 101
102 102 102
101 101 101
102 102 102
103 103 103
105 105 105
107 107 107
107 107 107
108 108 108
109 109 109
114 114 114
115 115 115
115 115 115
114 114 114
113 113 113
112 112 112
110 110 110
110 110 110
112 112 112
115 115 115
113 113 113
112 112 112
109 109 109
107 107 107
107 107 107
112 112 112
73 73 73
71 71 71
75 75 75
79 79 79
89 89 89
95 95 95
96 96 96
97 97 97
94 94 94
95 95 95
98 98 98
102 102 102
106 106 106
108 108 108
108 108 108
109 109 109
109 109 109
108 108 108
108 108 108
108 108 108
109 109 109
110 110 110
110 110 110
111 111 111
114 114 114
114 114 114
113 113 113
113 113 113
111 111 111
108 108 108
107 107 107
108 108 108
108 108 108
108 108 108
106 106 106
103 103 103
100 100 100
99 99 99
98 98 98
100 100 100
103 103 103
104 104 104
107 107 107
108 108 108
109 109 109
109 109 109
111 111 111
114 114 114
117 117 117
117 117 117
115 115 115
114 114 114
111 111 111
107 107 107
103 103 103
103 103 103
105 105 105
111 111 111
113 113 113
112 112 112
109 109 109
108 108 108
108 108 108
110 110 110
71 71 71
71 71 71
75 75 75
79 79 79
88 88 88
93 93 93
95 95 95
97 97 97
98 98 98
99 99 99
100 100 100
101 101 101
101 101 101
102 102 102
103 103 103
106 106 106
108 108 108
109 109 109
110 110 110
109 109 109
110 110 110
110 110 110
110 110 110
110 110 110
112 112 112
114 114 114
114 114 114
112 112 112
110 110 110
108 108 108
108 108 108
108 108 108
108 108 108
107 107 107
106 106 106
103 103 103
100 100 100
99 99 99
99 99 99
102 102 102
105 105 105
106 106 106
107 107 107
108 108 108
108 108 108
110 110 110
113 113 113
115 115 115
120 120 120
119 119 119
117 117 117
115 115 115
114 114 114
108 108 108
103 103 103
100 100 100
102 102 102
106 106 106
111 111 111
112 112 112
110 110 110
109 109 109
109 109 109
110 110 110
70 70 70
75 75 75
79 79 79
81 81 81
87 87 87
91 91 91
95 95 95
99 99 99
101 101 101
101 101 101
96 96 96
92 92 92
95 95 95
99 99 99
103 103 103
108 108 108
111 111 111
112 112 112
114 114 114
113 113 113
111 111 111
108 108 108
107 107 107
105 105 105
106 106 106
110 110 110
112 112 112
112 112 112
110 110 110
110 110 110
109 109 109
109 109 109
108 108 108
107 107 107
104 104 104
101 101 101
100 100 100
99 99 99
101 101 101
104 104 104
106 106 106
106 106 106
107 107 107
108 108 108
107 107 107
108 108 108
111 111 111
112 112 112
116 116 116
116 116 116
114 114 114
113 113 113
109 109 109
107 107 107
104 104 104
101 101 101
101 101 101
104 104 104
109 109 109
111 111 111
111 111 111
110 110 110
108 108 108
109 109 109
71 71 71
75 75 75
77 77 77
79 79 79
86 86 86
90 90 90
97 97 97
102 102 102
103 103 103
102 102 102
95 95 95
92 92 92
97 97 97
103 103 103
105 105 105
108 108 108
107 107 107
109 109 109
110 110 110
111 111 111
110 110 110
108 108 108
108 108 108
108 108 108
106 106 106
107 107 107
110 110 110
111 111 111
110 110 110
110 110 110
108 108 108
108 108 108
107 107 107
106 106 106
102 102 102
100 100 100
99 99 99
99 99 99
103 103 103
108 108 108
107 107 107
110 110 110
111 111 111
111 111 111
109 109 109
105 105 105
102 102 102
105 105 105
108 108 108
111 111 111
110 110 110
110 110 110
107 107 107
104 104 104
105 105 105
104 104 104
103 103 103
103 103 103
107 107 107
110 110 110
113 113 113
112 112 112
107 107 107
108 108 108
72 72 72
74 74 74
75 75 75
81 81 81
88 88 88
92 92 92
97 97 97
103 103 103
105 105 105
104 104 104
101 101 101
101 101 101
104 104 104
107 107 107
107 107 107
109 109 109
106 106 106
106 106 106
107 107 107
108 108 108
108 108 108
109 109 109
110 110 110
112 112 112
111 111 111
109 109 109
109 109 109
109 109 109
109 109 109
109 109 109
108 108 108
108 108 108
108 108 108
106 106 106
103 103 103
101 101 101
99 99 99
100 100 100
104 104 104
111 111 111
110 110 110
114 114 114
115 115 115
115 115 115
114 114 114
111 111 111
106 106 106
106 106 106
105 105 105
107 107 107
104 104 104
106 106 106
109 109 109
108 108 108
106 106 106
107 107 107
107 107 107
105 105 105
105 105 105
107 107 107
110 110 110
111 111 111
110 110 110
107 107 107
74 74 74
75 75 75
76 76 76
82 82 82
88 88 88
92 92 92
96 96 96
102 102 102
103 103 103
105 105 105
109 109 109
110 110 110
111 111 111
110 110 110
108 108 108
110 110 110
107 107 107
105 105 105
107 107 107
108 108 108
109 109 109
110 110 110
110 110 110
112 112 112
111 111 111
109 109 109
108 108 108
107 107 107
109 109 109
108 108 108
107 107 107
107 107 107
107 107 107
105 105 105
103 103 103
101 101 101
100 100 100
102 102 102
106 106 106
110 110 110
111 111 111
114 114 114
114 114 114
116 116 116
114 114 114
112 112 112
110 110 110
108 108 108
109 109 109
110 110 110
107 107 107
106 106 106
107 107 107
111 111 111
113 113 113
112 112 112
112 112 112
109 109 109
105 105 105
106 106 106
107 107 107
109 109 109
107 107 107
107 107 107
76 76 76
75 75 75
75 75 75
82 82 82
90 90 90
92 92 92
96 96 96
103 103 103
105 105 105
107 107 107
110 110 110
111 111 111
110 110 110
109 109 109
108 108 108
107 107 107
106 106 106
106 106 106
107 107 107
108 108 108
111 111 111
112 112 112
112 112 112
112 112 112
112 112 112
111 111 111
104 104 104
105 105 105
108 108 108
108 108 108
107 107 107
106 106 106
106 106 106
105 105 105
102 102 102
101 101 101
100 100 100
103 103 103
107 107 107
109 109 109
112 112 112
113 113 113
114 114 114
116 116 116
115 115 115
113 113 113
112 112 112
110 110 110
111 111 111
112 112 112
110 110 110
108 108 108
107 107 107
111 111 111
115 115 115
115 115 115
113 113 113
110 110 110
107 107 107
107 107 107
108 108 108
110 110 110
108 108 108
106 106 106
80 80 80
76 76 76
73 73 73
78 78 78
88 88 88
93 93 93
98 98 98
103 103 103
106 106 106
107 107 107
107 107 107
107 107 107
108 108 108
107 107 107
106 106 106
106 106 106
106 106 106
108 108 108
110 110 110
111 111 111
113 113 113
113 113 113
113 113 113
111 111 111
111 111 111
108 108 108
101 101 101
104 104 104
107 107 107
108 108 108
107 107 107
105 105 105
104 104 104
104 104 104
103 103 103
101 101 101
100 100 100
102 102 102
108 108 108
110 110 110
112 112 112
114 114 114
114 114 114
115 115 115
116 116 116
115 115 115
113 113 113
112 112 112
112 112 112
112 112 112
111 111 111
109 109 109
108 108 108
111 111 111
114 114 114
115 115 115
113 113 113
111 111 111
108 108 108
106 106 106
108 108 108
108 108 108
108 108 108
107 107 107
87 87 87
80 80 80
75 75 75
78 78 78
87 87 87
91 91 91
96 96 96
102 102 102
104 104 104
104 104 104
104 104 104
106 106 106
107 107 107
106 106 106
105 105 105
106 106 106
107 107 107
108 108 108
110 110 110
111 111 111
112 112 112
113 113 113
113 113 113
112 112 112
109 109 109
103 103 103
100 100 100
104 104 104
107 107 107
107 107 107
106 106 106
104 104 104
103 103 103
103 103 103
103 103 103
101 101 101
100 100 100
102 102 102
107 107 107
110 110 110
112 112 112
114 114 114
115 115 115
115 115 115
116 116 116
116 116 116
116 116 116
114 114 114
113 113 113
112 112 112
111 111 111
110 110 110
108 108 108
109 109 109
113 113 113
113 113 113
112 112 112
110 110 110
109 109 109
107 107 107
108 108 108
108 108 108
108 108 108
108 108 108
93 93 93
82 82 82
77 77 77
80 80 80
87 87 87
92 92 92
96 96 96
102 102 102
103 103 103
103 103 103
103 103 103
105 105 105
106 106 106
108 108 108
107 107 107
107 107 107
108 108 108
108 108 108
110 110 110
110 110 110
111 111 111
111 111 111
111 111 111
110 110 110
105 105 105
100 100 100
100 100 100
104 104 104
107 107 107
106 106 106
104 104 104
104 104 104
104 104 104
103 103 103
102 102 102
102 102 102
102 102 102
102 102 102
105 105 105
108 108 108
110 110 110
112 112 112
114 114 114
115 115 115
116 116 116
116 116 116
116 116 116
115 115 115
114 114 114
113 113 113
112 112 112
111 111 111
109 109 109
109 109 109
110 110 110
112 112 112
111 111 111
111 111 111
110 110 110
108 108 108
108 108 108
107 107 107
107 107 107
109 109 109
94 94 94
82 82 82
78 78 78
81 81 81
88 88 88
93 93 93
97 97 97
102 102 102
103 103 103
103 103 103
101 101 101
102 102 102
103 103 103
104 104 104
105 105 105
105 105 105
105 105 105
106 106 106
107 107 107
108 108 108
108 108 108
108 108 108
107 107 107
105 105 105
101 101 101
99 99 99
101 101 101
104 104 104
105 105 105
104 104 104
104 104 104
104 104 104
105 105 105
104 104 104
102 102 102
102 102 102
101 101 101
102 102 102
104 104 104
106 106 106
108 108 108
110 110 110
112 112 112
112 112 112
113 113 113
114 114 114
114 114 114
114 114 114
114 114 114
113 113 113
112 112 112
111 111 111
110 110 110
110 110 110
111 111 111
111 111 111
112 112 112
112 112 112
111 111 111
109 109 109
109 109 109
108 108 108
108 108 108
110 110 110
93 93 93
82 82 82
79 79 79
83 83 83
89 89 89
93 93 93
96 96 96
100 100 100
102 102 102
102 102 102
102 102 102
101 101 101
100 100 100
101 101 101
102 102 102
102 102 102
102 102 102
103 103 103
104 104 104
105 105 105
105 105 105
104 104 104
103 103 103
102 102 102
101 101 101
99 99 99
101 101 101
103 103 103
104 104 104
103 103 103
104 104 104
105 105 105
105 105 105
104 104 104
103 103 103
102 102 102
102 102 102
102 102 102
104 104 104
106 106 106
106 106 106
108 108 108
110 110 110
110 110 110
111 111 111
111 111 111
112 112 112
111 111 111
111 111 111
112 112 112
112 112 112
111 111 111
111 111 111
110 110 110
110 110 110
111 111 111
111 111 111
112 112 112
110 110 110
109 109 109
109 109 109
108 108 108
108 108 108
110 110 110
91 91 91
82 82 82
81 81 81
84 84 84
90 90 90
94 94 94
96 96 96
99 99 99
101 101 101
102 102 102
102 102 102
102 102 102
100 100 100
100 100 100
100 100 100
100 100 100
101 101 101
102 102 102
102 102 102
103 103 103
102 102 102
100 100 100
102 102 102
101 101 101
100 100 100
99 99 99
101 101 101
104 104 104
104 104 104
102 102 102
103 103 103
105 105 105
104 104 104
103 103 103
103 103 103
103 103 103
101 101 101
101 101 101
104 104 104
107 107 107
106 106 106
107 107 107
109 109 109
109 109 109
109 109 109
108 108 108
109 109 109
109 109 109
109 109 109
109 109 109
109 109 109
109 109 109
109 109 109
109 109 109
109 109 109
110 110 110
111 111 111
111 111 111
109 109 109
109 109 109
109 109 109
108 108 108
107 107 107
108 108 108
90 90 90
82 82 82
82 82 82
86 86 86
90 90 90
94 94 94
97 97 97
99 99 99
101 101 101
100 100 100
101 101 101
101 101 101
101 101 101
100 100 100
100 100 100
100 100 100
101 101 101
100 100 100
100 100 100
100 100 100
100 100 100
101 101 101
102 102 102
100 100 100
100 100 100
100 100 100
102 102 102
104 104 104
104 104 104
103 103 103
103 103 103
104 104 104
105 105 105
104 104 104
103 103 103
102 102 102
101 101 101
100 100 100
102 102 102
106 106 106
107 107 107
107 107 107
108 108 108
108 108 108
108 108 108
108 108 108
108 108 108
109 109 109
109 109 109
108 108 108
108 108 108
108 108 108
108 108 108
108 108 108
109 109 109
109 109 109
109 109 109
109 109 109
108 108 108
108 108 108
108 108 108
107 107 107
107 107 107
108 108 108
88 88 88
83 83 83
83 83 83
85 85 85
90 90 90
94 94 94
97 97 97
99 99 99
100 100 100
101 101 101
101 101 101
101 101 101
101 101 101
100 100 100
100 100 100
100 100 100
100 100 100
100 100 100
100 100 100
100 100 100
100 100 100
100 100 100
100 100 100
99 99 99
100 100 100
101 101 101
103 103 103
105 105 105
105 105 105
104 104 104
104 104 104
105 105 105
106 106 106
106 106 106
104 104 104
104 104 104
103 103 103
99 99 99
101 101 101
104 104 104
105 105 105
108 108 108
109 109 109
107 107 107
107 107 107
106 106 106
107 107 107
108 108 108
108 108 108
107 107 107
107 107 107
107 107 107
106 106 106
106 106 106
106 106 106
107 107 107
108 108 108
109 109 109
109 109 109
108 108 108
107 107 107
106 106 106
106 106 106
109 109 109
86 86 86
82 82 82
82 82 82
86 86 86
91 91 91
94 94 94
96 96 96
98 98 98
99 99 99
100 100 100
101 101 101
101 101 101
101 101 101
101 101 101
101 101 101
100 100 100
100 100 100
100 100 100
100 100 100
100 100 100
99 99 99
99 99 99
98 98 98
99 99 99
100 100 100
101 101 101
103 103 103
106 106 106
106 106 106
106 106 106
106 106 106
106 106 106
107 107 107
107 107 107
106 106 106
104 104 104
103 103 103
101 101 101
102 102 102
104 104 104
104 104 104
106 106 106
109 109 109
108 108 108
108 108 108
106 106 106
106 106 106
106 106 106
106 106 106
105 105 105
106 106 106
105 105 105
105 105 105
105 105 105
105 105 105
107 107 107
108 108 108
109 109 109
108 108 108
107 107 107
107 107 107
105 105 105
105 105 105
109 109 109
85 85 85
83 83 83
84 84 84
88 88 88
91 91 91
93 93 93
96 96 96
97 97 97
98 98 98
99 99 99
99 99 99
99 99 99
99 99 99
99 99 99
99 99 99
99 99 99
99 99 99
99 99 99
99 99 99
99 99 99
99 99 99
98 98 98
97 97 97
99 99 99
100 100 100
100 100 100
102 102 102
106 106 106
109 109 109
110 110 110
109 109 109
107 107 107
107 107 107
108 108 108
107 107 107
104 104 104
103 103 103
103 103 103
106 106 106
107 107 107
104 104 104
104 104 104
107 107 107
107 107 107
107 107 107
106 106 106
106 106 106
106 106 106
105 105 105
105 105 105
105 105 105
105 105 105
105 105 105
105 105 105
105 105 105
106 106 106
107 107 107
108 108 108
107 107 107
107 107 107
106 106 106
104 104 104
105 105 105
109 109 109
84 84 84
83 83 83
86 86 86
90 90 90
91 91 91
92 92 92
95 95 95
97 97 97
97 97 97
98 98 98
98 98 98
98 98 98
97 97 97
98 98 98
98 98 98
98 98 98
99 99 99
99 99 99
99 99 99
98 98 98
97 97 97
97 97 97
97 97 97
99 99 99
99 99 99
98 98 98
100 100 100
106 106 106
113 113 113
115 115 115
112 112 112
107 107 107
106 106 106
107 107 107
106 106 106
103 103 103
101 101 101
104 104 104
108 108 108
111 111 111
108 108 108
106 106 106
105 105 105
105 105 105
106 106 106
105 105 105
105 105 105
105 105 105
104 104 104
104 104 104
104 104 104
103 103 103
104 104 104
104 104 104
104 104 104
105 105 105
106 106 106
107 107 107
107 107 107
106 106 106
106 106 106
103 103 103
105 105 105
108 108 108
83 83 83
84 84 84
86 86 86
89 89 89
89 89 89
90 90 90
93 93 93
96 96 96
97 97 97
97 97 97
97 97 97
98 98 98
98 98 98
98 98 98
99 99 99
99 99 99
99 99 99
99 99 99
99 99 99
97 97 97
95 95 95
96 96 96
95 95 95
97 97 97
97 97 97
96 96 96
97 97 97
105 105 105
115 115 115
116 116 116
110 110 110
105 105 105
103 103 103
105 105 105
105 105 105
100 100 100
99 99 99
103 103 103
108 108 108
111 111 111
110 110 110
108 108 108
107 107 107
104 104 104
104 104 104
104 104 104
104 104 104
104 104 104
104 104 104
104 104 104
103 103 103
103 103 103
102 102 102
103 103 103
104 104 104
104 104 104
106 106 106
106 106 106
106 106 106
106 106 106
105 105 105
103 103 103
105 105 105
107 107 107
81 81 81
83 83 83
86 86 86
89 89 89
88 88 88
89 89 89
91 91 91
95 95 95
96 96 96
97 97 97
97 97 97
98 98 98
98 98 98
99 99 99
99 99 99
100 100 100
100 100 100
99 99 99
98 98 98
96 96 96
95 95 95
94 94 94
94 94 94
95 95 95
96 96 96
95 95 95
96 96 96
105 105 105
113 113 113
113 113 113
106 106 106
100 100 100
101 101 101
104 104 104
104 104 104
100 100 100
97 97 97
100 100 100
105 105 105
109 109 109
108 108 108
108 108 108
107 107 107
105 105 105
104 104 104
104 104 104
104 104 104
104 104 104
103 103 103
103 103 103
102 102 102
103 103 103
102 102 102
103 103 103
103 103 103
104 104 104
105 105 105
105 105 105
105 105 105
104 104 104
104 104 104
102 102 102
104 104 104
106 106 106
77 77 77
80 80 80
85 85 85
88 88 88
88 88 88
88 88 88
90 90 90
93 93 93
95 95 95
96 96 96
97 97 97
98 98 98
99 99 99
99 99 99
99 99 99
100 100 100
100 100 100
99 99 99
97 97 97
95 95 95
95 95 95
96 96 96
94 94 94
94 94 94
94 94 94
94 94 94
97 97 97
103 103 103
107 107 107
105 105 105
98 98 98
95 95 95
98 98 98
103 103 103
103 103 103
98 98 98
96 96 96
97 97 97
101 101 101
105 105 105
107 107 107
107 107 107
108 108 108
106 106 106
105 105 105
105 105 105
104 104 104
104 104 104
104 104 104
104 104 104
104 104 104
104 104 104
103 103 103
104 104 104
104 104 104
104 104 104
104 104 104
104 104 104
103 103 103
103 103 103
103 103 103
101 101 101
100 100 100
105 105 105
77 77 77
78 78 78
82 82 82
86 86 86
87 87 87
88 88 88
89 89 89
92 92 92
93 93 93
95 95 95
97 97 97
98 98 98
99 99 99
99 99 99
100 100 100
100 100 100
99 99 99
97 97 97
96 96 96
95 95 95
96 96 96
99 99 99
97 97 97
95 95 95
94 94 94
94 94 94
96 96 96
100 100 100
101 101 101
97 97 97
93 93 93
93 93 93
98 98 98
102 102 102
102 102 102
100 100 100
97 97 97
97 97 97
100 100 100
104 104 104
106 106 106
106 106 106
108 108 108
108 108 108
107 107 107
106 106 106
104 104 104
103 103 103
104 104 104
104 104 104
104 104 104
104 104 104
104 104 104
104 104 104
104 104 104
103 103 103
103 103 103
103 103 103
102 102 102
102 102 102
102 102 102
100 100 100
100 100 100
105 105 105
77 77 77
76 76 76
80 80 80
85 85 85
86 86 86
87 87 87
88 88 88
90 90 90
92 92 92
94 94 94
97 97 97
98 98 98
99 99 99
99 99 99
100 100 100
100 100 100
98 98 98
97 97 97
96 96 96
97 97 97
98 98 98
101 101 101
99 99 99
96 96 96
94 94 94
94 94 94
95 95 95
97 97 97
96 96 96
92 92 92
92 92 92
94 94 94
99 99 99
102 102 102
103 103 103
102 102 102
100 100 100
100 100 100
102 102 102
104 104 104
104 104 104
106 106 106
108 108 108
109 109 109
108 108 108
106 106 106
105 105 105
103 103 103
103 103 103
104 104 104
105 105 105
105 105 105
104 104 104
104 104 104
104 104 104
104 104 104
102 102 102
102 102 102
101 101 101
101 101 101
101 101 101
100 100 100
101 101 101
106 106 106
79 79 79
76 76 76
78 78 78
84 84 84
86 86 86
87 87 87
88 88 88
89 89 89
91 91 91
94 94 94
96 96 96
98 98 98
99 99 99
99 99 99
99 99 99
99 99 99
97 97 97
97 97 97
97 97 97
99 99 99
99 99 99
99 99 99
98 98 98
97 97 97
94 94 94
92 92 92
94 94 94
93 93 93
92 92 92
91 91 91
93 93 93
97 97 97
101 101 101
103 103 103
103 103 103
102 102 102
102 102 102
100 100 100
101 101 101
100 100 100
101 101 101
103 103 103
107 107 107
109 109 109
108 108 108
106 106 106
106 106 106
105 105 105
103 103 103
102 102 102
103 103 103
104 104 104
105 105 105
104 104 104
103 103 103
103 103 103
101 101 101
100 100 100
99 99 99
99 99 99
99 99 99
100 100 100
101 101 101
107 107 107
81 81 81
77 77 77
78 78 78
83 83 83
86 86 86
88 88 88
88 88 88
90 90 90
91 91 91
93 93 93
96 96 96
97 97 97
98 98 98
99 99 99
98 98 98
98 98 98
97 97 97
97 97 97
99 99 99
100 100 100
99 99 99
98 98 98
96 96 96
96 96 96
94 94 94
94 94 94
93 93 93
90 90 90
89 89 89
91 91 91
94 94 94
98 98 98
101 101 101
102 102 102
101 101 101
101 101 101
100 100 100
100 100 100
101 101 101
101 101 101
101 101 101
103 103 103
107 107 107
109 109 109
108 108 108
106 106 106
106 106 106
106 106 106
104 104 104
102 102 102
102 102 102
102 102 102
103 103 103
103 103 103
102 102 102
102 102 102
100 100 100
99 99 99
98 98 98
98 98 98
98 98 98
99 99 99
101 101 101
106 106 106
82 82 82
78 78 78
79 79 79
83 83 83
86 86 86
88 88 88
89 89 89
90 90 90
91 91 91
93 93 93
96 96 96
97 97 97
98 98 98
98 98 98
98 98 98
98 98 98
97 97 97
98 98 98
99 99 99
99 99 99
98 98 98
98 98 98
95 95 95
93 93 93
93 93 93
93 93 93
93 93 93
90 90 90
88 88 88
91 91 91
93 93 93
95 95 95
98 98 98
98 98 98
98 98 98
99 99 99
98 98 98
98 98 98
100 100 100
100 100 100
101 101 101
103 103 103
106 106 106
108 108 108
108 108 108
106 106 106
105 105 105
106 106 106
105 105 105
103 103 103
102 102 102
102 102 102
102 102 102
102 102 102
101 101 101
100 100 100
99 99 99
98 98 98
97 97 97
97 97 97
98 98 98
99 99 99
102 102 102
107 107 107
83 83 83
79 79 79
79 79 79
82 82 82
86 86 86
87 87 87
90 90 90
91 91 91
91 91 91
93 93 93
96 96 96
97 97 97
98 98 98
98 98 98
98 98 98
98 98 98
97 97 97
97 97 97
98 98 98
98 98 98
99 99 99
97 97 97
95 95 95
92 92 92
91 91 91
92 92 92
92 92 92
91 91 91
89 89 89
91 91 91
93 93 93
93 93 93
95 95 95
95 95 95
96 96 96
99 99 99
98 98 98
98 98 98
99 99 99
100 100 100
101 101 101
103 103 103
105 105 105
107 107 107
108 108 108
107 107 107
106 106 106
106 106 106
106 106 106
105 105 105
103 103 103
103 103 103
102 102 102
100 100 100
100 100 100
100 100 100
98 98 98
98 98 98
97 97 97
96 96 96
97 97 97
99 99 99
102 102 102
105 105 105
82 82 82
80 80 80
79 79 79
81 81 81
86 86 86
88 88 88
89 89 89
91 91 91
92 92 92
93 93 93
96 96 96
98 98 98
98 98 98
99 99 99
100 100 100
98 98 98
95 95 95
96 96 96
96 96 96
97 97 97
96 96 96
96 96 96
93 93 93
92 92 92
92 92 92
91 91 91
92 92 92
91 91 91
90 90 90
92 92 92
93 93 93
92 92 92
95 95 95
97 97 97
98 98 98
99 99 99
99 99 99
100 100 100
100 100 100
101 101 101
101 101 101
102 102 102
104 104 104
105 105 105
106 106 106
105 105 105
107 107 107
106 106 106
106 106 106
105 105 105
104 104 104
103 103 103
104 104 104
102 102 102
99 99 99
98 98 98
97 97 97
98 98 98
96 96 96
96 96 96
96 96 96
97 97 97
100 100 100
101 101 101
81 81 81
80 80 80
79 79 79
81 81 81
86 86 86
89 89 89
88 88 88
90 90 90
92 92 92
92 92 92
95 95 95
97 97 97
99 99 99
102 102 102
102 102 102
97 97 97
95 95 95
95 95 95
94 94 94
93 93 93
93 93 93
93 93 93
91 91 91
92 92 92
91 91 91
91 91 91
92 92 92
91 91 91
92 92 92
94 94 94
94 94 94
94 94 94
97 97 97
98 98 98
99 99 99
99 99 99
100 100 100
101 101 101
101 101 101
102 102 102
101 101 101
102 102 102
103 103 103
104 104 104
103 103 103
103 103 103
105 105 105
106 106 106
106 106 106
106 106 106
104 104 104
104 104 104
104 104 104
103 103 103
100 100 100
98 98 98
98 98 98
98 98 98
96 96 96
95 95 95
94 94 94
96 96 96
98 98 98
98 98 98
80 80 80
79 79 79
79 79 79
80 80 80
84 84 84
88 88 88
88 88 88
89 89 89
92 92 92
91 91 91
94 94 94
97 97 97
100 100 100
104 104 104
103 103 103
97 97 97
94 94 94
94 94 94
92 92 92
90 90 90
90 90 90
91 91 91
91 91 91
91 91 91
91 91 91
90 90 90
92 92 92
92 92 92
93 93 93
96 96 96
98 98 98
100 100 100
100 100 100
100 100 100
100 100 100
102 102 102
101 101 101
102 102 102
102 102 102
102 102 102
102 102 102
101 101 101
102 102 102
102 102 102
101 101 101
102 102 102
102 102 102
104 104 104
104 104 104
106 106 106
106 106 106
104 104 104
103 103 103
103 103 103
100 100 100
99 99 99
98 98 98
98 98 98
95 95 95
94 94 94
92 92 92
96 96 96
97 97 97
96 96 96
79 79 79
79 79 79
79 79 79
80 80 80
82 82 82
86 86 86
89 89 89
88 88 88
91 91 91
92 92 92
92 92 92
97 97 97
101 101 101
103 103 103
103 103 103
99 99 99
95 95 95
94 94 94
92 92 92
90 90 90
89 89 89
91 91 91
92 92 92
93 93 93
94 94 94
94 94 94
94 94 94
95 95 95
98 98 98
100 100 100
102 102 102
103 103 103
103 103 103
102 102 102
103 103 103
103 103 103
102 102 102
102 102 102
102 102 102
102 102 102
102 102 102
101 101 101
102 102 102
101 101 101
100 100 100
100 100 100
101 101 101
103 103 103
103 103 103
104 104 104
106 106 106
105 105 105
103 103 103
102 102 102
101 101 101
99 99 99
98 98 98
97 97 97
94 94 94
92 92 92
92 92 92
96 96 96
95 95 95
94 94 94
80 80 80
80 80 80
80 80 80
80 80 80
81 81 81
83 83 83
88 88 88
87 87 87
89 89 89
92 92 92
92 92 92
96 96 96
100 100 100
101 101 101
102 102 102
101 101 101
98 98 98
96 96 96
96 96 96
94 94 94
93 93 93
94 94 94
93 93 93
92 92 92
94 94 94
96 96 96
97 97 97
98 98 98
102 102 102
104 104 104
106 106 106
106 106 106
107 107 107
107 107 107
107 107 107
105 105 105
105 105 105
105 105 105
105 105 105
104 104 104
103 103 103
102 102 102
102 102 102
101 101 101
99 99 99
99 99 99
101 101 101
102 102 102
103 103 103
104 104 104
106 106 106
106 106 106
105 105 105
103 103 103
102 102 102
99 99 99
97 97 97
96 96 96
94 94 94
92 92 92
93 93 93
96 96 96
95 95 95
93 93 93
81 81 81
81 81 81
81 81 81
80 80 80
79 79 79
82 82 82
87 87 87
88 88 88
87 87 87
90 90 90
92 92 92
93 93 93
98 98 98
100 100 100
101 101 101
103 103 103
103 103 103
101 101 101
100 100 100
98 98 98
97 97 97
97 97 97
97 97 97
94 94 94
92 92 92
92 92 92
94 94 94
96 96 96
99 99 99
102 102 102
104 104 104
104 104 104
105 105 105
106 106 106
106 106 106
105 105 105
105 105 105
105 105 105
103 103 103
102 102 102
102 102 102
103 103 103
103 103 103
102 102 102
101 101 101
101 101 101
102 102 102
102 102 102
103 103 103
105 105 105
106 106 106
106 106 106
106 106 106
104 104 104
102 102 102
99 99 99
97 97 97
95 95 95
94 94 94
92 92 92
94 94 94
96 96 96
95 95 95
94 94 94
84 84 84
83 83 83
82 82 82
80 80 80
79 79 79
81 81 81
85 85 85
89 89 89
86 86 86
88 88 88
91 91 91
92 92 92
95 95 95
98 98 98
100 100 100
104 104 104
106 106 106
106 106 106
104 104 104
103 103 103
100 100 100
100 100 100
100 100 100
100 100 100
97 97 97
94 94 94
94 94 94
95 95 95
96 96 96
98 98 98
100 100 100
101 101 101
102 102 102
103 103 103
104 104 104
104 104 104
104 104 104
104 104 104
104 104 104
103 103 103
104 104 104
105 105 105
106 106 106
106 106 106
105 105 105
104 104 104
104 104 104
103 103 103
105 105 105
105 105 105
105 105 105
106 106 106
106 106 106
104 104 104
101 101 101
98 98 98
95 95 95
94 94 94
92 92 92
92 92 92
94 94 94
96 96 96
95 95 95
96 96 96
89 89 89
87 87 87
84 84 84
80 80 80
79 79 79
79 79 79
83 83 83
89 89 89
87 87 87
86 86 86
90 90 90
92 92 92
92 92 92
95 95 95
98 98 98
102 102 102
105 105 105
106 106 106
105 105 105
105 105 105
105 105 105
105 105 105
102 102 102
101 101 101
100 100 100
97 97 97
97 97 97
99 99 99
100 100 100
102 102 102
103 103 103
105 105 105
104 104 104
105 105 105
106 106 106
107 107 107
107 107 107
108 108 108
108 108 108
107 107 107
107 107 107
108 108 108
109 109 109
110 110 110
109 109 109
108 108 108
107 107 107
105 105 105
105 105 105
104 104 104
105 105 105
106 106 106
106 106 106
103 103 103
100 100 100
97 97 97
95 95 95
94 94 94
92 92 92
92 92 92
94 94 94
97 97 97
97 97 97
100 100 100
93 93 93
90 90 90
86 86 86
81 81 81
79 79 79
78 78 78
81 81 81
88 88 88
88 88 88
85 85 85
88 88 88
90 90 90
92 92 92
93 93 93
97 97 97
101 101 101
104 104 104
105 105 105
104 104 104
105 105 105
105 105 105
105 105 105
104 104 104
102 102 102
100 100 100
99 99 99
99 99 99
101 101 101
102 102 102
104 104 104
106 106 106
108 108 108
108 108 108
108 108 108
109 109 109
110 110 110
111 111 111
111 111 111
112 112 112
111 111 111
110 110 110
111 111 111
110 110 110
110 110 110
109 109 109
108 108 108
107 107 107
105 105 105
105 105 105
103 103 103
105 105 105
105 105 105
105 105 105
102 102 102
99 99 99
97 97 97
95 95 95
93 93 93
91 91 91
92 92 92
93 93 93
98 98 98
101 101 101
105 105 105
96 96 96
94 94 94
89 89 89
83 83 83
80 80 80
78 78 78
80 80 80
86 86 86
88 88 88
87 87 87
86 86 86
89 89 89
91 91 91
92 92 92
96 96 96
100 100 100
102 102 102
104 104 104
104 104 104
105 105 105
104 104 104
103 103 103
104 104 104
102 102 102
101 101 101
100 100 100
101 101 101
103 103 103
105 105 105
106 106 106
107 107 107
108 108 108
109 109 109
110 110 110
111 111 111
112 112 112
112 112 112
112 112 112
113 113 113
111 111 111
110 110 110
110 110 110
110 110 110
110 110 110
109 109 109
110 110 110
108 108 108
106 106 106
105 105 105
105 105 105
105 105 105
105 105 105
103 103 103
99 99 99
98 98 98
97 97 97
96 96 96
93 93 93
90 90 90
92 92 92
94 94 94
100 100 100
105 105 105
106 106 106
98 98 98
97 97 97
91 91 91
85 85 85
81 81 81
79 79 79
80 80 80
86 86 86
88 88 88
88 88 88
86 86 86
86 86 86
89 89 89
92 92 92
94 94 94
97 97 97
100 100 100
103 103 103
103 103 103
105 105 105
104 104 104
102 102 102
102 102 102
101 101 101
100 100 100
99 99 99
100 100 100
102 102 102
103 103 103
104 104 104
105 105 105
107 107 107
108 108 108
108 108 108
108 108 108
108 108 108
109 109 109
110 110 110
111 111 111
109 109 109
108 108 108
109 109 109
109 109 109
111 111 111
110 110 110
109 109 109
108 108 108
106 106 106
106 106 106
105 105 105
105 105 105
104 104 104
101 101 101
99 99 99
97 97 97
97 97 97
97 97 97
94 94 94
90 90 90
92 92 92
96 96 96
104 104 104
107 107 107
106 106 106
97 97 97
97 97 97
94 94 94
86 86 86
83 83 83
80 80 80
80 80 80
85 85 85
87 87 87
88 88 88
87 87 87
86 86 86
86 86 86
91 91 91
94 94 94
94 94 94
98 98 98
100 100 100
101 101 101
102 102 102
102 102 102
102 102 102
102 102 102
100 100 100
98 98 98
97 97 97
98 98 98
100 100 100
100 100 100
101 101 101
102 102 102
103 103 103
104 104 104
104 104 104
104 104 104
105 105 105
106 106 106
106 106 106
106 106 106
106 106 106
107 107 107
108 108 108
109 109 109
110 110 110
109 109 109
108 108 108
107 107 107
107 107 107
106 106 106
106 106 106
104 104 104
102 102 102
99 99 99
98 98 98
97 97 97
98 98 98
98 98 98
94 94 94
89 89 89
93 93 93
100 100 100
107 107 107
109 109 109
106 106 106
98 98 98
97 97 97
96 96 96
89 89 89
84 84 84
80 80 80
82 82 82
85 85 85
86 86 86
87 87 87
88 88 88
88 88 88
86 86 86
88 88 88
93 93 93
94 94 94
94 94 94
97 97 97
99 99 99
99 99 99
100 100 100
99 99 99
100 100 100
101 101 101
98 98 98
96 96 96
98 98 98
98 98 98
98 98 98
99 99 99
100 100 100
100 100 100
101 101 101
102 102 102
102 102 102
103 103 103
104 104 104
104 104 104
105 105 105
106 106 106
108 108 108
109 109 109
109 109 109
109 109 109
108 108 108
107 107 107
106 106 106
107 107 107
106 106 106
105 105 105
103 103 103
101 101 101
100 100 100
98 98 98
98 98 98
99 99 99
98 98 98
94 94 94
90 90 90
95 95 95
103 103 103
109 109 109
110 110 110
106 106 106
98 98 98
97 97 97
96 96 96
92 92 92
86 86 86
81 81 81
84 84 84
85 85 85
85 85 85
87 87 87
88 88 88
89 89 89
87 87 87
86 86 86
89 89 89
92 92 92
92 92 92
94 94 94
97 97 97
97 97 97
98 98 98
98 98 98
99 99 99
100 100 100
99 99 99
98 98 98
100 100 100
101 101 101
100 100 100
100 100 100
101 101 101
100 100 100
101 101 101
102 102 102
103 103 103
105 105 105
105 105 105
105 105 105
105 105 105
106 106 106
109 109 109
109 109 109
108 108 108
107 107 107
107 107 107
106 106 106
106 106 106
106 106 106
106 106 106
104 104 104
102 102 102
100 100 100
99 99 99
99 99 99
99 99 99
99 99 99
98 98 98
94 94 94
91 91 91
98 98 98
107 107 107
110 110 110
110 110 110
108 108 108
98 98 98
97 97 97
96 96 96
95 95 95
88 88 88
83 83 83
84 84 84
84 84 84
85 85 85
87 87 87
89 89 89
89 89 89
89 89 89
87 87 87
87 87 87
89 89 89
91 91 91
93 93 93
95 95 95
97 97 97
97 97 97
98 98 98
98 98 98
99 99 99
98 98 98
99 99 99
100 100 100
102 102 102
103 103 103
103 103 103
103 103 103
102 102 102
103 103 103
104 104 104
105 105 105
106 106 106
106 106 106
106 106 106
106 106 106
107 107 107
108 108 108
107 107 107
106 106 106
107 107 107
106 106 106
106 106 106
106 106 106
105 105 105
104 104 104
102 102 102
101 101 101
99 99 99
100 100 100
99 99 99
100 100 100
99 99 99
97 97 97
93 93 93
93 93 93
102 102 102
109 109 109
110 110 110
110 110 110
109 109 109
99 99 99
97 97 97
97 97 97
96 96 96
90 90 90
85 85 85
84 84 84
83 83 83
85 85 85
88 88 88
90 90 90
88 88 88
89 89 89
89 89 89
87 87 87
87 87 87
89 89 89
92 92 92
94 94 94
97 97 97
98 98 98
98 98 98
99 99 99
100 100 100
100 100 100
100 100 100
100 100 100
102 102 102
104 104 104
105 105 105
104 104 104
104 104 104
104 104 104
106 106 106
107 107 107
107 107 107
107 107 107
106 106 106
107 107 107
107 107 107
107 107 107
107 107 107
106 106 106
107 107 107
107 107 107
106 106 106
106 106 106
104 104 104
103 103 103
102 102 102
101 101 101
99 99 99
100 100 100
99 99 99
100 100 100
99 99 99
97 97 97
93 93 93
95 95 95
106 106 106
110 110 110
111 111 111
111 111 111
109 109 109
98 98 98
97 97 97
97 97 97
96 96 96
92 92 92
85 85 85
83 83 83
83 83 83
85 85 85
88 88 88
89 89 89
89 89 89
87 87 87
88 88 88
87 87 87
87 87 87
88 88 88
90 90 90
93 93 93
97 97 97
99 99 99
99 99 99
101 101 101
101 101 101
101 101 101
100 100 100
101 101 101
103 103 103
104 104 104
105 105 105
106 106 106
105 105 105
105 105 105
106 106 106
107 107 107
107 107 107
106 106 106
106 106 106
108 108 108
108 108 108
108 108 108
108 108 108
108 108 108
108 108 108
107 107 107
107 107 107
105 105 105
104 104 104
103 103 103
102 102 102
101 101 101
100 100 100
100 100 100
99 99 99
99 99 99
98 98 98
96 96 96
96 96 96
98 98 98
108 108 108
110 110 110
112 112 112
111 111 111
110 110 110
98 98 98
97 97 97
97 97 97
96 96 96
94 94 94
87 87 87
83 83 83
82 82 82
87 87 87
88 88 88
89 89 89
89 89 89
88 88 88
87 87 87
87 87 87
86 86 86
88 88 88
89 89 89
90 90 90
94 94 94
98 98 98
100 100 100
101 101 101
102 102 102
101 101 101
101 101 101
102 102 102
103 103 103
103 103 103
104 104 104
104 104 104
105 105 105
104 104 104
105 105 105
106 106 106
107 107 107
107 107 107
107 107 107
108 108 108
108 108 108
109 109 109
109 109 109
109 109 109
109 109 109
107 107 107
106 106 106
104 104 104
103 103 103
102 102 102
101 101 101
101 101 101
101 101 101
100 100 100
99 99 99
97 97 97
97 97 97
97 97 97
97 97 97
100 100 100
108 108 108
111 111 111
112 112 112
111 111 111
110 110 110
98 98 98
96 96 96
95 95 95
94 94 94
93 93 93
89 89 89
84 84 84
83 83 83
86 86 86
89 89 89
89 89 89
89 89 89
88 88 88
87 87 87
87 87 87
86 86 86
88 88 88
88 88 88
88 88 88
91 91 91
96 96 96
99 99 99
101 101 101
102 102 102
101 101 101
103 103 103
104 104 104
103 103 103
103 103 103
103 103 103
104 104 104
105 105 105
103 103 103
103 103 103
105 105 105
107 107 107
107 107 107
108 108 108
108 108 108
108 108 108
110 110 110
110 110 110
109 109 109
108 108 108
106 106 106
104 104 104
103 103 103
102 102 102
102 102 102
102 102 102
101 101 101
100 100 100
99 99 99
97 97 97
97 97 97
98 98 98
98 98 98
99 99 99
101 101 101
108 108 108
111 111 111
112 112 112
111 111 111
109 109 109
95 95 95
93 93 93
93 93 93
93 93 93
93 93 93
92 92 92
86 86 86
83 83 83
85 85 85
88 88 88
89 89 89
89 89 89
88 88 88
88 88 88
87 87 87
86 86 86
88 88 88
87 87 87
87 87 87
89 89 89
93 93 93
96 96 96
100 100 100
102 102 102
101 101 101
103 103 103
105 105 105
105 105 105
104 104 104
104 104 104
105 105 105
105 105 105
104 104 104
104 104 104
105 105 105
106 106 106
107 107 107
107 107 107
107 107 107
108 108 108
109 109 109
108 108 108
108 108 108
107 107 107
105 105 105
103 103 103
102 102 102
102 102 102
102 102 102
102 102 102
101 101 101
99 99 99
98 98 98
97 97 97
98 98 98
99 99 99
100 100 100
101 101 101
102 102 102
108 108 108
111 111 111
112 112 112
111 111 111
109 109 109
94 94 94
92 92 92
92 92 92
93 93 93
94 94 94
93 93 93
88 88 88
84 84 84
85 85 85
87 87 87
89 89 89
90 90 90
89 89 89
88 88 88
88 88 88
87 87 87
87 87 87
88 88 88
87 87 87
87 87 87
90 90 90
93 93 93
97 97 97
99 99 99
101 101 101
102 102 102
103 103 103
104 104 104
104 104 104
103 103 103
104 104 104
104 104 104
103 103 103
104 104 104
105 105 105
106 106 106
106 106 106
107 107 107
107 107 107
107 107 107
108 108 108
107 107 107
106 106 106
105 105 105
104 104 104
102 102 102
101 101 101
101 101 101
102 102 102
102 102 102
99 99 99
97 97 97
98 98 98
98 98 98
99 99 99
101 101 101
101 101 101
102 102 102
102 102 102
107 107 107
111 111 111
111 111 111
110 110 110
108 108 108
92 92 92
92 92 92
92 92 92
93 93 93
94 94 94
95 95 95
89 89 89
84 84 84
84 84 84
88 88 88
90 90 90
90 90 90
89 89 89
89 89 89
89 89 89
88 88 88
88 88 88
87 87 87
87 87 87
87 87 87
88 88 88
90 90 90
94 94 94
96 96 96
98 98 98
99 99 99
100 100 100
101 101 101
101 101 101
101 101 101
102 102 102
102 102 102
102 102 102
102 102 102
103 103 103
104 104 104
104 104 104
105 105 105
106 106 106
106 106 106
106 106 106
105 105 105
105 105 105
104 104 104
102 102 102
101 101 101
101 101 101
100 100 100
100 100 100
100 100 100
97 97 97
97 97 97
98 98 98
100 100 100
101 101 101
103 103 103
103 103 103
103 103 103
102 102 102
107 107 107
111 111 111
109 109 109
109 109 109
108 108 108
91 91 91
92 92 92
92 92 92
93 93 93
94 94 94
95 95 95
89 89 89
84 84 84
85 85 85
89 89 89
90 90 90
90 90 90
88 88 88
88 88 88
90 90 90
88 88 88
90 90 90
87 87 87
86 86 86
87 87 87
88 88 88
88 88 88
91 91 91
94 94 94
95 95 95
96 96 96
97 97 97
98 98 98
100 100 100
101 101 101
101 101 101
101 101 101
101 101 101
102 102 102
103 103 103
104 104 104
104 104 104
105 105 105
105 105 105
105 105 105
104 104 104
104 104 104
103 103 103
102 102 102
101 101 101
100 100 100
100 100 100
101 101 101
100 100 100
98 98 98
97 97 97
98 98 98
98 98 98
102 102 102
103 103 103
104 104 104
104 104 104
104 104 104
103 103 103
107 107 107
112 112 112
110 110 110
107 107 107
107 107 107
91 91 91
92 92 92
92 92 92
92 92 92
93 93 93
94 94 94
89 89 89
84 84 84
86 86 86
91 91 91
91 91 91
89 89 89
87 87 87
89 89 89
90 90 90
89 89 89
91 91 91
88 88 88
85 85 85
86 86 86
89 89 89
89 89 89
89 89 89
91 91 91
93 93 93
94 94 94
96 96 96
97 97 97
98 98 98
100 100 100
101 101 101
101 101 101
101 101 101
102 102 102
103 103 103
102 102 102
103 103 103
104 104 104
103 103 103
103 103 103
102 102 102
102 102 102
101 101 101
100 100 100
100 100 100
99 99 99
99 99 99
100 100 100
98 98 98
97 97 97
98 98 98
100 100 100
101 101 101
103 103 103
104 104 104
105 105 105
105 105 105
104 104 104
103 103 103
106 106 106
112 112 112
111 111 111
107 107 107
106 106 106
90 90 90
91 91 91
91 91 91
91 91 91
92 92 92
94 94 94
89 89 89
85 85 85
87 87 87
91 91 91
91 91 91
90 90 90
88 88 88
88 88 88
89 89 89
88 88 88
91 91 91
90 90 90
87 87 87
85 85 85
89 89 89
90 90 90
88 88 88
89 89 89
91 91 91
93 93 93
95 95 95
96 96 96
98 98 98
99 99 99
101 101 101
101 101 101
101 101 101
101 101 101
101 101 101
101 101 101
101 101 101
102 102 102
101 101 101
101 101 101
100 100 100
99 99 99
99 99 99
99 99 99
97 97 97
97 97 97
97 97 97
98 98 98
97 97 97
97 97 97
99 99 99
102 102 102
103 103 103
104 104 104
105 105 105
106 106 106
105 105 105
104 104 104
103 103 103
105 105 105
111 111 111
110 110 110
107 107 107
106 106 106
