P3
64 64
255
136 136 136
144 144 144
152 152 152
152 152 152
153 153 153
153 153 153
152 152 152
146 146 146
141 141 141
139 139 139
138 138 138
137 137 137
136 136 136
135 135 135
134 134 134
134 134 134
133 133 133
132 132 132
131 131 131
130 130 130
130 130 130
129 129 129
129 129 129
128 128 128
128 128 128
128 128 128
128 128 128
127 127 127
127 127 127
127 127 127
128 128 128
128 128 128
129 129 129
128 128 128
129 129 129
129 129 129
129 129 129
129 129 129
130 130 130
130 130 130
129 129 129
130 130 130
130 130 130
130 130 130
131 131 131
131 131 131
131 131 131
131 131 131
131 131 131
132 132 132
131 131 131
131 131 131
131 131 131
132 132 132
132 132 132
132 132 132
131 131 131
131 131 131
131 131 131
131 131 131
132 132 132
130 130 130
121 121 121
116 116 116
138 138 138
148 148 148
154 154 154
154 154 154
153 153 153
154 154 154
152 152 152
146 146 146
141 141 141
139 139 139
138 138 138
137 137 137
136 136 136
135 135 135
135 135 135
134 134 134
134 134 134
133 133 133
132 132 132
131 131 131
131 131 131
130 130 130
130 130 130
129 129 129
129 129 129
129 129 129
128 128 128
127 127 127
127 127 127
127 127 127
127 127 127
128 128 128
129 129 129
129 129 129
129 129 129
129 129 129
129 129 129
129 129 129
130 130 130
130 130 130
130 130 130
131 131 131
131 131 131
131 131 131
131 131 131
131 131 131
131 131 131
132 132 132
131 131 131
131 131 131
131 131 131
131 131 131
132 132 132
132 132 132
133 133 133
134 134 134
133 133 133
132 132 132
133 133 133
132 132 132
132 132 132
131 131 131
123 123 123
117 117 117
140 140 140
150 150 150
156 156 156
155 155 155
154 154 154
155 155 155
152 152 152
146 146 146
141 141 141
139 139 139
138 138 138
137 137 137
136 136 136
135 135 135
135 135 135
135 135 135
134 134 134
133 133 133
133 133 133
132 132 132
131 131 131
131 131 131
130 130 130
130 130 130
130 130 130
129 129 129
129 129 129
128 128 128
128 128 128
128 128 128
128 128 128
128 128 128
129 129 129
129 129 129
130 130 130
130 130 130
130 130 130
130 130 130
131 131 131
132 132 132
132 132 132
131 131 131
131 131 131
131 131 131
131 131 131
131 131 131
131 131 131
132 132 132
132 132 132
131 131 131
131 131 131
131 131 131
132 132 132
133 133 133
133 133 133
134 134 134
134 134 134
133 133 133
133 133 133
133 133 133
133 133 133
132 132 132
125 125 125
118 118 118
143 143 143
152 152 152
158 158 158
157 157 157
156 156 156
156 156 156
152 152 152
145 145 145
141 141 141
139 139 139
138 138 138
137 137 137
136 136 136
136 136 136
135 135 135
135 135 135
135 135 135
134 134 134
133 133 133
132 132 132
132 132 132
132 132 132
131 131 131
130 130 130
130 130 130
129 129 129
129 129 129
129 129 129
129 129 129
129 129 129
129 129 129
129 129 129
130 130 130
130 130 130
131 131 131
131 131 131
131 131 131
131 131 131
132 132 132
133 133 133
133 133 133
133 133 133
133 133 133
132 132 132
132 132 132
132 132 132
132 132 132
132 132 132
133 133 133
133 133 133
132 132 132
132 132 132
132 132 132
132 132 132
133 133 133
134 134 134
134 134 134
134 134 134
134 134 134
133 133 133
133 133 133
132 132 132
127 127 127
120 120 120
145 145 145
154 154 154
158 158 158
158 158 158
156 156 156
156 156 156
152 152 152
145 145 145
141 141 141
139 139 139
138 138 138
137 137 137
136 136 136
136 136 136
136 136 136
136 136 136
135 135 135
135 135 135
134 134 134
133 133 133
132 132 132
132 132 132
131 131 131
130 130 130
130 130 130
129 129 129
129 129 129
129 129 129
130 130 130
129 129 129
130 130 130
130 130 130
132 132 132
132 132 132
132 132 132
131 131 131
131 131 131
132 132 132
133 133 133
134 134 134
133 133 133
133 133 133
134 134 134
133 133 133
134 134 134
134 134 134
134 134 134
134 134 134
134 134 134
134 134 134
133 133 133
133 133 133
132 132 132
131 131 131
132 132 132
133 133 133
134 134 134
134 134 134
134 134 134
134 134 134
133 133 133
133 133 133
128 128 128
120 120 120
147 147 147
155 155 155
159 159 159
159 159 159
157 157 157
155 155 155
150 150 150
144 144 144
141 141 141
140 140 140
138 138 138
136 136 136
135 135 135
135 135 135
135 135 135
135 135 135
135 135 135
134 134 134
133 133 133
132 132 132
131 131 131
130 130 130
129 129 129
128 128 128
128 128 128
128 128 128
128 128 128
129 129 129
130 130 130
130 130 130
130 130 130
131 131 131
133 133 133
133 133 133
132 132 132
131 131 131
131 131 131
132 132 132
133 133 133
133 133 133
133 133 133
134 134 134
134 134 134
133 133 133
133 133 133
133 133 133
134 134 134
134 134 134
133 133 133
133 133 133
133 133 133
133 133 133
133 133 133
131 131 131
131 131 131
133 133 133
134 134 134
134 134 134
134 134 134
133 133 133
134 134 134
133 133 133
129 129 129
122 122 122
149 149 149
155 155 155
160 160 160
159 159 159
156 156 156
155 155 155
150 150 150
144 144 144
142 142 142
140 140 140
138 138 138
135 135 135
133 133 133
132 132 132
131 131 131
131 131 131
131 131 131
130 130 130
129 129 129
127 127 127
126 126 126
126 126 126
125 125 125
125 125 125
125 125 125
125 125 125
125 125 125
127 127 127
128 128 128
129 129 129
130 130 130
132 132 132
134 134 134
133 133 133
132 132 132
130 130 130
130 130 130
131 131 131
132 132 132
131 131 131
132 132 132
131 131 131
131 131 131
131 131 131
130 130 130
130 130 130
131 131 131
130 130 130
130 130 130
130 130 130
131 131 131
131 131 131
132 132 132
132 132 132
129 129 129
130 130 130
133 133 133
135 135 135
134 134 134
134 134 134
134 134 134
134 134 134
130 130 130
122 122 122
149 149 149
156 156 156
160 160 160
159 159 159
156 156 156
154 154 154
149 149 149
143 143 143
140 140 140
138 138 138
134 134 134
131 131 131
127 127 127
126 126 126
126 126 126
126 126 126
126 126 126
124 124 124
123 123 123
122 122 122
121 121 121
120 120 120
121 121 121
121 121 121
122 122 122
122 122 122
121 121 121
123 123 123
124 124 124
125 125 125
128 128 128
131 131 131
133 133 133
133 133 133
131 131 131
130 130 130
129 129 129
129 129 129
129 129 129
127 127 127
126 126 126
125 125 125
124 124 124
124 124 124
124 124 124
123 123 123
122 122 122
123 123 123
123 123 123
123 123 123
124 124 124
125 125 125
126 126 126
128 128 128
128 128 128
126 126 126
128 128 128
134 134 134
136 136 136
135 135 135
135 135 135
135 135 135
130 130 130
122 122 122
150 150 150
157 157 157
160 160 160
160 160 160
156 156 156
153 153 153
147 147 147
140 140 140
135 135 135
133 133 133
130 130 130
126 126 126
122 122 122
122 122 122
122 122 122
121 121 121
120 120 120
119 119 119
119 119 119
119 119 119
118 118 118
117 117 117
117 117 117
118 118 118
119 119 119
119 119 119
119 119 119
119 119 119
120 120 120
122 122 122
126 126 126
131 131 131
132 132 132
132 132 132
130 130 130
129 129 129
127 127 127
126 126 126
126 126 126
123 123 123
121 121 121
121 121 121
119 119 119
118 118 118
118 118 118
118 118 118
117 117 117
121 121 121
121 121 121
120 120 120
121 121 121
121 121 121
122 122 122
121 121 121
122 122 122
123 123 123
125 125 125
128 128 128
133 133 133
135 135 135
135 135 135
136 136 136
130 130 130
123 123 123
150 150 150
158 158 158
160 160 160
160 160 160
156 156 156
152 152 152
144 144 144
136 136 136
131 131 131
129 129 129
128 128 128
125 125 125
124 124 124
123 123 123
123 123 123
121 121 121
121 121 121
118 118 118
119 119 119
119 119 119
119 119 119
118 118 118
117 117 117
119 119 119
120 120 120
120 120 120
120 120 120
119 119 119
119 119 119
121 121 121
126 126 126
130 130 130
131 131 131
130 130 130
128 128 128
127 127 127
126 126 126
124 124 124
124 124 124
123 123 123
121 121 121
121 121 121
120 120 120
118 118 118
117 117 117
116 116 116
116 116 116
123 123 123
125 125 125
125 125 125
125 125 125
125 125 125
126 126 126
125 125 125
124 124 124
124 124 124
124 124 124
125 125 125
127 127 127
132 132 132
134 134 134
136 136 136
133 133 133
124 124 124
150 150 150
157 157 157
159 159 159
161 161 161
156 156 156
148 148 148
138 138 138
132 132 132
131 131 131
131 131 131
131 131 131
130 130 130
128 128 128
127 127 127
126 126 126
124 124 124
123 123 123
120 120 120
121 121 121
121 121 121
122 122 122
121 121 121
120 120 120
123 123 123
125 125 125
125 125 125
125 125 125
122 122 122
122 122 122
125 125 125
128 128 128
130 130 130
131 131 131
129 129 129
128 128 128
128 128 128
127 127 127
125 125 125
125 125 125
125 125 125
125 125 125
125 125 125
123 123 123
120 120 120
118 118 118
117 117 117
117 117 117
121 121 121
127 127 127
129 129 129
131 131 131
132 132 132
133 133 133
133 133 133
133 133 133
131 131 131
129 129 129
125 125 125
123 123 123
128 128 128
134 134 134
136 136 136
134 134 134
125 125 125
150 150 150
156 156 156
159 159 159
161 161 161
155 155 155
144 144 144
136 136 136
134 134 134
135 135 135
137 137 137
137 137 137
135 135 135
132 132 132
129 129 129
127 127 127
126 126 126
124 124 124
122 122 122
122 122 122
122 122 122
123 123 123
122 122 122
123 123 123
126 126 126
130 130 130
131 131 131
130 130 130
131 131 131
131 131 131
131 131 131
132 132 132
132 132 132
133 133 133
131 131 131
130 130 130
130 130 130
130 130 130
130 130 130
129 129 129
128 128 128
127 127 127
125 125 125
121 121 121
119 119 119
118 118 118
118 118 118
119 119 119
123 123 123
131 131 131
133 133 133
133 133 133
133 133 133
133 133 133
134 134 134
136 136 136
135 135 135
133 133 133
128 128 128
121 121 121
126 126 126
132 132 132
135 135 135
135 135 135
127 127 127
150 150 150
156 156 156
160 160 160
161 161 161
152 152 152
141 141 141
139 139 139
139 139 139
142 142 142
143 143 143
140 140 140
136 136 136
132 132 132
129 129 129
128 128 128
128 128 128
127 127 127
124 124 124
125 125 125
124 124 124
125 125 125
123 123 123
123 123 123
126 126 126
129 129 129
132 132 132
133 133 133
133 133 133
136 136 136
134 134 134
131 131 131
132 132 132
132 132 132
132 132 132
133 133 133
133 133 133
133 133 133
132 132 132
130 130 130
127 127 127
124 124 124
120 120 120
118 118 118
118 118 118
119 119 119
121 121 121
122 122 122
127 127 127
134 134 134
134 134 134
134 134 134
134 134 134
134 134 134
134 134 134
135 135 135
132 132 132
131 131 131
129 129 129
122 122 122
125 125 125
131 131 131
134 134 134
134 134 134
129 129 129
151 151 151
155 155 155
159 159 159
159 159 159
150 150 150
144 144 144
144 144 144
144 144 144
144 144 144
142 142 142
138 138 138
136 136 136
137 137 137
138 138 138
137 137 137
134 134 134
130 130 130
127 127 127
126 126 126
126 126 126
127 127 127
126 126 126
125 125 125
125 125 125
126 126 126
127 127 127
129 129 129
132 132 132
135 135 135
134 134 134
131 131 131
131 131 131
131 131 131
131 131 131
134 134 134
133 133 133
133 133 133
133 133 133
129 129 129
124 124 124
121 121 121
120 120 120
120 120 120
121 121 121
124 124 124
124 124 124
123 123 123
124 124 124
130 130 130
133 133 133
135 135 135
136 136 136
135 135 135
133 133 133
134 134 134
132 132 132
130 130 130
129 129 129
126 126 126
126 126 126
129 129 129
133 133 133
133 133 133
130 130 130
152 152 152
158 158 158
160 160 160
156 156 156
149 149 149
147 147 147
147 147 147
145 145 145
143 143 143
139 139 139
138 138 138
146 146 146
147 147 147
142 142 142
135 135 135
130 130 130
124 124 124
125 125 125
123 123 123
122 122 122
125 125 125
126 126 126
125 125 125
124 124 124
123 123 123
120 120 120
121 121 121
130 130 130
134 134 134
133 133 133
130 130 130
130 130 130
130 130 130
131 131 131
131 131 131
131 131 131
132 132 132
133 133 133
127 127 127
123 123 123
123 123 123
125 125 125
126 126 126
126 126 126
127 127 127
126 126 126
123 123 123
122 122 122
123 123 123
129 129 129
133 133 133
134 134 134
133 133 133
132 132 132
134 134 134
133 133 133
131 131 131
131 131 131
129 129 129
127 127 127
129 129 129
131 131 131
132 132 132
130 130 130
151 151 151
155 155 155
156 156 156
153 153 153
148 148 148
148 148 148
147 147 147
143 143 143
140 140 140
137 137 137
143 143 143
150 150 150
143 143 143
134 134 134
131 131 131
129 129 129
127 127 127
126 126 126
127 127 127
126 126 126
128 128 128
127 127 127
123 123 123
122 122 122
122 122 122
120 120 120
119 119 119
126 126 126
133 133 133
131 131 131
129 129 129
128 128 128
127 127 127
128 128 128
130 130 130
130 130 130
132 132 132
132 132 132
127 127 127
124 124 124
125 125 125
126 126 126
126 126 126
125 125 125
127 127 127
129 129 129
130 130 130
127 127 127
124 124 124
124 124 124
129 129 129
131 131 131
132 132 132
132 132 132
133 133 133
132 132 132
132 132 132
132 132 132
132 132 132
130 130 130
131 131 131
134 134 134
132 132 132
131 131 131
149 149 149
151 151 151
154 154 154
153 153 153
148 148 148
146 146 146
146 146 146
142 142 142
139 139 139
138 138 138
140 140 140
138 138 138
131 131 131
130 130 130
130 130 130
126 126 126
128 128 128
127 127 127
129 129 129
129 129 129
129 129 129
127 127 127
123 123 123
119 119 119
119 119 119
120 120 120
122 122 122
126 126 126
132 132 132
130 130 130
129 129 129
128 128 128
128 128 128
128 128 128
130 130 130
132 132 132
132 132 132
131 131 131
128 128 128
127 127 127
126 126 126
122 122 122
123 123 123
121 121 121
124 124 124
127 127 127
127 127 127
124 124 124
125 125 125
126 126 126
132 132 132
129 129 129
126 126 126
129 129 129
132 132 132
131 131 131
131 131 131
132 132 132
132 132 132
130 130 130
129 129 129
130 130 130
133 133 133
132 132 132
146 146 146
149 149 149
151 151 151
151 151 151
147 147 147
143 143 143
144 144 144
141 141 141
140 140 140
138 138 138
132 132 132
129 129 129
127 127 127
129 129 129
130 130 130
126 126 126
128 128 128
131 131 131
130 130 130
127 127 127
124 124 124
124 124 124
124 124 124
122 122 122
121 121 121
123 123 123
125 125 125
128 128 128
133 133 133
131 131 131
129 129 129
128 128 128
128 128 128
129 129 129
131 131 131
132 132 132
131 131 131
129 129 129
128 128 128
128 128 128
126 126 126
122 122 122
121 121 121
118 118 118
122 122 122
126 126 126
126 126 126
126 126 126
126 126 126
127 127 127
129 129 129
126 126 126
125 125 125
124 124 124
126 126 126
129 129 129
130 130 130
132 132 132
133 133 133
131 131 131
128 128 128
127 127 127
128 128 128
128 128 128
143 143 143
146 146 146
148 148 148
148 148 148
145 145 145
143 143 143
146 146 146
144 144 144
142 142 142
138 138 138
132 132 132
129 129 129
129 129 129
128 128 128
128 128 128
127 127 127
126 126 126
127 127 127
126 126 126
123 123 123
120 120 120
120 120 120
121 121 121
121 121 121
120 120 120
123 123 123
126 126 126
131 131 131
133 133 133
131 131 131
129 129 129
128 128 128
128 128 128
129 129 129
131 131 131
131 131 131
130 130 130
127 127 127
126 126 126
127 127 127
125 125 125
123 123 123
120 120 120
117 117 117
118 118 118
123 123 123
125 125 125
126 126 126
126 126 126
126 126 126
127 127 127
125 125 125
126 126 126
124 124 124
123 123 123
126 126 126
129 129 129
131 131 131
132 132 132
130 130 130
127 127 127
128 128 128
128 128 128
126 126 126
140 140 140
145 145 145
146 146 146
148 148 148
145 145 145
146 146 146
148 148 148
145 145 145
142 142 142
139 139 139
137 137 137
135 135 135
132 132 132
129 129 129
126 126 126
124 124 124
122 122 122
121 121 121
120 120 120
119 119 119
118 118 118
118 118 118
118 118 118
120 120 120
123 123 123
126 126 126
128 128 128
133 133 133
133 133 133
131 131 131
130 130 130
130 130 130
129 129 129
130 130 130
131 131 131
132 132 132
130 130 130
127 127 127
126 126 126
126 126 126
124 124 124
122 122 122
121 121 121
118 118 118
116 116 116
118 118 118
120 120 120
121 121 121
121 121 121
123 123 123
123 123 123
125 125 125
126 126 126
125 125 125
125 125 125
126 126 126
130 130 130
132 132 132
132 132 132
130 130 130
127 127 127
128 128 128
127 127 127
124 124 124
140 140 140
146 146 146
148 148 148
150 150 150
146 146 146
147 147 147
146 146 146
142 142 142
141 141 141
139 139 139
139 139 139
137 137 137
134 134 134
130 130 130
126 126 126
122 122 122
121 121 121
120 120 120
120 120 120
120 120 120
120 120 120
120 120 120
122 122 122
125 125 125
128 128 128
128 128 128
130 130 130
134 134 134
133 133 133
132 132 132
131 131 131
131 131 131
131 131 131
131 131 131
132 132 132
132 132 132
130 130 130
127 127 127
126 126 126
127 127 127
126 126 126
124 124 124
122 122 122
120 120 120
118 118 118
116 116 116
116 116 116
118 118 118
119 119 119
120 120 120
122 122 122
125 125 125
127 127 127
127 127 127
126 126 126
127 127 127
130 130 130
133 133 133
132 132 132
129 129 129
127 127 127
129 129 129
128 128 128
122 122 122
140 140 140
149 149 149
150 150 150
152 152 152
147 147 147
145 145 145
144 144 144
140 140 140
140 140 140
139 139 139
139 139 139
138 138 138
135 135 135
131 131 131
128 128 128
126 126 126
125 125 125
125 125 125
125 125 125
125 125 125
126 126 126
127 127 127
129 129 129
131 131 131
131 131 131
130 130 130
132 132 132
135 135 135
134 134 134
132 132 132
132 132 132
131 131 131
131 131 131
132 132 132
133 133 133
132 132 132
130 130 130
128 128 128
125 125 125
128 128 128
129 129 129
127 127 127
124 124 124
123 123 123
122 122 122
121 121 121
118 118 118
118 118 118
119 119 119
119 119 119
121 121 121
123 123 123
125 125 125
126 126 126
126 126 126
127 127 127
129 129 129
129 129 129
128 128 128
127 127 127
128 128 128
130 130 130
128 128 128
123 123 123
136 136 136
147 147 147
150 150 150
153 153 153
148 148 148
145 145 145
143 143 143
139 139 139
138 138 138
138 138 138
138 138 138
138 138 138
137 137 137
134 134 134
132 132 132
132 132 132
130 130 130
130 130 130
130 130 130
130 130 130
131 131 131
132 132 132
134 134 134
134 134 134
134 134 134
132 132 132
135 135 135
136 136 136
134 134 134
132 132 132
131 131 131
131 131 131
131 131 131
132 132 132
133 133 133
132 132 132
130 130 130
128 128 128
125 125 125
125 125 125
129 129 129
128 128 128
127 127 127
126 126 126
125 125 125
124 124 124
124 124 124
124 124 124
123 123 123
123 123 123
124 124 124
124 124 124
125 125 125
124 124 124
125 125 125
126 126 126
127 127 127
127 127 127
126 126 126
126 126 126
127 127 127
129 129 129
128 128 128
124 124 124
134 134 134
144 144 144
150 150 150
153 153 153
149 149 149
145 145 145
142 142 142
139 139 139
137 137 137
137 137 137
137 137 137
136 136 136
136 136 136
134 134 134
133 133 133
132 132 132
132 132 132
131 131 131
132 132 132
132 132 132
133 133 133
133 133 133
134 134 134
136 136 136
137 137 137
135 135 135
136 136 136
135 135 135
133 133 133
132 132 132
131 131 131
131 131 131
131 131 131
132 132 132
132 132 132
132 132 132
130 130 130
128 128 128
126 126 126
124 124 124
126 126 126
127 127 127
127 127 127
127 127 127
126 126 126
126 126 126
126 126 126
125 125 125
125 125 125
125 125 125
125 125 125
125 125 125
124 124 124
124 124 124
124 124 124
124 124 124
125 125 125
125 125 125
125 125 125
125 125 125
127 127 127
130 130 130
129 129 129
125 125 125
135 135 135
143 143 143
150 150 150
153 153 153
149 149 149
144 144 144
141 141 141
138 138 138
136 136 136
136 136 136
134 134 134
134 134 134
134 134 134
133 133 133
132 132 132
131 131 131
132 132 132
132 132 132
132 132 132
132 132 132
131 131 131
131 131 131
134 134 134
138 138 138
138 138 138
136 136 136
135 135 135
134 134 134
132 132 132
132 132 132
132 132 132
132 132 132
132 132 132
132 132 132
132 132 132
132 132 132
131 131 131
130 130 130
127 127 127
126 126 126
124 124 124
124 124 124
125 125 125
126 126 126
127 127 127
127 127 127
127 127 127
127 127 127
126 126 126
126 126 126
126 126 126
125 125 125
125 125 125
124 124 124
124 124 124
124 124 124
124 124 124
124 124 124
124 124 124
125 125 125
128 128 128
130 130 130
130 130 130
126 126 126
138 138 138
145 145 145
151 151 151
152 152 152
149 149 149
145 145 145
141 141 141
138 138 138
135 135 135
134 134 134
133 133 133
133 133 133
132 132 132
132 132 132
132 132 132
131 131 131
131 131 131
131 131 131
130 130 130
129 129 129
129 129 129
132 132 132
137 137 137
139 139 139
138 138 138
136 136 136
135 135 135
135 135 135
132 132 132
132 132 132
133 133 133
133 133 133
132 132 132
132 132 132
132 132 132
133 133 133
132 132 132
132 132 132
129 129 129
127 127 127
125 125 125
124 124 124
122 122 122
123 123 123
125 125 125
126 126 126
126 126 126
126 126 126
127 127 127
126 126 126
126 126 126
126 126 126
125 125 125
124 124 124
124 124 124
124 124 124
124 124 124
124 124 124
125 125 125
127 127 127
130 130 130
131 131 131
130 130 130
127 127 127
140 140 140
146 146 146
151 151 151
153 153 153
149 149 149
145 145 145
141 141 141
138 138 138
136 136 136
135 135 135
133 133 133
131 131 131
130 130 130
130 130 130
129 129 129
129 129 129
129 129 129
129 129 129
129 129 129
130 130 130
130 130 130
133 133 133
137 137 137
138 138 138
137 137 137
135 135 135
134 134 134
135 135 135
132 132 132
130 130 130
130 130 130
131 131 131
131 131 131
130 130 130
131 131 131
131 131 131
132 132 132
133 133 133
131 131 131
128 128 128
127 127 127
126 126 126
124 124 124
122 122 122
121 121 121
123 123 123
124 124 124
124 124 124
125 125 125
125 125 125
125 125 125
124 124 124
124 124 124
124 124 124
124 124 124
123 123 123
124 124 124
125 125 125
127 127 127
130 130 130
132 132 132
131 131 131
130 130 130
126 126 126
142 142 142
147 147 147
152 152 152
152 152 152
149 149 149
146 146 146
142 142 142
139 139 139
137 137 137
136 136 136
135 135 135
133 133 133
132 132 132
131 131 131
130 130 130
129 129 129
130 130 130
129 129 129
130 130 130
130 130 130
132 132 132
134 134 134
136 136 136
136 136 136
136 136 136
134 134 134
132 132 132
132 132 132
128 128 128
124 124 124
125 125 125
127 127 127
127 127 127
127 127 127
128 128 128
129 129 129
129 129 129
131 131 131
129 129 129
127 127 127
127 127 127
127 127 127
125 125 125
124 124 124
122 122 122
122 122 122
122 122 122
123 123 123
123 123 123
124 124 124
123 123 123
122 122 122
122 122 122
123 123 123
124 124 124
124 124 124
126 126 126
128 128 128
130 130 130
132 132 132
132 132 132
132 132 132
130 130 130
125 125 125
144 144 144
147 147 147
151 151 151
151 151 151
150 150 150
147 147 147
143 143 143
140 140 140
138 138 138
136 136 136
135 135 135
133 133 133
132 132 132
131 131 131
130 130 130
129 129 129
129 129 129
129 129 129
130 130 130
131 131 131
133 133 133
135 135 135
135 135 135
135 135 135
134 134 134
131 131 131
128 128 128
127 127 127
121 121 121
116 116 116
117 117 117
121 121 121
122 122 122
122 122 122
123 123 123
124 124 124
125 125 125
126 126 126
125 125 125
124 124 124
126 126 126
127 127 127
127 127 127
125 125 125
124 124 124
123 123 123
124 124 124
123 123 123
124 124 124
124 124 124
123 123 123
123 123 123
123 123 123
124 124 124
124 124 124
125 125 125
127 127 127
129 129 129
132 132 132
133 133 133
133 133 133
132 132 132
130 130 130
125 125 125
145 145 145
148 148 148
151 151 151
151 151 151
150 150 150
147 147 147
144 144 144
140 140 140
139 139 139
137 137 137
134 134 134
133 133 133
132 132 132
130 130 130
130 130 130
130 130 130
129 129 129
130 130 130
130 130 130
132 132 132
135 135 135
134 134 134
134 134 134
134 134 134
132 132 132
127 127 127
122 122 122
119 119 119
113 113 113
107 107 107
109 109 109
116 116 116
119 119 119
118 118 118
117 117 117
118 118 118
119 119 119
119 119 119
119 119 119
120 120 120
124 124 124
127 127 127
128 128 128
127 127 127
125 125 125
124 124 124
123 123 123
123 123 123
123 123 123
124 124 124
124 124 124
124 124 124
124 124 124
124 124 124
125 125 125
126 126 126
128 128 128
130 130 130
132 132 132
134 134 134
133 133 133
132 132 132
129 129 129
125 125 125
145 145 145
149 149 149
151 151 151
151 151 151
150 150 150
148 148 148
145 145 145
141 141 141
139 139 139
137 137 137
134 134 134
133 133 133
132 132 132
131 131 131
130 130 130
131 131 131
130 130 130
130 130 130
131 131 131
133 133 133
136 136 136
136 136 136
134 134 134
134 134 134
131 131 131
124 124 124
118 118 118
113 113 113
109 109 109
105 105 105
107 107 107
115 115 115
118 118 118
116 116 116
114 114 114
115 115 115
115 115 115
115 115 115
115 115 115
119 119 119
125 125 125
128 128 128
129 129 129
129 129 129
127 127 127
125 125 125
124 124 124
124 124 124
123 123 123
123 123 123
124 124 124
124 124 124
125 125 125
125 125 125
126 126 126
127 127 127
129 129 129
131 131 131
133 133 133
134 134 134
133 133 133
132 132 132
129 129 129
124 124 124
145 145 145
150 150 150
151 151 151
151 151 151
150 150 150
149 149 149
146 146 146
142 142 142
140 140 140
138 138 138
135 135 135
133 133 133
132 132 132
131 131 131
131 131 131
131 131 131
130 130 130
131 131 131
132 132 132
135 135 135
138 138 138
138 138 138
137 137 137
135 135 135
133 133 133
127 127 127
120 120 120
116 116 116
113 113 113
112 112 112
113 113 113
118 118 118
120 120 120
117 117 117
116 116 116
117 117 117
118 118 118
117 117 117
118 118 118
122 122 122
127 127 127
130 130 130
131 131 131
132 132 132
130 130 130
129 129 129
126 126 126
125 125 125
124 124 124
124 124 124
124 124 124
125 125 125
125 125 125
126 126 126
127 127 127
129 129 129
130 130 130
132 132 132
134 134 134
134 134 134
133 133 133
132 132 132
128 128 128
125 125 125
146 146 146
151 151 151
152 152 152
151 151 151
150 150 150
149 149 149
147 147 147
144 144 144
141 141 141
138 138 138
136 136 136
134 134 134
132 132 132
132 132 132
132 132 132
131 131 131
130 130 130
131 131 131
134 134 134
138 138 138
140 140 140
139 139 139
139 139 139
137 137 137
136 136 136
133 133 133
128 128 128
125 125 125
122 122 122
120 120 120
121 121 121
122 122 122
121 121 121
119 119 119
121 121 121
124 124 124
124 124 124
124 124 124
124 124 124
126 126 126
128 128 128
130 130 130
132 132 132
134 134 134
133 133 133
132 132 132
130 130 130
128 128 128
127 127 127
126 126 126
126 126 126
126 126 126
126 126 126
127 127 127
128 128 128
130 130 130
132 132 132
133 133 133
135 135 135
134 134 134
134 134 134
132 132 132
130 130 130
126 126 126
145 145 145
152 152 152
153 153 153
153 153 153
152 152 152
150 150 150
148 148 148
145 145 145
142 142 142
139 139 139
137 137 137
135 135 135
133 133 133
133 133 133
132 132 132
131 131 131
131 131 131
133 133 133
137 137 137
141 141 141
143 143 143
140 140 140
139 139 139
139 139 139
139 139 139
139 139 139
137 137 137
133 133 133
129 129 129
127 127 127
126 126 126
124 124 124
122 122 122
121 121 121
124 124 124
128 128 128
129 129 129
130 130 130
129 129 129
129 129 129
130 130 130
131 131 131
132 132 132
134 134 134
134 134 134
133 133 133
133 133 133
131 131 131
130 130 130
128 128 128
128 128 128
128 128 128
128 128 128
129 129 129
130 130 130
131 131 131
133 133 133
134 134 134
136 136 136
135 135 135
134 134 134
133 133 133
130 130 130
127 127 127
142 142 142
151 151 151
154 154 154
154 154 154
153 153 153
151 151 151
149 149 149
147 147 147
144 144 144
141 141 141
138 138 138
136 136 136
134 134 134
133 133 133
132 132 132
131 131 131
132 132 132
136 136 136
140 140 140
143 143 143
143 143 143
140 140 140
140 140 140
141 141 141
143 143 143
143 143 143
141 141 141
137 137 137
132 132 132
130 130 130
127 127 127
125 125 125
123 123 123
123 123 123
125 125 125
129 129 129
131 131 131
132 132 132
131 131 131
131 131 131
131 131 131
132 132 132
133 133 133
133 133 133
134 134 134
134 134 134
133 133 133
133 133 133
132 132 132
130 130 130
129 129 129
129 129 129
130 130 130
131 131 131
131 131 131
132 132 132
134 134 134
136 136 136
136 136 136
136 136 136
134 134 134
132 132 132
130 130 130
127 127 127
140 140 140
149 149 149
154 154 154
154 154 154
153 153 153
151 151 151
150 150 150
148 148 148
145 145 145
142 142 142
139 139 139
137 137 137
135 135 135
134 134 134
133 133 133
133 133 133
136 136 136
139 139 139
142 142 142
143 143 143
142 142 142
141 141 141
141 141 141
142 142 142
145 145 145
146 146 146
144 144 144
140 140 140
135 135 135
132 132 132
129 129 129
126 126 126
124 124 124
125 125 125
127 127 127
130 130 130
133 133 133
134 134 134
134 134 134
135 135 135
134 134 134
133 133 133
132 132 132
132 132 132
134 134 134
134 134 134
134 134 134
133 133 133
133 133 133
133 133 133
131 131 131
131 131 131
130 130 130
132 132 132
133 133 133
134 134 134
135 135 135
137 137 137
137 137 137
136 136 136
135 135 135
133 133 133
132 132 132
128 128 128
139 139 139
145 145 145
151 151 151
154 154 154
153 153 153
151 151 151
150 150 150
148 148 148
147 147 147
144 144 144
140 140 140
138 138 138
136 136 136
134 134 134
134 134 134
136 136 136
138 138 138
141 141 141
142 142 142
142 142 142
142 142 142
142 142 142
143 143 143
142 142 142
145 145 145
145 145 145
144 144 144
142 142 142
138 138 138
135 135 135
132 132 132
129 129 129
127 127 127
128 128 128
131 131 131
132 132 132
135 135 135
136 136 136
136 136 136
135 135 135
135 135 135
133 133 133
132 132 132
131 131 131
133 133 133
134 134 134
134 134 134
134 134 134
133 133 133
134 134 134
134 134 134
133 133 133
132 132 132
133 133 133
134 134 134
135 135 135
136 136 136
138 138 138
138 138 138
137 137 137
135 135 135
133 133 133
133 133 133
128 128 128
138 138 138
143 143 143
149 149 149
153 153 153
153 153 153
152 152 152
150 150 150
149 149 149
147 147 147
145 145 145
142 142 142
139 139 139
137 137 137
135 135 135
136 136 136
139 139 139
141 141 141
141 141 141
143 143 143
142 142 142
142 142 142
141 141 141
142 142 142
143 143 143
143 143 143
144 144 144
143 143 143
143 143 143
142 142 142
139 139 139
136 136 136
134 134 134
133 133 133
135 135 135
136 136 136
136 136 136
138 138 138
138 138 138
137 137 137
137 137 137
135 135 135
133 133 133
132 132 132
131 131 131
132 132 132
133 133 133
134 134 134
134 134 134
133 133 133
134 134 134
134 134 134
134 134 134
134 134 134
134 134 134
134 134 134
136 136 136
137 137 137
138 138 138
138 138 138
137 137 137
135 135 135
134 134 134
133 133 133
128 128 128
138 138 138
142 142 142
148 148 148
152 152 152
153 153 153
152 152 152
150 150 150
148 148 148
147 147 147
145 145 145
143 143 143
140 140 140
137 137 137
136 136 136
138 138 138
141 141 141
142 142 142
142 142 142
142 142 142
142 142 142
140 140 140
139 139 139
140 140 140
142 142 142
142 142 142
143 143 143
143 143 143
143 143 143
143 143 143
141 141 141
141 141 141
139 139 139
139 139 139
139 139 139
139 139 139
138 138 138
139 139 139
139 139 139
138 138 138
137 137 137
135 135 135
134 134 134
132 132 132
131 131 131
131 131 131
132 132 132
132 132 132
133 133 133
133 133 133
133 133 133
134 134 134
134 134 134
135 135 135
135 135 135
136 136 136
136 136 136
137 137 137
137 137 137
137 137 137
137 137 137
135 135 135
135 135 135
133 133 133
129 129 129
139 139 139
142 142 142
145 145 145
149 149 149
152 152 152
152 152 152
150 150 150
148 148 148
147 147 147
146 146 146
143 143 143
140 140 140
138 138 138
136 136 136
137 137 137
140 140 140
142 142 142
141 141 141
141 141 141
140 140 140
139 139 139
138 138 138
139 139 139
140 140 140
140 140 140
141 141 141
142 142 142
143 143 143
144 144 144
143 143 143
143 143 143
143 143 143
142 142 142
141 141 141
139 139 139
138 138 138
138 138 138
138 138 138
137 137 137
136 136 136
135 135 135
134 134 134
132 132 132
131 131 131
131 131 131
132 132 132
131 131 131
131 131 131
132 132 132
133 133 133
134 134 134
134 134 134
134 134 134
134 134 134
136 136 136
137 137 137
137 137 137
137 137 137
137 137 137
137 137 137
135 135 135
135 135 135
132 132 132
129 129 129
140 140 140
141 141 141
142 142 142
146 146 146
150 150 150
150 150 150
150 150 150
148 148 148
146 146 146
146 146 146
144 144 144
141 141 141
138 138 138
134 134 134
134 134 134
138 138 138
139 139 139
139 139 139
140 140 140
139 139 139
138 138 138
137 137 137
138 138 138
138 138 138
138 138 138
139 139 139
140 140 140
140 140 140
141 141 141
142 142 142
142 142 142
142 142 142
140 140 140
140 140 140
139 139 139
137 137 137
136 136 136
135 135 135
135 135 135
134 134 134
134 134 134
134 134 134
132 132 132
132 132 132
132 132 132
131 131 131
131 131 131
131 131 131
132 132 132
132 132 132
133 133 133
134 134 134
134 134 134
133 133 133
136 136 136
136 136 136
136 136 136
136 136 136
137 137 137
137 137 137
134 134 134
132 132 132
129 129 129
129 129 129
142 142 142
141 141 141
141 141 141
144 144 144
149 149 149
150 150 150
150 150 150
148 148 148
145 145 145
146 146 146
144 144 144
141 141 141
137 137 137
131 131 131
132 132 132
136 136 136
135 135 135
134 134 134
136 136 136
137 137 137
138 138 138
135 135 135
135 135 135
135 135 135
136 136 136
136 136 136
135 135 135
135 135 135
136 136 136
137 137 137
136 136 136
135 135 135
134 134 134
135 135 135
134 134 134
132 132 132
132 132 132
132 132 132
132 132 132
132 132 132
133 133 133
133 133 133
132 132 132
132 132 132
132 132 132
131 131 131
130 130 130
130 130 130
131 131 131
131 131 131
132 132 132
134 134 134
134 134 134
134 134 134
135 135 135
135 135 135
135 135 135
135 135 135
136 136 136
135 135 135
132 132 132
128 128 128
127 127 127
128 128 128
143 143 143
142 142 142
141 141 141
142 142 142
147 147 147
150 150 150
149 149 149
149 149 149
146 146 146
145 145 145
144 144 144
140 140 140
136 136 136
131 131 131
131 131 131
132 132 132
132 132 132
130 130 130
131 131 131
133 133 133
135 135 135
133 133 133
131 131 131
130 130 130
131 131 131
130 130 130
129 129 129
129 129 129
128 128 128
128 128 128
128 128 128
128 128 128
128 128 128
128 128 128
128 128 128
128 128 128
128 128 128
129 129 129
129 129 129
129 129 129
129 129 129
130 130 130
130 130 130
130 130 130
131 131 131
131 131 131
130 130 130
130 130 130
130 130 130
131 131 131
131 131 131
133 133 133
133 133 133
133 133 133
133 133 133
134 134 134
135 135 135
136 136 136
137 137 137
134 134 134
130 130 130
126 126 126
127 127 127
128 128 128
142 142 142
141 141 141
140 140 140
141 141 141
146 146 146
150 150 150
148 148 148
148 148 148
146 146 146
144 144 144
144 144 144
140 140 140
135 135 135
132 132 132
130 130 130
129 129 129
127 127 127
127 127 127
128 128 128
129 129 129
131 131 131
131 131 131
132 132 132
131 131 131
129 129 129
127 127 127
125 125 125
124 124 124
122 122 122
121 121 121
121 121 121
122 122 122
121 121 121
121 121 121
122 122 122
123 123 123
124 124 124
125 125 125
125 125 125
126 126 126
127 127 127
128 128 128
128 128 128
130 130 130
131 131 131
131 131 131
130 130 130
129 129 129
130 130 130
130 130 130
130 130 130
131 131 131
131 131 131
132 132 132
132 132 132
133 133 133
135 135 135
136 136 136
135 135 135
132 132 132
128 128 128
125 125 125
127 127 127
129 129 129
140 140 140
140 140 140
139 139 139
140 140 140
144 144 144
149 149 149
149 149 149
148 148 148
147 147 147
144 144 144
143 143 143
142 142 142
136 136 136
133 133 133
130 130 130
126 126 126
123 123 123
124 124 124
127 127 127
129 129 129
130 130 130
130 130 130
132 132 132
133 133 133
134 134 134
133 133 133
129 129 129
127 127 127
125 125 125
123 123 123
122 122 122
123 123 123
122 122 122
122 122 122
123 123 123
124 124 124
125 125 125
125 125 125
127 127 127
128 128 128
129 129 129
129 129 129
129 129 129
129 129 129
131 131 131
130 130 130
129 129 129
129 129 129
129 129 129
129 129 129
129 129 129
129 129 129
129 129 129
131 131 131
132 132 132
134 134 134
135 135 135
136 136 136
134 134 134
130 130 130
127 127 127
125 125 125
125 125 125
127 127 127
136 136 136
136 136 136
137 137 137
139 139 139
143 143 143
147 147 147
148 148 148
146 146 146
147 147 147
146 146 146
143 143 143
142 142 142
139 139 139
134 134 134
130 130 130
126 126 126
123 123 123
123 123 123
127 127 127
128 128 128
131 131 131
132 132 132
133 133 133
133 133 133
134 134 134
135 135 135
134 134 134
132 132 132
131 131 131
129 129 129
127 127 127
127 127 127
126 126 126
127 127 127
127 127 127
127 127 127
127 127 127
126 126 126
127 127 127
128 128 128
129 129 129
129 129 129
128 128 128
127 127 127
128 128 128
129 129 129
129 129 129
129 129 129
128 128 128
129 129 129
129 129 129
129 129 129
128 128 128
130 130 130
132 132 132
134 134 134
136 136 136
135 135 135
133 133 133
129 129 129
126 126 126
124 124 124
124 124 124
125 125 125
131 131 131
132 132 132
135 135 135
139 139 139
141 141 141
145 145 145
147 147 147
145 145 145
146 146 146
146 146 146
144 144 144
142 142 142
141 141 141
136 136 136
132 132 132
129 129 129
126 126 126
126 126 126
129 129 129
130 130 130
131 131 131
131 131 131
133 133 133
134 134 134
134 134 134
135 135 135
133 133 133
131 131 131
129 129 129
127 127 127
125 125 125
124 124 124
125 125 125
126 126 126
125 125 125
125 125 125
125 125 125
125 125 125
126 126 126
126 126 126
127 127 127
126 126 126
126 126 126
125 125 125
126 126 126
126 126 126
127 127 127
128 128 128
129 129 129
130 130 130
130 130 130
128 128 128
129 129 129
130 130 130
133 133 133
135 135 135
136 136 136
134 134 134
131 131 131
128 128 128
127 127 127
123 123 123
123 123 123
121 121 121
127 127 127
128 128 128
133 133 133
138 138 138
140 140 140
143 143 143
146 146 146
145 145 145
144 144 144
146 146 146
145 145 145
143 143 143
141 141 141
138 138 138
134 134 134
131 131 131
130 130 130
130 130 130
133 133 133
134 134 134
135 135 135
135 135 135
134 134 134
135 135 135
135 135 135
134 134 134
132 132 132
130 130 130
127 127 127
124 124 124
121 121 121
121 121 121
121 121 121
121 121 121
122 122 122
122 122 122
123 123 123
123 123 123
124 124 124
125 125 125
126 126 126
126 126 126
126 126 126
126 126 126
127 127 127
127 127 127
128 128 128
129 129 129
130 130 130
131 131 131
129 129 129
128 128 128
129 129 129
131 131 131
134 134 134
135 135 135
135 135 135
133 133 133
130 130 130
128 128 128
127 127 127
121 121 121
120 120 120
117 117 117
124 124 124
125 125 125
129 129 129
136 136 136
140 140 140
142 142 142
143 143 143
145 145 145
144 144 144
145 145 145
145 145 145
143 143 143
141 141 141
140 140 140
137 137 137
134 134 134
133 133 133
134 134 134
137 137 137
138 138 138
138 138 138
138 138 138
137 137 137
136 136 136
135 135 135
134 134 134
131 131 131
127 127 127
125 125 125
122 122 122
120 120 120
120 120 120
119 119 119
119 119 119
120 120 120
121 121 121
122 122 122
123 123 123
124 124 124
126 126 126
128 128 128
129 129 129
129 129 129
130 130 130
130 130 130
129 129 129
129 129 129
129 129 129
130 130 130
130 130 130
129 129 129
128 128 128
130 130 130
133 133 133
134 134 134
134 134 134
133 133 133
133 133 133
129 129 129
128 128 128
125 125 125
119 119 119
117 117 117
115 115 115
123 123 123
122 122 122
127 127 127
134 134 134
139 139 139
140 140 140
141 141 141
143 143 143
144 144 144
144 144 144
145 145 145
145 145 145
143 143 143
140 140 140
139 139 139
137 137 137
136 136 136
136 136 136
137 137 137
139 139 139
139 139 139
139 139 139
138 138 138
137 137 137
136 136 136
134 134 134
132 132 132
128 128 128
126 126 126
123 123 123
122 122 122
121 121 121
120 120 120
120 120 120
121 121 121
123 123 123
124 124 124
125 125 125
126 126 126
128 128 128
131 131 131
132 132 132
132 132 132
132 132 132
132 132 132
130 130 130
130 130 130
130 130 130
130 130 130
129 129 129
129 129 129
129 129 129
131 131 131
133 133 133
134 134 134
134 134 134
133 133 133
132 132 132
130 130 130
128 128 128
123 123 123
116 116 116
115 115 115
116 116 116
123 123 123
122 122 122
124 124 124
133 133 133
137 137 137
140 140 140
139 139 139
140 140 140
143 143 143
144 144 144
144 144 144
145 145 145
145 145 145
142 142 142
139 139 139
140 140 140
137 137 137
136 136 136
136 136 136
137 137 137
138 138 138
138 138 138
136 136 136
135 135 135
135 135 135
133 133 133
131 131 131
129 129 129
127 127 127
125 125 125
125 125 125
124 124 124
123 123 123
123 123 123
124 124 124
124 124 124
125 125 125
127 127 127
128 128 128
130 130 130
132 132 132
132 132 132
132 132 132
131 131 131
131 131 131
130 130 130
130 130 130
129 129 129
129 129 129
129 129 129
129 129 129
130 130 130
132 132 132
133 133 133
133 133 133
133 133 133
132 132 132
133 133 133
130 130 130
127 127 127
120 120 120
113 113 113
114 114 114
116 116 116
122 122 122
122 122 122
123 123 123
130 130 130
135 135 135
138 138 138
138 138 138
139 139 139
142 142 142
144 144 144
144 144 144
144 144 144
145 145 145
144 144 144
141 141 141
140 140 140
139 139 139
137 137 137
135 135 135
136 136 136
136 136 136
137 137 137
135 135 135
133 133 133
133 133 133
131 131 131
129 129 129
128 128 128
127 127 127
125 125 125
125 125 125
124 124 124
123 123 123
123 123 123
123 123 123
124 124 124
125 125 125
127 127 127
128 128 128
129 129 129
130 130 130
130 130 130
131 131 131
130 130 130
130 130 130
130 130 130
129 129 129
129 129 129
129 129 129
129 129 129
129 129 129
131 131 131
133 133 133
133 133 133
132 132 132
132 132 132
133 133 133
133 133 133
129 129 129
125 125 125
117 117 117
112 112 112
113 113 113
116 116 116
122 122 122
123 123 123
122 122 122
127 127 127
133 133 133
137 137 137
136 136 136
138 138 138
141 141 141
143 143 143
143 143 143
143 143 143
145 145 145
146 146 146
143 143 143
140 140 140
140 140 140
138 138 138
135 135 135
135 135 135
135 135 135
135 135 135
134 134 134
133 133 133
131 131 131
129 129 129
127 127 127
126 126 126
125 125 125
125 125 125
125 125 125
124 124 124
123 123 123
123 123 123
123 123 123
124 124 124
126 126 126
127 127 127
128 128 128
129 129 129
129 129 129
129 129 129
130 130 130
129 129 129
129 129 129
129 129 129
129 129 129
129 129 129
129 129 129
130 130 130
130 130 130
132 132 132
133 133 133
132 132 132
132 132 132
133 133 133
133 133 133
134 134 134
129 129 129
121 121 121
113 113 113
112 112 112
113 113 113
115 115 115
122 122 122
122 122 122
122 122 122
125 125 125
131 131 131
135 135 135
135 135 135
138 138 138
141 141 141
143 143 143
144 144 144
144 144 144
143 143 143
145 145 145
145 145 145
142 142 142
139 139 139
138 138 138
136 136 136
134 134 134
134 134 134
133 133 133
133 133 133
132 132 132
131 131 131
129 129 129
127 127 127
126 126 126
125 125 125
124 124 124
124 124 124
124 124 124
123 123 123
124 124 124
124 124 124
125 125 125
127 127 127
127 127 127
128 128 128
128 128 128
129 129 129
129 129 129
130 130 130
129 129 129
128 128 128
129 129 129
128 128 128
129 129 129
130 130 130
130 130 130
131 131 131
132 132 132
132 132 132
132 132 132
132 132 132
133 133 133
134 134 134
135 135 135
128 128 128
118 118 118
112 112 112
112 112 112
113 113 113
114 114 114
122 122 122
123 123 123
122 122 122
123 123 123
129 129 129
133 133 133
134 134 134
137 137 137
140 140 140
143 143 143
144 144 144
145 145 145
143 143 143
143 143 143
145 145 145
144 144 144
141 141 141
138 138 138
136 136 136
134 134 134
133 133 133
132 132 132
131 131 131
130 130 130
129 129 129
129 129 129
127 127 127
126 126 126
125 125 125
124 124 124
125 125 125
125 125 125
125 125 125
125 125 125
125 125 125
126 126 126
127 127 127
127 127 127
127 127 127
128 128 128
129 129 129
129 129 129
130 130 130
128 128 128
128 128 128
128 128 128
128 128 128
129 129 129
129 129 129
131 131 131
131 131 131
132 132 132
132 132 132
132 132 132
132 132 132
134 134 134
135 135 135
135 135 135
126 126 126
115 115 115
111 111 111
112 112 112
112 112 112
113 113 113
122 122 122
123 123 123
122 122 122
123 123 123
127 127 127
131 131 131
133 133 133
136 136 136
140 140 140
143 143 143
145 145 145
145 145 145
145 145 145
143 143 143
145 145 145
144 144 144
142 142 142
139 139 139
137 137 137
134 134 134
132 132 132
131 131 131
130 130 130
129 129 129
128 128 128
127 127 127
127 127 127
126 126 126
126 126 126
125 125 125
125 125 125
126 126 126
126 126 126
126 126 126
127 127 127
127 127 127
128 128 128
127 127 127
127 127 127
127 127 127
128 128 128
128 128 128
128 128 128
127 127 127
127 127 127
127 127 127
128 128 128
129 129 129
130 130 130
131 131 131
131 131 131
131 131 131
131 131 131
133 133 133
134 134 134
135 135 135
136 136 136
133 133 133
124 124 124
113 113 113
111 111 111
111 111 111
112 112 112
113 113 113
122 122 122
123 123 123
122 122 122
122 122 122
124 124 124
128 128 128
133 133 133
137 137 137
140 140 140
144 144 144
145 145 145
146 146 146
145 145 145
145 145 145
144 144 144
144 144 144
141 141 141
140 140 140
138 138 138
135 135 135
132 132 132
131 131 131
130 130 130
129 129 129
128 128 128
127 127 127
126 126 126
126 126 126
126 126 126
126 126 126
125 125 125
126 126 126
126 126 126
126 126 126
126 126 126
126 126 126
127 127 127
127 127 127
126 126 126
127 127 127
127 127 127
127 127 127
127 127 127
126 126 126
127 127 127
128 128 128
128 128 128
129 129 129
130 130 130
131 131 131
131 131 131
131 131 131
132 132 132
135 135 135
136 136 136
137 137 137
135 135 135
132 132 132
123 123 123
112 112 112
110 110 110
111 111 111
112 112 112
113 113 113
122 122 122
122 122 122
122 122 122
122 122 122
122 122 122
126 126 126
132 132 132
138 138 138
140 140 140
144 144 144
146 146 146
146 146 146
145 145 145
145 145 145
144 144 144
144 144 144
141 141 141
140 140 140
139 139 139
136 136 136
133 133 133
132 132 132
130 130 130
129 129 129
129 129 129
127 127 127
126 126 126
126 126 126
126 126 126
125 125 125
125 125 125
125 125 125
126 126 126
126 126 126
126 126 126
126 126 126
127 127 127
126 126 126
126 126 126
126 126 126
125 125 125
125 125 125
126 126 126
126 126 126
127 127 127
127 127 127
128 128 128
129 129 129
130 130 130
131 131 131
131 131 131
132 132 132
133 133 133
136 136 136
137 137 137
137 137 137
134 134 134
132 132 132
123 123 123
113 113 113
111 111 111
111 111 111
113 113 113
114 114 114
122 122 122
122 122 122
121 121 121
122 122 122
122 122 122
124 124 124
131 131 131
137 137 137
141 141 141
145 145 145
146 146 146
146 146 146
146 146 146
145 145 145
144 144 144
144 144 144
141 141 141
140 140 140
140 140 140
138 138 138
135 135 135
134 134 134
131 131 131
130 130 130
129 129 129
128 128 128
126 126 126
126 126 126
126 126 126
126 126 126
125 125 125
126 126 126
127 127 127
127 127 127
127 127 127
127 127 127
126 126 126
126 126 126
126 126 126
125 125 125
125 125 125
125 125 125
126 126 126
126 126 126
127 127 127
128 128 128
128 128 128
129 129 129
130 130 130
130 130 130
132 132 132
134 134 134
135 135 135
137 137 137
137 137 137
136 136 136
133 133 133
131 131 131
123 123 123
114 114 114
111 111 111
112 112 112
113 113 113
114 114 114
121 121 121
121 121 121
121 121 121
121 121 121
122 122 122
122 122 122
129 129 129
137 137 137
142 142 142
146 146 146
147 147 147
146 146 146
145 145 145
145 145 145
143 143 143
143 143 143
141 141 141
140 140 140
140 140 140
139 139 139
137 137 137
135 135 135
132 132 132
131 131 131
129 129 129
128 128 128
127 127 127
126 126 126
126 126 126
126 126 126
126 126 126
127 127 127
127 127 127
127 127 127
126 126 126
126 126 126
125 125 125
125 125 125
125 125 125
125 125 125
125 125 125
125 125 125
126 126 126
126 126 126
127 127 127
128 128 128
128 128 128
130 130 130
130 130 130
131 131 131
133 133 133
135 135 135
136 136 136
137 137 137
136 136 136
135 135 135
132 132 132
131 131 131
124 124 124
115 115 115
111 111 111
112 112 112
114 114 114
115 115 115
121 121 121
121 121 121
121 121 121
121 121 121
121 121 121
121 121 121
128 128 128
138 138 138
144 144 144
147 147 147
147 147 147
146 146 146
145 145 145
145 145 145
142 142 142
142 142 142
141 141 141
141 141 141
140 140 140
139 139 139
138 138 138
136 136 136
133 133 133
131 131 131
129 129 129
128 128 128
127 127 127
127 127 127
126 126 126
126 126 126
127 127 127
127 127 127
127 127 127
127 127 127
127 127 127
126 126 126
126 126 126
125 125 125
125 125 125
125 125 125
125 125 125
125 125 125
126 126 126
126 126 126
127 127 127
128 128 128
129 129 129
130 130 130
131 131 131
132 132 132
135 135 135
135 135 135
136 136 136
135 135 135
135 135 135
134 134 134
131 131 131
131 131 131
125 125 125
116 116 116
110 110 110
112 112 112
114 114 114
115 115 115
122 122 122
120 120 120
121 121 121
121 121 121
122 122 122
121 121 121
127 127 127
137 137 137
144 144 144
147 147 147
148 148 148
147 147 147
146 146 146
144 144 144
141 141 141
141 141 141
139 139 139
141 141 141
140 140 140
139 139 139
137 137 137
137 137 137
134 134 134
131 131 131
129 129 129
128 128 128
127 127 127
126 126 126
125 125 125
125 125 125
125 125 125
125 125 125
126 126 126
125 125 125
125 125 125
125 125 125
125 125 125
124 124 124
124 124 124
124 124 124
125 125 125
125 125 125
126 126 126
126 126 126
128 128 128
128 128 128
129 129 129
131 131 131
132 132 132
134 134 134
135 135 135
135 135 135
136 136 136
135 135 135
134 134 134
133 133 133
131 131 131
131 131 131
126 126 126
117 117 117
111 111 111
112 112 112
115 115 115
116 116 116
122 122 122
120 120 120
121 121 121
121 121 121
122 122 122
120 120 120
128 128 128
138 138 138
145 145 145
148 148 148
148 148 148
147 147 147
147 147 147
143 143 143
140 140 140
140 140 140
138 138 138
139 139 139
141 141 141
139 139 139
136 136 136
136 136 136
136 136 136
133 133 133
129 129 129
128 128 128
126 126 126
125 125 125
124 124 124
124 124 124
124 124 124
124 124 124
124 124 124
124 124 124
123 123 123
124 124 124
124 124 124
123 123 123
123 123 123
124 124 124
125 125 125
125 125 125
126 126 126
127 127 127
128 128 128
129 129 129
130 130 130
132 132 132
133 133 133
134 134 134
135 135 135
134 134 134
135 135 135
133 133 133
133 133 133
133 133 133
132 132 132
132 132 132
127 127 127
118 118 118
111 111 111
112 112 112
115 115 115
116 116 116
122 122 122
121 121 121
121 121 121
122 122 122
121 121 121
120 120 120
128 128 128
139 139 139
147 147 147
149 149 149
148 148 148
146 146 146
145 145 145
143 143 143
140 140 140
139 139 139
137 137 137
138 138 138
139 139 139
139 139 139
135 135 135
134 134 134
135 135 135
133 133 133
131 131 131
128 128 128
127 127 127
125 125 125
123 123 123
123 123 123
122 122 122
122 122 122
123 123 123
123 123 123
122 122 122
122 122 122
123 123 123
123 123 123
124 124 124
124 124 124
125 125 125
126 126 126
127 127 127
127 127 127
129 129 129
130 130 130
132 132 132
133 133 133
134 134 134
134 134 134
134 134 134
133 133 133
133 133 133
132 132 132
132 132 132
132 132 132
132 132 132
132 132 132
128 128 128
119 119 119
112 112 112
113 113 113
115 115 115
116 116 116
