P3
64 64
255
128 128 128
129 129 129
131 131 131
134 134 134
142 142 142
151 151 151
158 158 158
160 160 160
160 160 160
160 160 160
159 159 159
158 158 158
157 157 157
156 156 156
154 154 154
152 152 152
151 151 151
149 149 149
149 149 149
148 148 148
148 148 148
148 148 148
148 148 148
148 148 148
148 148 148
149 149 149
149 149 149
150 150 150
151 151 151
153 153 153
155 155 155
155 155 155
155 155 155
157 157 157
158 158 158
160 160 160
161 161 161
164 164 164
166 166 166
168 168 168
169 169 169
171 171 171
173 173 173
175 175 175
177 177 177
178 178 178
180 180 180
182 182 182
183 183 183
184 184 184
184 184 184
184 184 184
185 185 185
186 186 186
185 185 185
183 183 183
183 183 183
183 183 183
182 182 182
179 179 179
177 177 177
177 177 177
171 171 171
158 158 158
128 128 128
129 129 129
131 131 131
136 136 136
142 142 142
151 151 151
157 157 157
159 159 159
160 160 160
160 160 160
159 159 159
158 158 158
157 157 157
155 155 155
153 153 153
152 152 152
151 151 151
150 150 150
149 149 149
148 148 148
148 148 148
148 148 148
148 148 148
148 148 148
148 148 148
149 149 149
150 150 150
150 150 150
151 151 151
152 152 152
154 154 154
154 154 154
155 155 155
156 156 156
157 157 157
158 158 158
160 160 160
162 162 162
164 164 164
165 165 165
167 167 167
169 169 169
171 171 171
173 173 173
174 174 174
176 176 176
178 178 178
180 180 180
181 181 181
183 183 183
183 183 183
184 184 184
184 184 184
185 185 185
186 186 186
185 185 185
184 184 184
184 184 184
183 183 183
180 180 180
179 179 179
177 177 177
173 173 173
161 161 161
126 126 126
128 128 128
131 131 131
136 136 136
144 144 144
152 152 152
157 157 157
159 159 159
161 161 161
160 160 160
158 158 158
157 157 157
156 156 156
154 154 154
153 153 153
152 152 152
151 151 151
150 150 150
149 149 149
149 149 149
149 149 149
149 149 149
149 149 149
148 148 148
149 149 149
149 149 149
150 150 150
151 151 151
151 151 151
152 152 152
153 153 153
153 153 153
155 155 155
155 155 155
157 157 157
157 157 157
158 158 158
161 161 161
162 162 162
164 164 164
165 165 165
168 168 168
169 169 169
171 171 171
173 173 173
174 174 174
176 176 176
178 178 178
179 179 179
181 181 181
181 181 181
182 182 182
183 183 183
184 184 184
185 185 185
185 185 185
185 185 185
185 185 185
184 184 184
181 181 181
179 179 179
177 177 177
174 174 174
163 163 163
124 124 124
128 128 128
132 132 132
138 138 138
146 146 146
152 152 152
156 156 156
159 159 159
161 161 161
159 159 159
157 157 157
156 156 156
155 155 155
154 154 154
153 153 153
152 152 152
152 152 152
151 151 151
149 149 149
148 148 148
149 149 149
149 149 149
149 149 149
148 148 148
149 149 149
150 150 150
150 150 150
151 151 151
153 153 153
152 152 152
153 153 153
154 154 154
155 155 155
155 155 155
156 156 156
157 157 157
158 158 158
160 160 160
162 162 162
163 163 163
164 164 164
165 165 165
167 167 167
168 168 168
170 170 170
171 171 171
173 173 173
175 175 175
177 177 177
177 177 177
179 179 179
180 180 180
181 181 181
182 182 182
183 183 183
184 184 184
183 183 183
184 184 184
183 183 183
181 181 181
179 179 179
177 177 177
174 174 174
165 165 165
123 123 123
126 126 126
132 132 132
138 138 138
147 147 147
152 152 152
155 155 155
159 159 159
160 160 160
158 158 158
157 157 157
156 156 156
155 155 155
154 154 154
153 153 153
151 151 151
151 151 151
150 150 150
149 149 149
148 148 148
149 149 149
149 149 149
149 149 149
149 149 149
150 150 150
150 150 150
151 151 151
151 151 151
154 154 154
154 154 154
154 154 154
154 154 154
156 156 156
156 156 156
155 155 155
157 157 157
158 158 158
160 160 160
161 161 161
162 162 162
162 162 162
162 162 162
163 163 163
165 165 165
166 166 166
167 167 167
168 168 168
171 171 171
173 173 173
174 174 174
175 175 175
176 176 176
177 177 177
178 178 178
180 180 180
181 181 181
182 182 182
182 182 182
182 182 182
181 181 181
179 179 179
178 178 178
174 174 174
165 165 165
122 122 122
126 126 126
132 132 132
139 139 139
148 148 148
151 151 151
154 154 154
158 158 158
159 159 159
158 158 158
156 156 156
156 156 156
154 154 154
152 152 152
151 151 151
151 151 151
150 150 150
149 149 149
149 149 149
149 149 149
149 149 149
150 150 150
149 149 149
149 149 149
151 151 151
151 151 151
151 151 151
152 152 152
154 154 154
156 156 156
155 155 155
156 156 156
157 157 157
157 157 157
156 156 156
156 156 156
157 157 157
159 159 159
159 159 159
160 160 160
159 159 159
159 159 159
160 160 160
161 161 161
162 162 162
163 163 163
164 164 164
166 166 166
168 168 168
169 169 169
170 170 170
171 171 171
172 172 172
173 173 173
175 175 175
177 177 177
178 178 178
180 180 180
181 181 181
180 180 180
179 179 179
178 178 178
174 174 174
167 167 167
122 122 122
126 126 126
132 132 132
140 140 140
148 148 148
151 151 151
154 154 154
158 158 158
159 159 159
157 157 157
155 155 155
153 153 153
151 151 151
149 149 149
148 148 148
148 148 148
147 147 147
148 148 148
148 148 148
148 148 148
148 148 148
148 148 148
149 149 149
149 149 149
151 151 151
151 151 151
151 151 151
152 152 152
155 155 155
155 155 155
156 156 156
157 157 157
159 159 159
158 158 158
156 156 156
155 155 155
156 156 156
157 157 157
158 158 158
158 158 158
157 157 157
157 157 157
156 156 156
156 156 156
157 157 157
159 159 159
160 160 160
161 161 161
162 162 162
163 163 163
165 165 165
166 166 166
165 165 165
165 165 165
168 168 168
172 172 172
173 173 173
175 175 175
177 177 177
177 177 177
177 177 177
177 177 177
174 174 174
168 168 168
124 124 124
127 127 127
135 135 135
142 142 142
149 149 149
152 152 152
155 155 155
158 158 158
156 156 156
152 152 152
151 151 151
149 149 149
148 148 148
147 147 147
146 146 146
145 145 145
146 146 146
146 146 146
145 145 145
145 145 145
145 145 145
146 146 146
147 147 147
148 148 148
150 150 150
150 150 150
152 152 152
154 154 154
154 154 154
154 154 154
156 156 156
157 157 157
158 158 158
158 158 158
156 156 156
155 155 155
154 154 154
155 155 155
157 157 157
155 155 155
154 154 154
153 153 153
151 151 151
149 149 149
150 150 150
152 152 152
152 152 152
153 153 153
154 154 154
155 155 155
156 156 156
161 161 161
159 159 159
157 157 157
159 159 159
164 164 164
167 167 167
168 168 168
170 170 170
172 172 172
174 174 174
175 175 175
173 173 173
166 166 166
126 126 126
130 130 130
136 136 136
144 144 144
152 152 152
154 154 154
155 155 155
154 154 154
150 150 150
147 147 147
145 145 145
145 145 145
143 143 143
142 142 142
143 143 143
142 142 142
144 144 144
143 143 143
141 141 141
142 142 142
143 143 143
143 143 143
145 145 145
147 147 147
149 149 149
149 149 149
151 151 151
153 153 153
152 152 152
153 153 153
156 156 156
157 157 157
159 159 159
158 158 158
155 155 155
154 154 154
151 151 151
151 151 151
155 155 155
151 151 151
148 148 148
149 149 149
146 146 146
143 143 143
143 143 143
144 144 144
144 144 144
152 152 152
152 152 152
151 151 151
152 152 152
156 156 156
159 159 159
153 153 153
150 150 150
154 154 154
160 160 160
163 163 163
165 165 165
165 165 165
169 169 169
172 172 172
170 170 170
165 165 165
127 127 127
130 130 130
135 135 135
145 145 145
154 154 154
155 155 155
154 154 154
149 149 149
144 144 144
141 141 141
142 142 142
143 143 143
144 144 144
145 145 145
145 145 145
145 145 145
147 147 147
144 144 144
143 143 143
145 145 145
145 145 145
145 145 145
146 146 146
148 148 148
152 152 152
151 151 151
151 151 151
154 154 154
151 151 151
152 152 152
155 155 155
157 157 157
157 157 157
157 157 157
153 153 153
151 151 151
146 146 146
146 146 146
154 154 154
151 151 151
146 146 146
149 149 149
148 148 148
140 140 140
139 139 139
139 139 139
140 140 140
159 159 159
162 162 162
160 160 160
158 158 158
159 159 159
163 163 163
161 161 161
155 155 155
151 151 151
154 154 154
159 159 159
162 162 162
163 163 163
164 164 164
168 168 168
168 168 168
162 162 162
127 127 127
131 131 131
136 136 136
146 146 146
155 155 155
155 155 155
151 151 151
146 146 146
142 142 142
143 143 143
145 145 145
148 148 148
148 148 148
148 148 148
148 148 148
149 149 149
149 149 149
146 146 146
147 147 147
147 147 147
149 149 149
148 148 148
148 148 148
152 152 152
157 157 157
157 157 157
161 161 161
157 157 157
153 153 153
153 153 153
154 154 154
156 156 156
156 156 156
155 155 155
153 153 153
149 149 149
143 143 143
143 143 143
147 147 147
149 149 149
148 148 148
146 146 146
143 143 143
138 138 138
139 139 139
139 139 139
142 142 142
152 152 152
165 165 165
171 171 171
173 173 173
173 173 173
174 174 174
173 173 173
171 171 171
168 168 168
163 163 163
156 156 156
160 160 160
161 161 161
162 162 162
165 165 165
166 166 166
161 161 161
127 127 127
129 129 129
137 137 137
147 147 147
155 155 155
153 153 153
149 149 149
146 146 146
145 145 145
146 146 146
149 149 149
151 151 151
151 151 151
151 151 151
152 152 152
153 153 153
154 154 154
151 151 151
152 152 152
151 151 151
154 154 154
152 152 152
152 152 152
158 158 158
166 166 166
164 164 164
165 165 165
172 172 172
167 167 167
159 159 159
158 158 158
160 160 160
161 161 161
158 158 158
155 155 155
150 150 150
145 145 145
146 146 146
145 145 145
144 144 144
142 142 142
140 140 140
138 138 138
139 139 139
140 140 140
141 141 141
145 145 145
151 151 151
170 170 170
175 175 175
175 175 175
173 173 173
172 172 172
171 171 171
169 169 169
168 168 168
170 170 170
169 169 169
155 155 155
160 160 160
163 163 163
165 165 165
164 164 164
161 161 161
124 124 124
129 129 129
141 141 141
150 150 150
155 155 155
152 152 152
151 151 151
151 151 151
151 151 151
153 153 153
154 154 154
156 156 156
157 157 157
158 158 158
157 157 157
157 157 157
156 156 156
152 152 152
151 151 151
151 151 151
153 153 153
152 152 152
153 153 153
159 159 159
169 169 169
173 173 173
173 173 173
171 171 171
173 173 173
164 164 164
159 159 159
161 161 161
162 162 162
161 161 161
159 159 159
155 155 155
148 148 148
146 146 146
142 142 142
142 142 142
141 141 141
140 140 140
140 140 140
143 143 143
145 145 145
149 149 149
154 154 154
164 164 164
180 180 180
178 178 178
177 177 177
175 175 175
169 169 169
161 161 161
157 157 157
153 153 153
156 156 156
162 162 162
158 158 158
159 159 159
162 162 162
165 165 165
164 164 164
161 161 161
121 121 121
128 128 128
140 140 140
148 148 148
151 151 151
151 151 151
156 156 156
157 157 157
159 159 159
159 159 159
154 154 154
154 154 154
157 157 157
159 159 159
159 159 159
160 160 160
159 159 159
157 157 157
157 157 157
156 156 156
158 158 158
156 156 156
155 155 155
155 155 155
159 159 159
165 165 165
168 168 168
168 168 168
170 170 170
165 165 165
160 160 160
159 159 159
160 160 160
158 158 158
160 160 160
155 155 155
148 148 148
146 146 146
142 142 142
141 141 141
142 142 142
142 142 142
144 144 144
147 147 147
151 151 151
155 155 155
157 157 157
163 163 163
179 179 179
182 182 182
181 181 181
180 180 180
175 175 175
163 163 163
156 156 156
148 148 148
147 147 147
154 154 154
159 159 159
160 160 160
160 160 160
164 164 164
164 164 164
162 162 162
122 122 122
138 138 138
148 148 148
146 146 146
147 147 147
151 151 151
160 160 160
163 163 163
163 163 163
158 158 158
149 149 149
152 152 152
159 159 159
158 158 158
157 157 157
158 158 158
156 156 156
158 158 158
159 159 159
157 157 157
158 158 158
154 154 154
150 150 150
146 146 146
146 146 146
149 149 149
154 154 154
167 167 167
169 169 169
167 167 167
162 162 162
159 159 159
159 159 159
158 158 158
153 153 153
149 149 149
147 147 147
146 146 146
142 142 142
143 143 143
145 145 145
149 149 149
151 151 151
153 153 153
154 154 154
154 154 154
154 154 154
155 155 155
162 162 162
171 171 171
174 174 174
173 173 173
165 165 165
160 160 160
158 158 158
151 151 151
148 148 148
153 153 153
160 160 160
160 160 160
161 161 161
164 164 164
162 162 162
161 161 161
122 122 122
134 134 134
139 139 139
139 139 139
145 145 145
151 151 151
162 162 162
166 166 166
164 164 164
157 157 157
154 154 154
157 157 157
157 157 157
155 155 155
156 156 156
156 156 156
154 154 154
155 155 155
158 158 158
158 158 158
159 159 159
155 155 155
150 150 150
147 147 147
144 144 144
144 144 144
149 149 149
159 159 159
165 165 165
163 163 163
157 157 157
155 155 155
154 154 154
152 152 152
149 149 149
146 146 146
145 145 145
146 146 146
145 145 145
151 151 151
152 152 152
156 156 156
159 159 159
157 157 157
157 157 157
152 152 152
148 148 148
149 149 149
150 150 150
156 156 156
161 161 161
163 163 163
159 159 159
155 155 155
158 158 158
155 155 155
151 151 151
153 153 153
159 159 159
161 161 161
169 169 169
171 171 171
160 160 160
160 160 160
121 121 121
128 128 128
133 133 133
142 142 142
148 148 148
152 152 152
161 161 161
166 166 166
165 165 165
162 162 162
160 160 160
157 157 157
154 154 154
157 157 157
157 157 157
155 155 155
151 151 151
152 152 152
155 155 155
157 157 157
157 157 157
156 156 156
153 153 153
151 151 151
148 148 148
146 146 146
150 150 150
155 155 155
163 163 163
161 161 161
157 157 157
156 156 156
155 155 155
152 152 152
150 150 150
148 148 148
146 146 146
146 146 146
150 150 150
159 159 159
157 157 157
158 158 158
161 161 161
160 160 160
161 161 161
159 159 159
151 151 151
147 147 147
148 148 148
152 152 152
154 154 154
154 154 154
156 156 156
158 158 158
158 158 158
159 159 159
159 159 159
156 156 156
156 156 156
158 158 158
161 161 161
165 165 165
166 166 166
160 160 160
122 122 122
127 127 127
131 131 131
141 141 141
146 146 146
149 149 149
156 156 156
163 163 163
164 164 164
165 165 165
163 163 163
160 160 160
159 159 159
160 160 160
159 159 159
157 157 157
154 154 154
154 154 154
156 156 156
154 154 154
153 153 153
154 154 154
155 155 155
155 155 155
152 152 152
151 151 151
151 151 151
154 154 154
164 164 164
160 160 160
156 156 156
154 154 154
154 154 154
152 152 152
150 150 150
149 149 149
145 145 145
147 147 147
153 153 153
159 159 159
160 160 160
159 159 159
157 157 157
157 157 157
158 158 158
159 159 159
156 156 156
154 154 154
155 155 155
157 157 157
156 156 156
151 151 151
149 149 149
156 156 156
162 162 162
164 164 164
166 166 166
163 163 163
159 159 159
157 157 157
155 155 155
156 156 156
154 154 154
155 155 155
120 120 120
122 122 122
126 126 126
137 137 137
147 147 147
149 149 149
160 160 160
169 169 169
170 170 170
168 168 168
166 166 166
163 163 163
161 161 161
159 159 159
155 155 155
152 152 152
151 151 151
151 151 151
152 152 152
150 150 150
150 150 150
152 152 152
154 154 154
153 153 153
153 153 153
155 155 155
146 146 146
154 154 154
163 163 163
160 160 160
156 156 156
154 154 154
153 153 153
152 152 152
150 150 150
149 149 149
144 144 144
146 146 146
152 152 152
156 156 156
159 159 159
159 159 159
156 156 156
156 156 156
155 155 155
157 157 157
158 158 158
157 157 157
159 159 159
160 160 160
157 157 157
152 152 152
151 151 151
156 156 156
162 162 162
166 166 166
166 166 166
164 164 164
160 160 160
157 157 157
156 156 156
159 159 159
156 156 156
150 150 150
123 123 123
123 123 123
120 120 120
132 132 132
145 145 145
153 153 153
165 165 165
169 169 169
170 170 170
169 169 169
166 166 166
164 164 164
162 162 162
157 157 157
150 150 150
147 147 147
145 145 145
146 146 146
148 148 148
149 149 149
150 150 150
151 151 151
153 153 153
151 151 151
155 155 155
153 153 153
144 144 144
155 155 155
162 162 162
160 160 160
156 156 156
153 153 153
152 152 152
152 152 152
151 151 151
149 149 149
144 144 144
144 144 144
152 152 152
158 158 158
158 158 158
160 160 160
157 157 157
154 154 154
154 154 154
154 154 154
154 154 154
153 153 153
154 154 154
155 155 155
155 155 155
153 153 153
154 154 154
158 158 158
163 163 163
165 165 165
168 168 168
167 167 167
162 162 162
156 156 156
155 155 155
157 157 157
154 154 154
149 149 149
135 135 135
132 132 132
126 126 126
133 133 133
144 144 144
152 152 152
160 160 160
165 165 165
165 165 165
165 165 165
164 164 164
164 164 164
162 162 162
156 156 156
149 149 149
145 145 145
144 144 144
146 146 146
148 148 148
150 150 150
152 152 152
154 154 154
157 157 157
159 159 159
157 157 157
147 147 147
144 144 144
157 157 157
161 161 161
159 159 159
156 156 156
153 153 153
151 151 151
152 152 152
152 152 152
150 150 150
146 146 146
145 145 145
152 152 152
159 159 159
160 160 160
161 161 161
160 160 160
158 158 158
156 156 156
154 154 154
154 154 154
153 153 153
152 152 152
153 153 153
153 153 153
154 154 154
154 154 154
157 157 157
161 161 161
164 164 164
165 165 165
166 166 166
163 163 163
156 156 156
155 155 155
159 159 159
155 155 155
148 148 148
146 146 146
139 139 139
132 132 132
139 139 139
145 145 145
151 151 151
158 158 158
163 163 163
163 163 163
162 162 162
162 162 162
163 163 163
163 163 163
159 159 159
155 155 155
152 152 152
152 152 152
153 153 153
155 155 155
156 156 156
158 158 158
160 160 160
163 163 163
163 163 163
155 155 155
144 144 144
148 148 148
159 159 159
161 161 161
158 158 158
155 155 155
153 153 153
153 153 153
153 153 153
152 152 152
151 151 151
147 147 147
145 145 145
147 147 147
157 157 157
161 161 161
162 162 162
161 161 161
161 161 161
161 161 161
159 159 159
157 157 157
156 156 156
154 154 154
154 154 154
154 154 154
154 154 154
155 155 155
156 156 156
157 157 157
162 162 162
163 163 163
164 164 164
161 161 161
155 155 155
155 155 155
157 157 157
155 155 155
150 150 150
142 142 142
136 136 136
133 133 133
143 143 143
148 148 148
152 152 152
157 157 157
160 160 160
161 161 161
160 160 160
158 158 158
159 159 159
158 158 158
158 158 158
157 157 157
156 156 156
155 155 155
156 156 156
157 157 157
158 158 158
160 160 160
161 161 161
162 162 162
159 159 159
153 153 153
147 147 147
152 152 152
159 159 159
159 159 159
156 156 156
153 153 153
153 153 153
155 155 155
154 154 154
152 152 152
151 151 151
148 148 148
146 146 146
145 145 145
149 149 149
157 157 157
160 160 160
161 161 161
160 160 160
160 160 160
161 161 161
161 161 161
161 161 161
160 160 160
159 159 159
158 158 158
156 156 156
155 155 155
155 155 155
157 157 157
159 159 159
160 160 160
161 161 161
158 158 158
154 154 154
156 156 156
157 157 157
157 157 157
153 153 153
138 138 138
132 132 132
134 134 134
146 146 146
151 151 151
152 152 152
155 155 155
157 157 157
158 158 158
157 157 157
157 157 157
156 156 156
154 154 154
152 152 152
151 151 151
151 151 151
150 150 150
152 152 152
155 155 155
157 157 157
157 157 157
155 155 155
154 154 154
155 155 155
156 156 156
151 151 151
153 153 153
157 157 157
156 156 156
153 153 153
153 153 153
154 154 154
155 155 155
153 153 153
152 152 152
152 152 152
148 148 148
146 146 146
148 148 148
146 146 146
150 150 150
156 156 156
158 158 158
158 158 158
158 158 158
158 158 158
159 159 159
158 158 158
158 158 158
158 158 158
158 158 158
156 156 156
155 155 155
154 154 154
155 155 155
156 156 156
157 157 157
158 158 158
155 155 155
153 153 153
157 157 157
158 158 158
158 158 158
155 155 155
137 137 137
132 132 132
138 138 138
149 149 149
153 153 153
153 153 153
153 153 153
154 154 154
155 155 155
156 156 156
155 155 155
153 153 153
150 150 150
149 149 149
148 148 148
148 148 148
149 149 149
150 150 150
151 151 151
152 152 152
149 149 149
147 147 147
153 153 153
159 159 159
157 157 157
152 152 152
154 154 154
157 157 157
155 155 155
152 152 152
153 153 153
155 155 155
155 155 155
153 153 153
153 153 153
152 152 152
149 149 149
146 146 146
148 148 148
151 151 151
147 147 147
149 149 149
155 155 155
154 154 154
155 155 155
156 156 156
156 156 156
156 156 156
155 155 155
155 155 155
155 155 155
154 154 154
153 153 153
152 152 152
153 153 153
154 154 154
156 156 156
155 155 155
152 152 152
154 154 154
159 159 159
159 159 159
157 157 157
154 154 154
138 138 138
134 134 134
141 141 141
150 150 150
153 153 153
154 154 154
154 154 154
154 154 154
153 153 153
151 151 151
151 151 151
150 150 150
149 149 149
148 148 148
147 147 147
147 147 147
147 147 147
147 147 147
145 145 145
144 144 144
144 144 144
149 149 149
157 157 157
157 157 157
155 155 155
152 152 152
156 156 156
158 158 158
155 155 155
152 152 152
153 153 153
156 156 156
156 156 156
154 154 154
153 153 153
152 152 152
150 150 150
146 146 146
147 147 147
151 151 151
150 150 150
149 149 149
148 148 148
149 149 149
151 151 151
153 153 153
154 154 154
155 155 155
155 155 155
155 155 155
154 154 154
154 154 154
151 151 151
151 151 151
152 152 152
153 153 153
153 153 153
152 152 152
152 152 152
156 156 156
159 159 159
158 158 158
156 156 156
154 154 154
138 138 138
136 136 136
143 143 143
150 150 150
153 153 153
154 154 154
154 154 154
154 154 154
153 153 153
152 152 152
151 151 151
149 149 149
146 146 146
145 145 145
144 144 144
143 143 143
143 143 143
143 143 143
144 144 144
145 145 145
146 146 146
150 150 150
154 154 154
154 154 154
154 154 154
153 153 153
156 156 156
159 159 159
155 155 155
151 151 151
152 152 152
155 155 155
156 156 156
155 155 155
154 154 154
153 153 153
151 151 151
147 147 147
147 147 147
149 149 149
150 150 150
152 152 152
152 152 152
146 146 146
144 144 144
147 147 147
149 149 149
151 151 151
151 151 151
151 151 151
151 151 151
150 150 150
147 147 147
147 147 147
148 148 148
149 149 149
151 151 151
154 154 154
156 156 156
159 159 159
160 160 160
157 157 157
155 155 155
154 154 154
137 137 137
136 136 136
143 143 143
151 151 151
154 154 154
155 155 155
155 155 155
154 154 154
153 153 153
153 153 153
153 153 153
151 151 151
149 149 149
148 148 148
146 146 146
145 145 145
144 144 144
144 144 144
144 144 144
144 144 144
146 146 146
148 148 148
150 150 150
151 151 151
152 152 152
151 151 151
153 153 153
157 157 157
153 153 153
149 149 149
148 148 148
151 151 151
152 152 152
153 153 153
152 152 152
150 150 150
149 149 149
147 147 147
147 147 147
147 147 147
147 147 147
151 151 151
154 154 154
151 151 151
147 147 147
145 145 145
146 146 146
146 146 146
145 145 145
145 145 145
145 145 145
144 144 144
143 143 143
144 144 144
145 145 145
148 148 148
153 153 153
157 157 157
159 159 159
160 160 160
160 160 160
155 155 155
154 154 154
154 154 154
137 137 137
138 138 138
146 146 146
153 153 153
155 155 155
155 155 155
155 155 155
153 153 153
152 152 152
152 152 152
150 150 150
147 147 147
146 146 146
144 144 144
143 143 143
142 142 142
142 142 142
142 142 142
143 143 143
144 144 144
146 146 146
147 147 147
146 146 146
150 150 150
150 150 150
145 145 145
146 146 146
151 151 151
149 149 149
144 144 144
144 144 144
145 145 145
147 147 147
148 148 148
147 147 147
144 144 144
143 143 143
144 144 144
147 147 147
149 149 149
146 146 146
148 148 148
152 152 152
151 151 151
149 149 149
147 147 147
146 146 146
145 145 145
145 145 145
145 145 145
145 145 145
144 144 144
144 144 144
145 145 145
146 146 146
149 149 149
153 153 153
157 157 157
160 160 160
161 161 161
159 159 159
154 154 154
153 153 153
154 154 154
137 137 137
140 140 140
149 149 149
155 155 155
155 155 155
154 154 154
154 154 154
153 153 153
152 152 152
150 150 150
147 147 147
144 144 144
143 143 143
142 142 142
142 142 142
141 141 141
142 142 142
143 143 143
144 144 144
144 144 144
146 146 146
146 146 146
145 145 145
149 149 149
146 146 146
137 137 137
133 133 133
141 141 141
145 145 145
140 140 140
137 137 137
139 139 139
141 141 141
141 141 141
138 138 138
133 133 133
132 132 132
136 136 136
143 143 143
150 150 150
151 151 151
151 151 151
151 151 151
150 150 150
149 149 149
146 146 146
144 144 144
144 144 144
143 143 143
143 143 143
143 143 143
143 143 143
143 143 143
144 144 144
146 146 146
149 149 149
153 153 153
158 158 158
160 160 160
160 160 160
158 158 158
153 153 153
153 153 153
152 152 152
135 135 135
142 142 142
149 149 149
154 154 154
153 153 153
152 152 152
152 152 152
152 152 152
152 152 152
149 149 149
146 146 146
144 144 144
143 143 143
143 143 143
143 143 143
144 144 144
143 143 143
144 144 144
144 144 144
144 144 144
144 144 144
145 145 145
143 143 143
146 146 146
142 142 142
130 130 130
123 123 123
131 131 131
143 143 143
140 140 140
132 132 132
133 133 133
135 135 135
136 136 136
131 131 131
125 125 125
124 124 124
129 129 129
139 139 139
149 149 149
154 154 154
156 156 156
155 155 155
151 151 151
149 149 149
145 145 145
143 143 143
143 143 143
142 142 142
142 142 142
142 142 142
142 142 142
142 142 142
144 144 144
146 146 146
149 149 149
153 153 153
157 157 157
159 159 159
159 159 159
157 157 157
153 153 153
152 152 152
149 149 149
132 132 132
141 141 141
148 148 148
153 153 153
152 152 152
151 151 151
151 151 151
152 152 152
151 151 151
149 149 149
147 147 147
146 146 146
144 144 144
145 145 145
145 145 145
145 145 145
145 145 145
144 144 144
144 144 144
144 144 144
146 146 146
145 145 145
143 143 143
142 142 142
142 142 142
133 133 133
124 124 124
134 134 134
146 146 146
143 143 143
132 132 132
128 128 128
132 132 132
135 135 135
133 133 133
127 127 127
124 124 124
128 128 128
138 138 138
149 149 149
155 155 155
157 157 157
159 159 159
156 156 156
153 153 153
150 150 150
146 146 146
145 145 145
143 143 143
142 142 142
141 141 141
142 142 142
142 142 142
144 144 144
146 146 146
150 150 150
154 154 154
157 157 157
158 158 158
158 158 158
156 156 156
151 151 151
149 149 149
148 148 148
126 126 126
139 139 139
147 147 147
153 153 153
152 152 152
150 150 150
151 151 151
151 151 151
151 151 151
149 149 149
148 148 148
147 147 147
147 147 147
146 146 146
146 146 146
146 146 146
145 145 145
145 145 145
145 145 145
147 147 147
149 149 149
150 150 150
146 146 146
144 144 144
142 142 142
139 139 139
137 137 137
143 143 143
146 146 146
141 141 141
130 130 130
126 126 126
130 130 130
135 135 135
138 138 138
134 134 134
130 130 130
131 131 131
139 139 139
149 149 149
155 155 155
157 157 157
161 161 161
161 161 161
158 158 158
155 155 155
152 152 152
149 149 149
148 148 148
146 146 146
145 145 145
146 146 146
146 146 146
147 147 147
149 149 149
151 151 151
155 155 155
156 156 156
156 156 156
157 157 157
155 155 155
150 150 150
145 145 145
149 149 149
124 124 124
135 135 135
145 145 145
151 151 151
151 151 151
150 150 150
150 150 150
151 151 151
150 150 150
149 149 149
149 149 149
148 148 148
148 148 148
147 147 147
147 147 147
146 146 146
145 145 145
144 144 144
147 147 147
151 151 151
155 155 155
156 156 156
152 152 152
149 149 149
147 147 147
146 146 146
146 146 146
149 149 149
144 144 144
136 136 136
126 126 126
125 125 125
131 131 131
138 138 138
141 141 141
141 141 141
138 138 138
139 139 139
144 144 144
149 149 149
154 154 154
157 157 157
161 161 161
163 163 163
162 162 162
159 159 159
155 155 155
153 153 153
151 151 151
150 150 150
149 149 149
149 149 149
150 150 150
150 150 150
152 152 152
153 153 153
154 154 154
156 156 156
155 155 155
155 155 155
154 154 154
148 148 148
144 144 144
150 150 150
122 122 122
131 131 131
142 142 142
149 149 149
151 151 151
150 150 150
149 149 149
150 150 150
150 150 150
149 149 149
150 150 150
149 149 149
149 149 149
148 148 148
147 147 147
146 146 146
145 145 145
147 147 147
151 151 151
156 156 156
159 159 159
159 159 159
156 156 156
154 154 154
152 152 152
152 152 152
152 152 152
150 150 150
141 141 141
131 131 131
127 127 127
128 128 128
134 134 134
140 140 140
143 143 143
146 146 146
147 147 147
147 147 147
149 149 149
152 152 152
154 154 154
157 157 157
161 161 161
164 164 164
164 164 164
161 161 161
158 158 158
155 155 155
152 152 152
152 152 152
152 152 152
152 152 152
152 152 152
152 152 152
153 153 153
154 154 154
154 154 154
155 155 155
154 154 154
154 154 154
152 152 152
147 147 147
147 147 147
151 151 151
122 122 122
127 127 127
138 138 138
149 149 149
151 151 151
151 151 151
150 150 150
150 150 150
150 150 150
150 150 150
151 151 151
150 150 150
149 149 149
148 148 148
147 147 147
147 147 147
147 147 147
151 151 151
156 156 156
160 160 160
160 160 160
158 158 158
157 157 157
156 156 156
154 154 154
153 153 153
153 153 153
146 146 146
138 138 138
132 132 132
131 131 131
134 134 134
139 139 139
144 144 144
145 145 145
149 149 149
151 151 151
151 151 151
151 151 151
152 152 152
153 153 153
155 155 155
160 160 160
163 163 163
163 163 163
162 162 162
160 160 160
157 157 157
154 154 154
152 152 152
152 152 152
153 153 153
153 153 153
153 153 153
153 153 153
154 154 154
154 154 154
153 153 153
153 153 153
152 152 152
150 150 150
148 148 148
150 150 150
153 153 153
123 123 123
125 125 125
135 135 135
148 148 148
152 152 152
152 152 152
151 151 151
151 151 151
150 150 150
151 151 151
152 152 152
151 151 151
150 150 150
149 149 149
147 147 147
149 149 149
151 151 151
155 155 155
160 160 160
161 161 161
160 160 160
158 158 158
154 154 154
154 154 154
154 154 154
154 154 154
151 151 151
143 143 143
137 137 137
136 136 136
137 137 137
140 140 140
144 144 144
147 147 147
148 148 148
150 150 150
152 152 152
153 153 153
154 154 154
153 153 153
152 152 152
155 155 155
159 159 159
162 162 162
162 162 162
161 161 161
160 160 160
159 159 159
156 156 156
153 153 153
152 152 152
153 153 153
153 153 153
153 153 153
154 154 154
154 154 154
154 154 154
153 153 153
152 152 152
150 150 150
148 148 148
148 148 148
150 150 150
153 153 153
125 125 125
124 124 124
134 134 134
146 146 146
152 152 152
152 152 152
152 152 152
152 152 152
151 151 151
153 153 153
153 153 153
152 152 152
150 150 150
149 149 149
150 150 150
152 152 152
154 154 154
157 157 157
160 160 160
160 160 160
158 158 158
156 156 156
152 152 152
150 150 150
151 151 151
153 153 153
150 150 150
144 144 144
140 140 140
140 140 140
141 141 141
142 142 142
145 145 145
148 148 148
149 149 149
151 151 151
153 153 153
153 153 153
154 154 154
153 153 153
153 153 153
155 155 155
158 158 158
160 160 160
161 161 161
160 160 160
159 159 159
160 160 160
158 158 158
155 155 155
153 153 153
153 153 153
153 153 153
153 153 153
153 153 153
153 153 153
152 152 152
152 152 152
150 150 150
149 149 149
147 147 147
148 148 148
152 152 152
154 154 154
126 126 126
124 124 124
132 132 132
142 142 142
151 151 151
152 152 152
153 153 153
153 153 153
152 152 152
153 153 153
154 154 154
154 154 154
151 151 151
151 151 151
153 153 153
155 155 155
156 156 156
156 156 156
157 157 157
157 157 157
155 155 155
152 152 152
149 149 149
147 147 147
146 146 146
149 149 149
149 149 149
147 147 147
144 144 144
145 145 145
146 146 146
146 146 146
148 148 148
149 149 149
150 150 150
153 153 153
154 154 154
153 153 153
153 153 153
154 154 154
154 154 154
155 155 155
156 156 156
158 158 158
160 160 160
159 159 159
159 159 159
158 158 158
159 159 159
157 157 157
155 155 155
155 155 155
154 154 154
152 152 152
152 152 152
152 152 152
151 151 151
151 151 151
149 149 149
147 147 147
146 146 146
149 149 149
152 152 152
152 152 152
126 126 126
125 125 125
128 128 128
137 137 137
150 150 150
153 153 153
152 152 152
153 153 153
152 152 152
153 153 153
155 155 155
155 155 155
152 152 152
151 151 151
154 154 154
154 154 154
152 152 152
153 153 153
153 153 153
152 152 152
150 150 150
148 148 148
145 145 145
145 145 145
144 144 144
145 145 145
147 147 147
146 146 146
146 146 146
148 148 148
150 150 150
149 149 149
151 151 151
154 154 154
154 154 154
154 154 154
154 154 154
154 154 154
154 154 154
153 153 153
153 153 153
154 154 154
154 154 154
156 156 156
157 157 157
157 157 157
158 158 158
157 157 157
158 158 158
158 158 158
157 157 157
156 156 156
156 156 156
154 154 154
151 151 151
150 150 150
149 149 149
149 149 149
148 148 148
147 147 147
144 144 144
146 146 146
148 148 148
146 146 146
126 126 126
125 125 125
126 126 126
133 133 133
147 147 147
152 152 152
151 151 151
151 151 151
152 152 152
152 152 152
154 154 154
154 154 154
153 153 153
153 153 153
154 154 154
151 151 151
148 148 148
148 148 148
147 147 147
145 145 145
143 143 143
142 142 142
141 141 141
141 141 141
140 140 140
141 141 141
143 143 143
144 144 144
146 146 146
150 150 150
151 151 151
151 151 151
153 153 153
154 154 154
155 155 155
153 153 153
153 153 153
154 154 154
154 154 154
153 153 153
153 153 153
153 153 153
153 153 153
154 154 154
153 153 153
153 153 153
154 154 154
155 155 155
157 157 157
157 157 157
157 157 157
156 156 156
156 156 156
155 155 155
151 151 151
149 149 149
149 149 149
148 148 148
147 147 147
145 145 145
139 139 139
139 139 139
141 141 141
139 139 139
126 126 126
124 124 124
124 124 124
129 129 129
143 143 143
150 150 150
150 150 150
150 150 150
151 151 151
151 151 151
153 153 153
154 154 154
154 154 154
154 154 154
152 152 152
147 147 147
142 142 142
140 140 140
139 139 139
137 137 137
137 137 137
137 137 137
136 136 136
136 136 136
137 137 137
136 136 136
137 137 137
138 138 138
142 142 142
147 147 147
149 149 149
151 151 151
151 151 151
151 151 151
151 151 151
151 151 151
150 150 150
150 150 150
151 151 151
151 151 151
151 151 151
150 150 150
151 151 151
151 151 151
150 150 150
149 149 149
149 149 149
152 152 152
153 153 153
156 156 156
157 157 157
157 157 157
155 155 155
154 154 154
151 151 151
149 149 149
148 148 148
148 148 148
145 145 145
141 141 141
134 134 134
135 135 135
136 136 136
135 135 135
126 126 126
124 124 124
123 123 123
126 126 126
137 137 137
147 147 147
150 150 150
149 149 149
150 150 150
151 151 151
151 151 151
153 153 153
154 154 154
152 152 152
151 151 151
146 146 146
138 138 138
134 134 134
132 132 132
131 131 131
131 131 131
133 133 133
133 133 133
134 134 134
134 134 134
134 134 134
133 133 133
135 135 135
139 139 139
143 143 143
146 146 146
148 148 148
147 147 147
146 146 146
147 147 147
147 147 147
146 146 146
146 146 146
147 147 147
146 146 146
147 147 147
147 147 147
147 147 147
148 148 148
146 146 146
145 145 145
146 146 146
149 149 149
151 151 151
154 154 154
156 156 156
158 158 158
155 155 155
154 154 154
151 151 151
148 148 148
147 147 147
147 147 147
143 143 143
136 136 136
131 131 131
134 134 134
133 133 133
132 132 132
126 126 126
124 124 124
123 123 123
124 124 124
132 132 132
142 142 142
149 149 149
147 147 147
147 147 147
149 149 149
149 149 149
151 151 151
151 151 151
149 149 149
149 149 149
144 144 144
138 138 138
133 133 133
135 135 135
134 134 134
134 134 134
136 136 136
135 135 135
133 133 133
134 134 134
133 133 133
134 134 134
133 133 133
137 137 137
140 140 140
143 143 143
144 144 144
145 145 145
146 146 146
147 147 147
145 145 145
145 145 145
146 146 146
146 146 146
146 146 146
146 146 146
146 146 146
146 146 146
145 145 145
145 145 145
145 145 145
146 146 146
148 148 148
150 150 150
152 152 152
154 154 154
156 156 156
155 155 155
153 153 153
151 151 151
148 148 148
147 147 147
146 146 146
141 141 141
133 133 133
130 130 130
132 132 132
131 131 131
131 131 131
125 125 125
124 124 124
123 123 123
123 123 123
128 128 128
139 139 139
147 147 147
148 148 148
145 145 145
147 147 147
148 148 148
148 148 148
149 149 149
148 148 148
147 147 147
145 145 145
141 141 141
139 139 139
140 140 140
140 140 140
140 140 140
140 140 140
142 142 142
139 139 139
136 136 136
134 134 134
133 133 133
134 134 134
136 136 136
138 138 138
140 140 140
142 142 142
144 144 144
146 146 146
146 146 146
146 146 146
146 146 146
147 147 147
146 146 146
146 146 146
147 147 147
148 148 148
149 149 149
147 147 147
147 147 147
147 147 147
147 147 147
148 148 148
150 150 150
153 153 153
154 154 154
154 154 154
154 154 154
152 152 152
151 151 151
148 148 148
146 146 146
144 144 144
139 139 139
131 131 131
130 130 130
131 131 131
130 130 130
130 130 130
126 126 126
124 124 124
123 123 123
122 122 122
125 125 125
134 134 134
143 143 143
147 147 147
143 143 143
145 145 145
147 147 147
147 147 147
147 147 147
147 147 147
145 145 145
146 146 146
145 145 145
146 146 146
147 147 147
148 148 148
146 146 146
147 147 147
149 149 149
149 149 149
145 145 145
142 142 142
140 140 140
140 140 140
139 139 139
139 139 139
140 140 140
141 141 141
143 143 143
146 146 146
148 148 148
147 147 147
147 147 147
148 148 148
148 148 148
148 148 148
150 150 150
152 152 152
152 152 152
152 152 152
150 150 150
150 150 150
150 150 150
149 149 149
151 151 151
153 153 153
153 153 153
153 153 153
153 153 153
152 152 152
150 150 150
148 148 148
145 145 145
142 142 142
135 135 135
130 130 130
130 130 130
130 130 130
129 129 129
131 131 131
127 127 127
124 124 124
124 124 124
122 122 122
123 123 123
129 129 129
139 139 139
146 146 146
143 143 143
143 143 143
145 145 145
147 147 147
145 145 145
145 145 145
145 145 145
147 147 147
148 148 148
149 149 149
152 152 152
155 155 155
155 155 155
155 155 155
152 152 152
152 152 152
150 150 150
147 147 147
145 145 145
144 144 144
145 145 145
143 143 143
144 144 144
145 145 145
145 145 145
148 148 148
149 149 149
150 150 150
150 150 150
151 151 151
152 152 152
152 152 152
153 153 153
154 154 154
155 155 155
156 156 156
154 154 154
153 153 153
153 153 153
151 151 151
152 152 152
152 152 152
153 153 153
152 152 152
153 153 153
151 151 151
148 148 148
146 146 146
143 143 143
140 140 140
132 132 132
129 129 129
130 130 130
130 130 130
130 130 130
134 134 134
129 129 129
125 125 125
124 124 124
122 122 122
122 122 122
125 125 125
134 134 134
144 144 144
144 144 144
141 141 141
143 143 143
145 145 145
145 145 145
144 144 144
145 145 145
148 148 148
151 151 151
153 153 153
157 157 157
159 159 159
159 159 159
159 159 159
158 158 158
154 154 154
152 152 152
149 149 149
146 146 146
146 146 146
145 145 145
145 145 145
144 144 144
145 145 145
146 146 146
148 148 148
150 150 150
152 152 152
154 154 154
155 155 155
158 158 158
157 157 157
156 156 156
158 158 158
158 158 158
158 158 158
156 156 156
155 155 155
154 154 154
153 153 153
152 152 152
151 151 151
153 153 153
152 152 152
152 152 152
150 150 150
148 148 148
146 146 146
143 143 143
138 138 138
129 129 129
128 128 128
129 129 129
130 130 130
132 132 132
136 136 136
130 130 130
127 127 127
125 125 125
123 123 123
123 123 123
123 123 123
128 128 128
141 141 141
144 144 144
142 142 142
141 141 141
143 143 143
144 144 144
144 144 144
147 147 147
150 150 150
153 153 153
158 158 158
161 161 161
163 163 163
163 163 163
160 160 160
160 160 160
156 156 156
152 152 152
151 151 151
148 148 148
147 147 147
146 146 146
145 145 145
145 145 145
146 146 146
146 146 146
147 147 147
150 150 150
153 153 153
154 154 154
157 157 157
160 160 160
159 159 159
159 159 159
161 161 161
161 161 161
162 162 162
161 161 161
160 160 160
158 158 158
155 155 155
153 153 153
152 152 152
152 152 152
151 151 151
151 151 151
147 147 147
147 147 147
144 144 144
143 143 143
137 137 137
127 127 127
128 128 128
128 128 128
131 131 131
135 135 135
137 137 137
131 131 131
129 129 129
125 125 125
124 124 124
124 124 124
122 122 122
124 124 124
137 137 137
143 143 143
143 143 143
140 140 140
140 140 140
143 143 143
145 145 145
146 146 146
149 149 149
153 153 153
157 157 157
161 161 161
164 164 164
164 164 164
161 161 161
158 158 158
155 155 155
151 151 151
148 148 148
147 147 147
146 146 146
144 144 144
143 143 143
143 143 143
145 145 145
146 146 146
145 145 145
147 147 147
150 150 150
152 152 152
155 155 155
158 158 158
158 158 158
160 160 160
162 162 162
163 163 163
166 166 166
164 164 164
162 162 162
158 158 158
155 155 155
154 154 154
153 153 153
152 152 152
150 150 150
148 148 148
146 146 146
145 145 145
144 144 144
144 144 144
137 137 137
126 126 126
128 128 128
129 129 129
133 133 133
136 136 136
136 136 136
131 131 131
129 129 129
126 126 126
124 124 124
124 124 124
122 122 122
123 123 123
133 133 133
140 140 140
142 142 142
141 141 141
140 140 140
141 141 141
145 145 145
147 147 147
148 148 148
150 150 150
153 153 153
154 154 154
157 157 157
159 159 159
158 158 158
156 156 156
152 152 152
148 148 148
143 143 143
143 143 143
143 143 143
141 141 141
140 140 140
141 141 141
141 141 141
142 142 142
142 142 142
143 143 143
145 145 145
149 149 149
151 151 151
154 154 154
155 155 155
159 159 159
162 162 162
163 163 163
164 164 164
161 161 161
159 159 159
157 157 157
155 155 155
154 154 154
153 153 153
151 151 151
149 149 149
147 147 147
146 146 146
144 144 144
145 145 145
145 145 145
138 138 138
126 126 126
128 128 128
130 130 130
135 135 135
138 138 138
136 136 136
131 131 131
129 129 129
128 128 128
126 126 126
125 125 125
122 122 122
124 124 124
130 130 130
136 136 136
141 141 141
142 142 142
141 141 141
140 140 140
143 143 143
146 146 146
147 147 147
147 147 147
149 149 149
150 150 150
151 151 151
152 152 152
152 152 152
152 152 152
151 151 151
145 145 145
140 140 140
140 140 140
139 139 139
136 136 136
137 137 137
138 138 138
136 136 136
137 137 137
139 139 139
139 139 139
142 142 142
145 145 145
148 148 148
151 151 151
154 154 154
159 159 159
161 161 161
161 161 161
161 161 161
158 158 158
156 156 156
155 155 155
155 155 155
155 155 155
152 152 152
150 150 150
148 148 148
147 147 147
145 145 145
144 144 144
146 146 146
144 144 144
139 139 139
126 126 126
128 128 128
132 132 132
136 136 136
139 139 139
137 137 137
130 130 130
129 129 129
128 128 128
127 127 127
125 125 125
122 122 122
125 125 125
129 129 129
133 133 133
139 139 139
142 142 142
143 143 143
142 142 142
141 141 141
144 144 144
145 145 145
145 145 145
146 146 146
147 147 147
147 147 147
147 147 147
148 148 148
148 148 148
148 148 148
144 144 144
140 140 140
142 142 142
141 141 141
139 139 139
138 138 138
139 139 139
136 136 136
137 137 137
139 139 139
141 141 141
144 144 144
147 147 147
150 150 150
151 151 151
154 154 154
159 159 159
159 159 159
158 158 158
157 157 157
155 155 155
154 154 154
153 153 153
154 154 154
153 153 153
151 151 151
149 149 149
148 148 148
146 146 146
146 146 146
146 146 146
147 147 147
145 145 145
140 140 140
127 127 127
130 130 130
134 134 134
138 138 138
139 139 139
138 138 138
130 130 130
129 129 129
128 128 128
129 129 129
126 126 126
122 122 122
125 125 125
128 128 128
133 133 133
140 140 140
144 144 144
144 144 144
143 143 143
142 142 142
143 143 143
142 142 142
142 142 142
143 143 143
144 144 144
145 145 145
144 144 144
145 145 145
146 146 146
145 145 145
143 143 143
140 140 140
140 140 140
142 142 142
143 143 143
142 142 142
142 142 142
141 141 141
141 141 141
143 143 143
146 146 146
149 149 149
151 151 151
152 152 152
153 153 153
154 154 154
157 157 157
157 157 157
156 156 156
155 155 155
153 153 153
153 153 153
152 152 152
152 152 152
151 151 151
149 149 149
149 149 149
147 147 147
147 147 147
146 146 146
147 147 147
147 147 147
145 145 145
139 139 139
129 129 129
132 132 132
135 135 135
139 139 139
140 140 140
138 138 138
131 131 131
129 129 129
128 128 128
129 129 129
126 126 126
123 123 123
123 123 123
124 124 124
132 132 132
141 141 141
146 146 146
144 144 144
143 143 143
143 143 143
142 142 142
142 142 142
140 140 140
142 142 142
142 142 142
146 146 146
145 145 145
144 144 144
145 145 145
144 144 144
144 144 144
142 142 142
142 142 142
143 143 143
145 145 145
146 146 146
145 145 145
145 145 145
146 146 146
148 148 148
151 151 151
152 152 152
152 152 152
152 152 152
153 153 153
155 155 155
156 156 156
156 156 156
156 156 156
155 155 155
154 154 154
153 153 153
152 152 152
150 150 150
149 149 149
149 149 149
148 148 148
146 146 146
147 147 147
147 147 147
147 147 147
148 148 148
146 146 146
139 139 139
131 131 131
135 135 135
136 136 136
140 140 140
140 140 140
139 139 139
131 131 131
130 130 130
128 128 128
129 129 129
127 127 127
121 121 121
119 119 119
123 123 123
133 133 133
142 142 142
146 146 146
146 146 146
142 142 142
142 142 142
143 143 143
142 142 142
139 139 139
140 140 140
141 141 141
144 144 144
146 146 146
145 145 145
147 147 147
146 146 146
144 144 144
142 142 142
144 144 144
145 145 145
146 146 146
148 148 148
148 148 148
148 148 148
148 148 148
151 151 151
152 152 152
153 153 153
153 153 153
152 152 152
154 154 154
155 155 155
156 156 156
156 156 156
156 156 156
155 155 155
154 154 154
153 153 153
151 151 151
150 150 150
149 149 149
149 149 149
149 149 149
147 147 147
147 147 147
148 148 148
148 148 148
149 149 149
145 145 145
142 142 142
133 133 133
135 135 135
137 137 137
141 141 141
140 140 140
139 139 139
131 131 131
130 130 130
128 128 128
128 128 128
126 126 126
120 120 120
120 120 120
123 123 123
135 135 135
143 143 143
147 147 147
146 146 146
144 144 144
142 142 142
142 142 142
140 140 140
139 139 139
138 138 138
138 138 138
141 141 141
144 144 144
146 146 146
147 147 147
147 147 147
144 144 144
142 142 142
144 144 144
144 144 144
144 144 144
146 146 146
146 146 146
147 147 147
147 147 147
148 148 148
150 150 150
152 152 152
153 153 153
153 153 153
154 154 154
154 154 154
156 156 156
156 156 156
156 156 156
155 155 155
153 153 153
152 152 152
149 149 149
148 148 148
149 149 149
148 148 148
148 148 148
148 148 148
148 148 148
148 148 148
148 148 148
148 148 148
146 146 146
143 143 143
135 135 135
136 136 136
138 138 138
141 141 141
140 140 140
139 139 139
131 131 131
128 128 128
125 125 125
124 124 124
123 123 123
121 121 121
120 120 120
125 125 125
134 134 134
143 143 143
147 147 147
147 147 147
145 145 145
143 143 143
141 141 141
139 139 139
138 138 138
138 138 138
136 136 136
138 138 138
141 141 141
145 145 145
147 147 147
148 148 148
145 145 145
145 145 145
146 146 146
144 144 144
144 144 144
144 144 144
145 145 145
146 146 146
146 146 146
146 146 146
148 148 148
151 151 151
153 153 153
153 153 153
152 152 152
153 153 153
156 156 156
156 156 156
155 155 155
154 154 154
151 151 151
149 149 149
148 148 148
147 147 147
147 147 147
148 148 148
148 148 148
148 148 148
148 148 148
147 147 147
149 149 149
150 150 150
147 147 147
145 145 145
137 137 137
136 136 136
138 138 138
141 141 141
141 141 141
139 139 139
126 126 126
122 122 122
121 121 121
121 121 121
123 123 123
122 122 122
121 121 121
125 125 125
134 134 134
144 144 144
148 148 148
147 147 147
145 145 145
143 143 143
141 141 141
139 139 139
138 138 138
136 136 136
136 136 136
136 136 136
139 139 139
142 142 142
146 146 146
147 147 147
146 146 146
148 148 148
148 148 148
147 147 147
146 146 146
146 146 146
147 147 147
148 148 148
147 147 147
147 147 147
149 149 149
151 151 151
152 152 152
152 152 152
151 151 151
152 152 152
154 154 154
153 153 153
152 152 152
151 151 151
149 149 149
147 147 147
146 146 146
147 147 147
148 148 148
149 149 149
149 149 149
149 149 149
148 148 148
149 149 149
150 150 150
151 151 151
149 149 149
147 147 147
139 139 139
136 136 136
138 138 138
141 141 141
141 141 141
139 139 139
122 122 122
119 119 119
119 119 119
120 120 120
123 123 123
123 123 123
122 122 122
126 126 126
134 134 134
145 145 145
149 149 149
148 148 148
147 147 147
144 144 144
142 142 142
139 139 139
137 137 137
137 137 137
136 136 136
135 135 135
137 137 137
140 140 140
142 142 142
145 145 145
145 145 145
146 146 146
146 146 146
146 146 146
146 146 146
145 145 145
147 147 147
147 147 147
146 146 146
148 148 148
148 148 148
149 149 149
149 149 149
150 150 150
150 150 150
151 151 151
152 152 152
151 151 151
149 149 149
149 149 149
147 147 147
146 146 146
145 145 145
146 146 146
148 148 148
149 149 149
148 148 148
147 147 147
150 150 150
151 151 151
152 152 152
153 153 153
150 150 150
149 149 149
140 140 140
137 137 137
138 138 138
140 140 140
140 140 140
139 139 139
120 120 120
119 119 119
119 119 119
121 121 121
123 123 123
123 123 123
123 123 123
127 127 127
135 135 135
146 146 146
150 150 150
149 149 149
146 146 146
145 145 145
142 142 142
139 139 139
138 138 138
137 137 137
135 135 135
134 134 134
135 135 135
136 136 136
139 139 139
140 140 140
140 140 140
140 140 140
141 141 141
141 141 141
141 141 141
143 143 143
143 143 143
143 143 143
144 144 144
144 144 144
145 145 145
146 146 146
146 146 146
147 147 147
148 148 148
149 149 149
149 149 149
148 148 148
147 147 147
146 146 146
145 145 145
144 144 144
145 145 145
145 145 145
147 147 147
148 148 148
146 146 146
147 147 147
150 150 150
153 153 153
154 154 154
155 155 155
152 152 152
151 151 151
142 142 142
138 138 138
138 138 138
137 137 137
139 139 139
139 139 139
118 118 118
118 118 118
118 118 118
121 121 121
122 122 122
123 123 123
123 123 123
127 127 127
137 137 137
150 150 150
152 152 152
149 149 149
146 146 146
143 143 143
142 142 142
139 139 139
139 139 139
137 137 137
134 134 134
134 134 134
134 134 134
134 134 134
135 135 135
136 136 136
135 135 135
135 135 135
135 135 135
136 136 136
138 138 138
139 139 139
141 141 141
141 141 141
141 141 141
142 142 142
143 143 143
144 144 144
145 145 145
146 146 146
145 145 145
145 145 145
145 145 145
145 145 145
144 144 144
144 144 144
143 143 143
142 142 142
145 145 145
146 146 146
147 147 147
146 146 146
147 147 147
148 148 148
150 150 150
154 154 154
155 155 155
156 156 156
154 154 154
152 152 152
144 144 144
139 139 139
139 139 139
138 138 138
137 137 137
138 138 138
117 117 117
118 118 118
118 118 118
119 119 119
121 121 121
122 122 122
123 123 123
128 128 128
141 141 141
153 153 153
154 154 154
149 149 149
145 145 145
143 143 143
141 141 141
138 138 138
140 140 140
137 137 137
133 133 133
133 133 133
134 134 134
133 133 133
133 133 133
133 133 133
132 132 132
132 132 132
132 132 132
133 133 133
134 134 134
136 136 136
138 138 138
138 138 138
139 139 139
140 140 140
140 140 140
140 140 140
141 141 141
142 142 142
141 141 141
142 142 142
142 142 142
142 142 142
141 141 141
141 141 141
141 141 141
141 141 141
143 143 143
146 146 146
146 146 146
145 145 145
148 148 148
150 150 150
152 152 152
154 154 154
156 156 156
157 157 157
155 155 155
154 154 154
146 146 146
140 140 140
140 140 140
140 140 140
137 137 137
137 137 137
117 117 117
116 116 116
117 117 117
118 118 118
119 119 119
121 121 121
122 122 122
129 129 129
144 144 144
154 154 154
153 153 153
149 149 149
145 145 145
142 142 142
139 139 139
136 136 136
138 138 138
137 137 137
135 135 135
131 131 131
133 133 133
133 133 133
131 131 131
130 130 130
130 130 130
130 130 130
131 131 131
132 132 132
132 132 132
134 134 134
136 136 136
137 137 137
137 137 137
137 137 137
136 136 136
137 137 137
137 137 137
138 138 138
139 139 139
139 139 139
139 139 139
139 139 139
139 139 139
139 139 139
139 139 139
141 141 141
143 143 143
145 145 145
145 145 145
146 146 146
149 149 149
152 152 152
154 154 154
156 156 156
157 157 157
158 158 158
156 156 156
155 155 155
147 147 147
140 140 140
140 140 140
140 140 140
138 138 138
136 136 136
