P3
64 64
255
90 90 90
71 71 71
57 57 57
63 63 63
78 78 78
95 95 95
114 114 114
131 131 131
143 143 143
147 147 147
149 149 149
150 150 150
150 150 150
148 148 148
146 146 146
145 145 145
144 144 144
142 142 142
143 143 143
145 145 145
145 145 145
145 145 145
146 146 146
148 148 148
149 149 149
150 150 150
152 152 152
155 155 155
158 158 158
162 162 162
165 165 165
163 163 163
164 164 164
166 166 166
168 168 168
171 171 171
176 176 176
181 181 181
184 184 184
186 186 186
190 190 190
193 193 193
198 198 198
201 201 201
203 203 203
206 206 206
209 209 209
213 213 213
215 215 215
215 215 215
217 217 217
218 218 218
218 218 218
219 219 219
216 216 216
213 213 213
214 214 214
216 216 216
213 213 213
207 207 207
200 200 200
204 204 204
215 215 215
198 198 198
82 82 82
62 62 62
51 51 51
61 61 61
77 77 77
93 93 93
110 110 110
128 128 128
143 143 143
148 148 148
149 149 149
150 150 150
149 149 149
146 146 146
144 144 144
143 143 143
143 143 143
141 141 141
143 143 143
143 143 143
143 143 143
145 145 145
146 146 146
147 147 147
148 148 148
149 149 149
153 153 153
156 156 156
156 156 156
161 161 161
163 163 163
161 161 161
162 162 162
164 164 164
166 166 166
167 167 167
170 170 170
176 176 176
178 178 178
180 180 180
183 183 183
187 187 187
190 190 190
195 195 195
198 198 198
200 200 200
203 203 203
208 208 208
211 211 211
213 213 213
215 215 215
216 216 216
216 216 216
215 215 215
217 217 217
213 213 213
213 213 213
215 215 215
212 212 212
207 207 207
203 203 203
203 203 203
214 214 214
203 203 203
73 73 73
55 55 55
48 48 48
60 60 60
77 77 77
92 92 92
109 109 109
129 129 129
145 145 145
148 148 148
147 147 147
146 146 146
146 146 146
144 144 144
142 142 142
141 141 141
142 142 142
140 140 140
140 140 140
142 142 142
143 143 143
144 144 144
145 145 145
145 145 145
146 146 146
147 147 147
151 151 151
155 155 155
156 156 156
157 157 157
159 159 159
159 159 159
161 161 161
162 162 162
163 163 163
163 163 163
166 166 166
170 170 170
172 172 172
173 173 173
176 176 176
182 182 182
185 185 185
189 189 189
193 193 193
196 196 196
199 199 199
202 202 202
205 205 205
209 209 209
211 211 211
213 213 213
214 214 214
214 214 214
214 214 214
213 213 213
212 212 212
214 214 214
211 211 211
207 207 207
202 202 202
201 201 201
209 209 209
204 204 204
64 64 64
49 49 49
46 46 46
60 60 60
78 78 78
91 91 91
108 108 108
131 131 131
146 146 146
147 147 147
145 145 145
144 144 144
144 144 144
143 143 143
142 142 142
141 141 141
140 140 140
140 140 140
139 139 139
139 139 139
142 142 142
143 143 143
144 144 144
145 145 145
147 147 147
149 149 149
152 152 152
154 154 154
157 157 157
156 156 156
158 158 158
157 157 157
158 158 158
158 158 158
159 159 159
161 161 161
163 163 163
166 166 166
167 167 167
169 169 169
170 170 170
174 174 174
177 177 177
182 182 182
186 186 186
188 188 188
191 191 191
195 195 195
196 196 196
199 199 199
204 204 204
206 206 206
209 209 209
211 211 211
211 211 211
211 211 211
209 209 209
211 211 211
209 209 209
206 206 206
201 201 201
201 201 201
206 206 206
204 204 204
57 57 57
43 43 43
43 43 43
57 57 57
78 78 78
91 91 91
108 108 108
132 132 132
144 144 144
144 144 144
143 143 143
144 144 144
144 144 144
142 142 142
140 140 140
138 138 138
139 139 139
138 138 138
137 137 137
138 138 138
141 141 141
143 143 143
144 144 144
147 147 147
149 149 149
150 150 150
152 152 152
154 154 154
157 157 157
159 159 159
158 158 158
157 157 157
158 158 158
156 156 156
156 156 156
160 160 160
163 163 163
164 164 164
164 164 164
164 164 164
165 165 165
165 165 165
168 168 168
172 172 172
174 174 174
176 176 176
178 178 178
183 183 183
187 187 187
189 189 189
193 193 193
195 195 195
200 200 200
205 205 205
206 206 206
206 206 206
207 207 207
207 207 207
207 207 207
206 206 206
203 203 203
201 201 201
204 204 204
203 203 203
49 49 49
38 38 38
41 41 41
57 57 57
80 80 80
91 91 91
109 109 109
133 133 133
141 141 141
142 142 142
142 142 142
146 146 146
144 144 144
141 141 141
139 139 139
138 138 138
137 137 137
137 137 137
138 138 138
141 141 141
145 145 145
147 147 147
150 150 150
151 151 151
154 154 154
154 154 154
154 154 154
155 155 155
158 158 158
160 160 160
159 159 159
157 157 157
157 157 157
156 156 156
155 155 155
159 159 159
162 162 162
162 162 162
161 161 161
161 161 161
160 160 160
158 158 158
159 159 159
163 163 163
167 167 167
168 168 168
169 169 169
173 173 173
179 179 179
181 181 181
184 184 184
187 187 187
188 188 188
195 195 195
198 198 198
197 197 197
199 199 199
201 201 201
203 203 203
203 203 203
200 200 200
199 199 199
202 202 202
204 204 204
46 46 46
37 37 37
40 40 40
59 59 59
81 81 81
91 91 91
110 110 110
132 132 132
139 139 139
137 137 137
140 140 140
143 143 143
144 144 144
143 143 143
141 141 141
141 141 141
140 140 140
144 144 144
147 147 147
151 151 151
153 153 153
155 155 155
157 157 157
159 159 159
161 161 161
161 161 161
161 161 161
161 161 161
164 164 164
163 163 163
162 162 162
159 159 159
157 157 157
157 157 157
157 157 157
158 158 158
160 160 160
159 159 159
161 161 161
163 163 163
160 160 160
160 160 160
157 157 157
159 159 159
164 164 164
167 167 167
168 168 168
170 170 170
173 173 173
175 175 175
178 178 178
181 181 181
176 176 176
176 176 176
190 190 190
194 194 194
189 189 189
189 189 189
194 194 194
197 197 197
195 195 195
195 195 195
200 200 200
206 206 206
49 49 49
40 40 40
45 45 45
62 62 62
85 85 85
95 95 95
112 112 112
133 133 133
136 136 136
135 135 135
140 140 140
145 145 145
151 151 151
151 151 151
149 149 149
148 148 148
150 150 150
153 153 153
155 155 155
157 157 157
160 160 160
162 162 162
164 164 164
167 167 167
168 168 168
169 169 169
173 173 173
173 173 173
172 172 172
169 169 169
165 165 165
161 161 161
158 158 158
158 158 158
158 158 158
159 159 159
160 160 160
160 160 160
164 164 164
166 166 166
165 165 165
167 167 167
165 165 165
162 162 162
164 164 164
170 170 170
171 171 171
171 171 171
175 175 175
175 175 175
175 175 175
182 182 182
177 177 177
167 167 167
173 173 173
187 187 187
189 189 189
178 178 178
177 177 177
182 182 182
188 188 188
190 190 190
197 197 197
202 202 202
51 51 51
42 42 42
47 47 47
66 66 66
90 90 90
102 102 102
119 119 119
133 133 133
137 137 137
136 136 136
138 138 138
147 147 147
153 153 153
152 152 152
153 153 153
154 154 154
159 159 159
159 159 159
157 157 157
158 158 158
163 163 163
166 166 166
168 168 168
170 170 170
172 172 172
173 173 173
178 178 178
180 180 180
178 178 178
174 174 174
169 169 169
162 162 162
161 161 161
160 160 160
160 160 160
159 159 159
157 157 157
161 161 161
170 170 170
168 168 168
166 166 166
168 168 168
168 168 168
161 161 161
162 162 162
165 165 165
165 165 165
174 174 174
174 174 174
175 175 175
174 174 174
184 184 184
187 187 187
176 176 176
168 168 168
173 173 173
182 182 182
181 181 181
171 171 171
168 168 168
176 176 176
180 180 180
189 189 189
197 197 197
53 53 53
40 40 40
48 48 48
66 66 66
93 93 93
108 108 108
124 124 124
133 133 133
133 133 133
133 133 133
136 136 136
146 146 146
152 152 152
153 153 153
156 156 156
160 160 160
164 164 164
165 165 165
162 162 162
164 164 164
166 166 166
167 167 167
170 170 170
171 171 171
176 176 176
175 175 175
177 177 177
183 183 183
179 179 179
173 173 173
168 168 168
162 162 162
160 160 160
163 163 163
160 160 160
156 156 156
151 151 151
155 155 155
170 170 170
169 169 169
163 163 163
169 169 169
168 168 168
155 155 155
157 157 157
159 159 159
160 160 160
184 184 184
185 185 185
182 182 182
177 177 177
178 178 178
185 185 185
183 183 183
174 174 174
165 165 165
170 170 170
180 180 180
182 182 182
170 170 170
167 167 167
170 170 170
179 179 179
189 189 189
54 54 54
43 43 43
50 50 50
67 67 67
96 96 96
116 116 116
132 132 132
135 135 135
130 130 130
132 132 132
135 135 135
143 143 143
148 148 148
151 151 151
156 156 156
161 161 161
164 164 164
164 164 164
163 163 163
163 163 163
166 166 166
167 167 167
167 167 167
169 169 169
174 174 174
176 176 176
183 183 183
182 182 182
175 175 175
167 167 167
161 161 161
160 160 160
157 157 157
161 161 161
159 159 159
151 151 151
141 141 141
146 146 146
156 156 156
160 160 160
156 156 156
154 154 154
151 151 151
147 147 147
153 153 153
157 157 157
162 162 162
174 174 174
188 188 188
194 194 194
194 194 194
192 192 192
193 193 193
190 190 190
186 186 186
184 184 184
180 180 180
173 173 173
185 185 185
177 177 177
166 166 166
166 166 166
171 171 171
184 184 184
53 53 53
43 43 43
52 52 52
67 67 67
101 101 101
123 123 123
133 133 133
132 132 132
125 125 125
125 125 125
130 130 130
138 138 138
146 146 146
154 154 154
160 160 160
164 164 164
171 171 171
170 170 170
172 172 172
170 170 170
174 174 174
171 171 171
170 170 170
176 176 176
182 182 182
176 176 176
179 179 179
193 193 193
181 181 181
165 165 165
161 161 161
165 165 165
165 165 165
163 163 163
159 159 159
148 148 148
138 138 138
140 140 140
140 140 140
142 142 142
140 140 140
141 141 141
146 146 146
152 152 152
157 157 157
159 159 159
164 164 164
167 167 167
187 187 187
194 194 194
193 193 193
190 190 190
187 187 187
182 182 182
175 175 175
174 174 174
184 184 184
193 193 193
180 180 180
179 179 179
170 170 170
167 167 167
167 167 167
179 179 179
46 46 46
42 42 42
57 57 57
74 74 74
106 106 106
125 125 125
128 128 128
129 129 129
122 122 122
125 125 125
135 135 135
146 146 146
159 159 159
166 166 166
167 167 167
169 169 169
168 168 168
165 165 165
164 164 164
164 164 164
167 167 167
170 170 170
173 173 173
177 177 177
190 190 190
190 190 190
188 188 188
185 185 185
181 181 181
168 168 168
165 165 165
167 167 167
169 169 169
166 166 166
160 160 160
151 151 151
139 139 139
135 135 135
132 132 132
137 137 137
145 145 145
150 150 150
157 157 157
162 162 162
165 165 165
168 168 168
176 176 176
186 186 186
202 202 202
199 199 199
194 194 194
190 190 190
180 180 180
163 163 163
152 152 152
150 150 150
158 158 158
176 176 176
182 182 182
180 180 180
172 172 172
169 169 169
168 168 168
175 175 175
39 39 39
43 43 43
59 59 59
75 75 75
103 103 103
117 117 117
126 126 126
131 131 131
136 136 136
140 140 140
139 139 139
143 143 143
146 146 146
147 147 147
151 151 151
160 160 160
168 168 168
171 171 171
173 173 173
170 170 170
172 172 172
171 171 171
170 170 170
170 170 170
178 178 178
189 189 189
189 189 189
183 183 183
178 178 178
170 170 170
168 168 168
167 167 167
168 168 168
163 163 163
160 160 160
151 151 151
139 139 139
134 134 134
134 134 134
143 143 143
153 153 153
154 154 154
159 159 159
163 163 163
165 165 165
173 173 173
181 181 181
191 191 191
211 211 211
208 208 208
202 202 202
196 196 196
189 189 189
169 169 169
151 151 151
139 139 139
143 143 143
159 159 159
177 177 177
179 179 179
172 172 172
171 171 171
171 171 171
173 173 173
37 37 37
57 57 57
73 73 73
78 78 78
97 97 97
111 111 111
128 128 128
141 141 141
145 145 145
145 145 145
127 127 127
116 116 116
126 126 126
138 138 138
150 150 150
166 166 166
176 176 176
178 178 178
185 185 185
182 182 182
177 177 177
166 166 166
161 161 161
155 155 155
158 158 158
171 171 171
179 179 179
183 183 183
177 177 177
176 176 176
172 172 172
169 169 169
168 168 168
163 163 163
152 152 152
143 143 143
138 138 138
134 134 134
140 140 140
150 150 150
155 155 155
159 159 159
161 161 161
164 164 164
163 163 163
165 165 165
174 174 174
178 178 178
192 192 192
196 196 196
191 191 191
187 187 187
172 172 172
164 164 164
155 155 155
144 144 144
141 141 141
153 153 153
170 170 170
177 177 177
176 176 176
175 175 175
168 168 168
171 171 171
40 40 40
56 56 56
64 64 64
72 72 72
95 95 95
108 108 108
133 133 133
150 150 150
153 153 153
148 148 148
126 126 126
117 117 117
133 133 133
150 150 150
157 157 157
165 165 165
163 163 163
168 168 168
172 172 172
175 175 175
172 172 172
166 166 166
165 165 165
162 162 162
156 156 156
160 160 160
171 171 171
178 178 178
174 174 174
173 173 173
165 165 165
165 165 165
163 163 163
158 158 158
146 146 146
138 138 138
134 134 134
136 136 136
146 146 146
164 164 164
163 163 163
171 171 171
176 176 176
176 176 176
170 170 170
156 156 156
146 146 146
154 154 154
163 163 163
176 176 176
173 173 173
174 174 174
164 164 164
154 154 154
158 158 158
153 153 153
147 147 147
149 149 149
163 163 163
172 172 172
186 186 186
183 183 183
164 164 164
168 168 168
44 44 44
52 52 52
56 56 56
77 77 77
102 102 102
114 114 114
134 134 134
154 154 154
159 159 159
155 155 155
146 146 146
144 144 144
154 154 154
165 165 165
164 164 164
169 169 169
157 157 157
158 158 158
162 162 162
165 165 165
166 166 166
168 168 168
172 172 172
177 177 177
173 173 173
165 165 165
166 166 166
170 170 170
171 171 171
170 170 170
165 165 165
166 166 166
164 164 164
158 158 158
147 147 147
141 141 141
135 135 135
138 138 138
152 152 152
175 175 175
173 173 173
184 184 184
188 188 188
190 190 190
185 185 185
176 176 176
158 158 158
157 157 157
155 155 155
163 163 163
152 152 152
159 159 159
170 170 170
166 166 166
160 160 160
164 164 164
165 165 165
156 156 156
157 157 157
165 165 165
175 175 175
179 179 179
174 174 174
165 165 165
51 51 51
55 55 55
58 58 58
80 80 80
101 101 101
115 115 115
129 129 129
149 149 149
154 154 154
160 160 160
171 171 171
172 172 172
175 175 175
172 172 172
166 166 166
173 173 173
161 161 161
155 155 155
163 163 163
164 164 164
168 168 168
172 172 172
173 173 173
179 179 179
174 174 174
166 166 166
164 164 164
162 162 162
170 170 170
168 168 168
164 164 164
162 162 162
162 162 162
155 155 155
147 147 147
144 144 144
136 136 136
143 143 143
159 159 159
172 172 172
178 178 178
185 185 185
185 185 185
192 192 192
185 185 185
178 178 178
172 172 172
165 165 165
168 168 168
171 171 171
163 163 163
159 159 159
159 159 159
175 175 175
184 184 184
181 181 181
181 181 181
171 171 171
159 159 159
159 159 159
164 164 164
169 169 169
162 162 162
162 162 162
55 55 55
52 52 52
54 54 54
79 79 79
107 107 107
114 114 114
131 131 131
156 156 156
162 162 162
167 167 167
177 177 177
178 178 178
175 175 175
170 170 170
164 164 164
160 160 160
159 159 159
158 158 158
162 162 162
165 165 165
173 173 173
178 178 178
178 178 178
176 176 176
179 179 179
174 174 174
149 149 149
155 155 155
169 169 169
166 166 166
164 164 164
160 160 160
158 158 158
154 154 154
147 147 147
143 143 143
136 136 136
147 147 147
162 162 162
169 169 169
179 179 179
183 183 183
184 184 184
192 192 192
188 188 188
182 182 182
178 178 178
172 172 172
177 177 177
178 178 178
171 171 171
163 163 163
160 160 160
175 175 175
190 190 190
192 192 192
185 185 185
176 176 176
164 164 164
163 163 163
167 167 167
173 173 173
165 165 165
158 158 158
69 69 69
57 57 57
47 47 47
67 67 67
102 102 102
117 117 117
138 138 138
154 154 154
162 162 162
166 166 166
165 165 165
166 166 166
167 167 167
164 164 164
158 158 158
157 157 157
157 157 157
161 161 161
169 169 169
173 173 173
179 179 179
180 180 180
182 182 182
175 175 175
175 175 175
164 164 164
140 140 140
152 152 152
165 165 165
166 166 166
162 162 162
155 155 155
153 153 153
152 152 152
148 148 148
142 142 142
137 137 137
145 145 145
164 164 164
174 174 174
178 178 178
187 187 187
186 186 186
187 187 187
190 190 190
187 187 187
182 182 182
176 176 176
177 177 177
178 178 178
176 176 176
169 169 169
166 166 166
177 177 177
187 187 187
189 189 189
187 187 187
179 179 179
167 167 167
161 161 161
166 166 166
168 168 168
164 164 164
161 161 161
93 93 93
72 72 72
54 54 54
64 64 64
98 98 98
112 112 112
131 131 131
150 150 150
155 155 155
157 157 157
156 156 156
162 162 162
165 165 165
161 161 161
156 156 156
157 157 157
159 159 159
164 164 164
170 170 170
172 172 172
177 177 177
181 181 181
183 183 183
179 179 179
169 169 169
147 147 147
137 137 137
153 153 153
164 164 164
164 164 164
158 158 158
153 153 153
150 150 150
150 150 150
148 148 148
144 144 144
139 139 139
144 144 144
163 163 163
174 174 174
179 179 179
186 186 186
189 189 189
189 189 189
190 190 190
192 192 192
190 190 190
183 183 183
179 179 179
178 178 178
174 174 174
170 170 170
165 165 165
169 169 169
182 182 182
185 185 185
180 180 180
175 175 175
171 171 171
163 163 163
167 167 167
168 168 168
165 165 165
163 163 163
117 117 117
82 82 82
64 64 64
73 73 73
97 97 97
114 114 114
130 130 130
151 151 151
153 153 153
153 153 153
153 153 153
158 158 158
163 163 163
166 166 166
164 164 164
163 163 163
165 165 165
167 167 167
171 171 171
173 173 173
175 175 175
176 176 176
177 177 177
173 173 173
155 155 155
137 137 137
140 140 140
154 154 154
163 163 163
160 160 160
155 155 155
151 151 151
153 153 153
151 151 151
146 146 146
145 145 145
144 144 144
144 144 144
154 154 154
168 168 168
175 175 175
181 181 181
185 185 185
188 188 188
191 191 191
191 191 191
192 192 192
188 188 188
184 184 184
182 182 182
179 179 179
174 174 174
170 170 170
170 170 170
173 173 173
181 181 181
179 179 179
179 179 179
175 175 175
166 166 166
165 165 165
164 164 164
163 163 163
167 167 167
117 117 117
79 79 79
66 66 66
77 77 77
101 101 101
117 117 117
133 133 133
148 148 148
152 152 152
151 151 151
146 146 146
147 147 147
150 150 150
154 154 154
158 158 158
157 157 157
158 158 158
161 161 161
163 163 163
165 165 165
168 168 168
167 167 167
166 166 166
158 158 158
145 145 145
136 136 136
142 142 142
154 154 154
159 159 159
155 155 155
153 153 153
153 153 153
157 157 157
152 152 152
147 147 147
145 145 145
143 143 143
144 144 144
150 150 150
158 158 158
167 167 167
174 174 174
179 179 179
180 180 180
182 182 182
185 185 185
187 187 187
187 187 187
185 185 185
184 184 184
180 180 180
176 176 176
172 172 172
172 172 172
175 175 175
178 178 178
178 178 178
181 181 181
175 175 175
167 167 167
168 168 168
165 165 165
168 168 168
171 171 171
113 113 113
78 78 78
69 69 69
85 85 85
106 106 106
119 119 119
129 129 129
142 142 142
148 148 148
147 147 147
147 147 147
145 145 145
142 142 142
142 142 142
145 145 145
145 145 145
146 146 146
151 151 151
155 155 155
157 157 157
156 156 156
153 153 153
149 149 149
146 146 146
144 144 144
138 138 138
142 142 142
152 152 152
154 154 154
151 151 151
151 151 151
156 156 156
157 157 157
152 152 152
149 149 149
147 147 147
144 144 144
145 145 145
152 152 152
156 156 156
159 159 159
167 167 167
172 172 172
172 172 172
175 175 175
176 176 176
178 178 178
176 176 176
177 177 177
178 178 178
177 177 177
174 174 174
174 174 174
172 172 172
173 173 173
175 175 175
176 176 176
178 178 178
173 173 173
168 168 168
169 169 169
167 167 167
167 167 167
171 171 171
108 108 108
79 79 79
75 75 75
91 91 91
108 108 108
120 120 120
129 129 129
138 138 138
144 144 144
148 148 148
149 149 149
146 146 146
140 140 140
139 139 139
138 138 138
140 140 140
142 142 142
144 144 144
146 146 146
149 149 149
144 144 144
140 140 140
145 145 145
146 146 146
142 142 142
137 137 137
144 144 144
153 153 153
153 153 153
147 147 147
150 150 150
155 155 155
154 154 154
150 150 150
149 149 149
148 148 148
143 143 143
141 141 141
150 150 150
161 161 161
157 157 157
160 160 160
169 169 169
168 168 168
167 167 167
167 167 167
169 169 169
168 168 168
169 169 169
169 169 169
169 169 169
169 169 169
167 167 167
168 168 168
169 169 169
172 172 172
176 176 176
174 174 174
167 167 167
168 168 168
171 171 171
167 167 167
164 164 164
167 167 167
104 104 104
79 79 79
81 81 81
96 96 96
110 110 110
121 121 121
130 130 130
139 139 139
142 142 142
141 141 141
143 143 143
142 142 142
141 141 141
138 138 138
138 138 138
139 139 139
141 141 141
139 139 139
138 138 138
137 137 137
138 138 138
142 142 142
146 146 146
142 142 142
139 139 139
140 140 140
149 149 149
154 154 154
154 154 154
148 148 148
148 148 148
154 154 154
156 156 156
152 152 152
149 149 149
147 147 147
143 143 143
137 137 137
145 145 145
157 157 157
159 159 159
161 161 161
163 163 163
164 164 164
164 164 164
164 164 164
166 166 166
168 168 168
168 168 168
167 167 167
167 167 167
167 167 167
163 163 163
164 164 164
166 166 166
169 169 169
169 169 169
168 168 168
166 166 166
166 166 166
168 168 168
163 163 163
162 162 162
165 165 165
99 99 99
82 82 82
83 83 83
93 93 93
110 110 110
121 121 121
130 130 130
137 137 137
140 140 140
142 142 142
142 142 142
143 143 143
140 140 140
138 138 138
138 138 138
137 137 137
137 137 137
138 138 138
138 138 138
138 138 138
139 139 139
140 140 140
140 140 140
138 138 138
139 139 139
144 144 144
152 152 152
156 156 156
155 155 155
151 151 151
152 152 152
156 156 156
160 160 160
158 158 158
154 154 154
151 151 151
148 148 148
135 135 135
140 140 140
151 151 151
156 156 156
163 163 163
167 167 167
160 160 160
158 158 158
158 158 158
161 161 161
163 163 163
163 163 163
162 162 162
162 162 162
161 161 161
158 158 158
157 157 157
159 159 159
162 162 162
165 165 165
168 168 168
168 168 168
167 167 167
165 165 165
161 161 161
159 159 159
167 167 167
93 93 93
80 80 80
82 82 82
96 96 96
111 111 111
121 121 121
128 128 128
136 136 136
138 138 138
141 141 141
143 143 143
143 143 143
142 142 142
141 141 141
140 140 140
139 139 139
136 136 136
137 137 137
138 138 138
137 137 137
136 136 136
136 136 136
133 133 133
136 136 136
139 139 139
143 143 143
149 149 149
159 159 159
159 159 159
159 159 159
157 157 157
158 158 158
161 161 161
163 163 163
159 159 159
153 153 153
149 149 149
141 141 141
145 145 145
149 149 149
150 150 150
158 158 158
168 168 168
165 165 165
162 162 162
158 158 158
158 158 158
156 156 156
155 155 155
154 154 154
156 156 156
154 154 154
153 153 153
154 154 154
154 154 154
159 159 159
165 165 165
168 168 168
168 168 168
165 165 165
164 164 164
155 155 155
156 156 156
169 169 169
88 88 88
83 83 83
88 88 88
104 104 104
112 112 112
119 119 119
128 128 128
132 132 132
135 135 135
137 137 137
137 137 137
135 135 135
134 134 134
135 135 135
134 134 134
134 134 134
133 133 133
134 134 134
134 134 134
134 134 134
133 133 133
131 131 131
129 129 129
137 137 137
139 139 139
137 137 137
144 144 144
158 158 158
167 167 167
170 170 170
166 166 166
160 160 160
160 160 160
163 163 163
160 160 160
151 151 151
146 146 146
147 147 147
156 156 156
161 161 161
150 150 150
152 152 152
161 161 161
163 163 163
161 161 161
158 158 158
156 156 156
155 155 155
153 153 153
152 152 152
154 154 154
152 152 152
153 153 153
153 153 153
153 153 153
158 158 158
163 163 163
166 166 166
165 165 165
163 163 163
161 161 161
153 153 153
155 155 155
169 169 169
86 86 86
84 84 84
96 96 96
108 108 108
112 112 112
115 115 115
124 124 124
130 130 130
131 131 131
132 132 132
132 132 132
130 130 130
129 129 129
130 130 130
132 132 132
132 132 132
134 134 134
134 134 134
135 135 135
131 131 131
128 128 128
129 129 129
129 129 129
136 136 136
135 135 135
129 129 129
133 133 133
156 156 156
179 179 179
182 182 182
171 171 171
158 158 158
155 155 155
158 158 158
154 154 154
142 142 142
137 137 137
146 146 146
162 162 162
172 172 172
164 164 164
157 157 157
156 156 156
155 155 155
157 157 157
154 154 154
153 153 153
152 152 152
151 151 151
149 149 149
149 149 149
148 148 148
149 149 149
149 149 149
151 151 151
155 155 155
160 160 160
165 165 165
165 165 165
162 162 162
159 159 159
151 151 151
156 156 156
166 166 166
81 81 81
86 86 86
96 96 96
108 108 108
107 107 107
110 110 110
118 118 118
126 126 126
130 130 130
131 131 131
130 130 130
131 131 131
130 130 130
132 132 132
134 134 134
134 134 134
135 135 135
135 135 135
134 134 134
129 129 129
123 123 123
124 124 124
123 123 123
130 130 130
129 129 129
121 121 121
122 122 122
149 149 149
184 184 184
187 187 187
166 166 166
149 149 149
145 145 145
152 152 152
148 148 148
132 132 132
129 129 129
142 142 142
161 161 161
174 174 174
170 170 170
165 165 165
161 161 161
153 153 153
152 152 152
149 149 149
149 149 149
149 149 149
148 148 148
148 148 148
146 146 146
145 145 145
144 144 144
147 147 147
150 150 150
152 152 152
158 158 158
160 160 160
161 161 161
159 159 159
157 157 157
149 149 149
155 155 155
160 160 160
73 73 73
82 82 82
94 94 94
106 106 106
104 104 104
106 106 106
112 112 112
123 123 123
127 127 127
128 128 128
128 128 128
132 132 132
132 132 132
134 134 134
135 135 135
136 136 136
137 137 137
135 135 135
131 131 131
124 124 124
122 122 122
121 121 121
118 118 118
120 120 120
124 124 124
120 120 120
119 119 119
148 148 148
180 180 180
178 178 178
152 152 152
132 132 132
136 136 136
148 148 148
148 148 148
132 132 132
123 123 123
133 133 133
151 151 151
166 166 166
166 166 166
165 165 165
165 165 165
157 157 157
153 153 153
151 151 151
150 150 150
150 150 150
148 148 148
147 147 147
144 144 144
145 145 145
144 144 144
147 147 147
148 148 148
151 151 151
156 156 156
157 157 157
156 156 156
155 155 155
155 155 155
146 146 146
151 151 151
156 156 156
62 62 62
74 74 74
90 90 90
103 103 103
103 103 103
103 103 103
108 108 108
118 118 118
124 124 124
127 127 127
129 129 129
132 132 132
136 136 136
136 136 136
137 137 137
137 137 137
138 138 138
134 134 134
128 128 128
122 122 122
122 122 122
126 126 126
119 119 119
119 119 119
119 119 119
119 119 119
126 126 126
145 145 145
159 159 159
153 153 153
128 128 128
116 116 116
128 128 128
143 143 143
144 144 144
130 130 130
119 119 119
123 123 123
139 139 139
155 155 155
162 162 162
162 162 162
167 167 167
162 162 162
158 158 158
155 155 155
151 151 151
151 151 151
152 152 152
150 150 150
149 149 149
150 150 150
149 149 149
151 151 151
151 151 151
151 151 151
154 154 154
153 153 153
151 151 151
152 152 152
152 152 152
143 143 143
139 139 139
154 154 154
59 59 59
65 65 65
83 83 83
97 97 97
100 100 100
101 101 101
105 105 105
113 113 113
119 119 119
124 124 124
129 129 129
133 133 133
137 137 137
136 136 136
137 137 137
138 138 138
136 136 136
129 129 129
125 125 125
123 123 123
128 128 128
137 137 137
131 131 131
125 125 125
121 121 121
119 119 119
124 124 124
138 138 138
140 140 140
127 127 127
109 109 109
110 110 110
126 126 126
143 143 143
144 144 144
136 136 136
126 126 126
127 127 127
138 138 138
150 150 150
158 158 158
161 161 161
166 166 166
167 167 167
165 165 165
159 159 159
152 152 152
150 150 150
152 152 152
152 152 152
153 153 153
153 153 153
152 152 152
153 153 153
153 153 153
151 151 151
149 149 149
150 150 150
146 146 146
148 148 148
148 148 148
138 138 138
137 137 137
156 156 156
59 59 59
58 58 58
75 75 75
91 91 91
96 96 96
100 100 100
101 101 101
108 108 108
116 116 116
121 121 121
128 128 128
133 133 133
136 136 136
136 136 136
137 137 137
137 137 137
133 133 133
128 128 128
127 127 127
131 131 131
137 137 137
144 144 144
138 138 138
129 129 129
121 121 121
120 120 120
126 126 126
131 131 131
124 124 124
110 110 110
107 107 107
115 115 115
131 131 131
143 143 143
146 146 146
143 143 143
140 140 140
138 138 138
144 144 144
151 151 151
154 154 154
158 158 158
166 166 166
170 170 170
169 169 169
162 162 162
158 158 158
152 152 152
148 148 148
152 152 152
154 154 154
155 155 155
154 154 154
152 152 152
152 152 152
152 152 152
148 148 148
145 145 145
143 143 143
142 142 142
143 143 143
137 137 137
141 141 141
158 158 158
66 66 66
56 56 56
67 67 67
90 90 90
96 96 96
99 99 99
102 102 102
105 105 105
112 112 112
119 119 119
128 128 128
132 132 132
134 134 134
134 134 134
135 135 135
134 134 134
130 130 130
129 129 129
132 132 132
139 139 139
140 140 140
140 140 140
136 136 136
133 133 133
121 121 121
116 116 116
121 121 121
117 117 117
112 112 112
107 107 107
113 113 113
125 125 125
140 140 140
148 148 148
147 147 147
146 146 146
145 145 145
140 140 140
142 142 142
141 141 141
144 144 144
151 151 151
165 165 165
171 171 171
168 168 168
163 163 163
161 161 161
156 156 156
149 149 149
147 147 147
150 150 150
153 153 153
155 155 155
152 152 152
149 149 149
148 148 148
145 145 145
140 140 140
138 138 138
138 138 138
137 137 137
137 137 137
143 143 143
161 161 161
71 71 71
59 59 59
67 67 67
86 86 86
97 97 97
102 102 102
103 103 103
107 107 107
110 110 110
118 118 118
128 128 128
131 131 131
134 134 134
135 135 135
133 133 133
132 132 132
131 131 131
132 132 132
140 140 140
142 142 142
139 139 139
136 136 136
127 127 127
127 127 127
123 123 123
120 120 120
118 118 118
106 106 106
102 102 102
107 107 107
117 117 117
130 130 130
141 141 141
145 145 145
143 143 143
143 143 143
139 139 139
142 142 142
143 143 143
142 142 142
142 142 142
151 151 151
163 163 163
171 171 171
167 167 167
162 162 162
160 160 160
159 159 159
154 154 154
145 145 145
145 145 145
148 148 148
151 151 151
150 150 150
148 148 148
145 145 145
141 141 141
137 137 137
134 134 134
133 133 133
133 133 133
136 136 136
143 143 143
160 160 160
76 76 76
63 63 63
70 70 70
84 84 84
98 98 98
102 102 102
107 107 107
109 109 109
111 111 111
119 119 119
128 128 128
132 132 132
134 134 134
133 133 133
134 134 134
133 133 133
132 132 132
136 136 136
138 138 138
139 139 139
136 136 136
133 133 133
124 124 124
116 116 116
117 117 117
120 120 120
118 118 118
106 106 106
99 99 99
107 107 107
115 115 115
122 122 122
132 132 132
132 132 132
134 134 134
137 137 137
135 135 135
135 135 135
139 139 139
139 139 139
142 142 142
150 150 150
160 160 160
167 167 167
168 168 168
162 162 162
158 158 158
160 160 160
158 158 158
149 149 149
146 146 146
145 145 145
145 145 145
145 145 145
144 144 144
142 142 142
137 137 137
134 134 134
130 130 130
130 130 130
131 131 131
134 134 134
145 145 145
162 162 162
78 78 78
66 66 66
69 69 69
81 81 81
97 97 97
101 101 101
108 108 108
111 111 111
112 112 112
118 118 118
127 127 127
133 133 133
134 134 134
134 134 134
134 134 134
134 134 134
133 133 133
132 132 132
135 135 135
136 136 136
136 136 136
131 131 131
122 122 122
115 115 115
110 110 110
116 116 116
115 115 115
111 111 111
104 104 104
111 111 111
115 115 115
117 117 117
124 124 124
125 125 125
128 128 128
137 137 137
136 136 136
133 133 133
136 136 136
141 141 141
143 143 143
149 149 149
158 158 158
162 162 162
167 167 167
162 162 162
162 162 162
160 160 160
160 160 160
155 155 155
150 150 150
150 150 150
146 146 146
141 141 141
139 139 139
138 138 138
133 133 133
132 132 132
129 129 129
127 127 127
128 128 128
134 134 134
145 145 145
156 156 156
76 76 76
69 69 69
67 67 67
75 75 75
97 97 97
103 103 103
105 105 105
112 112 112
114 114 114
118 118 118
127 127 127
133 133 133
134 134 134
136 136 136
140 140 140
134 134 134
125 125 125
127 127 127
129 129 129
129 129 129
128 128 128
125 125 125
116 116 116
114 114 114
111 111 111
110 110 110
113 113 113
110 110 110
108 108 108
113 113 113
116 116 116
115 115 115
123 123 123
130 130 130
134 134 134
138 138 138
138 138 138
139 139 139
141 141 141
143 143 143
144 144 144
147 147 147
152 152 152
157 157 157
160 160 160
158 158 158
163 163 163
162 162 162
159 159 159
158 158 158
153 153 153
152 152 152
153 153 153
146 146 146
137 137 137
133 133 133
129 129 129
131 131 131
127 127 127
125 125 125
124 124 124
130 130 130
139 139 139
142 142 142
74 74 74
71 71 71
68 68 68
74 74 74
95 95 95
105 105 105
103 103 103
110 110 110
115 115 115
115 115 115
124 124 124
132 132 132
136 136 136
146 146 146
146 146 146
131 131 131
122 122 122
123 123 123
120 120 120
116 116 116
115 115 115
115 115 115
110 110 110
110 110 110
109 109 109
108 108 108
111 111 111
111 111 111
112 112 112
119 119 119
122 122 122
121 121 121
130 130 130
134 134 134
139 139 139
138 138 138
141 141 141
144 144 144
145 145 145
145 145 145
144 144 144
145 145 145
149 149 149
151 151 151
150 150 150
151 151 151
156 156 156
158 158 158
159 159 159
160 160 160
155 155 155
152 152 152
153 153 153
151 151 151
138 138 138
133 133 133
131 131 131
131 131 131
126 126 126
123 123 123
116 116 116
123 123 123
131 131 131
128 128 128
69 69 69
67 67 67
67 67 67
71 71 71
88 88 88
101 101 101
103 103 103
106 106 106
113 113 113
113 113 113
120 120 120
132 132 132
142 142 142
154 154 154
149 149 149
129 129 129
120 120 120
117 117 117
111 111 111
104 104 104
104 104 104
108 108 108
106 106 106
107 107 107
107 107 107
104 104 104
109 109 109
112 112 112
116 116 116
126 126 126
133 133 133
138 138 138
141 141 141
139 139 139
141 141 141
145 145 145
142 142 142
145 145 145
145 145 145
146 146 146
145 145 145
143 143 143
146 146 146
147 147 147
144 144 144
145 145 145
146 146 146
152 152 152
154 154 154
159 159 159
159 159 159
153 153 153
149 149 149
149 149 149
139 139 139
135 135 135
132 132 132
131 131 131
124 124 124
116 116 116
110 110 110
122 122 122
126 126 126
122 122 122
66 66 66
66 66 66
66 66 66
69 69 69
80 80 80
94 94 94
104 104 104
102 102 102
111 111 111
115 115 115
116 116 116
131 131 131
142 142 142
150 150 150
149 149 149
134 134 134
120 120 120
115 115 115
110 110 110
102 102 102
99 99 99
106 106 106
110 110 110
114 114 114
115 115 115
114 114 114
115 115 115
120 120 120
130 130 130
137 137 137
144 144 144
148 148 148
148 148 148
145 145 145
146 146 146
148 148 148
145 145 145
143 143 143
145 145 145
145 145 145
144 144 144
142 142 142
143 143 143
143 143 143
137 137 137
137 137 137
140 140 140
147 147 147
149 149 149
154 154 154
158 158 158
158 158 158
150 150 150
148 148 148
144 144 144
135 135 135
132 132 132
128 128 128
119 119 119
110 110 110
109 109 109
123 123 123
120 120 120
116 116 116
68 68 68
68 68 68
68 68 68
68 68 68
74 74 74
85 85 85
102 102 102
99 99 99
104 104 104
114 114 114
113 113 113
126 126 126
139 139 139
143 143 143
146 146 146
139 139 139
129 129 129
121 121 121
121 121 121
117 117 117
113 113 113
117 117 117
113 113 113
111 111 111
117 117 117
120 120 120
126 126 126
129 129 129
141 141 141
150 150 150
156 156 156
157 157 157
160 160 160
160 160 160
160 160 160
154 154 154
154 154 154
153 153 153
152 152 152
150 150 150
149 149 149
144 144 144
146 146 146
140 140 140
136 136 136
134 134 134
140 140 140
146 146 146
149 149 149
153 153 153
159 159 159
161 161 161
158 158 158
150 150 150
146 146 146
136 136 136
130 130 130
125 125 125
118 118 118
108 108 108
112 112 112
122 122 122
117 117 117
113 113 113
73 73 73
71 71 71
71 71 71
68 68 68
69 69 69
80 80 80
97 97 97
101 101 101
96 96 96
108 108 108
113 113 113
117 117 117
132 132 132
139 139 139
142 142 142
148 148 148
146 146 146
140 140 140
136 136 136
130 130 130
128 128 128
128 128 128
127 127 127
118 118 118
109 109 109
109 109 109
115 115 115
121 121 121
131 131 131
141 141 141
147 147 147
150 150 150
154 154 154
158 158 158
157 157 157
155 155 155
154 154 154
152 152 152
149 149 149
145 145 145
146 146 146
147 147 147
149 149 149
145 145 145
142 142 142
141 141 141
145 145 145
146 146 146
150 150 150
156 156 156
160 160 160
159 159 159
159 159 159
152 152 152
146 146 146
137 137 137
128 128 128
121 121 121
116 116 116
108 108 108
115 115 115
120 120 120
118 118 118
115 115 115
84 84 84
79 79 79
74 74 74
68 68 68
66 66 66
74 74 74
91 91 91
103 103 103
93 93 93
101 101 101
110 110 110
112 112 112
122 122 122
132 132 132
138 138 138
149 149 149
156 156 156
157 157 157
150 150 150
149 149 149
140 140 140
139 139 139
140 140 140
138 138 138
128 128 128
119 119 119
118 118 118
121 121 121
124 124 124
130 130 130
135 135 135
139 139 139
143 143 143
148 148 148
151 151 151
150 150 150
150 150 150
152 152 152
150 150 150
149 149 149
152 152 152
156 156 156
157 157 157
158 158 158
154 154 154
152 152 152
152 152 152
149 149 149
154 154 154
157 157 157
157 157 157
158 158 158
159 159 159
151 151 151
143 143 143
133 133 133
122 122 122
120 120 120
111 111 111
109 109 109
115 115 115
121 121 121
119 119 119
120 120 120
97 97 97
90 90 90
82 82 82
68 68 68
65 65 65
68 68 68
84 84 84
104 104 104
96 96 96
94 94 94
105 105 105
114 114 114
113 113 113
122 122 122
133 133 133
145 145 145
155 155 155
157 157 157
155 155 155
158 158 158
156 156 156
155 155 155
146 146 146
144 144 144
139 139 139
130 130 130
129 129 129
134 134 134
139 139 139
143 143 143
148 148 148
152 152 152
151 151 151
154 154 154
158 158 158
161 161 161
161 161 161
165 165 165
164 164 164
163 163 163
163 163 163
167 167 167
168 168 168
173 173 173
168 168 168
164 164 164
161 161 161
155 155 155
155 155 155
153 153 153
156 156 156
158 158 158
157 157 157
150 150 150
138 138 138
128 128 128
120 120 120
117 117 117
108 108 108
109 109 109
113 113 113
123 123 123
123 123 123
135 135 135
111 111 111
101 101 101
89 89 89
72 72 72
65 65 65
64 64 64
77 77 77
99 99 99
101 101 101
91 91 91
99 99 99
108 108 108
112 112 112
116 116 116
128 128 128
142 142 142
151 151 151
155 155 155
155 155 155
157 157 157
156 156 156
157 157 157
154 154 154
146 146 146
141 141 141
136 136 136
135 135 135
140 140 140
144 144 144
151 151 151
158 158 158
162 162 162
162 162 162
164 164 164
167 167 167
172 172 172
174 174 174
175 175 175
180 180 180
175 175 175
172 172 172
175 175 175
174 174 174
174 174 174
169 169 169
166 166 166
163 163 163
156 156 156
154 154 154
150 150 150
157 157 157
157 157 157
154 154 154
145 145 145
134 134 134
127 127 127
123 123 123
115 115 115
106 106 106
107 107 107
112 112 112
127 127 127
136 136 136
149 149 149
122 122 122
114 114 114
97 97 97
78 78 78
69 69 69
63 63 63
71 71 71
94 94 94
101 101 101
96 96 96
93 93 93
101 101 101
109 109 109
113 113 113
124 124 124
139 139 139
148 148 148
155 155 155
157 157 157
157 157 157
156 156 156
151 151 151
153 153 153
147 147 147
142 142 142
140 140 140
141 141 141
148 148 148
152 152 152
158 158 158
161 161 161
164 164 164
166 166 166
168 168 168
173 173 173
176 176 176
177 177 177
179 179 179
183 183 183
176 176 176
172 172 172
174 174 174
174 174 174
175 175 175
171 171 171
172 172 172
166 166 166
160 160 160
156 156 156
154 154 154
154 154 154
155 155 155
150 150 150
137 137 137
132 132 132
127 127 127
125 125 125
115 115 115
103 103 103
106 106 106
115 115 115
135 135 135
149 149 149
155 155 155
126 126 126
124 124 124
104 104 104
84 84 84
73 73 73
64 64 64
68 68 68
91 91 91
100 100 100
100 100 100
91 91 91
93 93 93
104 104 104
114 114 114
118 118 118
129 129 129
142 142 142
150 150 150
153 153 153
158 158 158
156 156 156
149 149 149
147 147 147
144 144 144
138 138 138
134 134 134
138 138 138
144 144 144
147 147 147
151 151 151
153 153 153
160 160 160
163 163 163
161 161 161
162 162 162
165 165 165
167 167 167
171 171 171
174 174 174
169 169 169
168 168 168
169 169 169
171 171 171
177 177 177
173 173 173
172 172 172
166 166 166
161 161 161
158 158 158
156 156 156
155 155 155
151 151 151
141 141 141
134 134 134
128 128 128
128 128 128
129 129 129
116 116 116
100 100 100
107 107 107
121 121 121
145 145 145
157 157 157
153 153 153
125 125 125
124 124 124
113 113 113
88 88 88
77 77 77
67 67 67
70 70 70
87 87 87
96 96 96
98 98 98
95 95 95
92 92 92
94 94 94
110 110 110
120 120 120
120 120 120
132 132 132
140 140 140
143 143 143
146 146 146
149 149 149
147 147 147
146 146 146
141 141 141
133 133 133
126 126 126
131 131 131
137 137 137
138 138 138
140 140 140
143 143 143
146 146 146
149 149 149
149 149 149
150 150 150
152 152 152
157 157 157
158 158 158
160 160 160
160 160 160
163 163 163
169 169 169
171 171 171
174 174 174
170 170 170
168 168 168
164 164 164
162 162 162
159 159 159
157 157 157
153 153 153
146 146 146
137 137 137
132 132 132
127 127 127
131 131 131
132 132 132
117 117 117
98 98 98
110 110 110
132 132 132
156 156 156
162 162 162
153 153 153
127 127 127
124 124 124
119 119 119
99 99 99
83 83 83
70 70 70
76 76 76
85 85 85
91 91 91
97 97 97
99 99 99
98 98 98
91 91 91
99 99 99
115 115 115
119 119 119
120 120 120
131 131 131
135 135 135
135 135 135
139 139 139
138 138 138
141 141 141
142 142 142
132 132 132
125 125 125
129 129 129
130 130 130
128 128 128
132 132 132
135 135 135
134 134 134
138 138 138
141 141 141
142 142 142
146 146 146
150 150 150
151 151 151
155 155 155
159 159 159
167 167 167
171 171 171
169 169 169
171 171 171
165 165 165
162 162 162
160 160 160
161 161 161
161 161 161
156 156 156
150 150 150
142 142 142
137 137 137
131 131 131
131 131 131
134 134 134
130 130 130
119 119 119
100 100 100
116 116 116
142 142 142
162 162 162
166 166 166
155 155 155
126 126 126
123 123 123
120 120 120
109 109 109
89 89 89
72 72 72
81 81 81
85 85 85
86 86 86
95 95 95
100 100 100
101 101 101
97 97 97
93 93 93
104 104 104
114 114 114
114 114 114
121 121 121
129 129 129
130 130 130
132 132 132
133 133 133
135 135 135
137 137 137
133 133 133
130 130 130
137 137 137
139 139 139
136 136 136
137 137 137
138 138 138
134 134 134
138 138 138
143 143 143
146 146 146
152 152 152
153 153 153
154 154 154
155 155 155
160 160 160
170 170 170
169 169 169
165 165 165
164 164 164
161 161 161
158 158 158
158 158 158
159 159 159
158 158 158
152 152 152
145 145 145
140 140 140
135 135 135
135 135 135
136 136 136
135 135 135
130 130 130
117 117 117
104 104 104
128 128 128
155 155 155
166 166 166
167 167 167
160 160 160
127 127 127
122 122 122
121 121 121
116 116 116
95 95 95
77 77 77
83 83 83
84 84 84
87 87 87
97 97 97
104 104 104
103 103 103
102 102 102
97 97 97
97 97 97
103 103 103
110 110 110
115 115 115
122 122 122
128 128 128
128 128 128
131 131 131
133 133 133
135 135 135
132 132 132
132 132 132
137 137 137
143 143 143
146 146 146
147 147 147
147 147 147
144 144 144
145 145 145
150 150 150
155 155 155
158 158 158
159 159 159
159 159 159
160 160 160
162 162 162
166 166 166
164 164 164
161 161 161
162 162 162
159 159 159
158 158 158
158 158 158
155 155 155
151 151 151
147 147 147
143 143 143
136 136 136
137 137 137
136 136 136
138 138 138
137 137 137
129 129 129
114 114 114
110 110 110
141 141 141
161 161 161
169 169 169
169 169 169
162 162 162
129 129 129
122 122 122
122 122 122
121 121 121
101 101 101
83 83 83
83 83 83
79 79 79
87 87 87
99 99 99
106 106 106
101 101 101
102 102 102
102 102 102
95 95 95
97 97 97
103 103 103
112 112 112
118 118 118
129 129 129
131 131 131
132 132 132
134 134 134
136 136 136
137 137 137
135 135 135
138 138 138
143 143 143
150 150 150
154 154 154
152 152 152
150 150 150
152 152 152
157 157 157
162 162 162
163 163 163
161 161 161
159 159 159
162 162 162
164 164 164
164 164 164
164 164 164
161 161 161
163 163 163
162 162 162
160 160 160
157 157 157
151 151 151
149 149 149
145 145 145
143 143 143
136 136 136
138 138 138
136 136 136
137 137 137
136 136 136
130 130 130
114 114 114
119 119 119
153 153 153
166 166 166
172 172 172
170 170 170
165 165 165
128 128 128
123 123 123
123 123 123
121 121 121
109 109 109
84 84 84
77 77 77
77 77 77
89 89 89
100 100 100
105 105 105
104 104 104
97 97 97
100 100 100
98 98 98
97 97 97
98 98 98
105 105 105
114 114 114
127 127 127
133 133 133
135 135 135
141 141 141
143 143 143
140 140 140
138 138 138
142 142 142
148 148 148
151 151 151
155 155 155
156 156 156
153 153 153
154 154 154
158 158 158
161 161 161
162 162 162
159 159 159
159 159 159
164 164 164
165 165 165
165 165 165
165 165 165
165 165 165
166 166 166
163 163 163
160 160 160
154 154 154
150 150 150
147 147 147
144 144 144
142 142 142
139 139 139
140 140 140
137 137 137
135 135 135
133 133 133
125 125 125
123 123 123
128 128 128
159 159 159
168 168 168
174 174 174
171 171 171
168 168 168
126 126 126
123 123 123
122 122 122
121 121 121
114 114 114
90 90 90
78 78 78
77 77 77
93 93 93
101 101 101
105 105 105
103 103 103
100 100 100
96 96 96
97 97 97
94 94 94
99 99 99
101 101 101
104 104 104
119 119 119
130 130 130
138 138 138
142 142 142
145 145 145
141 141 141
140 140 140
144 144 144
147 147 147
147 147 147
150 150 150
152 152 152
153 153 153
151 151 151
154 154 154
156 156 156
162 162 162
161 161 161
162 162 162
165 165 165
165 165 165
169 169 169
168 168 168
169 169 169
168 168 168
162 162 162
158 158 158
151 151 151
147 147 147
145 145 145
143 143 143
142 142 142
141 141 141
139 139 139
134 134 134
130 130 130
128 128 128
128 128 128
129 129 129
134 134 134
161 161 161
169 169 169
175 175 175
170 170 170
166 166 166
127 127 127
120 120 120
115 115 115
113 113 113
111 111 111
97 97 97
80 80 80
77 77 77
91 91 91
101 101 101
105 105 105
104 104 104
101 101 101
96 96 96
97 97 97
93 93 93
99 99 99
98 98 98
98 98 98
108 108 108
123 123 123
134 134 134
142 142 142
146 146 146
142 142 142
147 147 147
149 149 149
147 147 147
146 146 146
147 147 147
150 150 150
153 153 153
149 149 149
148 148 148
154 154 154
160 160 160
162 162 162
164 164 164
163 163 163
166 166 166
171 171 171
171 171 171
169 169 169
165 165 165
158 158 158
153 153 153
148 148 148
145 145 145
144 144 144
144 144 144
142 142 142
140 140 140
136 136 136
128 128 128
129 129 129
132 132 132
133 133 133
135 135 135
139 139 139
160 160 160
169 169 169
175 175 175
171 171 171
163 163 163
118 118 118
109 109 109
109 109 109
107 107 107
111 111 111
104 104 104
86 86 86
79 79 79
88 88 88
101 101 101
106 106 106
105 105 105
102 102 102
99 99 99
97 97 97
92 92 92
97 97 97
96 96 96
95 95 95
100 100 100
113 113 113
123 123 123
137 137 137
144 144 144
142 142 142
149 149 149
153 153 153
152 152 152
149 149 149
150 150 150
153 153 153
154 154 154
151 151 151
150 150 150
154 154 154
158 158 158
162 162 162
163 163 163
161 161 161
165 165 165
170 170 170
167 167 167
164 164 164
160 160 160
154 154 154
148 148 148
144 144 144
144 144 144
145 145 145
146 146 146
143 143 143
137 137 137
132 132 132
130 130 130
133 133 133
136 136 136
137 137 137
141 141 141
141 141 141
159 159 159
170 170 170
174 174 174
170 170 170
163 163 163
111 111 111
104 104 104
106 106 106
107 107 107
111 111 111
110 110 110
92 92 92
82 82 82
86 86 86
98 98 98
106 106 106
107 107 107
104 104 104
100 100 100
100 100 100
94 94 94
95 95 95
98 98 98
93 93 93
96 96 96
103 103 103
116 116 116
127 127 127
136 136 136
140 140 140
144 144 144
147 147 147
149 149 149
149 149 149
148 148 148
151 151 151
151 151 151
147 147 147
151 151 151
154 154 154
156 156 156
158 158 158
160 160 160
160 160 160
163 163 163
166 166 166
162 162 162
157 157 157
155 155 155
150 150 150
146 146 146
142 142 142
141 141 141
144 144 144
144 144 144
136 136 136
130 130 130
133 133 133
134 134 134
138 138 138
142 142 142
142 142 142
145 145 145
143 143 143
158 158 158
170 170 170
170 170 170
167 167 167
162 162 162
106 106 106
105 105 105
106 106 106
108 108 108
113 113 113
115 115 115
97 97 97
83 83 83
85 85 85
100 100 100
107 107 107
107 107 107
104 104 104
102 102 102
104 104 104
97 97 97
97 97 97
96 96 96
93 93 93
93 93 93
98 98 98
105 105 105
118 118 118
125 125 125
130 130 130
132 132 132
136 136 136
138 138 138
141 141 141
142 142 142
143 143 143
142 142 142
143 143 143
143 143 143
147 147 147
151 151 151
151 151 151
154 154 154
156 156 156
158 158 158
158 158 158
155 155 155
153 153 153
151 151 151
145 145 145
141 141 141
142 142 142
139 139 139
140 140 140
140 140 140
128 128 128
129 129 129
133 133 133
141 141 141
143 143 143
150 150 150
149 149 149
149 149 149
144 144 144
157 157 157
171 171 171
165 165 165
163 163 163
160 160 160
102 102 102
105 105 105
104 104 104
108 108 108
111 111 111
115 115 115
98 98 98
84 84 84
88 88 88
106 106 106
110 110 110
107 107 107
102 102 102
101 101 101
107 107 107
99 99 99
103 103 103
95 95 95
91 91 91
93 93 93
99 99 99
97 97 97
107 107 107
115 115 115
120 120 120
122 122 122
126 126 126
129 129 129
134 134 134
137 137 137
140 140 140
141 141 141
141 141 141
144 144 144
146 146 146
149 149 149
151 151 151
154 154 154
152 152 152
153 153 153
150 150 150
150 150 150
146 146 146
145 145 145
141 141 141
136 136 136
139 139 139
140 140 140
137 137 137
132 132 132
130 130 130
134 134 134
135 135 135
145 145 145
150 150 150
155 155 155
153 153 153
151 151 151
146 146 146
158 158 158
172 172 172
165 165 165
158 158 158
157 157 157
100 100 100
105 105 105
104 104 104
104 104 104
107 107 107
114 114 114
97 97 97
83 83 83
93 93 93
112 112 112
113 113 113
106 106 106
99 99 99
102 102 102
105 105 105
101 101 101
108 108 108
99 99 99
88 88 88
92 92 92
101 101 101
100 100 100
99 99 99
106 106 106
113 113 113
116 116 116
120 120 120
125 125 125
130 130 130
136 136 136
138 138 138
139 139 139
140 140 140
142 142 142
146 146 146
144 144 144
145 145 145
149 149 149
147 147 147
147 147 147
144 144 144
143 143 143
139 139 139
138 138 138
135 135 135
132 132 132
134 134 134
137 137 137
133 133 133
128 128 128
133 133 133
138 138 138
142 142 142
150 150 150
154 154 154
158 158 158
155 155 155
153 153 153
147 147 147
155 155 155
173 173 173
169 169 169
158 158 158
155 155 155
99 99 99
100 100 100
102 102 102
102 102 102
105 105 105
111 111 111
96 96 96
85 85 85
96 96 96
113 113 113
112 112 112
108 108 108
100 100 100
100 100 100
103 103 103
97 97 97
106 106 106
103 103 103
95 95 95
86 86 86
101 101 101
103 103 103
97 97 97
99 99 99
104 104 104
111 111 111
116 116 116
122 122 122
126 126 126
130 130 130
137 137 137
140 140 140
138 138 138
138 138 138
139 139 139
140 140 140
139 139 139
141 141 141
140 140 140
138 138 138
137 137 137
134 134 134
133 133 133
133 133 133
128 128 128
129 129 129
128 128 128
133 133 133
129 129 129
129 129 129
137 137 137
146 146 146
150 150 150
155 155 155
158 158 158
160 160 160
157 157 157
154 154 154
147 147 147
153 153 153
170 170 170
168 168 168
159 159 159
152 152 152
