P3
64 64
255
104 104 104
128 128 128
152 152 152
160 160 160
181 181 181
204 204 204
217 217 217
208 208 208
196 196 196
189 189 189
185 185 185
180 180 180
175 175 175
169 169 169
163 163 163
157 157 157
152 152 152
146 146 146
143 143 143
138 138 138
137 137 137
135 135 135
133 133 133
132 132 132
131 131 131
133 133 133
134 134 134
135 135 135
136 136 136
142 142 142
147 147 147
148 148 148
151 151 151
154 154 154
160 160 160
163 163 163
166 166 166
173 173 173
179 179 179
184 184 184
186 186 186
192 192 192
197 197 197
201 201 201
207 207 207
212 212 212
217 217 217
221 221 221
224 224 224
227 227 227
227 227 227
227 227 227
228 228 228
232 232 232
232 232 232
228 228 228
224 224 224
224 224 224
223 223 223
216 216 216
214 214 214
207 207 207
168 168 168
123 123 123
109 109 109
138 138 138
157 157 157
169 169 169
184 184 184
208 208 208
217 217 217
206 206 206
195 195 195
189 189 189
183 183 183
179 179 179
174 174 174
168 168 168
161 161 161
158 158 158
154 154 154
149 149 149
145 145 145
140 140 140
139 139 139
138 138 138
137 137 137
134 134 134
135 135 135
135 135 135
136 136 136
136 136 136
136 136 136
140 140 140
144 144 144
145 145 145
150 150 150
153 153 153
157 157 157
159 159 159
163 163 163
169 169 169
175 175 175
180 180 180
184 184 184
189 189 189
193 193 193
198 198 198
201 201 201
206 206 206
212 212 212
218 218 218
221 221 221
224 224 224
225 225 225
226 226 226
228 228 228
231 231 231
238 238 238
235 235 235
232 232 232
230 230 230
228 228 228
221 221 221
217 217 217
211 211 211
178 178 178
135 135 135
111 111 111
142 142 142
164 164 164
173 173 173
190 190 190
212 212 212
215 215 215
205 205 205
196 196 196
189 189 189
182 182 182
176 176 176
171 171 171
166 166 166
163 163 163
160 160 160
156 156 156
151 151 151
147 147 147
143 143 143
141 141 141
142 142 142
141 141 141
137 137 137
138 138 138
137 137 137
137 137 137
139 139 139
141 141 141
140 140 140
144 144 144
146 146 146
151 151 151
153 153 153
156 156 156
158 158 158
162 162 162
169 169 169
173 173 173
179 179 179
183 183 183
188 188 188
191 191 191
194 194 194
199 199 199
201 201 201
207 207 207
213 213 213
218 218 218
219 219 219
220 220 220
222 222 222
225 225 225
231 231 231
234 234 234
236 236 236
234 234 234
233 233 233
232 232 232
224 224 224
218 218 218
213 213 213
186 186 186
143 143 143
113 113 113
147 147 147
171 171 171
183 183 183
197 197 197
215 215 215
214 214 214
204 204 204
195 195 195
187 187 187
180 180 180
174 174 174
171 171 171
167 167 167
164 164 164
161 161 161
158 158 158
154 154 154
148 148 148
144 144 144
145 145 145
144 144 144
143 143 143
139 139 139
140 140 140
140 140 140
138 138 138
141 141 141
146 146 146
145 145 145
145 145 145
149 149 149
155 155 155
155 155 155
158 158 158
160 160 160
162 162 162
169 169 169
176 176 176
179 179 179
183 183 183
186 186 186
189 189 189
192 192 192
196 196 196
198 198 198
203 203 203
208 208 208
214 214 214
215 215 215
217 217 217
219 219 219
220 220 220
224 224 224
229 229 229
234 234 234
232 232 232
233 233 233
232 232 232
226 226 226
219 219 219
214 214 214
190 190 190
151 151 151
114 114 114
146 146 146
170 170 170
186 186 186
202 202 202
213 213 213
210 210 210
201 201 201
193 193 193
185 185 185
178 178 178
174 174 174
170 170 170
167 167 167
164 164 164
160 160 160
158 158 158
154 154 154
149 149 149
145 145 145
146 146 146
144 144 144
142 142 142
139 139 139
141 141 141
140 140 140
141 141 141
143 143 143
151 151 151
151 151 151
151 151 151
154 154 154
161 161 161
162 162 162
159 159 159
160 160 160
165 165 165
170 170 170
176 176 176
180 180 180
179 179 179
179 179 179
184 184 184
186 186 186
189 189 189
192 192 192
196 196 196
201 201 201
206 206 206
209 209 209
210 210 210
212 212 212
213 213 213
213 213 213
219 219 219
226 226 226
228 228 228
229 229 229
230 230 230
227 227 227
220 220 220
216 216 216
194 194 194
154 154 154
118 118 118
148 148 148
173 173 173
190 190 190
205 205 205
210 210 210
205 205 205
198 198 198
193 193 193
186 186 186
178 178 178
172 172 172
166 166 166
161 161 161
158 158 158
155 155 155
155 155 155
152 152 152
147 147 147
145 145 145
142 142 142
141 141 141
138 138 138
134 134 134
139 139 139
140 140 140
139 139 139
144 144 144
152 152 152
156 156 156
155 155 155
159 159 159
167 167 167
169 169 169
161 161 161
159 159 159
162 162 162
168 168 168
171 171 171
173 173 173
173 173 173
173 173 173
175 175 175
177 177 177
179 179 179
182 182 182
185 185 185
189 189 189
194 194 194
194 194 194
196 196 196
200 200 200
201 201 201
200 200 200
205 205 205
214 214 214
220 220 220
223 223 223
225 225 225
223 223 223
221 221 221
217 217 217
197 197 197
160 160 160
124 124 124
148 148 148
177 177 177
193 193 193
204 204 204
207 207 207
202 202 202
198 198 198
193 193 193
184 184 184
175 175 175
162 162 162
151 151 151
144 144 144
140 140 140
140 140 140
138 138 138
137 137 137
134 134 134
131 131 131
127 127 127
127 127 127
126 126 126
125 125 125
131 131 131
132 132 132
131 131 131
138 138 138
148 148 148
151 151 151
157 157 157
163 163 163
173 173 173
170 170 170
160 160 160
155 155 155
157 157 157
161 161 161
165 165 165
165 165 165
164 164 164
162 162 162
159 159 159
157 157 157
159 159 159
163 163 163
168 168 168
169 169 169
173 173 173
174 174 174
178 178 178
182 182 182
183 183 183
181 181 181
183 183 183
194 194 194
206 206 206
214 214 214
217 217 217
216 216 216
219 219 219
218 218 218
199 199 199
164 164 164
130 130 130
154 154 154
183 183 183
198 198 198
206 206 206
210 210 210
204 204 204
194 194 194
182 182 182
167 167 167
156 156 156
142 142 142
129 129 129
124 124 124
121 121 121
120 120 120
121 121 121
118 118 118
113 113 113
110 110 110
108 108 108
107 107 107
110 110 110
115 115 115
122 122 122
122 122 122
124 124 124
134 134 134
136 136 136
139 139 139
151 151 151
163 163 163
171 171 171
169 169 169
159 159 159
152 152 152
147 147 147
150 150 150
157 157 157
147 147 147
142 142 142
138 138 138
130 130 130
124 124 124
126 126 126
129 129 129
127 127 127
133 133 133
133 133 133
136 136 136
142 142 142
155 155 155
154 154 154
154 154 154
158 158 158
165 165 165
178 178 178
195 195 195
205 205 205
206 206 206
213 213 213
215 215 215
195 195 195
160 160 160
137 137 137
164 164 164
185 185 185
204 204 204
212 212 212
213 213 213
199 199 199
177 177 177
156 156 156
141 141 141
132 132 132
119 119 119
106 106 106
102 102 102
105 105 105
99 99 99
104 104 104
97 97 97
92 92 92
95 95 95
94 94 94
90 90 90
95 95 95
103 103 103
112 112 112
112 112 112
117 117 117
121 121 121
121 121 121
129 129 129
147 147 147
162 162 162
169 169 169
166 166 166
155 155 155
148 148 148
136 136 136
133 133 133
144 144 144
126 126 126
114 114 114
115 115 115
104 104 104
94 94 94
94 94 94
96 96 96
94 94 94
125 125 125
123 123 123
120 120 120
122 122 122
132 132 132
142 142 142
126 126 126
120 120 120
135 135 135
152 152 152
169 169 169
186 186 186
191 191 191
199 199 199
208 208 208
190 190 190
159 159 159
139 139 139
168 168 168
183 183 183
208 208 208
218 218 218
211 211 211
187 187 187
156 156 156
129 129 129
119 119 119
117 117 117
114 114 114
112 112 112
112 112 112
111 111 111
109 109 109
109 109 109
97 97 97
96 96 96
101 101 101
101 101 101
99 99 99
99 99 99
108 108 108
122 122 122
120 120 120
118 118 118
122 122 122
116 116 116
125 125 125
144 144 144
158 158 158
162 162 162
159 159 159
145 145 145
137 137 137
122 122 122
117 117 117
135 135 135
127 127 127
109 109 109
117 117 117
112 112 112
87 87 87
83 83 83
80 80 80
81 81 81
145 145 145
158 158 158
153 153 153
147 147 147
150 150 150
161 161 161
155 155 155
139 139 139
129 129 129
136 136 136
151 151 151
163 163 163
178 178 178
186 186 186
200 200 200
192 192 192
155 155 155
138 138 138
165 165 165
183 183 183
211 211 211
222 222 222
201 201 201
166 166 166
136 136 136
125 125 125
127 127 127
132 132 132
136 136 136
132 132 132
130 130 130
127 127 127
123 123 123
120 120 120
107 107 107
111 111 111
112 112 112
118 118 118
114 114 114
112 112 112
128 128 128
145 145 145
147 147 147
155 155 155
140 140 140
128 128 128
137 137 137
146 146 146
156 156 156
159 159 159
153 153 153
144 144 144
134 134 134
117 117 117
114 114 114
122 122 122
126 126 126
124 124 124
119 119 119
106 106 106
89 89 89
84 84 84
83 83 83
89 89 89
125 125 125
171 171 171
190 190 190
199 199 199
204 204 204
206 206 206
204 204 204
198 198 198
186 186 186
171 171 171
141 141 141
148 148 148
163 163 163
181 181 181
192 192 192
191 191 191
157 157 157
137 137 137
160 160 160
185 185 185
216 216 216
218 218 218
184 184 184
155 155 155
143 143 143
142 142 142
151 151 151
155 155 155
158 158 158
149 149 149
142 142 142
140 140 140
137 137 137
137 137 137
123 123 123
127 127 127
124 124 124
135 135 135
127 127 127
128 128 128
152 152 152
182 182 182
176 176 176
177 177 177
199 199 199
186 186 186
167 167 167
165 165 165
172 172 172
176 176 176
166 166 166
156 156 156
142 142 142
131 131 131
130 130 130
128 128 128
121 121 121
114 114 114
104 104 104
90 90 90
86 86 86
86 86 86
90 90 90
102 102 102
127 127 127
192 192 192
208 208 208
209 209 209
205 205 205
203 203 203
201 201 201
203 203 203
197 197 197
198 198 198
181 181 181
133 133 133
155 155 155
177 177 177
191 191 191
187 187 187
161 161 161
133 133 133
157 157 157
197 197 197
223 223 223
209 209 209
175 175 175
167 167 167
167 167 167
174 174 174
182 182 182
177 177 177
172 172 172
165 165 165
159 159 159
154 154 154
153 153 153
147 147 147
132 132 132
131 131 131
130 130 130
138 138 138
129 129 129
131 131 131
151 151 151
186 186 186
203 203 203
205 205 205
199 199 199
212 212 212
185 185 185
167 167 167
174 174 174
176 176 176
173 173 173
171 171 171
161 161 161
145 145 145
137 137 137
124 124 124
115 115 115
104 104 104
93 93 93
87 87 87
94 94 94
102 102 102
116 116 116
129 129 129
166 166 166
223 223 223
219 219 219
217 217 217
213 213 213
197 197 197
178 178 178
170 170 170
155 155 155
159 159 159
167 167 167
141 141 141
151 151 151
173 173 173
188 188 188
185 185 185
167 167 167
125 125 125
155 155 155
192 192 192
212 212 212
197 197 197
180 180 180
192 192 192
195 195 195
199 199 199
194 194 194
172 172 172
165 165 165
178 178 178
184 184 184
181 181 181
176 176 176
164 164 164
149 149 149
150 150 150
146 146 146
154 154 154
146 146 146
141 141 141
141 141 141
154 154 154
170 170 170
184 184 184
190 190 190
204 204 204
188 188 188
168 168 168
166 166 166
167 167 167
164 164 164
174 174 174
162 162 162
145 145 145
140 140 140
122 122 122
104 104 104
98 98 98
96 96 96
102 102 102
113 113 113
129 129 129
138 138 138
140 140 140
157 157 157
211 211 211
227 227 227
229 229 229
229 229 229
215 215 215
180 180 180
169 169 169
143 143 143
133 133 133
151 151 151
155 155 155
154 154 154
165 165 165
182 182 182
182 182 182
170 170 170
130 130 130
185 185 185
213 213 213
201 201 201
184 184 184
189 189 189
210 210 210
212 212 212
205 205 205
185 185 185
162 162 162
188 188 188
206 206 206
193 193 193
173 173 173
159 159 159
142 142 142
147 147 147
146 146 146
140 140 140
150 150 150
143 143 143
130 130 130
117 117 117
114 114 114
115 115 115
130 130 130
182 182 182
198 198 198
192 192 192
171 171 171
163 163 163
162 162 162
163 163 163
152 152 152
142 142 142
140 140 140
140 140 140
116 116 116
105 105 105
111 111 111
124 124 124
136 136 136
139 139 139
143 143 143
141 141 141
135 135 135
133 133 133
154 154 154
189 189 189
207 207 207
209 209 209
185 185 185
172 172 172
171 171 171
154 154 154
140 140 140
150 150 150
163 163 163
158 158 158
166 166 166
180 180 180
177 177 177
170 170 170
128 128 128
169 169 169
183 183 183
175 175 175
174 174 174
191 191 191
214 214 214
214 214 214
201 201 201
177 177 177
185 185 185
210 210 210
192 192 192
164 164 164
158 158 158
153 153 153
143 143 143
144 144 144
154 154 154
149 149 149
159 159 159
146 146 146
123 123 123
113 113 113
108 108 108
103 103 103
112 112 112
153 153 153
184 184 184
176 176 176
156 156 156
148 148 148
145 145 145
143 143 143
139 139 139
132 132 132
133 133 133
137 137 137
122 122 122
130 130 130
134 134 134
148 148 148
154 154 154
144 144 144
151 151 151
145 145 145
136 136 136
130 130 130
125 125 125
140 140 140
165 165 165
174 174 174
169 169 169
160 160 160
168 168 168
159 159 159
150 150 150
154 154 154
167 167 167
167 167 167
190 190 190
202 202 202
172 172 172
169 169 169
122 122 122
144 144 144
162 162 162
182 182 182
183 183 183
188 188 188
209 209 209
210 210 210
200 200 200
189 189 189
190 190 190
179 179 179
156 156 156
158 158 158
159 159 159
145 145 145
139 139 139
139 139 139
152 152 152
156 156 156
157 157 157
148 148 148
131 131 131
115 115 115
109 109 109
107 107 107
122 122 122
142 142 142
179 179 179
168 168 168
155 155 155
149 149 149
147 147 147
142 142 142
142 142 142
142 142 142
138 138 138
136 136 136
136 136 136
156 156 156
150 150 150
142 142 142
149 149 149
144 144 144
152 152 152
154 154 154
138 138 138
118 118 118
125 125 125
136 136 136
156 156 156
148 148 148
148 148 148
159 159 159
167 167 167
168 168 168
167 167 167
161 161 161
163 163 163
163 163 163
165 165 165
178 178 178
189 189 189
170 170 170
117 117 117
134 134 134
152 152 152
174 174 174
176 176 176
172 172 172
192 192 192
202 202 202
201 201 201
198 198 198
179 179 179
162 162 162
157 157 157
165 165 165
163 163 163
149 149 149
148 148 148
154 154 154
156 156 156
146 146 146
132 132 132
135 135 135
138 138 138
134 134 134
122 122 122
125 125 125
130 130 130
147 147 147
183 183 183
169 169 169
154 154 154
148 148 148
146 146 146
143 143 143
144 144 144
144 144 144
131 131 131
133 133 133
142 142 142
157 157 157
155 155 155
142 142 142
136 136 136
130 130 130
140 140 140
152 152 152
147 147 147
142 142 142
144 144 144
150 150 150
154 154 154
135 135 135
125 125 125
141 141 141
160 160 160
175 175 175
180 180 180
178 178 178
171 171 171
161 161 161
147 147 147
147 147 147
148 148 148
149 149 149
102 102 102
117 117 117
131 131 131
156 156 156
172 172 172
173 173 173
208 208 208
224 224 224
219 219 219
207 207 207
185 185 185
171 171 171
167 167 167
159 159 159
147 147 147
141 141 141
134 134 134
137 137 137
134 134 134
122 122 122
117 117 117
121 121 121
128 128 128
124 124 124
125 125 125
136 136 136
123 123 123
152 152 152
182 182 182
170 170 170
154 154 154
147 147 147
144 144 144
144 144 144
143 143 143
143 143 143
126 126 126
125 125 125
138 138 138
148 148 148
152 152 152
145 145 145
131 131 131
124 124 124
123 123 123
140 140 140
147 147 147
148 148 148
151 151 151
156 156 156
150 150 150
135 135 135
132 132 132
140 140 140
152 152 152
169 169 169
179 179 179
180 180 180
170 170 170
159 159 159
150 150 150
159 159 159
152 152 152
130 130 130
102 102 102
114 114 114
113 113 113
145 145 145
167 167 167
190 190 190
225 225 225
227 227 227
219 219 219
211 211 211
199 199 199
188 188 188
176 176 176
157 157 157
131 131 131
117 117 117
109 109 109
109 109 109
111 111 111
110 110 110
111 111 111
113 113 113
118 118 118
119 119 119
135 135 135
139 139 139
122 122 122
160 160 160
179 179 179
169 169 169
157 157 157
148 148 148
144 144 144
146 146 146
146 146 146
144 144 144
128 128 128
119 119 119
136 136 136
150 150 150
145 145 145
146 146 146
136 136 136
121 121 121
115 115 115
120 120 120
126 126 126
128 128 128
129 129 129
136 136 136
136 136 136
136 136 136
141 141 141
149 149 149
159 159 159
168 168 168
184 184 184
188 188 188
176 176 176
155 155 155
145 145 145
155 155 155
145 145 145
122 122 122
130 130 130
141 141 141
130 130 130
153 153 153
168 168 168
188 188 188
207 207 207
208 208 208
205 205 205
201 201 201
198 198 198
193 193 193
182 182 182
156 156 156
128 128 128
110 110 110
104 104 104
106 106 106
111 111 111
116 116 116
122 122 122
127 127 127
137 137 137
149 149 149
154 154 154
130 130 130
128 128 128
169 169 169
178 178 178
169 169 169
158 158 158
151 151 151
147 147 147
149 149 149
151 151 151
146 146 146
132 132 132
121 121 121
134 134 134
157 157 157
157 157 157
151 151 151
147 147 147
135 135 135
127 127 127
116 116 116
115 115 115
117 117 117
116 116 116
123 123 123
130 130 130
137 137 137
144 144 144
150 150 150
156 156 156
167 167 167
178 178 178
186 186 186
177 177 177
154 154 154
148 148 148
161 161 161
148 148 148
117 117 117
157 157 157
165 165 165
151 151 151
172 172 172
174 174 174
183 183 183
197 197 197
199 199 199
197 197 197
194 194 194
193 193 193
193 193 193
187 187 187
166 166 166
148 148 148
137 137 137
135 135 135
138 138 138
141 141 141
144 144 144
151 151 151
158 158 158
171 171 171
177 177 177
157 157 157
127 127 127
143 143 143
177 177 177
178 178 178
167 167 167
157 157 157
151 151 151
153 153 153
153 153 153
153 153 153
148 148 148
135 135 135
126 126 126
122 122 122
152 152 152
164 164 164
161 161 161
154 154 154
149 149 149
149 149 149
140 140 140
129 129 129
125 125 125
122 122 122
123 123 123
129 129 129
135 135 135
141 141 141
145 145 145
150 150 150
163 163 163
169 169 169
173 173 173
164 164 164
147 147 147
149 149 149
158 158 158
147 147 147
124 124 124
138 138 138
152 152 152
154 154 154
185 185 185
183 183 183
185 185 185
192 192 192
191 191 191
190 190 190
186 186 186
183 183 183
184 184 184
178 178 178
171 171 171
165 165 165
162 162 162
155 155 155
156 156 156
159 159 159
163 163 163
169 169 169
173 173 173
180 180 180
176 176 176
158 158 158
140 140 140
160 160 160
178 178 178
173 173 173
162 162 162
153 153 153
152 152 152
155 155 155
155 155 155
155 155 155
149 149 149
137 137 137
128 128 128
117 117 117
128 128 128
156 156 156
162 162 162
161 161 161
154 154 154
152 152 152
154 154 154
153 153 153
152 152 152
147 147 147
145 145 145
146 146 146
142 142 142
141 141 141
139 139 139
144 144 144
152 152 152
158 158 158
160 160 160
151 151 151
140 140 140
147 147 147
157 157 157
152 152 152
134 134 134
123 123 123
134 134 134
154 154 154
193 193 193
195 195 195
185 185 185
184 184 184
180 180 180
178 178 178
177 177 177
176 176 176
172 172 172
166 166 166
156 156 156
151 151 151
149 149 149
147 147 147
151 151 151
160 160 160
165 165 165
165 165 165
161 161 161
161 161 161
169 169 169
174 174 174
158 158 158
165 165 165
173 173 173
164 164 164
155 155 155
151 151 151
154 154 154
158 158 158
154 154 154
153 153 153
151 151 151
139 139 139
128 128 128
127 127 127
118 118 118
132 132 132
149 149 149
155 155 155
152 152 152
152 152 152
150 150 150
151 151 151
149 149 149
149 149 149
147 147 147
147 147 147
143 143 143
137 137 137
136 136 136
138 138 138
141 141 141
146 146 146
148 148 148
140 140 140
137 137 137
151 151 151
161 161 161
157 157 157
141 141 141
124 124 124
134 134 134
164 164 164
198 198 198
198 198 198
186 186 186
177 177 177
172 172 172
170 170 170
170 170 170
166 166 166
160 160 160
152 152 152
146 146 146
141 141 141
140 140 140
144 144 144
148 148 148
152 152 152
151 151 151
143 143 143
136 136 136
160 160 160
185 185 185
179 179 179
161 161 161
166 166 166
170 170 170
159 159 159
152 152 152
154 154 154
159 159 159
160 160 160
156 156 156
153 153 153
152 152 152
142 142 142
131 131 131
130 130 130
133 133 133
120 120 120
125 125 125
141 141 141
142 142 142
145 145 145
147 147 147
148 148 148
147 147 147
144 144 144
143 143 143
144 144 144
141 141 141
134 134 134
132 132 132
133 133 133
136 136 136
140 140 140
136 136 136
131 131 131
138 138 138
158 158 158
163 163 163
158 158 158
142 142 142
132 132 132
141 141 141
175 175 175
200 200 200
197 197 197
189 189 189
180 180 180
171 171 171
163 163 163
155 155 155
152 152 152
150 150 150
147 147 147
143 143 143
139 139 139
137 137 137
138 138 138
137 137 137
131 131 131
126 126 126
123 123 123
145 145 145
176 176 176
183 183 183
174 174 174
163 163 163
170 170 170
174 174 174
161 161 161
152 152 152
156 156 156
163 163 163
163 163 163
159 159 159
155 155 155
154 154 154
146 146 146
136 136 136
133 133 133
137 137 137
130 130 130
123 123 123
117 117 117
123 123 123
131 131 131
137 137 137
141 141 141
145 145 145
146 146 146
144 144 144
143 143 143
139 139 139
131 131 131
129 129 129
131 131 131
134 134 134
133 133 133
131 131 131
134 134 134
149 149 149
163 163 163
163 163 163
156 156 156
142 142 142
137 137 137
148 148 148
180 180 180
200 200 200
197 197 197
191 191 191
181 181 181
171 171 171
165 165 165
160 160 160
151 151 151
143 143 143
134 134 134
129 129 129
126 126 126
122 122 122
122 122 122
123 123 123
125 125 125
128 128 128
133 133 133
151 151 151
169 169 169
173 173 173
169 169 169
163 163 163
167 167 167
175 175 175
160 160 160
145 145 145
148 148 148
158 158 158
159 159 159
154 154 154
153 153 153
152 152 152
150 150 150
142 142 142
135 135 135
135 135 135
135 135 135
136 136 136
132 132 132
112 112 112
105 105 105
116 116 116
123 123 123
129 129 129
132 132 132
131 131 131
131 131 131
127 127 127
120 120 120
119 119 119
120 120 120
122 122 122
127 127 127
139 139 139
150 150 150
161 161 161
170 170 170
160 160 160
152 152 152
142 142 142
142 142 142
152 152 152
182 182 182
201 201 201
201 201 201
193 193 193
185 185 185
173 173 173
168 168 168
164 164 164
160 160 160
153 153 153
144 144 144
140 140 140
133 133 133
128 128 128
126 126 126
125 125 125
127 127 127
129 129 129
136 136 136
148 148 148
156 156 156
160 160 160
163 163 163
155 155 155
155 155 155
163 163 163
144 144 144
124 124 124
125 125 125
136 136 136
139 139 139
140 140 140
141 141 141
139 139 139
139 139 139
138 138 138
133 133 133
129 129 129
128 128 128
136 136 136
138 138 138
128 128 128
115 115 115
109 109 109
111 111 111
113 113 113
114 114 114
114 114 114
111 111 111
107 107 107
105 105 105
110 110 110
114 114 114
123 123 123
137 137 137
151 151 151
165 165 165
169 169 169
172 172 172
159 159 159
151 151 151
140 140 140
146 146 146
158 158 158
186 186 186
204 204 204
205 205 205
196 196 196
186 186 186
176 176 176
168 168 168
162 162 162
154 154 154
144 144 144
137 137 137
131 131 131
126 126 126
120 120 120
119 119 119
121 121 121
126 126 126
130 130 130
139 139 139
146 146 146
143 143 143
155 155 155
153 153 153
133 133 133
128 128 128
135 135 135
115 115 115
91 91 91
93 93 93
107 107 107
113 113 113
115 115 115
116 116 116
111 111 111
111 111 111
116 116 116
121 121 121
124 124 124
123 123 123
131 131 131
138 138 138
133 133 133
124 124 124
118 118 118
116 116 116
112 112 112
112 112 112
114 114 114
111 111 111
111 111 111
111 111 111
112 112 112
118 118 118
128 128 128
142 142 142
157 157 157
170 170 170
176 176 176
170 170 170
158 158 158
148 148 148
139 139 139
148 148 148
164 164 164
192 192 192
208 208 208
205 205 205
197 197 197
186 186 186
176 176 176
168 168 168
159 159 159
146 146 146
134 134 134
129 129 129
123 123 123
121 121 121
120 120 120
120 120 120
124 124 124
127 127 127
133 133 133
143 143 143
143 143 143
138 138 138
150 150 150
137 137 137
101 101 101
81 81 81
91 91 91
87 87 87
60 60 60
58 58 58
79 79 79
91 91 91
90 90 90
81 81 81
71 71 71
69 69 69
81 81 81
97 97 97
117 117 117
130 130 130
136 136 136
137 137 137
133 133 133
127 127 127
116 116 116
111 111 111
109 109 109
109 109 109
110 110 110
110 110 110
110 110 110
111 111 111
111 111 111
120 120 120
128 128 128
144 144 144
162 162 162
170 170 170
176 176 176
170 170 170
155 155 155
146 146 146
133 133 133
146 146 146
170 170 170
192 192 192
205 205 205
200 200 200
193 193 193
185 185 185
177 177 177
170 170 170
158 158 158
145 145 145
135 135 135
128 128 128
126 126 126
127 127 127
128 128 128
126 126 126
127 127 127
131 131 131
136 136 136
144 144 144
143 143 143
136 136 136
141 141 141
126 126 126
80 80 80
46 46 46
52 52 52
73 73 73
54 54 54
41 41 41
61 61 61
77 77 77
72 72 72
56 56 56
41 41 41
40 40 40
52 52 52
77 77 77
111 111 111
139 139 139
151 151 151
151 151 151
142 142 142
132 132 132
118 118 118
108 108 108
108 108 108
105 105 105
105 105 105
106 106 106
107 107 107
109 109 109
113 113 113
121 121 121
131 131 131
146 146 146
162 162 162
171 171 171
173 173 173
168 168 168
153 153 153
143 143 143
126 126 126
137 137 137
173 173 173
191 191 191
204 204 204
198 198 198
193 193 193
186 186 186
178 178 178
171 171 171
159 159 159
148 148 148
141 141 141
133 133 133
133 133 133
134 134 134
132 132 132
130 130 130
129 129 129
134 134 134
142 142 142
152 152 152
150 150 150
142 142 142
136 136 136
130 130 130
92 92 92
55 55 55
66 66 66
88 88 88
78 78 78
55 55 55
59 59 59
72 72 72
70 70 70
65 65 65
54 54 54
48 48 48
57 57 57
82 82 82
119 119 119
147 147 147
159 159 159
165 165 165
162 162 162
150 150 150
137 137 137
122 122 122
117 117 117
111 111 111
108 108 108
106 106 106
109 109 109
111 111 111
117 117 117
125 125 125
137 137 137
152 152 152
164 164 164
171 171 171
172 172 172
166 166 166
151 151 151
136 136 136
125 125 125
126 126 126
170 170 170
190 190 190
203 203 203
198 198 198
193 193 193
188 188 188
180 180 180
172 172 172
162 162 162
153 153 153
146 146 146
140 140 140
138 138 138
138 138 138
134 134 134
131 131 131
133 133 133
139 139 139
155 155 155
167 167 167
165 165 165
155 155 155
146 146 146
138 138 138
121 121 121
107 107 107
113 113 113
113 113 113
96 96 96
71 71 71
62 62 62
72 72 72
79 79 79
89 89 89
88 88 88
78 78 78
81 81 81
99 99 99
127 127 127
149 149 149
160 160 160
173 173 173
177 177 177
169 169 169
160 160 160
147 147 147
135 135 135
127 127 127
122 122 122
120 120 120
120 120 120
122 122 122
128 128 128
136 136 136
144 144 144
158 158 158
164 164 164
169 169 169
169 169 169
164 164 164
148 148 148
128 128 128
129 129 129
118 118 118
161 161 161
189 189 189
204 204 204
201 201 201
194 194 194
190 190 190
183 183 183
173 173 173
164 164 164
157 157 157
151 151 151
145 145 145
142 142 142
139 139 139
134 134 134
131 131 131
137 137 137
152 152 152
173 173 173
186 186 186
180 180 180
171 171 171
164 164 164
159 159 159
154 154 154
150 150 150
147 147 147
125 125 125
100 100 100
74 74 74
67 67 67
76 76 76
90 90 90
104 104 104
114 114 114
112 112 112
115 115 115
124 124 124
137 137 137
152 152 152
162 162 162
175 175 175
183 183 183
180 180 180
172 172 172
161 161 161
152 152 152
144 144 144
137 137 137
135 135 135
134 134 134
136 136 136
139 139 139
145 145 145
152 152 152
161 161 161
167 167 167
169 169 169
167 167 167
163 163 163
143 143 143
128 128 128
134 134 134
106 106 106
149 149 149
183 183 183
201 201 201
203 203 203
196 196 196
191 191 191
185 185 185
176 176 176
169 169 169
162 162 162
155 155 155
149 149 149
144 144 144
141 141 141
135 135 135
137 137 137
150 150 150
171 171 171
190 190 190
196 196 196
190 190 190
181 181 181
179 179 179
180 180 180
181 181 181
177 177 177
160 160 160
125 125 125
95 95 95
80 80 80
74 74 74
84 84 84
99 99 99
111 111 111
128 128 128
137 137 137
140 140 140
142 142 142
149 149 149
155 155 155
164 164 164
175 175 175
184 184 184
185 185 185
178 178 178
170 170 170
160 160 160
154 154 154
147 147 147
145 145 145
145 145 145
147 147 147
149 149 149
152 152 152
158 158 158
163 163 163
168 168 168
169 169 169
165 165 165
157 157 157
140 140 140
136 136 136
138 138 138
102 102 102
136 136 136
173 173 173
201 201 201
205 205 205
199 199 199
193 193 193
188 188 188
181 181 181
174 174 174
167 167 167
159 159 159
152 152 152
147 147 147
143 143 143
142 142 142
150 150 150
166 166 166
188 188 188
198 198 198
198 198 198
191 191 191
187 187 187
187 187 187
190 190 190
192 192 192
185 185 185
159 159 159
126 126 126
102 102 102
93 93 93
92 92 92
100 100 100
113 113 113
122 122 122
137 137 137
151 151 151
153 153 153
156 156 156
159 159 159
159 159 159
163 163 163
171 171 171
180 180 180
183 183 183
181 181 181
177 177 177
167 167 167
161 161 161
155 155 155
150 150 150
152 152 152
151 151 151
154 154 154
156 156 156
161 161 161
166 166 166
168 168 168
167 167 167
162 162 162
153 153 153
143 143 143
145 145 145
145 145 145
101 101 101
121 121 121
162 162 162
198 198 198
206 206 206
202 202 202
197 197 197
191 191 191
185 185 185
181 181 181
172 172 172
165 165 165
157 157 157
150 150 150
147 147 147
154 154 154
166 166 166
181 181 181
196 196 196
200 200 200
197 197 197
191 191 191
185 185 185
183 183 183
189 189 189
191 191 191
182 182 182
156 156 156
133 133 133
121 121 121
116 116 116
114 114 114
120 120 120
129 129 129
138 138 138
148 148 148
160 160 160
165 165 165
165 165 165
162 162 162
159 159 159
160 160 160
168 168 168
174 174 174
179 179 179
179 179 179
178 178 178
174 174 174
165 165 165
160 160 160
156 156 156
156 156 156
156 156 156
157 157 157
161 161 161
163 163 163
167 167 167
169 169 169
165 165 165
160 160 160
148 148 148
144 144 144
149 149 149
143 143 143
102 102 102
114 114 114
154 154 154
192 192 192
208 208 208
203 203 203
198 198 198
195 195 195
189 189 189
186 186 186
181 181 181
171 171 171
160 160 160
153 153 153
158 158 158
170 170 170
180 180 180
187 187 187
198 198 198
197 197 197
192 192 192
186 186 186
177 177 177
175 175 175
178 178 178
185 185 185
177 177 177
161 161 161
147 147 147
141 141 141
137 137 137
133 133 133
138 138 138
149 149 149
154 154 154
161 161 161
168 168 168
171 171 171
171 171 171
166 166 166
163 163 163
162 162 162
165 165 165
170 170 170
172 172 172
172 172 172
174 174 174
175 175 175
170 170 170
164 164 164
160 160 160
161 161 161
160 160 160
160 160 160
161 161 161
164 164 164
165 165 165
165 165 165
163 163 163
156 156 156
148 148 148
147 147 147
155 155 155
146 146 146
104 104 104
110 110 110
143 143 143
180 180 180
204 204 204
205 205 205
199 199 199
195 195 195
191 191 191
189 189 189
186 186 186
177 177 177
164 164 164
160 160 160
170 170 170
182 182 182
185 185 185
187 187 187
191 191 191
189 189 189
181 181 181
172 172 172
166 166 166
164 164 164
164 164 164
173 173 173
175 175 175
167 167 167
161 161 161
160 160 160
160 160 160
156 156 156
159 159 159
165 165 165
166 166 166
170 170 170
172 172 172
173 173 173
171 171 171
168 168 168
164 164 164
163 163 163
162 162 162
164 164 164
170 170 170
169 169 169
169 169 169
169 169 169
169 169 169
167 167 167
165 165 165
165 165 165
163 163 163
162 162 162
163 163 163
163 163 163
163 163 163
163 163 163
159 159 159
154 154 154
146 146 146
153 153 153
156 156 156
145 145 145
106 106 106
112 112 112
129 129 129
160 160 160
197 197 197
204 204 204
199 199 199
194 194 194
190 190 190
191 191 191
187 187 187
180 180 180
167 167 167
162 162 162
170 170 170
177 177 177
179 179 179
178 178 178
178 178 178
174 174 174
164 164 164
157 157 157
153 153 153
154 154 154
153 153 153
158 158 158
168 168 168
166 166 166
168 168 168
172 172 172
176 176 176
175 175 175
176 176 176
179 179 179
175 175 175
174 174 174
174 174 174
171 171 171
169 169 169
164 164 164
162 162 162
160 160 160
158 158 158
159 159 159
161 161 161
164 164 164
163 163 163
162 162 162
167 167 167
168 168 168
168 168 168
168 168 168
166 166 166
162 162 162
161 161 161
161 161 161
160 160 160
158 158 158
155 155 155
152 152 152
141 141 141
145 145 145
145 145 145
131 131 131
109 109 109
109 109 109
115 115 115
141 141 141
187 187 187
199 199 199
197 197 197
191 191 191
188 188 188
188 188 188
187 187 187
180 180 180
168 168 168
159 159 159
162 162 162
166 166 166
161 161 161
160 160 160
160 160 160
154 154 154
148 148 148
140 140 140
141 141 141
141 141 141
140 140 140
143 143 143
151 151 151
153 153 153
161 161 161
172 172 172
176 176 176
176 176 176
176 176 176
178 178 178
176 176 176
169 169 169
166 166 166
164 164 164
164 164 164
161 161 161
159 159 159
158 158 158
155 155 155
156 156 156
153 153 153
151 151 151
154 154 154
156 156 156
162 162 162
163 163 163
167 167 167
166 166 166
166 166 166
161 161 161
159 159 159
155 155 155
156 156 156
153 153 153
151 151 151
148 148 148
126 126 126
120 120 120
118 118 118
110 110 110
114 114 114
107 107 107
107 107 107
126 126 126
174 174 174
194 194 194
194 194 194
189 189 189
183 183 183
185 185 185
185 185 185
178 178 178
169 169 169
154 154 154
153 153 153
151 151 151
138 138 138
128 128 128
129 129 129
129 129 129
131 131 131
123 123 123
122 122 122
121 121 121
124 124 124
125 125 125
125 125 125
128 128 128
139 139 139
152 152 152
156 156 156
158 158 158
154 154 154
156 156 156
156 156 156
151 151 151
147 147 147
147 147 147
149 149 149
149 149 149
151 151 151
150 150 150
150 150 150
150 150 150
146 146 146
140 140 140
140 140 140
145 145 145
151 151 151
159 159 159
165 165 165
169 169 169
164 164 164
162 162 162
156 156 156
151 151 151
151 151 151
150 150 150
147 147 147
134 134 134
107 107 107
101 101 101
101 101 101
100 100 100
117 117 117
108 108 108
104 104 104
116 116 116
156 156 156
185 185 185
191 191 191
187 187 187
181 181 181
181 181 181
181 181 181
176 176 176
165 165 165
149 149 149
147 147 147
137 137 137
118 118 118
101 101 101
101 101 101
103 103 103
109 109 109
110 110 110
106 106 106
104 104 104
106 106 106
104 104 104
100 100 100
102 102 102
112 112 112
120 120 120
128 128 128
131 131 131
129 129 129
127 127 127
129 129 129
129 129 129
127 127 127
128 128 128
130 130 130
129 129 129
133 133 133
134 134 134
136 136 136
137 137 137
134 134 134
132 132 132
131 131 131
137 137 137
144 144 144
153 153 153
160 160 160
167 167 167
162 162 162
159 159 159
152 152 152
147 147 147
148 148 148
150 150 150
143 143 143
119 119 119
95 95 95
92 92 92
94 94 94
95 95 95
115 115 115
108 108 108
103 103 103
107 107 107
139 139 139
175 175 175
187 187 187
184 184 184
178 178 178
176 176 176
176 176 176
172 172 172
158 158 158
145 145 145
139 139 139
124 124 124
105 105 105
92 92 92
99 99 99
103 103 103
106 106 106
110 110 110
110 110 110
106 106 106
102 102 102
94 94 94
89 89 89
85 85 85
91 91 91
95 95 95
101 101 101
107 107 107
106 106 106
109 109 109
115 115 115
114 114 114
115 115 115
117 117 117
120 120 120
123 123 123
125 125 125
127 127 127
128 128 128
129 129 129
133 133 133
132 132 132
132 132 132
134 134 134
143 143 143
148 148 148
152 152 152
158 158 158
157 157 157
154 154 154
151 151 151
146 146 146
147 147 147
148 148 148
135 135 135
108 108 108
89 89 89
86 86 86
89 89 89
94 94 94
108 108 108
104 104 104
101 101 101
103 103 103
126 126 126
163 163 163
183 183 183
181 181 181
173 173 173
171 171 171
172 172 172
167 167 167
155 155 155
145 145 145
134 134 134
118 118 118
102 102 102
99 99 99
109 109 109
117 117 117
117 117 117
120 120 120
126 126 126
124 124 124
117 117 117
110 110 110
101 101 101
97 97 97
94 94 94
94 94 94
96 96 96
104 104 104
107 107 107
111 111 111
116 116 116
117 117 117
119 119 119
122 122 122
125 125 125
127 127 127
133 133 133
134 134 134
135 135 135
134 134 134
137 137 137
135 135 135
134 134 134
135 135 135
139 139 139
147 147 147
149 149 149
149 149 149
151 151 151
149 149 149
149 149 149
147 147 147
146 146 146
144 144 144
126 126 126
97 97 97
86 86 86
85 85 85
81 81 81
86 86 86
99 99 99
94 94 94
95 95 95
99 99 99
115 115 115
148 148 148
172 172 172
177 177 177
169 169 169
169 169 169
167 167 167
165 165 165
157 157 157
145 145 145
131 131 131
121 121 121
111 111 111
113 113 113
126 126 126
133 133 133
135 135 135
140 140 140
146 146 146
147 147 147
142 142 142
136 136 136
128 128 128
122 122 122
117 117 117
113 113 113
109 109 109
112 112 112
116 116 116
124 124 124
128 128 128
127 127 127
127 127 127
127 127 127
129 129 129
132 132 132
139 139 139
143 143 143
141 141 141
139 139 139
138 138 138
139 139 139
138 138 138
136 136 136
140 140 140
146 146 146
148 148 148
147 147 147
145 145 145
148 148 148
147 147 147
148 148 148
146 146 146
137 137 137
112 112 112
91 91 91
84 84 84
80 80 80
75 75 75
83 83 83
91 91 91
86 86 86
92 92 92
96 96 96
107 107 107
130 130 130
160 160 160
171 171 171
167 167 167
166 166 166
167 167 167
165 165 165
159 159 159
145 145 145
135 135 135
130 130 130
126 126 126
130 130 130
143 143 143
154 154 154
156 156 156
156 156 156
155 155 155
155 155 155
153 153 153
146 146 146
138 138 138
131 131 131
127 127 127
117 117 117
113 113 113
114 114 114
117 117 117
125 125 125
128 128 128
130 130 130
129 129 129
131 131 131
136 136 136
137 137 137
140 140 140
142 142 142
142 142 142
143 143 143
141 141 141
140 140 140
140 140 140
139 139 139
142 142 142
147 147 147
148 148 148
143 143 143
145 145 145
145 145 145
147 147 147
146 146 146
142 142 142
128 128 128
101 101 101
86 86 86
85 85 85
75 75 75
76 76 76
80 80 80
85 85 85
78 78 78
87 87 87
95 95 95
102 102 102
115 115 115
145 145 145
166 166 166
164 164 164
162 162 162
164 164 164
163 163 163
159 159 159
149 149 149
142 142 142
141 141 141
144 144 144
151 151 151
166 166 166
175 175 175
178 178 178
176 176 176
171 171 171
163 163 163
158 158 158
149 149 149
138 138 138
130 130 130
122 122 122
113 113 113
106 106 106
106 106 106
111 111 111
114 114 114
120 120 120
125 125 125
132 132 132
137 137 137
145 145 145
145 145 145
146 146 146
150 150 150
151 151 151
152 152 152
148 148 148
147 147 147
146 146 146
146 146 146
147 147 147
147 147 147
145 145 145
141 141 141
143 143 143
145 145 145
146 146 146
144 144 144
138 138 138
120 120 120
92 92 92
83 83 83
83 83 83
70 70 70
74 74 74
75 75 75
78 78 78
74 74 74
80 80 80
93 93 93
101 101 101
106 106 106
125 125 125
158 158 158
164 164 164
161 161 161
160 160 160
159 159 159
158 158 158
153 153 153
152 152 152
151 151 151
158 158 158
171 171 171
186 186 186
192 192 192
193 193 193
186 186 186
183 183 183
171 171 171
160 160 160
155 155 155
140 140 140
127 127 127
119 119 119
110 110 110
104 104 104
105 105 105
106 106 106
107 107 107
116 116 116
125 125 125
131 131 131
141 141 141
152 152 152
154 154 154
159 159 159
166 166 166
166 166 166
170 170 170
168 168 168
164 164 164
158 158 158
152 152 152
149 149 149
147 147 147
145 145 145
140 140 140
144 144 144
143 143 143
143 143 143
140 140 140
133 133 133
118 118 118
86 86 86
85 85 85
77 77 77
68 68 68
71 71 71
72 72 72
77 77 77
72 72 72
75 75 75
90 90 90
100 100 100
101 101 101
108 108 108
145 145 145
161 161 161
162 162 162
157 157 157
156 156 156
158 158 158
157 157 157
155 155 155
156 156 156
164 164 164
174 174 174
186 186 186
198 198 198
200 200 200
192 192 192
182 182 182
172 172 172
159 159 159
148 148 148
138 138 138
128 128 128
117 117 117
108 108 108
103 103 103
106 106 106
107 107 107
105 105 105
112 112 112
124 124 124
132 132 132
143 143 143
151 151 151
157 157 157
167 167 167
174 174 174
177 177 177
185 185 185
180 180 180
171 171 171
161 161 161
154 154 154
150 150 150
147 147 147
143 143 143
139 139 139
141 141 141
142 142 142
140 140 140
137 137 137
135 135 135
117 117 117
84 84 84
85 85 85
73 73 73
65 65 65
69 69 69
73 73 73
77 77 77
72 72 72
71 71 71
86 86 86
98 98 98
100 100 100
101 101 101
127 127 127
152 152 152
160 160 160
157 157 157
156 156 156
157 157 157
160 160 160
157 157 157
161 161 161
162 162 162
165 165 165
168 168 168
179 179 179
185 185 185
180 180 180
172 172 172
161 161 161
149 149 149
132 132 132
128 128 128
123 123 123
112 112 112
106 106 106
106 106 106
105 105 105
105 105 105
104 104 104
109 109 109
114 114 114
126 126 126
136 136 136
146 146 146
153 153 153
168 168 168
175 175 175
176 176 176
178 178 178
172 172 172
165 165 165
158 158 158
152 152 152
149 149 149
145 145 145
141 141 141
138 138 138
141 141 141
140 140 140
135 135 135
137 137 137
136 136 136
119 119 119
83 83 83
80 80 80
68 68 68
62 62 62
71 71 71
73 73 73
74 74 74
72 72 72
70 70 70
83 83 83
94 94 94
96 96 96
100 100 100
119 119 119
138 138 138
155 155 155
159 159 159
156 156 156
156 156 156
161 161 161
161 161 161
160 160 160
157 157 157
158 158 158
154 154 154
159 159 159
163 163 163
164 164 164
159 159 159
153 153 153
136 136 136
120 120 120
115 115 115
110 110 110
100 100 100
97 97 97
101 101 101
92 92 92
94 94 94
97 97 97
99 99 99
105 105 105
118 118 118
129 129 129
139 139 139
149 149 149
164 164 164
170 170 170
169 169 169
168 168 168
162 162 162
156 156 156
150 150 150
151 151 151
151 151 151
145 145 145
141 141 141
139 139 139
142 142 142
139 139 139
133 133 133
138 138 138
136 136 136
121 121 121
84 84 84
76 76 76
64 64 64
63 63 63
71 71 71
73 73 73
74 74 74
73 73 73
69 69 69
80 80 80
90 90 90
92 92 92
98 98 98
114 114 114
130 130 130
149 149 149
157 157 157
158 158 158
161 161 161
161 161 161
163 163 163
156 156 156
155 155 155
153 153 153
147 147 147
146 146 146
148 148 148
151 151 151
148 148 148
144 144 144
128 128 128
116 116 116
115 115 115
111 111 111
104 104 104
100 100 100
101 101 101
93 93 93
91 91 91
98 98 98
103 103 103
112 112 112
124 124 124
135 135 135
139 139 139
147 147 147
161 161 161
162 162 162
159 159 159
157 157 157
151 151 151
148 148 148
146 146 146
148 148 148
148 148 148
144 144 144
140 140 140
141 141 141
140 140 140
138 138 138
135 135 135
140 140 140
137 137 137
127 127 127
84 84 84
71 71 71
59 59 59
65 65 65
70 70 70
73 73 73
73 73 73
72 72 72
70 70 70
77 77 77
86 86 86
88 88 88
94 94 94
108 108 108
128 128 128
149 149 149
164 164 164
162 162 162
160 160 160
162 162 162
164 164 164
155 155 155
147 147 147
147 147 147
141 141 141
142 142 142
138 138 138
138 138 138
138 138 138
134 134 134
126 126 126
115 115 115
110 110 110
112 112 112
112 112 112
109 109 109
107 107 107
105 105 105
102 102 102
109 109 109
117 117 117
125 125 125
135 135 135
139 139 139
142 142 142
148 148 148
155 155 155
156 156 156
155 155 155
152 152 152
146 146 146
145 145 145
142 142 142
144 144 144
144 144 144
141 141 141
142 142 142
140 140 140
139 139 139
136 136 136
138 138 138
143 143 143
140 140 140
127 127 127
86 86 86
69 69 69
59 59 59
68 68 68
72 72 72
71 71 71
75 75 75
73 73 73
68 68 68
75 75 75
82 82 82
84 84 84
86 86 86
97 97 97
126 126 126
153 153 153
169 169 169
167 167 167
158 158 158
159 159 159
163 163 163
158 158 158
146 146 146
143 143 143
140 140 140
143 143 143
137 137 137
134 134 134
132 132 132
128 128 128
125 125 125
119 119 119
115 115 115
113 113 113
116 116 116
118 118 118
117 117 117
118 118 118
118 118 118
124 124 124
133 133 133
137 137 137
139 139 139
140 140 140
141 141 141
147 147 147
154 154 154
154 154 154
154 154 154
150 150 150
146 146 146
143 143 143
141 141 141
139 139 139
139 139 139
141 141 141
141 141 141
138 138 138
139 139 139
139 139 139
142 142 142
148 148 148
145 145 145
130 130 130
86 86 86
65 65 65
59 59 59
71 71 71
72 72 72
72 72 72
76 76 76
75 75 75
68 68 68
72 72 72
78 78 78
76 76 76
77 77 77
93 93 93
127 127 127
156 156 156
171 171 171
170 170 170
161 161 161
157 157 157
162 162 162
159 159 159
146 146 146
140 140 140
138 138 138
137 137 137
138 138 138
134 134 134
134 134 134
131 131 131
124 124 124
116 116 116
119 119 119
120 120 120
122 122 122
123 123 123
125 125 125
127 127 127
128 128 128
134 134 134
137 137 137
140 140 140
143 143 143
139 139 139
143 143 143
147 147 147
153 153 153
151 151 151
150 150 150
148 148 148
144 144 144
141 141 141
140 140 140
139 139 139
138 138 138
141 141 141
142 142 142
138 138 138
138 138 138
145 145 145
149 149 149
152 152 152
145 145 145
131 131 131
86 86 86
62 62 62
60 60 60
71 71 71
70 70 70
72 72 72
75 75 75
76 76 76
68 68 68
68 68 68
69 69 69
64 64 64
75 75 75
96 96 96
131 131 131
160 160 160
173 173 173
173 173 173
168 168 168
163 163 163
158 158 158
154 154 154
143 143 143
139 139 139
133 133 133
133 133 133
134 134 134
134 134 134
134 134 134
132 132 132
123 123 123
115 115 115
117 117 117
117 117 117
117 117 117
120 120 120
120 120 120
123 123 123
123 123 123
126 126 126
131 131 131
135 135 135
141 141 141
140 140 140
140 140 140
144 144 144
147 147 147
148 148 148
147 147 147
145 145 145
140 140 140
139 139 139
136 136 136
135 135 135
139 139 139
140 140 140
142 142 142
139 139 139
142 142 142
149 149 149
155 155 155
155 155 155
145 145 145
132 132 132
89 89 89
63 63 63
61 61 61
72 72 72
73 73 73
72 72 72
75 75 75
68 68 68
62 62 62
58 58 58
59 59 59
61 61 61
75 75 75
101 101 101
131 131 131
162 162 162
176 176 176
175 175 175
169 169 169
164 164 164
157 157 157
152 152 152
141 141 141
138 138 138
133 133 133
130 130 130
129 129 129
134 134 134
134 134 134
134 134 134
127 127 127
122 122 122
121 121 121
116 116 116
116 116 116
116 116 116
117 117 117
120 120 120
121 121 121
121 121 121
128 128 128
133 133 133
140 140 140
139 139 139
136 136 136
139 139 139
143 143 143
143 143 143
142 142 142
141 141 141
138 138 138
133 133 133
132 132 132
132 132 132
135 135 135
139 139 139
141 141 141
142 142 142
145 145 145
151 151 151
158 158 158
158 158 158
145 145 145
135 135 135
93 93 93
64 64 64
62 62 62
73 73 73
75 75 75
73 73 73
65 65 65
55 55 55
48 48 48
50 50 50
55 55 55
58 58 58
73 73 73
102 102 102
132 132 132
166 166 166
177 177 177
176 176 176
171 171 171
165 165 165
156 156 156
151 151 151
140 140 140
135 135 135
133 133 133
130 130 130
129 129 129
133 133 133
135 135 135
134 134 134
129 129 129
130 130 130
128 128 128
123 123 123
121 121 121
122 122 122
123 123 123
125 125 125
127 127 127
128 128 128
132 132 132
134 134 134
136 136 136
135 135 135
134 134 134
136 136 136
139 139 139
137 137 137
136 136 136
136 136 136
133 133 133
130 130 130
126 126 126
133 133 133
136 136 136
141 141 141
144 144 144
148 148 148
151 151 151
158 158 158
161 161 161
158 158 158
147 147 147
137 137 137
99 99 99
67 67 67
64 64 64
73 73 73
77 77 77
74 74 74
52 52 52
45 45 45
44 44 44
48 48 48
55 55 55
55 55 55
73 73 73
104 104 104
135 135 135
171 171 171
181 181 181
178 178 178
174 174 174
167 167 167
156 156 156
148 148 148
141 141 141
137 137 137
134 134 134
130 130 130
130 130 130
129 129 129
130 130 130
131 131 131
128 128 128
127 127 127
126 126 126
124 124 124
121 121 121
121 121 121
125 125 125
126 126 126
127 127 127
128 128 128
129 129 129
130 130 130
129 129 129
129 129 129
129 129 129
131 131 131
134 134 134
132 132 132
129 129 129
129 129 129
128 128 128
129 129 129
125 125 125
131 131 131
139 139 139
141 141 141
145 145 145
148 148 148
157 157 157
160 160 160
163 163 163
161 161 161
147 147 147
141 141 141
103 103 103
71 71 71
63 63 63
70 70 70
75 75 75
76 76 76
46 46 46
43 43 43
44 44 44
48 48 48
55 55 55
54 54 54
71 71 71
106 106 106
141 141 141
176 176 176
187 187 187
180 180 180
172 172 172
168 168 168
155 155 155
145 145 145
140 140 140
138 138 138
134 134 134
128 128 128
127 127 127
124 124 124
122 122 122
121 121 121
117 117 117
114 114 114
112 112 112
113 113 113
109 109 109
115 115 115
117 117 117
117 117 117
120 120 120
120 120 120
121 121 121
121 121 121
123 123 123
124 124 124
123 123 123
126 126 126
125 125 125
124 124 124
123 123 123
123 123 123
121 121 121
124 124 124
127 127 127
131 131 131
139 139 139
143 143 143
147 147 147
147 147 147
158 158 158
163 163 163
165 165 165
163 163 163
149 149 149
147 147 147
110 110 110
75 75 75
63 63 63
65 65 65
73 73 73
77 77 77
44 44 44
40 40 40
42 42 42
49 49 49
53 53 53
53 53 53
70 70 70
106 106 106
148 148 148
186 186 186
191 191 191
184 184 184
175 175 175
161 161 161
150 150 150
143 143 143
140 140 140
137 137 137
129 129 129
126 126 126
122 122 122
123 123 123
117 117 117
111 111 111
104 104 104
100 100 100
97 97 97
97 97 97
99 99 99
102 102 102
107 107 107
109 109 109
110 110 110
110 110 110
112 112 112
113 113 113
117 117 117
118 118 118
115 115 115
115 115 115
116 116 116
116 116 116
117 117 117
118 118 118
120 120 120
120 120 120
128 128 128
134 134 134
141 141 141
143 143 143
148 148 148
149 149 149
158 158 158
163 163 163
163 163 163
164 164 164
154 154 154
150 150 150
119 119 119
81 81 81
66 66 66
67 67 67
71 71 71
75 75 75
42 42 42
39 39 39
41 41 41
45 45 45
49 49 49
49 49 49
73 73 73
108 108 108
160 160 160
197 197 197
197 197 197
184 184 184
174 174 174
160 160 160
145 145 145
139 139 139
139 139 139
133 133 133
130 130 130
125 125 125
119 119 119
117 117 117
115 115 115
107 107 107
96 96 96
92 92 92
90 90 90
89 89 89
89 89 89
93 93 93
96 96 96
98 98 98
99 99 99
101 101 101
100 100 100
102 102 102
105 105 105
106 106 106
104 104 104
107 107 107
109 109 109
111 111 111
111 111 111
113 113 113
115 115 115
119 119 119
126 126 126
136 136 136
141 141 141
142 142 142
149 149 149
153 153 153
160 160 160
160 160 160
164 164 164
166 166 166
158 158 158
156 156 156
124 124 124
86 86 86
71 71 71
72 72 72
71 71 71
74 74 74
40 40 40
37 37 37
39 39 39
44 44 44
43 43 43
45 45 45
69 69 69
114 114 114
170 170 170
200 200 200
194 194 194
182 182 182
169 169 169
156 156 156
142 142 142
132 132 132
131 131 131
131 131 131
128 128 128
121 121 121
116 116 116
110 110 110
110 110 110
103 103 103
96 96 96
89 89 89
88 88 88
87 87 87
82 82 82
86 86 86
89 89 89
89 89 89
91 91 91
91 91 91
88 88 88
91 91 91
93 93 93
95 95 95
98 98 98
100 100 100
103 103 103
106 106 106
106 106 106
106 106 106
113 113 113
121 121 121
130 130 130
138 138 138
140 140 140
142 142 142
150 150 150
156 156 156
160 160 160
161 161 161
165 165 165
167 167 167
161 161 161
158 158 158
129 129 129
91 91 91
72 72 72
74 74 74
74 74 74
74 74 74
