P3
64 64
255
87 87 87
106 106 106
126 126 126
136 136 136
160 160 160
186 186 186
205 205 205
199 199 199
190 190 190
185 185 185
181 181 181
176 176 176
172 172 172
165 165 165
158 158 158
152 152 152
147 147 147
141 141 141
138 138 138
134 134 134
133 133 133
130 130 130
129 129 129
129 129 129
128 128 128
130 130 130
132 132 132
134 134 134
135 135 135
141 141 141
148 148 148
148 148 148
151 151 151
154 154 154
161 161 161
165 165 165
169 169 169
178 178 178
184 184 184
189 189 189
192 192 192
199 199 199
205 205 205
210 210 210
216 216 216
221 221 221
227 227 227
232 232 232
236 236 236
239 239 239
240 240 240
240 240 240
241 241 241
245 245 245
244 244 244
239 239 239
236 236 236
236 236 236
234 234 234
226 226 226
222 222 222
216 216 216
180 180 180
132 132 132
90 90 90
113 113 113
130 130 130
144 144 144
163 163 163
191 191 191
203 203 203
196 196 196
190 190 190
185 185 185
180 180 180
175 175 175
170 170 170
163 163 163
157 157 157
153 153 153
149 149 149
143 143 143
140 140 140
135 135 135
134 134 134
133 133 133
133 133 133
131 131 131
132 132 132
132 132 132
134 134 134
134 134 134
135 135 135
139 139 139
144 144 144
145 145 145
150 150 150
153 153 153
157 157 157
160 160 160
164 164 164
172 172 172
178 178 178
183 183 183
188 188 188
194 194 194
199 199 199
205 205 205
209 209 209
214 214 214
221 221 221
228 228 228
232 232 232
236 236 236
237 237 237
238 238 238
240 240 240
243 243 243
250 250 250
246 246 246
244 244 244
242 242 242
239 239 239
230 230 230
226 226 226
220 220 220
190 190 190
145 145 145
90 90 90
116 116 116
136 136 136
148 148 148
168 168 168
194 194 194
202 202 202
196 196 196
191 191 191
185 185 185
178 178 178
172 172 172
167 167 167
161 161 161
158 158 158
155 155 155
151 151 151
145 145 145
141 141 141
138 138 138
136 136 136
137 137 137
136 136 136
133 133 133
134 134 134
133 133 133
135 135 135
137 137 137
139 139 139
139 139 139
143 143 143
145 145 145
151 151 151
153 153 153
156 156 156
158 158 158
163 163 163
170 170 170
175 175 175
181 181 181
186 186 186
192 192 192
196 196 196
200 200 200
206 206 206
209 209 209
216 216 216
221 221 221
227 227 227
229 229 229
231 231 231
233 233 233
236 236 236
243 243 243
245 245 245
247 247 247
245 245 245
245 245 245
242 242 242
234 234 234
226 226 226
222 222 222
197 197 197
153 153 153
90 90 90
119 119 119
142 142 142
158 158 158
176 176 176
196 196 196
200 200 200
196 196 196
190 190 190
183 183 183
175 175 175
169 169 169
166 166 166
162 162 162
158 158 158
156 156 156
153 153 153
149 149 149
143 143 143
138 138 138
139 139 139
140 140 140
139 139 139
134 134 134
136 136 136
136 136 136
136 136 136
139 139 139
144 144 144
143 143 143
144 144 144
147 147 147
154 154 154
154 154 154
157 157 157
159 159 159
162 162 162
170 170 170
177 177 177
180 180 180
185 185 185
188 188 188
192 192 192
196 196 196
201 201 201
204 204 204
209 209 209
215 215 215
221 221 221
223 223 223
227 227 227
228 228 228
230 230 230
235 235 235
239 239 239
244 244 244
242 242 242
244 244 244
243 243 243
236 236 236
227 227 227
222 222 222
200 200 200
161 161 161
89 89 89
117 117 117
141 141 141
160 160 160
181 181 181
195 195 195
196 196 196
193 193 193
187 187 187
180 180 180
173 173 173
169 169 169
166 166 166
162 162 162
158 158 158
154 154 154
152 152 152
148 148 148
143 143 143
139 139 139
140 140 140
139 139 139
138 138 138
135 135 135
138 138 138
137 137 137
138 138 138
141 141 141
149 149 149
150 150 150
149 149 149
152 152 152
159 159 159
160 160 160
157 157 157
159 159 159
164 164 164
170 170 170
176 176 176
179 179 179
179 179 179
179 179 179
185 185 185
188 188 188
192 192 192
195 195 195
199 199 199
206 206 206
211 211 211
214 214 214
216 216 216
219 219 219
222 222 222
222 222 222
229 229 229
235 235 235
238 238 238
239 239 239
240 240 240
237 237 237
229 229 229
224 224 224
203 203 203
164 164 164
90 90 90
118 118 118
143 143 143
164 164 164
184 184 184
192 192 192
191 191 191
190 190 190
187 187 187
180 180 180
173 173 173
168 168 168
161 161 161
156 156 156
152 152 152
149 149 149
148 148 148
145 145 145
141 141 141
140 140 140
138 138 138
137 137 137
135 135 135
131 131 131
137 137 137
138 138 138
137 137 137
142 142 142
151 151 151
155 155 155
154 154 154
158 158 158
166 166 166
167 167 167
159 159 159
157 157 157
161 161 161
167 167 167
170 170 170
172 172 172
172 172 172
171 171 171
174 174 174
176 176 176
180 180 180
183 183 183
186 186 186
191 191 191
197 197 197
198 198 198
200 200 200
205 205 205
207 207 207
208 208 208
213 213 213
221 221 221
228 228 228
231 231 231
234 234 234
232 232 232
229 229 229
225 225 225
206 206 206
170 170 170
96 96 96
118 118 118
147 147 147
168 168 168
184 184 184
189 189 189
188 188 188
190 190 190
187 187 187
178 178 178
169 169 169
157 157 157
146 146 146
139 139 139
135 135 135
134 134 134
133 133 133
132 132 132
130 130 130
128 128 128
125 125 125
125 125 125
125 125 125
124 124 124
131 131 131
131 131 131
131 131 131
138 138 138
148 148 148
151 151 151
157 157 157
161 161 161
171 171 171
168 168 168
158 158 158
154 154 154
156 156 156
160 160 160
164 164 164
164 164 164
163 163 163
161 161 161
157 157 157
156 156 156
159 159 159
164 164 164
169 169 169
171 171 171
175 175 175
177 177 177
181 181 181
186 186 186
186 186 186
184 184 184
189 189 189
201 201 201
212 212 212
220 220 220
223 223 223
224 224 224
226 226 226
225 225 225
207 207 207
174 174 174
103 103 103
124 124 124
154 154 154
173 173 173
186 186 186
193 193 193
191 191 191
186 186 186
175 175 175
160 160 160
150 150 150
138 138 138
127 127 127
121 121 121
118 118 118
116 116 116
118 118 118
116 116 116
112 112 112
109 109 109
108 108 108
107 107 107
111 111 111
116 116 116
123 123 123
123 123 123
127 127 127
137 137 137
139 139 139
141 141 141
151 151 151
162 162 162
170 170 170
167 167 167
158 158 158
151 151 151
146 146 146
150 150 150
157 157 157
148 148 148
142 142 142
139 139 139
130 130 130
124 124 124
127 127 127
131 131 131
129 129 129
135 135 135
136 136 136
139 139 139
145 145 145
159 159 159
157 157 157
155 155 155
160 160 160
171 171 171
184 184 184
199 199 199
208 208 208
210 210 210
218 218 218
221 221 221
203 203 203
169 169 169
110 110 110
134 134 134
157 157 157
180 180 180
194 194 194
197 197 197
188 188 188
170 170 170
150 150 150
135 135 135
126 126 126
116 116 116
104 104 104
99 99 99
103 103 103
97 97 97
103 103 103
97 97 97
92 92 92
95 95 95
95 95 95
92 92 92
97 97 97
105 105 105
114 114 114
115 115 115
121 121 121
125 125 125
125 125 125
132 132 132
148 148 148
161 161 161
168 168 168
165 165 165
154 154 154
147 147 147
134 134 134
132 132 132
146 146 146
127 127 127
115 115 115
116 116 116
106 106 106
94 94 94
95 95 95
97 97 97
95 95 95
128 128 128
126 126 126
123 123 123
125 125 125
137 137 137
148 148 148
130 130 130
122 122 122
137 137 137
156 156 156
173 173 173
188 188 188
192 192 192
202 202 202
212 212 212
196 196 196
167 167 167
113 113 113
138 138 138
155 155 155
183 183 183
201 201 201
197 197 197
177 177 177
149 149 149
122 122 122
112 112 112
111 111 111
110 110 110
110 110 110
110 110 110
110 110 110
108 108 108
110 110 110
98 98 98
97 97 97
101 101 101
102 102 102
101 101 101
101 101 101
110 110 110
125 125 125
123 123 123
122 122 122
127 127 127
120 120 120
127 127 127
145 145 145
158 158 158
161 161 161
158 158 158
144 144 144
135 135 135
120 120 120
115 115 115
137 137 137
128 128 128
109 109 109
118 118 118
114 114 114
86 86 86
82 82 82
79 79 79
81 81 81
151 151 151
163 163 163
157 157 157
150 150 150
154 154 154
167 167 167
160 160 160
142 142 142
130 130 130
138 138 138
155 155 155
168 168 168
180 180 180
187 187 187
202 202 202
196 196 196
162 162 162
111 111 111
136 136 136
155 155 155
187 187 187
205 205 205
189 189 189
158 158 158
130 130 130
117 117 117
120 120 120
125 125 125
131 131 131
128 128 128
127 127 127
125 125 125
123 123 123
121 121 121
108 108 108
111 111 111
112 112 112
120 120 120
116 116 116
113 113 113
130 130 130
148 148 148
150 150 150
160 160 160
144 144 144
131 131 131
138 138 138
145 145 145
155 155 155
157 157 157
153 153 153
144 144 144
131 131 131
112 112 112
110 110 110
120 120 120
126 126 126
123 123 123
117 117 117
104 104 104
86 86 86
82 82 82
83 83 83
90 90 90
128 128 128
177 177 177
197 197 197
206 206 206
211 211 211
213 213 213
210 210 210
203 203 203
191 191 191
175 175 175
144 144 144
153 153 153
166 166 166
181 181 181
193 193 193
193 193 193
162 162 162
110 110 110
130 130 130
157 157 157
192 192 192
203 203 203
174 174 174
148 148 148
135 135 135
133 133 133
142 142 142
147 147 147
152 152 152
145 145 145
140 140 140
139 139 139
137 137 137
139 139 139
125 125 125
129 129 129
126 126 126
137 137 137
129 129 129
130 130 130
155 155 155
186 186 186
179 179 179
180 180 180
206 206 206
190 190 190
167 167 167
164 164 164
172 172 172
176 176 176
165 165 165
155 155 155
138 138 138
126 126 126
125 125 125
123 123 123
117 117 117
109 109 109
99 99 99
87 87 87
83 83 83
85 85 85
90 90 90
103 103 103
128 128 128
197 197 197
214 214 214
216 216 216
211 211 211
208 208 208
205 205 205
205 205 205
199 199 199
202 202 202
188 188 188
137 137 137
159 159 159
179 179 179
191 191 191
188 188 188
165 165 165
105 105 105
128 128 128
171 171 171
201 201 201
195 195 195
166 166 166
158 158 158
159 159 159
163 163 163
173 173 173
170 170 170
168 168 168
164 164 164
160 160 160
155 155 155
155 155 155
148 148 148
132 132 132
132 132 132
130 130 130
139 139 139
131 131 131
134 134 134
155 155 155
192 192 192
209 209 209
210 210 210
203 203 203
216 216 216
186 186 186
168 168 168
175 175 175
178 178 178
173 173 173
171 171 171
158 158 158
140 140 140
130 130 130
116 116 116
109 109 109
100 100 100
90 90 90
86 86 86
95 95 95
103 103 103
118 118 118
132 132 132
172 172 172
232 232 232
227 227 227
224 224 224
219 219 219
201 201 201
177 177 177
167 167 167
151 151 151
158 158 158
170 170 170
145 145 145
155 155 155
175 175 175
189 189 189
186 186 186
169 169 169
96 96 96
125 125 125
167 167 167
190 190 190
182 182 182
169 169 169
183 183 183
187 187 187
192 192 192
188 188 188
166 166 166
160 160 160
173 173 173
180 180 180
178 178 178
175 175 175
166 166 166
151 151 151
152 152 152
148 148 148
156 156 156
148 148 148
143 143 143
143 143 143
157 157 157
176 176 176
190 190 190
195 195 195
207 207 207
189 189 189
169 169 169
167 167 167
168 168 168
164 164 164
173 173 173
159 159 159
139 139 139
133 133 133
115 115 115
100 100 100
96 96 96
95 95 95
102 102 102
113 113 113
129 129 129
141 141 141
144 144 144
164 164 164
222 222 222
237 237 237
238 238 238
236 236 236
221 221 221
181 181 181
166 166 166
137 137 137
129 129 129
150 150 150
159 159 159
158 158 158
167 167 167
184 184 184
184 184 184
172 172 172
100 100 100
159 159 159
190 190 190
180 180 180
167 167 167
176 176 176
200 200 200
206 206 206
200 200 200
180 180 180
153 153 153
177 177 177
197 197 197
186 186 186
169 169 169
159 159 159
145 145 145
151 151 151
152 152 152
145 145 145
153 153 153
143 143 143
130 130 130
115 115 115
113 113 113
118 118 118
134 134 134
187 187 187
201 201 201
195 195 195
173 173 173
164 164 164
163 163 163
163 163 163
150 150 150
137 137 137
134 134 134
133 133 133
111 111 111
103 103 103
110 110 110
124 124 124
135 135 135
139 139 139
143 143 143
141 141 141
138 138 138
137 137 137
161 161 161
197 197 197
213 213 213
214 214 214
186 186 186
172 172 172
169 169 169
149 149 149
134 134 134
147 147 147
165 165 165
161 161 161
169 169 169
182 182 182
178 178 178
171 171 171
98 98 98
143 143 143
158 158 158
153 153 153
158 158 158
177 177 177
206 206 206
211 211 211
198 198 198
173 173 173
175 175 175
199 199 199
184 184 184
161 161 161
157 157 157
154 154 154
143 143 143
145 145 145
156 156 156
151 151 151
161 161 161
147 147 147
124 124 124
114 114 114
106 106 106
103 103 103
114 114 114
156 156 156
187 187 187
178 178 178
157 157 157
149 149 149
145 145 145
142 142 142
135 135 135
126 126 126
127 127 127
131 131 131
118 118 118
130 130 130
134 134 134
150 150 150
157 157 157
147 147 147
153 153 153
143 143 143
132 132 132
128 128 128
126 126 126
143 143 143
167 167 167
177 177 177
169 169 169
157 157 157
166 166 166
156 156 156
146 146 146
150 150 150
167 167 167
169 169 169
195 195 195
206 206 206
172 172 172
170 170 170
94 94 94
117 117 117
136 136 136
161 161 161
168 168 168
176 176 176
201 201 201
207 207 207
199 199 199
187 187 187
186 186 186
174 174 174
153 153 153
159 159 159
159 159 159
147 147 147
137 137 137
138 138 138
151 151 151
156 156 156
158 158 158
149 149 149
134 134 134
118 118 118
111 111 111
108 108 108
123 123 123
144 144 144
181 181 181
170 170 170
156 156 156
150 150 150
147 147 147
141 141 141
139 139 139
137 137 137
131 131 131
130 130 130
134 134 134
159 159 159
153 153 153
148 148 148
155 155 155
150 150 150
158 158 158
157 157 157
137 137 137
117 117 117
123 123 123
136 136 136
153 153 153
146 146 146
149 149 149
159 159 159
166 166 166
168 168 168
168 168 168
159 159 159
162 162 162
163 163 163
168 168 168
181 181 181
192 192 192
170 170 170
90 90 90
108 108 108
127 127 127
153 153 153
160 160 160
160 160 160
183 183 183
198 198 198
199 199 199
197 197 197
180 180 180
164 164 164
160 160 160
167 167 167
164 164 164
151 151 151
147 147 147
152 152 152
156 156 156
146 146 146
134 134 134
138 138 138
141 141 141
138 138 138
125 125 125
126 126 126
130 130 130
147 147 147
184 184 184
170 170 170
154 154 154
148 148 148
146 146 146
141 141 141
140 140 140
140 140 140
125 125 125
128 128 128
141 141 141
159 159 159
158 158 158
147 147 147
142 142 142
137 137 137
146 146 146
156 156 156
149 149 149
143 143 143
145 145 145
152 152 152
153 153 153
135 135 135
124 124 124
144 144 144
165 165 165
179 179 179
184 184 184
180 180 180
170 170 170
160 160 160
147 147 147
148 148 148
148 148 148
149 149 149
77 77 77
90 90 90
104 104 104
136 136 136
158 158 158
161 161 161
200 200 200
221 221 221
218 218 218
207 207 207
188 188 188
174 174 174
169 169 169
161 161 161
148 148 148
140 140 140
133 133 133
135 135 135
134 134 134
123 123 123
120 120 120
125 125 125
132 132 132
128 128 128
129 129 129
139 139 139
120 120 120
150 150 150
183 183 183
170 170 170
155 155 155
146 146 146
143 143 143
142 142 142
139 139 139
138 138 138
120 120 120
121 121 121
138 138 138
149 149 149
156 156 156
150 150 150
137 137 137
131 131 131
129 129 129
144 144 144
151 151 151
151 151 151
155 155 155
160 160 160
152 152 152
135 135 135
132 132 132
143 143 143
158 158 158
176 176 176
184 184 184
182 182 182
170 170 170
159 159 159
151 151 151
161 161 161
152 152 152
129 129 129
79 79 79
89 89 89
85 85 85
122 122 122
152 152 152
179 179 179
218 218 218
224 224 224
219 219 219
211 211 211
200 200 200
188 188 188
177 177 177
157 157 157
130 130 130
116 116 116
108 108 108
109 109 109
113 113 113
113 113 113
115 115 115
118 118 118
123 123 123
122 122 122
138 138 138
139 139 139
116 116 116
157 157 157
179 179 179
169 169 169
156 156 156
146 146 146
142 142 142
143 143 143
143 143 143
139 139 139
122 122 122
115 115 115
136 136 136
153 153 153
149 149 149
152 152 152
142 142 142
127 127 127
122 122 122
126 126 126
130 130 130
131 131 131
132 132 132
140 140 140
140 140 140
138 138 138
142 142 142
153 153 153
164 164 164
174 174 174
189 189 189
192 192 192
176 176 176
155 155 155
146 146 146
156 156 156
145 145 145
122 122 122
113 113 113
119 119 119
104 104 104
129 129 129
153 153 153
175 175 175
199 199 199
204 204 204
202 202 202
199 199 199
196 196 196
193 193 193
182 182 182
156 156 156
127 127 127
109 109 109
104 104 104
107 107 107
113 113 113
118 118 118
125 125 125
131 131 131
142 142 142
153 153 153
155 155 155
127 127 127
122 122 122
166 166 166
177 177 177
169 169 169
157 157 157
149 149 149
144 144 144
146 146 146
147 147 147
141 141 141
126 126 126
117 117 117
134 134 134
160 160 160
161 161 161
156 156 156
153 153 153
141 141 141
133 133 133
123 123 123
121 121 121
122 122 122
120 120 120
126 126 126
133 133 133
139 139 139
144 144 144
152 152 152
161 161 161
172 172 172
182 182 182
188 188 188
178 178 178
154 154 154
149 149 149
163 163 163
149 149 149
118 118 118
145 145 145
145 145 145
127 127 127
150 150 150
157 157 157
171 171 171
189 189 189
195 195 195
194 194 194
191 191 191
190 190 190
192 192 192
186 186 186
167 167 167
148 148 148
137 137 137
136 136 136
139 139 139
143 143 143
147 147 147
154 154 154
161 161 161
174 174 174
180 180 180
155 155 155
120 120 120
138 138 138
174 174 174
177 177 177
166 166 166
155 155 155
148 148 148
150 150 150
150 150 150
149 149 149
144 144 144
131 131 131
121 121 121
120 120 120
153 153 153
167 167 167
165 165 165
160 160 160
155 155 155
156 156 156
147 147 147
137 137 137
132 132 132
127 127 127
128 128 128
133 133 133
138 138 138
142 142 142
147 147 147
153 153 153
167 167 167
173 173 173
176 176 176
167 167 167
148 148 148
149 149 149
158 158 158
147 147 147
125 125 125
127 127 127
131 131 131
131 131 131
164 164 164
168 168 168
173 173 173
184 184 184
187 187 187
187 187 187
183 183 183
178 178 178
179 179 179
175 175 175
169 169 169
163 163 163
160 160 160
154 154 154
155 155 155
159 159 159
163 163 163
170 170 170
173 173 173
181 181 181
174 174 174
153 153 153
133 133 133
155 155 155
176 176 176
171 171 171
160 160 160
150 150 150
150 150 150
154 154 154
152 152 152
151 151 151
144 144 144
132 132 132
124 124 124
115 115 115
127 127 127
157 157 157
165 165 165
164 164 164
158 158 158
156 156 156
159 159 159
159 159 159
158 158 158
153 153 153
150 150 150
150 150 150
145 145 145
143 143 143
141 141 141
147 147 147
156 156 156
161 161 161
164 164 164
154 154 154
141 141 141
149 149 149
157 157 157
153 153 153
136 136 136
111 111 111
114 114 114
131 131 131
174 174 174
181 181 181
174 174 174
175 175 175
175 175 175
174 174 174
172 172 172
172 172 172
168 168 168
160 160 160
151 151 151
147 147 147
144 144 144
143 143 143
148 148 148
158 158 158
163 163 163
163 163 163
158 158 158
158 158 158
165 165 165
169 169 169
152 152 152
159 159 159
170 170 170
162 162 162
152 152 152
148 148 148
152 152 152
156 156 156
152 152 152
149 149 149
147 147 147
135 135 135
124 124 124
125 125 125
116 116 116
131 131 131
150 150 150
157 157 157
154 154 154
155 155 155
153 153 153
155 155 155
153 153 153
153 153 153
151 151 151
150 150 150
146 146 146
140 140 140
138 138 138
140 140 140
144 144 144
149 149 149
152 152 152
143 143 143
138 138 138
152 152 152
162 162 162
158 158 158
143 143 143
110 110 110
113 113 113
143 143 143
180 180 180
185 185 185
175 175 175
168 168 168
166 166 166
165 165 165
166 166 166
162 162 162
156 156 156
146 146 146
140 140 140
136 136 136
134 134 134
139 139 139
143 143 143
147 147 147
147 147 147
139 139 139
131 131 131
156 156 156
180 180 180
174 174 174
155 155 155
161 161 161
167 167 167
156 156 156
148 148 148
151 151 151
157 157 157
158 158 158
153 153 153
150 150 150
148 148 148
137 137 137
126 126 126
127 127 127
132 132 132
119 119 119
124 124 124
142 142 142
143 143 143
146 146 146
148 148 148
149 149 149
148 148 148
146 146 146
145 145 145
145 145 145
142 142 142
136 136 136
134 134 134
134 134 134
138 138 138
143 143 143
139 139 139
132 132 132
139 139 139
159 159 159
164 164 164
158 158 158
143 143 143
118 118 118
121 121 121
155 155 155
183 183 183
183 183 183
179 179 179
171 171 171
165 165 165
158 158 158
149 149 149
147 147 147
145 145 145
141 141 141
137 137 137
133 133 133
131 131 131
133 133 133
131 131 131
126 126 126
120 120 120
118 118 118
140 140 140
172 172 172
177 177 177
168 168 168
157 157 157
166 166 166
171 171 171
159 159 159
148 148 148
152 152 152
161 161 161
161 161 161
156 156 156
151 151 151
150 150 150
141 141 141
130 130 130
128 128 128
136 136 136
130 130 130
123 123 123
118 118 118
124 124 124
131 131 131
138 138 138
142 142 142
146 146 146
147 147 147
145 145 145
144 144 144
140 140 140
131 131 131
129 129 129
132 132 132
135 135 135
135 135 135
132 132 132
135 135 135
150 150 150
164 164 164
163 163 163
155 155 155
142 142 142
122 122 122
129 129 129
160 160 160
182 182 182
184 184 184
180 180 180
173 173 173
165 165 165
159 159 159
155 155 155
146 146 146
138 138 138
128 128 128
123 123 123
120 120 120
116 116 116
116 116 116
117 117 117
119 119 119
122 122 122
127 127 127
145 145 145
163 163 163
167 167 167
163 163 163
158 158 158
164 164 164
174 174 174
158 158 158
143 143 143
146 146 146
157 157 157
158 158 158
153 153 153
151 151 151
150 150 150
146 146 146
135 135 135
130 130 130
133 133 133
133 133 133
136 136 136
133 133 133
111 111 111
104 104 104
115 115 115
123 123 123
129 129 129
132 132 132
131 131 131
131 131 131
126 126 126
119 119 119
118 118 118
120 120 120
122 122 122
128 128 128
140 140 140
152 152 152
162 162 162
170 170 170
160 160 160
151 151 151
143 143 143
125 125 125
132 132 132
162 162 162
184 184 184
188 188 188
183 183 183
176 176 176
166 166 166
161 161 161
159 159 159
155 155 155
148 148 148
139 139 139
134 134 134
127 127 127
123 123 123
120 120 120
119 119 119
121 121 121
123 123 123
129 129 129
141 141 141
149 149 149
154 154 154
157 157 157
150 150 150
152 152 152
162 162 162
143 143 143
123 123 123
124 124 124
135 135 135
139 139 139
140 140 140
140 140 140
137 137 137
135 135 135
133 133 133
129 129 129
126 126 126
125 125 125
135 135 135
140 140 140
129 129 129
115 115 115
109 109 109
110 110 110
111 111 111
112 112 112
112 112 112
110 110 110
106 106 106
104 104 104
108 108 108
112 112 112
122 122 122
137 137 137
153 153 153
166 166 166
170 170 170
171 171 171
157 157 157
149 149 149
142 142 142
128 128 128
139 139 139
168 168 168
189 189 189
193 193 193
185 185 185
177 177 177
168 168 168
161 161 161
156 156 156
148 148 148
137 137 137
130 130 130
124 124 124
120 120 120
113 113 113
112 112 112
115 115 115
119 119 119
123 123 123
132 132 132
138 138 138
135 135 135
149 149 149
147 147 147
127 127 127
123 123 123
134 134 134
116 116 116
93 93 93
94 94 94
106 106 106
113 113 113
116 116 116
116 116 116
108 108 108
108 108 108
112 112 112
120 120 120
124 124 124
120 120 120
128 128 128
137 137 137
133 133 133
124 124 124
117 117 117
115 115 115
110 110 110
110 110 110
112 112 112
109 109 109
109 109 109
109 109 109
110 110 110
116 116 116
127 127 127
142 142 142
158 158 158
170 170 170
175 175 175
170 170 170
155 155 155
146 146 146
140 140 140
129 129 129
145 145 145
176 176 176
194 194 194
192 192 192
185 185 185
176 176 176
168 168 168
160 160 160
152 152 152
139 139 139
127 127 127
121 121 121
115 115 115
114 114 114
113 113 113
113 113 113
118 118 118
121 121 121
125 125 125
135 135 135
135 135 135
130 130 130
144 144 144
130 130 130
94 94 94
74 74 74
90 90 90
91 91 91
65 65 65
60 60 60
78 78 78
89 89 89
89 89 89
79 79 79
66 66 66
63 63 63
78 78 78
97 97 97
119 119 119
130 130 130
135 135 135
136 136 136
131 131 131
126 126 126
114 114 114
109 109 109
107 107 107
106 106 106
107 107 107
107 107 107
106 106 106
108 108 108
108 108 108
117 117 117
127 127 127
143 143 143
162 162 162
170 170 170
175 175 175
168 168 168
152 152 152
144 144 144
134 134 134
126 126 126
151 151 151
175 175 175
191 191 191
186 186 186
180 180 180
174 174 174
168 168 168
162 162 162
150 150 150
137 137 137
127 127 127
120 120 120
118 118 118
120 120 120
121 121 121
119 119 119
120 120 120
124 124 124
128 128 128
134 134 134
134 134 134
126 126 126
133 133 133
118 118 118
71 71 71
37 37 37
50 50 50
79 79 79
61 61 61
42 42 42
58 58 58
73 73 73
70 70 70
53 53 53
35 35 35
33 33 33
48 48 48
77 77 77
114 114 114
141 141 141
151 151 151
150 150 150
140 140 140
130 130 130
115 115 115
105 105 105
105 105 105
102 102 102
102 102 102
103 103 103
103 103 103
105 105 105
110 110 110
118 118 118
129 129 129
145 145 145
162 162 162
170 170 170
172 172 172
166 166 166
150 150 150
141 141 141
125 125 125
116 116 116
153 153 153
173 173 173
189 189 189
183 183 183
178 178 178
173 173 173
168 168 168
162 162 162
150 150 150
139 139 139
133 133 133
126 126 126
126 126 126
128 128 128
126 126 126
124 124 124
122 122 122
126 126 126
133 133 133
142 142 142
140 140 140
131 131 131
126 126 126
120 120 120
82 82 82
45 45 45
64 64 64
92 92 92
82 82 82
53 53 53
52 52 52
66 66 66
68 68 68
62 62 62
47 47 47
40 40 40
51 51 51
79 79 79
120 120 120
148 148 148
159 159 159
165 165 165
161 161 161
148 148 148
135 135 135
119 119 119
114 114 114
107 107 107
104 104 104
102 102 102
105 105 105
107 107 107
114 114 114
122 122 122
134 134 134
151 151 151
162 162 162
169 169 169
169 169 169
163 163 163
147 147 147
133 133 133
123 123 123
101 101 101
148 148 148
172 172 172
188 188 188
183 183 183
178 178 178
174 174 174
169 169 169
162 162 162
153 153 153
144 144 144
138 138 138
134 134 134
131 131 131
131 131 131
128 128 128
125 125 125
126 126 126
131 131 131
145 145 145
157 157 157
156 156 156
145 145 145
136 136 136
128 128 128
111 111 111
98 98 98
109 109 109
113 113 113
94 94 94
63 63 63
52 52 52
64 64 64
75 75 75
85 85 85
80 80 80
68 68 68
72 72 72
94 94 94
126 126 126
149 149 149
160 160 160
173 173 173
176 176 176
168 168 168
158 158 158
144 144 144
133 133 133
125 125 125
119 119 119
117 117 117
117 117 117
119 119 119
125 125 125
134 134 134
141 141 141
155 155 155
161 161 161
166 166 166
166 166 166
161 161 161
144 144 144
122 122 122
127 127 127
93 93 93
137 137 137
169 169 169
187 187 187
185 185 185
178 178 178
176 176 176
170 170 170
162 162 162
154 154 154
148 148 148
144 144 144
139 139 139
135 135 135
132 132 132
128 128 128
125 125 125
129 129 129
142 142 142
163 163 163
177 177 177
174 174 174
163 163 163
154 154 154
148 148 148
143 143 143
140 140 140
141 141 141
120 120 120
92 92 92
62 62 62
55 55 55
68 68 68
86 86 86
100 100 100
108 108 108
104 104 104
106 106 106
118 118 118
134 134 134
151 151 151
161 161 161
175 175 175
183 183 183
181 181 181
171 171 171
158 158 158
149 149 149
141 141 141
134 134 134
133 133 133
132 132 132
133 133 133
136 136 136
142 142 142
149 149 149
157 157 157
163 163 163
165 165 165
163 163 163
159 159 159
137 137 137
122 122 122
132 132 132
81 81 81
124 124 124
161 161 161
183 183 183
186 186 186
180 180 180
175 175 175
171 171 171
164 164 164
158 158 158
154 154 154
148 148 148
142 142 142
138 138 138
134 134 134
129 129 129
130 130 130
141 141 141
162 162 162
182 182 182
189 189 189
184 184 184
175 175 175
171 171 171
169 169 169
170 170 170
167 167 167
152 152 152
116 116 116
83 83 83
67 67 67
63 63 63
77 77 77
95 95 95
108 108 108
124 124 124
131 131 131
134 134 134
137 137 137
146 146 146
152 152 152
162 162 162
176 176 176
186 186 186
187 187 187
177 177 177
169 169 169
158 158 158
150 150 150
145 145 145
143 143 143
143 143 143
145 145 145
146 146 146
149 149 149
155 155 155
159 159 159
163 163 163
163 163 163
160 160 160
152 152 152
134 134 134
130 130 130
137 137 137
78 78 78
110 110 110
150 150 150
182 182 182
188 188 188
183 183 183
178 178 178
174 174 174
168 168 168
163 163 163
158 158 158
151 151 151
145 145 145
140 140 140
136 136 136
135 135 135
142 142 142
158 158 158
180 180 180
192 192 192
192 192 192
184 184 184
180 180 180
179 179 179
179 179 179
180 180 180
175 175 175
148 148 148
114 114 114
89 89 89
82 82 82
83 83 83
95 95 95
110 110 110
118 118 118
133 133 133
147 147 147
148 148 148
150 150 150
153 153 153
154 154 154
160 160 160
171 171 171
182 182 182
184 184 184
180 180 180
176 176 176
165 165 165
157 157 157
151 151 151
147 147 147
149 149 149
149 149 149
151 151 151
152 152 152
158 158 158
161 161 161
162 162 162
161 161 161
156 156 156
146 146 146
136 136 136
141 141 141
144 144 144
79 79 79
96 96 96
139 139 139
179 179 179
190 190 190
186 186 186
182 182 182
177 177 177
172 172 172
170 170 170
163 163 163
157 157 157
149 149 149
143 143 143
140 140 140
146 146 146
158 158 158
174 174 174
190 190 190
194 194 194
191 191 191
184 184 184
176 176 176
174 174 174
179 179 179
180 180 180
171 171 171
142 142 142
118 118 118
108 108 108
105 105 105
107 107 107
115 115 115
125 125 125
133 133 133
143 143 143
154 154 154
160 160 160
161 161 161
157 157 157
154 154 154
157 157 157
167 167 167
175 175 175
180 180 180
178 178 178
177 177 177
172 172 172
163 163 163
156 156 156
152 152 152
152 152 152
153 153 153
154 154 154
157 157 157
159 159 159
161 161 161
162 162 162
158 158 158
152 152 152
141 141 141
138 138 138
144 144 144
142 142 142
81 81 81
90 90 90
131 131 131
172 172 172
191 191 191
188 188 188
184 184 184
182 182 182
176 176 176
175 175 175
172 172 172
163 163 163
152 152 152
146 146 146
151 151 151
163 163 163
172 172 172
180 180 180
191 191 191
191 191 191
185 185 185
178 178 178
167 167 167
164 164 164
167 167 167
174 174 174
166 166 166
147 147 147
131 131 131
127 127 127
126 126 126
124 124 124
131 131 131
141 141 141
147 147 147
155 155 155
161 161 161
163 163 163
165 165 165
160 160 160
158 158 158
159 159 159
164 164 164
171 171 171
173 173 173
172 172 172
173 173 173
174 174 174
168 168 168
161 161 161
156 156 156
157 157 157
155 155 155
155 155 155
156 156 156
159 159 159
159 159 159
158 158 158
155 155 155
148 148 148
140 140 140
140 140 140
150 150 150
145 145 145
84 84 84
87 87 87
121 121 121
159 159 159
187 187 187
189 189 189
185 185 185
182 182 182
178 178 178
178 178 178
176 176 176
169 169 169
157 157 157
153 153 153
163 163 163
174 174 174
178 178 178
179 179 179
184 184 184
182 182 182
174 174 174
164 164 164
156 156 156
152 152 152
151 151 151
161 161 161
163 163 163
154 154 154
147 147 147
147 147 147
149 149 149
144 144 144
150 150 150
155 155 155
157 157 157
163 163 163
166 166 166
165 165 165
165 165 165
163 163 163
159 159 159
159 159 159
160 160 160
164 164 164
171 171 171
169 169 169
168 168 168
168 168 168
168 168 168
165 165 165
162 162 162
161 161 161
159 159 159
156 156 156
157 157 157
157 157 157
156 156 156
155 155 155
151 151 151
145 145 145
137 137 137
146 146 146
152 152 152
143 143 143
86 86 86
90 90 90
105 105 105
139 139 139
181 181 181
189 189 189
184 184 184
181 181 181
178 178 178
179 179 179
178 178 178
172 172 172
160 160 160
155 155 155
164 164 164
170 170 170
169 169 169
169 169 169
169 169 169
165 165 165
155 155 155
147 147 147
142 142 142
142 142 142
140 140 140
145 145 145
156 156 156
152 152 152
155 155 155
160 160 160
164 164 164
163 163 163
166 166 166
171 171 171
168 168 168
167 167 167
167 167 167
165 165 165
163 163 163
159 159 159
157 157 157
156 156 156
155 155 155
157 157 157
160 160 160
162 162 162
163 163 163
162 162 162
166 166 166
166 166 166
166 166 166
165 165 165
164 164 164
157 157 157
155 155 155
153 153 153
151 151 151
150 150 150
147 147 147
143 143 143
131 131 131
137 137 137
139 139 139
126 126 126
88 88 88
87 87 87
92 92 92
120 120 120
170 170 170
184 184 184
182 182 182
177 177 177
176 176 176
176 176 176
177 177 177
173 173 173
161 161 161
155 155 155
158 158 158
158 158 158
151 151 151
150 150 150
149 149 149
143 143 143
136 136 136
128 128 128
128 128 128
128 128 128
127 127 127
130 130 130
138 138 138
141 141 141
148 148 148
161 161 161
165 165 165
165 165 165
168 168 168
171 171 171
170 170 170
163 163 163
161 161 161
159 159 159
160 160 160
157 157 157
154 154 154
153 153 153
151 151 151
153 153 153
150 150 150
148 148 148
152 152 152
154 154 154
161 161 161
162 162 162
165 165 165
163 163 163
163 163 163
158 158 158
153 153 153
147 147 147
148 148 148
145 145 145
142 142 142
138 138 138
115 115 115
111 111 111
110 110 110
102 102 102
92 92 92
84 84 84
84 84 84
104 104 104
155 155 155
178 178 178
178 178 178
174 174 174
170 170 170
173 173 173
174 174 174
170 170 170
164 164 164
152 152 152
149 149 149
143 143 143
127 127 127
117 117 117
117 117 117
115 115 115
117 117 117
110 110 110
108 108 108
108 108 108
111 111 111
111 111 111
112 112 112
115 115 115
128 128 128
143 143 143
149 149 149
151 151 151
149 149 149
150 150 150
150 150 150
146 146 146
142 142 142
142 142 142
145 145 145
145 145 145
146 146 146
145 145 145
145 145 145
146 146 146
142 142 142
136 136 136
136 136 136
142 142 142
149 149 149
158 158 158
164 164 164
166 166 166
160 160 160
158 158 158
151 151 151
144 144 144
144 144 144
142 142 142
138 138 138
123 123 123
94 94 94
92 92 92
92 92 92
90 90 90
94 94 94
85 85 85
81 81 81
93 93 93
136 136 136
167 167 167
177 177 177
172 172 172
168 168 168
169 169 169
169 169 169
168 168 168
160 160 160
146 146 146
144 144 144
130 130 130
108 108 108
90 90 90
89 89 89
89 89 89
94 94 94
96 96 96
94 94 94
93 93 93
95 95 95
93 93 93
89 89 89
92 92 92
104 104 104
114 114 114
124 124 124
128 128 128
125 125 125
123 123 123
125 125 125
125 125 125
122 122 122
123 123 123
125 125 125
125 125 125
129 129 129
130 130 130
131 131 131
132 132 132
128 128 128
126 126 126
125 125 125
133 133 133
141 141 141
151 151 151
158 158 158
165 165 165
159 159 159
155 155 155
148 148 148
140 140 140
140 140 140
141 141 141
133 133 133
107 107 107
82 82 82
83 83 83
84 84 84
84 84 84
92 92 92
85 85 85
80 80 80
85 85 85
118 118 118
156 156 156
172 172 172
168 168 168
163 163 163
164 164 164
163 163 163
163 163 163
152 152 152
140 140 140
135 135 135
118 118 118
97 97 97
83 83 83
89 89 89
92 92 92
95 95 95
99 99 99
98 98 98
93 93 93
91 91 91
84 84 84
81 81 81
78 78 78
86 86 86
92 92 92
99 99 99
106 106 106
106 106 106
109 109 109
114 114 114
112 112 112
113 113 113
115 115 115
118 118 118
121 121 121
122 122 122
122 122 122
124 124 124
124 124 124
127 127 127
125 125 125
127 127 127
130 130 130
140 140 140
146 146 146
151 151 151
158 158 158
156 156 156
151 151 151
147 147 147
139 139 139
139 139 139
138 138 138
124 124 124
95 95 95
77 77 77
77 77 77
78 78 78
83 83 83
87 87 87
82 82 82
79 79 79
81 81 81
103 103 103
143 143 143
167 167 167
166 166 166
157 157 157
157 157 157
160 160 160
156 156 156
147 147 147
140 140 140
129 129 129
114 114 114
98 98 98
94 94 94
103 103 103
109 109 109
109 109 109
112 112 112
118 118 118
114 114 114
105 105 105
98 98 98
90 90 90
87 87 87
87 87 87
90 90 90
93 93 93
102 102 102
105 105 105
110 110 110
114 114 114
115 115 115
117 117 117
119 119 119
122 122 122
123 123 123
129 129 129
130 130 130
131 131 131
129 129 129
132 132 132
129 129 129
129 129 129
131 131 131
136 136 136
145 145 145
149 149 149
148 148 148
150 150 150
147 147 147
145 145 145
141 141 141
137 137 137
134 134 134
115 115 115
84 84 84
75 75 75
75 75 75
70 70 70
75 75 75
80 80 80
74 74 74
74 74 74
77 77 77
91 91 91
126 126 126
155 155 155
162 162 162
152 152 152
154 154 154
154 154 154
153 153 153
147 147 147
137 137 137
125 125 125
118 118 118
110 110 110
112 112 112
123 123 123
130 130 130
130 130 130
134 134 134
140 140 140
141 141 141
133 133 133
125 125 125
117 117 117
113 113 113
108 108 108
105 105 105
103 103 103
107 107 107
112 112 112
121 121 121
126 126 126
124 124 124
124 124 124
125 125 125
126 126 126
128 128 128
136 136 136
141 141 141
139 139 139
138 138 138
136 136 136
136 136 136
135 135 135
133 133 133
137 137 137
145 145 145
147 147 147
145 145 145
144 144 144
145 145 145
142 142 142
140 140 140
136 136 136
127 127 127
100 100 100
79 79 79
73 73 73
71 71 71
65 65 65
74 74 74
75 75 75
69 69 69
72 72 72
74 74 74
83 83 83
108 108 108
141 141 141
156 156 156
150 150 150
149 149 149
152 152 152
153 153 153
146 146 146
135 135 135
128 128 128
126 126 126
125 125 125
128 128 128
141 141 141
152 152 152
154 154 154
154 154 154
151 151 151
151 151 151
147 147 147
138 138 138
130 130 130
124 124 124
121 121 121
113 113 113
110 110 110
112 112 112
114 114 114
123 123 123
127 127 127
129 129 129
129 129 129
132 132 132
137 137 137
137 137 137
140 140 140
143 143 143
143 143 143
145 145 145
142 142 142
140 140 140
140 140 140
137 137 137
140 140 140
144 144 144
146 146 146
142 142 142
143 143 143
142 142 142
140 140 140
137 137 137
132 132 132
117 117 117
88 88 88
73 73 73
74 74 74
66 66 66
68 68 68
74 74 74
73 73 73
64 64 64
70 70 70
74 74 74
79 79 79
91 91 91
124 124 124
150 150 150
149 149 149
144 144 144
148 148 148
149 149 149
147 147 147
138 138 138
134 134 134
136 136 136
141 141 141
149 149 149
164 164 164
173 173 173
176 176 176
174 174 174
169 169 169
158 158 158
152 152 152
142 142 142
131 131 131
125 125 125
118 118 118
111 111 111
105 105 105
106 106 106
111 111 111
115 115 115
121 121 121
128 128 128
134 134 134
140 140 140
149 149 149
148 148 148
149 149 149
153 153 153
154 154 154
155 155 155
149 149 149
147 147 147
146 146 146
144 144 144
145 145 145
144 144 144
144 144 144
140 140 140
141 141 141
140 140 140
139 139 139
135 135 135
128 128 128
109 109 109
78 78 78
71 71 71
71 71 71
62 62 62
68 68 68
73 73 73
69 69 69
63 63 63
65 65 65
73 73 73
79 79 79
83 83 83
102 102 102
141 141 141
149 149 149
144 144 144
143 143 143
144 144 144
145 145 145
141 141 141
143 143 143
145 145 145
154 154 154
169 169 169
184 184 184
190 190 190
190 190 190
183 183 183
180 180 180
167 167 167
155 155 155
150 150 150
135 135 135
123 123 123
117 117 117
110 110 110
104 104 104
106 106 106
107 107 107
109 109 109
118 118 118
129 129 129
135 135 135
145 145 145
157 157 157
157 157 157
161 161 161
168 168 168
169 169 169
173 173 173
170 170 170
166 166 166
159 159 159
151 151 151
148 148 148
145 145 145
143 143 143
138 138 138
141 141 141
136 136 136
136 136 136
131 131 131
124 124 124
107 107 107
72 72 72
72 72 72
66 66 66
62 62 62
68 68 68
71 71 71
69 69 69
63 63 63
62 62 62
71 71 71
79 79 79
77 77 77
85 85 85
127 127 127
146 146 146
147 147 147
139 139 139
139 139 139
144 144 144
145 145 145
144 144 144
148 148 148
158 158 158
170 170 170
184 184 184
196 196 196
197 197 197
188 188 188
178 178 178
167 167 167
153 153 153
140 140 140
132 132 132
123 123 123
113 113 113
106 106 106
101 101 101
106 106 106
108 108 108
105 105 105
112 112 112
125 125 125
133 133 133
145 145 145
153 153 153
158 158 158
168 168 168
175 175 175
179 179 179
188 188 188
182 182 182
173 173 173
162 162 162
153 153 153
149 149 149
145 145 145
141 141 141
136 136 136
135 135 135
134 134 134
131 131 131
128 128 128
126 126 126
106 106 106
69 69 69
72 72 72
63 63 63
62 62 62
69 69 69
72 72 72
68 68 68
64 64 64
59 59 59
68 68 68
77 77 77
77 77 77
79 79 79
109 109 109
135 135 135
144 144 144
141 141 141
139 139 139
140 140 140
147 147 147
146 146 146
151 151 151
154 154 154
159 159 159
163 163 163
175 175 175
181 181 181
176 176 176
168 168 168
155 155 155
142 142 142
123 123 123
120 120 120
116 116 116
106 106 106
101 101 101
102 102 102
101 101 101
102 102 102
101 101 101
106 106 106
111 111 111
125 125 125
135 135 135
145 145 145
152 152 152
168 168 168
176 176 176
178 178 178
181 181 181
174 174 174
166 166 166
158 158 158
151 151 151
148 148 148
144 144 144
139 139 139
134 134 134
135 135 135
132 132 132
127 127 127
129 129 129
128 128 128
108 108 108
68 68 68
68 68 68
61 61 61
62 62 62
72 72 72
71 71 71
66 66 66
64 64 64
60 60 60
68 68 68
75 75 75
74 74 74
79 79 79
101 101 101
121 121 121
139 139 139
143 143 143
140 140 140
138 138 138
145 145 145
149 149 149
149 149 149
147 147 147
150 150 150
147 147 147
152 152 152
157 157 157
158 158 158
153 153 153
148 148 148
129 129 129
111 111 111
107 107 107
102 102 102
92 92 92
90 90 90
95 95 95
86 86 86
89 89 89
92 92 92
95 95 95
101 101 101
116 116 116
126 126 126
137 137 137
148 148 148
165 165 165
171 171 171
170 170 170
169 169 169
163 163 163
156 156 156
150 150 150
151 151 151
151 151 151
143 143 143
138 138 138
134 134 134
136 136 136
131 131 131
126 126 126
131 131 131
128 128 128
111 111 111
69 69 69
65 65 65
60 60 60
63 63 63
72 72 72
72 72 72
66 66 66
64 64 64
59 59 59
67 67 67
73 73 73
71 71 71
79 79 79
95 95 95
111 111 111
132 132 132
142 142 142
143 143 143
144 144 144
144 144 144
148 148 148
144 144 144
143 143 143
143 143 143
139 139 139
138 138 138
140 140 140
143 143 143
141 141 141
138 138 138
121 121 121
109 109 109
109 109 109
105 105 105
98 98 98
94 94 94
95 95 95
87 87 87
86 86 86
93 93 93
99 99 99
110 110 110
121 121 121
133 133 133
137 137 137
146 146 146
163 163 163
163 163 163
160 160 160
157 157 157
151 151 151
147 147 147
144 144 144
147 147 147
146 146 146
142 142 142
136 136 136
135 135 135
133 133 133
131 131 131
129 129 129
134 134 134
129 129 129
116 116 116
70 70 70
63 63 63
58 58 58
67 67 67
72 72 72
73 73 73
65 65 65
63 63 63
61 61 61
66 66 66
71 71 71
68 68 68
76 76 76
89 89 89
110 110 110
133 133 133
149 149 149
147 147 147
146 146 146
146 146 146
147 147 147
140 140 140
134 134 134
136 136 136
131 131 131
133 133 133
129 129 129
131 131 131
131 131 131
128 128 128
119 119 119
108 108 108
104 104 104
107 107 107
108 108 108
105 105 105
103 103 103
100 100 100
98 98 98
106 106 106
116 116 116
124 124 124
134 134 134
138 138 138
142 142 142
148 148 148
156 156 156
156 156 156
155 155 155
152 152 152
145 145 145
144 144 144
141 141 141
142 142 142
141 141 141
137 137 137
137 137 137
133 133 133
133 133 133
130 130 130
132 132 132
137 137 137
132 132 132
115 115 115
73 73 73
64 64 64
60 60 60
70 70 70
74 74 74
72 72 72
68 68 68
64 64 64
59 59 59
65 65 65
68 68 68
66 66 66
67 67 67
77 77 77
108 108 108
137 137 137
155 155 155
152 152 152
143 143 143
144 144 144
146 146 146
142 142 142
131 131 131
131 131 131
129 129 129
134 134 134
129 129 129
126 126 126
125 125 125
122 122 122
119 119 119
112 112 112
109 109 109
109 109 109
113 113 113
116 116 116
115 115 115
115 115 115
116 116 116
123 123 123
133 133 133
137 137 137
139 139 139
139 139 139
141 141 141
147 147 147
154 154 154
154 154 154
154 154 154
150 150 150
146 146 146
143 143 143
140 140 140
136 136 136
136 136 136
136 136 136
136 136 136
132 132 132
133 133 133
133 133 133
136 136 136
142 142 142
137 137 137
118 118 118
76 76 76
64 64 64
61 61 61
74 74 74
74 74 74
74 74 74
68 68 68
67 67 67
60 60 60
63 63 63
65 65 65
58 58 58
56 56 56
73 73 73
109 109 109
141 141 141
157 157 157
156 156 156
145 145 145
142 142 142
146 146 146
143 143 143
131 131 131
126 126 126
126 126 126
129 129 129
130 130 130
127 127 127
129 129 129
126 126 126
119 119 119
111 111 111
114 114 114
117 117 117
119 119 119
122 122 122
123 123 123
125 125 125
126 126 126
133 133 133
137 137 137
140 140 140
142 142 142
138 138 138
143 143 143
148 148 148
153 153 153
151 151 151
151 151 151
149 149 149
144 144 144
140 140 140
138 138 138
136 136 136
135 135 135
137 137 137
137 137 137
132 132 132
132 132 132
139 139 139
142 142 142
145 145 145
136 136 136
122 122 122
78 78 78
62 62 62
63 63 63
75 75 75
73 73 73
74 74 74
67 67 67
67 67 67
59 59 59
58 58 58
58 58 58
47 47 47
56 56 56
75 75 75
114 114 114
145 145 145
159 159 159
158 158 158
153 153 153
147 147 147
142 142 142
137 137 137
127 127 127
124 124 124
119 119 119
122 122 122
126 126 126
127 127 127
129 129 129
128 128 128
118 118 118
109 109 109
112 112 112
113 113 113
114 114 114
117 117 117
118 118 118
121 121 121
120 120 120
124 124 124
130 130 130
134 134 134
141 141 141
140 140 140
141 141 141
144 144 144
149 149 149
149 149 149
148 148 148
146 146 146
140 140 140
138 138 138
133 133 133
131 131 131
134 134 134
136 136 136
137 137 137
134 134 134
136 136 136
142 142 142
147 147 147
146 146 146
136 136 136
124 124 124
83 83 83
63 63 63
64 64 64
76 76 76
75 75 75
73 73 73
67 67 67
59 59 59
51 51 51
47 47 47
47 47 47
46 46 46
55 55 55
80 80 80
113 113 113
146 146 146
162 162 162
160 160 160
154 154 154
148 148 148
141 141 141
135 135 135
125 125 125
123 123 123
117 117 117
117 117 117
120 120 120
127 127 127
129 129 129
130 130 130
122 122 122
118 118 118
118 118 118
112 112 112
112 112 112
113 113 113
115 115 115
117 117 117
118 118 118
118 118 118
126 126 126
132 132 132
139 139 139
139 139 139
136 136 136
140 140 140
145 145 145
145 145 145
144 144 144
141 141 141
137 137 137
131 131 131
128 128 128
127 127 127
131 131 131
135 135 135
136 136 136
137 137 137
139 139 139
143 143 143
150 150 150
150 150 150
138 138 138
128 128 128
88 88 88
64 64 64
65 65 65
76 76 76
78 78 78
74 74 74
54 54 54
43 43 43
36 36 36
38 38 38
43 43 43
45 45 45
55 55 55
82 82 82
114 114 114
151 151 151
163 163 163
161 161 161
156 156 156
149 149 149
139 139 139
134 134 134
124 124 124
119 119 119
117 117 117
115 115 115
117 117 117
123 123 123
128 128 128
129 129 129
124 124 124
127 127 127
126 126 126
121 121 121
118 118 118
119 119 119
121 121 121
123 123 123
124 124 124
125 125 125
130 130 130
133 133 133
136 136 136
135 135 135
134 134 134
136 136 136
141 141 141
138 138 138
136 136 136
135 135 135
131 131 131
126 126 126
122 122 122
129 129 129
132 132 132
137 137 137
139 139 139
142 142 142
144 144 144
149 149 149
153 153 153
151 151 151
141 141 141
131 131 131
94 94 94
67 67 67
66 66 66
76 76 76
79 79 79
75 75 75
40 40 40
32 32 32
31 31 31
36 36 36
44 44 44
43 43 43
57 57 57
85 85 85
117 117 117
155 155 155
167 167 167
164 164 164
159 159 159
151 151 151
141 141 141
131 131 131
125 125 125
121 121 121
117 117 117
114 114 114
115 115 115
117 117 117
121 121 121
125 125 125
123 123 123
123 123 123
123 123 123
121 121 121
118 118 118
118 118 118
123 123 123
123 123 123
123 123 123
125 125 125
127 127 127
128 128 128
128 128 128
129 129 129
128 128 128
131 131 131
135 135 135
132 132 132
128 128 128
127 127 127
125 125 125
125 125 125
120 120 120
126 126 126
134 134 134
137 137 137
138 138 138
140 140 140
150 150 150
153 153 153
157 157 157
155 155 155
142 142 142
136 136 136
98 98 98
71 71 71
66 66 66
73 73 73
77 77 77
76 76 76
34 34 34
30 30 30
31 31 31
36 36 36
44 44 44
43 43 43
56 56 56
87 87 87
122 122 122
161 161 161
173 173 173
166 166 166
158 158 158
153 153 153
140 140 140
129 129 129
124 124 124
122 122 122
117 117 117
112 112 112
111 111 111
110 110 110
111 111 111
113 113 113
110 110 110
107 107 107
106 106 106
107 107 107
104 104 104
110 110 110
113 113 113
112 112 112
116 116 116
115 115 115
117 117 117
119 119 119
120 120 120
122 122 122
122 122 122
125 125 125
124 124 124
122 122 122
121 121 121
120 120 120
117 117 117
119 119 119
122 122 122
125 125 125
134 134 134
138 138 138
138 138 138
139 139 139
150 150 150
157 157 157
160 160 160
160 160 160
146 146 146
143 143 143
106 106 106
75 75 75
66 66 66
67 67 67
74 74 74
77 77 77
31 31 31
27 27 27
28 28 28
37 37 37
42 42 42
43 43 43
55 55 55
87 87 87
130 130 130
172 172 172
178 178 178
170 170 170
160 160 160
146 146 146
137 137 137
128 128 128
125 125 125
120 120 120
112 112 112
110 110 110
107 107 107
107 107 107
104 104 104
100 100 100
94 94 94
90 90 90
89 89 89
89 89 89
93 93 93
96 96 96
102 102 102
104 104 104
105 105 105
106 106 106
108 108 108
110 110 110
115 115 115
117 117 117
113 113 113
113 113 113
113 113 113
113 113 113
113 113 113
114 114 114
115 115 115
113 113 113
122 122 122
129 129 129
135 135 135
135 135 135
140 140 140
142 142 142
151 151 151
158 158 158
160 160 160
161 161 161
152 152 152
147 147 147
115 115 115
80 80 80
69 69 69
68 68 68
70 70 70
75 75 75
28 28 28
26 26 26
28 28 28
32 32 32
37 37 37
38 38 38
58 58 58
89 89 89
143 143 143
184 184 184
185 185 185
170 170 170
158 158 158
145 145 145
131 131 131
124 124 124
126 126 126
118 118 118
112 112 112
108 108 108
104 104 104
102 102 102
100 100 100
94 94 94
85 85 85
81 81 81
81 81 81
80 80 80
81 81 81
87 87 87
91 91 91
93 93 93
94 94 94
96 96 96
96 96 96
98 98 98
101 101 101
103 103 103
100 100 100
103 103 103
105 105 105
106 106 106
106 106 106
107 107 107
108 108 108
112 112 112
119 119 119
130 130 130
134 134 134
134 134 134
142 142 142
147 147 147
155 155 155
157 157 157
162 162 162
165 165 165
156 156 156
153 153 153
121 121 121
85 85 85
74 74 74
74 74 74
71 71 71
73 73 73
26 26 26
23 23 23
25 25 25
31 31 31
30 30 30
34 34 34
53 53 53
96 96 96
153 153 153
188 188 188
181 181 181
169 169 169
153 153 153
141 141 141
127 127 127
117 117 117
117 117 117
116 116 116
112 112 112
103 103 103
101 101 101
96 96 96
94 94 94
88 88 88
82 82 82
77 77 77
77 77 77
78 78 78
73 73 73
78 78 78
83 83 83
84 84 84
85 85 85
86 86 86
83 83 83
86 86 86
88 88 88
90 90 90
93 93 93
95 95 95
98 98 98
99 99 99
99 99 99
99 99 99
105 105 105
113 113 113
121 121 121
130 130 130
131 131 131
134 134 134
144 144 144
152 152 152
157 157 157
159 159 159
164 164 164
167 167 167
159 159 159
156 156 156
126 126 126
89 89 89
74 74 74
76 76 76
74 74 74
72 72 72
