P3
64 64
255
153 153 153
179 179 179
203 203 203
206 206 206
213 213 213
221 221 221
222 222 222
206 206 206
192 192 192
185 185 185
181 181 181
177 177 177
173 173 173
170 170 170
166 166 166
162 162 162
159 159 159
156 156 156
153 153 153
149 149 149
148 148 148
146 146 146
144 144 144
143 143 143
142 142 142
143 143 143
142 142 142
142 142 142
141 141 141
143 143 143
146 146 146
147 147 147
149 149 149
150 150 150
153 153 153
154 154 154
153 153 153
156 156 156
159 159 159
161 161 161
161 161 161
163 163 163
164 164 164
166 166 166
169 169 169
171 171 171
173 173 173
174 174 174
176 176 176
178 178 178
177 177 177
176 176 176
177 177 177
179 179 179
181 181 181
179 179 179
176 176 176
175 175 175
175 175 175
173 173 173
175 175 175
169 169 169
135 135 135
111 111 111
160 160 160
190 190 190
210 210 210
213 213 213
216 216 216
226 226 226
223 223 223
206 206 206
191 191 191
184 184 184
180 180 180
176 176 176
173 173 173
169 169 169
166 166 166
165 165 165
162 162 162
158 158 158
155 155 155
151 151 151
151 151 151
149 149 149
148 148 148
145 145 145
145 145 145
145 145 145
144 144 144
142 142 142
142 142 142
142 142 142
144 144 144
146 146 146
149 149 149
150 150 150
152 152 152
153 153 153
154 154 154
155 155 155
159 159 159
161 161 161
162 162 162
164 164 164
166 166 166
167 167 167
168 168 168
170 170 170
173 173 173
175 175 175
175 175 175
176 176 176
176 176 176
176 176 176
178 178 178
181 181 181
185 185 185
185 185 185
182 182 182
180 180 180
180 180 180
177 177 177
177 177 177
172 172 172
143 143 143
117 117 117
165 165 165
197 197 197
217 217 217
217 217 217
221 221 221
229 229 229
223 223 223
205 205 205
190 190 190
184 184 184
180 180 180
176 176 176
172 172 172
169 169 169
168 168 168
167 167 167
164 164 164
160 160 160
157 157 157
154 154 154
152 152 152
152 152 152
151 151 151
148 148 148
148 148 148
147 147 147
145 145 145
145 145 145
145 145 145
144 144 144
146 146 146
147 147 147
150 150 150
151 151 151
153 153 153
154 154 154
156 156 156
158 158 158
161 161 161
164 164 164
166 166 166
166 166 166
167 167 167
167 167 167
168 168 168
169 169 169
171 171 171
174 174 174
176 176 176
175 175 175
175 175 175
175 175 175
177 177 177
181 181 181
183 183 183
185 185 185
184 184 184
183 183 183
183 183 183
180 180 180
177 177 177
175 175 175
151 151 151
123 123 123
172 172 172
204 204 204
222 222 222
224 224 224
225 225 225
231 231 231
223 223 223
203 203 203
189 189 189
184 184 184
179 179 179
175 175 175
173 173 173
171 171 171
169 169 169
168 168 168
166 166 166
163 163 163
159 159 159
156 156 156
155 155 155
154 154 154
153 153 153
149 149 149
149 149 149
148 148 148
146 146 146
146 146 146
149 149 149
149 149 149
147 147 147
150 150 150
154 154 154
155 155 155
156 156 156
156 156 156
157 157 157
161 161 161
165 165 165
167 167 167
169 169 169
169 169 169
169 169 169
169 169 169
170 170 170
170 170 170
172 172 172
174 174 174
178 178 178
177 177 177
176 176 176
176 176 176
176 176 176
178 178 178
181 181 181
185 185 185
184 184 184
184 184 184
185 185 185
181 181 181
179 179 179
175 175 175
156 156 156
128 128 128
176 176 176
207 207 207
223 223 223
228 228 228
229 229 229
230 230 230
219 219 219
200 200 200
189 189 189
184 184 184
179 179 179
175 175 175
172 172 172
171 171 171
170 170 170
169 169 169
166 166 166
164 164 164
161 161 161
158 158 158
157 157 157
154 154 154
152 152 152
149 149 149
149 149 149
148 148 148
147 147 147
148 148 148
152 152 152
151 151 151
151 151 151
154 154 154
159 159 159
161 161 161
158 158 158
157 157 157
159 159 159
162 162 162
166 166 166
169 169 169
168 168 168
168 168 168
170 170 170
170 170 170
171 171 171
172 172 172
174 174 174
175 175 175
177 177 177
178 178 178
176 176 176
177 177 177
176 176 176
173 173 173
177 177 177
181 181 181
182 182 182
183 183 183
184 184 184
183 183 183
179 179 179
177 177 177
159 159 159
131 131 131
183 183 183
210 210 210
226 226 226
231 231 231
230 230 230
228 228 228
215 215 215
198 198 198
190 190 190
185 185 185
179 179 179
173 173 173
169 169 169
168 168 168
167 167 167
165 165 165
165 165 165
163 163 163
159 159 159
156 156 156
152 152 152
150 150 150
146 146 146
143 143 143
145 145 145
146 146 146
145 145 145
148 148 148
152 152 152
154 154 154
154 154 154
158 158 158
164 164 164
165 165 165
160 160 160
157 157 157
158 158 158
162 162 162
164 164 164
166 166 166
167 167 167
167 167 167
168 168 168
168 168 168
168 168 168
169 169 169
170 170 170
172 172 172
172 172 172
171 171 171
171 171 171
173 173 173
172 172 172
168 168 168
170 170 170
177 177 177
181 181 181
182 182 182
182 182 182
180 180 180
180 180 180
179 179 179
162 162 162
135 135 135
189 189 189
211 211 211
230 230 230
232 232 232
229 229 229
226 226 226
212 212 212
199 199 199
192 192 192
186 186 186
178 178 178
167 167 167
158 158 158
154 154 154
153 153 153
152 152 152
151 151 151
148 148 148
145 145 145
140 140 140
137 137 137
135 135 135
134 134 134
132 132 132
136 136 136
136 136 136
136 136 136
141 141 141
146 146 146
149 149 149
154 154 154
160 160 160
168 168 168
166 166 166
159 159 159
154 154 154
155 155 155
158 158 158
160 160 160
159 159 159
159 159 159
158 158 158
158 158 158
156 156 156
154 154 154
155 155 155
159 159 159
158 158 158
159 159 159
160 160 160
161 161 161
162 162 162
165 165 165
165 165 165
159 159 159
164 164 164
176 176 176
182 182 182
181 181 181
179 179 179
182 182 182
181 181 181
165 165 165
137 137 137
192 192 192
213 213 213
232 232 232
234 234 234
228 228 228
226 226 226
213 213 213
195 195 195
185 185 185
175 175 175
164 164 164
152 152 152
139 139 139
136 136 136
135 135 135
134 134 134
134 134 134
130 130 130
126 126 126
122 122 122
120 120 120
117 117 117
119 119 119
121 121 121
125 125 125
125 125 125
125 125 125
131 131 131
134 134 134
138 138 138
148 148 148
159 159 159
166 166 166
164 164 164
157 157 157
152 152 152
148 148 148
150 150 150
153 153 153
145 145 145
141 141 141
138 138 138
133 133 133
130 130 130
131 131 131
130 130 130
128 128 128
132 132 132
130 130 130
132 132 132
137 137 137
142 142 142
145 145 145
150 150 150
149 149 149
147 147 147
156 156 156
173 173 173
181 181 181
179 179 179
181 181 181
182 182 182
164 164 164
136 136 136
195 195 195
219 219 219
232 232 232
237 237 237
230 230 230
225 225 225
206 206 206
183 183 183
166 166 166
156 156 156
148 148 148
134 134 134
122 122 122
119 119 119
121 121 121
116 116 116
117 117 117
112 112 112
110 110 110
111 111 111
108 108 108
104 104 104
106 106 106
111 111 111
116 116 116
116 116 116
116 116 116
119 119 119
120 120 120
128 128 128
143 143 143
157 157 157
163 163 163
161 161 161
153 153 153
149 149 149
141 141 141
137 137 137
141 141 141
129 129 129
121 121 121
120 120 120
113 113 113
109 109 109
109 109 109
109 109 109
107 107 107
125 125 125
123 123 123
121 121 121
122 122 122
125 125 125
130 130 130
124 124 124
125 125 125
132 132 132
140 140 140
153 153 153
170 170 170
175 175 175
177 177 177
182 182 182
164 164 164
137 137 137
196 196 196
223 223 223
231 231 231
239 239 239
233 233 233
220 220 220
194 194 194
168 168 168
148 148 148
141 141 141
138 138 138
131 131 131
127 127 127
126 126 126
124 124 124
120 120 120
119 119 119
110 110 110
110 110 110
112 112 112
112 112 112
110 110 110
108 108 108
114 114 114
122 122 122
121 121 121
119 119 119
118 118 118
116 116 116
125 125 125
142 142 142
155 155 155
159 159 159
155 155 155
146 146 146
142 142 142
134 134 134
128 128 128
134 134 134
129 129 129
119 119 119
122 122 122
119 119 119
107 107 107
103 103 103
100 100 100
100 100 100
134 134 134
143 143 143
141 141 141
139 139 139
141 141 141
146 146 146
142 142 142
135 135 135
132 132 132
135 135 135
140 140 140
149 149 149
165 165 165
172 172 172
181 181 181
171 171 171
139 139 139
195 195 195
220 220 220
229 229 229
241 241 241
234 234 234
209 209 209
176 176 176
152 152 152
147 147 147
147 147 147
149 149 149
148 148 148
143 143 143
140 140 140
135 135 135
130 130 130
126 126 126
117 117 117
120 120 120
121 121 121
124 124 124
121 121 121
119 119 119
129 129 129
139 139 139
140 140 140
142 142 142
131 131 131
126 126 126
137 137 137
147 147 147
154 154 154
158 158 158
151 151 151
146 146 146
143 143 143
136 136 136
131 131 131
132 132 132
133 133 133
133 133 133
131 131 131
123 123 123
112 112 112
106 106 106
104 104 104
105 105 105
125 125 125
151 151 151
162 162 162
168 168 168
173 173 173
174 174 174
174 174 174
172 172 172
164 164 164
155 155 155
137 137 137
136 136 136
150 150 150
169 169 169
177 177 177
174 174 174
143 143 143
195 195 195
216 216 216
229 229 229
245 245 245
229 229 229
194 194 194
167 167 167
159 159 159
161 161 161
169 169 169
169 169 169
166 166 166
157 157 157
147 147 147
143 143 143
138 138 138
135 135 135
125 125 125
127 127 127
127 127 127
132 132 132
128 128 128
129 129 129
143 143 143
161 161 161
161 161 161
159 159 159
169 169 169
165 165 165
160 160 160
160 160 160
164 164 164
166 166 166
159 159 159
155 155 155
150 150 150
147 147 147
146 146 146
144 144 144
138 138 138
134 134 134
127 127 127
114 114 114
108 108 108
106 106 106
107 107 107
113 113 113
130 130 130
166 166 166
175 175 175
176 176 176
175 175 175
175 175 175
176 176 176
180 180 180
177 177 177
172 172 172
156 156 156
127 127 127
144 144 144
165 165 165
176 176 176
173 173 173
149 149 149
195 195 195
215 215 215
236 236 236
246 246 246
220 220 220
186 186 186
178 178 178
178 178 178
186 186 186
191 191 191
182 182 182
173 173 173
162 162 162
153 153 153
149 149 149
148 148 148
144 144 144
134 134 134
134 134 134
133 133 133
137 137 137
130 130 130
130 130 130
142 142 142
161 161 161
173 173 173
176 176 176
172 172 172
184 184 184
171 171 171
160 160 160
164 164 164
164 164 164
163 163 163
165 165 165
163 163 163
157 157 157
153 153 153
145 145 145
136 136 136
124 124 124
114 114 114
106 106 106
109 109 109
113 113 113
121 121 121
127 127 127
149 149 149
181 181 181
180 180 180
181 181 181
180 180 180
174 174 174
168 168 168
169 169 169
158 158 158
157 157 157
154 154 154
132 132 132
141 141 141
161 161 161
173 173 173
171 171 171
154 154 154
193 193 193
212 212 212
231 231 231
237 237 237
213 213 213
193 193 193
197 197 197
197 197 197
198 198 198
192 192 192
176 176 176
170 170 170
177 177 177
181 181 181
177 177 177
169 169 169
156 156 156
144 144 144
143 143 143
142 142 142
147 147 147
141 141 141
138 138 138
138 138 138
143 143 143
150 150 150
160 160 160
167 167 167
180 180 180
172 172 172
158 158 158
158 158 158
158 158 158
158 158 158
167 167 167
163 163 163
157 157 157
156 156 156
143 143 143
125 125 125
116 116 116
114 114 114
116 116 116
122 122 122
132 132 132
135 135 135
132 132 132
139 139 139
168 168 168
181 181 181
186 186 186
189 189 189
182 182 182
167 167 167
168 168 168
155 155 155
146 146 146
151 151 151
145 145 145
143 143 143
155 155 155
168 168 168
167 167 167
157 157 157
198 198 198
227 227 227
239 239 239
228 228 228
206 206 206
203 203 203
209 209 209
204 204 204
197 197 197
182 182 182
175 175 175
200 200 200
208 208 208
192 192 192
171 171 171
153 153 153
136 136 136
138 138 138
135 135 135
132 132 132
141 141 141
141 141 141
135 135 135
129 129 129
124 124 124
120 120 120
126 126 126
161 161 161
176 176 176
172 172 172
159 159 159
155 155 155
155 155 155
158 158 158
156 156 156
152 152 152
154 154 154
156 156 156
136 136 136
122 122 122
124 124 124
132 132 132
139 139 139
140 140 140
143 143 143
140 140 140
133 133 133
128 128 128
137 137 137
160 160 160
175 175 175
179 179 179
169 169 169
164 164 164
167 167 167
161 161 161
152 152 152
154 154 154
154 154 154
147 147 147
153 153 153
164 164 164
165 165 165
158 158 158
195 195 195
216 216 216
222 222 222
213 213 213
200 200 200
206 206 206
210 210 210
202 202 202
190 190 190
175 175 175
192 192 192
215 215 215
194 194 194
165 165 165
157 157 157
150 150 150
143 143 143
142 142 142
147 147 147
141 141 141
150 150 150
144 144 144
128 128 128
122 122 122
122 122 122
116 116 116
116 116 116
143 143 143
168 168 168
162 162 162
152 152 152
146 146 146
145 145 145
146 146 146
149 149 149
148 148 148
151 151 151
153 153 153
137 137 137
134 134 134
137 137 137
143 143 143
145 145 145
138 138 138
145 145 145
149 149 149
147 147 147
139 139 139
130 130 130
135 135 135
154 154 154
160 160 160
161 161 161
160 160 160
164 164 164
160 160 160
156 156 156
158 158 158
161 161 161
156 156 156
166 166 166
176 176 176
164 164 164
159 159 159
189 189 189
200 200 200
211 211 211
215 215 215
203 203 203
201 201 201
206 206 206
196 196 196
187 187 187
181 181 181
186 186 186
179 179 179
157 157 157
154 154 154
155 155 155
142 142 142
143 143 143
143 143 143
150 150 150
151 151 151
152 152 152
144 144 144
130 130 130
116 116 116
114 114 114
116 116 116
127 127 127
139 139 139
165 165 165
158 158 158
151 151 151
147 147 147
146 146 146
145 145 145
151 151 151
154 154 154
154 154 154
151 151 151
144 144 144
146 146 146
144 144 144
132 132 132
135 135 135
130 130 130
139 139 139
145 145 145
142 142 142
128 128 128
134 134 134
138 138 138
158 158 158
149 149 149
143 143 143
153 153 153
162 162 162
160 160 160
160 160 160
160 160 160
161 161 161
157 157 157
153 153 153
161 161 161
171 171 171
162 162 162
181 181 181
191 191 191
203 203 203
208 208 208
198 198 198
189 189 189
196 196 196
193 193 193
190 190 190
184 184 184
165 165 165
152 152 152
147 147 147
155 155 155
156 156 156
143 143 143
148 148 148
155 155 155
153 153 153
145 145 145
133 133 133
133 133 133
135 135 135
128 128 128
123 123 123
129 129 129
134 134 134
147 147 147
168 168 168
159 159 159
151 151 151
147 147 147
146 146 146
147 147 147
152 152 152
154 154 154
148 148 148
146 146 146
145 145 145
148 148 148
144 144 144
131 131 131
127 127 127
119 119 119
130 130 130
143 143 143
142 142 142
141 141 141
141 141 141
144 144 144
151 151 151
140 140 140
132 132 132
136 136 136
145 145 145
157 157 157
161 161 161
164 164 164
166 166 166
158 158 158
146 146 146
143 143 143
148 148 148
148 148 148
168 168 168
180 180 180
190 190 190
196 196 196
192 192 192
190 190 190
206 206 206
205 205 205
199 199 199
187 187 187
167 167 167
156 156 156
155 155 155
151 151 151
146 146 146
143 143 143
139 139 139
141 141 141
137 137 137
127 127 127
120 120 120
120 120 120
125 125 125
123 123 123
122 122 122
133 133 133
136 136 136
154 154 154
169 169 169
161 161 161
151 151 151
147 147 147
147 147 147
149 149 149
152 152 152
153 153 153
145 145 145
139 139 139
140 140 140
144 144 144
142 142 142
135 135 135
124 124 124
115 115 115
116 116 116
132 132 132
139 139 139
143 143 143
142 142 142
145 145 145
145 145 145
137 137 137
137 137 137
135 135 135
136 136 136
148 148 148
158 158 158
163 163 163
162 162 162
155 155 155
146 146 146
150 150 150
148 148 148
137 137 137
161 161 161
176 176 176
180 180 180
194 194 194
192 192 192
201 201 201
215 215 215
208 208 208
199 199 199
191 191 191
183 183 183
174 174 174
165 165 165
153 153 153
137 137 137
128 128 128
122 122 122
119 119 119
117 117 117
115 115 115
112 112 112
114 114 114
116 116 116
120 120 120
131 131 131
140 140 140
140 140 140
161 161 161
168 168 168
161 161 161
154 154 154
151 151 151
149 149 149
151 151 151
153 153 153
155 155 155
146 146 146
135 135 135
138 138 138
143 143 143
137 137 137
133 133 133
127 127 127
115 115 115
110 110 110
115 115 115
121 121 121
126 126 126
126 126 126
131 131 131
132 132 132
135 135 135
140 140 140
141 141 141
142 142 142
148 148 148
161 161 161
168 168 168
165 165 165
153 153 153
143 143 143
150 150 150
144 144 144
129 129 129
169 169 169
188 188 188
189 189 189
200 200 200
194 194 194
202 202 202
206 206 206
197 197 197
192 192 192
188 188 188
186 186 186
180 180 180
171 171 171
154 154 154
136 136 136
122 122 122
117 117 117
116 116 116
117 117 117
119 119 119
121 121 121
123 123 123
129 129 129
140 140 140
148 148 148
142 142 142
145 145 145
167 167 167
168 168 168
162 162 162
157 157 157
154 154 154
153 153 153
154 154 154
157 157 157
155 155 155
147 147 147
137 137 137
137 137 137
148 148 148
145 145 145
137 137 137
133 133 133
124 124 124
118 118 118
109 109 109
109 109 109
114 114 114
116 116 116
121 121 121
128 128 128
136 136 136
143 143 143
146 146 146
144 144 144
149 149 149
160 160 160
168 168 168
164 164 164
151 151 151
145 145 145
154 154 154
146 146 146
125 125 125
177 177 177
200 200 200
199 199 199
209 209 209
199 199 199
197 197 197
199 199 199
190 190 190
188 188 188
185 185 185
185 185 185
182 182 182
175 175 175
159 159 159
147 147 147
139 139 139
137 137 137
138 138 138
138 138 138
140 140 140
143 143 143
147 147 147
156 156 156
163 163 163
157 157 157
144 144 144
155 155 155
172 172 172
168 168 168
163 163 163
158 158 158
155 155 155
155 155 155
157 157 157
159 159 159
156 156 156
148 148 148
140 140 140
133 133 133
147 147 147
153 153 153
147 147 147
140 140 140
135 135 135
133 133 133
127 127 127
119 119 119
118 118 118
117 117 117
119 119 119
125 125 125
132 132 132
138 138 138
141 141 141
144 144 144
149 149 149
154 154 154
157 157 157
152 152 152
145 145 145
146 146 146
154 154 154
146 146 146
128 128 128
163 163 163
192 192 192
201 201 201
217 217 217
204 204 204
196 196 196
194 194 194
186 186 186
183 183 183
181 181 181
180 180 180
181 181 181
175 175 175
168 168 168
162 162 162
160 160 160
155 155 155
154 154 154
155 155 155
156 156 156
160 160 160
163 163 163
169 169 169
169 169 169
163 163 163
155 155 155
166 166 166
173 173 173
167 167 167
161 161 161
155 155 155
155 155 155
155 155 155
157 157 157
160 160 160
157 157 157
149 149 149
142 142 142
131 131 131
135 135 135
151 151 151
152 152 152
148 148 148
143 143 143
140 140 140
140 140 140
139 139 139
138 138 138
135 135 135
134 134 134
137 137 137
136 136 136
137 137 137
136 136 136
138 138 138
143 143 143
146 146 146
147 147 147
143 143 143
139 139 139
144 144 144
152 152 152
148 148 148
133 133 133
154 154 154
180 180 180
199 199 199
219 219 219
210 210 210
196 196 196
190 190 190
181 181 181
176 176 176
175 175 175
175 175 175
173 173 173
170 170 170
163 163 163
158 158 158
157 157 157
155 155 155
155 155 155
160 160 160
162 162 162
162 162 162
161 161 161
164 164 164
171 171 171
175 175 175
167 167 167
170 170 170
171 171 171
163 163 163
158 158 158
155 155 155
155 155 155
157 157 157
157 157 157
157 157 157
157 157 157
150 150 150
142 142 142
137 137 137
129 129 129
137 137 137
145 145 145
147 147 147
145 145 145
144 144 144
142 142 142
142 142 142
141 141 141
141 141 141
138 138 138
139 139 139
138 138 138
134 134 134
133 133 133
135 135 135
136 136 136
139 139 139
139 139 139
136 136 136
137 137 137
146 146 146
154 154 154
152 152 152
138 138 138
157 157 157
179 179 179
203 203 203
220 220 220
211 211 211
196 196 196
185 185 185
177 177 177
173 173 173
171 171 171
167 167 167
165 165 165
161 161 161
157 157 157
155 155 155
153 153 153
155 155 155
156 156 156
158 158 158
156 156 156
153 153 153
150 150 150
165 165 165
182 182 182
180 180 180
170 170 170
169 169 169
168 168 168
160 160 160
158 158 158
158 158 158
159 159 159
160 160 160
159 159 159
158 158 158
158 158 158
153 153 153
146 146 146
140 140 140
137 137 137
130 130 130
132 132 132
139 139 139
140 140 140
142 142 142
144 144 144
144 144 144
143 143 143
141 141 141
141 141 141
141 141 141
139 139 139
135 135 135
133 133 133
133 133 133
134 134 134
135 135 135
133 133 133
133 133 133
137 137 137
150 150 150
156 156 156
154 154 154
141 141 141
165 165 165
184 184 184
208 208 208
218 218 218
209 209 209
198 198 198
187 187 187
176 176 176
168 168 168
163 163 163
160 160 160
159 159 159
157 157 157
155 155 155
153 153 153
151 151 151
151 151 151
151 151 151
148 148 148
144 144 144
142 142 142
155 155 155
176 176 176
182 182 182
178 178 178
169 169 169
170 170 170
170 170 170
161 161 161
157 157 157
160 160 160
162 162 162
162 162 162
160 160 160
159 159 159
159 159 159
156 156 156
152 152 152
145 145 145
142 142 142
136 136 136
130 130 130
125 125 125
129 129 129
134 134 134
138 138 138
140 140 140
142 142 142
143 143 143
142 142 142
141 141 141
139 139 139
135 135 135
133 133 133
133 133 133
133 133 133
133 133 133
132 132 132
135 135 135
146 146 146
155 155 155
158 158 158
153 153 153
142 142 142
171 171 171
188 188 188
211 211 211
219 219 219
209 209 209
199 199 199
188 188 188
177 177 177
171 171 171
166 166 166
159 159 159
153 153 153
148 148 148
146 146 146
144 144 144
141 141 141
141 141 141
141 141 141
143 143 143
145 145 145
148 148 148
160 160 160
174 174 174
177 177 177
174 174 174
167 167 167
167 167 167
170 170 170
159 159 159
151 151 151
153 153 153
158 158 158
156 156 156
154 154 154
155 155 155
156 156 156
156 156 156
157 157 157
149 149 149
144 144 144
141 141 141
138 138 138
133 133 133
122 122 122
119 119 119
126 126 126
130 130 130
133 133 133
135 135 135
135 135 135
135 135 135
132 132 132
129 129 129
129 129 129
129 129 129
128 128 128
131 131 131
138 138 138
146 146 146
155 155 155
162 162 162
157 157 157
152 152 152
141 141 141
178 178 178
192 192 192
213 213 213
219 219 219
211 211 211
201 201 201
191 191 191
179 179 179
174 174 174
170 170 170
166 166 166
160 160 160
155 155 155
152 152 152
148 148 148
145 145 145
144 144 144
144 144 144
145 145 145
146 146 146
152 152 152
161 161 161
168 168 168
169 169 169
169 169 169
162 162 162
159 159 159
160 160 160
146 146 146
132 132 132
134 134 134
141 141 141
141 141 141
141 141 141
144 144 144
146 146 146
147 147 147
151 151 151
145 145 145
140 140 140
139 139 139
141 141 141
137 137 137
131 131 131
123 123 123
122 122 122
123 123 123
125 125 125
126 126 126
127 127 127
124 124 124
122 122 122
121 121 121
124 124 124
127 127 127
131 131 131
138 138 138
147 147 147
157 157 157
161 161 161
164 164 164
159 159 159
153 153 153
138 138 138
184 184 184
195 195 195
212 212 212
217 217 217
214 214 214
204 204 204
192 192 192
182 182 182
175 175 175
170 170 170
164 164 164
158 158 158
154 154 154
149 149 149
146 146 146
141 141 141
141 141 141
143 143 143
145 145 145
149 149 149
156 156 156
161 161 161
161 161 161
166 166 166
162 162 162
149 149 149
142 142 142
140 140 140
121 121 121
102 102 102
106 106 106
119 119 119
123 123 123
123 123 123
126 126 126
126 126 126
129 129 129
132 132 132
131 131 131
130 130 130
135 135 135
140 140 140
141 141 141
136 136 136
131 131 131
128 128 128
127 127 127
125 125 125
126 126 126
128 128 128
125 125 125
125 125 125
125 125 125
126 126 126
130 130 130
135 135 135
142 142 142
152 152 152
162 162 162
167 167 167
164 164 164
159 159 159
151 151 151
137 137 137
186 186 186
199 199 199
213 213 213
218 218 218
214 214 214
206 206 206
194 194 194
184 184 184
177 177 177
171 171 171
161 161 161
154 154 154
150 150 150
145 145 145
144 144 144
143 143 143
142 142 142
144 144 144
146 146 146
152 152 152
161 161 161
160 160 160
157 157 157
162 162 162
153 153 153
130 130 130
114 114 114
110 110 110
95 95 95
74 74 74
77 77 77
99 99 99
109 109 109
107 107 107
103 103 103
102 102 102
103 103 103
107 107 107
110 110 110
120 120 120
133 133 133
141 141 141
143 143 143
141 141 141
135 135 135
128 128 128
125 125 125
125 125 125
125 125 125
126 126 126
127 127 127
127 127 127
128 128 128
127 127 127
133 133 133
137 137 137
145 145 145
156 156 156
162 162 162
168 168 168
164 164 164
158 158 158
149 149 149
135 135 135
187 187 187
202 202 202
212 212 212
216 216 216
213 213 213
206 206 206
196 196 196
186 186 186
179 179 179
170 170 170
161 161 161
154 154 154
149 149 149
147 147 147
146 146 146
147 147 147
145 145 145
146 146 146
149 149 149
156 156 156
164 164 164
163 163 163
158 158 158
159 159 159
148 148 148
119 119 119
94 94 94
85 85 85
82 82 82
67 67 67
68 68 68
91 91 91
104 104 104
98 98 98
88 88 88
85 85 85
86 86 86
89 89 89
97 97 97
115 115 115
137 137 137
148 148 148
150 150 150
148 148 148
141 141 141
132 132 132
125 125 125
125 125 125
123 123 123
123 123 123
125 125 125
127 127 127
128 128 128
130 130 130
134 134 134
140 140 140
148 148 148
159 159 159
164 164 164
167 167 167
164 164 164
157 157 157
148 148 148
132 132 132
185 185 185
205 205 205
212 212 212
216 216 216
213 213 213
208 208 208
200 200 200
189 189 189
181 181 181
172 172 172
164 164 164
157 157 157
152 152 152
151 151 151
151 151 151
149 149 149
147 147 147
147 147 147
153 153 153
163 163 163
171 171 171
170 170 170
165 165 165
160 160 160
153 153 153
129 129 129
102 102 102
96 96 96
95 95 95
89 89 89
86 86 86
98 98 98
106 106 106
99 99 99
95 95 95
95 95 95
95 95 95
97 97 97
105 105 105
124 124 124
145 145 145
153 153 153
158 158 158
160 160 160
153 153 153
146 146 146
135 135 135
131 131 131
128 128 128
126 126 126
126 126 126
128 128 128
130 130 130
133 133 133
138 138 138
145 145 145
154 154 154
161 161 161
166 166 166
168 168 168
164 164 164
157 157 157
144 144 144
134 134 134
182 182 182
208 208 208
214 214 214
217 217 217
213 213 213
210 210 210
203 203 203
193 193 193
184 184 184
175 175 175
167 167 167
161 161 161
155 155 155
153 153 153
153 153 153
150 150 150
147 147 147
151 151 151
158 158 158
173 173 173
181 181 181
178 178 178
174 174 174
168 168 168
162 162 162
150 150 150
136 136 136
131 131 131
124 124 124
115 115 115
109 109 109
109 109 109
110 110 110
108 108 108
114 114 114
120 120 120
118 118 118
119 119 119
124 124 124
136 136 136
148 148 148
156 156 156
163 163 163
168 168 168
165 165 165
159 159 159
152 152 152
144 144 144
138 138 138
135 135 135
134 134 134
133 133 133
136 136 136
139 139 139
145 145 145
150 150 150
158 158 158
163 163 163
168 168 168
168 168 168
164 164 164
157 157 157
145 145 145
138 138 138
178 178 178
206 206 206
217 217 217
220 220 220
217 217 217
211 211 211
207 207 207
197 197 197
188 188 188
178 178 178
171 171 171
164 164 164
158 158 158
156 156 156
153 153 153
150 150 150
149 149 149
156 156 156
169 169 169
185 185 185
192 192 192
183 183 183
180 180 180
177 177 177
176 176 176
173 173 173
168 168 168
159 159 159
142 142 142
131 131 131
121 121 121
115 115 115
114 114 114
115 115 115
125 125 125
136 136 136
140 140 140
141 141 141
142 142 142
146 146 146
152 152 152
158 158 158
165 165 165
170 170 170
169 169 169
166 166 166
162 162 162
156 156 156
149 149 149
145 145 145
143 143 143
142 142 142
144 144 144
146 146 146
150 150 150
156 156 156
163 163 163
167 167 167
171 171 171
168 168 168
165 165 165
156 156 156
146 146 146
140 140 140
169 169 169
200 200 200
217 217 217
222 222 222
220 220 220
213 213 213
209 209 209
201 201 201
191 191 191
183 183 183
175 175 175
167 167 167
161 161 161
158 158 158
155 155 155
151 151 151
154 154 154
166 166 166
182 182 182
194 194 194
194 194 194
187 187 187
183 183 183
187 187 187
191 191 191
192 192 192
186 186 186
172 172 172
150 150 150
136 136 136
126 126 126
118 118 118
117 117 117
122 122 122
129 129 129
143 143 143
151 151 151
153 153 153
152 152 152
154 154 154
156 156 156
160 160 160
165 165 165
170 170 170
171 171 171
169 169 169
165 165 165
162 162 162
159 159 159
152 152 152
149 149 149
149 149 149
151 151 151
153 153 153
155 155 155
160 160 160
165 165 165
170 170 170
172 172 172
170 170 170
164 164 164
154 154 154
149 149 149
142 142 142
163 163 163
192 192 192
214 214 214
222 222 222
222 222 222
216 216 216
210 210 210
205 205 205
196 196 196
188 188 188
178 178 178
170 170 170
164 164 164
161 161 161
157 157 157
157 157 157
165 165 165
177 177 177
191 191 191
195 195 195
195 195 195
189 189 189
188 188 188
190 190 190
198 198 198
202 202 202
195 195 195
178 178 178
157 157 157
142 142 142
133 133 133
125 125 125
124 124 124
129 129 129
136 136 136
148 148 148
159 159 159
162 162 162
163 163 163
166 166 166
165 165 165
163 163 163
162 162 162
166 166 166
170 170 170
171 171 171
169 169 169
164 164 164
163 163 163
160 160 160
155 155 155
155 155 155
153 153 153
157 157 157
160 160 160
164 164 164
169 169 169
173 173 173
173 173 173
169 169 169
164 164 164
156 156 156
155 155 155
146 146 146
159 159 159
180 180 180
206 206 206
222 222 222
222 222 222
217 217 217
212 212 212
206 206 206
201 201 201
194 194 194
182 182 182
175 175 175
168 168 168
162 162 162
162 162 162
167 167 167
176 176 176
186 186 186
194 194 194
195 195 195
194 194 194
192 192 192
191 191 191
191 191 191
197 197 197
200 200 200
195 195 195
181 181 181
167 167 167
156 156 156
147 147 147
140 140 140
137 137 137
142 142 142
150 150 150
157 157 157
168 168 168
170 170 170
169 169 169
168 168 168
166 166 166
162 162 162
161 161 161
161 161 161
167 167 167
169 169 169
170 170 170
167 167 167
164 164 164
165 165 165
162 162 162
160 160 160
159 159 159
160 160 160
164 164 164
167 167 167
172 172 172
175 175 175
174 174 174
170 170 170
162 162 162
158 158 158
158 158 158
145 145 145
157 157 157
173 173 173
198 198 198
218 218 218
223 223 223
218 218 218
212 212 212
208 208 208
203 203 203
197 197 197
188 188 188
179 179 179
170 170 170
166 166 166
169 169 169
178 178 178
186 186 186
189 189 189
195 195 195
194 194 194
192 192 192
189 189 189
187 187 187
191 191 191
192 192 192
195 195 195
190 190 190
185 185 185
178 178 178
170 170 170
163 163 163
157 157 157
156 156 156
163 163 163
166 166 166
169 169 169
176 176 176
178 178 178
175 175 175
172 172 172
168 168 168
164 164 164
161 161 161
161 161 161
162 162 162
165 165 165
169 169 169
168 168 168
165 165 165
166 166 166
164 164 164
165 165 165
164 164 164
164 164 164
166 166 166
169 169 169
173 173 173
174 174 174
175 175 175
170 170 170
163 163 163
161 161 161
161 161 161
146 146 146
158 158 158
169 169 169
191 191 191
211 211 211
221 221 221
220 220 220
212 212 212
207 207 207
204 204 204
199 199 199
193 193 193
183 183 183
174 174 174
170 170 170
178 178 178
186 186 186
189 189 189
191 191 191
192 192 192
190 190 190
184 184 184
181 181 181
181 181 181
183 183 183
185 185 185
189 189 189
191 191 191
187 187 187
186 186 186
182 182 182
180 180 180
176 176 176
175 175 175
178 178 178
177 177 177
176 176 176
178 178 178
180 180 180
177 177 177
172 172 172
168 168 168
165 165 165
159 159 159
159 159 159
161 161 161
163 163 163
162 162 162
164 164 164
164 164 164
165 165 165
166 166 166
166 166 166
166 166 166
168 168 168
169 169 169
170 170 170
173 173 173
173 173 173
172 172 172
169 169 169
163 163 163
165 165 165
162 162 162
149 149 149
161 161 161
169 169 169
182 182 182
200 200 200
216 216 216
218 218 218
213 213 213
206 206 206
202 202 202
200 200 200
193 193 193
185 185 185
175 175 175
170 170 170
174 174 174
183 183 183
188 188 188
187 187 187
186 186 186
182 182 182
176 176 176
173 173 173
174 174 174
176 176 176
176 176 176
181 181 181
186 186 186
186 186 186
190 190 190
190 190 190
191 191 191
190 190 190
187 187 187
186 186 186
181 181 181
178 178 178
178 178 178
176 176 176
173 173 173
169 169 169
166 166 166
164 164 164
159 159 159
158 158 158
158 158 158
161 161 161
158 158 158
158 158 158
163 163 163
164 164 164
167 167 167
167 167 167
165 165 165
165 165 165
170 170 170
171 171 171
172 172 172
170 170 170
170 170 170
169 169 169
161 161 161
161 161 161
156 156 156
145 145 145
164 164 164
166 166 166
171 171 171
187 187 187
210 210 210
213 213 213
212 212 212
205 205 205
200 200 200
200 200 200
194 194 194
186 186 186
175 175 175
163 163 163
165 165 165
176 176 176
177 177 177
175 175 175
177 177 177
175 175 175
171 171 171
166 166 166
169 169 169
169 169 169
168 168 168
172 172 172
175 175 175
177 177 177
182 182 182
186 186 186
188 188 188
188 188 188
184 184 184
183 183 183
179 179 179
175 175 175
171 171 171
168 168 168
168 168 168
165 165 165
164 164 164
163 163 163
159 159 159
158 158 158
157 157 157
156 156 156
155 155 155
155 155 155
159 159 159
159 159 159
165 165 165
165 165 165
165 165 165
163 163 163
168 168 168
167 167 167
169 169 169
166 166 166
168 168 168
167 167 167
154 154 154
148 148 148
141 141 141
137 137 137
170 170 170
166 166 166
166 166 166
178 178 178
203 203 203
211 211 211
210 210 210
205 205 205
197 197 197
199 199 199
195 195 195
185 185 185
173 173 173
156 156 156
158 158 158
166 166 166
162 162 162
155 155 155
160 160 160
164 164 164
164 164 164
157 157 157
157 157 157
156 156 156
158 158 158
160 160 160
158 158 158
158 158 158
164 164 164
168 168 168
168 168 168
166 166 166
162 162 162
164 164 164
164 164 164
158 158 158
157 157 157
155 155 155
157 157 157
156 156 156
158 158 158
158 158 158
157 157 157
156 156 156
155 155 155
150 150 150
150 150 150
150 150 150
154 154 154
157 157 157
161 161 161
167 167 167
165 165 165
164 164 164
165 165 165
163 163 163
165 165 165
164 164 164
166 166 166
161 161 161
144 144 144
134 134 134
131 131 131
132 132 132
174 174 174
167 167 167
164 164 164
171 171 171
195 195 195
208 208 208
208 208 208
206 206 206
197 197 197
195 195 195
195 195 195
183 183 183
170 170 170
154 154 154
153 153 153
154 154 154
147 147 147
137 137 137
140 140 140
146 146 146
151 151 151
148 148 148
143 143 143
140 140 140
141 141 141
140 140 140
137 137 137
135 135 135
138 138 138
139 139 139
142 142 142
142 142 142
141 141 141
141 141 141
142 142 142
141 141 141
141 141 141
142 142 142
143 143 143
143 143 143
146 146 146
148 148 148
148 148 148
149 149 149
150 150 150
149 149 149
146 146 146
147 147 147
151 151 151
155 155 155
158 158 158
163 163 163
163 163 163
163 163 163
160 160 160
161 161 161
163 163 163
166 166 166
165 165 165
153 153 153
136 136 136
127 127 127
129 129 129
133 133 133
171 171 171
166 166 166
162 162 162
165 165 165
185 185 185
206 206 206
206 206 206
205 205 205
198 198 198
192 192 192
192 192 192
183 183 183
166 166 166
154 154 154
148 148 148
141 141 141
133 133 133
128 128 128
133 133 133
137 137 137
142 142 142
143 143 143
145 145 145
143 143 143
137 137 137
130 130 130
123 123 123
119 119 119
117 117 117
115 115 115
116 116 116
120 120 120
119 119 119
120 120 120
124 124 124
127 127 127
128 128 128
130 130 130
132 132 132
135 135 135
137 137 137
141 141 141
141 141 141
145 145 145
150 150 150
150 150 150
147 147 147
146 146 146
150 150 150
152 152 152
152 152 152
156 156 156
156 156 156
158 158 158
158 158 158
159 159 159
163 163 163
166 166 166
160 160 160
146 146 146
130 130 130
123 123 123
127 127 127
134 134 134
164 164 164
162 162 162
159 159 159
163 163 163
178 178 178
200 200 200
205 205 205
202 202 202
199 199 199
191 191 191
190 190 190
184 184 184
168 168 168
157 157 157
147 147 147
133 133 133
123 123 123
123 123 123
132 132 132
141 141 141
143 143 143
145 145 145
149 149 149
153 153 153
152 152 152
147 147 147
137 137 137
131 131 131
124 124 124
119 119 119
117 117 117
122 122 122
122 122 122
123 123 123
126 126 126
129 129 129
131 131 131
133 133 133
137 137 137
141 141 141
145 145 145
145 145 145
144 144 144
145 145 145
150 150 150
148 148 148
146 146 146
146 146 146
147 147 147
150 150 150
149 149 149
150 150 150
151 151 151
153 153 153
157 157 157
160 160 160
163 163 163
165 165 165
155 155 155
138 138 138
127 127 127
123 123 123
121 121 121
127 127 127
152 152 152
151 151 151
153 153 153
160 160 160
172 172 172
192 192 192
201 201 201
198 198 198
198 198 198
194 194 194
187 187 187
185 185 185
174 174 174
160 160 160
147 147 147
134 134 134
124 124 124
125 125 125
137 137 137
144 144 144
150 150 150
153 153 153
157 157 157
159 159 159
160 160 160
160 160 160
155 155 155
150 150 150
145 145 145
138 138 138
133 133 133
133 133 133
134 134 134
137 137 137
139 139 139
138 138 138
138 138 138
137 137 137
140 140 140
142 142 142
146 146 146
147 147 147
145 145 145
143 143 143
145 145 145
146 146 146
146 146 146
145 145 145
146 146 146
149 149 149
150 150 150
149 149 149
147 147 147
153 153 153
156 156 156
162 162 162
166 166 166
161 161 161
147 147 147
133 133 133
125 125 125
119 119 119
117 117 117
122 122 122
139 139 139
139 139 139
147 147 147
158 158 158
167 167 167
182 182 182
196 196 196
194 194 194
195 195 195
195 195 195
189 189 189
184 184 184
180 180 180
166 166 166
153 153 153
143 143 143
135 135 135
137 137 137
148 148 148
154 154 154
156 156 156
157 157 157
161 161 161
162 162 162
162 162 162
162 162 162
156 156 156
149 149 149
144 144 144
135 135 135
129 129 129
128 128 128
130 130 130
135 135 135
135 135 135
135 135 135
134 134 134
134 134 134
138 138 138
139 139 139
141 141 141
141 141 141
140 140 140
138 138 138
139 139 139
141 141 141
142 142 142
145 145 145
147 147 147
151 151 151
150 150 150
146 146 146
147 147 147
152 152 152
159 159 159
163 163 163
164 164 164
155 155 155
141 141 141
129 129 129
127 127 127
114 114 114
115 115 115
112 112 112
127 127 127
128 128 128
141 141 141
155 155 155
163 163 163
173 173 173
188 188 188
192 192 192
190 190 190
194 194 194
191 191 191
185 185 185
180 180 180
172 172 172
160 160 160
153 153 153
150 150 150
154 154 154
164 164 164
169 169 169
172 172 172
171 171 171
168 168 168
166 166 166
165 165 165
161 161 161
153 153 153
146 146 146
138 138 138
128 128 128
119 119 119
118 118 118
121 121 121
122 122 122
125 125 125
126 126 126
129 129 129
133 133 133
136 136 136
139 139 139
141 141 141
143 143 143
144 144 144
144 144 144
144 144 144
144 144 144
145 145 145
149 149 149
150 150 150
153 153 153
148 148 148
145 145 145
148 148 148
154 154 154
160 160 160
162 162 162
160 160 160
151 151 151
135 135 135
129 129 129
126 126 126
108 108 108
107 107 107
102 102 102
117 117 117
118 118 118
131 131 131
151 151 151
161 161 161
167 167 167
176 176 176
189 189 189
190 190 190
190 190 190
191 191 191
186 186 186
181 181 181
176 176 176
169 169 169
161 161 161
162 162 162
167 167 167
177 177 177
182 182 182
183 183 183
181 181 181
177 177 177
171 171 171
166 166 166
164 164 164
152 152 152
139 139 139
131 131 131
122 122 122
116 116 116
116 116 116
115 115 115
115 115 115
119 119 119
124 124 124
128 128 128
134 134 134
139 139 139
145 145 145
150 150 150
155 155 155
155 155 155
157 157 157
157 157 157
154 154 154
152 152 152
151 151 151
151 151 151
151 151 151
149 149 149
145 145 145
151 151 151
156 156 156
159 159 159
159 159 159
155 155 155
149 149 149
133 133 133
130 130 130
120 120 120
103 103 103
98 98 98
96 96 96
114 114 114
112 112 112
124 124 124
145 145 145
158 158 158
163 163 163
166 166 166
181 181 181
188 188 188
189 189 189
189 189 189
188 188 188
184 184 184
178 178 178
174 174 174
170 170 170
169 169 169
172 172 172
180 180 180
186 186 186
188 188 188
185 185 185
179 179 179
174 174 174
168 168 168
161 161 161
153 153 153
142 142 142
132 132 132
124 124 124
120 120 120
118 118 118
118 118 118
117 117 117
121 121 121
128 128 128
134 134 134
139 139 139
143 143 143
150 150 150
158 158 158
162 162 162
164 164 164
167 167 167
165 165 165
159 159 159
155 155 155
152 152 152
151 151 151
150 150 150
147 147 147
147 147 147
153 153 153
157 157 157
159 159 159
157 157 157
154 154 154
149 149 149
133 133 133
129 129 129
114 114 114
96 96 96
93 93 93
98 98 98
115 115 115
112 112 112
117 117 117
140 140 140
154 154 154
161 161 161
160 160 160
170 170 170
184 184 184
188 188 188
188 188 188
189 189 189
188 188 188
182 182 182
175 175 175
178 178 178
172 172 172
171 171 171
172 172 172
178 178 178
180 180 180
178 178 178
173 173 173
167 167 167
163 163 163
154 154 154
149 149 149
142 142 142
134 134 134
129 129 129
127 127 127
124 124 124
122 122 122
123 123 123
125 125 125
128 128 128
134 134 134
141 141 141
147 147 147
152 152 152
161 161 161
164 164 164
164 164 164
163 163 163
161 161 161
157 157 157
153 153 153
150 150 150
150 150 150
148 148 148
147 147 147
149 149 149
155 155 155
157 157 157
156 156 156
155 155 155
154 154 154
149 149 149
133 133 133
125 125 125
104 104 104
89 89 89
92 92 92
98 98 98
112 112 112
112 112 112
113 113 113
133 133 133
149 149 149
157 157 157
156 156 156
165 165 165
177 177 177
186 186 186
187 187 187
186 186 186
189 189 189
189 189 189
181 181 181
178 178 178
175 175 175
171 171 171
165 165 165
169 169 169
170 170 170
171 171 171
166 166 166
161 161 161
155 155 155
146 146 146
140 140 140
136 136 136
130 130 130
126 126 126
127 127 127
122 122 122
121 121 121
121 121 121
123 123 123
124 124 124
132 132 132
139 139 139
144 144 144
150 150 150
157 157 157
158 158 158
159 159 159
157 157 157
156 156 156
153 153 153
150 150 150
150 150 150
150 150 150
148 148 148
148 148 148
151 151 151
156 156 156
156 156 156
153 153 153
154 154 154
154 154 154
150 150 150
132 132 132
119 119 119
97 97 97
86 86 86
90 90 90
97 97 97
112 112 112
113 113 113
111 111 111
125 125 125
143 143 143
153 153 153
152 152 152
162 162 162
172 172 172
182 182 182
185 185 185
185 185 185
189 189 189
192 192 192
187 187 187
178 178 178
176 176 176
172 172 172
164 164 164
162 162 162
162 162 162
164 164 164
161 161 161
157 157 157
148 148 148
141 141 141
136 136 136
132 132 132
128 128 128
125 125 125
126 126 126
122 122 122
119 119 119
121 121 121
123 123 123
127 127 127
135 135 135
142 142 142
144 144 144
148 148 148
153 153 153
154 154 154
154 154 154
153 153 153
150 150 150
149 149 149
148 148 148
149 149 149
149 149 149
150 150 150
150 150 150
154 154 154
155 155 155
153 153 153
151 151 151
155 155 155
156 156 156
155 155 155
130 130 130
109 109 109
87 87 87
86 86 86
89 89 89
94 94 94
111 111 111
112 112 112
112 112 112
119 119 119
137 137 137
147 147 147
149 149 149
158 158 158
171 171 171
181 181 181
188 188 188
187 187 187
187 187 187
191 191 191
191 191 191
182 182 182
174 174 174
171 171 171
163 163 163
160 160 160
157 157 157
156 156 156
155 155 155
151 151 151
147 147 147
139 139 139
133 133 133
131 131 131
129 129 129
127 127 127
125 125 125
125 125 125
123 123 123
125 125 125
129 129 129
133 133 133
140 140 140
142 142 142
144 144 144
148 148 148
150 150 150
152 152 152
153 153 153
150 150 150
147 147 147
147 147 147
146 146 146
148 148 148
150 150 150
150 150 150
152 152 152
154 154 154
154 154 154
152 152 152
152 152 152
157 157 157
159 159 159
156 156 156
129 129 129
101 101 101
84 84 84
87 87 87
89 89 89
92 92 92
112 112 112
114 114 114
110 110 110
115 115 115
131 131 131
141 141 141
143 143 143
152 152 152
169 169 169
182 182 182
191 191 191
192 192 192
185 185 185
186 186 186
192 192 192
188 188 188
176 176 176
169 169 169
164 164 164
160 160 160
155 155 155
152 152 152
150 150 150
146 146 146
144 144 144
140 140 140
136 136 136
132 132 132
130 130 130
130 130 130
131 131 131
131 131 131
131 131 131
133 133 133
136 136 136
139 139 139
142 142 142
143 143 143
142 142 142
146 146 146
151 151 151
151 151 151
152 152 152
148 148 148
146 146 146
145 145 145
145 145 145
147 147 147
148 148 148
151 151 151
152 152 152
153 153 153
153 153 153
154 154 154
156 156 156
161 161 161
161 161 161
158 158 158
124 124 124
93 93 93
81 81 81
87 87 87
88 88 88
92 92 92
113 113 113
115 115 115
110 110 110
113 113 113
124 124 124
135 135 135
139 139 139
151 151 151
169 169 169
185 185 185
193 193 193
193 193 193
190 190 190
186 186 186
190 190 190
188 188 188
178 178 178
170 170 170
164 164 164
158 158 158
154 154 154
151 151 151
148 148 148
145 145 145
141 141 141
137 137 137
137 137 137
134 134 134
134 134 134
133 133 133
133 133 133
137 137 137
137 137 137
139 139 139
140 140 140
142 142 142
145 145 145
142 142 142
143 143 143
145 145 145
149 149 149
148 148 148
147 147 147
145 145 145
144 144 144
143 143 143
146 146 146
147 147 147
148 148 148
152 152 152
153 153 153
152 152 152
151 151 151
158 158 158
162 162 162
165 165 165
164 164 164
155 155 155
120 120 120
87 87 87
81 81 81
86 86 86
87 87 87
90 90 90
113 113 113
115 115 115
110 110 110
110 110 110
115 115 115
123 123 123
137 137 137
153 153 153
170 170 170
187 187 187
195 195 195
195 195 195
193 193 193
192 192 192
187 187 187
186 186 186
175 175 175
172 172 172
166 166 166
158 158 158
153 153 153
149 149 149
148 148 148
144 144 144
140 140 140
134 134 134
134 134 134
132 132 132
133 133 133
133 133 133
132 132 132
134 134 134
135 135 135
136 136 136
138 138 138
138 138 138
143 143 143
142 142 142
140 140 140
142 142 142
143 143 143
144 144 144
143 143 143
142 142 142
142 142 142
143 143 143
144 144 144
146 146 146
149 149 149
151 151 151
153 153 153
152 152 152
154 154 154
162 162 162
168 168 168
169 169 169
162 162 162
152 152 152
119 119 119
87 87 87
81 81 81
86 86 86
89 89 89
90 90 90
113 113 113
111 111 111
109 109 109
108 108 108
109 109 109
117 117 117
136 136 136
156 156 156
171 171 171
188 188 188
197 197 197
196 196 196
194 194 194
192 192 192
187 187 187
185 185 185
174 174 174
172 172 172
169 169 169
162 162 162
154 154 154
152 152 152
147 147 147
145 145 145
142 142 142
136 136 136
134 134 134
132 132 132
132 132 132
132 132 132
131 131 131
131 131 131
135 135 135
135 135 135
137 137 137
138 138 138
141 141 141
140 140 140
138 138 138
139 139 139
139 139 139
139 139 139
140 140 140
141 141 141
142 142 142
141 141 141
142 142 142
144 144 144
148 148 148
150 150 150
152 152 152
154 154 154
158 158 158
167 167 167
171 171 171
170 170 170
160 160 160
151 151 151
120 120 120
88 88 88
82 82 82
86 86 86
90 90 90
93 93 93
110 110 110
107 107 107
103 103 103
105 105 105
106 106 106
112 112 112
132 132 132
156 156 156
174 174 174
191 191 191
197 197 197
196 196 196
194 194 194
192 192 192
186 186 186
185 185 185
174 174 174
172 172 172
170 170 170
166 166 166
159 159 159
156 156 156
150 150 150
147 147 147
144 144 144
141 141 141
138 138 138
134 134 134
135 135 135
135 135 135
134 134 134
135 135 135
138 138 138
139 139 139
140 140 140
139 139 139
139 139 139
138 138 138
138 138 138
137 137 137
137 137 137
137 137 137
138 138 138
140 140 140
141 141 141
141 141 141
141 141 141
146 146 146
148 148 148
151 151 151
154 154 154
160 160 160
165 165 165
171 171 171
171 171 171
167 167 167
159 159 159
150 150 150
122 122 122
91 91 91
83 83 83
87 87 87
92 92 92
94 94 94
104 104 104
103 103 103
100 100 100
103 103 103
106 106 106
106 106 106
129 129 129
156 156 156
177 177 177
196 196 196
200 200 200
197 197 197
195 195 195
192 192 192
184 184 184
182 182 182
176 176 176
172 172 172
172 172 172
168 168 168
164 164 164
157 157 157
152 152 152
148 148 148
145 145 145
142 142 142
139 139 139
136 136 136
134 134 134
135 135 135
136 136 136
137 137 137
139 139 139
138 138 138
138 138 138
137 137 137
135 135 135
135 135 135
135 135 135
135 135 135
135 135 135
136 136 136
136 136 136
137 137 137
139 139 139
142 142 142
141 141 141
146 146 146
150 150 150
152 152 152
158 158 158
163 163 163
169 169 169
170 170 170
171 171 171
166 166 166
157 157 157
151 151 151
124 124 124
94 94 94
82 82 82
87 87 87
93 93 93
96 96 96
102 102 102
100 100 100
101 101 101
103 103 103
105 105 105
104 104 104
125 125 125
157 157 157
182 182 182
199 199 199
203 203 203
198 198 198
195 195 195
192 192 192
182 182 182
178 178 178
174 174 174
173 173 173
172 172 172
168 168 168
164 164 164
159 159 159
151 151 151
147 147 147
142 142 142
138 138 138
135 135 135
134 134 134
130 130 130
134 134 134
135 135 135
135 135 135
137 137 137
137 137 137
136 136 136
134 134 134
135 135 135
134 134 134
133 133 133
133 133 133
133 133 133
133 133 133
134 134 134
135 135 135
137 137 137
141 141 141
143 143 143
146 146 146
152 152 152
155 155 155
164 164 164
164 164 164
169 169 169
168 168 168
169 169 169
164 164 164
155 155 155
153 153 153
129 129 129
97 97 97
82 82 82
86 86 86
93 93 93
98 98 98
103 103 103
98 98 98
100 100 100
103 103 103
105 105 105
103 103 103
124 124 124
157 157 157
185 185 185
203 203 203
205 205 205
201 201 201
197 197 197
188 188 188
177 177 177
176 176 176
171 171 171
173 173 173
170 170 170
167 167 167
161 161 161
162 162 162
153 153 153
144 144 144
137 137 137
133 133 133
129 129 129
127 127 127
126 126 126
127 127 127
129 129 129
130 130 130
131 131 131
129 129 129
129 129 129
129 129 129
131 131 131
130 130 130
128 128 128
128 128 128
130 130 130
131 131 131
133 133 133
134 134 134
138 138 138
140 140 140
144 144 144
149 149 149
155 155 155
159 159 159
164 164 164
163 163 163
169 169 169
166 166 166
164 164 164
162 162 162
156 156 156
154 154 154
135 135 135
101 101 101
83 83 83
87 87 87
94 94 94
98 98 98
102 102 102
97 97 97
100 100 100
103 103 103
104 104 104
100 100 100
126 126 126
159 159 159
191 191 191
208 208 208
208 208 208
202 202 202
198 198 198
186 186 186
174 174 174
172 172 172
168 168 168
169 169 169
171 171 171
167 167 167
157 157 157
157 157 157
155 155 155
146 146 146
135 135 135
130 130 130
127 127 127
123 123 123
121 121 121
121 121 121
122 122 122
123 123 123
123 123 123
124 124 124
121 121 121
123 123 123
125 125 125
124 124 124
123 123 123
126 126 126
128 128 128
130 130 130
133 133 133
134 134 134
137 137 137
141 141 141
146 146 146
152 152 152
157 157 157
160 160 160
163 163 163
163 163 163
166 166 166
162 162 162
163 163 163
163 163 163
158 158 158
158 158 158
138 138 138
106 106 106
86 86 86
89 89 89
94 94 94
98 98 98
102 102 102
98 98 98
99 99 99
103 103 103
101 101 101
99 99 99
124 124 124
162 162 162
196 196 196
210 210 210
206 206 206
200 200 200
194 194 194
185 185 185
173 173 173
169 169 169
163 163 163
165 165 165
167 167 167
166 166 166
155 155 155
150 150 150
153 153 153
146 146 146
139 139 139
130 130 130
127 127 127
124 124 124
118 118 118
118 118 118
117 117 117
116 116 116
118 118 118
118 118 118
116 116 116
117 117 117
119 119 119
120 120 120
122 122 122
125 125 125
128 128 128
131 131 131
132 132 132
132 132 132
139 139 139
145 145 145
151 151 151
155 155 155
158 158 158
160 160 160
162 162 162
161 161 161
162 162 162
161 161 161
162 162 162
162 162 162
159 159 159
159 159 159
142 142 142
111 111 111
89 89 89
91 91 91
96 96 96
99 99 99
