P3
64 64
255
94 94 94
116 116 116
140 140 140
150 150 150
173 173 173
199 199 199
216 216 216
208 208 208
197 197 197
191 191 191
186 186 186
181 181 181
176 176 176
169 169 169
162 162 162
156 156 156
150 150 150
145 145 145
141 141 141
136 136 136
136 136 136
133 133 133
131 131 131
131 131 131
130 130 130
132 132 132
133 133 133
135 135 135
135 135 135
142 142 142
149 149 149
149 149 149
153 153 153
156 156 156
162 162 162
166 166 166
170 170 170
178 178 178
185 185 185
190 190 190
193 193 193
200 200 200
205 205 205
210 210 210
217 217 217
222 222 222
228 228 228
233 233 233
236 236 236
239 239 239
240 240 240
240 240 240
241 241 241
245 245 245
245 245 245
240 240 240
236 236 236
237 237 237
235 235 235
226 226 226
223 223 223
217 217 217
177 177 177
127 127 127
98 98 98
125 125 125
144 144 144
158 158 158
176 176 176
204 204 204
215 215 215
206 206 206
196 196 196
190 190 190
185 185 185
180 180 180
175 175 175
168 168 168
161 161 161
157 157 157
153 153 153
147 147 147
143 143 143
138 138 138
137 137 137
136 136 136
135 135 135
133 133 133
134 134 134
134 134 134
135 135 135
136 136 136
136 136 136
140 140 140
145 145 145
146 146 146
151 151 151
154 154 154
159 159 159
162 162 162
166 166 166
173 173 173
180 180 180
185 185 185
189 189 189
196 196 196
200 200 200
206 206 206
210 210 210
215 215 215
222 222 222
229 229 229
232 232 232
236 236 236
238 238 238
238 238 238
240 240 240
244 244 244
251 251 251
248 248 248
245 245 245
243 243 243
240 240 240
231 231 231
227 227 227
221 221 221
188 188 188
140 140 140
99 99 99
129 129 129
151 151 151
162 162 162
182 182 182
208 208 208
213 213 213
205 205 205
197 197 197
191 191 191
183 183 183
177 177 177
172 172 172
165 165 165
162 162 162
159 159 159
155 155 155
149 149 149
145 145 145
142 142 142
139 139 139
140 140 140
139 139 139
135 135 135
137 137 137
136 136 136
136 136 136
139 139 139
140 140 140
140 140 140
144 144 144
146 146 146
152 152 152
154 154 154
158 158 158
160 160 160
165 165 165
172 172 172
177 177 177
183 183 183
188 188 188
194 194 194
197 197 197
202 202 202
207 207 207
210 210 210
217 217 217
222 222 222
228 228 228
230 230 230
232 232 232
233 233 233
237 237 237
244 244 244
246 246 246
249 249 249
247 247 247
246 246 246
244 244 244
235 235 235
228 228 228
223 223 223
195 195 195
149 149 149
100 100 100
134 134 134
158 158 158
173 173 173
190 190 190
210 210 210
212 212 212
204 204 204
196 196 196
189 189 189
180 180 180
175 175 175
171 171 171
167 167 167
163 163 163
161 161 161
157 157 157
153 153 153
147 147 147
142 142 142
143 143 143
143 143 143
142 142 142
137 137 137
138 138 138
138 138 138
137 137 137
141 141 141
146 146 146
145 145 145
145 145 145
149 149 149
156 156 156
156 156 156
159 159 159
161 161 161
164 164 164
172 172 172
179 179 179
183 183 183
187 187 187
191 191 191
194 194 194
198 198 198
203 203 203
205 205 205
210 210 210
216 216 216
223 223 223
224 224 224
228 228 228
229 229 229
231 231 231
236 236 236
240 240 240
246 246 246
244 244 244
245 245 245
244 244 244
237 237 237
229 229 229
224 224 224
199 199 199
158 158 158
100 100 100
132 132 132
157 157 157
176 176 176
196 196 196
209 209 209
208 208 208
201 201 201
194 194 194
186 186 186
179 179 179
174 174 174
170 170 170
166 166 166
163 163 163
159 159 159
157 157 157
152 152 152
147 147 147
143 143 143
144 144 144
142 142 142
140 140 140
137 137 137
140 140 140
140 140 140
140 140 140
143 143 143
151 151 151
152 152 152
151 151 151
154 154 154
162 162 162
163 163 163
160 160 160
161 161 161
167 167 167
172 172 172
178 178 178
183 183 183
182 182 182
182 182 182
188 188 188
191 191 191
194 194 194
197 197 197
202 202 202
208 208 208
213 213 213
216 216 216
218 218 218
221 221 221
223 223 223
223 223 223
230 230 230
237 237 237
239 239 239
240 240 240
242 242 242
238 238 238
230 230 230
226 226 226
202 202 202
161 161 161
103 103 103
133 133 133
160 160 160
180 180 180
199 199 199
206 206 206
202 202 202
198 198 198
193 193 193
187 187 187
179 179 179
173 173 173
166 166 166
160 160 160
157 157 157
154 154 154
153 153 153
150 150 150
145 145 145
143 143 143
141 141 141
140 140 140
137 137 137
133 133 133
138 138 138
139 139 139
139 139 139
144 144 144
153 153 153
157 157 157
156 156 156
160 160 160
169 169 169
170 170 170
162 162 162
160 160 160
164 164 164
170 170 170
173 173 173
175 175 175
175 175 175
174 174 174
177 177 177
180 180 180
183 183 183
186 186 186
189 189 189
194 194 194
199 199 199
200 200 200
202 202 202
207 207 207
208 208 208
209 209 209
214 214 214
223 223 223
230 230 230
233 233 233
236 236 236
233 233 233
231 231 231
227 227 227
206 206 206
167 167 167
109 109 109
133 133 133
164 164 164
184 184 184
198 198 198
202 202 202
199 199 199
198 198 198
194 194 194
184 184 184
175 175 175
161 161 161
150 150 150
142 142 142
138 138 138
138 138 138
136 136 136
135 135 135
133 133 133
129 129 129
126 126 126
125 125 125
125 125 125
124 124 124
131 131 131
131 131 131
131 131 131
138 138 138
149 149 149
152 152 152
159 159 159
164 164 164
175 175 175
172 172 172
161 161 161
156 156 156
158 158 158
162 162 162
167 167 167
167 167 167
165 165 165
163 163 163
160 160 160
158 158 158
161 161 161
165 165 165
171 171 171
172 172 172
177 177 177
179 179 179
183 183 183
188 188 188
188 188 188
186 186 186
190 190 190
201 201 201
214 214 214
222 222 222
226 226 226
226 226 226
229 229 229
227 227 227
208 208 208
171 171 171
116 116 116
140 140 140
171 171 171
189 189 189
200 200 200
206 206 206
202 202 202
194 194 194
181 181 181
165 165 165
154 154 154
141 141 141
128 128 128
122 122 122
119 119 119
117 117 117
119 119 119
116 116 116
112 112 112
108 108 108
106 106 106
105 105 105
109 109 109
115 115 115
122 122 122
122 122 122
126 126 126
136 136 136
138 138 138
141 141 141
153 153 153
165 165 165
173 173 173
170 170 170
160 160 160
153 153 153
148 148 148
151 151 151
159 159 159
149 149 149
143 143 143
139 139 139
130 130 130
124 124 124
126 126 126
130 130 130
128 128 128
134 134 134
135 135 135
138 138 138
145 145 145
159 159 159
157 157 157
156 156 156
161 161 161
170 170 170
185 185 185
201 201 201
211 211 211
213 213 213
221 221 221
224 224 224
203 203 203
167 167 167
123 123 123
150 150 150
174 174 174
196 196 196
208 208 208
210 210 210
197 197 197
176 176 176
154 154 154
139 139 139
129 129 129
117 117 117
104 104 104
99 99 99
103 103 103
96 96 96
102 102 102
95 95 95
90 90 90
93 93 93
92 92 92
88 88 88
94 94 94
102 102 102
112 112 112
112 112 112
118 118 118
122 122 122
123 123 123
130 130 130
148 148 148
163 163 163
171 171 171
168 168 168
156 156 156
149 149 149
135 135 135
133 133 133
146 146 146
126 126 126
113 113 113
115 115 115
104 104 104
92 92 92
92 92 92
94 94 94
92 92 92
126 126 126
124 124 124
121 121 121
123 123 123
135 135 135
146 146 146
128 128 128
121 121 121
136 136 136
155 155 155
174 174 174
190 190 190
195 195 195
205 205 205
215 215 215
197 197 197
165 165 165
126 126 126
155 155 155
172 172 172
200 200 200
215 215 215
208 208 208
185 185 185
154 154 154
125 125 125
114 114 114
113 113 113
111 111 111
110 110 110
110 110 110
109 109 109
107 107 107
108 108 108
96 96 96
95 95 95
99 99 99
100 100 100
98 98 98
98 98 98
108 108 108
123 123 123
121 121 121
119 119 119
124 124 124
117 117 117
126 126 126
146 146 146
160 160 160
164 164 164
160 160 160
146 146 146
136 136 136
120 120 120
115 115 115
136 136 136
127 127 127
108 108 108
117 117 117
112 112 112
84 84 84
80 80 80
76 76 76
78 78 78
149 149 149
162 162 162
157 157 157
150 150 150
153 153 153
166 166 166
159 159 159
141 141 141
130 130 130
138 138 138
154 154 154
168 168 168
182 182 182
190 190 190
205 205 205
198 198 198
160 160 160
125 125 125
152 152 152
171 171 171
204 204 204
219 219 219
199 199 199
164 164 164
133 133 133
120 120 120
123 123 123
128 128 128
134 134 134
130 130 130
128 128 128
126 126 126
123 123 123
120 120 120
106 106 106
110 110 110
111 111 111
118 118 118
114 114 114
112 112 112
129 129 129
148 148 148
150 150 150
159 159 159
143 143 143
129 129 129
138 138 138
147 147 147
157 157 157
160 160 160
154 154 154
145 145 145
133 133 133
114 114 114
111 111 111
121 121 121
126 126 126
123 123 123
117 117 117
103 103 103
85 85 85
80 80 80
80 80 80
87 87 87
126 126 126
177 177 177
198 198 198
207 207 207
212 212 212
214 214 214
212 212 212
205 205 205
192 192 192
176 176 176
143 143 143
152 152 152
166 166 166
184 184 184
197 197 197
196 196 196
161 161 161
124 124 124
146 146 146
174 174 174
209 209 209
216 216 216
182 182 182
153 153 153
140 140 140
138 138 138
148 148 148
153 153 153
156 156 156
149 149 149
142 142 142
140 140 140
138 138 138
138 138 138
123 123 123
128 128 128
125 125 125
136 136 136
128 128 128
129 129 129
155 155 155
187 187 187
180 180 180
182 182 182
207 207 207
191 191 191
169 169 169
167 167 167
175 175 175
179 179 179
168 168 168
157 157 157
141 141 141
129 129 129
128 128 128
125 125 125
118 118 118
111 111 111
100 100 100
86 86 86
82 82 82
83 83 83
88 88 88
101 101 101
128 128 128
199 199 199
216 216 216
217 217 217
213 213 213
210 210 210
208 208 208
208 208 208
202 202 202
204 204 204
188 188 188
135 135 135
159 159 159
181 181 181
195 195 195
191 191 191
165 165 165
118 118 118
144 144 144
188 188 188
217 217 217
207 207 207
173 173 173
165 165 165
165 165 165
171 171 171
180 180 180
176 176 176
173 173 173
167 167 167
162 162 162
156 156 156
156 156 156
149 149 149
132 132 132
132 132 132
130 130 130
139 139 139
130 130 130
133 133 133
154 154 154
193 193 193
211 211 211
213 213 213
205 205 205
219 219 219
189 189 189
170 170 170
177 177 177
180 180 180
175 175 175
174 174 174
162 162 162
143 143 143
134 134 134
119 119 119
111 111 111
100 100 100
89 89 89
84 84 84
92 92 92
101 101 101
116 116 116
131 131 131
171 171 171
234 234 234
228 228 228
227 227 227
221 221 221
203 203 203
181 181 181
171 171 171
155 155 155
160 160 160
171 171 171
144 144 144
154 154 154
177 177 177
192 192 192
189 189 189
170 170 170
110 110 110
141 141 141
183 183 183
205 205 205
193 193 193
177 177 177
191 191 191
195 195 195
200 200 200
195 195 195
171 171 171
165 165 165
178 178 178
185 185 185
182 182 182
178 178 178
167 167 167
151 151 151
152 152 152
148 148 148
156 156 156
148 148 148
143 143 143
143 143 143
157 157 157
176 176 176
191 191 191
196 196 196
210 210 210
192 192 192
170 170 170
169 169 169
170 170 170
166 166 166
176 176 176
162 162 162
143 143 143
137 137 137
118 118 118
100 100 100
95 95 95
94 94 94
101 101 101
112 112 112
129 129 129
140 140 140
143 143 143
162 162 162
222 222 222
239 239 239
240 240 240
239 239 239
223 223 223
184 184 184
170 170 170
141 141 141
131 131 131
152 152 152
159 159 159
158 158 158
168 168 168
186 186 186
186 186 186
173 173 173
114 114 114
175 175 175
206 206 206
194 194 194
178 178 178
186 186 186
210 210 210
214 214 214
207 207 207
186 186 186
159 159 159
186 186 186
206 206 206
193 193 193
174 174 174
161 161 161
145 145 145
150 150 150
150 150 150
143 143 143
153 153 153
144 144 144
130 130 130
115 115 115
112 112 112
116 116 116
132 132 132
188 188 188
203 203 203
197 197 197
174 174 174
166 166 166
165 165 165
165 165 165
152 152 152
140 140 140
138 138 138
137 137 137
112 112 112
102 102 102
109 109 109
124 124 124
136 136 136
139 139 139
144 144 144
142 142 142
137 137 137
135 135 135
159 159 159
197 197 197
215 215 215
217 217 217
189 189 189
175 175 175
172 172 172
153 153 153
137 137 137
150 150 150
166 166 166
162 162 162
170 170 170
184 184 184
180 180 180
173 173 173
112 112 112
157 157 157
173 173 173
166 166 166
168 168 168
187 187 187
215 215 215
218 218 218
204 204 204
178 178 178
183 183 183
209 209 209
192 192 192
164 164 164
159 159 159
155 155 155
144 144 144
146 146 146
157 157 157
151 151 151
162 162 162
147 147 147
123 123 123
112 112 112
106 106 106
101 101 101
112 112 112
156 156 156
189 189 189
180 180 180
158 158 158
150 150 150
146 146 146
143 143 143
138 138 138
129 129 129
130 130 130
134 134 134
120 120 120
130 130 130
135 135 135
150 150 150
157 157 157
147 147 147
153 153 153
145 145 145
134 134 134
129 129 129
125 125 125
142 142 142
168 168 168
178 178 178
171 171 171
160 160 160
169 169 169
159 159 159
149 149 149
153 153 153
170 170 170
170 170 170
197 197 197
209 209 209
175 175 175
172 172 172
107 107 107
131 131 131
150 150 150
174 174 174
178 178 178
185 185 185
210 210 210
214 214 214
204 204 204
192 192 192
192 192 192
179 179 179
156 156 156
160 160 160
161 161 161
147 147 147
139 139 139
139 139 139
153 153 153
157 157 157
159 159 159
150 150 150
133 133 133
116 116 116
109 109 109
106 106 106
122 122 122
144 144 144
183 183 183
172 172 172
157 157 157
151 151 151
148 148 148
142 142 142
141 141 141
140 140 140
134 134 134
133 133 133
135 135 135
159 159 159
153 153 153
146 146 146
153 153 153
148 148 148
157 157 157
157 157 157
138 138 138
117 117 117
123 123 123
136 136 136
156 156 156
148 148 148
150 150 150
161 161 161
169 169 169
170 170 170
170 170 170
162 162 162
165 165 165
165 165 165
169 169 169
183 183 183
194 194 194
173 173 173
102 102 102
120 120 120
140 140 140
166 166 166
171 171 171
168 168 168
192 192 192
205 205 205
204 204 204
202 202 202
182 182 182
165 165 165
160 160 160
168 168 168
165 165 165
151 151 151
149 149 149
154 154 154
158 158 158
147 147 147
133 133 133
137 137 137
140 140 140
136 136 136
124 124 124
126 126 126
130 130 130
148 148 148
187 187 187
172 172 172
155 155 155
149 149 149
147 147 147
143 143 143
142 142 142
143 143 143
128 128 128
131 131 131
143 143 143
159 159 159
158 158 158
146 146 146
139 139 139
134 134 134
144 144 144
156 156 156
149 149 149
143 143 143
145 145 145
152 152 152
155 155 155
135 135 135
124 124 124
144 144 144
165 165 165
180 180 180
186 186 186
182 182 182
173 173 173
162 162 162
148 148 148
149 149 149
149 149 149
151 151 151
87 87 87
102 102 102
117 117 117
147 147 147
167 167 167
169 169 169
209 209 209
228 228 228
225 225 225
212 212 212
190 190 190
175 175 175
171 171 171
162 162 162
148 148 148
141 141 141
134 134 134
136 136 136
134 134 134
122 122 122
118 118 118
123 123 123
130 130 130
126 126 126
127 127 127
138 138 138
121 121 121
153 153 153
186 186 186
173 173 173
156 156 156
147 147 147
144 144 144
144 144 144
142 142 142
141 141 141
123 123 123
123 123 123
139 139 139
150 150 150
155 155 155
148 148 148
134 134 134
128 128 128
126 126 126
143 143 143
150 150 150
151 151 151
154 154 154
160 160 160
153 153 153
135 135 135
132 132 132
142 142 142
157 157 157
175 175 175
185 185 185
184 184 184
172 172 172
161 161 161
152 152 152
162 162 162
153 153 153
130 130 130
88 88 88
100 100 100
97 97 97
134 134 134
162 162 162
188 188 188
228 228 228
231 231 231
225 225 225
216 216 216
204 204 204
191 191 191
179 179 179
158 158 158
131 131 131
116 116 116
107 107 107
107 107 107
111 111 111
111 111 111
112 112 112
115 115 115
120 120 120
120 120 120
137 137 137
140 140 140
118 118 118
161 161 161
182 182 182
172 172 172
158 158 158
148 148 148
144 144 144
145 145 145
145 145 145
142 142 142
125 125 125
117 117 117
137 137 137
153 153 153
148 148 148
150 150 150
140 140 140
123 123 123
118 118 118
123 123 123
128 128 128
129 129 129
131 131 131
138 138 138
138 138 138
137 137 137
142 142 142
152 152 152
163 163 163
174 174 174
190 190 190
194 194 194
179 179 179
157 157 157
146 146 146
157 157 157
146 146 146
122 122 122
121 121 121
130 130 130
116 116 116
142 142 142
163 163 163
185 185 185
208 208 208
211 211 211
208 208 208
204 204 204
201 201 201
197 197 197
186 186 186
157 157 157
127 127 127
108 108 108
102 102 102
105 105 105
111 111 111
116 116 116
123 123 123
129 129 129
140 140 140
153 153 153
156 156 156
129 129 129
125 125 125
170 170 170
181 181 181
171 171 171
160 160 160
151 151 151
146 146 146
148 148 148
150 150 150
145 145 145
129 129 129
119 119 119
135 135 135
160 160 160
161 161 161
155 155 155
151 151 151
139 139 139
130 130 130
119 119 119
117 117 117
119 119 119
118 118 118
124 124 124
131 131 131
139 139 139
145 145 145
152 152 152
160 160 160
172 172 172
183 183 183
191 191 191
181 181 181
155 155 155
149 149 149
164 164 164
150 150 150
117 117 117
153 153 153
157 157 157
140 140 140
163 163 163
168 168 168
180 180 180
197 197 197
201 201 201
200 200 200
196 196 196
196 196 196
196 196 196
190 190 190
169 169 169
150 150 150
138 138 138
136 136 136
139 139 139
143 143 143
147 147 147
154 154 154
161 161 161
175 175 175
182 182 182
157 157 157
123 123 123
141 141 141
178 178 178
181 181 181
169 169 169
158 158 158
151 151 151
153 153 153
153 153 153
152 152 152
147 147 147
133 133 133
123 123 123
121 121 121
154 154 154
168 168 168
165 165 165
159 159 159
153 153 153
154 154 154
144 144 144
133 133 133
128 128 128
124 124 124
125 125 125
131 131 131
137 137 137
142 142 142
147 147 147
153 153 153
167 167 167
174 174 174
178 178 178
168 168 168
148 148 148
150 150 150
160 160 160
148 148 148
124 124 124
133 133 133
142 142 142
143 143 143
177 177 177
178 178 178
182 182 182
192 192 192
193 193 193
192 192 192
188 188 188
184 184 184
185 185 185
180 180 180
172 172 172
166 166 166
163 163 163
156 156 156
157 157 157
161 161 161
165 165 165
172 172 172
176 176 176
184 184 184
178 178 178
157 157 157
137 137 137
159 159 159
180 180 180
175 175 175
163 163 163
153 153 153
152 152 152
156 156 156
155 155 155
154 154 154
148 148 148
135 135 135
126 126 126
115 115 115
127 127 127
158 158 158
166 166 166
165 165 165
158 158 158
155 155 155
158 158 158
158 158 158
157 157 157
151 151 151
148 148 148
149 149 149
144 144 144
143 143 143
141 141 141
147 147 147
156 156 156
161 161 161
164 164 164
154 154 154
141 141 141
149 149 149
159 159 159
154 154 154
135 135 135
116 116 116
124 124 124
144 144 144
187 187 187
191 191 191
183 183 183
183 183 183
181 181 181
179 179 179
177 177 177
176 176 176
172 172 172
165 165 165
155 155 155
150 150 150
148 148 148
146 146 146
151 151 151
161 161 161
166 166 166
166 166 166
161 161 161
162 162 162
169 169 169
174 174 174
157 157 157
164 164 164
174 174 174
165 165 165
155 155 155
151 151 151
155 155 155
159 159 159
155 155 155
152 152 152
150 150 150
137 137 137
126 126 126
126 126 126
116 116 116
131 131 131
151 151 151
157 157 157
155 155 155
155 155 155
153 153 153
155 155 155
152 152 152
152 152 152
150 150 150
150 150 150
145 145 145
139 139 139
137 137 137
139 139 139
143 143 143
149 149 149
151 151 151
142 142 142
138 138 138
153 153 153
163 163 163
159 159 159
143 143 143
116 116 116
123 123 123
155 155 155
193 193 193
195 195 195
184 184 184
175 175 175
172 172 172
170 170 170
171 171 171
166 166 166
160 160 160
150 150 150
144 144 144
139 139 139
137 137 137
142 142 142
147 147 147
151 151 151
150 150 150
142 142 142
134 134 134
160 160 160
186 186 186
180 180 180
160 160 160
166 166 166
171 171 171
159 159 159
152 152 152
154 154 154
159 159 159
161 161 161
156 156 156
153 153 153
151 151 151
140 140 140
128 128 128
129 129 129
133 133 133
119 119 119
124 124 124
142 142 142
143 143 143
146 146 146
149 149 149
150 150 150
149 149 149
146 146 146
145 145 145
145 145 145
142 142 142
135 135 135
133 133 133
134 134 134
138 138 138
142 142 142
138 138 138
131 131 131
139 139 139
160 160 160
166 166 166
160 160 160
143 143 143
125 125 125
131 131 131
167 167 167
196 196 196
194 194 194
187 187 187
178 178 178
170 170 170
162 162 162
153 153 153
151 151 151
149 149 149
145 145 145
140 140 140
136 136 136
134 134 134
136 136 136
134 134 134
128 128 128
123 123 123
120 120 120
143 143 143
177 177 177
183 183 183
174 174 174
162 162 162
170 170 170
175 175 175
162 162 162
151 151 151
156 156 156
164 164 164
164 164 164
159 159 159
155 155 155
153 153 153
145 145 145
134 134 134
130 130 130
137 137 137
130 130 130
123 123 123
117 117 117
123 123 123
131 131 131
138 138 138
142 142 142
146 146 146
148 148 148
145 145 145
144 144 144
141 141 141
132 132 132
129 129 129
132 132 132
135 135 135
134 134 134
132 132 132
135 135 135
151 151 151
166 166 166
165 165 165
157 157 157
143 143 143
129 129 129
139 139 139
173 173 173
195 195 195
194 194 194
189 189 189
180 180 180
171 171 171
164 164 164
159 159 159
150 150 150
141 141 141
131 131 131
126 126 126
122 122 122
118 118 118
118 118 118
119 119 119
121 121 121
125 125 125
130 130 130
149 149 149
169 169 169
173 173 173
168 168 168
162 162 162
168 168 168
177 177 177
161 161 161
145 145 145
148 148 148
159 159 159
160 160 160
155 155 155
153 153 153
152 152 152
149 149 149
139 139 139
133 133 133
134 134 134
135 135 135
136 136 136
133 133 133
111 111 111
103 103 103
115 115 115
122 122 122
129 129 129
132 132 132
131 131 131
131 131 131
126 126 126
119 119 119
118 118 118
119 119 119
121 121 121
127 127 127
140 140 140
152 152 152
164 164 164
172 172 172
162 162 162
153 153 153
143 143 143
134 134 134
143 143 143
175 175 175
197 197 197
198 198 198
192 192 192
184 184 184
172 172 172
167 167 167
164 164 164
159 159 159
152 152 152
142 142 142
138 138 138
130 130 130
125 125 125
122 122 122
121 121 121
124 124 124
125 125 125
133 133 133
146 146 146
154 154 154
159 159 159
162 162 162
154 154 154
155 155 155
165 165 165
145 145 145
123 123 123
124 124 124
136 136 136
139 139 139
141 141 141
141 141 141
138 138 138
137 137 137
136 136 136
131 131 131
127 127 127
126 126 126
136 136 136
140 140 140
129 129 129
114 114 114
108 108 108
109 109 109
111 111 111
112 112 112
112 112 112
110 110 110
105 105 105
103 103 103
107 107 107
112 112 112
122 122 122
138 138 138
153 153 153
168 168 168
172 172 172
174 174 174
160 160 160
151 151 151
142 142 142
138 138 138
150 150 150
180 180 180
201 201 201
203 203 203
195 195 195
185 185 185
175 175 175
166 166 166
161 161 161
152 152 152
141 141 141
134 134 134
128 128 128
123 123 123
116 116 116
114 114 114
117 117 117
122 122 122
127 127 127
136 136 136
143 143 143
140 140 140
154 154 154
151 151 151
130 130 130
125 125 125
135 135 135
114 114 114
89 89 89
91 91 91
105 105 105
112 112 112
115 115 115
115 115 115
108 108 108
108 108 108
113 113 113
120 120 120
123 123 123
121 121 121
130 130 130
138 138 138
133 133 133
124 124 124
117 117 117
115 115 115
110 110 110
110 110 110
112 112 112
109 109 109
109 109 109
108 108 108
110 110 110
116 116 116
127 127 127
143 143 143
159 159 159
173 173 173
179 179 179
173 173 173
158 158 158
148 148 148
140 140 140
140 140 140
156 156 156
188 188 188
205 205 205
203 203 203
195 195 195
184 184 184
174 174 174
166 166 166
157 157 157
144 144 144
131 131 131
125 125 125
119 119 119
117 117 117
116 116 116
116 116 116
121 121 121
124 124 124
129 129 129
139 139 139
139 139 139
134 134 134
148 148 148
134 134 134
95 95 95
74 74 74
88 88 88
87 87 87
58 58 58
55 55 55
75 75 75
88 88 88
87 87 87
77 77 77
65 65 65
62 62 62
76 76 76
95 95 95
117 117 117
130 130 130
136 136 136
137 137 137
133 133 133
126 126 126
114 114 114
109 109 109
107 107 107
106 106 106
107 107 107
108 108 108
107 107 107
108 108 108
108 108 108
118 118 118
127 127 127
144 144 144
164 164 164
173 173 173
179 179 179
171 171 171
155 155 155
146 146 146
134 134 134
137 137 137
163 163 163
187 187 187
202 202 202
197 197 197
190 190 190
182 182 182
175 175 175
168 168 168
155 155 155
141 141 141
131 131 131
124 124 124
121 121 121
123 123 123
124 124 124
122 122 122
123 123 123
127 127 127
132 132 132
139 139 139
139 139 139
131 131 131
138 138 138
122 122 122
72 72 72
36 36 36
46 46 46
72 72 72
53 53 53
36 36 36
55 55 55
71 71 71
68 68 68
50 50 50
32 32 32
31 31 31
45 45 45
74 74 74
112 112 112
140 140 140
152 152 152
152 152 152
142 142 142
131 131 131
116 116 116
105 105 105
105 105 105
102 102 102
102 102 102
103 103 103
104 104 104
105 105 105
110 110 110
119 119 119
130 130 130
147 147 147
164 164 164
173 173 173
176 176 176
169 169 169
153 153 153
143 143 143
125 125 125
126 126 126
165 165 165
185 185 185
201 201 201
195 195 195
189 189 189
182 182 182
176 176 176
169 169 169
156 156 156
144 144 144
138 138 138
129 129 129
129 129 129
131 131 131
129 129 129
127 127 127
125 125 125
130 130 130
138 138 138
148 148 148
146 146 146
137 137 137
131 131 131
125 125 125
85 85 85
45 45 45
61 61 61
88 88 88
77 77 77
49 49 49
51 51 51
65 65 65
65 65 65
59 59 59
46 46 46
39 39 39
49 49 49
77 77 77
119 119 119
148 148 148
161 161 161
168 168 168
163 163 163
150 150 150
136 136 136
120 120 120
115 115 115
108 108 108
105 105 105
103 103 103
105 105 105
108 108 108
115 115 115
124 124 124
136 136 136
153 153 153
165 165 165
172 172 172
173 173 173
167 167 167
150 150 150
135 135 135
124 124 124
113 113 113
161 161 161
184 184 184
200 200 200
195 195 195
189 189 189
185 185 185
177 177 177
169 169 169
159 159 159
150 150 150
143 143 143
137 137 137
135 135 135
135 135 135
131 131 131
128 128 128
129 129 129
135 135 135
151 151 151
164 164 164
162 162 162
151 151 151
142 142 142
133 133 133
115 115 115
101 101 101
110 110 110
112 112 112
93 93 93
63 63 63
53 53 53
65 65 65
74 74 74
85 85 85
81 81 81
70 70 70
74 74 74
95 95 95
126 126 126
150 150 150
162 162 162
176 176 176
180 180 180
171 171 171
161 161 161
146 146 146
134 134 134
126 126 126
120 120 120
118 118 118
118 118 118
120 120 120
126 126 126
135 135 135
144 144 144
158 158 158
164 164 164
170 170 170
170 170 170
165 165 165
147 147 147
125 125 125
128 128 128
104 104 104
150 150 150
182 182 182
200 200 200
197 197 197
190 190 190
187 187 187
180 180 180
170 170 170
161 161 161
154 154 154
148 148 148
143 143 143
139 139 139
136 136 136
132 132 132
128 128 128
133 133 133
148 148 148
170 170 170
185 185 185
180 180 180
169 169 169
161 161 161
155 155 155
150 150 150
146 146 146
145 145 145
122 122 122
94 94 94
64 64 64
56 56 56
68 68 68
85 85 85
101 101 101
110 110 110
107 107 107
110 110 110
120 120 120
136 136 136
153 153 153
163 163 163
178 178 178
186 186 186
184 184 184
174 174 174
162 162 162
152 152 152
143 143 143
136 136 136
134 134 134
133 133 133
135 135 135
138 138 138
144 144 144
152 152 152
161 161 161
167 167 167
169 169 169
167 167 167
163 163 163
141 141 141
125 125 125
133 133 133
91 91 91
137 137 137
175 175 175
197 197 197
199 199 199
192 192 192
187 187 187
181 181 181
173 173 173
166 166 166
160 160 160
153 153 153
147 147 147
142 142 142
138 138 138
133 133 133
134 134 134
146 146 146
169 169 169
190 190 190
196 196 196
191 191 191
181 181 181
178 178 178
177 177 177
179 179 179
175 175 175
158 158 158
120 120 120
87 87 87
70 70 70
65 65 65
78 78 78
95 95 95
108 108 108
126 126 126
134 134 134
137 137 137
140 140 140
148 148 148
155 155 155
165 165 165
178 178 178
189 189 189
190 190 190
181 181 181
172 172 172
161 161 161
153 153 153
147 147 147
145 145 145
145 145 145
147 147 147
149 149 149
152 152 152
158 158 158
163 163 163
168 168 168
168 168 168
165 165 165
156 156 156
138 138 138
133 133 133
138 138 138
88 88 88
123 123 123
164 164 164
196 196 196
201 201 201
195 195 195
189 189 189
184 184 184
178 178 178
171 171 171
165 165 165
157 157 157
150 150 150
145 145 145
140 140 140
139 139 139
147 147 147
164 164 164
188 188 188
199 199 199
200 200 200
191 191 191
186 186 186
187 187 187
188 188 188
190 190 190
183 183 183
155 155 155
120 120 120
94 94 94
85 85 85
85 85 85
96 96 96
110 110 110
119 119 119
136 136 136
150 150 150
152 152 152
154 154 154
158 158 158
159 159 159
163 163 163
174 174 174
184 184 184
187 187 187
184 184 184
180 180 180
168 168 168
161 161 161
155 155 155
150 150 150
152 152 152
152 152 152
154 154 154
156 156 156
161 161 161
166 166 166
167 167 167
166 166 166
161 161 161
151 151 151
140 140 140
144 144 144
145 145 145
88 88 88
108 108 108
152 152 152
192 192 192
202 202 202
198 198 198
193 193 193
188 188 188
182 182 182
178 178 178
170 170 170
163 163 163
154 154 154
147 147 147
145 145 145
151 151 151
164 164 164
180 180 180
197 197 197
201 201 201
198 198 198
191 191 191
183 183 183
182 182 182
188 188 188
189 189 189
180 180 180
150 150 150
125 125 125
114 114 114
109 109 109
109 109 109
116 116 116
127 127 127
136 136 136
147 147 147
159 159 159
164 164 164
165 165 165
162 162 162
159 159 159
161 161 161
170 170 170
177 177 177
182 182 182
182 182 182
181 181 181
176 176 176
166 166 166
160 160 160
156 156 156
156 156 156
156 156 156
157 157 157
161 161 161
163 163 163
166 166 166
168 168 168
164 164 164
158 158 158
146 146 146
142 142 142
148 148 148
143 143 143
89 89 89
100 100 100
143 143 143
186 186 186
204 204 204
200 200 200
195 195 195
192 192 192
186 186 186
184 184 184
179 179 179
169 169 169
158 158 158
151 151 151
156 156 156
169 169 169
179 179 179
187 187 187
199 199 199
198 198 198
193 193 193
185 185 185
175 175 175
172 172 172
175 175 175
183 183 183
174 174 174
156 156 156
140 140 140
134 134 134
132 132 132
128 128 128
135 135 135
146 146 146
152 152 152
160 160 160
167 167 167
169 169 169
170 170 170
165 165 165
162 162 162
163 163 163
167 167 167
173 173 173
176 176 176
175 175 175
176 176 176
177 177 177
172 172 172
164 164 164
160 160 160
161 161 161
159 159 159
159 159 159
160 160 160
163 163 163
164 164 164
164 164 164
161 161 161
154 154 154
145 145 145
145 145 145
154 154 154
146 146 146
92 92 92
96 96 96
132 132 132
172 172 172
200 200 200
201 201 201
196 196 196
192 192 192
188 188 188
187 187 187
184 184 184
176 176 176
163 163 163
158 158 158
169 169 169
181 181 181
185 185 185
186 186 186
191 191 191
189 189 189
180 180 180
171 171 171
163 163 163
160 160 160
160 160 160
169 169 169
172 172 172
162 162 162
155 155 155
155 155 155
156 156 156
151 151 151
156 156 156
162 162 162
164 164 164
169 169 169
171 171 171
171 171 171
170 170 170
168 168 168
163 163 163
163 163 163
163 163 163
166 166 166
173 173 173
172 172 172
171 171 171
171 171 171
171 171 171
169 169 169
166 166 166
165 165 165
163 163 163
161 161 161
162 162 162
162 162 162
162 162 162
161 161 161
156 156 156
151 151 151
142 142 142
151 151 151
155 155 155
145 145 145
94 94 94
99 99 99
116 116 116
151 151 151
193 193 193
201 201 201
196 196 196
191 191 191
188 188 188
189 189 189
186 186 186
179 179 179
166 166 166
160 160 160
170 170 170
176 176 176
177 177 177
176 176 176
176 176 176
172 172 172
161 161 161
154 154 154
149 149 149
149 149 149
148 148 148
153 153 153
164 164 164
161 161 161
164 164 164
169 169 169
172 172 172
171 171 171
174 174 174
178 178 178
174 174 174
173 173 173
173 173 173
171 171 171
169 169 169
164 164 164
161 161 161
160 160 160
158 158 158
160 160 160
162 162 162
165 165 165
165 165 165
164 164 164
169 169 169
169 169 169
169 169 169
169 169 169
167 167 167
161 161 161
160 160 160
159 159 159
157 157 157
156 156 156
152 152 152
149 149 149
136 136 136
141 141 141
143 143 143
128 128 128
97 97 97
96 96 96
102 102 102
131 131 131
182 182 182
196 196 196
193 193 193
188 188 188
185 185 185
185 185 185
185 185 185
180 180 180
166 166 166
158 158 158
162 162 162
164 164 164
157 157 157
156 156 156
156 156 156
150 150 150
143 143 143
135 135 135
135 135 135
135 135 135
133 133 133
137 137 137
145 145 145
148 148 148
156 156 156
169 169 169
173 173 173
173 173 173
175 175 175
177 177 177
176 176 176
168 168 168
165 165 165
164 164 164
164 164 164
161 161 161
158 158 158
157 157 157
154 154 154
156 156 156
153 153 153
151 151 151
154 154 154
157 157 157
164 164 164
165 165 165
168 168 168
167 167 167
167 167 167
161 161 161
158 158 158
152 152 152
153 153 153
150 150 150
148 148 148
144 144 144
120 120 120
115 115 115
113 113 113
105 105 105
102 102 102
94 94 94
93 93 93
115 115 115
167 167 167
189 189 189
190 190 190
185 185 185
180 180 180
182 182 182
182 182 182
177 177 177
169 169 169
155 155 155
152 152 152
148 148 148
133 133 133
122 122 122
123 123 123
122 122 122
124 124 124
116 116 116
114 114 114
114 114 114
117 117 117
117 117 117
118 118 118
121 121 121
134 134 134
148 148 148
154 154 154
156 156 156
153 153 153
154 154 154
155 155 155
150 150 150
146 146 146
146 146 146
148 148 148
148 148 148
150 150 150
148 148 148
149 149 149
149 149 149
145 145 145
138 138 138
139 139 139
145 145 145
152 152 152
160 160 160
167 167 167
170 170 170
164 164 164
162 162 162
155 155 155
149 149 149
148 148 148
147 147 147
143 143 143
129 129 129
99 99 99
94 94 94
94 94 94
93 93 93
104 104 104
95 95 95
90 90 90
103 103 103
147 147 147
179 179 179
188 188 188
183 183 183
178 178 178
178 178 178
178 178 178
174 174 174
165 165 165
148 148 148
147 147 147
134 134 134
112 112 112
93 93 93
93 93 93
94 94 94
100 100 100
101 101 101
98 98 98
97 97 97
99 99 99
97 97 97
92 92 92
95 95 95
107 107 107
116 116 116
126 126 126
130 130 130
127 127 127
125 125 125
127 127 127
127 127 127
124 124 124
125 125 125
128 128 128
127 127 127
131 131 131
132 132 132
134 134 134
135 135 135
131 131 131
129 129 129
128 128 128
136 136 136
143 143 143
153 153 153
161 161 161
168 168 168
162 162 162
159 159 159
151 151 151
145 145 145
145 145 145
146 146 146
138 138 138
112 112 112
86 86 86
85 85 85
86 86 86
87 87 87
102 102 102
95 95 95
89 89 89
94 94 94
128 128 128
168 168 168
183 183 183
179 179 179
173 173 173
172 172 172
172 172 172
170 170 170
157 157 157
143 143 143
137 137 137
121 121 121
99 99 99
85 85 85
92 92 92
96 96 96
99 99 99
103 103 103
103 103 103
98 98 98
95 95 95
87 87 87
82 82 82
79 79 79
86 86 86
91 91 91
98 98 98
105 105 105
105 105 105
108 108 108
114 114 114
112 112 112
113 113 113
115 115 115
118 118 118
121 121 121
123 123 123
124 124 124
126 126 126
126 126 126
130 130 130
129 129 129
130 130 130
132 132 132
142 142 142
148 148 148
153 153 153
160 160 160
158 158 158
154 154 154
150 150 150
144 144 144
144 144 144
144 144 144
130 130 130
100 100 100
80 80 80
78 78 78
81 81 81
86 86 86
96 96 96
91 91 91
88 88 88
90 90 90
113 113 113
155 155 155
178 178 178
177 177 177
167 167 167
166 166 166
168 168 168
164 164 164
153 153 153
143 143 143
131 131 131
115 115 115
98 98 98
94 94 94
104 104 104
112 112 112
112 112 112
115 115 115
122 122 122
119 119 119
110 110 110
102 102 102
93 93 93
89 89 89
88 88 88
90 90 90
92 92 92
101 101 101
105 105 105
110 110 110
114 114 114
115 115 115
118 118 118
120 120 120
123 123 123
125 125 125
131 131 131
132 132 132
133 133 133
132 132 132
135 135 135
132 132 132
132 132 132
133 133 133
138 138 138
147 147 147
150 150 150
150 150 150
151 151 151
149 149 149
148 148 148
145 145 145
142 142 142
139 139 139
120 120 120
88 88 88
77 77 77
77 77 77
72 72 72
78 78 78
88 88 88
82 82 82
82 82 82
85 85 85
102 102 102
138 138 138
166 166 166
172 172 172
163 163 163
164 164 164
163 163 163
161 161 161
153 153 153
142 142 142
128 128 128
119 119 119
109 109 109
112 112 112
124 124 124
132 132 132
133 133 133
137 137 137
144 144 144
145 145 145
138 138 138
131 131 131
122 122 122
117 117 117
111 111 111
108 108 108
105 105 105
108 108 108
113 113 113
122 122 122
127 127 127
125 125 125
125 125 125
126 126 126
127 127 127
130 130 130
138 138 138
143 143 143
141 141 141
139 139 139
138 138 138
138 138 138
137 137 137
135 135 135
139 139 139
146 146 146
149 149 149
147 147 147
146 146 146
147 147 147
145 145 145
145 145 145
141 141 141
132 132 132
105 105 105
82 82 82
75 75 75
72 72 72
67 67 67
75 75 75
80 80 80
75 75 75
79 79 79
82 82 82
93 93 93
118 118 118
152 152 152
166 166 166
161 161 161
160 160 160
161 161 161
161 161 161
154 154 154
141 141 141
131 131 131
128 128 128
125 125 125
129 129 129
143 143 143
154 154 154
156 156 156
157 157 157
155 155 155
155 155 155
151 151 151
142 142 142
134 134 134
128 128 128
124 124 124
114 114 114
110 110 110
112 112 112
114 114 114
124 124 124
128 128 128
130 130 130
129 129 129
131 131 131
137 137 137
138 138 138
140 140 140
143 143 143
143 143 143
145 145 145
142 142 142
141 141 141
141 141 141
139 139 139
142 142 142
146 146 146
148 148 148
144 144 144
145 145 145
145 145 145
144 144 144
142 142 142
137 137 137
122 122 122
92 92 92
76 76 76
77 77 77
67 67 67
68 68 68
74 74 74
76 76 76
68 68 68
76 76 76
82 82 82
88 88 88
102 102 102
135 135 135
160 160 160
158 158 158
155 155 155
158 158 158
158 158 158
154 154 154
145 145 145
139 139 139
139 139 139
143 143 143
152 152 152
168 168 168
177 177 177
180 180 180
178 178 178
172 172 172
163 163 163
157 157 157
147 147 147
135 135 135
128 128 128
120 120 120
111 111 111
104 104 104
105 105 105
109 109 109
113 113 113
120 120 120
126 126 126
133 133 133
139 139 139
148 148 148
148 148 148
149 149 149
153 153 153
154 154 154
155 155 155
150 150 150
148 148 148
147 147 147
146 146 146
147 147 147
146 146 146
146 146 146
141 141 141
143 143 143
143 143 143
143 143 143
140 140 140
133 133 133
114 114 114
82 82 82
74 74 74
74 74 74
62 62 62
67 67 67
70 70 70
70 70 70
64 64 64
69 69 69
81 81 81
88 88 88
92 92 92
113 113 113
151 151 151
158 158 158
154 154 154
153 153 153
153 153 153
153 153 153
149 149 149
148 148 148
149 149 149
158 158 158
172 172 172
188 188 188
195 195 195
195 195 195
188 188 188
185 185 185
171 171 171
159 159 159
154 154 154
138 138 138
125 125 125
117 117 117
109 109 109
102 102 102
104 104 104
105 105 105
107 107 107
116 116 116
127 127 127
133 133 133
144 144 144
156 156 156
157 157 157
162 162 162
170 170 170
170 170 170
174 174 174
172 172 172
167 167 167
160 160 160
153 153 153
150 150 150
147 147 147
145 145 145
140 140 140
143 143 143
140 140 140
140 140 140
136 136 136
129 129 129
111 111 111
76 76 76
76 76 76
68 68 68
61 61 61
66 66 66
68 68 68
69 69 69
63 63 63
65 65 65
78 78 78
87 87 87
86 86 86
95 95 95
137 137 137
155 155 155
156 156 156
149 149 149
149 149 149
152 152 152
152 152 152
151 151 151
154 154 154
163 163 163
174 174 174
188 188 188
201 201 201
203 203 203
194 194 194
183 183 183
172 172 172
158 158 158
145 145 145
136 136 136
125 125 125
114 114 114
105 105 105
101 101 101
104 104 104
106 106 106
104 104 104
111 111 111
124 124 124
133 133 133
144 144 144
153 153 153
159 159 159
170 170 170
177 177 177
181 181 181
190 190 190
184 184 184
174 174 174
163 163 163
155 155 155
151 151 151
147 147 147
143 143 143
138 138 138
138 138 138
139 139 139
136 136 136
133 133 133
131 131 131
111 111 111
73 73 73
75 75 75
64 64 64
59 59 59
65 65 65
69 69 69
69 69 69
64 64 64
61 61 61
74 74 74
85 85 85
86 86 86
87 87 87
117 117 117
144 144 144
154 154 154
150 150 150
148 148 148
150 150 150
155 155 155
153 153 153
158 158 158
160 160 160
164 164 164
168 168 168
180 180 180
186 186 186
181 181 181
173 173 173
160 160 160
147 147 147
128 128 128
124 124 124
119 119 119
108 108 108
102 102 102
102 102 102
101 101 101
102 102 102
101 101 101
106 106 106
111 111 111
125 125 125
136 136 136
147 147 147
154 154 154
171 171 171
179 179 179
180 180 180
183 183 183
175 175 175
168 168 168
160 160 160
153 153 153
150 150 150
146 146 146
141 141 141
137 137 137
139 139 139
137 137 137
131 131 131
133 133 133
132 132 132
112 112 112
72 72 72
71 71 71
60 60 60
58 58 58
68 68 68
68 68 68
67 67 67
64 64 64
61 61 61
72 72 72
82 82 82
83 83 83
87 87 87
109 109 109
130 130 130
148 148 148
153 153 153
150 150 150
148 148 148
155 155 155
157 157 157
156 156 156
153 153 153
156 156 156
152 152 152
157 157 157
162 162 162
163 163 163
158 158 158
151 151 151
133 133 133
114 114 114
110 110 110
104 104 104
94 94 94
91 91 91
96 96 96
87 87 87
89 89 89
92 92 92
95 95 95
101 101 101
116 116 116
128 128 128
139 139 139
150 150 150
167 167 167
173 173 173
172 172 172
171 171 171
165 165 165
158 158 158
151 151 151
152 152 152
152 152 152
145 145 145
140 140 140
137 137 137
139 139 139
135 135 135
130 130 130
135 135 135
132 132 132
115 115 115
73 73 73
67 67 67
57 57 57
59 59 59
68 68 68
69 69 69
66 66 66
65 65 65
60 60 60
70 70 70
79 79 79
79 79 79
86 86 86
103 103 103
120 120 120
141 141 141
151 151 151
152 152 152
154 154 154
155 155 155
157 157 157
152 152 152
150 150 150
149 149 149
144 144 144
143 143 143
145 145 145
148 148 148
145 145 145
141 141 141
125 125 125
112 112 112
111 111 111
107 107 107
99 99 99
95 95 95
96 96 96
87 87 87
86 86 86
93 93 93
99 99 99
110 110 110
122 122 122
134 134 134
139 139 139
148 148 148
164 164 164
165 165 165
161 161 161
158 158 158
152 152 152
149 149 149
146 146 146
149 149 149
148 148 148
144 144 144
139 139 139
139 139 139
137 137 137
135 135 135
132 132 132
137 137 137
134 134 134
121 121 121
74 74 74
63 63 63
54 54 54
62 62 62
68 68 68
69 69 69
65 65 65
63 63 63
62 62 62
68 68 68
75 75 75
75 75 75
82 82 82
96 96 96
118 118 118
142 142 142
158 158 158
156 156 156
155 155 155
156 156 156
157 157 157
149 149 149
142 142 142
142 142 142
137 137 137
138 138 138
134 134 134
135 135 135
135 135 135
131 131 131
122 122 122
111 111 111
106 106 106
108 108 108
109 109 109
105 105 105
103 103 103
101 101 101
99 99 99
106 106 106
116 116 116
124 124 124
135 135 135
139 139 139
143 143 143
149 149 149
157 157 157
158 158 158
157 157 157
153 153 153
146 146 146
145 145 145
143 143 143
144 144 144
143 143 143
140 140 140
140 140 140
137 137 137
137 137 137
133 133 133
135 135 135
140 140 140
137 137 137
120 120 120
76 76 76
63 63 63
55 55 55
65 65 65
70 70 70
68 68 68
68 68 68
65 65 65
59 59 59
66 66 66
72 72 72
72 72 72
74 74 74
84 84 84
116 116 116
146 146 146
164 164 164
162 162 162
152 152 152
153 153 153
156 156 156
152 152 152
139 139 139
138 138 138
134 134 134
139 139 139
133 133 133
130 130 130
128 128 128
125 125 125
122 122 122
115 115 115
111 111 111
110 110 110
114 114 114
116 116 116
115 115 115
116 116 116
116 116 116
123 123 123
133 133 133
137 137 137
140 140 140
140 140 140
141 141 141
148 148 148
156 156 156
156 156 156
155 155 155
151 151 151
147 147 147
144 144 144
141 141 141
138 138 138
138 138 138
139 139 139
139 139 139
135 135 135
136 136 136
137 137 137
140 140 140
146 146 146
141 141 141
124 124 124
78 78 78
60 60 60
55 55 55
69 69 69
69 69 69
69 69 69
69 69 69
67 67 67
60 60 60
64 64 64
68 68 68
63 63 63
63 63 63
80 80 80
117 117 117
150 150 150
166 166 166
165 165 165
155 155 155
151 151 151
156 156 156
152 152 152
139 139 139
133 133 133
132 132 132
133 133 133
134 134 134
131 131 131
131 131 131
128 128 128
121 121 121
112 112 112
116 116 116
118 118 118
120 120 120
122 122 122
124 124 124
126 126 126
126 126 126
134 134 134
138 138 138
141 141 141
143 143 143
139 139 139
144 144 144
149 149 149
154 154 154
152 152 152
152 152 152
149 149 149
144 144 144
141 141 141
139 139 139
138 138 138
137 137 137
139 139 139
140 140 140
135 135 135
135 135 135
143 143 143
146 146 146
150 150 150
141 141 141
126 126 126
79 79 79
58 58 58
57 57 57
70 70 70
68 68 68
70 70 70
68 68 68
68 68 68
59 59 59
59 59 59
60 60 60
51 51 51
62 62 62
83 83 83
122 122 122
154 154 154
169 169 169
168 168 168
162 162 162
157 157 157
151 151 151
146 146 146
135 135 135
132 132 132
126 126 126
127 127 127
130 130 130
131 131 131
132 132 132
130 130 130
120 120 120
111 111 111
114 114 114
114 114 114
115 115 115
118 118 118
118 118 118
121 121 121
121 121 121
125 125 125
131 131 131
135 135 135
142 142 142
141 141 141
141 141 141
145 145 145
149 149 149
150 150 150
149 149 149
146 146 146
141 141 141
139 139 139
135 135 135
133 133 133
137 137 137
138 138 138
140 140 140
137 137 137
140 140 140
147 147 147
152 152 152
152 152 152
141 141 141
127 127 127
83 83 83
59 59 59
58 58 58
70 70 70
70 70 70
69 69 69
68 68 68
60 60 60
52 52 52
48 48 48
48 48 48
49 49 49
61 61 61
88 88 88
122 122 122
156 156 156
172 172 172
170 170 170
164 164 164
158 158 158
151 151 151
144 144 144
133 133 133
131 131 131
125 125 125
123 123 123
124 124 124
130 130 130
132 132 132
132 132 132
124 124 124
120 120 120
119 119 119
113 113 113
113 113 113
113 113 113
115 115 115
118 118 118
119 119 119
119 119 119
127 127 127
133 133 133
140 140 140
139 139 139
136 136 136
140 140 140
145 145 145
145 145 145
144 144 144
142 142 142
138 138 138
132 132 132
130 130 130
130 130 130
133 133 133
138 138 138
139 139 139
140 140 140
143 143 143
148 148 148
156 156 156
156 156 156
143 143 143
131 131 131
88 88 88
59 59 59
59 59 59
71 71 71
73 73 73
70 70 70
55 55 55
44 44 44
37 37 37
39 39 39
44 44 44
47 47 47
60 60 60
90 90 90
123 123 123
160 160 160
173 173 173
171 171 171
165 165 165
159 159 159
149 149 149
144 144 144
132 132 132
127 127 127
125 125 125
122 122 122
123 123 123
128 128 128
132 132 132
132 132 132
126 126 126
128 128 128
127 127 127
122 122 122
119 119 119
120 120 120
121 121 121
124 124 124
125 125 125
126 126 126
131 131 131
134 134 134
137 137 137
136 136 136
134 134 134
136 136 136
141 141 141
138 138 138
136 136 136
136 136 136
132 132 132
128 128 128
124 124 124
131 131 131
134 134 134
139 139 139
142 142 142
146 146 146
149 149 149
155 155 155
159 159 159
156 156 156
145 145 145
134 134 134
94 94 94
63 63 63
61 61 61
71 71 71
74 74 74
71 71 71
41 41 41
33 33 33
32 32 32
36 36 36
45 45 45
44 44 44
61 61 61
92 92 92
126 126 126
165 165 165
177 177 177
174 174 174
169 169 169
161 161 161
150 150 150
140 140 140
133 133 133
129 129 129
125 125 125
122 122 122
122 122 122
123 123 123
125 125 125
128 128 128
125 125 125
125 125 125
124 124 124
122 122 122
118 118 118
119 119 119
124 124 124
124 124 124
125 125 125
127 127 127
128 128 128
129 129 129
128 128 128
129 129 129
129 129 129
131 131 131
135 135 135
132 132 132
128 128 128
128 128 128
126 126 126
126 126 126
122 122 122
129 129 129
137 137 137
140 140 140
142 142 142
145 145 145
155 155 155
158 158 158
162 162 162
160 160 160
145 145 145
139 139 139
99 99 99
67 67 67
60 60 60
68 68 68
73 73 73
73 73 73
34 34 34
30 30 30
32 32 32
37 37 37
45 45 45
44 44 44
60 60 60
95 95 95
132 132 132
171 171 171
184 184 184
175 175 175
167 167 167
163 163 163
149 149 149
137 137 137
132 132 132
130 130 130
125 125 125
119 119 119
118 118 118
116 116 116
116 116 116
116 116 116
113 113 113
109 109 109
108 108 108
109 109 109
106 106 106
111 111 111
114 114 114
113 113 113
117 117 117
117 117 117
118 118 118
119 119 119
121 121 121
123 123 123
122 122 122
125 125 125
124 124 124
123 123 123
122 122 122
121 121 121
119 119 119
121 121 121
125 125 125
128 128 128
137 137 137
141 141 141
144 144 144
144 144 144
156 156 156
162 162 162
164 164 164
164 164 164
149 149 149
146 146 146
107 107 107
72 72 72
60 60 60
62 62 62
70 70 70
74 74 74
32 32 32
28 28 28
29 29 29
37 37 37
42 42 42
43 43 43
58 58 58
95 95 95
140 140 140
182 182 182
188 188 188
180 180 180
170 170 170
155 155 155
145 145 145
136 136 136
133 133 133
129 129 129
120 120 120
117 117 117
114 114 114
114 114 114
109 109 109
104 104 104
98 98 98
93 93 93
91 91 91
91 91 91
94 94 94
97 97 97
103 103 103
105 105 105
106 106 106
107 107 107
109 109 109
111 111 111
115 115 115
117 117 117
113 113 113
113 113 113
114 114 114
114 114 114
114 114 114
115 115 115
117 117 117
116 116 116
124 124 124
132 132 132
139 139 139
140 140 140
145 145 145
147 147 147
156 156 156
163 163 163
163 163 163
165 165 165
155 155 155
150 150 150
116 116 116
78 78 78
64 64 64
64 64 64
67 67 67
71 71 71
29 29 29
26 26 26
29 29 29
33 33 33
38 38 38
38 38 38
61 61 61
97 97 97
153 153 153
194 194 194
195 195 195
180 180 180
169 169 169
154 154 154
138 138 138
132 132 132
133 133 133
126 126 126
120 120 120
116 116 116
110 110 110
109 109 109
106 106 106
99 99 99
88 88 88
84 84 84
83 83 83
82 82 82
82 82 82
87 87 87
91 91 91
94 94 94
94 94 94
96 96 96
96 96 96
98 98 98
101 101 101
103 103 103
100 100 100
104 104 104
105 105 105
107 107 107
107 107 107
109 109 109
110 110 110
114 114 114
122 122 122
134 134 134
138 138 138
139 139 139
147 147 147
152 152 152
159 159 159
160 160 160
165 165 165
168 168 168
158 158 158
156 156 156
122 122 122
83 83 83
69 69 69
69 69 69
67 67 67
70 70 70
27 27 27
24 24 24
26 26 26
32 32 32
31 31 31
34 34 34
57 57 57
104 104 104
163 163 163
198 198 198
191 191 191
179 179 179
163 163 163
150 150 150
135 135 135
124 124 124
124 124 124
123 123 123
119 119 119
111 111 111
108 108 108
101 101 101
101 101 101
93 93 93
86 86 86
80 80 80
80 80 80
80 80 80
74 74 74
79 79 79
83 83 83
84 84 84
85 85 85
86 86 86
83 83 83
86 86 86
88 88 88
90 90 90
93 93 93
96 96 96
99 99 99
101 101 101
101 101 101
101 101 101
108 108 108
117 117 117
125 125 125
134 134 134
136 136 136
139 139 139
148 148 148
155 155 155
160 160 160
162 162 162
167 167 167
169 169 169
162 162 162
159 159 159
127 127 127
87 87 87
70 70 70
71 71 71
71 71 71
69 69 69
