P3
64 64
255
125 125 125
130 130 130
136 136 136
137 137 137
141 141 141
145 145 145
147 147 147
144 144 144
141 141 141
140 140 140
139 139 139
138 138 138
137 137 137
136 136 136
134 134 134
133 133 133
132 132 132
131 131 131
130 130 130
129 129 129
129 129 129
129 129 129
128 128 128
128 128 128
128 128 128
128 128 128
128 128 128
128 128 128
128 128 128
129 129 129
130 130 130
131 131 131
131 131 131
132 132 132
133 133 133
133 133 133
134 134 134
135 135 135
136 136 136
137 137 137
137 137 137
138 138 138
139 139 139
140 140 140
141 141 141
142 142 142
143 143 143
143 143 143
144 144 144
145 145 145
145 145 145
144 144 144
145 145 145
145 145 145
146 146 146
145 145 145
144 144 144
144 144 144
144 144 144
143 143 143
142 142 142
141 141 141
132 132 132
124 124 124
126 126 126
133 133 133
137 137 137
139 139 139
142 142 142
146 146 146
147 147 147
144 144 144
141 141 141
140 140 140
138 138 138
137 137 137
136 136 136
135 135 135
134 134 134
134 134 134
133 133 133
132 132 132
131 131 131
130 130 130
130 130 130
129 129 129
129 129 129
129 129 129
129 129 129
129 129 129
129 129 129
129 129 129
128 128 128
129 129 129
130 130 130
130 130 130
131 131 131
132 132 132
132 132 132
133 133 133
133 133 133
134 134 134
136 136 136
136 136 136
137 137 137
138 138 138
139 139 139
139 139 139
140 140 140
141 141 141
142 142 142
143 143 143
144 144 144
144 144 144
144 144 144
144 144 144
145 145 145
145 145 145
147 147 147
146 146 146
146 146 146
145 145 145
145 145 145
144 144 144
143 143 143
142 142 142
135 135 135
126 126 126
127 127 127
134 134 134
139 139 139
140 140 140
143 143 143
147 147 147
147 147 147
144 144 144
141 141 141
140 140 140
138 138 138
137 137 137
136 136 136
135 135 135
135 135 135
134 134 134
133 133 133
132 132 132
131 131 131
131 131 131
130 130 130
130 130 130
130 130 130
129 129 129
129 129 129
129 129 129
129 129 129
129 129 129
129 129 129
129 129 129
130 130 130
130 130 130
131 131 131
132 132 132
132 132 132
133 133 133
133 133 133
135 135 135
135 135 135
136 136 136
137 137 137
138 138 138
138 138 138
139 139 139
140 140 140
140 140 140
141 141 141
142 142 142
143 143 143
143 143 143
143 143 143
144 144 144
144 144 144
146 146 146
146 146 146
147 147 147
146 146 146
146 146 146
146 146 146
144 144 144
143 143 143
142 142 142
136 136 136
128 128 128
128 128 128
135 135 135
140 140 140
142 142 142
144 144 144
147 147 147
147 147 147
143 143 143
141 141 141
139 139 139
138 138 138
137 137 137
136 136 136
135 135 135
135 135 135
134 134 134
134 134 134
133 133 133
132 132 132
131 131 131
131 131 131
131 131 131
130 130 130
129 129 129
130 130 130
129 129 129
129 129 129
130 130 130
130 130 130
130 130 130
130 130 130
131 131 131
132 132 132
132 132 132
133 133 133
133 133 133
133 133 133
135 135 135
136 136 136
137 137 137
138 138 138
138 138 138
138 138 138
139 139 139
139 139 139
140 140 140
141 141 141
141 141 141
143 143 143
143 143 143
143 143 143
143 143 143
143 143 143
144 144 144
145 145 145
146 146 146
146 146 146
146 146 146
146 146 146
145 145 145
143 143 143
143 143 143
137 137 137
130 130 130
128 128 128
135 135 135
140 140 140
143 143 143
145 145 145
147 147 147
146 146 146
143 143 143
141 141 141
139 139 139
138 138 138
137 137 137
136 136 136
135 135 135
135 135 135
134 134 134
134 134 134
133 133 133
132 132 132
131 131 131
131 131 131
131 131 131
130 130 130
129 129 129
130 130 130
130 130 130
130 130 130
130 130 130
131 131 131
131 131 131
131 131 131
132 132 132
133 133 133
134 134 134
133 133 133
133 133 133
134 134 134
135 135 135
136 136 136
137 137 137
137 137 137
137 137 137
138 138 138
138 138 138
139 139 139
139 139 139
140 140 140
141 141 141
141 141 141
142 142 142
142 142 142
142 142 142
142 142 142
142 142 142
143 143 143
145 145 145
145 145 145
145 145 145
146 146 146
145 145 145
144 144 144
143 143 143
138 138 138
130 130 130
129 129 129
136 136 136
141 141 141
144 144 144
146 146 146
146 146 146
144 144 144
142 142 142
141 141 141
139 139 139
138 138 138
136 136 136
135 135 135
134 134 134
134 134 134
133 133 133
133 133 133
133 133 133
131 131 131
131 131 131
130 130 130
130 130 130
129 129 129
128 128 128
129 129 129
129 129 129
129 129 129
130 130 130
132 132 132
132 132 132
132 132 132
133 133 133
135 135 135
135 135 135
134 134 134
133 133 133
134 134 134
135 135 135
135 135 135
136 136 136
136 136 136
136 136 136
136 136 136
136 136 136
137 137 137
137 137 137
138 138 138
139 139 139
139 139 139
139 139 139
140 140 140
140 140 140
140 140 140
140 140 140
141 141 141
143 143 143
144 144 144
144 144 144
145 145 145
144 144 144
144 144 144
143 143 143
139 139 139
131 131 131
131 131 131
136 136 136
142 142 142
144 144 144
146 146 146
146 146 146
144 144 144
142 142 142
141 141 141
139 139 139
137 137 137
134 134 134
132 132 132
131 131 131
130 130 130
130 130 130
130 130 130
129 129 129
128 128 128
128 128 128
127 127 127
127 127 127
126 126 126
126 126 126
127 127 127
127 127 127
127 127 127
129 129 129
131 131 131
131 131 131
133 133 133
134 134 134
136 136 136
135 135 135
133 133 133
132 132 132
133 133 133
133 133 133
134 134 134
134 134 134
134 134 134
134 134 134
133 133 133
133 133 133
133 133 133
133 133 133
135 135 135
135 135 135
135 135 135
135 135 135
136 136 136
137 137 137
137 137 137
137 137 137
137 137 137
139 139 139
141 141 141
143 143 143
143 143 143
143 143 143
144 144 144
144 144 144
139 139 139
132 132 132
132 132 132
137 137 137
143 143 143
145 145 145
146 146 146
146 146 146
144 144 144
141 141 141
139 139 139
136 136 136
133 133 133
130 130 130
127 127 127
126 126 126
126 126 126
126 126 126
126 126 126
125 125 125
124 124 124
123 123 123
123 123 123
122 122 122
123 123 123
124 124 124
125 125 125
125 125 125
125 125 125
127 127 127
128 128 128
129 129 129
131 131 131
134 134 134
136 136 136
135 135 135
133 133 133
132 132 132
131 131 131
131 131 131
132 132 132
130 130 130
129 129 129
128 128 128
127 127 127
126 126 126
126 126 126
126 126 126
126 126 126
127 127 127
127 127 127
128 128 128
129 129 129
131 131 131
131 131 131
132 132 132
132 132 132
133 133 133
136 136 136
140 140 140
142 142 142
142 142 142
143 143 143
143 143 143
139 139 139
131 131 131
133 133 133
139 139 139
143 143 143
146 146 146
147 147 147
147 147 147
143 143 143
138 138 138
133 133 133
130 130 130
128 128 128
125 125 125
123 123 123
122 122 122
122 122 122
121 121 121
122 122 122
120 120 120
120 120 120
120 120 120
120 120 120
119 119 119
120 120 120
121 121 121
123 123 123
123 123 123
124 124 124
124 124 124
125 125 125
126 126 126
130 130 130
133 133 133
135 135 135
134 134 134
132 132 132
131 131 131
128 128 128
128 128 128
130 130 130
126 126 126
124 124 124
124 124 124
122 122 122
120 120 120
120 120 120
120 120 120
119 119 119
125 125 125
125 125 125
124 124 124
125 125 125
126 126 126
128 128 128
126 126 126
125 125 125
127 127 127
131 131 131
134 134 134
138 138 138
139 139 139
141 141 141
142 142 142
138 138 138
131 131 131
133 133 133
140 140 140
143 143 143
147 147 147
148 148 148
146 146 146
140 140 140
134 134 134
128 128 128
126 126 126
125 125 125
124 124 124
124 124 124
124 124 124
123 123 123
123 123 123
123 123 123
120 120 120
120 120 120
121 121 121
121 121 121
121 121 121
120 120 120
122 122 122
125 125 125
124 124 124
124 124 124
124 124 124
123 123 123
125 125 125
130 130 130
133 133 133
134 134 134
133 133 133
130 130 130
129 129 129
126 126 126
125 125 125
128 128 128
126 126 126
123 123 123
124 124 124
123 123 123
119 119 119
118 118 118
117 117 117
117 117 117
129 129 129
132 132 132
131 131 131
130 130 130
130 130 130
132 132 132
131 131 131
128 128 128
127 127 127
128 128 128
131 131 131
133 133 133
137 137 137
138 138 138
141 141 141
139 139 139
131 131 131
133 133 133
139 139 139
143 143 143
148 148 148
149 149 149
143 143 143
136 136 136
129 129 129
127 127 127
128 128 128
129 129 129
129 129 129
128 128 128
127 127 127
127 127 127
126 126 126
125 125 125
122 122 122
123 123 123
123 123 123
124 124 124
124 124 124
123 123 123
126 126 126
130 130 130
130 130 130
131 131 131
128 128 128
126 126 126
128 128 128
130 130 130
132 132 132
133 133 133
132 132 132
130 130 130
128 128 128
125 125 125
124 124 124
126 126 126
126 126 126
126 126 126
125 125 125
123 123 123
119 119 119
118 118 118
118 118 118
119 119 119
125 125 125
134 134 134
138 138 138
140 140 140
141 141 141
141 141 141
141 141 141
140 140 140
138 138 138
135 135 135
129 129 129
130 130 130
133 133 133
137 137 137
140 140 140
139 139 139
132 132 132
133 133 133
138 138 138
143 143 143
149 149 149
148 148 148
140 140 140
133 133 133
131 131 131
131 131 131
133 133 133
134 134 134
134 134 134
132 132 132
130 130 130
129 129 129
128 128 128
128 128 128
125 125 125
126 126 126
126 126 126
127 127 127
126 126 126
126 126 126
131 131 131
137 137 137
136 136 136
136 136 136
140 140 140
138 138 138
134 134 134
134 134 134
136 136 136
136 136 136
134 134 134
132 132 132
130 130 130
128 128 128
128 128 128
128 128 128
126 126 126
125 125 125
123 123 123
120 120 120
118 118 118
118 118 118
119 119 119
121 121 121
126 126 126
139 139 139
142 142 142
142 142 142
141 141 141
141 141 141
141 141 141
141 141 141
140 140 140
140 140 140
136 136 136
127 127 127
131 131 131
136 136 136
139 139 139
139 139 139
133 133 133
133 133 133
138 138 138
145 145 145
150 150 150
146 146 146
138 138 138
136 136 136
136 136 136
138 138 138
139 139 139
138 138 138
136 136 136
134 134 134
133 133 133
132 132 132
131 131 131
130 130 130
127 127 127
127 127 127
127 127 127
128 128 128
127 127 127
127 127 127
131 131 131
137 137 137
141 141 141
141 141 141
140 140 140
143 143 143
138 138 138
135 135 135
136 136 136
136 136 136
136 136 136
136 136 136
134 134 134
131 131 131
130 130 130
127 127 127
125 125 125
122 122 122
120 120 120
119 119 119
120 120 120
121 121 121
124 124 124
126 126 126
133 133 133
144 144 144
144 144 144
144 144 144
143 143 143
140 140 140
137 137 137
136 136 136
133 133 133
133 133 133
134 134 134
128 128 128
131 131 131
135 135 135
139 139 139
138 138 138
134 134 134
131 131 131
137 137 137
144 144 144
147 147 147
143 143 143
139 139 139
141 141 141
142 142 142
142 142 142
141 141 141
136 136 136
135 135 135
137 137 137
139 139 139
138 138 138
136 136 136
134 134 134
131 131 131
131 131 131
130 130 130
131 131 131
130 130 130
129 129 129
129 129 129
131 131 131
134 134 134
137 137 137
138 138 138
141 141 141
138 138 138
134 134 134
134 134 134
134 134 134
134 134 134
136 136 136
134 134 134
131 131 131
130 130 130
127 127 127
122 122 122
121 121 121
120 120 120
121 121 121
123 123 123
127 127 127
128 128 128
128 128 128
131 131 131
141 141 141
145 145 145
146 146 146
146 146 146
143 143 143
137 137 137
135 135 135
131 131 131
128 128 128
131 131 131
132 132 132
131 131 131
134 134 134
137 137 137
137 137 137
135 135 135
132 132 132
143 143 143
148 148 148
145 145 145
141 141 141
141 141 141
145 145 145
145 145 145
143 143 143
139 139 139
135 135 135
141 141 141
144 144 144
141 141 141
136 136 136
133 133 133
129 129 129
130 130 130
129 129 129
128 128 128
130 130 130
129 129 129
127 127 127
125 125 125
124 124 124
124 124 124
126 126 126
137 137 137
140 140 140
139 139 139
135 135 135
133 133 133
133 133 133
134 134 134
132 132 132
130 130 130
130 130 130
130 130 130
125 125 125
122 122 122
123 123 123
126 126 126
128 128 128
129 129 129
130 130 130
129 129 129
128 128 128
127 127 127
131 131 131
138 138 138
141 141 141
142 142 142
138 138 138
136 136 136
136 136 136
133 133 133
130 130 130
131 131 131
133 133 133
132 132 132
134 134 134
137 137 137
136 136 136
135 135 135
132 132 132
139 139 139
142 142 142
140 140 140
139 139 139
142 142 142
145 145 145
145 145 145
142 142 142
137 137 137
140 140 140
145 145 145
141 141 141
134 134 134
133 133 133
132 132 132
130 130 130
130 130 130
132 132 132
130 130 130
133 133 133
130 130 130
125 125 125
124 124 124
123 123 123
122 122 122
123 123 123
131 131 131
138 138 138
136 136 136
132 132 132
131 131 131
130 130 130
130 130 130
130 130 130
128 128 128
129 129 129
130 130 130
126 126 126
127 127 127
128 128 128
130 130 130
131 131 131
129 129 129
131 131 131
130 130 130
129 129 129
127 127 127
126 126 126
128 128 128
134 134 134
136 136 136
135 135 135
133 133 133
135 135 135
133 133 133
132 132 132
132 132 132
135 135 135
134 134 134
138 138 138
141 141 141
136 136 136
135 135 135
130 130 130
135 135 135
138 138 138
141 141 141
140 140 140
141 141 141
144 144 144
144 144 144
141 141 141
139 139 139
140 140 140
138 138 138
133 133 133
133 133 133
133 133 133
130 130 130
129 129 129
129 129 129
131 131 131
132 132 132
132 132 132
130 130 130
127 127 127
123 123 123
122 122 122
122 122 122
125 125 125
129 129 129
137 137 137
134 134 134
132 132 132
131 131 131
130 130 130
130 130 130
130 130 130
130 130 130
130 130 130
129 129 129
129 129 129
132 132 132
131 131 131
129 129 129
130 130 130
129 129 129
131 131 131
131 131 131
129 129 129
125 125 125
126 126 126
128 128 128
133 133 133
131 131 131
130 130 130
133 133 133
135 135 135
135 135 135
135 135 135
134 134 134
134 134 134
134 134 134
134 134 134
136 136 136
139 139 139
135 135 135
129 129 129
132 132 132
136 136 136
139 139 139
139 139 139
138 138 138
141 141 141
142 142 142
142 142 142
141 141 141
137 137 137
133 133 133
132 132 132
134 134 134
134 134 134
130 130 130
131 131 131
132 132 132
132 132 132
130 130 130
127 127 127
128 128 128
128 128 128
127 127 127
125 125 125
126 126 126
127 127 127
130 130 130
137 137 137
135 135 135
132 132 132
131 131 131
130 130 130
130 130 130
130 130 130
131 131 131
128 128 128
128 128 128
130 130 130
132 132 132
131 131 131
128 128 128
127 127 127
126 126 126
128 128 128
131 131 131
130 130 130
129 129 129
130 130 130
131 131 131
132 132 132
128 128 128
126 126 126
129 129 129
132 132 132
135 135 135
137 137 137
136 136 136
136 136 136
133 133 133
130 130 130
130 130 130
131 131 131
131 131 131
126 126 126
129 129 129
132 132 132
136 136 136
138 138 138
138 138 138
144 144 144
146 146 146
145 145 145
142 142 142
138 138 138
135 135 135
134 134 134
133 133 133
130 130 130
129 129 129
128 128 128
128 128 128
128 128 128
125 125 125
124 124 124
125 125 125
126 126 126
125 125 125
125 125 125
128 128 128
126 126 126
132 132 132
137 137 137
135 135 135
132 132 132
130 130 130
130 130 130
130 130 130
130 130 130
130 130 130
127 127 127
127 127 127
129 129 129
130 130 130
131 131 131
129 129 129
126 126 126
125 125 125
124 124 124
128 128 128
130 130 130
130 130 130
131 131 131
132 132 132
131 131 131
128 128 128
128 128 128
129 129 129
130 130 130
134 134 134
136 136 136
137 137 137
135 135 135
133 133 133
131 131 131
133 133 133
131 131 131
127 127 127
125 125 125
128 128 128
128 128 128
134 134 134
137 137 137
141 141 141
147 147 147
147 147 147
145 145 145
143 143 143
141 141 141
139 139 139
136 136 136
132 132 132
127 127 127
125 125 125
123 123 123
123 123 123
123 123 123
122 122 122
122 122 122
123 123 123
124 124 124
124 124 124
127 127 127
129 129 129
126 126 126
134 134 134
137 137 137
135 135 135
132 132 132
131 131 131
130 130 130
131 131 131
131 131 131
131 131 131
128 128 128
126 126 126
128 128 128
131 131 131
129 129 129
129 129 129
127 127 127
124 124 124
123 123 123
124 124 124
125 125 125
126 126 126
126 126 126
128 128 128
128 128 128
128 128 128
129 129 129
130 130 130
132 132 132
134 134 134
137 137 137
138 138 138
136 136 136
132 132 132
130 130 130
132 132 132
130 130 130
126 126 126
130 130 130
133 133 133
132 132 132
136 136 136
138 138 138
141 141 141
144 144 144
143 143 143
143 143 143
142 142 142
141 141 141
140 140 140
138 138 138
132 132 132
127 127 127
123 123 123
122 122 122
122 122 122
123 123 123
124 124 124
125 125 125
126 126 126
128 128 128
130 130 130
132 132 132
128 128 128
128 128 128
135 135 135
137 137 137
135 135 135
133 133 133
132 132 132
131 131 131
131 131 131
132 132 132
131 131 131
128 128 128
126 126 126
128 128 128
132 132 132
132 132 132
130 130 130
129 129 129
127 127 127
125 125 125
123 123 123
123 123 123
123 123 123
123 123 123
125 125 125
126 126 126
128 128 128
130 130 130
131 131 131
132 132 132
134 134 134
136 136 136
138 138 138
136 136 136
132 132 132
130 130 130
133 133 133
131 131 131
124 124 124
134 134 134
138 138 138
135 135 135
139 139 139
139 139 139
140 140 140
142 142 142
141 141 141
141 141 141
140 140 140
140 140 140
140 140 140
139 139 139
134 134 134
131 131 131
128 128 128
128 128 128
128 128 128
129 129 129
130 130 130
131 131 131
132 132 132
135 135 135
136 136 136
133 133 133
127 127 127
131 131 131
137 137 137
137 137 137
135 135 135
133 133 133
132 132 132
132 132 132
132 132 132
132 132 132
131 131 131
129 129 129
127 127 127
126 126 126
131 131 131
133 133 133
133 133 133
131 131 131
130 130 130
130 130 130
128 128 128
126 126 126
125 125 125
124 124 124
125 125 125
126 126 126
128 128 128
129 129 129
130 130 130
131 131 131
133 133 133
134 134 134
135 135 135
133 133 133
130 130 130
131 131 131
133 133 133
131 131 131
126 126 126
131 131 131
135 135 135
136 136 136
142 142 142
140 140 140
140 140 140
141 141 141
140 140 140
140 140 140
139 139 139
138 138 138
139 139 139
137 137 137
136 136 136
134 134 134
134 134 134
132 132 132
132 132 132
133 133 133
134 134 134
135 135 135
135 135 135
137 137 137
137 137 137
133 133 133
130 130 130
134 134 134
137 137 137
136 136 136
134 134 134
132 132 132
132 132 132
132 132 132
133 133 133
133 133 133
132 132 132
129 129 129
127 127 127
125 125 125
127 127 127
132 132 132
133 133 133
133 133 133
131 131 131
131 131 131
131 131 131
131 131 131
131 131 131
130 130 130
129 129 129
129 129 129
129 129 129
129 129 129
128 128 128
129 129 129
131 131 131
132 132 132
132 132 132
131 131 131
129 129 129
130 130 130
132 132 132
131 131 131
127 127 127
128 128 128
131 131 131
136 136 136
143 143 143
143 143 143
140 140 140
139 139 139
138 138 138
137 137 137
137 137 137
137 137 137
136 136 136
135 135 135
133 133 133
132 132 132
132 132 132
131 131 131
132 132 132
133 133 133
134 134 134
134 134 134
134 134 134
134 134 134
136 136 136
137 137 137
134 134 134
135 135 135
136 136 136
134 134 134
133 133 133
132 132 132
132 132 132
133 133 133
132 132 132
132 132 132
132 132 132
130 130 130
127 127 127
127 127 127
125 125 125
127 127 127
131 131 131
132 132 132
131 131 131
131 131 131
130 130 130
131 131 131
130 130 130
130 130 130
130 130 130
130 130 130
129 129 129
128 128 128
128 128 128
128 128 128
129 129 129
130 130 130
130 130 130
129 129 129
128 128 128
131 131 131
133 133 133
132 132 132
129 129 129
128 128 128
131 131 131
138 138 138
144 144 144
143 143 143
140 140 140
138 138 138
137 137 137
136 136 136
136 136 136
135 135 135
134 134 134
132 132 132
131 131 131
130 130 130
130 130 130
131 131 131
131 131 131
132 132 132
132 132 132
131 131 131
129 129 129
134 134 134
139 139 139
138 138 138
134 134 134
135 135 135
136 136 136
133 133 133
132 132 132
132 132 132
133 133 133
134 134 134
133 133 133
132 132 132
132 132 132
130 130 130
128 128 128
128 128 128
128 128 128
125 125 125
126 126 126
129 129 129
129 129 129
130 130 130
130 130 130
130 130 130
130 130 130
130 130 130
129 129 129
129 129 129
129 129 129
128 128 128
127 127 127
127 127 127
128 128 128
128 128 128
128 128 128
127 127 127
128 128 128
132 132 132
134 134 134
133 133 133
129 129 129
130 130 130
133 133 133
140 140 140
144 144 144
143 143 143
141 141 141
139 139 139
136 136 136
135 135 135
133 133 133
132 132 132
132 132 132
131 131 131
131 131 131
130 130 130
129 129 129
130 130 130
129 129 129
128 128 128
127 127 127
127 127 127
131 131 131
137 137 137
139 139 139
137 137 137
135 135 135
136 136 136
136 136 136
134 134 134
132 132 132
133 133 133
134 134 134
134 134 134
133 133 133
133 133 133
132 132 132
131 131 131
129 129 129
128 128 128
129 129 129
127 127 127
126 126 126
124 124 124
126 126 126
127 127 127
128 128 128
129 129 129
130 130 130
130 130 130
130 130 130
129 129 129
129 129 129
127 127 127
127 127 127
127 127 127
127 127 127
127 127 127
127 127 127
128 128 128
131 131 131
133 133 133
134 134 134
132 132 132
129 129 129
131 131 131
134 134 134
141 141 141
144 144 144
143 143 143
141 141 141
139 139 139
137 137 137
135 135 135
134 134 134
132 132 132
130 130 130
129 129 129
128 128 128
127 127 127
126 126 126
126 126 126
127 127 127
127 127 127
128 128 128
129 129 129
132 132 132
136 136 136
137 137 137
136 136 136
134 134 134
135 135 135
137 137 137
133 133 133
131 131 131
131 131 131
133 133 133
133 133 133
132 132 132
132 132 132
132 132 132
132 132 132
131 131 131
129 129 129
129 129 129
128 128 128
128 128 128
127 127 127
123 123 123
122 122 122
124 124 124
126 126 126
127 127 127
127 127 127
127 127 127
127 127 127
126 126 126
125 125 125
125 125 125
125 125 125
125 125 125
126 126 126
129 129 129
131 131 131
133 133 133
135 135 135
133 133 133
132 132 132
129 129 129
132 132 132
135 135 135
141 141 141
144 144 144
144 144 144
142 142 142
140 140 140
137 137 137
136 136 136
135 135 135
134 134 134
132 132 132
131 131 131
130 130 130
128 128 128
128 128 128
127 127 127
127 127 127
128 128 128
128 128 128
129 129 129
132 132 132
134 134 134
134 134 134
135 135 135
133 133 133
133 133 133
134 134 134
130 130 130
126 126 126
126 126 126
128 128 128
129 129 129
129 129 129
129 129 129
129 129 129
129 129 129
130 130 130
128 128 128
127 127 127
127 127 127
128 128 128
128 128 128
126 126 126
124 124 124
123 123 123
123 123 123
124 124 124
124 124 124
124 124 124
123 123 123
123 123 123
122 122 122
123 123 123
124 124 124
126 126 126
128 128 128
131 131 131
134 134 134
135 135 135
135 135 135
133 133 133
132 132 132
129 129 129
134 134 134
136 136 136
142 142 142
145 145 145
145 145 145
142 142 142
140 140 140
138 138 138
136 136 136
135 135 135
133 133 133
131 131 131
130 130 130
128 128 128
127 127 127
126 126 126
126 126 126
126 126 126
127 127 127
128 128 128
130 130 130
132 132 132
131 131 131
133 133 133
133 133 133
129 129 129
127 127 127
128 128 128
124 124 124
119 119 119
119 119 119
122 122 122
124 124 124
124 124 124
124 124 124
124 124 124
124 124 124
125 125 125
125 125 125
126 126 126
126 126 126
128 128 128
129 129 129
128 128 128
126 126 126
125 125 125
124 124 124
124 124 124
124 124 124
124 124 124
124 124 124
123 123 123
123 123 123
124 124 124
125 125 125
127 127 127
129 129 129
132 132 132
135 135 135
136 136 136
135 135 135
133 133 133
131 131 131
128 128 128
134 134 134
137 137 137
143 143 143
145 145 145
144 144 144
143 143 143
140 140 140
138 138 138
136 136 136
134 134 134
132 132 132
129 129 129
128 128 128
127 127 127
127 127 127
126 126 126
126 126 126
127 127 127
128 128 128
129 129 129
131 131 131
131 131 131
130 130 130
132 132 132
130 130 130
123 123 123
118 118 118
119 119 119
117 117 117
112 112 112
112 112 112
117 117 117
119 119 119
119 119 119
117 117 117
116 116 116
116 116 116
118 118 118
120 120 120
124 124 124
127 127 127
128 128 128
129 129 129
128 128 128
127 127 127
124 124 124
124 124 124
123 123 123
123 123 123
123 123 123
124 124 124
123 123 123
124 124 124
124 124 124
125 125 125
127 127 127
130 130 130
133 133 133
135 135 135
136 136 136
135 135 135
133 133 133
131 131 131
127 127 127
134 134 134
138 138 138
142 142 142
145 145 145
144 144 144
142 142 142
140 140 140
138 138 138
137 137 137
134 134 134
131 131 131
129 129 129
128 128 128
127 127 127
128 128 128
128 128 128
127 127 127
127 127 127
128 128 128
130 130 130
131 131 131
131 131 131
130 130 130
131 131 131
128 128 128
119 119 119
112 112 112
112 112 112
114 114 114
110 110 110
109 109 109
113 113 113
117 117 117
116 116 116
113 113 113
110 110 110
110 110 110
112 112 112
116 116 116
123 123 123
128 128 128
131 131 131
131 131 131
130 130 130
128 128 128
125 125 125
123 123 123
123 123 123
123 123 123
122 122 122
123 123 123
123 123 123
123 123 123
124 124 124
126 126 126
128 128 128
131 131 131
134 134 134
135 135 135
136 136 136
135 135 135
132 132 132
130 130 130
126 126 126
132 132 132
139 139 139
142 142 142
144 144 144
143 143 143
142 142 142
141 141 141
138 138 138
137 137 137
134 134 134
132 132 132
130 130 130
129 129 129
129 129 129
129 129 129
129 129 129
128 128 128
128 128 128
129 129 129
131 131 131
133 133 133
133 133 133
131 131 131
130 130 130
129 129 129
121 121 121
113 113 113
115 115 115
118 118 118
116 116 116
112 112 112
114 114 114
116 116 116
115 115 115
114 114 114
113 113 113
112 112 112
113 113 113
118 118 118
124 124 124
130 130 130
133 133 133
134 134 134
134 134 134
131 131 131
129 129 129
126 126 126
125 125 125
124 124 124
123 123 123
123 123 123
123 123 123
124 124 124
125 125 125
127 127 127
129 129 129
132 132 132
134 134 134
136 136 136
136 136 136
135 135 135
132 132 132
129 129 129
126 126 126
130 130 130
139 139 139
142 142 142
145 145 145
143 143 143
142 142 142
141 141 141
139 139 139
137 137 137
135 135 135
133 133 133
131 131 131
130 130 130
130 130 130
130 130 130
129 129 129
128 128 128
129 129 129
130 130 130
134 134 134
136 136 136
136 136 136
134 134 134
132 132 132
131 131 131
127 127 127
124 124 124
124 124 124
124 124 124
120 120 120
116 116 116
115 115 115
117 117 117
117 117 117
119 119 119
120 120 120
118 118 118
119 119 119
122 122 122
127 127 127
131 131 131
133 133 133
135 135 135
137 137 137
135 135 135
133 133 133
131 131 131
129 129 129
127 127 127
126 126 126
126 126 126
125 125 125
126 126 126
127 127 127
129 129 129
130 130 130
133 133 133
134 134 134
135 135 135
135 135 135
134 134 134
132 132 132
128 128 128
127 127 127
129 129 129
137 137 137
142 142 142
145 145 145
144 144 144
143 143 143
142 142 142
140 140 140
138 138 138
136 136 136
134 134 134
132 132 132
131 131 131
131 131 131
130 130 130
129 129 129
128 128 128
130 130 130
133 133 133
137 137 137
140 140 140
138 138 138
137 137 137
135 135 135
135 135 135
134 134 134
133 133 133
132 132 132
127 127 127
122 122 122
118 118 118
116 116 116
117 117 117
120 120 120
123 123 123
125 125 125
125 125 125
125 125 125
127 127 127
129 129 129
132 132 132
133 133 133
136 136 136
138 138 138
137 137 137
136 136 136
134 134 134
132 132 132
130 130 130
129 129 129
128 128 128
128 128 128
129 129 129
129 129 129
130 130 130
132 132 132
134 134 134
135 135 135
136 136 136
135 135 135
134 134 134
131 131 131
128 128 128
128 128 128
126 126 126
135 135 135
142 142 142
145 145 145
145 145 145
143 143 143
142 142 142
140 140 140
138 138 138
137 137 137
135 135 135
133 133 133
132 132 132
131 131 131
130 130 130
129 129 129
130 130 130
132 132 132
137 137 137
141 141 141
141 141 141
140 140 140
138 138 138
139 139 139
139 139 139
139 139 139
138 138 138
134 134 134
128 128 128
122 122 122
119 119 119
118 118 118
119 119 119
122 122 122
124 124 124
127 127 127
129 129 129
130 130 130
130 130 130
131 131 131
132 132 132
134 134 134
136 136 136
138 138 138
138 138 138
137 137 137
135 135 135
134 134 134
132 132 132
131 131 131
130 130 130
130 130 130
131 131 131
131 131 131
132 132 132
133 133 133
134 134 134
135 135 135
136 136 136
135 135 135
133 133 133
130 130 130
129 129 129
129 129 129
125 125 125
133 133 133
140 140 140
145 145 145
145 145 145
144 144 144
142 142 142
141 141 141
140 140 140
138 138 138
136 136 136
134 134 134
133 133 133
132 132 132
131 131 131
131 131 131
133 133 133
136 136 136
140 140 140
142 142 142
142 142 142
140 140 140
140 140 140
140 140 140
141 141 141
142 142 142
140 140 140
135 135 135
128 128 128
124 124 124
122 122 122
121 121 121
122 122 122
124 124 124
126 126 126
129 129 129
132 132 132
133 133 133
133 133 133
134 134 134
134 134 134
134 134 134
135 135 135
137 137 137
138 138 138
137 137 137
137 137 137
135 135 135
134 134 134
133 133 133
132 132 132
132 132 132
132 132 132
132 132 132
133 133 133
134 134 134
135 135 135
136 136 136
136 136 136
135 135 135
133 133 133
131 131 131
131 131 131
130 130 130
125 125 125
130 130 130
138 138 138
144 144 144
145 145 145
144 144 144
143 143 143
142 142 142
141 141 141
139 139 139
137 137 137
136 136 136
134 134 134
132 132 132
132 132 132
133 133 133
136 136 136
139 139 139
141 141 141
142 142 142
142 142 142
141 141 141
140 140 140
139 139 139
141 141 141
141 141 141
140 140 140
135 135 135
130 130 130
128 128 128
126 126 126
125 125 125
126 126 126
128 128 128
129 129 129
132 132 132
134 134 134
135 135 135
135 135 135
134 134 134
134 134 134
134 134 134
135 135 135
136 136 136
137 137 137
137 137 137
137 137 137
136 136 136
135 135 135
134 134 134
133 133 133
133 133 133
133 133 133
133 133 133
134 134 134
135 135 135
135 135 135
136 136 136
135 135 135
134 134 134
132 132 132
131 131 131
132 132 132
130 130 130
125 125 125
128 128 128
136 136 136
143 143 143
146 146 146
145 145 145
143 143 143
143 143 143
141 141 141
140 140 140
139 139 139
137 137 137
134 134 134
133 133 133
134 134 134
136 136 136
139 139 139
140 140 140
142 142 142
142 142 142
141 141 141
140 140 140
138 138 138
138 138 138
139 139 139
140 140 140
138 138 138
136 136 136
133 133 133
132 132 132
131 131 131
129 129 129
130 130 130
132 132 132
133 133 133
134 134 134
136 136 136
136 136 136
136 136 136
135 135 135
135 135 135
134 134 134
134 134 134
135 135 135
135 135 135
136 136 136
136 136 136
136 136 136
135 135 135
135 135 135
134 134 134
134 134 134
134 134 134
134 134 134
134 134 134
135 135 135
135 135 135
135 135 135
135 135 135
134 134 134
132 132 132
132 132 132
133 133 133
130 130 130
125 125 125
127 127 127
134 134 134
141 141 141
145 145 145
145 145 145
143 143 143
142 142 142
142 142 142
141 141 141
140 140 140
138 138 138
135 135 135
134 134 134
136 136 136
139 139 139
140 140 140
140 140 140
141 141 141
140 140 140
138 138 138
137 137 137
136 136 136
136 136 136
136 136 136
138 138 138
138 138 138
137 137 137
136 136 136
135 135 135
135 135 135
134 134 134
135 135 135
136 136 136
136 136 136
136 136 136
137 137 137
137 137 137
137 137 137
136 136 136
135 135 135
134 134 134
134 134 134
134 134 134
135 135 135
135 135 135
135 135 135
135 135 135
135 135 135
135 135 135
135 135 135
135 135 135
134 134 134
134 134 134
135 135 135
135 135 135
135 135 135
135 135 135
134 134 134
133 133 133
132 132 132
133 133 133
133 133 133
130 130 130
126 126 126
127 127 127
131 131 131
137 137 137
144 144 144
145 145 145
143 143 143
142 142 142
141 141 141
141 141 141
140 140 140
138 138 138
136 136 136
135 135 135
136 136 136
138 138 138
139 139 139
138 138 138
138 138 138
137 137 137
135 135 135
134 134 134
134 134 134
134 134 134
134 134 134
135 135 135
137 137 137
136 136 136
137 137 137
138 138 138
138 138 138
138 138 138
138 138 138
138 138 138
137 137 137
137 137 137
137 137 137
136 136 136
136 136 136
135 135 135
134 134 134
134 134 134
133 133 133
133 133 133
133 133 133
134 134 134
134 134 134
134 134 134
135 135 135
135 135 135
135 135 135
135 135 135
135 135 135
134 134 134
134 134 134
135 135 135
134 134 134
134 134 134
134 134 134
133 133 133
131 131 131
131 131 131
131 131 131
128 128 128
127 127 127
127 127 127
128 128 128
133 133 133
142 142 142
144 144 144
143 143 143
142 142 142
141 141 141
141 141 141
140 140 140
139 139 139
136 136 136
134 134 134
134 134 134
136 136 136
135 135 135
135 135 135
135 135 135
134 134 134
133 133 133
131 131 131
131 131 131
131 131 131
131 131 131
132 132 132
133 133 133
134 134 134
135 135 135
137 137 137
138 138 138
138 138 138
138 138 138
138 138 138
137 137 137
136 136 136
135 135 135
135 135 135
135 135 135
134 134 134
134 134 134
133 133 133
133 133 133
133 133 133
132 132 132
132 132 132
132 132 132
132 132 132
134 134 134
134 134 134
135 135 135
135 135 135
135 135 135
134 134 134
134 134 134
133 133 133
134 134 134
133 133 133
133 133 133
132 132 132
128 128 128
127 127 127
126 126 126
124 124 124
128 128 128
126 126 126
126 126 126
130 130 130
139 139 139
143 143 143
143 143 143
141 141 141
140 140 140
140 140 140
140 140 140
138 138 138
136 136 136
132 132 132
132 132 132
133 133 133
130 130 130
128 128 128
129 129 129
129 129 129
130 130 130
128 128 128
128 128 128
128 128 128
128 128 128
128 128 128
128 128 128
129 129 129
131 131 131
133 133 133
134 134 134
134 134 134
133 133 133
133 133 133
133 133 133
132 132 132
131 131 131
131 131 131
132 132 132
132 132 132
132 132 132
132 132 132
132 132 132
132 132 132
131 131 131
130 130 130
130 130 130
130 130 130
132 132 132
133 133 133
134 134 134
135 135 135
134 134 134
134 134 134
133 133 133
132 132 132
133 133 133
132 132 132
132 132 132
130 130 130
124 124 124
123 123 123
123 123 123
122 122 122
128 128 128
127 127 127
126 126 126
128 128 128
136 136 136
141 141 141
142 142 142
141 141 141
140 140 140
140 140 140
139 139 139
138 138 138
135 135 135
131 131 131
131 131 131
130 130 130
126 126 126
123 123 123
123 123 123
124 124 124
125 125 125
125 125 125
124 124 124
124 124 124
124 124 124
124 124 124
123 123 123
123 123 123
125 125 125
126 126 126
127 127 127
128 128 128
127 127 127
127 127 127
127 127 127
127 127 127
127 127 127
127 127 127
128 128 128
128 128 128
128 128 128
129 129 129
129 129 129
129 129 129
129 129 129
128 128 128
128 128 128
129 129 129
130 130 130
132 132 132
133 133 133
135 135 135
134 134 134
134 134 134
132 132 132
132 132 132
132 132 132
132 132 132
131 131 131
127 127 127
122 122 122
121 121 121
121 121 121
122 122 122
128 128 128
127 127 127
125 125 125
126 126 126
133 133 133
140 140 140
141 141 141
141 141 141
139 139 139
138 138 138
138 138 138
137 137 137
134 134 134
131 131 131
129 129 129
127 127 127
123 123 123
121 121 121
122 122 122
123 123 123
124 124 124
125 125 125
125 125 125
124 124 124
123 123 123
121 121 121
120 120 120
119 119 119
120 120 120
120 120 120
121 121 121
122 122 122
122 122 122
123 123 123
124 124 124
124 124 124
124 124 124
125 125 125
125 125 125
126 126 126
127 127 127
127 127 127
127 127 127
128 128 128
129 129 129
129 129 129
128 128 128
129 129 129
130 130 130
131 131 131
132 132 132
133 133 133
133 133 133
133 133 133
132 132 132
131 131 131
132 132 132
132 132 132
130 130 130
125 125 125
121 121 121
120 120 120
120 120 120
122 122 122
126 126 126
126 126 126
125 125 125
126 126 126
130 130 130
137 137 137
141 141 141
140 140 140
139 139 139
138 138 138
138 138 138
137 137 137
133 133 133
131 131 131
129 129 129
125 125 125
122 122 122
122 122 122
124 124 124
126 126 126
126 126 126
126 126 126
128 128 128
128 128 128
127 127 127
125 125 125
123 123 123
122 122 122
121 121 121
121 121 121
121 121 121
122 122 122
123 123 123
123 123 123
124 124 124
125 125 125
125 125 125
126 126 126
127 127 127
127 127 127
128 128 128
128 128 128
129 129 129
128 128 128
129 129 129
129 129 129
129 129 129
129 129 129
129 129 129
131 131 131
131 131 131
131 131 131
131 131 131
131 131 131
132 132 132
132 132 132
132 132 132
132 132 132
128 128 128
123 123 123
120 120 120
120 120 120
119 119 119
120 120 120
124 124 124
123 123 123
124 124 124
125 125 125
128 128 128
134 134 134
139 139 139
139 139 139
138 138 138
138 138 138
137 137 137
136 136 136
134 134 134
131 131 131
128 128 128
126 126 126
123 123 123
124 124 124
127 127 127
128 128 128
129 129 129
130 130 130
131 131 131
132 132 132
131 131 131
130 130 130
128 128 128
127 127 127
126 126 126
125 125 125
124 124 124
124 124 124
125 125 125
126 126 126
127 127 127
127 127 127
127 127 127
127 127 127
127 127 127
128 128 128
129 129 129
130 130 130
129 129 129
129 129 129
129 129 129
129 129 129
129 129 129
129 129 129
129 129 129
131 131 131
131 131 131
131 131 131
130 130 130
131 131 131
131 131 131
132 132 132
132 132 132
130 130 130
126 126 126
121 121 121
120 120 120
119 119 119
118 118 118
119 119 119
122 122 122
121 121 121
123 123 123
124 124 124
126 126 126
131 131 131
137 137 137
138 138 138
137 137 137
137 137 137
137 137 137
136 136 136
135 135 135
132 132 132
129 129 129
128 128 128
127 127 127
127 127 127
130 130 130
132 132 132
132 132 132
133 133 133
133 133 133
133 133 133
133 133 133
132 132 132
130 130 130
128 128 128
127 127 127
125 125 125
124 124 124
124 124 124
125 125 125
126 126 126
127 127 127
127 127 127
127 127 127
127 127 127
128 128 128
128 128 128
129 129 129
129 129 129
129 129 129
129 129 129
129 129 129
129 129 129
129 129 129
129 129 129
130 130 130
131 131 131
131 131 131
130 130 130
130 130 130
131 131 131
131 131 131
132 132 132
131 131 131
128 128 128
123 123 123
120 120 120
120 120 120
117 117 117
118 118 118
118 118 118
120 120 120
119 119 119
121 121 121
124 124 124
125 125 125
128 128 128
134 134 134
137 137 137
137 137 137
137 137 137
137 137 137
136 136 136
135 135 135
133 133 133
131 131 131
130 130 130
130 130 130
132 132 132
135 135 135
136 136 136
137 137 137
137 137 137
136 136 136
134 134 134
134 134 134
132 132 132
130 130 130
128 128 128
126 126 126
124 124 124
122 122 122
122 122 122
123 123 123
124 124 124
125 125 125
126 126 126
127 127 127
128 128 128
129 129 129
130 130 130
130 130 130
131 131 131
131 131 131
131 131 131
130 130 130
130 130 130
130 130 130
130 130 130
131 131 131
131 131 131
130 130 130
129 129 129
130 130 130
131 131 131
131 131 131
131 131 131
130 130 130
127 127 127
122 122 122
120 120 120
120 120 120
116 116 116
117 117 117
116 116 116
118 118 118
118 118 118
120 120 120
123 123 123
125 125 125
126 126 126
130 130 130
136 136 136
137 137 137
136 136 136
136 136 136
135 135 135
135 135 135
134 134 134
133 133 133
132 132 132
133 133 133
136 136 136
139 139 139
140 140 140
140 140 140
139 139 139
138 138 138
136 136 136
134 134 134
133 133 133
130 130 130
127 127 127
125 125 125
123 123 123
122 122 122
122 122 122
122 122 122
122 122 122
124 124 124
125 125 125
127 127 127
129 129 129
131 131 131
131 131 131
132 132 132
134 134 134
134 134 134
135 135 135
134 134 134
133 133 133
133 133 133
132 132 132
131 131 131
131 131 131
130 130 130
129 129 129
130 130 130
131 131 131
131 131 131
130 130 130
129 129 129
127 127 127
121 121 121
120 120 120
118 118 118
115 115 115
115 115 115
115 115 115
118 118 118
117 117 117
118 118 118
122 122 122
125 125 125
125 125 125
126 126 126
133 133 133
136 136 136
136 136 136
135 135 135
135 135 135
135 135 135
135 135 135
134 134 134
134 134 134
135 135 135
136 136 136
139 139 139
141 141 141
141 141 141
140 140 140
138 138 138
136 136 136
134 134 134
132 132 132
130 130 130
127 127 127
125 125 125
123 123 123
122 122 122
122 122 122
122 122 122
122 122 122
123 123 123
126 126 126
127 127 127
129 129 129
131 131 131
132 132 132
134 134 134
136 136 136
136 136 136
138 138 138
137 137 137
135 135 135
133 133 133
132 132 132
131 131 131
131 131 131
130 130 130
129 129 129
130 130 130
131 131 131
130 130 130
130 130 130
129 129 129
126 126 126
120 120 120
120 120 120
117 117 117
114 114 114
115 115 115
116 116 116
118 118 118
117 117 117
117 117 117
121 121 121
124 124 124
125 125 125
125 125 125
130 130 130
134 134 134
136 136 136
135 135 135
135 135 135
135 135 135
135 135 135
134 134 134
135 135 135
135 135 135
135 135 135
136 136 136
138 138 138
139 139 139
138 138 138
136 136 136
134 134 134
132 132 132
129 129 129
128 128 128
127 127 127
124 124 124
123 123 123
123 123 123
123 123 123
122 122 122
122 122 122
123 123 123
124 124 124
126 126 126
128 128 128
130 130 130
132 132 132
135 135 135
136 136 136
136 136 136
136 136 136
135 135 135
134 134 134
133 133 133
131 131 131
131 131 131
130 130 130
130 130 130
129 129 129
130 130 130
130 130 130
130 130 130
130 130 130
129 129 129
127 127 127
120 120 120
119 119 119
116 116 116
113 113 113
115 115 115
116 116 116
117 117 117
117 117 117
116 116 116
120 120 120
123 123 123
124 124 124
124 124 124
128 128 128
132 132 132
135 135 135
136 136 136
135 135 135
135 135 135
136 136 136
135 135 135
135 135 135
134 134 134
134 134 134
133 133 133
134 134 134
135 135 135
135 135 135
134 134 134
133 133 133
130 130 130
126 126 126
125 125 125
124 124 124
122 122 122
121 121 121
122 122 122
121 121 121
121 121 121
121 121 121
122 122 122
123 123 123
125 125 125
127 127 127
129 129 129
131 131 131
134 134 134
135 135 135
135 135 135
134 134 134
133 133 133
132 132 132
131 131 131
131 131 131
131 131 131
130 130 130
130 130 130
130 130 130
131 131 131
130 130 130
129 129 129
130 130 130
130 130 130
127 127 127
120 120 120
118 118 118
114 114 114
113 113 113
115 115 115
116 116 116
117 117 117
117 117 117
116 116 116
119 119 119
122 122 122
123 123 123
124 124 124
127 127 127
130 130 130
134 134 134
135 135 135
135 135 135
136 136 136
136 136 136
136 136 136
134 134 134
134 134 134
133 133 133
132 132 132
132 132 132
132 132 132
132 132 132
132 132 132
131 131 131
128 128 128
126 126 126
125 125 125
124 124 124
123 123 123
122 122 122
122 122 122
121 121 121
120 120 120
121 121 121
122 122 122
124 124 124
126 126 126
128 128 128
129 129 129
131 131 131
133 133 133
133 133 133
133 133 133
132 132 132
131 131 131
131 131 131
130 130 130
131 131 131
131 131 131
130 130 130
130 130 130
130 130 130
130 130 130
130 130 130
129 129 129
130 130 130
130 130 130
128 128 128
120 120 120
116 116 116
113 113 113
114 114 114
115 115 115
115 115 115
117 117 117
117 117 117
117 117 117
118 118 118
121 121 121
122 122 122
123 123 123
126 126 126
130 130 130
134 134 134
136 136 136
136 136 136
136 136 136
136 136 136
137 137 137
135 135 135
133 133 133
133 133 133
131 131 131
131 131 131
130 130 130
130 130 130
130 130 130
129 129 129
127 127 127
125 125 125
124 124 124
124 124 124
124 124 124
123 123 123
123 123 123
123 123 123
122 122 122
123 123 123
125 125 125
126 126 126
128 128 128
129 129 129
130 130 130
131 131 131
132 132 132
132 132 132
132 132 132
132 132 132
130 130 130
130 130 130
130 130 130
130 130 130
130 130 130
130 130 130
130 130 130
130 130 130
130 130 130
129 129 129
130 130 130
131 131 131
131 131 131
128 128 128
120 120 120
115 115 115
113 113 113
114 114 114
115 115 115
115 115 115
117 117 117
117 117 117
116 116 116
117 117 117
120 120 120
121 121 121
121 121 121
124 124 124
129 129 129
134 134 134
137 137 137
137 137 137
135 135 135
135 135 135
137 137 137
136 136 136
133 133 133
132 132 132
131 131 131
131 131 131
130 130 130
129 129 129
129 129 129
128 128 128
127 127 127
126 126 126
125 125 125
124 124 124
125 125 125
125 125 125
125 125 125
125 125 125
125 125 125
126 126 126
128 128 128
128 128 128
129 129 129
129 129 129
129 129 129
130 130 130
132 132 132
132 132 132
132 132 132
131 131 131
130 130 130
130 130 130
129 129 129
129 129 129
129 129 129
130 130 130
130 130 130
130 130 130
130 130 130
130 130 130
131 131 131
132 132 132
131 131 131
129 129 129
120 120 120
114 114 114
112 112 112
115 115 115
115 115 115
115 115 115
117 117 117
117 117 117
116 116 116
117 117 117
119 119 119
119 119 119
120 120 120
123 123 123
129 129 129
135 135 135
138 138 138
138 138 138
136 136 136
135 135 135
136 136 136
136 136 136
133 133 133
131 131 131
131 131 131
130 130 130
130 130 130
129 129 129
129 129 129
128 128 128
127 127 127
125 125 125
126 126 126
126 126 126
126 126 126
126 126 126
126 126 126
127 127 127
127 127 127
128 128 128
129 129 129
129 129 129
130 130 130
129 129 129
129 129 129
130 130 130
131 131 131
131 131 131
131 131 131
130 130 130
130 130 130
129 129 129
129 129 129
129 129 129
129 129 129
130 130 130
130 130 130
130 130 130
130 130 130
131 131 131
132 132 132
133 133 133
132 132 132
129 129 129
119 119 119
113 113 113
113 113 113
115 115 115
114 114 114
115 115 115
117 117 117
118 118 118
116 116 116
116 116 116
117 117 117
117 117 117
119 119 119
124 124 124
130 130 130
136 136 136
138 138 138
138 138 138
137 137 137
137 137 137
135 135 135
135 135 135
132 132 132
131 131 131
130 130 130
129 129 129
129 129 129
129 129 129
129 129 129
128 128 128
126 126 126
125 125 125
125 125 125
125 125 125
125 125 125
125 125 125
125 125 125
126 126 126
126 126 126
127 127 127
128 128 128
128 128 128
129 129 129
129 129 129
129 129 129
130 130 130
130 130 130
130 130 130
130 130 130
130 130 130
129 129 129
129 129 129
129 129 129
129 129 129
129 129 129
130 130 130
130 130 130
130 130 130
130 130 130
132 132 132
133 133 133
133 133 133
131 131 131
129 129 129
120 120 120
113 113 113
113 113 113
115 115 115
115 115 115
115 115 115
117 117 117
116 116 116
115 115 115
114 114 114
115 115 115
116 116 116
119 119 119
125 125 125
130 130 130
136 136 136
139 139 139
139 139 139
138 138 138
137 137 137
135 135 135
134 134 134
132 132 132
131 131 131
130 130 130
129 129 129
129 129 129
129 129 129
129 129 129
128 128 128
127 127 127
126 126 126
126 126 126
125 125 125
125 125 125
125 125 125
125 125 125
125 125 125
126 126 126
126 126 126
127 127 127
128 128 128
129 129 129
129 129 129
128 128 128
129 129 129
129 129 129
129 129 129
129 129 129
129 129 129
129 129 129
128 128 128
128 128 128
128 128 128
129 129 129
130 130 130
130 130 130
130 130 130
131 131 131
133 133 133
134 134 134
134 134 134
131 131 131
129 129 129
121 121 121
114 114 114
113 113 113
115 115 115
115 115 115
115 115 115
116 116 116
114 114 114
113 113 113
113 113 113
114 114 114
115 115 115
119 119 119
125 125 125
131 131 131
137 137 137
139 139 139
139 139 139
138 138 138
137 137 137
135 135 135
134 134 134
132 132 132
131 131 131
130 130 130
130 130 130
129 129 129
129 129 129
129 129 129
129 129 129
128 128 128
128 128 128
127 127 127
126 126 126
126 126 126
126 126 126
126 126 126
126 126 126
127 127 127
127 127 127
128 128 128
128 128 128
128 128 128
128 128 128
128 128 128
128 128 128
129 129 129
128 128 128
128 128 128
128 128 128
128 128 128
128 128 128
127 127 127
128 128 128
129 129 129
130 130 130
131 131 131
132 132 132
133 133 133
134 134 134
135 135 135
134 134 134
132 132 132
129 129 129
121 121 121
114 114 114
113 113 113
115 115 115
116 116 116
116 116 116
113 113 113
112 112 112
112 112 112
113 113 113
114 114 114
114 114 114
118 118 118
125 125 125
131 131 131
138 138 138
140 140 140
139 139 139
138 138 138
137 137 137
135 135 135
134 134 134
132 132 132
131 131 131
131 131 131
130 130 130
129 129 129
129 129 129
128 128 128
128 128 128
128 128 128
127 127 127
127 127 127
126 126 126
126 126 126
126 126 126
126 126 126
127 127 127
127 127 127
127 127 127
127 127 127
127 127 127
127 127 127
127 127 127
127 127 127
127 127 127
128 128 128
127 127 127
127 127 127
127 127 127
127 127 127
127 127 127
127 127 127
128 128 128
130 130 130
130 130 130
131 131 131
132 132 132
134 134 134
134 134 134
135 135 135
134 134 134
131 131 131
130 130 130
122 122 122
115 115 115
113 113 113
114 114 114
116 116 116
116 116 116
112 112 112
112 112 112
112 112 112
113 113 113
114 114 114
113 113 113
118 118 118
126 126 126
133 133 133
139 139 139
141 141 141
139 139 139
138 138 138
137 137 137
134 134 134
133 133 133
132 132 132
131 131 131
131 131 131
130 130 130
129 129 129
128 128 128
127 127 127
127 127 127
126 126 126
125 125 125
124 124 124
124 124 124
124 124 124
125 125 125
125 125 125
125 125 125
126 126 126
126 126 126
126 126 126
126 126 126
126 126 126
126 126 126
126 126 126
126 126 126
126 126 126
126 126 126
126 126 126
126 126 126
126 126 126
127 127 127
127 127 127
128 128 128
130 130 130
131 131 131
132 132 132
132 132 132
134 134 134
135 135 135
135 135 135
134 134 134
132 132 132
131 131 131
124 124 124
116 116 116
113 113 113
114 114 114
115 115 115
116 116 116
112 112 112
111 111 111
111 111 111
113 113 113
113 113 113
113 113 113
117 117 117
125 125 125
134 134 134
141 141 141
142 142 142
140 140 140
139 139 139
136 136 136
134 134 134
132 132 132
131 131 131
131 131 131
130 130 130
129 129 129
128 128 128
128 128 128
127 127 127
125 125 125
124 124 124
122 122 122
122 122 122
122 122 122
122 122 122
122 122 122
123 123 123
124 124 124
124 124 124
124 124 124
124 124 124
124 124 124
125 125 125
125 125 125
124 124 124
124 124 124
125 125 125
125 125 125
125 125 125
125 125 125
126 126 126
126 126 126
127 127 127
129 129 129
130 130 130
131 131 131
132 132 132
132 132 132
134 134 134
134 134 134
134 134 134
134 134 134
132 132 132
131 131 131
125 125 125
117 117 117
114 114 114
114 114 114
115 115 115
116 116 116
112 112 112
111 111 111
111 111 111
112 112 112
113 113 113
112 112 112
118 118 118
126 126 126
136 136 136
143 143 143
143 143 143
140 140 140
139 139 139
136 136 136
132 132 132
131 131 131
131 131 131
130 130 130
130 130 130
129 129 129
127 127 127
127 127 127
127 127 127
125 125 125
122 122 122
121 121 121
121 121 121
120 120 120
120 120 120
121 121 121
121 121 121
121 121 121
122 122 122
122 122 122
121 121 121
122 122 122
123 123 123
123 123 123
122 122 122
123 123 123
123 123 123
124 124 124
124 124 124
125 125 125
125 125 125
126 126 126
127 127 127
129 129 129
131 131 131
131 131 131
132 132 132
133 133 133
134 134 134
134 134 134
134 134 134
135 135 135
133 133 133
133 133 133
126 126 126
118 118 118
114 114 114
115 115 115
115 115 115
116 116 116
111 111 111
111 111 111
111 111 111
112 112 112
112 112 112
112 112 112
117 117 117
127 127 127
138 138 138
144 144 144
142 142 142
140 140 140
138 138 138
135 135 135
132 132 132
130 130 130
130 130 130
130 130 130
129 129 129
128 128 128
127 127 127
125 125 125
126 126 126
124 124 124
122 122 122
121 121 121
120 120 120
120 120 120
119 119 119
119 119 119
120 120 120
120 120 120
120 120 120
120 120 120
119 119 119
120 120 120
120 120 120
121 121 121
121 121 121
122 122 122
123 123 123
123 123 123
123 123 123
123 123 123
125 125 125
127 127 127
128 128 128
130 130 130
130 130 130
131 131 131
132 132 132
133 133 133
134 134 134
134 134 134
134 134 134
135 135 135
133 133 133
133 133 133
128 128 128
119 119 119
115 115 115
115 115 115
116 116 116
116 116 116
