P3
64 64
255
127 127 127
130 130 130
132 132 132
130 130 130
124 124 124
116 116 116
109 109 109
105 105 105
102 102 102
102 102 102
101 101 101
102 102 102
102 102 102
103 103 103
104 104 104
105 105 105
106 106 106
107 107 107
107 107 107
107 107 107
107 107 107
107 107 107
107 107 107
106 106 106
106 106 106
106 106 106
105 105 105
104 104 104
103 103 103
101 101 101
100 100 100
100 100 100
100 100 100
99 99 99
98 98 98
97 97 97
95 95 95
92 92 92
91 91 91
90 90 90
89 89 89
87 87 87
85 85 85
84 84 84
83 83 83
82 82 82
80 80 80
79 79 79
78 78 78
78 78 78
77 77 77
77 77 77
76 76 76
76 76 76
77 77 77
78 78 78
78 78 78
78 78 78
78 78 78
81 81 81
83 83 83
83 83 83
83 83 83
92 92 92
128 128 128
132 132 132
134 134 134
130 130 130
124 124 124
117 117 117
111 111 111
106 106 106
102 102 102
102 102 102
102 102 102
102 102 102
102 102 102
104 104 104
105 105 105
106 106 106
106 106 106
107 107 107
107 107 107
107 107 107
107 107 107
107 107 107
107 107 107
106 106 106
106 106 106
106 106 106
105 105 105
104 104 104
103 103 103
102 102 102
101 101 101
101 101 101
100 100 100
100 100 100
99 99 99
98 98 98
97 97 97
94 94 94
93 93 93
92 92 92
91 91 91
89 89 89
88 88 88
86 86 86
85 85 85
84 84 84
83 83 83
80 80 80
79 79 79
78 78 78
78 78 78
77 77 77
77 77 77
77 77 77
76 76 76
77 77 77
78 78 78
77 77 77
78 78 78
81 81 81
82 82 82
83 83 83
82 82 82
89 89 89
131 131 131
134 134 134
134 134 134
130 130 130
123 123 123
116 116 116
111 111 111
106 106 106
102 102 102
101 101 101
102 102 102
103 103 103
104 104 104
105 105 105
105 105 105
106 106 106
106 106 106
107 107 107
107 107 107
107 107 107
107 107 107
107 107 107
106 106 106
107 107 107
106 106 106
106 106 106
105 105 105
104 104 104
103 103 103
103 103 103
102 102 102
102 102 102
101 101 101
100 100 100
99 99 99
99 99 99
98 98 98
97 97 97
95 95 95
95 95 95
93 93 93
91 91 91
90 90 90
88 88 88
87 87 87
86 86 86
84 84 84
83 83 83
81 81 81
80 80 80
79 79 79
79 79 79
78 78 78
77 77 77
77 77 77
77 77 77
78 78 78
77 77 77
78 78 78
80 80 80
82 82 82
83 83 83
83 83 83
88 88 88
134 134 134
135 135 135
134 134 134
129 129 129
122 122 122
117 117 117
111 111 111
105 105 105
102 102 102
102 102 102
103 103 103
104 104 104
104 104 104
105 105 105
105 105 105
106 106 106
106 106 106
107 107 107
108 108 108
108 108 108
107 107 107
107 107 107
106 106 106
107 107 107
106 106 106
105 105 105
105 105 105
104 104 104
102 102 102
103 103 103
102 102 102
102 102 102
101 101 101
101 101 101
101 101 101
100 100 100
99 99 99
97 97 97
97 97 97
96 96 96
95 95 95
94 94 94
92 92 92
91 91 91
89 89 89
88 88 88
87 87 87
85 85 85
84 84 84
84 84 84
82 82 82
81 81 81
80 80 80
79 79 79
79 79 79
78 78 78
79 79 79
78 78 78
79 79 79
80 80 80
82 82 82
83 83 83
84 84 84
87 87 87
136 136 136
137 137 137
135 135 135
129 129 129
122 122 122
117 117 117
112 112 112
105 105 105
102 102 102
103 103 103
104 104 104
104 104 104
104 104 104
105 105 105
106 106 106
107 107 107
107 107 107
108 108 108
108 108 108
108 108 108
107 107 107
107 107 107
107 107 107
106 106 106
105 105 105
105 105 105
104 104 104
104 104 104
102 102 102
101 101 101
102 102 102
102 102 102
101 101 101
101 101 101
102 102 102
100 100 100
99 99 99
98 98 98
98 98 98
97 97 97
97 97 97
97 97 97
96 96 96
94 94 94
93 93 93
93 93 93
91 91 91
90 90 90
88 88 88
87 87 87
86 86 86
85 85 85
83 83 83
82 82 82
81 81 81
80 80 80
80 80 80
80 80 80
80 80 80
80 80 80
82 82 82
83 83 83
84 84 84
87 87 87
138 138 138
139 139 139
136 136 136
129 129 129
121 121 121
117 117 117
112 112 112
105 105 105
103 103 103
104 104 104
104 104 104
103 103 103
105 105 105
106 106 106
107 107 107
107 107 107
108 108 108
108 108 108
108 108 108
107 107 107
106 106 106
106 106 106
105 105 105
105 105 105
104 104 104
104 104 104
104 104 104
103 103 103
102 102 102
101 101 101
101 101 101
101 101 101
100 100 100
101 101 101
102 102 102
101 101 101
100 100 100
99 99 99
99 99 99
99 99 99
99 99 99
100 100 100
99 99 99
98 98 98
96 96 96
96 96 96
95 95 95
94 94 94
91 91 91
91 91 91
90 90 90
89 89 89
88 88 88
86 86 86
85 85 85
84 84 84
83 83 83
82 82 82
81 81 81
81 81 81
83 83 83
83 83 83
84 84 84
87 87 87
138 138 138
139 139 139
135 135 135
128 128 128
121 121 121
117 117 117
112 112 112
106 106 106
104 104 104
105 105 105
105 105 105
105 105 105
106 106 106
107 107 107
108 108 108
108 108 108
108 108 108
107 107 107
106 106 106
106 106 106
105 105 105
105 105 105
104 104 104
104 104 104
102 102 102
103 103 103
102 102 102
102 102 102
100 100 100
100 100 100
100 100 100
100 100 100
100 100 100
100 100 100
101 101 101
101 101 101
100 100 100
100 100 100
100 100 100
99 99 99
100 100 100
100 100 100
101 101 101
101 101 101
99 99 99
98 98 98
97 97 97
96 96 96
95 95 95
94 94 94
93 93 93
92 92 92
93 93 93
94 94 94
89 89 89
87 87 87
87 87 87
87 87 87
85 85 85
84 84 84
84 84 84
84 84 84
85 85 85
86 86 86
137 137 137
138 138 138
134 134 134
127 127 127
119 119 119
116 116 116
111 111 111
105 105 105
106 106 106
107 107 107
107 107 107
106 106 106
106 106 106
106 106 106
107 107 107
107 107 107
107 107 107
106 106 106
106 106 106
105 105 105
105 105 105
104 104 104
103 103 103
102 102 102
101 101 101
101 101 101
99 99 99
98 98 98
98 98 98
99 99 99
100 100 100
100 100 100
100 100 100
100 100 100
101 101 101
101 101 101
101 101 101
101 101 101
99 99 99
100 100 100
100 100 100
100 100 100
101 101 101
103 103 103
102 102 102
100 100 100
100 100 100
99 99 99
98 98 98
98 98 98
97 97 97
94 94 94
96 96 96
99 99 99
96 96 96
91 91 91
90 90 90
91 91 91
91 91 91
89 89 89
87 87 87
86 86 86
86 86 86
87 87 87
136 136 136
136 136 136
133 133 133
125 125 125
117 117 117
114 114 114
110 110 110
107 107 107
108 108 108
109 109 109
109 109 109
108 108 108
107 107 107
108 108 108
107 107 107
107 107 107
105 105 105
106 106 106
107 107 107
106 106 106
105 105 105
105 105 105
103 103 103
102 102 102
101 101 101
100 100 100
98 98 98
98 98 98
98 98 98
99 99 99
99 99 99
100 100 100
99 99 99
100 100 100
101 101 101
101 101 101
103 103 103
102 102 102
99 99 99
101 101 101
102 102 102
102 102 102
103 103 103
106 106 106
105 105 105
104 104 104
104 104 104
99 99 99
99 99 99
99 99 99
99 99 99
95 95 95
94 94 94
98 98 98
101 101 101
98 98 98
94 94 94
93 93 93
95 95 95
95 95 95
92 92 92
90 90 90
89 89 89
89 89 89
135 135 135
136 136 136
133 133 133
125 125 125
116 116 116
112 112 112
109 109 109
109 109 109
111 111 111
112 112 112
111 111 111
109 109 109
107 107 107
106 106 106
106 106 106
105 105 105
103 103 103
104 104 104
105 105 105
104 104 104
103 103 103
103 103 103
102 102 102
101 101 101
99 99 99
99 99 99
99 99 99
96 96 96
98 98 98
99 99 99
99 99 99
100 100 100
100 100 100
100 100 100
101 101 101
104 104 104
106 106 106
105 105 105
99 99 99
100 100 100
104 104 104
101 101 101
102 102 102
108 108 108
108 108 108
108 108 108
107 107 107
94 94 94
93 93 93
94 94 94
96 96 96
96 96 96
93 93 93
94 94 94
98 98 98
101 101 101
99 99 99
95 95 95
93 93 93
96 96 96
96 96 96
94 94 94
91 91 91
92 92 92
135 135 135
136 136 136
132 132 132
124 124 124
115 115 115
110 110 110
108 108 108
110 110 110
112 112 112
112 112 112
110 110 110
107 107 107
106 106 106
106 106 106
104 104 104
103 103 103
102 102 102
103 103 103
104 104 104
103 103 103
102 102 102
102 102 102
102 102 102
100 100 100
97 97 97
97 97 97
93 93 93
95 95 95
98 98 98
100 100 100
101 101 101
101 101 101
101 101 101
100 100 100
102 102 102
105 105 105
110 110 110
109 109 109
105 105 105
103 103 103
104 104 104
106 106 106
108 108 108
110 110 110
109 109 109
108 108 108
106 106 106
99 99 99
91 91 91
87 87 87
87 87 87
86 86 86
86 86 86
87 87 87
89 89 89
91 91 91
93 93 93
98 98 98
94 94 94
95 95 95
97 97 97
96 96 96
94 94 94
93 93 93
135 135 135
136 136 136
131 131 131
124 124 124
113 113 113
110 110 110
109 109 109
110 110 110
112 112 112
112 112 112
110 110 110
107 107 107
105 105 105
103 103 103
102 102 102
101 101 101
99 99 99
100 100 100
99 99 99
100 100 100
98 98 98
100 100 100
100 100 100
96 96 96
91 91 91
94 94 94
93 93 93
87 87 87
91 91 91
98 98 98
99 99 99
98 98 98
97 97 97
99 99 99
101 101 101
106 106 106
109 109 109
109 109 109
109 109 109
109 109 109
110 110 110
111 111 111
110 110 110
109 109 109
108 108 108
107 107 107
104 104 104
101 101 101
89 89 89
86 86 86
86 86 86
87 87 87
88 88 88
90 90 90
92 92 92
93 93 93
90 90 90
88 88 88
96 96 96
95 95 95
96 96 96
96 96 96
96 96 96
94 94 94
138 138 138
137 137 137
129 129 129
121 121 121
112 112 112
110 110 110
109 109 109
109 109 109
111 111 111
109 109 109
106 106 106
103 103 103
100 100 100
98 98 98
99 99 99
98 98 98
99 99 99
101 101 101
101 101 101
102 102 102
100 100 100
100 100 100
99 99 99
96 96 96
89 89 89
87 87 87
88 88 88
89 89 89
89 89 89
96 96 96
98 98 98
97 97 97
96 96 96
97 97 97
99 99 99
103 103 103
108 108 108
110 110 110
112 112 112
111 111 111
110 110 110
109 109 109
108 108 108
105 105 105
104 104 104
101 101 101
98 98 98
92 92 92
82 82 82
83 83 83
85 85 85
86 86 86
91 91 91
98 98 98
102 102 102
104 104 104
101 101 101
95 95 95
95 95 95
95 95 95
95 95 95
95 95 95
96 96 96
95 95 95
140 140 140
137 137 137
128 128 128
122 122 122
114 114 114
112 112 112
108 108 108
106 106 106
104 104 104
104 104 104
106 106 106
105 105 105
103 103 103
102 102 102
101 101 101
99 99 99
97 97 97
98 98 98
97 97 97
98 98 98
97 97 97
98 98 98
99 99 99
99 99 99
95 95 95
90 90 90
89 89 89
91 91 91
91 91 91
95 95 95
97 97 97
98 98 98
97 97 97
99 99 99
99 99 99
103 103 103
108 108 108
110 110 110
111 111 111
110 110 110
108 108 108
107 107 107
105 105 105
103 103 103
101 101 101
98 98 98
95 95 95
91 91 91
80 80 80
80 80 80
81 81 81
83 83 83
87 87 87
96 96 96
102 102 102
108 108 108
108 108 108
101 101 101
95 95 95
95 95 95
96 96 96
95 95 95
95 95 95
95 95 95
141 141 141
130 130 130
122 122 122
122 122 122
118 118 118
113 113 113
106 106 106
102 102 102
101 101 101
103 103 103
110 110 110
111 111 111
107 107 107
104 104 104
102 102 102
99 99 99
97 97 97
96 96 96
94 94 94
95 95 95
96 96 96
100 100 100
103 103 103
106 106 106
105 105 105
101 101 101
97 97 97
91 91 91
92 92 92
92 92 92
96 96 96
97 97 97
98 98 98
99 99 99
103 103 103
107 107 107
109 109 109
110 110 110
110 110 110
108 108 108
106 106 106
104 104 104
102 102 102
101 101 101
101 101 101
100 100 100
98 98 98
97 97 97
91 91 91
87 87 87
87 87 87
88 88 88
94 94 94
98 98 98
101 101 101
106 106 106
108 108 108
103 103 103
97 97 97
95 95 95
95 95 95
94 94 94
96 96 96
96 96 96
140 140 140
131 131 131
128 128 128
126 126 126
119 119 119
114 114 114
104 104 104
99 99 99
99 99 99
102 102 102
108 108 108
109 109 109
106 106 106
103 103 103
101 101 101
99 99 99
101 101 101
99 99 99
97 97 97
97 97 97
97 97 97
100 100 100
102 102 102
104 104 104
106 106 106
105 105 105
101 101 101
95 95 95
94 94 94
95 95 95
99 99 99
100 100 100
100 100 100
102 102 102
106 106 106
109 109 109
110 110 110
110 110 110
108 108 108
102 102 102
102 102 102
98 98 98
96 96 96
97 97 97
98 98 98
103 103 103
107 107 107
105 105 105
102 102 102
97 97 97
96 96 96
95 95 95
98 98 98
102 102 102
100 100 100
103 103 103
105 105 105
104 104 104
99 99 99
96 96 96
90 90 90
90 90 90
98 98 98
97 97 97
139 139 139
135 135 135
132 132 132
124 124 124
116 116 116
112 112 112
104 104 104
98 98 98
97 97 97
99 99 99
102 102 102
104 104 104
102 102 102
99 99 99
99 99 99
99 99 99
103 103 103
103 103 103
100 100 100
99 99 99
99 99 99
99 99 99
99 99 99
99 99 99
101 101 101
103 103 103
102 102 102
99 99 99
95 95 95
96 96 96
99 99 99
99 99 99
100 100 100
102 102 102
106 106 106
107 107 107
110 110 110
109 109 109
105 105 105
96 96 96
97 97 97
94 94 94
93 93 93
93 93 93
93 93 93
96 96 96
103 103 103
105 105 105
105 105 105
102 102 102
103 103 103
102 102 102
98 98 98
98 98 98
99 99 99
98 98 98
98 98 98
102 102 102
101 101 101
99 99 99
95 95 95
93 93 93
93 93 93
98 98 98
137 137 137
135 135 135
132 132 132
124 124 124
117 117 117
113 113 113
107 107 107
100 100 100
98 98 98
97 97 97
95 95 95
96 96 96
96 96 96
96 96 96
98 98 98
97 97 97
101 101 101
102 102 102
100 100 100
100 100 100
100 100 100
99 99 99
98 98 98
97 97 97
99 99 99
101 101 101
102 102 102
101 101 101
95 95 95
97 97 97
100 100 100
101 101 101
101 101 101
103 103 103
106 106 106
107 107 107
110 110 110
108 108 108
102 102 102
97 97 97
95 95 95
94 94 94
95 95 95
93 93 93
94 94 94
95 95 95
98 98 98
100 100 100
99 99 99
98 98 98
100 100 100
103 103 103
103 103 103
97 97 97
93 93 93
93 93 93
92 92 92
95 95 95
100 100 100
100 100 100
100 100 100
99 99 99
101 101 101
100 100 100
137 137 137
137 137 137
135 135 135
125 125 125
116 116 116
113 113 113
105 105 105
96 96 96
94 94 94
94 94 94
93 93 93
94 94 94
95 95 95
97 97 97
100 100 100
102 102 102
103 103 103
103 103 103
102 102 102
102 102 102
100 100 100
98 98 98
97 97 97
98 98 98
97 97 97
98 98 98
107 107 107
102 102 102
96 96 96
97 97 97
100 100 100
101 101 101
102 102 102
103 103 103
106 106 106
107 107 107
110 110 110
107 107 107
101 101 101
99 99 99
95 95 95
95 95 95
95 95 95
94 94 94
95 95 95
95 95 95
96 96 96
97 97 97
96 96 96
95 95 95
98 98 98
101 101 101
103 103 103
97 97 97
92 92 92
90 90 90
91 91 91
94 94 94
98 98 98
99 99 99
99 99 99
96 96 96
99 99 99
103 103 103
133 133 133
136 136 136
139 139 139
130 130 130
117 117 117
111 111 111
101 101 101
96 96 96
94 94 94
94 94 94
95 95 95
96 96 96
97 97 97
99 99 99
103 103 103
105 105 105
106 106 106
104 104 104
102 102 102
101 101 101
99 99 99
98 98 98
97 97 97
99 99 99
98 98 98
101 101 101
110 110 110
103 103 103
97 97 97
98 98 98
100 100 100
103 103 103
104 104 104
104 104 104
105 105 105
107 107 107
110 110 110
108 108 108
101 101 101
97 97 97
96 96 96
93 93 93
94 94 94
95 95 95
95 95 95
95 95 95
97 97 97
98 98 98
98 98 98
97 97 97
97 97 97
100 100 100
100 100 100
96 96 96
92 92 92
91 91 91
90 90 90
92 92 92
97 97 97
100 100 100
100 100 100
98 98 98
100 100 100
103 103 103
123 123 123
129 129 129
135 135 135
130 130 130
118 118 118
112 112 112
105 105 105
99 99 99
98 98 98
98 98 98
98 98 98
97 97 97
97 97 97
100 100 100
104 104 104
105 105 105
105 105 105
104 104 104
102 102 102
100 100 100
98 98 98
97 97 97
95 95 95
95 95 95
98 98 98
107 107 107
110 110 110
102 102 102
97 97 97
98 98 98
101 101 101
103 103 103
104 104 104
104 104 104
105 105 105
106 106 106
109 109 109
108 108 108
102 102 102
96 96 96
95 95 95
93 93 93
92 92 92
93 93 93
94 94 94
94 94 94
95 95 95
97 97 97
98 98 98
98 98 98
99 99 99
99 99 99
100 100 100
98 98 98
94 94 94
92 92 92
93 93 93
93 93 93
96 96 96
100 100 100
99 99 99
98 98 98
100 100 100
103 103 103
114 114 114
124 124 124
131 131 131
126 126 126
119 119 119
113 113 113
106 106 106
100 100 100
99 99 99
100 100 100
100 100 100
98 98 98
97 97 97
98 98 98
100 100 100
101 101 101
101 101 101
100 100 100
98 98 98
98 98 98
96 96 96
95 95 95
94 94 94
95 95 95
102 102 102
110 110 110
108 108 108
101 101 101
98 98 98
100 100 100
102 102 102
104 104 104
103 103 103
104 104 104
105 105 105
106 106 106
107 107 107
108 108 108
105 105 105
99 99 99
95 95 95
94 94 94
93 93 93
93 93 93
92 92 92
93 93 93
93 93 93
95 95 95
96 96 96
97 97 97
97 97 97
98 98 98
99 99 99
98 98 98
97 97 97
94 94 94
94 94 94
93 93 93
95 95 95
100 100 100
100 100 100
99 99 99
100 100 100
101 101 101
115 115 115
126 126 126
130 130 130
123 123 123
116 116 116
111 111 111
106 106 106
101 101 101
100 100 100
101 101 101
102 102 102
102 102 102
102 102 102
101 101 101
100 100 100
101 101 101
101 101 101
100 100 100
99 99 99
98 98 98
97 97 97
97 97 97
97 97 97
100 100 100
105 105 105
109 109 109
106 106 106
101 101 101
100 100 100
102 102 102
103 103 103
103 103 103
102 102 102
103 103 103
105 105 105
106 106 106
108 108 108
108 108 108
107 107 107
104 104 104
98 98 98
96 96 96
94 94 94
95 95 95
94 94 94
93 93 93
92 92 92
93 93 93
94 94 94
94 94 94
95 95 95
97 97 97
98 98 98
98 98 98
97 97 97
95 95 95
95 95 95
94 94 94
96 96 96
100 100 100
99 99 99
99 99 99
99 99 99
99 99 99
118 118 118
128 128 128
129 129 129
121 121 121
114 114 114
111 111 111
108 108 108
104 104 104
102 102 102
103 103 103
103 103 103
104 104 104
105 105 105
106 106 106
106 106 106
106 106 106
106 106 106
104 104 104
102 102 102
101 101 101
101 101 101
102 102 102
103 103 103
104 104 104
104 104 104
107 107 107
105 105 105
102 102 102
102 102 102
104 104 104
104 104 104
102 102 102
101 101 101
103 103 103
104 104 104
105 105 105
107 107 107
108 108 108
105 105 105
105 105 105
103 103 103
99 99 99
97 97 97
97 97 97
96 96 96
96 96 96
96 96 96
96 96 96
96 96 96
96 96 96
96 96 96
97 97 97
98 98 98
99 99 99
98 98 98
97 97 97
97 97 97
96 96 96
98 98 98
100 100 100
98 98 98
98 98 98
98 98 98
99 99 99
119 119 119
127 127 127
126 126 126
118 118 118
113 113 113
110 110 110
108 108 108
106 106 106
104 104 104
103 103 103
103 103 103
105 105 105
107 107 107
108 108 108
108 108 108
108 108 108
107 107 107
106 106 106
105 105 105
105 105 105
106 106 106
108 108 108
105 105 105
102 102 102
104 104 104
107 107 107
105 105 105
102 102 102
102 102 102
105 105 105
104 104 104
102 102 102
102 102 102
104 104 104
104 104 104
105 105 105
107 107 107
109 109 109
106 106 106
102 102 102
105 105 105
103 103 103
99 99 99
99 99 99
99 99 99
99 99 99
98 98 98
99 99 99
99 99 99
99 99 99
99 99 99
99 99 99
100 100 100
100 100 100
100 100 100
98 98 98
97 97 97
98 98 98
101 101 101
100 100 100
97 97 97
98 98 98
99 99 99
100 100 100
120 120 120
127 127 127
123 123 123
116 116 116
113 113 113
110 110 110
108 108 108
106 106 106
105 105 105
107 107 107
106 106 106
107 107 107
107 107 107
108 108 108
109 109 109
109 109 109
108 108 108
109 109 109
109 109 109
110 110 110
110 110 110
107 107 107
103 103 103
104 104 104
105 105 105
106 106 106
103 103 103
101 101 101
102 102 102
105 105 105
104 104 104
102 102 102
101 101 101
103 103 103
104 104 104
105 105 105
107 107 107
109 109 109
107 107 107
103 103 103
103 103 103
103 103 103
103 103 103
102 102 102
102 102 102
101 101 101
100 100 100
99 99 99
99 99 99
100 100 100
100 100 100
100 100 100
102 102 102
102 102 102
101 101 101
100 100 100
100 100 100
100 100 100
101 101 101
99 99 99
98 98 98
99 99 99
100 100 100
100 100 100
121 121 121
125 125 125
122 122 122
117 117 117
112 112 112
110 110 110
108 108 108
106 106 106
106 106 106
106 106 106
106 106 106
107 107 107
109 109 109
110 110 110
110 110 110
111 111 111
110 110 110
110 110 110
110 110 110
110 110 110
109 109 109
107 107 107
106 106 106
106 106 106
106 106 106
105 105 105
102 102 102
100 100 100
102 102 102
104 104 104
104 104 104
101 101 101
100 100 100
101 101 101
103 103 103
104 104 104
105 105 105
109 109 109
108 108 108
105 105 105
104 104 104
101 101 101
100 100 100
104 104 104
106 106 106
105 105 105
103 103 103
102 102 102
102 102 102
102 102 102
102 102 102
103 103 103
104 104 104
105 105 105
104 104 104
103 103 103
102 102 102
100 100 100
99 99 99
98 98 98
98 98 98
100 100 100
101 101 101
100 100 100
122 122 122
125 125 125
122 122 122
116 116 116
112 112 112
109 109 109
108 108 108
107 107 107
106 106 106
106 106 106
106 106 106
106 106 106
107 107 107
108 108 108
109 109 109
109 109 109
110 110 110
110 110 110
110 110 110
110 110 110
110 110 110
109 109 109
109 109 109
108 108 108
106 106 106
106 106 106
104 104 104
100 100 100
102 102 102
104 104 104
104 104 104
103 103 103
102 102 102
101 101 101
102 102 102
104 104 104
106 106 106
108 108 108
107 107 107
106 106 106
106 106 106
103 103 103
100 100 100
101 101 101
103 103 103
105 105 105
105 105 105
105 105 105
106 106 106
106 106 106
106 106 106
106 106 106
107 107 107
107 107 107
106 106 106
104 104 104
101 101 101
98 98 98
97 97 97
98 98 98
98 98 98
102 102 102
102 102 102
99 99 99
123 123 123
124 124 124
120 120 120
114 114 114
111 111 111
110 110 110
108 108 108
107 107 107
107 107 107
107 107 107
108 108 108
109 109 109
110 110 110
111 111 111
111 111 111
112 112 112
112 112 112
112 112 112
111 111 111
111 111 111
110 110 110
110 110 110
111 111 111
108 108 108
107 107 107
110 110 110
108 108 108
103 103 103
102 102 102
103 103 103
104 104 104
105 105 105
104 104 104
103 103 103
104 104 104
107 107 107
109 109 109
108 108 108
105 105 105
103 103 103
106 106 106
105 105 105
102 102 102
102 102 102
103 103 103
104 104 104
105 105 105
106 106 106
106 106 106
107 107 107
106 106 106
107 107 107
107 107 107
107 107 107
106 106 106
104 104 104
101 101 101
99 99 99
98 98 98
98 98 98
99 99 99
103 103 103
103 103 103
99 99 99
124 124 124
123 123 123
117 117 117
112 112 112
111 111 111
111 111 111
109 109 109
108 108 108
108 108 108
109 109 109
110 110 110
112 112 112
112 112 112
113 113 113
112 112 112
112 112 112
112 112 112
111 111 111
111 111 111
111 111 111
111 111 111
111 111 111
112 112 112
108 108 108
110 110 110
115 115 115
115 115 115
108 108 108
101 101 101
102 102 102
106 106 106
108 108 108
108 108 108
107 107 107
109 109 109
113 113 113
115 115 115
111 111 111
105 105 105
100 100 100
102 102 102
103 103 103
103 103 103
104 104 104
104 104 104
106 106 106
107 107 107
107 107 107
107 107 107
108 108 108
108 108 108
108 108 108
108 108 108
108 108 108
106 106 106
104 104 104
102 102 102
99 99 99
98 98 98
98 98 98
100 100 100
103 103 103
103 103 103
101 101 101
126 126 126
122 122 122
117 117 117
112 112 112
113 113 113
113 113 113
111 111 111
109 109 109
108 108 108
109 109 109
111 111 111
111 111 111
112 112 112
112 112 112
111 111 111
111 111 111
111 111 111
111 111 111
111 111 111
112 112 112
113 113 113
113 113 113
114 114 114
111 111 111
113 113 113
119 119 119
122 122 122
113 113 113
101 101 101
101 101 101
109 109 109
112 112 112
112 112 112
110 110 110
113 113 113
119 119 119
120 120 120
115 115 115
107 107 107
100 100 100
99 99 99
99 99 99
101 101 101
104 104 104
105 105 105
107 107 107
108 108 108
108 108 108
109 109 109
109 109 109
109 109 109
109 109 109
110 110 110
108 108 108
107 107 107
105 105 105
102 102 102
100 100 100
99 99 99
99 99 99
101 101 101
104 104 104
103 103 103
103 103 103
129 129 129
123 123 123
118 118 118
113 113 113
114 114 114
114 114 114
113 113 113
110 110 110
109 109 109
110 110 110
111 111 111
111 111 111
111 111 111
111 111 111
110 110 110
110 110 110
110 110 110
111 111 111
112 112 112
113 113 113
113 113 113
113 113 113
115 115 115
115 115 115
114 114 114
118 118 118
122 122 122
112 112 112
100 100 100
102 102 102
112 112 112
118 118 118
115 115 115
112 112 112
112 112 112
118 118 118
121 121 121
117 117 117
110 110 110
102 102 102
100 100 100
99 99 99
98 98 98
101 101 101
103 103 103
105 105 105
107 107 107
107 107 107
108 108 108
109 109 109
110 110 110
109 109 109
109 109 109
108 108 108
107 107 107
105 105 105
102 102 102
101 101 101
100 100 100
101 101 101
101 101 101
105 105 105
105 105 105
104 104 104
133 133 133
126 126 126
119 119 119
114 114 114
114 114 114
115 115 115
114 114 114
111 111 111
110 110 110
110 110 110
110 110 110
110 110 110
109 109 109
110 110 110
109 109 109
109 109 109
110 110 110
111 111 111
112 112 112
112 112 112
111 111 111
110 110 110
113 113 113
114 114 114
115 115 115
116 116 116
115 115 115
109 109 109
104 104 104
108 108 108
118 118 118
122 122 122
118 118 118
112 112 112
111 111 111
116 116 116
120 120 120
118 118 118
112 112 112
104 104 104
101 101 101
99 99 99
97 97 97
98 98 98
100 100 100
102 102 102
104 104 104
105 105 105
106 106 106
107 107 107
107 107 107
107 107 107
107 107 107
106 106 106
105 105 105
104 104 104
102 102 102
102 102 102
102 102 102
102 102 102
102 102 102
106 106 106
110 110 110
105 105 105
135 135 135
129 129 129
121 121 121
116 116 116
115 115 115
115 115 115
114 114 114
113 113 113
112 112 112
111 111 111
110 110 110
109 109 109
109 109 109
109 109 109
109 109 109
109 109 109
110 110 110
112 112 112
112 112 112
111 111 111
108 108 108
105 105 105
108 108 108
111 111 111
112 112 112
113 113 113
112 112 112
108 108 108
109 109 109
116 116 116
123 123 123
124 124 124
118 118 118
111 111 111
110 110 110
112 112 112
115 115 115
114 114 114
110 110 110
105 105 105
101 101 101
100 100 100
97 97 97
96 96 96
97 97 97
99 99 99
103 103 103
104 104 104
104 104 104
105 105 105
105 105 105
105 105 105
105 105 105
104 104 104
104 104 104
104 104 104
103 103 103
103 103 103
104 104 104
103 103 103
104 104 104
108 108 108
110 110 110
104 104 104
136 136 136
132 132 132
124 124 124
118 118 118
116 116 116
116 116 116
116 116 116
114 114 114
112 112 112
111 111 111
110 110 110
109 109 109
109 109 109
109 109 109
109 109 109
109 109 109
111 111 111
111 111 111
109 109 109
107 107 107
104 104 104
103 103 103
105 105 105
108 108 108
111 111 111
111 111 111
109 109 109
109 109 109
114 114 114
121 121 121
123 123 123
121 121 121
116 116 116
111 111 111
109 109 109
108 108 108
108 108 108
109 109 109
107 107 107
104 104 104
103 103 103
100 100 100
97 97 97
95 95 95
95 95 95
98 98 98
100 100 100
103 103 103
104 104 104
104 104 104
103 103 103
103 103 103
103 103 103
104 104 104
103 103 103
103 103 103
104 104 104
104 104 104
105 105 105
105 105 105
106 106 106
109 109 109
108 108 108
103 103 103
134 134 134
134 134 134
128 128 128
118 118 118
116 116 116
115 115 115
115 115 115
115 115 115
113 113 113
112 112 112
109 109 109
109 109 109
109 109 109
109 109 109
109 109 109
110 110 110
110 110 110
109 109 109
106 106 106
104 104 104
103 103 103
104 104 104
105 105 105
106 106 106
109 109 109
111 111 111
110 110 110
113 113 113
118 118 118
121 121 121
121 121 121
117 117 117
111 111 111
108 108 108
108 108 108
106 106 106
106 106 106
107 107 107
106 106 106
106 106 106
105 105 105
103 103 103
98 98 98
95 95 95
96 96 96
98 98 98
98 98 98
101 101 101
104 104 104
105 105 105
104 104 104
103 103 103
103 103 103
103 103 103
104 104 104
104 104 104
104 104 104
106 106 106
106 106 106
107 107 107
108 108 108
109 109 109
107 107 107
101 101 101
133 133 133
135 135 135
129 129 129
120 120 120
115 115 115
115 115 115
114 114 114
114 114 114
113 113 113
111 111 111
109 109 109
109 109 109
109 109 109
109 109 109
110 110 110
109 109 109
109 109 109
107 107 107
103 103 103
102 102 102
103 103 103
105 105 105
108 108 108
108 108 108
109 109 109
110 110 110
111 111 111
117 117 117
120 120 120
120 120 120
117 117 117
114 114 114
109 109 109
107 107 107
107 107 107
107 107 107
107 107 107
105 105 105
105 105 105
106 106 106
106 106 106
103 103 103
99 99 99
96 96 96
96 96 96
98 98 98
99 99 99
99 99 99
102 102 102
105 105 105
105 105 105
104 104 104
103 103 103
104 104 104
104 104 104
104 104 104
106 106 106
107 107 107
108 108 108
109 109 109
110 110 110
109 109 109
106 106 106
102 102 102
131 131 131
134 134 134
128 128 128
121 121 121
115 115 115
114 114 114
113 113 113
113 113 113
113 113 113
111 111 111
108 108 108
108 108 108
108 108 108
109 109 109
108 108 108
108 108 108
107 107 107
105 105 105
104 104 104
104 104 104
105 105 105
106 106 106
110 110 110
112 112 112
112 112 112
110 110 110
112 112 112
117 117 117
120 120 120
118 118 118
116 116 116
114 114 114
111 111 111
110 110 110
109 109 109
107 107 107
107 107 107
107 107 107
106 106 106
106 106 106
105 105 105
103 103 103
100 100 100
97 97 97
97 97 97
98 98 98
100 100 100
99 99 99
100 100 100
103 103 103
105 105 105
105 105 105
105 105 105
105 105 105
105 105 105
106 106 106
107 107 107
108 108 108
109 109 109
110 110 110
110 110 110
109 109 109
105 105 105
101 101 101
130 130 130
133 133 133
130 130 130
123 123 123
116 116 116
115 115 115
113 113 113
112 112 112
112 112 112
110 110 110
108 108 108
107 107 107
108 108 108
108 108 108
107 107 107
106 106 106
106 106 106
107 107 107
105 105 105
105 105 105
106 106 106
108 108 108
111 111 111
114 114 114
115 115 115
113 113 113
113 113 113
115 115 115
117 117 117
115 115 115
114 114 114
114 114 114
111 111 111
111 111 111
109 109 109
107 107 107
107 107 107
107 107 107
106 106 106
105 105 105
105 105 105
103 103 103
101 101 101
99 99 99
97 97 97
99 99 99
99 99 99
100 100 100
99 99 99
101 101 101
103 103 103
103 103 103
104 104 104
106 106 106
106 106 106
107 107 107
108 108 108
109 109 109
110 110 110
111 111 111
111 111 111
109 109 109
105 105 105
103 103 103
131 131 131
132 132 132
132 132 132
126 126 126
116 116 116
114 114 114
114 114 114
112 112 112
112 112 112
110 110 110
108 108 108
107 107 107
107 107 107
107 107 107
106 106 106
107 107 107
109 109 109
109 109 109
108 108 108
108 108 108
110 110 110
111 111 111
114 114 114
115 115 115
116 116 116
116 116 116
114 114 114
115 115 115
116 116 116
114 114 114
112 112 112
113 113 113
110 110 110
108 108 108
107 107 107
106 106 106
106 106 106
106 106 106
105 105 105
105 105 105
105 105 105
104 104 104
103 103 103
101 101 101
100 100 100
101 101 101
99 99 99
100 100 100
100 100 100
100 100 100
102 102 102
102 102 102
102 102 102
104 104 104
107 107 107
108 108 108
110 110 110
109 109 109
111 111 111
112 112 112
113 113 113
111 111 111
108 108 108
108 108 108
131 131 131
132 132 132
132 132 132
128 128 128
118 118 118
114 114 114
115 115 115
113 113 113
112 112 112
112 112 112
109 109 109
107 107 107
107 107 107
105 105 105
104 104 104
109 109 109
112 112 112
112 112 112
113 113 113
114 114 114
115 115 115
116 116 116
117 117 117
117 117 117
118 118 118
118 118 118
116 116 116
116 116 116
115 115 115
112 112 112
111 111 111
111 111 111
108 108 108
107 107 107
105 105 105
106 106 106
106 106 106
105 105 105
105 105 105
105 105 105
105 105 105
105 105 105
104 104 104
103 103 103
104 104 104
104 104 104
102 102 102
101 101 101
100 100 100
100 100 100
101 101 101
102 102 102
102 102 102
103 103 103
107 107 107
109 109 109
109 109 109
110 110 110
111 111 111
113 113 113
117 117 117
115 115 115
113 113 113
114 114 114
132 132 132
133 133 133
133 133 133
130 130 130
121 121 121
115 115 115
115 115 115
114 114 114
113 113 113
112 112 112
110 110 110
107 107 107
105 105 105
103 103 103
104 104 104
110 110 110
115 115 115
116 116 116
118 118 118
120 120 120
120 120 120
119 119 119
120 120 120
120 120 120
120 120 120
120 120 120
119 119 119
118 118 118
115 115 115
111 111 111
109 109 109
107 107 107
107 107 107
107 107 107
106 106 106
106 106 106
107 107 107
106 106 106
106 106 106
105 105 105
106 106 106
106 106 106
105 105 105
105 105 105
106 106 106
107 107 107
106 106 106
104 104 104
103 103 103
101 101 101
100 100 100
102 102 102
103 103 103
104 104 104
107 107 107
109 109 109
110 110 110
110 110 110
112 112 112
116 116 116
120 120 120
117 117 117
116 116 116
117 117 117
133 133 133
134 134 134
134 134 134
132 132 132
125 125 125
118 118 118
115 115 115
116 116 116
114 114 114
112 112 112
112 112 112
108 108 108
105 105 105
104 104 104
105 105 105
110 110 110
116 116 116
119 119 119
121 121 121
123 123 123
123 123 123
121 121 121
120 120 120
119 119 119
119 119 119
119 119 119
119 119 119
118 118 118
114 114 114
111 111 111
108 108 108
106 106 106
107 107 107
108 108 108
107 107 107
107 107 107
108 108 108
108 108 108
108 108 108
108 108 108
107 107 107
108 108 108
107 107 107
108 108 108
110 110 110
110 110 110
109 109 109
106 106 106
105 105 105
103 103 103
101 101 101
100 100 100
103 103 103
104 104 104
106 106 106
109 109 109
110 110 110
111 111 111
114 114 114
119 119 119
122 122 122
117 117 117
118 118 118
119 119 119
132 132 132
133 133 133
133 133 133
133 133 133
128 128 128
122 122 122
116 116 116
117 117 117
116 116 116
113 113 113
113 113 113
110 110 110
107 107 107
107 107 107
106 106 106
110 110 110
115 115 115
118 118 118
117 117 117
118 118 118
119 119 119
118 118 118
119 119 119
120 120 120
119 119 119
118 118 118
117 117 117
116 116 116
112 112 112
109 109 109
107 107 107
106 106 106
105 105 105
105 105 105
104 104 104
106 106 106
106 106 106
106 106 106
106 106 106
106 106 106
107 107 107
108 108 108
107 107 107
109 109 109
110 110 110
110 110 110
109 109 109
107 107 107
105 105 105
103 103 103
101 101 101
100 100 100
101 101 101
104 104 104
105 105 105
109 109 109
110 110 110
112 112 112
115 115 115
121 121 121
121 121 121
118 118 118
120 120 120
120 120 120
131 131 131
132 132 132
133 133 133
133 133 133
131 131 131
125 125 125
118 118 118
116 116 116
119 119 119
115 115 115
114 114 114
113 113 113
109 109 109
108 108 108
108 108 108
108 108 108
110 110 110
112 112 112
112 112 112
113 113 113
114 114 114
114 114 114
113 113 113
116 116 116
120 120 120
120 120 120
119 119 119
118 118 118
115 115 115
112 112 112
110 110 110
108 108 108
107 107 107
105 105 105
105 105 105
106 106 106
106 106 106
106 106 106
107 107 107
108 108 108
107 107 107
106 106 106
106 106 106
107 107 107
108 108 108
108 108 108
107 107 107
107 107 107
105 105 105
103 103 103
101 101 101
101 101 101
101 101 101
104 104 104
106 106 106
108 108 108
111 111 111
114 114 114
117 117 117
122 122 122
121 121 121
119 119 119
120 120 120
121 121 121
129 129 129
131 131 131
132 132 132
134 134 134
133 133 133
128 128 128
120 120 120
116 116 116
120 120 120
118 118 118
115 115 115
114 114 114
112 112 112
110 110 110
110 110 110
107 107 107
106 106 106
105 105 105
106 106 106
106 106 106
109 109 109
109 109 109
108 108 108
108 108 108
112 112 112
115 115 115
116 116 116
115 115 115
115 115 115
114 114 114
112 112 112
111 111 111
109 109 109
107 107 107
106 106 106
106 106 106
106 106 106
105 105 105
106 106 106
106 106 106
105 105 105
103 103 103
103 103 103
103 103 103
104 104 104
104 104 104
105 105 105
106 106 106
104 104 104
102 102 102
102 102 102
102 102 102
102 102 102
104 104 104
107 107 107
110 110 110
113 113 113
115 115 115
119 119 119
122 122 122
121 121 121
119 119 119
120 120 120
119 119 119
125 125 125
128 128 128
130 130 130
134 134 134
134 134 134
131 131 131
124 124 124
117 117 117
119 119 119
120 120 120
116 116 116
114 114 114
115 115 115
113 113 113
111 111 111
107 107 107
105 105 105
104 104 104
103 103 103
102 102 102
102 102 102
102 102 102
105 105 105
106 106 106
107 107 107
111 111 111
112 112 112
111 111 111
110 110 110
109 109 109
108 108 108
107 107 107
107 107 107
105 105 105
103 103 103
102 102 102
103 103 103
101 101 101
101 101 101
101 101 101
101 101 101
100 100 100
99 99 99
98 98 98
100 100 100
101 101 101
102 102 102
104 104 104
103 103 103
104 104 104
103 103 103
102 102 102
102 102 102
105 105 105
108 108 108
111 111 111
114 114 114
116 116 116
121 121 121
122 122 122
121 121 121
119 119 119
119 119 119
115 115 115
122 122 122
125 125 125
128 128 128
133 133 133
134 134 134
134 134 134
127 127 127
118 118 118
118 118 118
121 121 121
119 119 119
116 116 116
115 115 115
115 115 115
111 111 111
108 108 108
104 104 104
103 103 103
101 101 101
100 100 100
100 100 100
100 100 100
101 101 101
104 104 104
106 106 106
109 109 109
110 110 110
109 109 109
108 108 108
107 107 107
106 106 106
104 104 104
104 104 104
103 103 103
102 102 102
100 100 100
98 98 98
98 98 98
95 95 95
97 97 97
98 98 98
97 97 97
97 97 97
97 97 97
99 99 99
100 100 100
101 101 101
103 103 103
103 103 103
104 104 104
103 103 103
103 103 103
104 104 104
106 106 106
109 109 109
112 112 112
114 114 114
118 118 118
123 123 123
123 123 123
122 122 122
118 118 118
115 115 115
111 111 111
119 119 119
122 122 122
126 126 126
131 131 131
133 133 133
135 135 135
131 131 131
121 121 121
118 118 118
120 120 120
121 121 121
118 118 118
116 116 116
115 115 115
112 112 112
108 108 108
104 104 104
101 101 101
99 99 99
98 98 98
99 99 99
101 101 101
100 100 100
103 103 103
106 106 106
107 107 107
108 108 108
107 107 107
106 106 106
105 105 105
105 105 105
104 104 104
103 103 103
102 102 102
100 100 100
98 98 98
98 98 98
96 96 96
94 94 94
96 96 96
96 96 96
95 95 95
96 96 96
95 95 95
96 96 96
96 96 96
98 98 98
101 101 101
102 102 102
103 103 103
103 103 103
104 104 104
105 105 105
109 109 109
110 110 110
112 112 112
113 113 113
118 118 118
124 124 124
123 123 123
121 121 121
116 116 116
111 111 111
109 109 109
118 118 118
119 119 119
125 125 125
130 130 130
132 132 132
135 135 135
133 133 133
123 123 123
119 119 119
118 118 118
122 122 122
121 121 121
118 118 118
115 115 115
113 113 113
110 110 110
106 106 106
102 102 102
100 100 100
98 98 98
98 98 98
101 101 101
102 102 102
104 104 104
107 107 107
109 109 109
109 109 109
108 108 108
108 108 108
108 108 108
107 107 107
105 105 105
104 104 104
105 105 105
104 104 104
102 102 102
100 100 100
98 98 98
97 97 97
98 98 98
97 97 97
96 96 96
95 95 95
93 93 93
94 94 94
96 96 96
98 98 98
100 100 100
102 102 102
103 103 103
103 103 103
105 105 105
108 108 108
110 110 110
112 112 112
112 112 112
112 112 112
118 118 118
125 125 125
123 123 123
120 120 120
113 113 113
109 109 109
110 110 110
118 118 118
119 119 119
123 123 123
129 129 129
131 131 131
134 134 134
133 133 133
125 125 125
121 121 121
119 119 119
120 120 120
121 121 121
121 121 121
116 116 116
113 113 113
112 112 112
109 109 109
106 106 106
105 105 105
103 103 103
101 101 101
103 103 103
103 103 103
106 106 106
110 110 110
113 113 113
112 112 112
111 111 111
111 111 111
111 111 111
110 110 110
109 109 109
108 108 108
108 108 108
108 108 108
107 107 107
104 104 104
103 103 103
101 101 101
101 101 101
98 98 98
96 96 96
96 96 96
94 94 94
96 96 96
97 97 97
99 99 99
100 100 100
102 102 102
102 102 102
104 104 104
106 106 106
109 109 109
111 111 111
113 113 113
111 111 111
111 111 111
117 117 117
126 126 126
122 122 122
117 117 117
110 110 110
107 107 107
110 110 110
118 118 118
119 119 119
121 121 121
126 126 126
130 130 130
133 133 133
131 131 131
127 127 127
123 123 123
120 120 120
119 119 119
120 120 120
122 122 122
119 119 119
114 114 114
113 113 113
113 113 113
109 109 109
108 108 108
108 108 108
106 106 106
107 107 107
106 106 106
106 106 106
111 111 111
114 114 114
114 114 114
114 114 114
115 115 115
114 114 114
113 113 113
114 114 114
113 113 113
112 112 112
111 111 111
109 109 109
107 107 107
106 106 106
104 104 104
102 102 102
98 98 98
96 96 96
97 97 97
96 96 96
98 98 98
100 100 100
101 101 101
101 101 101
101 101 101
103 103 103
105 105 105
107 107 107
109 109 109
111 111 111
111 111 111
110 110 110
111 111 111
116 116 116
125 125 125
121 121 121
114 114 114
108 108 108
106 106 106
109 109 109
118 118 118
119 119 119
120 120 120
123 123 123
128 128 128
133 133 133
130 130 130
127 127 127
125 125 125
121 121 121
119 119 119
118 118 118
119 119 119
121 121 121
117 117 117
115 115 115
115 115 115
113 113 113
111 111 111
110 110 110
110 110 110
109 109 109
109 109 109
109 109 109
111 111 111
113 113 113
111 111 111
111 111 111
112 112 112
113 113 113
112 112 112
114 114 114
113 113 113
111 111 111
109 109 109
107 107 107
106 106 106
104 104 104
104 104 104
101 101 101
97 97 97
97 97 97
99 99 99
99 99 99
101 101 101
102 102 102
102 102 102
102 102 102
102 102 102
104 104 104
106 106 106
108 108 108
110 110 110
110 110 110
110 110 110
110 110 110
111 111 111
116 116 116
124 124 124
118 118 118
111 111 111
107 107 107
106 106 106
108 108 108
118 118 118
119 119 119
120 120 120
121 121 121
127 127 127
132 132 132
129 129 129
128 128 128
126 126 126
121 121 121
117 117 117
117 117 117
118 118 118
119 119 119
119 119 119
118 118 118
117 117 117
115 115 115
114 114 114
112 112 112
112 112 112
111 111 111
110 110 110
110 110 110
112 112 112
113 113 113
112 112 112
110 110 110
109 109 109
109 109 109
109 109 109
110 110 110
110 110 110
108 108 108
106 106 106
104 104 104
103 103 103
102 102 102
102 102 102
101 101 101
99 99 99
99 99 99
100 100 100
100 100 100
102 102 102
102 102 102
102 102 102
103 103 103
104 104 104
106 106 106
107 107 107
109 109 109
109 109 109
110 110 110
109 109 109
109 109 109
111 111 111
117 117 117
122 122 122
114 114 114
109 109 109
106 106 106
105 105 105
107 107 107
117 117 117
119 119 119
120 120 120
120 120 120
125 125 125
130 130 130
130 130 130
131 131 131
126 126 126
119 119 119
116 116 116
118 118 118
118 118 118
118 118 118
120 120 120
120 120 120
119 119 119
116 116 116
115 115 115
111 111 111
111 111 111
111 111 111
111 111 111
110 110 110
110 110 110
111 111 111
111 111 111
109 109 109
107 107 107
106 106 106
107 107 107
107 107 107
106 106 106
104 104 104
102 102 102
101 101 101
102 102 102
102 102 102
101 101 101
100 100 100
100 100 100
99 99 99
100 100 100
100 100 100
101 101 101
102 102 102
103 103 103
105 105 105
106 106 106
107 107 107
107 107 107
109 109 109
109 109 109
109 109 109
109 109 109
109 109 109
111 111 111
117 117 117
119 119 119
111 111 111
107 107 107
104 104 104
105 105 105
106 106 106
117 117 117
119 119 119
120 120 120
120 120 120
123 123 123
131 131 131
133 133 133
132 132 132
125 125 125
119 119 119
116 116 116
117 117 117
119 119 119
119 119 119
119 119 119
120 120 120
120 120 120
119 119 119
116 116 116
112 112 112
110 110 110
110 110 110
108 108 108
108 108 108
109 109 109
111 111 111
109 109 109
107 107 107
106 106 106
105 105 105
104 104 104
105 105 105
105 105 105
103 103 103
102 102 102
101 101 101
102 102 102
102 102 102
101 101 101
100 100 100
99 99 99
100 100 100
99 99 99
100 100 100
101 101 101
102 102 102
104 104 104
105 105 105
106 106 106
107 107 107
107 107 107
109 109 109
108 108 108
109 109 109
109 109 109
109 109 109
112 112 112
114 114 114
116 116 116
109 109 109
106 106 106
104 104 104
105 105 105
106 106 106
118 118 118
119 119 119
120 120 120
120 120 120
122 122 122
130 130 130
133 133 133
131 131 131
123 123 123
118 118 118
116 116 116
116 116 116
118 118 118
120 120 120
120 120 120
121 121 121
120 120 120
120 120 120
120 120 120
115 115 115
112 112 112
109 109 109
108 108 108
107 107 107
109 109 109
110 110 110
109 109 109
108 108 108
108 108 108
107 107 107
106 106 106
106 106 106
106 106 106
105 105 105
104 104 104
102 102 102
101 101 101
101 101 101
100 100 100
100 100 100
99 99 99
99 99 99
99 99 99
99 99 99
101 101 101
103 103 103
105 105 105
107 107 107
107 107 107
107 107 107
107 107 107
108 108 108
108 108 108
109 109 109
110 110 110
110 110 110
111 111 111
112 112 112
114 114 114
108 108 108
106 106 106
103 103 103
105 105 105
106 106 106
118 118 118
121 121 121
123 123 123
124 124 124
124 124 124
128 128 128
132 132 132
131 131 131
124 124 124
118 118 118
116 116 116
116 116 116
118 118 118
119 119 119
120 120 120
121 121 121
121 121 121
121 121 121
122 122 122
119 119 119
114 114 114
111 111 111
108 108 108
107 107 107
108 108 108
107 107 107
107 107 107
108 108 108
108 108 108
108 108 108
107 107 107
106 106 106
107 107 107
107 107 107
105 105 105
103 103 103
101 101 101
101 101 101
101 101 101
100 100 100
98 98 98
98 98 98
99 99 99
100 100 100
103 103 103
105 105 105
106 106 106
107 107 107
107 107 107
107 107 107
107 107 107
108 108 108
109 109 109
111 111 111
110 110 110
109 109 109
110 110 110
110 110 110
112 112 112
109 109 109
106 106 106
103 103 103
104 104 104
107 107 107
121 121 121
125 125 125
126 126 126
126 126 126
124 124 124
126 126 126
131 131 131
130 130 130
125 125 125
118 118 118
115 115 115
116 116 116
117 117 117
119 119 119
120 120 120
122 122 122
121 121 121
122 122 122
122 122 122
121 121 121
117 117 117
114 114 114
110 110 110
108 108 108
108 108 108
106 106 106
105 105 105
106 106 106
107 107 107
107 107 107
106 106 106
105 105 105
106 106 106
106 106 106
105 105 105
103 103 103
102 102 102
102 102 102
102 102 102
101 101 101
99 99 99
100 100 100
101 101 101
102 102 102
104 104 104
106 106 106
108 108 108
108 108 108
107 107 107
106 106 106
107 107 107
108 108 108
109 109 109
110 110 110
109 109 109
108 108 108
108 108 108
108 108 108
111 111 111
109 109 109
106 106 106
103 103 103
104 104 104
107 107 107
125 125 125
127 127 127
127 127 127
126 126 126
124 124 124
125 125 125
128 128 128
129 129 129
125 125 125
118 118 118
115 115 115
115 115 115
116 116 116
118 118 118
119 119 119
122 122 122
122 122 122
121 121 121
123 123 123
122 122 122
120 120 120
117 117 117
113 113 113
110 110 110
109 109 109
108 108 108
107 107 107
107 107 107
107 107 107
107 107 107
106 106 106
106 106 106
107 107 107
106 106 106
105 105 105
104 104 104
103 103 103
103 103 103
103 103 103
102 102 102
101 101 101
102 102 102
104 104 104
104 104 104
106 106 106
107 107 107
109 109 109
109 109 109
107 107 107
107 107 107
109 109 109
110 110 110
109 109 109
108 108 108
107 107 107
106 106 106
107 107 107
107 107 107
110 110 110
109 109 109
106 106 106
105 105 105
106 106 106
107 107 107
127 127 127
127 127 127
127 127 127
126 126 126
124 124 124
123 123 123
127 127 127
129 129 129
125 125 125
117 117 117
114 114 114
115 115 115
116 116 116
117 117 117
118 118 118
121 121 121
121 121 121
122 122 122
123 123 123
123 123 123
122 122 122
120 120 120
117 117 117
114 114 114
113 113 113
113 113 113
112 112 112
111 111 111
110 110 110
110 110 110
109 109 109
109 109 109
109 109 109
109 109 109
108 108 108
106 106 106
106 106 106
105 105 105
105 105 105
104 104 104
104 104 104
105 105 105
106 106 106
106 106 106
108 108 108
109 109 109
109 109 109
109 109 109
108 108 108
108 108 108
111 111 111
111 111 111
109 109 109
106 106 106
105 105 105
103 103 103
104 104 104
105 105 105
109 109 109
108 108 108
105 105 105
107 107 107
107 107 107
107 107 107
128 128 128
127 127 127
128 128 128
126 126 126
125 125 125
123 123 123
127 127 127
128 128 128
123 123 123
114 114 114
113 113 113
115 115 115
117 117 117
118 118 118
117 117 117
120 120 120
119 119 119
122 122 122
124 124 124
124 124 124
122 122 122
123 123 123
120 120 120
118 118 118
117 117 117
117 117 117
116 116 116
115 115 115
113 113 113
112 112 112
111 111 111
110 110 110
110 110 110
109 109 109
109 109 109
108 108 108
107 107 107
106 106 106
106 106 106
106 106 106
107 107 107
107 107 107
108 108 108
109 109 109
110 110 110
111 111 111
109 109 109
109 109 109
109 109 109
110 110 110
111 111 111
109 109 109
108 108 108
104 104 104
103 103 103
102 102 102
103 103 103
104 104 104
108 108 108
108 108 108
105 105 105
107 107 107
109 109 109
109 109 109
129 129 129
128 128 128
128 128 128
127 127 127
126 126 126
124 124 124
127 127 127
128 128 128
121 121 121
112 112 112
111 111 111
115 115 115
118 118 118
118 118 118
118 118 118
120 120 120
118 118 118
121 121 121
125 125 125
124 124 124
122 122 122
122 122 122
123 123 123
121 121 121
120 120 120
120 120 120
118 118 118
117 117 117
116 116 116
114 114 114
113 113 113
112 112 112
112 112 112
111 111 111
110 110 110
110 110 110
109 109 109
108 108 108
109 109 109
109 109 109
110 110 110
110 110 110
111 111 111
111 111 111
112 112 112
112 112 112
111 111 111
109 109 109
110 110 110
111 111 111
109 109 109
107 107 107
106 106 106
103 103 103
102 102 102
100 100 100
102 102 102
103 103 103
107 107 107
108 108 108
104 104 104
105 105 105
109 109 109
109 109 109
129 129 129
129 129 129
129 129 129
128 128 128
127 127 127
125 125 125
128 128 128
127 127 127
119 119 119
111 111 111
112 112 112
114 114 114
118 118 118
119 119 119
119 119 119
122 122 122
119 119 119
120 120 120
123 123 123
126 126 126
122 122 122
122 122 122
124 124 124
124 124 124
123 123 123
121 121 121
120 120 120
118 118 118
117 117 117
116 116 116
113 113 113
113 113 113
113 113 113
113 113 113
113 113 113
112 112 112
112 112 112
112 112 112
112 112 112
112 112 112
112 112 112
113 113 113
113 113 113
113 113 113
114 114 114
113 113 113
113 113 113
111 111 111
112 112 112
111 111 111
108 108 108
105 105 105
103 103 103
102 102 102
100 100 100
99 99 99
101 101 101
102 102 102
107 107 107
108 108 108
105 105 105
105 105 105
108 108 108
110 110 110
