P3
64 64
255
88 88 88
84 84 84
84 84 84
90 90 90
108 108 108
128 128 128
146 146 146
154 154 154
158 158 158
158 158 158
158 158 158
156 156 156
155 155 155
152 152 152
148 148 148
145 145 145
142 142 142
139 139 139
139 139 139
138 138 138
138 138 138
137 137 137
137 137 137
138 138 138
138 138 138
140 140 140
141 141 141
144 144 144
146 146 146
151 151 151
155 155 155
154 154 154
155 155 155
158 158 158
162 162 162
165 165 165
169 169 169
176 176 176
179 179 179
183 183 183
186 186 186
191 191 191
196 196 196
199 199 199
203 203 203
207 207 207
211 211 211
215 215 215
217 217 217
218 218 218
220 220 220
220 220 220
221 221 221
223 223 223
221 221 221
217 217 217
217 217 217
218 218 218
216 216 216
209 209 209
204 204 204
203 203 203
197 197 197
169 169 169
85 85 85
82 82 82
81 81 81
92 92 92
109 109 109
129 129 129
143 143 143
151 151 151
158 158 158
158 158 158
157 157 157
156 156 156
154 154 154
150 150 150
146 146 146
144 144 144
142 142 142
139 139 139
139 139 139
137 137 137
137 137 137
138 138 138
138 138 138
138 138 138
139 139 139
139 139 139
142 142 142
144 144 144
145 145 145
149 149 149
152 152 152
151 151 151
154 154 154
156 156 156
159 159 159
161 161 161
164 164 164
171 171 171
174 174 174
177 177 177
181 181 181
185 185 185
189 189 189
194 194 194
197 197 197
200 200 200
205 205 205
210 210 210
213 213 213
216 216 216
218 218 218
219 219 219
219 219 219
220 220 220
223 223 223
220 220 220
219 219 219
219 219 219
217 217 217
210 210 210
206 206 206
204 204 204
200 200 200
176 176 176
79 79 79
78 78 78
82 82 82
93 93 93
111 111 111
130 130 130
142 142 142
152 152 152
160 160 160
159 159 159
156 156 156
153 153 153
151 151 151
148 148 148
145 145 145
143 143 143
142 142 142
139 139 139
138 138 138
138 138 138
138 138 138
139 139 139
139 139 139
138 138 138
139 139 139
139 139 139
142 142 142
145 145 145
146 146 146
147 147 147
150 150 150
150 150 150
154 154 154
155 155 155
157 157 157
158 158 158
161 161 161
166 166 166
169 169 169
172 172 172
176 176 176
181 181 181
184 184 184
188 188 188
193 193 193
196 196 196
200 200 200
205 205 205
208 208 208
211 211 211
213 213 213
215 215 215
217 217 217
219 219 219
220 220 220
220 220 220
219 219 219
220 220 220
217 217 217
212 212 212
206 206 206
204 204 204
199 199 199
180 180 180
74 74 74
76 76 76
82 82 82
97 97 97
114 114 114
129 129 129
141 141 141
153 153 153
159 159 159
157 157 157
153 153 153
151 151 151
150 150 150
147 147 147
145 145 145
144 144 144
142 142 142
141 141 141
138 138 138
136 136 136
138 138 138
139 139 139
139 139 139
138 138 138
140 140 140
142 142 142
143 143 143
145 145 145
149 149 149
148 148 148
150 150 150
150 150 150
153 153 153
153 153 153
155 155 155
157 157 157
159 159 159
164 164 164
167 167 167
169 169 169
172 172 172
175 175 175
179 179 179
183 183 183
187 187 187
190 190 190
193 193 193
197 197 197
201 201 201
203 203 203
208 208 208
209 209 209
212 212 212
214 214 214
216 216 216
218 218 218
216 216 216
218 218 218
216 216 216
212 212 212
206 206 206
204 204 204
198 198 198
183 183 183
69 69 69
72 72 72
81 81 81
96 96 96
116 116 116
129 129 129
140 140 140
152 152 152
157 157 157
155 155 155
151 151 151
151 151 151
150 150 150
147 147 147
144 144 144
141 141 141
142 142 142
139 139 139
137 137 137
136 136 136
138 138 138
139 139 139
139 139 139
139 139 139
142 142 142
142 142 142
144 144 144
146 146 146
151 151 151
152 152 152
151 151 151
152 152 152
155 155 155
154 154 154
153 153 153
156 156 156
160 160 160
163 163 163
165 165 165
166 166 166
166 166 166
167 167 167
170 170 170
174 174 174
176 176 176
179 179 179
182 182 182
187 187 187
191 191 191
194 194 194
197 197 197
199 199 199
203 203 203
206 206 206
209 209 209
212 212 212
213 213 213
214 214 214
214 214 214
212 212 212
208 208 208
204 204 204
198 198 198
184 184 184
65 65 65
69 69 69
80 80 80
98 98 98
118 118 118
128 128 128
138 138 138
152 152 152
155 155 155
154 154 154
151 151 151
151 151 151
148 148 148
144 144 144
141 141 141
140 140 140
139 139 139
138 138 138
137 137 137
138 138 138
140 140 140
141 141 141
141 141 141
141 141 141
144 144 144
145 145 145
145 145 145
147 147 147
152 152 152
155 155 155
153 153 153
154 154 154
157 157 157
157 157 157
153 153 153
155 155 155
158 158 158
160 160 160
161 161 161
162 162 162
161 161 161
160 160 160
161 161 161
165 165 165
168 168 168
170 170 170
171 171 171
176 176 176
182 182 182
183 183 183
186 186 186
189 189 189
191 191 191
195 195 195
199 199 199
201 201 201
205 205 205
207 207 207
210 210 210
209 209 209
206 206 206
204 204 204
199 199 199
186 186 186
65 65 65
68 68 68
81 81 81
100 100 100
119 119 119
127 127 127
138 138 138
151 151 151
154 154 154
150 150 150
148 148 148
145 145 145
142 142 142
139 139 139
136 136 136
136 136 136
135 135 135
137 137 137
138 138 138
139 139 139
140 140 140
141 141 141
142 142 142
143 143 143
146 146 146
146 146 146
147 147 147
149 149 149
154 154 154
155 155 155
156 156 156
156 156 156
159 159 159
158 158 158
154 154 154
153 153 153
155 155 155
156 156 156
159 159 159
160 160 160
158 158 158
157 157 157
154 154 154
154 154 154
159 159 159
162 162 162
165 165 165
167 167 167
170 170 170
172 172 172
175 175 175
179 179 179
176 176 176
175 175 175
185 185 185
192 192 192
193 193 193
196 196 196
200 200 200
202 202 202
202 202 202
202 202 202
198 198 198
189 189 189
70 70 70
73 73 73
87 87 87
104 104 104
122 122 122
130 130 130
140 140 140
151 151 151
148 148 148
142 142 142
141 141 141
140 140 140
139 139 139
136 136 136
134 134 134
133 133 133
135 135 135
136 136 136
136 136 136
136 136 136
137 137 137
138 138 138
140 140 140
144 144 144
148 148 148
148 148 148
152 152 152
156 156 156
156 156 156
155 155 155
156 156 156
158 158 158
159 159 159
158 158 158
155 155 155
153 153 153
151 151 151
153 153 153
158 158 158
155 155 155
153 153 153
153 153 153
149 149 149
144 144 144
147 147 147
152 152 152
152 152 152
154 154 154
156 156 156
158 158 158
160 160 160
170 170 170
165 165 165
159 159 159
164 164 164
177 177 177
182 182 182
182 182 182
184 184 184
189 189 189
195 195 195
197 197 197
194 194 194
185 185 185
74 74 74
77 77 77
89 89 89
109 109 109
128 128 128
136 136 136
142 142 142
144 144 144
139 139 139
133 133 133
131 131 131
132 132 132
132 132 132
129 129 129
131 131 131
129 129 129
135 135 135
133 133 133
130 130 130
131 131 131
134 134 134
134 134 134
138 138 138
142 142 142
146 146 146
147 147 147
153 153 153
155 155 155
154 154 154
154 154 154
158 158 158
158 158 158
160 160 160
159 159 159
154 154 154
151 151 151
146 146 146
147 147 147
157 157 157
149 149 149
143 143 143
145 145 145
141 141 141
132 132 132
133 133 133
136 136 136
136 136 136
153 153 153
152 152 152
151 151 151
152 152 152
162 162 162
168 168 168
155 155 155
147 147 147
156 156 156
168 168 168
174 174 174
173 173 173
173 173 173
181 181 181
188 188 188
187 187 187
181 181 181
76 76 76
78 78 78
88 88 88
110 110 110
132 132 132
140 140 140
142 142 142
137 137 137
127 127 127
122 122 122
124 124 124
130 130 130
133 133 133
134 134 134
135 135 135
137 137 137
140 140 140
136 136 136
134 134 134
137 137 137
139 139 139
139 139 139
141 141 141
144 144 144
153 153 153
152 152 152
152 152 152
158 158 158
153 153 153
152 152 152
156 156 156
157 157 157
157 157 157
157 157 157
151 151 151
145 145 145
136 136 136
137 137 137
154 154 154
150 150 150
140 140 140
146 146 146
144 144 144
126 126 126
126 126 126
126 126 126
127 127 127
167 167 167
172 172 172
169 169 169
163 163 163
165 165 165
174 174 174
170 170 170
158 158 158
149 149 149
154 154 154
167 167 167
172 172 172
170 170 170
171 171 171
178 178 178
181 181 181
175 175 175
76 76 76
79 79 79
90 90 90
112 112 112
135 135 135
141 141 141
139 139 139
131 131 131
123 123 123
125 125 125
129 129 129
136 136 136
138 138 138
139 139 139
141 141 141
144 144 144
145 145 145
140 140 140
140 140 140
141 141 141
145 145 145
144 144 144
143 143 143
151 151 151
160 160 160
162 162 162
170 170 170
164 164 164
155 155 155
153 153 153
151 151 151
155 155 155
154 154 154
155 155 155
150 150 150
141 141 141
128 128 128
129 129 129
139 139 139
144 144 144
141 141 141
137 137 137
130 130 130
121 121 121
123 123 123
126 126 126
132 132 132
153 153 153
179 179 179
190 190 190
193 193 193
194 194 194
196 196 196
193 193 193
188 188 188
182 182 182
174 174 174
158 158 158
169 169 169
169 169 169
168 168 168
172 172 172
175 175 175
171 171 171
75 75 75
77 77 77
92 92 92
114 114 114
138 138 138
140 140 140
136 136 136
131 131 131
126 126 126
129 129 129
134 134 134
141 141 141
143 143 143
146 146 146
149 149 149
151 151 151
155 155 155
150 150 150
152 152 152
150 150 150
156 156 156
152 152 152
152 152 152
164 164 164
180 180 180
173 173 173
176 176 176
193 193 193
180 180 180
162 162 162
159 159 159
164 164 164
166 166 166
161 161 161
154 154 154
141 141 141
131 131 131
132 132 132
131 131 131
130 130 130
126 126 126
123 123 123
121 121 121
123 123 123
127 127 127
130 130 130
137 137 137
149 149 149
187 187 187
197 197 197
196 196 196
193 193 193
190 190 190
187 187 187
182 182 182
180 180 180
186 186 186
186 186 186
160 160 160
167 167 167
169 169 169
172 172 172
171 171 171
169 169 169
69 69 69
75 75 75
100 100 100
121 121 121
138 138 138
138 138 138
137 137 137
138 138 138
135 135 135
141 141 141
146 146 146
151 151 151
157 157 157
160 160 160
159 159 159
160 160 160
157 157 157
149 149 149
148 148 148
148 148 148
153 153 153
152 152 152
154 154 154
165 165 165
186 186 186
193 193 193
192 192 192
187 187 187
190 190 190
171 171 171
162 162 162
166 166 166
169 169 169
165 165 165
161 161 161
151 151 151
136 136 136
131 131 131
123 123 123
124 124 124
125 125 125
125 125 125
127 127 127
133 133 133
138 138 138
146 146 146
156 156 156
176 176 176
208 208 208
204 204 204
200 200 200
196 196 196
184 184 184
165 165 165
155 155 155
147 147 147
155 155 155
170 170 170
164 164 164
166 166 166
169 169 169
173 173 173
171 171 171
169 169 169
61 61 61
75 75 75
100 100 100
117 117 117
131 131 131
135 135 135
145 145 145
150 150 150
154 154 154
155 155 155
147 147 147
147 147 147
153 153 153
157 157 157
158 158 158
162 162 162
163 163 163
159 159 159
161 161 161
158 158 158
162 162 162
158 158 158
156 156 156
156 156 156
166 166 166
180 180 180
185 185 185
183 183 183
184 184 184
173 173 173
165 165 165
163 163 163
164 164 164
160 160 160
162 162 162
151 151 151
136 136 136
131 131 131
125 125 125
124 124 124
128 128 128
129 129 129
135 135 135
141 141 141
148 148 148
157 157 157
163 163 163
176 176 176
209 209 209
214 214 214
210 210 210
206 206 206
196 196 196
170 170 170
154 154 154
136 136 136
135 135 135
152 152 152
166 166 166
167 167 167
166 166 166
172 172 172
172 172 172
169 169 169
62 62 62
95 95 95
116 116 116
115 115 115
122 122 122
134 134 134
153 153 153
163 163 163
163 163 163
155 155 155
135 135 135
137 137 137
150 150 150
153 153 153
154 154 154
160 160 160
161 161 161
164 164 164
168 168 168
164 164 164
164 164 164
154 154 154
146 146 146
137 137 137
138 138 138
147 147 147
158 158 158
180 180 180
182 182 182
179 179 179
168 168 168
163 163 163
162 162 162
159 159 159
148 148 148
138 138 138
134 134 134
131 131 131
126 126 126
130 130 130
135 135 135
142 142 142
148 148 148
151 151 151
152 152 152
153 153 153
157 157 157
159 159 159
175 175 175
192 192 192
195 195 195
193 193 193
173 173 173
164 164 164
157 157 157
143 143 143
135 135 135
147 147 147
164 164 164
167 167 167
169 169 169
174 174 174
168 168 168
167 167 167
63 63 63
89 89 89
100 100 100
102 102 102
117 117 117
132 132 132
158 158 158
169 169 169
167 167 167
155 155 155
142 142 142
146 146 146
150 150 150
151 151 151
154 154 154
157 157 157
152 152 152
156 156 156
162 162 162
162 162 162
164 164 164
155 155 155
146 146 146
140 140 140
134 134 134
135 135 135
146 146 146
166 166 166
174 174 174
171 171 171
159 159 159
155 155 155
153 153 153
148 148 148
139 139 139
131 131 131
129 129 129
131 131 131
133 133 133
148 148 148
149 149 149
159 159 159
165 165 165
161 161 161
160 160 160
148 148 148
138 138 138
141 141 141
146 146 146
160 160 160
167 167 167
171 171 171
162 162 162
152 152 152
158 158 158
151 151 151
144 144 144
146 146 146
161 161 161
167 167 167
185 185 185
187 187 187
163 163 163
165 165 165
63 63 63
77 77 77
86 86 86
108 108 108
125 125 125
135 135 135
156 156 156
171 171 171
170 170 170
164 164 164
158 158 158
152 152 152
150 150 150
159 159 159
158 158 158
157 157 157
146 146 146
147 147 147
154 154 154
158 158 158
159 159 159
157 157 157
154 154 154
151 151 151
146 146 146
140 140 140
146 146 146
156 156 156
171 171 171
166 166 166
158 158 158
156 156 156
154 154 154
148 148 148
141 141 141
137 137 137
131 131 131
132 132 132
142 142 142
165 165 165
161 161 161
166 166 166
171 171 171
170 170 170
170 170 170
165 165 165
146 146 146
139 139 139
140 140 140
149 149 149
150 150 150
151 151 151
158 158 158
160 160 160
159 159 159
162 162 162
162 162 162
153 153 153
155 155 155
160 160 160
168 168 168
176 176 176
177 177 177
163 163 163
66 66 66
75 75 75
84 84 84
107 107 107
122 122 122
130 130 130
147 147 147
165 165 165
168 168 168
171 171 171
171 171 171
165 165 165
165 165 165
166 166 166
161 161 161
161 161 161
152 152 152
151 151 151
157 157 157
154 154 154
152 152 152
155 155 155
157 157 157
160 160 160
152 152 152
148 148 148
148 148 148
153 153 153
172 172 172
165 165 165
157 157 157
153 153 153
152 152 152
147 147 147
141 141 141
139 139 139
129 129 129
135 135 135
149 149 149
163 163 163
166 166 166
167 167 167
164 164 164
167 167 167
166 166 166
166 166 166
159 159 159
153 153 153
156 156 156
160 160 160
156 156 156
147 147 147
143 143 143
160 160 160
173 173 173
176 176 176
178 178 178
171 171 171
159 159 159
156 156 156
154 154 154
157 157 157
153 153 153
154 154 154
64 64 64
67 67 67
73 73 73
100 100 100
124 124 124
130 130 130
154 154 154
177 177 177
180 180 180
178 178 178
177 177 177
172 172 172
169 169 169
163 163 163
155 155 155
149 149 149
146 146 146
146 146 146
148 148 148
146 146 146
149 149 149
154 154 154
157 157 157
154 154 154
156 156 156
157 157 157
135 135 135
150 150 150
170 170 170
164 164 164
157 157 157
152 152 152
149 149 149
146 146 146
141 141 141
138 138 138
128 128 128
135 135 135
150 150 150
158 158 158
166 166 166
166 166 166
162 162 162
165 165 165
162 162 162
163 163 163
164 164 164
160 160 160
165 165 165
167 167 167
160 160 160
149 149 149
146 146 146
159 159 159
174 174 174
181 181 181
180 180 180
174 174 174
163 163 163
158 158 158
157 157 157
164 164 164
157 157 157
144 144 144
73 73 73
69 69 69
62 62 62
87 87 87
119 119 119
138 138 138
165 165 165
177 177 177
180 180 180
179 179 179
175 175 175
171 171 171
167 167 167
158 158 158
144 144 144
138 138 138
135 135 135
138 138 138
144 144 144
147 147 147
151 151 151
152 152 152
155 155 155
151 151 151
157 157 157
151 151 151
128 128 128
151 151 151
167 167 167
164 164 164
156 156 156
149 149 149
146 146 146
146 146 146
143 143 143
138 138 138
129 129 129
131 131 131
150 150 150
162 162 162
163 163 163
170 170 170
165 165 165
160 160 160
160 160 160
160 160 160
158 158 158
155 155 155
156 156 156
159 159 159
158 158 158
153 153 153
154 154 154
164 164 164
174 174 174
179 179 179
183 183 183
180 180 180
167 167 167
155 155 155
155 155 155
160 160 160
154 154 154
143 143 143
100 100 100
89 89 89
73 73 73
89 89 89
117 117 117
134 134 134
154 154 154
167 167 167
169 169 169
169 169 169
168 168 168
170 170 170
168 168 168
156 156 156
142 142 142
136 136 136
135 135 135
139 139 139
145 145 145
148 148 148
154 154 154
158 158 158
164 164 164
165 165 165
160 160 160
137 137 137
129 129 129
155 155 155
165 165 165
162 162 162
154 154 154
148 148 148
145 145 145
145 145 145
145 145 145
140 140 140
132 132 132
131 131 131
149 149 149
165 165 165
168 168 168
170 170 170
171 171 171
167 167 167
164 164 164
162 162 162
160 160 160
156 156 156
153 153 153
154 154 154
155 155 155
155 155 155
154 154 154
159 159 159
170 170 170
176 176 176
176 176 176
176 176 176
170 170 170
156 156 156
156 156 156
162 162 162
155 155 155
142 142 142
126 126 126
105 105 105
87 87 87
102 102 102
118 118 118
133 133 133
150 150 150
164 164 164
165 165 165
164 164 164
164 164 164
167 167 167
168 168 168
162 162 162
154 154 154
150 150 150
150 150 150
153 153 153
157 157 157
159 159 159
163 163 163
166 166 166
172 172 172
171 171 171
152 152 152
128 128 128
137 137 137
158 158 158
165 165 165
159 159 159
151 151 151
147 147 147
149 149 149
147 147 147
144 144 144
142 142 142
136 136 136
133 133 133
138 138 138
158 158 158
168 168 168
171 171 171
171 171 171
171 171 171
173 173 173
170 170 170
166 166 166
162 162 162
158 158 158
158 158 158
158 158 158
157 157 157
156 156 156
158 158 158
161 161 161
171 171 171
173 173 173
174 174 174
168 168 168
155 155 155
156 156 156
158 158 158
154 154 154
148 148 148
119 119 119
98 98 98
90 90 90
109 109 109
125 125 125
136 136 136
150 150 150
159 159 159
162 162 162
160 160 160
155 155 155
156 156 156
156 156 156
157 157 157
157 157 157
155 155 155
153 153 153
155 155 155
158 158 158
161 161 161
165 165 165
166 166 166
168 168 168
161 161 161
145 145 145
132 132 132
144 144 144
159 159 159
160 160 160
153 153 153
149 149 149
149 149 149
152 152 152
149 149 149
146 146 146
142 142 142
136 136 136
134 134 134
134 134 134
143 143 143
160 160 160
167 167 167
170 170 170
168 168 168
168 168 168
171 171 171
172 172 172
172 172 172
169 169 169
167 167 167
165 165 165
160 160 160
157 157 157
157 157 157
160 160 160
166 166 166
168 168 168
170 170 170
163 163 163
154 154 154
157 157 157
159 159 159
159 159 159
154 154 154
110 110 110
91 91 91
92 92 92
117 117 117
132 132 132
138 138 138
144 144 144
151 151 151
155 155 155
154 154 154
153 153 153
150 150 150
146 146 146
143 143 143
143 143 143
142 142 142
142 142 142
146 146 146
153 153 153
156 156 156
155 155 155
152 152 152
149 149 149
150 150 150
151 151 151
141 141 141
146 146 146
155 155 155
154 154 154
148 148 148
147 147 147
151 151 151
153 153 153
149 149 149
146 146 146
144 144 144
138 138 138
134 134 134
139 139 139
138 138 138
145 145 145
157 157 157
163 163 163
162 162 162
164 164 164
163 163 163
165 165 165
163 163 163
164 164 164
164 164 164
163 163 163
160 160 160
157 157 157
156 156 156
157 157 157
159 159 159
162 162 162
164 164 164
158 158 158
153 153 153
159 159 159
161 161 161
160 160 160
157 157 157
107 107 107
91 91 91
100 100 100
123 123 123
135 135 135
139 139 139
141 141 141
146 146 146
149 149 149
152 152 152
151 151 151
147 147 147
140 140 140
137 137 137
135 135 135
135 135 135
138 138 138
141 141 141
143 143 143
145 145 145
139 139 139
134 134 134
146 146 146
156 156 156
151 151 151
141 141 141
148 148 148
155 155 155
151 151 151
145 145 145
147 147 147
152 152 152
153 153 153
148 148 148
146 146 146
145 145 145
138 138 138
132 132 132
139 139 139
147 147 147
140 140 140
143 143 143
155 155 155
155 155 155
156 156 156
157 157 157
158 158 158
157 157 157
156 156 156
156 156 156
156 156 156
155 155 155
152 152 152
151 151 151
152 152 152
156 156 156
159 159 159
157 157 157
150 150 150
153 153 153
163 163 163
162 162 162
158 158 158
154 154 154
108 108 108
95 95 95
108 108 108
128 128 128
136 136 136
141 141 141
143 143 143
146 146 146
145 145 145
141 141 141
142 142 142
140 140 140
138 138 138
135 135 135
134 134 134
134 134 134
135 135 135
134 134 134
131 131 131
128 128 128
128 128 128
138 138 138
153 153 153
153 153 153
147 147 147
144 144 144
152 152 152
157 157 157
153 153 153
145 145 145
147 147 147
154 154 154
154 154 154
150 150 150
147 147 147
145 145 145
140 140 140
132 132 132
136 136 136
146 146 146
145 145 145
143 143 143
143 143 143
145 145 145
148 148 148
151 151 151
153 153 153
156 156 156
157 157 157
155 155 155
155 155 155
153 153 153
148 148 148
147 147 147
150 150 150
153 153 153
153 153 153
151 151 151
151 151 151
157 157 157
163 163 163
159 159 159
156 156 156
153 153 153
106 106 106
99 99 99
111 111 111
126 126 126
136 136 136
141 141 141
144 144 144
145 145 145
144 144 144
144 144 144
141 141 141
138 138 138
133 133 133
130 130 130
128 128 128
127 127 127
127 127 127
127 127 127
128 128 128
130 130 130
132 132 132
139 139 139
146 146 146
146 146 146
145 145 145
146 146 146
153 153 153
159 159 159
153 153 153
145 145 145
147 147 147
153 153 153
156 156 156
153 153 153
150 150 150
147 147 147
144 144 144
133 133 133
134 134 134
141 141 141
145 145 145
150 150 150
151 151 151
139 139 139
134 134 134
139 139 139
143 143 143
147 147 147
148 148 148
147 147 147
147 147 147
145 145 145
140 140 140
139 139 139
141 141 141
143 143 143
148 148 148
154 154 154
158 158 158
162 162 162
163 163 163
157 157 157
153 153 153
154 154 154
104 104 104
99 99 99
111 111 111
128 128 128
138 138 138
142 142 142
144 144 144
145 145 145
144 144 144
145 145 145
144 144 144
142 142 142
138 138 138
136 136 136
133 133 133
130 130 130
128 128 128
127 127 127
129 129 129
129 129 129
131 131 131
135 135 135
137 137 137
140 140 140
143 143 143
143 143 143
147 147 147
156 156 156
149 149 149
142 142 142
141 141 141
146 146 146
149 149 149
151 151 151
148 148 148
144 144 144
141 141 141
135 135 135
136 136 136
138 138 138
137 137 137
146 146 146
154 154 154
148 148 148
141 141 141
136 136 136
137 137 137
136 136 136
136 136 136
135 135 135
136 136 136
133 133 133
132 132 132
133 133 133
136 136 136
142 142 142
151 151 151
159 159 159
164 164 164
163 163 163
163 163 163
153 153 153
150 150 150
155 155 155
102 102 102
103 103 103
117 117 117
134 134 134
141 141 141
142 142 142
144 144 144
143 143 143
142 142 142
141 141 141
139 139 139
133 133 133
130 130 130
128 128 128
126 126 126
124 124 124
123 123 123
124 124 124
126 126 126
128 128 128
131 131 131
132 132 132
129 129 129
139 139 139
139 139 139
131 131 131
133 133 133
146 146 146
144 144 144
137 137 137
135 135 135
136 136 136
139 139 139
142 142 142
140 140 140
132 132 132
129 129 129
131 131 131
139 139 139
144 144 144
136 136 136
140 140 140
149 149 149
148 148 148
144 144 144
139 139 139
138 138 138
135 135 135
134 134 134
134 134 134
134 134 134
133 133 133
134 134 134
134 134 134
136 136 136
143 143 143
152 152 152
159 159 159
164 164 164
164 164 164
161 161 161
151 151 151
148 148 148
155 155 155
101 101 101
106 106 106
125 125 125
139 139 139
140 140 140
139 139 139
141 141 141
142 142 142
140 140 140
137 137 137
132 132 132
126 126 126
124 124 124
122 122 122
123 123 123
122 122 122
123 123 123
126 126 126
127 127 127
127 127 127
128 128 128
129 129 129
127 127 127
136 136 136
130 130 130
113 113 113
109 109 109
128 128 128
142 142 142
134 134 134
126 126 126
125 125 125
128 128 128
129 129 129
123 123 123
111 111 111
107 107 107
118 118 118
134 134 134
149 149 149
148 148 148
145 145 145
145 145 145
143 143 143
142 142 142
136 136 136
133 133 133
132 132 132
131 131 131
130 130 130
131 131 131
130 130 130
131 131 131
131 131 131
136 136 136
141 141 141
150 150 150
160 160 160
163 163 163
163 163 163
159 159 159
148 148 148
148 148 148
150 150 150
97 97 97
110 110 110
125 125 125
137 137 137
135 135 135
134 134 134
137 137 137
140 140 140
140 140 140
135 135 135
130 130 130
127 127 127
124 124 124
124 124 124
126 126 126
127 127 127
126 126 126
127 127 127
128 128 128
126 126 126
125 125 125
126 126 126
122 122 122
129 129 129
123 123 123
100 100 100
89 89 89
109 109 109
140 140 140
136 136 136
116 116 116
112 112 112
116 116 116
118 118 118
110 110 110
94 94 94
91 91 91
104 104 104
126 126 126
148 148 148
155 155 155
156 156 156
154 154 154
145 145 145
140 140 140
133 133 133
130 130 130
129 129 129
128 128 128
128 128 128
127 127 127
127 127 127
127 127 127
130 130 130
135 135 135
140 140 140
150 150 150
157 157 157
161 161 161
161 161 161
157 157 157
147 147 147
147 147 147
144 144 144
89 89 89
108 108 108
123 123 123
135 135 135
132 132 132
132 132 132
133 133 133
138 138 138
138 138 138
134 134 134
130 130 130
130 130 130
128 128 128
128 128 128
130 130 130
130 130 130
130 130 130
128 128 128
127 127 127
125 125 125
127 127 127
126 126 126
121 121 121
120 120 120
121 121 121
104 104 104
90 90 90
114 114 114
143 143 143
138 138 138
112 112 112
100 100 100
107 107 107
115 115 115
113 113 113
98 98 98
90 90 90
100 100 100
121 121 121
145 145 145
156 156 156
159 159 159
161 161 161
155 155 155
148 148 148
142 142 142
136 136 136
134 134 134
130 130 130
128 128 128
126 126 126
127 127 127
127 127 127
132 132 132
136 136 136
142 142 142
151 151 151
156 156 156
158 158 158
157 157 157
155 155 155
143 143 143
142 142 142
141 141 141
77 77 77
101 101 101
120 120 120
134 134 134
132 132 132
129 129 129
131 131 131
135 135 135
136 136 136
134 134 134
133 133 133
132 132 132
132 132 132
132 132 132
132 132 132
131 131 131
131 131 131
128 128 128
127 127 127
129 129 129
133 133 133
135 135 135
127 127 127
124 124 124
120 120 120
114 114 114
113 113 113
129 129 129
139 139 139
128 128 128
101 101 101
91 91 91
102 102 102
115 115 115
120 120 120
109 109 109
98 98 98
102 102 102
120 120 120
141 141 141
154 154 154
158 158 158
166 166 166
164 164 164
158 158 158
153 153 153
145 145 145
141 141 141
139 139 139
135 135 135
134 134 134
134 134 134
135 135 135
138 138 138
142 142 142
145 145 145
151 151 151
153 153 153
154 154 154
154 154 154
152 152 152
140 140 140
130 130 130
141 141 141
72 72 72
92 92 92
115 115 115
130 130 130
131 131 131
129 129 129
130 130 130
133 133 133
133 133 133
133 133 133
134 134 134
135 135 135
135 135 135
133 133 133
133 133 133
132 132 132
129 129 129
127 127 127
129 129 129
136 136 136
144 144 144
148 148 148
141 141 141
134 134 134
129 129 129
127 127 127
128 128 128
137 137 137
130 130 130
111 111 111
90 90 90
88 88 88
102 102 102
119 119 119
125 125 125
123 123 123
116 116 116
117 117 117
128 128 128
141 141 141
152 152 152
158 158 158
166 166 166
169 169 169
167 167 167
160 160 160
151 151 151
147 147 147
145 145 145
142 142 142
142 142 142
142 142 142
142 142 142
143 143 143
146 146 146
147 147 147
149 149 149
152 152 152
150 150 150
151 151 151
149 149 149
135 135 135
129 129 129
144 144 144
68 68 68
83 83 83
107 107 107
125 125 125
129 129 129
129 129 129
127 127 127
130 130 130
132 132 132
133 133 133
136 136 136
136 136 136
136 136 136
134 134 134
134 134 134
132 132 132
129 129 129
131 131 131
138 138 138
148 148 148
154 154 154
156 156 156
149 149 149
143 143 143
137 137 137
137 137 137
139 139 139
136 136 136
119 119 119
98 98 98
91 91 91
94 94 94
109 109 109
123 123 123
129 129 129
133 133 133
134 134 134
134 134 134
139 139 139
146 146 146
150 150 150
157 157 157
166 166 166
172 172 172
172 172 172
164 164 164
159 159 159
151 151 151
146 146 146
146 146 146
147 147 147
148 148 148
147 147 147
147 147 147
148 148 148
150 150 150
149 149 149
149 149 149
148 148 148
146 146 146
143 143 143
134 134 134
135 135 135
146 146 146
71 71 71
77 77 77
98 98 98
123 123 123
130 130 130
130 130 130
129 129 129
129 129 129
131 131 131
134 134 134
137 137 137
137 137 137
136 136 136
134 134 134
133 133 133
132 132 132
132 132 132
138 138 138
148 148 148
156 156 156
157 157 157
154 154 154
150 150 150
148 148 148
141 141 141
138 138 138
139 139 139
127 127 127
111 111 111
99 99 99
99 99 99
108 108 108
121 121 121
131 131 131
133 133 133
139 139 139
143 143 143
140 140 140
142 142 142
143 143 143
145 145 145
151 151 151
164 164 164
171 171 171
170 170 170
166 166 166
163 163 163
156 156 156
149 149 149
145 145 145
146 146 146
149 149 149
150 150 150
148 148 148
147 147 147
149 149 149
148 148 148
145 145 145
144 144 144
142 142 142
138 138 138
134 134 134
140 140 140
151 151 151
74 74 74
73 73 73
94 94 94
120 120 120
131 131 131
132 132 132
131 131 131
132 132 132
132 132 132
135 135 135
139 139 139
139 139 139
137 137 137
136 136 136
133 133 133
135 135 135
139 139 139
145 145 145
156 156 156
159 159 159
156 156 156
151 151 151
143 143 143
142 142 142
142 142 142
141 141 141
136 136 136
118 118 118
107 107 107
106 106 106
110 110 110
119 119 119
129 129 129
135 135 135
136 136 136
140 140 140
142 142 142
146 146 146
147 147 147
145 145 145
144 144 144
150 150 150
161 161 161
169 169 169
168 168 168
165 165 165
163 163 163
161 161 161
154 154 154
146 146 146
145 145 145
147 147 147
148 148 148
148 148 148
148 148 148
147 147 147
146 146 146
144 144 144
141 141 141
138 138 138
134 134 134
134 134 134
141 141 141
150 150 150
78 78 78
73 73 73
93 93 93
117 117 117
131 131 131
133 133 133
134 134 134
134 134 134
134 134 134
138 138 138
142 142 142
141 141 141
138 138 138
135 135 135
138 138 138
142 142 142
145 145 145
150 150 150
155 155 155
155 155 155
152 152 152
148 148 148
138 138 138
132 132 132
134 134 134
138 138 138
134 134 134
120 120 120
110 110 110
113 113 113
118 118 118
121 121 121
129 129 129
133 133 133
136 136 136
141 141 141
142 142 142
143 143 143
146 146 146
144 144 144
145 145 145
150 150 150
158 158 158
165 165 165
166 166 166
162 162 162
160 160 160
162 162 162
159 159 159
150 150 150
147 147 147
147 147 147
146 146 146
146 146 146
146 146 146
145 145 145
142 142 142
140 140 140
137 137 137
135 135 135
132 132 132
134 134 134
144 144 144
152 152 152
80 80 80
74 74 74
88 88 88
110 110 110
129 129 129
133 133 133
135 135 135
136 136 136
135 135 135
139 139 139
143 143 143
144 144 144
140 140 140
139 139 139
143 143 143
147 147 147
147 147 147
147 147 147
151 151 151
151 151 151
148 148 148
141 141 141
133 133 133
127 127 127
124 124 124
131 131 131
132 132 132
125 125 125
119 119 119
123 123 123
126 126 126
125 125 125
131 131 131
134 134 134
137 137 137
144 144 144
144 144 144
142 142 142
144 144 144
146 146 146
146 146 146
150 150 150
156 156 156
159 159 159
165 165 165
161 161 161
161 161 161
159 159 159
160 160 160
156 156 156
151 151 151
151 151 151
148 148 148
144 144 144
143 143 143
143 143 143
139 139 139
138 138 138
135 135 135
131 131 131
129 129 129
136 136 136
145 145 145
148 148 148
80 80 80
77 77 77
81 81 81
99 99 99
127 127 127
133 133 133
133 133 133
136 136 136
136 136 136
139 139 139
144 144 144
145 145 145
141 141 141
141 141 141
146 146 146
145 145 145
139 139 139
140 140 140
142 142 142
140 140 140
136 136 136
131 131 131
124 124 124
123 123 123
121 121 121
122 122 122
127 127 127
124 124 124
124 124 124
129 129 129
132 132 132
131 131 131
137 137 137
143 143 143
144 144 144
146 146 146
146 146 146
146 146 146
147 147 147
146 146 146
146 146 146
148 148 148
150 150 150
154 154 154
156 156 156
156 156 156
160 160 160
158 158 158
158 158 158
157 157 157
154 154 154
154 154 154
154 154 154
147 147 147
141 141 141
138 138 138
135 135 135
136 136 136
132 132 132
130 130 130
124 124 124
130 130 130
137 137 137
133 133 133
79 79 79
77 77 77
77 77 77
91 91 91
122 122 122
133 133 133
131 131 131
133 133 133
136 136 136
136 136 136
142 142 142
145 145 145
143 143 143
146 146 146
148 148 148
139 139 139
131 131 131
131 131 131
129 129 129
124 124 124
121 121 121
118 118 118
115 115 115
115 115 115
114 114 114
114 114 114
120 120 120
120 120 120
124 124 124
133 133 133
136 136 136
136 136 136
142 142 142
145 145 145
148 148 148
145 145 145
146 146 146
147 147 147
147 147 147
147 147 147
145 145 145
145 145 145
147 147 147
149 149 149
147 147 147
147 147 147
151 151 151
153 153 153
156 156 156
157 157 157
155 155 155
153 153 153
154 154 154
150 150 150
141 141 141
136 136 136
135 135 135
134 134 134
130 130 130
126 126 126
114 114 114
116 116 116
121 121 121
116 116 116
77 77 77
74 74 74
74 74 74
83 83 83
112 112 112
129 129 129
130 130 130
130 130 130
133 133 133
134 134 134
138 138 138
144 144 144
147 147 147
150 150 150
146 146 146
132 132 132
121 121 121
115 115 115
112 112 112
107 107 107
108 108 108
108 108 108
106 106 106
106 106 106
107 107 107
105 105 105
109 109 109
112 112 112
119 119 119
130 130 130
136 136 136
141 141 141
141 141 141
140 140 140
142 142 142
143 143 143
140 140 140
141 141 141
142 142 142
143 143 143
143 143 143
141 141 141
143 143 143
144 144 144
140 140 140
138 138 138
139 139 139
145 145 145
149 149 149
155 155 155
158 158 158
154 154 154
150 150 150
149 149 149
141 141 141
136 136 136
134 134 134
133 133 133
127 127 127
117 117 117
103 103 103
109 109 109
111 111 111
108 108 108
77 77 77
73 73 73
72 72 72
78 78 78
100 100 100
121 121 121
130 130 130
127 127 127
130 130 130
134 134 134
134 134 134
142 142 142
146 146 146
145 145 145
144 144 144
130 130 130
113 113 113
104 104 104
101 101 101
96 96 96
96 96 96
101 101 101
103 103 103
104 104 104
105 105 105
105 105 105
104 104 104
108 108 108
118 118 118
126 126 126
134 134 134
138 138 138
137 137 137
134 134 134
135 135 135
136 136 136
134 134 134
133 133 133
135 135 135
135 135 135
136 136 136
135 135 135
136 136 136
136 136 136
131 131 131
130 130 130
132 132 132
139 139 139
143 143 143
150 150 150
155 155 155
158 158 158
150 150 150
148 148 148
142 142 142
135 135 135
133 133 133
131 131 131
122 122 122
107 107 107
97 97 97
106 106 106
105 105 105
102 102 102
77 77 77
75 75 75
73 73 73
74 74 74
90 90 90
111 111 111
127 127 127
124 124 124
125 125 125
131 131 131
130 130 130
138 138 138
141 141 141
139 139 139
139 139 139
129 129 129
115 115 115
105 105 105
108 108 108
106 106 106
104 104 104
108 108 108
106 106 106
103 103 103
105 105 105
105 105 105
107 107 107
108 108 108
118 118 118
125 125 125
132 132 132
134 134 134
136 136 136
138 138 138
140 140 140
135 135 135
135 135 135
136 136 136
136 136 136
136 136 136
136 136 136
133 133 133
135 135 135
131 131 131
130 130 130
129 129 129
133 133 133
137 137 137
143 143 143
147 147 147
152 152 152
156 156 156
154 154 154
147 147 147
143 143 143
135 135 135
131 131 131
128 128 128
118 118 118
102 102 102
97 97 97
103 103 103
101 101 101
100 100 100
78 78 78
75 75 75
74 74 74
73 73 73
81 81 81
103 103 103
122 122 122
124 124 124
118 118 118
124 124 124
128 128 128
130 130 130
135 135 135
136 136 136
135 135 135
133 133 133
125 125 125
120 120 120
121 121 121
120 120 120
119 119 119
120 120 120
122 122 122
115 115 115
106 106 106
103 103 103
104 104 104
107 107 107
112 112 112
119 119 119
124 124 124
129 129 129
133 133 133
137 137 137
138 138 138
137 137 137
137 137 137
137 137 137
136 136 136
134 134 134
137 137 137
138 138 138
139 139 139
137 137 137
135 135 135
134 134 134
136 136 136
137 137 137
142 142 142
148 148 148
153 153 153
152 152 152
152 152 152
147 147 147
143 143 143
136 136 136
129 129 129
124 124 124
114 114 114
97 97 97
98 98 98
101 101 101
98 98 98
98 98 98
82 82 82
77 77 77
74 74 74
71 71 71
76 76 76
93 93 93
114 114 114
124 124 124
114 114 114
119 119 119
125 125 125
126 126 126
129 129 129
132 132 132
130 130 130
135 135 135
135 135 135
137 137 137
137 137 137
139 139 139
133 133 133
134 134 134
137 137 137
136 136 136
128 128 128
120 120 120
116 116 116
116 116 116
116 116 116
118 118 118
121 121 121
124 124 124
129 129 129
135 135 135
139 139 139
137 137 137
137 137 137
139 139 139
138 138 138
139 139 139
143 143 143
147 147 147
147 147 147
147 147 147
144 144 144
143 143 143
143 143 143
140 140 140
144 144 144
149 149 149
150 150 150
150 150 150
150 150 150
146 146 146
140 140 140
133 133 133
125 125 125
120 120 120
105 105 105
96 96 96
97 97 97
100 100 100
97 97 97
101 101 101
88 88 88
81 81 81
78 78 78
70 70 70
72 72 72
83 83 83
105 105 105
122 122 122
115 115 115
113 113 113
121 121 121
127 127 127
124 124 124
125 125 125
128 128 128
135 135 135
141 141 141
143 143 143
147 147 147
152 152 152
152 152 152
151 151 151
145 145 145
144 144 144
139 139 139
131 131 131
127 127 127
128 128 128
130 130 130
129 129 129
130 130 130
134 134 134
134 134 134
140 140 140
143 143 143
146 146 146
145 145 145
149 149 149
150 150 150
150 150 150
151 151 151
154 154 154
155 155 155
159 159 159
154 154 154
151 151 151
150 150 150
145 145 145
146 146 146
146 146 146
149 149 149
149 149 149
149 149 149
144 144 144
136 136 136
130 130 130
123 123 123
115 115 115
99 99 99
94 94 94
97 97 97
100 100 100
101 101 101
110 110 110
95 95 95
86 86 86
81 81 81
73 73 73
71 71 71
74 74 74
94 94 94
117 117 117
118 118 118
110 110 110
116 116 116
122 122 122
124 124 124
122 122 122
128 128 128
137 137 137
145 145 145
149 149 149
155 155 155
160 160 160
160 160 160
160 160 160
157 157 157
148 148 148
142 142 142
136 136 136
131 131 131
132 132 132
132 132 132
133 133 133
135 135 135
138 138 138
139 139 139
142 142 142
146 146 146
152 152 152
155 155 155
158 158 158
164 164 164
161 161 161
160 160 160
163 163 163
162 162 162
163 163 163
158 158 158
155 155 155
153 153 153
148 148 148
148 148 148
145 145 145
149 149 149
147 147 147
146 146 146
140 140 140
134 134 134
128 128 128
123 123 123
111 111 111
94 94 94
92 92 92
95 95 95
101 101 101
108 108 108
118 118 118
100 100 100
93 93 93
84 84 84
76 76 76
73 73 73
71 71 71
83 83 83
110 110 110
117 117 117
113 113 113
111 111 111
116 116 116
121 121 121
122 122 122
129 129 129
138 138 138
147 147 147
157 157 157
164 164 164
166 166 166
165 165 165
160 160 160
160 160 160
151 151 151
144 144 144
141 141 141
136 136 136
136 136 136
136 136 136
137 137 137
136 136 136
139 139 139
140 140 140
142 142 142
148 148 148
155 155 155
157 157 157
162 162 162
169 169 169
165 165 165
164 164 164
168 168 168
168 168 168
170 170 170
167 167 167
166 166 166
160 160 160
153 153 153
150 150 150
148 148 148
147 147 147
145 145 145
143 143 143
134 134 134
131 131 131
126 126 126
123 123 123
110 110 110
90 90 90
92 92 92
95 95 95
105 105 105
116 116 116
120 120 120
102 102 102
99 99 99
87 87 87
79 79 79
75 75 75
69 69 69
75 75 75
104 104 104
116 116 116
116 116 116
108 108 108
109 109 109
117 117 117
124 124 124
126 126 126
134 134 134
145 145 145
154 154 154
161 161 161
169 169 169
168 168 168
161 161 161
156 156 156
150 150 150
141 141 141
134 134 134
133 133 133
133 133 133
132 132 132
131 131 131
131 131 131
136 136 136
139 139 139
137 137 137
140 140 140
147 147 147
151 151 151
157 157 157
163 163 163
161 161 161
164 164 164
168 168 168
170 170 170
177 177 177
173 173 173
169 169 169
161 161 161
155 155 155
151 151 151
148 148 148
146 146 146
142 142 142
136 136 136
132 132 132
127 127 127
126 126 126
126 126 126
110 110 110
87 87 87
93 93 93
98 98 98
111 111 111
121 121 121
120 120 120
102 102 102
99 99 99
91 91 91
80 80 80
77 77 77
71 71 71
73 73 73
95 95 95
109 109 109
115 115 115
111 111 111
108 108 108
111 111 111
122 122 122
128 128 128
130 130 130
138 138 138
145 145 145
148 148 148
154 154 154
158 158 158
155 155 155
151 151 151
143 143 143
134 134 134
123 123 123
124 124 124
127 127 127
123 123 123
123 123 123
124 124 124
126 126 126
129 129 129
128 128 128
131 131 131
134 134 134
142 142 142
146 146 146
151 151 151
154 154 154
162 162 162
168 168 168
170 170 170
172 172 172
168 168 168
164 164 164
158 158 158
154 154 154
151 151 151
149 149 149
144 144 144
139 139 139
134 134 134
129 129 129
125 125 125
128 128 128
128 128 128
111 111 111
85 85 85
93 93 93
103 103 103
118 118 118
125 125 125
119 119 119
102 102 102
100 100 100
95 95 95
86 86 86
79 79 79
72 72 72
77 77 77
90 90 90
101 101 101
111 111 111
114 114 114
113 113 113
108 108 108
115 115 115
126 126 126
128 128 128
128 128 128
136 136 136
137 137 137
139 139 139
143 143 143
143 143 143
143 143 143
141 141 141
128 128 128
118 118 118
119 119 119
117 117 117
112 112 112
114 114 114
117 117 117
114 114 114
117 117 117
120 120 120
121 121 121
127 127 127
134 134 134
139 139 139
145 145 145
151 151 151
163 163 163
167 167 167
166 166 166
166 166 166
161 161 161
156 156 156
153 153 153
154 154 154
153 153 153
148 148 148
142 142 142
136 136 136
134 134 134
129 129 129
127 127 127
131 131 131
127 127 127
114 114 114
88 88 88
95 95 95
109 109 109
122 122 122
127 127 127
121 121 121
101 101 101
99 99 99
96 96 96
92 92 92
82 82 82
71 71 71
80 80 80
88 88 88
95 95 95
108 108 108
114 114 114
116 116 116
114 114 114
111 111 111
119 119 119
124 124 124
123 123 123
127 127 127
130 130 130
131 131 131
133 133 133
135 135 135
135 135 135
135 135 135
126 126 126
120 120 120
124 124 124
124 124 124
119 119 119
118 118 118
120 120 120
114 114 114
116 116 116
121 121 121
126 126 126
133 133 133
138 138 138
143 143 143
145 145 145
151 151 151
164 164 164
163 163 163
160 160 160
158 158 158
154 154 154
151 151 151
150 150 150
151 151 151
150 150 150
145 145 145
139 139 139
136 136 136
132 132 132
131 131 131
131 131 131
132 132 132
127 127 127
115 115 115
90 90 90
101 101 101
115 115 115
126 126 126
128 128 128
124 124 124
102 102 102
98 98 98
97 97 97
96 96 96
85 85 85
74 74 74
80 80 80
85 85 85
95 95 95
109 109 109
120 120 120
118 118 118
117 117 117
114 114 114
115 115 115
116 116 116
117 117 117
121 121 121
123 123 123
128 128 128
126 126 126
129 129 129
130 130 130
130 130 130
125 125 125
121 121 121
122 122 122
127 127 127
129 129 129
128 128 128
128 128 128
125 125 125
125 125 125
131 131 131
137 137 137
142 142 142
146 146 146
148 148 148
150 150 150
153 153 153
159 159 159
158 158 158
155 155 155
155 155 155
150 150 150
149 149 149
148 148 148
147 147 147
144 144 144
140 140 140
138 138 138
133 133 133
133 133 133
131 131 131
133 133 133
134 134 134
128 128 128
113 113 113
95 95 95
109 109 109
120 120 120
128 128 128
130 130 130
125 125 125
104 104 104
99 99 99
96 96 96
98 98 98
88 88 88
76 76 76
76 76 76
78 78 78
94 94 94
112 112 112
123 123 123
119 119 119
116 116 116
116 116 116
113 113 113
113 113 113
112 112 112
117 117 117
120 120 120
129 129 129
128 128 128
128 128 128
128 128 128
129 129 129
128 128 128
124 124 124
125 125 125
128 128 128
133 133 133
136 136 136
135 135 135
134 134 134
135 135 135
141 141 141
148 148 148
150 150 150
149 149 149
148 148 148
150 150 150
154 154 154
157 157 157
157 157 157
155 155 155
154 154 154
153 153 153
150 150 150
147 147 147
143 143 143
141 141 141
139 139 139
138 138 138
132 132 132
133 133 133
132 132 132
134 134 134
135 135 135
130 130 130
114 114 114
101 101 101
116 116 116
123 123 123
131 131 131
131 131 131
127 127 127
104 104 104
100 100 100
97 97 97
98 98 98
91 91 91
74 74 74
69 69 69
75 75 75
96 96 96
114 114 114
123 123 123
122 122 122
114 114 114
114 114 114
115 115 115
113 113 113
109 109 109
112 112 112
117 117 117
125 125 125
130 130 130
130 130 130
134 134 134
134 134 134
130 130 130
125 125 125
129 129 129
133 133 133
136 136 136
139 139 139
141 141 141
140 140 140
140 140 140
146 146 146
148 148 148
150 150 150
149 149 149
148 148 148
152 152 152
155 155 155
157 157 157
156 156 156
156 156 156
156 156 156
152 152 152
149 149 149
145 145 145
142 142 142
139 139 139
138 138 138
138 138 138
134 134 134
134 134 134
135 135 135
135 135 135
135 135 135
127 127 127
121 121 121
107 107 107
119 119 119
125 125 125
133 133 133
131 131 131
129 129 129
102 102 102
101 101 101
97 97 97
96 96 96
92 92 92
73 73 73
70 70 70
76 76 76
100 100 100
116 116 116
124 124 124
123 123 123
119 119 119
114 114 114
113 113 113
109 109 109
108 108 108
108 108 108
109 109 109
119 119 119
126 126 126
131 131 131
135 135 135
135 135 135
130 130 130
126 126 126
130 130 130
131 131 131
132 132 132
135 135 135
136 136 136
138 138 138
136 136 136
140 140 140
143 143 143
148 148 148
150 150 150
150 150 150
153 153 153
154 154 154
157 157 157
157 157 157
157 157 157
156 156 156
150 150 150
147 147 147
142 142 142
138 138 138
138 138 138
138 138 138
137 137 137
136 136 136
135 135 135
135 135 135
134 134 134
133 133 133
129 129 129
125 125 125
113 113 113
121 121 121
126 126 126
134 134 134
131 131 131
128 128 128
102 102 102
95 95 95
90 90 90
86 86 86
86 86 86
77 77 77
71 71 71
78 78 78
98 98 98
117 117 117
125 125 125
124 124 124
119 119 119
114 114 114
113 113 113
108 108 108
107 107 107
106 106 106
104 104 104
110 110 110
120 120 120
129 129 129
135 135 135
137 137 137
132 132 132
134 134 134
134 134 134
131 131 131
131 131 131
132 132 132
134 134 134
137 137 137
134 134 134
134 134 134
141 141 141
146 146 146
150 150 150
151 151 151
150 150 150
153 153 153
158 158 158
158 158 158
155 155 155
153 153 153
147 147 147
141 141 141
138 138 138
135 135 135
136 136 136
138 138 138
137 137 137
136 136 136
135 135 135
131 131 131
135 135 135
137 137 137
132 132 132
130 130 130
118 118 118
121 121 121
126 126 126
135 135 135
132 132 132
127 127 127
92 92 92
83 83 83
80 80 80
80 80 80
84 84 84
81 81 81
74 74 74
80 80 80
97 97 97
118 118 118
126 126 126
125 125 125
120 120 120
116 116 116
112 112 112
107 107 107
106 106 106
104 104 104
102 102 102
104 104 104
113 113 113
121 121 121
131 131 131
135 135 135
132 132 132
138 138 138
140 140 140
138 138 138
135 135 135
136 136 136
138 138 138
139 139 139
138 138 138
138 138 138
142 142 142
145 145 145
149 149 149
149 149 149
148 148 148
151 151 151
155 155 155
152 152 152
150 150 150
147 147 147
142 142 142
137 137 137
133 133 133
135 135 135
137 137 137
139 139 139
139 139 139
137 137 137
134 134 134
135 135 135
138 138 138
139 139 139
136 136 136
134 134 134
121 121 121
121 121 121
127 127 127
134 134 134
132 132 132
127 127 127
83 83 83
76 76 76
77 77 77
79 79 79
84 84 84
84 84 84
78 78 78
82 82 82
97 97 97
118 118 118
127 127 127
127 127 127
123 123 123
118 118 118
114 114 114
107 107 107
105 105 105
106 106 106
101 101 101
102 102 102
107 107 107
115 115 115
122 122 122
129 129 129
131 131 131
133 133 133
135 135 135
136 136 136
134 134 134
134 134 134
138 138 138
137 137 137
135 135 135
139 139 139
140 140 140
143 143 143
143 143 143
145 145 145
145 145 145
147 147 147
151 151 151
147 147 147
143 143 143
141 141 141
138 138 138
135 135 135
131 131 131
133 133 133
138 138 138
138 138 138
135 135 135
132 132 132
137 137 137
139 139 139
142 142 142
144 144 144
139 139 139
139 139 139
124 124 124
122 122 122
127 127 127
130 130 130
130 130 130
126 126 126
78 78 78
76 76 76
76 76 76
80 80 80
86 86 86
86 86 86
80 80 80
84 84 84
98 98 98
122 122 122
130 130 130
128 128 128
122 122 122
120 120 120
116 116 116
108 108 108
106 106 106
105 105 105
101 101 101
99 99 99
102 102 102
106 106 106
113 113 113
118 118 118
120 120 120
120 120 120
122 122 122
124 124 124
125 125 125
127 127 127
129 129 129
128 128 128
130 130 130
130 130 130
133 133 133
136 136 136
136 136 136
139 139 139
140 140 140
142 142 142
142 142 142
140 140 140
138 138 138
136 136 136
132 132 132
130 130 130
132 132 132
131 131 131
135 135 135
137 137 137
130 130 130
130 130 130
137 137 137
145 145 145
147 147 147
151 151 151
145 145 145
144 144 144
127 127 127
123 123 123
128 128 128
125 125 125
126 126 126
126 126 126
74 74 74
75 75 75
74 74 74
80 80 80
83 83 83
86 86 86
81 81 81
85 85 85
103 103 103
129 129 129
134 134 134
129 129 129
122 122 122
116 116 116
116 116 116
109 109 109
110 110 110
104 104 104
98 98 98
98 98 98
101 101 101
100 100 100
104 104 104
108 108 108
109 109 109
108 108 108
110 110 110
112 112 112
116 116 116
120 120 120
123 123 123
125 125 125
125 125 125
127 127 127
129 129 129
131 131 131
135 135 135
137 137 137
134 134 134
135 135 135
133 133 133
133 133 133
131 131 131
130 130 130
128 128 128
125 125 125
130 130 130
133 133 133
134 134 134
131 131 131
131 131 131
134 134 134
138 138 138
147 147 147
151 151 151
154 154 154
150 150 150
147 147 147
131 131 131
126 126 126
130 130 130
126 126 126
122 122 122
123 123 123
72 72 72
74 74 74
75 75 75
76 76 76
80 80 80
84 84 84
81 81 81
85 85 85
111 111 111
137 137 137
138 138 138
128 128 128
120 120 120
117 117 117
114 114 114
108 108 108
113 113 113
105 105 105
96 96 96
97 97 97
101 101 101
99 99 99
98 98 98
100 100 100
101 101 101
101 101 101
104 104 104
106 106 106
109 109 109
115 115 115
118 118 118
119 119 119
120 120 120
122 122 122
124 124 124
124 124 124
126 126 126
129 129 129
126 126 126
128 128 128
126 126 126
126 126 126
124 124 124
124 124 124
123 123 123
122 122 122
126 126 126
132 132 132
131 131 131
128 128 128
134 134 134
139 139 139
144 144 144
149 149 149
154 154 154
157 157 157
152 152 152
150 150 150
134 134 134
126 126 126
132 132 132
130 130 130
122 122 122
121 121 121
71 71 71
70 70 70
72 72 72
74 74 74
76 76 76
81 81 81
79 79 79
88 88 88
116 116 116
139 139 139
136 136 136
129 129 129
119 119 119
114 114 114
111 111 111
104 104 104
109 109 109
107 107 107
100 100 100
92 92 92
100 100 100
99 99 99
95 95 95
94 94 94
95 95 95
97 97 97
100 100 100
104 104 104
105 105 105
109 109 109
115 115 115
116 116 116
116 116 116
116 116 116
116 116 116
117 117 117
118 118 118
119 119 119
120 120 120
119 119 119
120 120 120
119 119 119
118 118 118
118 118 118
117 117 117
121 121 121
123 123 123
129 129 129
128 128 128
129 129 129
137 137 137
145 145 145
150 150 150
153 153 153
157 157 157
159 159 159
154 154 154
152 152 152
136 136 136
126 126 126
131 131 131
130 130 130
124 124 124
119 119 119
