P3
64 64
255
80 80 80
96 96 96
114 114 114
124 124 124
149 149 149
177 177 177
197 197 197
194 194 194
187 187 187
182 182 182
179 179 179
174 174 174
170 170 170
163 163 163
156 156 156
150 150 150
145 145 145
139 139 139
136 136 136
132 132 132
132 132 132
129 129 129
128 128 128
128 128 128
127 127 127
130 130 130
131 131 131
134 134 134
135 135 135
142 142 142
149 149 149
149 149 149
152 152 152
155 155 155
162 162 162
166 166 166
170 170 170
180 180 180
186 186 186
191 191 191
195 195 195
202 202 202
208 208 208
214 214 214
220 220 220
225 225 225
231 231 231
237 237 237
240 240 240
243 243 243
244 244 244
245 245 245
246 246 246
250 250 250
249 249 249
243 243 243
240 240 240
241 241 241
239 239 239
230 230 230
225 225 225
220 220 220
187 187 187
137 137 137
82 82 82
102 102 102
116 116 116
131 131 131
152 152 152
181 181 181
195 195 195
191 191 191
186 186 186
182 182 182
177 177 177
173 173 173
168 168 168
161 161 161
154 154 154
151 151 151
147 147 147
141 141 141
138 138 138
134 134 134
133 133 133
132 132 132
132 132 132
129 129 129
131 131 131
131 131 131
133 133 133
134 134 134
135 135 135
140 140 140
144 144 144
145 145 145
150 150 150
153 153 153
158 158 158
161 161 161
165 165 165
173 173 173
180 180 180
185 185 185
190 190 190
197 197 197
202 202 202
208 208 208
213 213 213
218 218 218
224 224 224
232 232 232
236 236 236
240 240 240
242 242 242
243 243 243
244 244 244
248 248 248
254 254 254
251 251 251
248 248 248
246 246 246
243 243 243
234 234 234
230 230 230
224 224 224
196 196 196
150 150 150
80 80 80
103 103 103
122 122 122
135 135 135
157 157 157
184 184 184
194 194 194
191 191 191
188 188 188
183 183 183
176 176 176
169 169 169
165 165 165
159 159 159
155 155 155
152 152 152
149 149 149
143 143 143
139 139 139
136 136 136
135 135 135
136 136 136
135 135 135
131 131 131
133 133 133
132 132 132
134 134 134
137 137 137
139 139 139
139 139 139
143 143 143
145 145 145
151 151 151
153 153 153
157 157 157
158 158 158
163 163 163
171 171 171
176 176 176
182 182 182
187 187 187
194 194 194
198 198 198
203 203 203
209 209 209
212 212 212
219 219 219
225 225 225
231 231 231
233 233 233
235 235 235
238 238 238
241 241 241
247 247 247
249 249 249
252 252 252
249 249 249
249 249 249
246 246 246
237 237 237
230 230 230
225 225 225
202 202 202
159 159 159
79 79 79
106 106 106
127 127 127
145 145 145
165 165 165
186 186 186
192 192 192
191 191 191
187 187 187
180 180 180
172 172 172
167 167 167
164 164 164
160 160 160
156 156 156
153 153 153
150 150 150
146 146 146
140 140 140
136 136 136
137 137 137
138 138 138
137 137 137
133 133 133
135 135 135
135 135 135
135 135 135
139 139 139
144 144 144
143 143 143
144 144 144
147 147 147
153 153 153
153 153 153
156 156 156
159 159 159
162 162 162
170 170 170
177 177 177
180 180 180
185 185 185
189 189 189
193 193 193
198 198 198
203 203 203
206 206 206
211 211 211
217 217 217
224 224 224
226 226 226
230 230 230
232 232 232
234 234 234
239 239 239
243 243 243
248 248 248
246 246 246
248 248 248
246 246 246
239 239 239
231 231 231
226 226 226
205 205 205
167 167 167
77 77 77
103 103 103
126 126 126
147 147 147
170 170 170
185 185 185
188 188 188
188 188 188
184 184 184
178 178 178
170 170 170
166 166 166
163 163 163
159 159 159
155 155 155
151 151 151
150 150 150
145 145 145
140 140 140
137 137 137
138 138 138
137 137 137
136 136 136
134 134 134
137 137 137
137 137 137
138 138 138
141 141 141
149 149 149
150 150 150
149 149 149
152 152 152
159 159 159
160 160 160
156 156 156
159 159 159
164 164 164
170 170 170
175 175 175
179 179 179
179 179 179
179 179 179
185 185 185
189 189 189
192 192 192
195 195 195
200 200 200
207 207 207
213 213 213
216 216 216
219 219 219
222 222 222
225 225 225
226 226 226
232 232 232
239 239 239
241 241 241
242 242 242
244 244 244
240 240 240
232 232 232
227 227 227
207 207 207
169 169 169
78 78 78
103 103 103
128 128 128
151 151 151
173 173 173
182 182 182
183 183 183
185 185 185
183 183 183
177 177 177
170 170 170
166 166 166
159 159 159
153 153 153
149 149 149
147 147 147
146 146 146
143 143 143
139 139 139
137 137 137
137 137 137
136 136 136
134 134 134
131 131 131
136 136 136
137 137 137
137 137 137
141 141 141
151 151 151
155 155 155
153 153 153
157 157 157
165 165 165
166 166 166
158 158 158
157 157 157
161 161 161
167 167 167
170 170 170
172 172 172
172 172 172
170 170 170
173 173 173
176 176 176
180 180 180
183 183 183
186 186 186
192 192 192
198 198 198
199 199 199
202 202 202
207 207 207
209 209 209
210 210 210
216 216 216
224 224 224
231 231 231
234 234 234
238 238 238
235 235 235
232 232 232
228 228 228
210 210 210
175 175 175
83 83 83
103 103 103
132 132 132
154 154 154
173 173 173
179 179 179
181 181 181
186 186 186
183 183 183
174 174 174
166 166 166
154 154 154
144 144 144
137 137 137
133 133 133
133 133 133
131 131 131
131 131 131
129 129 129
127 127 127
125 125 125
125 125 125
125 125 125
125 125 125
132 132 132
132 132 132
132 132 132
138 138 138
149 149 149
151 151 151
157 157 157
161 161 161
170 170 170
168 168 168
157 157 157
153 153 153
156 156 156
160 160 160
164 164 164
164 164 164
162 162 162
161 161 161
157 157 157
156 156 156
160 160 160
164 164 164
170 170 170
171 171 171
176 176 176
178 178 178
183 183 183
188 188 188
187 187 187
185 185 185
192 192 192
204 204 204
214 214 214
221 221 221
226 226 226
226 226 226
229 229 229
227 227 227
211 211 211
179 179 179
90 90 90
109 109 109
139 139 139
160 160 160
175 175 175
183 183 183
184 184 184
182 182 182
171 171 171
156 156 156
147 147 147
136 136 136
126 126 126
120 120 120
118 118 118
116 116 116
118 118 118
116 116 116
112 112 112
110 110 110
109 109 109
108 108 108
112 112 112
118 118 118
125 125 125
125 125 125
130 130 130
139 139 139
141 141 141
142 142 142
152 152 152
162 162 162
169 169 169
166 166 166
157 157 157
151 151 151
147 147 147
150 150 150
157 157 157
149 149 149
143 143 143
140 140 140
132 132 132
125 125 125
128 128 128
133 133 133
131 131 131
137 137 137
139 139 139
141 141 141
148 148 148
162 162 162
159 159 159
156 156 156
162 162 162
174 174 174
187 187 187
200 200 200
208 208 208
212 212 212
220 220 220
223 223 223
206 206 206
174 174 174
97 97 97
119 119 119
142 142 142
167 167 167
184 184 184
188 188 188
181 181 181
166 166 166
147 147 147
132 132 132
124 124 124
115 115 115
105 105 105
100 100 100
104 104 104
98 98 98
105 105 105
98 98 98
93 93 93
96 96 96
97 97 97
94 94 94
100 100 100
108 108 108
117 117 117
117 117 117
124 124 124
128 128 128
128 128 128
134 134 134
149 149 149
161 161 161
168 168 168
165 165 165
154 154 154
147 147 147
135 135 135
133 133 133
147 147 147
129 129 129
117 117 117
118 118 118
108 108 108
96 96 96
96 96 96
99 99 99
97 97 97
130 130 130
128 128 128
126 126 126
127 127 127
140 140 140
151 151 151
132 132 132
124 124 124
140 140 140
159 159 159
175 175 175
188 188 188
192 192 192
202 202 202
213 213 213
199 199 199
171 171 171
100 100 100
123 123 123
140 140 140
170 170 170
191 191 191
189 189 189
171 171 171
145 145 145
119 119 119
109 109 109
109 109 109
109 109 109
110 110 110
110 110 110
111 111 111
110 110 110
112 112 112
100 100 100
99 99 99
103 103 103
105 105 105
103 103 103
104 104 104
113 113 113
128 128 128
126 126 126
125 125 125
131 131 131
123 123 123
130 130 130
147 147 147
158 158 158
161 161 161
159 159 159
145 145 145
135 135 135
120 120 120
116 116 116
139 139 139
130 130 130
111 111 111
121 121 121
116 116 116
87 87 87
84 84 84
81 81 81
83 83 83
154 154 154
166 166 166
160 160 160
152 152 152
156 156 156
169 169 169
163 163 163
144 144 144
132 132 132
140 140 140
158 158 158
170 170 170
180 180 180
186 186 186
201 201 201
197 197 197
165 165 165
99 99 99
121 121 121
141 141 141
174 174 174
195 195 195
182 182 182
154 154 154
127 127 127
114 114 114
117 117 117
123 123 123
130 130 130
127 127 127
127 127 127
125 125 125
124 124 124
122 122 122
110 110 110
113 113 113
114 114 114
121 121 121
118 118 118
115 115 115
132 132 132
150 150 150
152 152 152
162 162 162
148 148 148
134 134 134
140 140 140
146 146 146
155 155 155
157 157 157
153 153 153
144 144 144
131 131 131
111 111 111
109 109 109
121 121 121
127 127 127
123 123 123
117 117 117
104 104 104
86 86 86
83 83 83
84 84 84
92 92 92
130 130 130
180 180 180
200 200 200
209 209 209
213 213 213
215 215 215
212 212 212
205 205 205
193 193 193
177 177 177
146 146 146
157 157 157
167 167 167
181 181 181
192 192 192
193 193 193
165 165 165
98 98 98
116 116 116
143 143 143
179 179 179
193 193 193
169 169 169
144 144 144
132 132 132
129 129 129
138 138 138
143 143 143
149 149 149
144 144 144
140 140 140
140 140 140
138 138 138
140 140 140
127 127 127
131 131 131
128 128 128
140 140 140
132 132 132
132 132 132
157 157 157
188 188 188
180 180 180
182 182 182
208 208 208
192 192 192
167 167 167
164 164 164
173 173 173
176 176 176
165 165 165
154 154 154
137 137 137
124 124 124
123 123 123
121 121 121
115 115 115
108 108 108
99 99 99
87 87 87
84 84 84
87 87 87
92 92 92
105 105 105
130 130 130
199 199 199
217 217 217
218 218 218
213 213 213
210 210 210
207 207 207
205 205 205
200 200 200
204 204 204
191 191 191
140 140 140
161 161 161
179 179 179
191 191 191
187 187 187
167 167 167
92 92 92
113 113 113
157 157 157
188 188 188
187 187 187
161 161 161
154 154 154
154 154 154
158 158 158
167 167 167
166 166 166
166 166 166
163 163 163
161 161 161
155 155 155
156 156 156
149 149 149
134 134 134
133 133 133
131 131 131
140 140 140
133 133 133
136 136 136
157 157 157
195 195 195
211 211 211
212 212 212
205 205 205
217 217 217
186 186 186
168 168 168
175 175 175
178 178 178
173 173 173
170 170 170
157 157 157
137 137 137
128 128 128
114 114 114
108 108 108
100 100 100
91 91 91
88 88 88
97 97 97
105 105 105
120 120 120
135 135 135
174 174 174
235 235 235
229 229 229
227 227 227
221 221 221
202 202 202
177 177 177
166 166 166
150 150 150
157 157 157
171 171 171
148 148 148
158 158 158
176 176 176
189 189 189
186 186 186
171 171 171
82 82 82
111 111 111
153 153 153
177 177 177
174 174 174
163 163 163
177 177 177
182 182 182
188 188 188
184 184 184
163 163 163
158 158 158
171 171 171
177 177 177
176 176 176
174 174 174
166 166 166
152 152 152
154 154 154
149 149 149
157 157 157
149 149 149
144 144 144
145 145 145
159 159 159
179 179 179
193 193 193
196 196 196
208 208 208
189 189 189
169 169 169
168 168 168
169 169 169
164 164 164
173 173 173
157 157 157
136 136 136
130 130 130
113 113 113
99 99 99
96 96 96
96 96 96
103 103 103
115 115 115
131 131 131
143 143 143
147 147 147
167 167 167
226 226 226
241 241 241
241 241 241
239 239 239
222 222 222
182 182 182
164 164 164
135 135 135
127 127 127
150 150 150
161 161 161
160 160 160
168 168 168
184 184 184
184 184 184
173 173 173
86 86 86
146 146 146
178 178 178
168 168 168
159 159 159
169 169 169
195 195 195
202 202 202
197 197 197
177 177 177
149 149 149
170 170 170
191 191 191
182 182 182
168 168 168
160 160 160
148 148 148
153 153 153
155 155 155
148 148 148
155 155 155
145 145 145
131 131 131
116 116 116
114 114 114
120 120 120
137 137 137
189 189 189
201 201 201
196 196 196
174 174 174
165 165 165
164 164 164
163 163 163
149 149 149
135 135 135
132 132 132
130 130 130
109 109 109
103 103 103
110 110 110
124 124 124
136 136 136
140 140 140
144 144 144
142 142 142
140 140 140
139 139 139
164 164 164
200 200 200
215 215 215
216 216 216
187 187 187
172 172 172
168 168 168
147 147 147
132 132 132
147 147 147
166 166 166
163 163 163
170 170 170
183 183 183
178 178 178
172 172 172
84 84 84
129 129 129
146 146 146
141 141 141
149 149 149
170 170 170
201 201 201
208 208 208
196 196 196
171 171 171
170 170 170
192 192 192
180 180 180
159 159 159
156 156 156
154 154 154
144 144 144
147 147 147
158 158 158
153 153 153
162 162 162
148 148 148
125 125 125
115 115 115
107 107 107
104 104 104
117 117 117
159 159 159
187 187 187
179 179 179
157 157 157
149 149 149
146 146 146
142 142 142
134 134 134
124 124 124
124 124 124
128 128 128
117 117 117
132 132 132
135 135 135
151 151 151
159 159 159
149 149 149
154 154 154
143 143 143
131 131 131
128 128 128
127 127 127
146 146 146
168 168 168
178 178 178
169 169 169
156 156 156
165 165 165
155 155 155
145 145 145
149 149 149
167 167 167
170 170 170
198 198 198
208 208 208
172 172 172
170 170 170
80 80 80
105 105 105
123 123 123
150 150 150
160 160 160
169 169 169
196 196 196
205 205 205
197 197 197
185 185 185
183 183 183
171 171 171
152 152 152
159 159 159
159 159 159
148 148 148
137 137 137
138 138 138
152 152 152
156 156 156
158 158 158
150 150 150
136 136 136
122 122 122
114 114 114
110 110 110
125 125 125
146 146 146
181 181 181
171 171 171
156 156 156
151 151 151
148 148 148
141 141 141
137 137 137
135 135 135
128 128 128
127 127 127
133 133 133
160 160 160
154 154 154
151 151 151
158 158 158
154 154 154
161 161 161
159 159 159
137 137 137
117 117 117
123 123 123
137 137 137
152 152 152
146 146 146
151 151 151
160 160 160
166 166 166
168 168 168
168 168 168
158 158 158
161 161 161
163 163 163
169 169 169
183 183 183
192 192 192
170 170 170
78 78 78
95 95 95
115 115 115
143 143 143
153 153 153
154 154 154
179 179 179
196 196 196
197 197 197
195 195 195
181 181 181
165 165 165
162 162 162
168 168 168
164 164 164
153 153 153
147 147 147
151 151 151
157 157 157
147 147 147
135 135 135
140 140 140
143 143 143
141 141 141
128 128 128
128 128 128
131 131 131
147 147 147
185 185 185
170 170 170
154 154 154
148 148 148
146 146 146
141 141 141
138 138 138
138 138 138
122 122 122
127 127 127
142 142 142
160 160 160
160 160 160
151 151 151
145 145 145
141 141 141
149 149 149
158 158 158
151 151 151
144 144 144
146 146 146
154 154 154
154 154 154
135 135 135
125 125 125
147 147 147
168 168 168
181 181 181
186 186 186
181 181 181
169 169 169
160 160 160
148 148 148
149 149 149
148 148 148
150 150 150
66 66 66
78 78 78
92 92 92
126 126 126
151 151 151
155 155 155
195 195 195
219 219 219
217 217 217
206 206 206
189 189 189
176 176 176
171 171 171
162 162 162
148 148 148
140 140 140
133 133 133
136 136 136
135 135 135
124 124 124
123 123 123
128 128 128
135 135 135
130 130 130
132 132 132
141 141 141
120 120 120
150 150 150
183 183 183
171 171 171
155 155 155
146 146 146
143 143 143
142 142 142
138 138 138
136 136 136
118 118 118
121 121 121
139 139 139
151 151 151
158 158 158
153 153 153
140 140 140
136 136 136
133 133 133
147 147 147
153 153 153
152 152 152
157 157 157
162 162 162
154 154 154
136 136 136
132 132 132
145 145 145
162 162 162
180 180 180
186 186 186
184 184 184
170 170 170
159 159 159
152 152 152
163 163 163
153 153 153
130 130 130
70 70 70
77 77 77
72 72 72
111 111 111
145 145 145
173 173 173
213 213 213
221 221 221
217 217 217
210 210 210
199 199 199
188 188 188
177 177 177
157 157 157
131 131 131
117 117 117
109 109 109
110 110 110
115 115 115
116 116 116
119 119 119
121 121 121
126 126 126
125 125 125
140 140 140
140 140 140
115 115 115
156 156 156
179 179 179
170 170 170
156 156 156
146 146 146
141 141 141
142 142 142
141 141 141
137 137 137
120 120 120
114 114 114
137 137 137
155 155 155
152 152 152
156 156 156
146 146 146
131 131 131
127 127 127
130 130 130
134 134 134
134 134 134
135 135 135
142 142 142
142 142 142
139 139 139
143 143 143
155 155 155
168 168 168
177 177 177
192 192 192
193 193 193
177 177 177
155 155 155
147 147 147
157 157 157
146 146 146
123 123 123
106 106 106
108 108 108
91 91 91
117 117 117
145 145 145
169 169 169
194 194 194
202 202 202
200 200 200
197 197 197
194 194 194
192 192 192
182 182 182
156 156 156
127 127 127
110 110 110
105 105 105
109 109 109
115 115 115
121 121 121
128 128 128
135 135 135
145 145 145
156 156 156
156 156 156
126 126 126
120 120 120
165 165 165
177 177 177
169 169 169
157 157 157
148 148 148
143 143 143
144 144 144
146 146 146
140 140 140
125 125 125
116 116 116
135 135 135
161 161 161
163 163 163
159 159 159
157 157 157
146 146 146
138 138 138
128 128 128
126 126 126
126 126 126
124 124 124
129 129 129
135 135 135
141 141 141
145 145 145
153 153 153
163 163 163
175 175 175
184 184 184
189 189 189
179 179 179
154 154 154
150 150 150
163 163 163
149 149 149
119 119 119
140 140 140
135 135 135
115 115 115
139 139 139
149 149 149
164 164 164
184 184 184
193 193 193
192 192 192
189 189 189
188 188 188
190 190 190
186 186 186
167 167 167
149 149 149
138 138 138
137 137 137
140 140 140
145 145 145
149 149 149
156 156 156
163 163 163
175 175 175
180 180 180
154 154 154
118 118 118
136 136 136
173 173 173
177 177 177
166 166 166
154 154 154
147 147 147
149 149 149
149 149 149
147 147 147
142 142 142
129 129 129
120 120 120
120 120 120
154 154 154
168 168 168
167 167 167
163 163 163
159 159 159
160 160 160
151 151 151
141 141 141
136 136 136
131 131 131
131 131 131
136 136 136
140 140 140
144 144 144
148 148 148
154 154 154
169 169 169
175 175 175
178 178 178
168 168 168
149 149 149
150 150 150
158 158 158
148 148 148
127 127 127
122 122 122
121 121 121
119 119 119
153 153 153
160 160 160
167 167 167
180 180 180
184 184 184
185 185 185
181 181 181
176 176 176
177 177 177
173 173 173
167 167 167
163 163 163
159 159 159
153 153 153
155 155 155
160 160 160
164 164 164
171 171 171
174 174 174
181 181 181
173 173 173
151 151 151
131 131 131
152 152 152
174 174 174
171 171 171
159 159 159
149 149 149
149 149 149
153 153 153
151 151 151
149 149 149
143 143 143
130 130 130
122 122 122
114 114 114
127 127 127
158 158 158
166 166 166
167 167 167
161 161 161
159 159 159
162 162 162
163 163 163
161 161 161
156 156 156
153 153 153
153 153 153
147 147 147
145 145 145
143 143 143
149 149 149
158 158 158
163 163 163
167 167 167
156 156 156
142 142 142
150 150 150
158 158 158
154 154 154
138 138 138
106 106 106
104 104 104
120 120 120
163 163 163
173 173 173
168 168 168
171 171 171
172 172 172
172 172 172
170 170 170
169 169 169
165 165 165
158 158 158
148 148 148
145 145 145
143 143 143
141 141 141
147 147 147
157 157 157
162 162 162
162 162 162
157 157 157
156 156 156
163 163 163
166 166 166
149 149 149
157 157 157
169 169 169
161 161 161
151 151 151
147 147 147
152 152 152
156 156 156
151 151 151
148 148 148
146 146 146
133 133 133
123 123 123
125 125 125
117 117 117
131 131 131
151 151 151
158 158 158
156 156 156
157 157 157
155 155 155
157 157 157
155 155 155
155 155 155
153 153 153
153 153 153
148 148 148
142 142 142
140 140 140
142 142 142
146 146 146
151 151 151
154 154 154
145 145 145
140 140 140
153 153 153
162 162 162
159 159 159
145 145 145
105 105 105
104 104 104
132 132 132
170 170 170
177 177 177
169 169 169
163 163 163
163 163 163
163 163 163
164 164 164
160 160 160
154 154 154
144 144 144
138 138 138
133 133 133
132 132 132
137 137 137
142 142 142
146 146 146
146 146 146
137 137 137
129 129 129
154 154 154
178 178 178
171 171 171
152 152 152
159 159 159
166 166 166
155 155 155
147 147 147
150 150 150
156 156 156
157 157 157
152 152 152
149 149 149
147 147 147
136 136 136
124 124 124
127 127 127
133 133 133
119 119 119
125 125 125
144 144 144
145 145 145
147 147 147
149 149 149
151 151 151
149 149 149
147 147 147
146 146 146
146 146 146
144 144 144
137 137 137
135 135 135
136 136 136
140 140 140
145 145 145
141 141 141
133 133 133
141 141 141
161 161 161
165 165 165
159 159 159
144 144 144
112 112 112
111 111 111
144 144 144
174 174 174
176 176 176
173 173 173
167 167 167
162 162 162
155 155 155
147 147 147
145 145 145
143 143 143
139 139 139
134 134 134
131 131 131
129 129 129
131 131 131
129 129 129
123 123 123
118 118 118
116 116 116
138 138 138
169 169 169
174 174 174
165 165 165
154 154 154
164 164 164
170 170 170
158 158 158
147 147 147
151 151 151
160 160 160
160 160 160
154 154 154
150 150 150
148 148 148
140 140 140
128 128 128
127 127 127
136 136 136
130 130 130
124 124 124
119 119 119
125 125 125
132 132 132
139 139 139
143 143 143
147 147 147
148 148 148
146 146 146
145 145 145
142 142 142
133 133 133
130 130 130
133 133 133
137 137 137
136 136 136
134 134 134
136 136 136
151 151 151
165 165 165
163 163 163
155 155 155
143 143 143
115 115 115
119 119 119
150 150 150
173 173 173
176 176 176
174 174 174
169 169 169
162 162 162
156 156 156
152 152 152
144 144 144
136 136 136
126 126 126
121 121 121
118 118 118
114 114 114
114 114 114
115 115 115
117 117 117
120 120 120
125 125 125
143 143 143
161 161 161
164 164 164
160 160 160
156 156 156
163 163 163
172 172 172
157 157 157
142 142 142
145 145 145
156 156 156
158 158 158
153 153 153
150 150 150
148 148 148
145 145 145
133 133 133
128 128 128
132 132 132
134 134 134
137 137 137
134 134 134
113 113 113
105 105 105
116 116 116
124 124 124
130 130 130
133 133 133
132 132 132
132 132 132
127 127 127
119 119 119
119 119 119
120 120 120
123 123 123
129 129 129
141 141 141
153 153 153
163 163 163
170 170 170
160 160 160
151 151 151
144 144 144
117 117 117
122 122 122
152 152 152
175 175 175
180 180 180
177 177 177
171 171 171
163 163 163
158 158 158
156 156 156
153 153 153
146 146 146
137 137 137
132 132 132
125 125 125
121 121 121
117 117 117
117 117 117
119 119 119
120 120 120
127 127 127
138 138 138
146 146 146
151 151 151
154 154 154
148 148 148
151 151 151
161 161 161
143 143 143
124 124 124
125 125 125
135 135 135
139 139 139
141 141 141
140 140 140
136 136 136
134 134 134
131 131 131
127 127 127
125 125 125
124 124 124
135 135 135
141 141 141
130 130 130
116 116 116
110 110 110
111 111 111
112 112 112
113 113 113
113 113 113
111 111 111
106 106 106
104 104 104
108 108 108
113 113 113
123 123 123
138 138 138
154 154 154
167 167 167
170 170 170
171 171 171
156 156 156
149 149 149
143 143 143
120 120 120
129 129 129
158 158 158
181 181 181
185 185 185
179 179 179
172 172 172
164 164 164
157 157 157
153 153 153
145 145 145
134 134 134
127 127 127
122 122 122
117 117 117
111 111 111
110 110 110
112 112 112
117 117 117
121 121 121
129 129 129
135 135 135
132 132 132
146 146 146
144 144 144
125 125 125
122 122 122
134 134 134
118 118 118
96 96 96
97 97 97
108 108 108
114 114 114
117 117 117
117 117 117
108 108 108
107 107 107
112 112 112
120 120 120
125 125 125
120 120 120
128 128 128
138 138 138
134 134 134
125 125 125
118 118 118
116 116 116
111 111 111
111 111 111
112 112 112
110 110 110
109 109 109
109 109 109
110 110 110
116 116 116
127 127 127
143 143 143
158 158 158
171 171 171
175 175 175
169 169 169
154 154 154
145 145 145
142 142 142
121 121 121
136 136 136
167 167 167
186 186 186
184 184 184
178 178 178
171 171 171
163 163 163
156 156 156
148 148 148
136 136 136
123 123 123
118 118 118
113 113 113
111 111 111
110 110 110
111 111 111
115 115 115
118 118 118
122 122 122
131 131 131
131 131 131
126 126 126
141 141 141
127 127 127
91 91 91
73 73 73
91 91 91
96 96 96
70 70 70
65 65 65
80 80 80
91 91 91
91 91 91
81 81 81
67 67 67
63 63 63
78 78 78
99 99 99
122 122 122
131 131 131
135 135 135
136 136 136
131 131 131
126 126 126
114 114 114
109 109 109
107 107 107
107 107 107
107 107 107
107 107 107
106 106 106
108 108 108
108 108 108
117 117 117
127 127 127
143 143 143
162 162 162
170 170 170
175 175 175
168 168 168
151 151 151
144 144 144
135 135 135
117 117 117
142 142 142
166 166 166
183 183 183
179 179 179
172 172 172
168 168 168
163 163 163
158 158 158
146 146 146
133 133 133
124 124 124
117 117 117
116 116 116
118 118 118
118 118 118
117 117 117
118 118 118
121 121 121
124 124 124
130 130 130
130 130 130
122 122 122
130 130 130
115 115 115
68 68 68
36 36 36
52 52 52
84 84 84
67 67 67
46 46 46
60 60 60
73 73 73
72 72 72
55 55 55
34 34 34
33 33 33
49 49 49
79 79 79
117 117 117
142 142 142
152 152 152
150 150 150
139 139 139
129 129 129
115 115 115
105 105 105
105 105 105
102 102 102
101 101 101
102 102 102
103 103 103
104 104 104
109 109 109
118 118 118
128 128 128
145 145 145
161 161 161
169 169 169
172 172 172
165 165 165
148 148 148
141 141 141
126 126 126
106 106 106
143 143 143
164 164 164
181 181 181
175 175 175
171 171 171
166 166 166
163 163 163
157 157 157
146 146 146
136 136 136
130 130 130
123 123 123
123 123 123
125 125 125
124 124 124
122 122 122
120 120 120
123 123 123
129 129 129
138 138 138
135 135 135
126 126 126
121 121 121
117 117 117
79 79 79
43 43 43
65 65 65
97 97 97
86 86 86
55 55 55
51 51 51
65 65 65
69 69 69
63 63 63
47 47 47
38 38 38
50 50 50
80 80 80
122 122 122
149 149 149
159 159 159
166 166 166
160 160 160
147 147 147
134 134 134
119 119 119
114 114 114
107 107 107
104 104 104
102 102 102
104 104 104
106 106 106
113 113 113
122 122 122
134 134 134
150 150 150
161 161 161
168 168 168
168 168 168
162 162 162
145 145 145
133 133 133
124 124 124
90 90 90
137 137 137
162 162 162
180 180 180
175 175 175
170 170 170
167 167 167
163 163 163
157 157 157
149 149 149
141 141 141
135 135 135
131 131 131
129 129 129
129 129 129
126 126 126
123 123 123
123 123 123
127 127 127
140 140 140
152 152 152
151 151 151
139 139 139
131 131 131
123 123 123
106 106 106
95 95 95
108 108 108
114 114 114
95 95 95
61 61 61
49 49 49
63 63 63
75 75 75
85 85 85
78 78 78
65 65 65
70 70 70
93 93 93
126 126 126
149 149 149
160 160 160
174 174 174
176 176 176
167 167 167
157 157 157
143 143 143
132 132 132
125 125 125
119 119 119
117 117 117
117 117 117
119 119 119
125 125 125
133 133 133
141 141 141
154 154 154
160 160 160
164 164 164
165 165 165
160 160 160
142 142 142
120 120 120
127 127 127
81 81 81
125 125 125
158 158 158
178 178 178
177 177 177
170 170 170
168 168 168
164 164 164
157 157 157
149 149 149
145 145 145
140 140 140
136 136 136
133 133 133
130 130 130
126 126 126
123 123 123
125 125 125
138 138 138
158 158 158
172 172 172
170 170 170
159 159 159
150 150 150
144 144 144
138 138 138
136 136 136
139 139 139
118 118 118
89 89 89
58 58 58
51 51 51
66 66 66
86 86 86
100 100 100
106 106 106
101 101 101
103 103 103
116 116 116
133 133 133
151 151 151
161 161 161
175 175 175
183 183 183
180 180 180
170 170 170
157 157 157
148 148 148
140 140 140
134 134 134
132 132 132
132 132 132
133 133 133
136 136 136
142 142 142
148 148 148
156 156 156
162 162 162
162 162 162
161 161 161
157 157 157
135 135 135
120 120 120
132 132 132
70 70 70
111 111 111
150 150 150
174 174 174
177 177 177
171 171 171
167 167 167
164 164 164
158 158 158
153 153 153
150 150 150
144 144 144
140 140 140
135 135 135
132 132 132
127 127 127
127 127 127
137 137 137
158 158 158
178 178 178
185 185 185
181 181 181
171 171 171
167 167 167
164 164 164
165 165 165
162 162 162
148 148 148
112 112 112
79 79 79
63 63 63
60 60 60
76 76 76
95 95 95
107 107 107
122 122 122
129 129 129
132 132 132
135 135 135
145 145 145
152 152 152
162 162 162
176 176 176
186 186 186
187 187 187
177 177 177
168 168 168
156 156 156
149 149 149
144 144 144
142 142 142
143 143 143
144 144 144
146 146 146
148 148 148
154 154 154
158 158 158
161 161 161
161 161 161
158 158 158
150 150 150
132 132 132
129 129 129
137 137 137
68 68 68
98 98 98
138 138 138
172 172 172
179 179 179
175 175 175
170 170 170
166 166 166
162 162 162
157 157 157
154 154 154
148 148 148
142 142 142
137 137 137
134 134 134
132 132 132
139 139 139
154 154 154
176 176 176
188 188 188
189 189 189
181 181 181
176 176 176
175 175 175
174 174 174
174 174 174
169 169 169
143 143 143
109 109 109
84 84 84
77 77 77
81 81 81
94 94 94
109 109 109
117 117 117
132 132 132
145 145 145
145 145 145
148 148 148
151 151 151
152 152 152
158 158 158
171 171 171
183 183 183
184 184 184
180 180 180
176 176 176
164 164 164
155 155 155
149 149 149
146 146 146
149 149 149
149 149 149
150 150 150
151 151 151
156 156 156
159 159 159
159 159 159
158 158 158
153 153 153
144 144 144
134 134 134
139 139 139
144 144 144
70 70 70
85 85 85
127 127 127
169 169 169
181 181 181
178 178 178
173 173 173
170 170 170
165 165 165
164 164 164
159 159 159
154 154 154
146 146 146
140 140 140
137 137 137
143 143 143
154 154 154
169 169 169
186 186 186
191 191 191
187 187 187
180 180 180
171 171 171
169 169 169
174 174 174
174 174 174
165 165 165
135 135 135
112 112 112
102 102 102
100 100 100
104 104 104
113 113 113
124 124 124
132 132 132
141 141 141
151 151 151
157 157 157
158 158 158
155 155 155
152 152 152
156 156 156
167 167 167
176 176 176
180 180 180
178 178 178
176 176 176
172 172 172
162 162 162
154 154 154
150 150 150
151 151 151
152 152 152
152 152 152
155 155 155
157 157 157
159 159 159
159 159 159
155 155 155
149 149 149
138 138 138
135 135 135
142 142 142
142 142 142
72 72 72
79 79 79
120 120 120
162 162 162
182 182 182
179 179 179
176 176 176
174 174 174
169 169 169
169 169 169
167 167 167
159 159 159
149 149 149
142 142 142
148 148 148
159 159 159
168 168 168
177 177 177
187 187 187
187 187 187
181 181 181
174 174 174
162 162 162
158 158 158
161 161 161
168 168 168
160 160 160
140 140 140
124 124 124
121 121 121
121 121 121
120 120 120
128 128 128
138 138 138
143 143 143
151 151 151
158 158 158
160 160 160
162 162 162
157 157 157
155 155 155
158 158 158
164 164 164
171 171 171
174 174 174
172 172 172
172 172 172
173 173 173
168 168 168
159 159 159
154 154 154
155 155 155
153 153 153
153 153 153
154 154 154
156 156 156
156 156 156
154 154 154
152 152 152
145 145 145
137 137 137
137 137 137
148 148 148
146 146 146
75 75 75
76 76 76
110 110 110
149 149 149
178 178 178
181 181 181
177 177 177
175 175 175
171 171 171
172 172 172
171 171 171
165 165 165
154 154 154
149 149 149
160 160 160
170 170 170
173 173 173
175 175 175
180 180 180
178 178 178
170 170 170
160 160 160
151 151 151
147 147 147
145 145 145
155 155 155
157 157 157
148 148 148
140 140 140
141 141 141
143 143 143
139 139 139
145 145 145
151 151 151
153 153 153
160 160 160
162 162 162
161 161 161
161 161 161
160 160 160
157 157 157
158 158 158
160 160 160
164 164 164
171 171 171
169 169 169
168 168 168
167 167 167
168 168 168
164 164 164
160 160 160
160 160 160
157 157 157
154 154 154
154 154 154
154 154 154
152 152 152
151 151 151
147 147 147
141 141 141
133 133 133
143 143 143
150 150 150
143 143 143
77 77 77
80 80 80
95 95 95
128 128 128
172 172 172
180 180 180
176 176 176
174 174 174
171 171 171
173 173 173
173 173 173
168 168 168
156 156 156
152 152 152
161 161 161
166 166 166
164 164 164
164 164 164
165 165 165
161 161 161
151 151 151
143 143 143
136 136 136
136 136 136
134 134 134
139 139 139
149 149 149
146 146 146
148 148 148
154 154 154
158 158 158
156 156 156
161 161 161
167 167 167
164 164 164
164 164 164
164 164 164
162 162 162
161 161 161
157 157 157
155 155 155
155 155 155
154 154 154
157 157 157
160 160 160
162 162 162
163 163 163
162 162 162
165 165 165
165 165 165
164 164 164
164 164 164
162 162 162
155 155 155
151 151 151
150 150 150
147 147 147
147 147 147
143 143 143
139 139 139
127 127 127
133 133 133
137 137 137
124 124 124
79 79 79
77 77 77
82 82 82
109 109 109
161 161 161
176 176 176
173 173 173
170 170 170
169 169 169
169 169 169
171 171 171
168 168 168
158 158 158
153 153 153
156 156 156
154 154 154
146 146 146
145 145 145
144 144 144
137 137 137
131 131 131
123 123 123
122 122 122
123 123 123
121 121 121
124 124 124
132 132 132
135 135 135
142 142 142
156 156 156
160 160 160
160 160 160
163 163 163
167 167 167
167 167 167
160 160 160
158 158 158
157 157 157
157 157 157
155 155 155
152 152 152
151 151 151
150 150 150
151 151 151
149 149 149
147 147 147
152 152 152
154 154 154
161 161 161
162 162 162
164 164 164
162 162 162
162 162 162
157 157 157
150 150 150
144 144 144
144 144 144
142 142 142
138 138 138
134 134 134
110 110 110
107 107 107
108 108 108
100 100 100
82 82 82
74 74 74
74 74 74
94 94 94
146 146 146
170 170 170
170 170 170
167 167 167
164 164 164
166 166 166
168 168 168
166 166 166
161 161 161
151 151 151
148 148 148
139 139 139
123 123 123
112 112 112
112 112 112
109 109 109
111 111 111
105 105 105
103 103 103
102 102 102
106 106 106
105 105 105
107 107 107
110 110 110
123 123 123
139 139 139
145 145 145
149 149 149
146 146 146
147 147 147
148 148 148
144 144 144
140 140 140
141 141 141
143 143 143
143 143 143
145 145 145
143 143 143
144 144 144
144 144 144
140 140 140
134 134 134
135 135 135
142 142 142
148 148 148
157 157 157
164 164 164
164 164 164
158 158 158
156 156 156
148 148 148
141 141 141
140 140 140
139 139 139
133 133 133
118 118 118
89 89 89
88 88 88
90 90 90
87 87 87
84 84 84
75 75 75
71 71 71
83 83 83
126 126 126
159 159 159
169 169 169
164 164 164
161 161 161
163 163 163
163 163 163
163 163 163
157 157 157
145 145 145
143 143 143
128 128 128
104 104 104
86 86 86
84 84 84
83 83 83
88 88 88
91 91 91
89 89 89
89 89 89
90 90 90
89 89 89
85 85 85
89 89 89
102 102 102
112 112 112
122 122 122
127 127 127
125 125 125
122 122 122
124 124 124
124 124 124
121 121 121
122 122 122
124 124 124
124 124 124
127 127 127
128 128 128
130 130 130
131 131 131
125 125 125
123 123 123
123 123 123
132 132 132
140 140 140
150 150 150
158 158 158
165 165 165
157 157 157
154 154 154
146 146 146
138 138 138
137 137 137
137 137 137
128 128 128
101 101 101
78 78 78
81 81 81
81 81 81
80 80 80
82 82 82
76 76 76
71 71 71
75 75 75
108 108 108
146 146 146
164 164 164
159 159 159
156 156 156
157 157 157
157 157 157
158 158 158
149 149 149
138 138 138
133 133 133
117 117 117
95 95 95
80 80 80
86 86 86
88 88 88
90 90 90
95 95 95
94 94 94
89 89 89
87 87 87
81 81 81
79 79 79
76 76 76
85 85 85
92 92 92
100 100 100
107 107 107
107 107 107
110 110 110
115 115 115
112 112 112
114 114 114
115 115 115
118 118 118
120 120 120
121 121 121
121 121 121
123 123 123
122 122 122
124 124 124
123 123 123
125 125 125
129 129 129
139 139 139
145 145 145
151 151 151
157 157 157
155 155 155
150 150 150
145 145 145
137 137 137
135 135 135
134 134 134
119 119 119
90 90 90
73 73 73
74 74 74
75 75 75
78 78 78
78 78 78
73 73 73
70 70 70
71 71 71
92 92 92
133 133 133
158 158 158
158 158 158
148 148 148
150 150 150
153 153 153
150 150 150
144 144 144
137 137 137
127 127 127
114 114 114
98 98 98
93 93 93
101 101 101
106 106 106
106 106 106
109 109 109
115 115 115
110 110 110
99 99 99
93 93 93
86 86 86
84 84 84
85 85 85
89 89 89
93 93 93
102 102 102
106 106 106
111 111 111
115 115 115
116 116 116
118 118 118
119 119 119
121 121 121
122 122 122
128 128 128
129 129 129
131 131 131
128 128 128
130 130 130
128 128 128
128 128 128
130 130 130
135 135 135
145 145 145
149 149 149
148 148 148
150 150 150
146 146 146
143 143 143
138 138 138
133 133 133
129 129 129
111 111 111
79 79 79
71 71 71
72 72 72
67 67 67
72 72 72
73 73 73
66 66 66
65 65 65
67 67 67
81 81 81
116 116 116
146 146 146
154 154 154
143 143 143
146 146 146
148 148 148
147 147 147
142 142 142
134 134 134
123 123 123
118 118 118
110 110 110
113 113 113
122 122 122
129 129 129
128 128 128
132 132 132
138 138 138
139 139 139
130 130 130
121 121 121
113 113 113
109 109 109
104 104 104
102 102 102
101 101 101
105 105 105
111 111 111
120 120 120
125 125 125
123 123 123
123 123 123
124 124 124
125 125 125
128 128 128
135 135 135
141 141 141
139 139 139
138 138 138
136 136 136
136 136 136
135 135 135
132 132 132
137 137 137
144 144 144
147 147 147
145 145 145
144 144 144
144 144 144
140 140 140
137 137 137
131 131 131
122 122 122
95 95 95
74 74 74
69 69 69
68 68 68
63 63 63
71 71 71
69 69 69
63 63 63
65 65 65
64 64 64
73 73 73
97 97 97
131 131 131
149 149 149
142 142 142
141 141 141
145 145 145
147 147 147
141 141 141
131 131 131
125 125 125
125 125 125
125 125 125
129 129 129
141 141 141
152 152 152
153 153 153
154 154 154
150 150 150
149 149 149
144 144 144
134 134 134
126 126 126
122 122 122
119 119 119
112 112 112
109 109 109
112 112 112
114 114 114
123 123 123
128 128 128
130 130 130
129 129 129
133 133 133
138 138 138
138 138 138
140 140 140
144 144 144
144 144 144
147 147 147
143 143 143
141 141 141
140 140 140
137 137 137
140 140 140
143 143 143
146 146 146
142 142 142
143 143 143
141 141 141
138 138 138
134 134 134
127 127 127
112 112 112
83 83 83
69 69 69
70 70 70
64 64 64
65 65 65
73 73 73
69 69 69
59 59 59
63 63 63
65 65 65
69 69 69
81 81 81
114 114 114
142 142 142
142 142 142
136 136 136
140 140 140
143 143 143
141 141 141
133 133 133
131 131 131
134 134 134
140 140 140
149 149 149
163 163 163
172 172 172
174 174 174
173 173 173
168 168 168
156 156 156
150 150 150
139 139 139
128 128 128
123 123 123
117 117 117
111 111 111
106 106 106
108 108 108
112 112 112
116 116 116
123 123 123
130 130 130
137 137 137
142 142 142
152 152 152
150 150 150
150 150 150
155 155 155
156 156 156
156 156 156
151 151 151
148 148 148
146 146 146
144 144 144
144 144 144
143 143 143
144 144 144
139 139 139
141 141 141
139 139 139
136 136 136
132 132 132
124 124 124
104 104 104
74 74 74
66 66 66
68 68 68
60 60 60
67 67 67
74 74 74
66 66 66
59 59 59
59 59 59
65 65 65
69 69 69
72 72 72
92 92 92
133 133 133
141 141 141
136 136 136
135 135 135
136 136 136
138 138 138
136 136 136
138 138 138
142 142 142
152 152 152
168 168 168
183 183 183
189 189 189
189 189 189
181 181 181
178 178 178
164 164 164
152 152 152
147 147 147
133 133 133
123 123 123
117 117 117
111 111 111
105 105 105
108 108 108
109 109 109
111 111 111
121 121 121
132 132 132
138 138 138
148 148 148
160 160 160
159 159 159
162 162 162
170 170 170
170 170 170
174 174 174
171 171 171
167 167 167
159 159 159
151 151 151
147 147 147
145 145 145
142 142 142
138 138 138
140 140 140
134 134 134
133 133 133
127 127 127
121 121 121
102 102 102
67 67 67
68 68 68
63 63 63
61 61 61
69 69 69
72 72 72
67 67 67
61 61 61
57 57 57
64 64 64
70 70 70
67 67 67
75 75 75
119 119 119
138 138 138
139 139 139
131 131 131
131 131 131
137 137 137
139 139 139
139 139 139
144 144 144
156 156 156
168 168 168
182 182 182
195 195 195
196 196 196
185 185 185
176 176 176
164 164 164
150 150 150
137 137 137
130 130 130
122 122 122
113 113 113
106 106 106
102 102 102
107 107 107
109 109 109
107 107 107
114 114 114
126 126 126
135 135 135
146 146 146
155 155 155
159 159 159
169 169 169
176 176 176
180 180 180
189 189 189
183 183 183
174 174 174
162 162 162
153 153 153
148 148 148
145 145 145
141 141 141
136 136 136
133 133 133
132 132 132
128 128 128
125 125 125
123 123 123
102 102 102
64 64 64
68 68 68
61 61 61
62 62 62
71 71 71
73 73 73
66 66 66
62 62 62
56 56 56
61 61 61
69 69 69
68 68 68
69 69 69
101 101 101
127 127 127
137 137 137
133 133 133
130 130 130
132 132 132
141 141 141
141 141 141
146 146 146
150 150 150
156 156 156
161 161 161
172 172 172
179 179 179
173 173 173
166 166 166
153 153 153
139 139 139
120 120 120
117 117 117
115 115 115
105 105 105
100 100 100
101 101 101
101 101 101
102 102 102
101 101 101
106 106 106
112 112 112
126 126 126
135 135 135
146 146 146
152 152 152
168 168 168
177 177 177
179 179 179
182 182 182
174 174 174
167 167 167
158 158 158
152 152 152
148 148 148
144 144 144
138 138 138
133 133 133
132 132 132
129 129 129
123 123 123
126 126 126
125 125 125
103 103 103
62 62 62
64 64 64
60 60 60
64 64 64
75 75 75
73 73 73
65 65 65
62 62 62
57 57 57
63 63 63
67 67 67
65 65 65
70 70 70
92 92 92
113 113 113
131 131 131
136 136 136
133 133 133
130 130 130
138 138 138
144 144 144
144 144 144
142 142 142
147 147 147
144 144 144
149 149 149
155 155 155
155 155 155
151 151 151
145 145 145
126 126 126
107 107 107
104 104 104
100 100 100
90 90 90
88 88 88
93 93 93
84 84 84
88 88 88
91 91 91
94 94 94
101 101 101
115 115 115
126 126 126
137 137 137
148 148 148
166 166 166
172 172 172
171 171 171
170 170 170
163 163 163
156 156 156
150 150 150
151 151 151
151 151 151
143 143 143
137 137 137
132 132 132
133 133 133
128 128 128
123 123 123
129 129 129
125 125 125
107 107 107
64 64 64
62 62 62
60 60 60
66 66 66
75 75 75
74 74 74
64 64 64
62 62 62
57 57 57
63 63 63
66 66 66
62 62 62
71 71 71
87 87 87
103 103 103
124 124 124
134 134 134
136 136 136
137 137 137
136 136 136
141 141 141
139 139 139
137 137 137
138 138 138
135 135 135
135 135 135
137 137 137
140 140 140
138 138 138
135 135 135
119 119 119
106 106 106
107 107 107
104 104 104
96 96 96
93 93 93
94 94 94
85 85 85
85 85 85
93 93 93
99 99 99
110 110 110
121 121 121
132 132 132
137 137 137
147 147 147
164 164 164
164 164 164
160 160 160
157 157 157
151 151 151
147 147 147
144 144 144
147 147 147
146 146 146
141 141 141
135 135 135
133 133 133
130 130 130
128 128 128
126 126 126
131 131 131
126 126 126
112 112 112
65 65 65
62 62 62
60 60 60
70 70 70
75 75 75
75 75 75
63 63 63
60 60 60
59 59 59
63 63 63
65 65 65
60 60 60
68 68 68
81 81 81
102 102 102
125 125 125
142 142 142
140 140 140
138 138 138
138 138 138
139 139 139
133 133 133
129 129 129
130 130 130
127 127 127
130 130 130
126 126 126
127 127 127
128 128 128
125 125 125
116 116 116
106 106 106
102 102 102
106 106 106
107 107 107
105 105 105
103 103 103
100 100 100
98 98 98
106 106 106
116 116 116
124 124 124
134 134 134
138 138 138
142 142 142
148 148 148
157 157 157
157 157 157
155 155 155
152 152 152
145 145 145
144 144 144
141 141 141
141 141 141
140 140 140
136 136 136
135 135 135
131 131 131
131 131 131
127 127 127
129 129 129
134 134 134
129 129 129
110 110 110
69 69 69
64 64 64
62 62 62
74 74 74
78 78 78
74 74 74
66 66 66
62 62 62
57 57 57
63 63 63
63 63 63
58 58 58
60 60 60
68 68 68
100 100 100
130 130 130
148 148 148
145 145 145
136 136 136
136 136 136
138 138 138
134 134 134
125 125 125
125 125 125
124 124 124
131 131 131
126 126 126
124 124 124
122 122 122
120 120 120
117 117 117
110 110 110
108 108 108
108 108 108
113 113 113
116 116 116
115 115 115
115 115 115
116 116 116
123 123 123
133 133 133
138 138 138
139 139 139
139 139 139
141 141 141
148 148 148
155 155 155
155 155 155
154 154 154
150 150 150
147 147 147
143 143 143
140 140 140
136 136 136
135 135 135
135 135 135
135 135 135
129 129 129
130 130 130
130 130 130
133 133 133
139 139 139
133 133 133
113 113 113
73 73 73
65 65 65
64 64 64
78 78 78
78 78 78
76 76 76
67 67 67
64 64 64
57 57 57
60 60 60
61 61 61
51 51 51
48 48 48
64 64 64
101 101 101
134 134 134
149 149 149
148 148 148
137 137 137
135 135 135
138 138 138
135 135 135
123 123 123
119 119 119
121 121 121
125 125 125
128 128 128
125 125 125
127 127 127
125 125 125
117 117 117
109 109 109
113 113 113
116 116 116
119 119 119
122 122 122
124 124 124
125 125 125
125 125 125
133 133 133
137 137 137
140 140 140
142 142 142
138 138 138
144 144 144
149 149 149
154 154 154
152 152 152
151 151 151
149 149 149
144 144 144
141 141 141
137 137 137
135 135 135
133 133 133
135 135 135
135 135 135
130 130 130
130 130 130
136 136 136
139 139 139
142 142 142
132 132 132
118 118 118
76 76 76
64 64 64
66 66 66
79 79 79
77 77 77
77 77 77
65 65 65
65 65 65
57 57 57
56 56 56
55 55 55
41 41 41
48 48 48
67 67 67
107 107 107
137 137 137
152 152 152
151 151 151
145 145 145
139 139 139
134 134 134
128 128 128
120 120 120
117 117 117
113 113 113
118 118 118
123 123 123
125 125 125
128 128 128
126 126 126
116 116 116
108 108 108
112 112 112
112 112 112
113 113 113
117 117 117
118 118 118
121 121 121
120 120 120
124 124 124
130 130 130
135 135 135
142 142 142
141 141 141
142 142 142
145 145 145
150 150 150
150 150 150
150 150 150
147 147 147
141 141 141
138 138 138
133 133 133
130 130 130
133 133 133
134 134 134
135 135 135
132 132 132
134 134 134
139 139 139
143 143 143
142 142 142
133 133 133
120 120 120
81 81 81
66 66 66
67 67 67
80 80 80
79 79 79
76 76 76
65 65 65
56 56 56
49 49 49
44 44 44
44 44 44
41 41 41
48 48 48
72 72 72
105 105 105
139 139 139
154 154 154
153 153 153
146 146 146
140 140 140
133 133 133
126 126 126
118 118 118
116 116 116
110 110 110
111 111 111
116 116 116
124 124 124
128 128 128
128 128 128
121 121 121
118 118 118
117 117 117
112 112 112
112 112 112
112 112 112
114 114 114
118 118 118
118 118 118
118 118 118
126 126 126
133 133 133
140 140 140
140 140 140
137 137 137
141 141 141
147 147 147
147 147 147
145 145 145
142 142 142
137 137 137
130 130 130
127 127 127
126 126 126
129 129 129
133 133 133
134 134 134
135 135 135
136 136 136
139 139 139
146 146 146
147 147 147
135 135 135
125 125 125
87 87 87
66 66 66
68 68 68
81 81 81
82 82 82
77 77 77
52 52 52
39 39 39
33 33 33
34 34 34
40 40 40
41 41 41
48 48 48
74 74 74
106 106 106
143 143 143
156 156 156
154 154 154
148 148 148
141 141 141
132 132 132
126 126 126
117 117 117
112 112 112
110 110 110
108 108 108
112 112 112
120 120 120
126 126 126
128 128 128
122 122 122
126 126 126
126 126 126
121 121 121
118 118 118
119 119 119
121 121 121
123 123 123
124 124 124
124 124 124
130 130 130
133 133 133
137 137 137
136 136 136
135 135 135
137 137 137
143 143 143
139 139 139
137 137 137
135 135 135
131 131 131
126 126 126
121 121 121
127 127 127
131 131 131
135 135 135
137 137 137
140 140 140
141 141 141
146 146 146
150 150 150
148 148 148
138 138 138
129 129 129
93 93 93
69 69 69
70 70 70
81 81 81
82 82 82
78 78 78
37 37 37
29 29 29
27 27 27
32 32 32
41 41 41
40 40 40
51 51 51
76 76 76
108 108 108
147 147 147
160 160 160
157 157 157
152 152 152
144 144 144
133 133 133
123 123 123
117 117 117
114 114 114
110 110 110
107 107 107
109 109 109
113 113 113
118 118 118
123 123 123
121 121 121
121 121 121
122 122 122
120 120 120
117 117 117
118 118 118
122 122 122
123 123 123
122 122 122
125 125 125
127 127 127
129 129 129
128 128 128
129 129 129
129 129 129
132 132 132
136 136 136
133 133 133
128 128 128
127 127 127
124 124 124
123 123 123
119 119 119
124 124 124
133 133 133
135 135 135
136 136 136
136 136 136
147 147 147
149 149 149
154 154 154
153 153 153
140 140 140
135 135 135
98 98 98
73 73 73
70 70 70
77 77 77
80 80 80
79 79 79
30 30 30
26 26 26
27 27 27
33 33 33
41 41 41
41 41 41
51 51 51
79 79 79
113 113 113
153 153 153
166 166 166
159 159 159
150 150 150
146 146 146
133 133 133
121 121 121
117 117 117
114 114 114
109 109 109
104 104 104
104 104 104
104 104 104
107 107 107
109 109 109
107 107 107
105 105 105
104 104 104
106 106 106
103 103 103
109 109 109
112 112 112
111 111 111
115 115 115
114 114 114
116 116 116
118 118 118
120 120 120
122 122 122
122 122 122
125 125 125
125 125 125
123 123 123
121 121 121
120 120 120
116 116 116
117 117 117
121 121 121
123 123 123
132 132 132
136 136 136
135 135 135
135 135 135
147 147 147
155 155 155
157 157 157
158 158 158
145 145 145
142 142 142
105 105 105
77 77 77
70 70 70
70 70 70
76 76 76
79 79 79
27 27 27
24 24 24
25 25 25
33 33 33
38 38 38
40 40 40
50 50 50
79 79 79
122 122 122
164 164 164
170 170 170
162 162 162
152 152 152
139 139 139
130 130 130
121 121 121
119 119 119
113 113 113
104 104 104
102 102 102
100 100 100
100 100 100
98 98 98
95 95 95
91 91 91
87 87 87
86 86 86
87 87 87
91 91 91
95 95 95
101 101 101
103 103 103
104 104 104
105 105 105
107 107 107
110 110 110
115 115 115
117 117 117
113 113 113
113 113 113
113 113 113
113 113 113
112 112 112
113 113 113
113 113 113
112 112 112
120 120 120
127 127 127
133 133 133
132 132 132
137 137 137
139 139 139
148 148 148
156 156 156
158 158 158
160 160 160
151 151 151
146 146 146
114 114 114
82 82 82
73 73 73
72 72 72
72 72 72
76 76 76
24 24 24
22 22 22
25 25 25
28 28 28
33 33 33
35 35 35
52 52 52
81 81 81
135 135 135
177 177 177
178 178 178
162 162 162
150 150 150
138 138 138
124 124 124
117 117 117
120 120 120
111 111 111
104 104 104
101 101 101
98 98 98
96 96 96
93 93 93
88 88 88
81 81 81
77 77 77
78 78 78
78 78 78
79 79 79
85 85 85
89 89 89
92 92 92
93 93 93
95 95 95
96 96 96
98 98 98
100 100 100
103 103 103
100 100 100
103 103 103
104 104 104
105 105 105
105 105 105
106 106 106
106 106 106
109 109 109
117 117 117
128 128 128
131 131 131
130 130 130
139 139 139
145 145 145
152 152 152
155 155 155
161 161 161
164 164 164
155 155 155
152 152 152
120 120 120
86 86 86
78 78 78
77 77 77
73 73 73
74 74 74
22 22 22
19 19 19
21 21 21
27 27 27
27 27 27
31 31 31
48 48 48
88 88 88
145 145 145
181 181 181
174 174 174
161 161 161
146 146 146
133 133 133
120 120 120
110 110 110
111 111 111
110 110 110
104 104 104
95 95 95
95 95 95
90 90 90
88 88 88
82 82 82
77 77 77
73 73 73
74 74 74
75 75 75
71 71 71
77 77 77
82 82 82
83 83 83
84 84 84
85 85 85
83 83 83
85 85 85
87 87 87
90 90 90
92 92 92
94 94 94
96 96 96
97 97 97
97 97 97
97 97 97
102 102 102
110 110 110
118 118 118
128 128 128
128 128 128
131 131 131
141 141 141
150 150 150
155 155 155
158 158 158
163 163 163
166 166 166
158 158 158
155 155 155
125 125 125
90 90 90
78 78 78
79 79 79
76 76 76
73 73 73
