P3
64 64
255
136 136 136
138 138 138
140 140 140
142 142 142
147 147 147
153 153 153
157 157 157
158 158 158
157 157 157
157 157 157
156 156 156
155 155 155
155 155 155
154 154 154
152 152 152
151 151 151
150 150 150
149 149 149
149 149 149
148 148 148
148 148 148
148 148 148
148 148 148
148 148 148
148 148 148
148 148 148
148 148 148
149 149 149
149 149 149
151 151 151
152 152 152
152 152 152
153 153 153
153 153 153
155 155 155
155 155 155
156 156 156
158 158 158
159 159 159
160 160 160
161 161 161
163 163 163
164 164 164
165 165 165
166 166 166
167 167 167
168 168 168
170 170 170
170 170 170
171 171 171
171 171 171
171 171 171
171 171 171
172 172 172
172 172 172
171 171 171
170 170 170
170 170 170
170 170 170
168 168 168
167 167 167
166 166 166
161 161 161
152 152 152
136 136 136
138 138 138
140 140 140
143 143 143
147 147 147
153 153 153
157 157 157
157 157 157
157 157 157
157 157 157
156 156 156
155 155 155
154 154 154
153 153 153
152 152 152
151 151 151
151 151 151
149 149 149
149 149 149
148 148 148
148 148 148
148 148 148
148 148 148
148 148 148
148 148 148
148 148 148
149 149 149
149 149 149
149 149 149
150 150 150
151 151 151
151 151 151
152 152 152
153 153 153
154 154 154
154 154 154
155 155 155
157 157 157
158 158 158
159 159 159
160 160 160
161 161 161
162 162 162
164 164 164
165 165 165
166 166 166
167 167 167
168 168 168
169 169 169
170 170 170
171 171 171
171 171 171
171 171 171
172 172 172
173 173 173
172 172 172
171 171 171
171 171 171
171 171 171
169 169 169
168 168 168
167 167 167
163 163 163
155 155 155
135 135 135
138 138 138
141 141 141
144 144 144
148 148 148
154 154 154
156 156 156
157 157 157
157 157 157
157 157 157
156 156 156
154 154 154
154 154 154
153 153 153
152 152 152
151 151 151
151 151 151
150 150 150
149 149 149
149 149 149
148 148 148
149 149 149
149 149 149
148 148 148
148 148 148
148 148 148
149 149 149
150 150 150
150 150 150
150 150 150
151 151 151
151 151 151
152 152 152
153 153 153
153 153 153
154 154 154
155 155 155
156 156 156
157 157 157
158 158 158
159 159 159
161 161 161
161 161 161
162 162 162
164 164 164
164 164 164
166 166 166
167 167 167
168 168 168
169 169 169
169 169 169
170 170 170
170 170 170
171 171 171
172 172 172
172 172 172
172 172 172
172 172 172
171 171 171
169 169 169
168 168 168
167 167 167
164 164 164
156 156 156
135 135 135
138 138 138
141 141 141
145 145 145
150 150 150
154 154 154
156 156 156
157 157 157
157 157 157
156 156 156
155 155 155
154 154 154
153 153 153
153 153 153
152 152 152
151 151 151
151 151 151
150 150 150
149 149 149
148 148 148
149 149 149
149 149 149
149 149 149
148 148 148
149 149 149
149 149 149
149 149 149
150 150 150
151 151 151
151 151 151
151 151 151
151 151 151
152 152 152
152 152 152
153 153 153
154 154 154
154 154 154
156 156 156
157 157 157
158 158 158
158 158 158
159 159 159
160 160 160
161 161 161
162 162 162
163 163 163
164 164 164
165 165 165
166 166 166
167 167 167
168 168 168
168 168 168
169 169 169
170 170 170
171 171 171
171 171 171
171 171 171
171 171 171
171 171 171
170 170 170
168 168 168
167 167 167
164 164 164
157 157 157
134 134 134
137 137 137
141 141 141
145 145 145
150 150 150
154 154 154
155 155 155
157 157 157
157 157 157
156 156 156
154 154 154
154 154 154
153 153 153
152 152 152
152 152 152
151 151 151
151 151 151
150 150 150
149 149 149
149 149 149
149 149 149
149 149 149
149 149 149
149 149 149
149 149 149
149 149 149
150 150 150
150 150 150
152 152 152
152 152 152
152 152 152
152 152 152
153 153 153
153 153 153
153 153 153
154 154 154
155 155 155
156 156 156
156 156 156
157 157 157
157 157 157
157 157 157
158 158 158
159 159 159
160 160 160
161 161 161
161 161 161
163 163 163
164 164 164
165 165 165
165 165 165
166 166 166
167 167 167
167 167 167
168 168 168
169 169 169
170 170 170
170 170 170
170 170 170
170 170 170
168 168 168
167 167 167
164 164 164
158 158 158
133 133 133
137 137 137
141 141 141
146 146 146
151 151 151
153 153 153
154 154 154
156 156 156
156 156 156
155 155 155
154 154 154
154 154 154
153 153 153
151 151 151
151 151 151
150 150 150
150 150 150
149 149 149
149 149 149
149 149 149
149 149 149
149 149 149
149 149 149
148 148 148
149 149 149
150 150 150
150 150 150
150 150 150
152 152 152
153 153 153
153 153 153
153 153 153
154 154 154
154 154 154
153 153 153
153 153 153
154 154 154
155 155 155
155 155 155
156 156 156
156 156 156
155 155 155
156 156 156
157 157 157
157 157 157
158 158 158
159 159 159
160 160 160
161 161 161
161 161 161
162 162 162
163 163 163
163 163 163
164 164 164
165 165 165
167 167 167
168 168 168
168 168 168
169 169 169
169 169 169
168 168 168
167 167 167
164 164 164
159 159 159
134 134 134
137 137 137
142 142 142
147 147 147
151 151 151
153 153 153
154 154 154
156 156 156
156 156 156
155 155 155
153 153 153
152 152 152
150 150 150
149 149 149
148 148 148
148 148 148
148 148 148
148 148 148
148 148 148
148 148 148
148 148 148
148 148 148
148 148 148
148 148 148
149 149 149
149 149 149
149 149 149
150 150 150
152 152 152
152 152 152
153 153 153
154 154 154
155 155 155
155 155 155
153 153 153
153 153 153
153 153 153
154 154 154
154 154 154
155 155 155
154 154 154
154 154 154
153 153 153
153 153 153
154 154 154
155 155 155
156 156 156
156 156 156
157 157 157
158 158 158
159 159 159
160 160 160
159 159 159
159 159 159
161 161 161
163 163 163
164 164 164
166 166 166
167 167 167
167 167 167
167 167 167
167 167 167
165 165 165
160 160 160
135 135 135
138 138 138
143 143 143
148 148 148
152 152 152
154 154 154
155 155 155
156 156 156
154 154 154
152 152 152
150 150 150
149 149 149
148 148 148
147 147 147
146 146 146
146 146 146
146 146 146
146 146 146
146 146 146
145 145 145
145 145 145
145 145 145
146 146 146
147 147 147
148 148 148
149 149 149
149 149 149
151 151 151
151 151 151
151 151 151
153 153 153
154 154 154
155 155 155
155 155 155
153 153 153
152 152 152
151 151 151
152 152 152
154 154 154
152 152 152
151 151 151
151 151 151
149 149 149
148 148 148
149 149 149
150 150 150
150 150 150
151 151 151
151 151 151
152 152 152
153 153 153
155 155 155
155 155 155
153 153 153
155 155 155
158 158 158
160 160 160
161 161 161
163 163 163
164 164 164
165 165 165
166 166 166
164 164 164
159 159 159
137 137 137
140 140 140
144 144 144
149 149 149
153 153 153
155 155 155
155 155 155
153 153 153
150 150 150
148 148 148
146 146 146
145 145 145
144 144 144
143 143 143
144 144 144
143 143 143
145 145 145
143 143 143
143 143 143
143 143 143
143 143 143
143 143 143
144 144 144
146 146 146
147 147 147
147 147 147
149 149 149
150 150 150
150 150 150
150 150 150
152 152 152
154 154 154
155 155 155
154 154 154
153 153 153
152 152 152
149 149 149
149 149 149
152 152 152
149 149 149
147 147 147
147 147 147
146 146 146
143 143 143
143 143 143
144 144 144
144 144 144
150 150 150
149 149 149
149 149 149
149 149 149
152 152 152
154 154 154
150 150 150
148 148 148
151 151 151
155 155 155
158 158 158
159 159 159
159 159 159
162 162 162
164 164 164
162 162 162
158 158 158
137 137 137
140 140 140
144 144 144
150 150 150
155 155 155
155 155 155
153 153 153
150 150 150
145 145 145
144 144 144
144 144 144
145 145 145
145 145 145
145 145 145
145 145 145
145 145 145
146 146 146
144 144 144
144 144 144
145 145 145
145 145 145
145 145 145
145 145 145
147 147 147
149 149 149
149 149 149
149 149 149
150 150 150
149 149 149
149 149 149
152 152 152
153 153 153
154 154 154
154 154 154
151 151 151
149 149 149
146 146 146
146 146 146
151 151 151
149 149 149
146 146 146
148 148 148
147 147 147
141 141 141
141 141 141
141 141 141
141 141 141
154 154 154
156 156 156
155 155 155
153 153 153
154 154 154
157 157 157
156 156 156
152 152 152
149 149 149
151 151 151
155 155 155
157 157 157
158 158 158
159 159 159
161 161 161
161 161 161
156 156 156
137 137 137
140 140 140
144 144 144
150 150 150
156 156 156
155 155 155
151 151 151
147 147 147
144 144 144
145 145 145
146 146 146
148 148 148
148 148 148
148 148 148
148 148 148
148 148 148
148 148 148
146 146 146
146 146 146
146 146 146
148 148 148
147 147 147
147 147 147
150 150 150
153 153 153
153 153 153
156 156 156
153 153 153
150 150 150
151 151 151
151 151 151
153 153 153
153 153 153
153 153 153
151 151 151
148 148 148
145 145 145
144 144 144
147 147 147
148 148 148
147 147 147
146 146 146
144 144 144
141 141 141
141 141 141
141 141 141
143 143 143
150 150 150
159 159 159
162 162 162
164 164 164
164 164 164
165 165 165
164 164 164
163 163 163
161 161 161
158 158 158
152 152 152
155 155 155
156 156 156
157 157 157
159 159 159
160 160 160
156 156 156
137 137 137
139 139 139
144 144 144
151 151 151
156 156 156
153 153 153
150 150 150
147 147 147
146 146 146
148 148 148
149 149 149
151 151 151
150 150 150
150 150 150
150 150 150
150 150 150
151 151 151
149 149 149
150 150 150
149 149 149
151 151 151
150 150 150
150 150 150
154 154 154
160 160 160
158 158 158
159 159 159
164 164 164
160 160 160
155 155 155
154 154 154
156 156 156
157 157 157
155 155 155
153 153 153
149 149 149
146 146 146
146 146 146
146 146 146
145 145 145
144 144 144
142 142 142
141 141 141
141 141 141
141 141 141
142 142 142
145 145 145
149 149 149
162 162 162
165 165 165
165 165 165
164 164 164
164 164 164
163 163 163
162 162 162
161 161 161
162 162 162
161 161 161
152 152 152
155 155 155
157 157 157
159 159 159
159 159 159
156 156 156
136 136 136
139 139 139
147 147 147
153 153 153
155 155 155
152 152 152
151 151 151
151 151 151
151 151 151
153 153 153
153 153 153
154 154 154
154 154 154
154 154 154
153 153 153
154 154 154
152 152 152
150 150 150
149 149 149
149 149 149
151 151 151
150 150 150
151 151 151
154 154 154
161 161 161
164 164 164
164 164 164
163 163 163
164 164 164
158 158 158
155 155 155
157 157 157
157 157 157
156 156 156
155 155 155
153 153 153
149 149 149
147 147 147
144 144 144
144 144 144
143 143 143
142 142 142
142 142 142
143 143 143
145 145 145
148 148 148
151 151 151
158 158 158
169 169 169
168 168 168
167 167 167
166 166 166
162 162 162
157 157 157
154 154 154
151 151 151
153 153 153
157 157 157
153 153 153
154 154 154
157 157 157
159 159 159
159 159 159
156 156 156
134 134 134
139 139 139
147 147 147
151 151 151
153 153 153
152 152 152
155 155 155
156 156 156
157 157 157
156 156 156
153 153 153
152 152 152
155 155 155
156 156 156
156 156 156
156 156 156
155 155 155
153 153 153
153 153 153
153 153 153
154 154 154
153 153 153
152 152 152
152 152 152
155 155 155
159 159 159
161 161 161
161 161 161
163 163 163
159 159 159
156 156 156
155 155 155
156 156 156
155 155 155
156 156 156
153 153 153
149 149 149
147 147 147
144 144 144
143 143 143
143 143 143
143 143 143
144 144 144
146 146 146
149 149 149
152 152 152
153 153 153
157 157 157
168 168 168
170 170 170
169 169 169
169 169 169
166 166 166
158 158 158
154 154 154
148 148 148
147 147 147
152 152 152
155 155 155
155 155 155
156 156 156
158 158 158
158 158 158
157 157 157
134 134 134
145 145 145
151 151 151
150 150 150
150 150 150
152 152 152
158 158 158
160 160 160
159 159 159
156 156 156
150 150 150
153 153 153
157 157 157
156 156 156
154 154 154
154 154 154
153 153 153
154 154 154
154 154 154
153 153 153
154 154 154
152 152 152
149 149 149
146 146 146
146 146 146
148 148 148
151 151 151
160 160 160
162 162 162
161 161 161
157 157 157
155 155 155
155 155 155
154 154 154
151 151 151
149 149 149
148 148 148
147 147 147
144 144 144
144 144 144
145 145 145
148 148 148
150 150 150
151 151 151
151 151 151
151 151 151
151 151 151
151 151 151
156 156 156
163 163 163
165 165 165
165 165 165
159 159 159
156 156 156
155 155 155
151 151 151
148 148 148
151 151 151
155 155 155
155 155 155
156 156 156
158 158 158
157 157 157
156 156 156
134 134 134
142 142 142
146 146 146
145 145 145
148 148 148
152 152 152
159 159 159
161 161 161
159 159 159
155 155 155
153 153 153
156 156 156
155 155 155
153 153 153
153 153 153
153 153 153
151 151 151
152 152 152
154 154 154
154 154 154
155 155 155
152 152 152
148 148 148
146 146 146
145 145 145
144 144 144
147 147 147
155 155 155
159 159 159
158 158 158
154 154 154
152 152 152
152 152 152
151 151 151
149 149 149
146 146 146
146 146 146
147 147 147
146 146 146
149 149 149
150 150 150
153 153 153
154 154 154
153 153 153
153 153 153
151 151 151
148 148 148
148 148 148
148 148 148
152 152 152
156 156 156
157 157 157
155 155 155
153 153 153
154 154 154
152 152 152
150 150 150
151 151 151
155 155 155
156 156 156
161 161 161
163 163 163
156 156 156
156 156 156
134 134 134
138 138 138
141 141 141
147 147 147
150 150 150
152 152 152
158 158 158
161 161 161
160 160 160
158 158 158
157 157 157
155 155 155
152 152 152
154 154 154
154 154 154
152 152 152
150 150 150
150 150 150
152 152 152
153 153 153
154 154 154
153 153 153
150 150 150
148 148 148
147 147 147
146 146 146
148 148 148
152 152 152
158 158 158
156 156 156
153 153 153
153 153 153
152 152 152
150 150 150
149 149 149
148 148 148
147 147 147
147 147 147
149 149 149
155 155 155
154 154 154
154 154 154
155 155 155
155 155 155
155 155 155
155 155 155
150 150 150
146 146 146
147 147 147
150 150 150
152 152 152
151 151 151
153 153 153
154 154 154
155 155 155
155 155 155
155 155 155
153 153 153
154 154 154
155 155 155
156 156 156
159 159 159
160 160 160
156 156 156
134 134 134
137 137 137
140 140 140
146 146 146
149 149 149
150 150 150
155 155 155
159 159 159
159 159 159
160 160 160
158 158 158
155 155 155
155 155 155
156 156 156
155 155 155
153 153 153
152 152 152
152 152 152
153 153 153
152 152 152
150 150 150
151 151 151
152 152 152
152 152 152
149 149 149
149 149 149
149 149 149
152 152 152
158 158 158
156 156 156
153 153 153
152 152 152
152 152 152
150 150 150
149 149 149
149 149 149
146 146 146
147 147 147
151 151 151
154 154 154
155 155 155
154 154 154
153 153 153
153 153 153
153 153 153
154 154 154
153 153 153
151 151 151
152 152 152
153 153 153
153 153 153
150 150 150
148 148 148
152 152 152
156 156 156
158 158 158
159 159 159
158 158 158
155 155 155
154 154 154
152 152 152
152 152 152
152 152 152
152 152 152
132 132 132
134 134 134
136 136 136
143 143 143
149 149 149
150 150 150
158 158 158
163 163 163
163 163 163
162 162 162
160 160 160
157 157 157
156 156 156
155 155 155
152 152 152
150 150 150
149 149 149
150 150 150
150 150 150
148 148 148
148 148 148
150 150 150
151 151 151
150 150 150
150 150 150
151 151 151
146 146 146
152 152 152
158 158 158
156 156 156
153 153 153
151 151 151
151 151 151
150 150 150
149 149 149
149 149 149
145 145 145
146 146 146
150 150 150
153 153 153
155 155 155
154 154 154
152 152 152
152 152 152
151 151 151
153 153 153
154 154 154
153 153 153
154 154 154
155 155 155
153 153 153
150 150 150
149 149 149
152 152 152
156 156 156
159 159 159
160 160 160
159 159 159
156 156 156
154 154 154
153 153 153
155 155 155
153 153 153
149 149 149
133 133 133
134 134 134
132 132 132
140 140 140
148 148 148
153 153 153
161 161 161
163 163 163
163 163 163
162 162 162
160 160 160
159 159 159
157 157 157
154 154 154
149 149 149
146 146 146
145 145 145
146 146 146
147 147 147
147 147 147
148 148 148
148 148 148
149 149 149
149 149 149
151 151 151
151 151 151
145 145 145
153 153 153
157 157 157
156 156 156
153 153 153
151 151 151
150 150 150
150 150 150
150 150 150
149 149 149
146 146 146
145 145 145
150 150 150
154 154 154
153 153 153
155 155 155
153 153 153
151 151 151
150 150 150
150 150 150
151 151 151
150 150 150
151 151 151
152 152 152
152 152 152
151 151 151
151 151 151
154 154 154
157 157 157
158 158 158
161 161 161
160 160 160
157 157 157
153 153 153
152 152 152
154 154 154
152 152 152
148 148 148
141 141 141
140 140 140
136 136 136
141 141 141
147 147 147
152 152 152
157 157 157
160 160 160
160 160 160
160 160 160
159 159 159
159 159 159
158 158 158
153 153 153
148 148 148
145 145 145
145 145 145
145 145 145
147 147 147
148 148 148
149 149 149
151 151 151
153 153 153
154 154 154
154 154 154
147 147 147
146 146 146
154 154 154
157 157 157
155 155 155
153 153 153
151 151 151
150 150 150
151 151 151
151 151 151
149 149 149
147 147 147
146 146 146
150 150 150
155 155 155
155 155 155
155 155 155
155 155 155
153 153 153
152 152 152
150 150 150
150 150 150
149 149 149
149 149 149
150 150 150
150 150 150
151 151 151
152 152 152
153 153 153
156 156 156
158 158 158
159 159 159
159 159 159
157 157 157
153 153 153
152 152 152
155 155 155
152 152 152
147 147 147
148 148 148
145 145 145
141 141 141
145 145 145
148 148 148
152 152 152
156 156 156
159 159 159
159 159 159
158 158 158
158 158 158
159 159 159
158 158 158
155 155 155
152 152 152
150 150 150
150 150 150
151 151 151
152 152 152
153 153 153
154 154 154
155 155 155
157 157 157
158 158 158
152 152 152
145 145 145
149 149 149
155 155 155
157 157 157
155 155 155
152 152 152
151 151 151
152 152 152
151 151 151
151 151 151
150 150 150
148 148 148
146 146 146
147 147 147
153 153 153
156 156 156
156 156 156
156 156 156
155 155 155
155 155 155
154 154 154
152 152 152
151 151 151
150 150 150
150 150 150
151 151 151
151 151 151
152 152 152
152 152 152
154 154 154
156 156 156
157 157 157
158 158 158
156 156 156
152 152 152
152 152 152
154 154 154
152 152 152
149 149 149
145 145 145
142 142 142
141 141 141
148 148 148
150 150 150
152 152 152
155 155 155
157 157 157
157 157 157
157 157 157
156 156 156
156 156 156
155 155 155
155 155 155
154 154 154
153 153 153
152 152 152
153 153 153
154 154 154
155 155 155
156 156 156
156 156 156
157 157 157
156 156 156
151 151 151
147 147 147
151 151 151
156 156 156
155 155 155
153 153 153
152 152 152
151 151 151
152 152 152
152 152 152
151 151 151
150 150 150
148 148 148
147 147 147
146 146 146
148 148 148
154 154 154
156 156 156
156 156 156
155 155 155
155 155 155
156 156 156
156 156 156
156 156 156
155 155 155
154 154 154
154 154 154
153 153 153
152 152 152
152 152 152
153 153 153
154 154 154
155 155 155
156 156 156
154 154 154
151 151 151
153 153 153
154 154 154
153 153 153
151 151 151
142 142 142
140 140 140
142 142 142
150 150 150
153 153 153
153 153 153
154 154 154
155 155 155
155 155 155
155 155 155
155 155 155
154 154 154
152 152 152
151 151 151
150 150 150
150 150 150
150 150 150
151 151 151
153 153 153
154 154 154
154 154 154
153 153 153
152 152 152
153 153 153
154 154 154
151 151 151
152 152 152
155 155 155
153 153 153
152 152 152
151 151 151
152 152 152
153 153 153
152 152 152
151 151 151
151 151 151
148 148 148
147 147 147
147 147 147
146 146 146
149 149 149
153 153 153
154 154 154
154 154 154
154 154 154
154 154 154
154 154 154
154 154 154
154 154 154
154 154 154
154 154 154
153 153 153
152 152 152
151 151 151
152 152 152
152 152 152
153 153 153
154 154 154
152 152 152
151 151 151
153 153 153
155 155 155
154 154 154
152 152 152
141 141 141
140 140 140
144 144 144
151 151 151
153 153 153
153 153 153
152 152 152
153 153 153
153 153 153
154 154 154
153 153 153
152 152 152
150 150 150
149 149 149
148 148 148
148 148 148
149 149 149
150 150 150
150 150 150
151 151 151
149 149 149
147 147 147
152 152 152
156 156 156
154 154 154
151 151 151
153 153 153
154 154 154
152 152 152
151 151 151
151 151 151
153 153 153
153 153 153
152 152 152
151 151 151
151 151 151
149 149 149
147 147 147
148 148 148
149 149 149
147 147 147
148 148 148
152 152 152
152 152 152
152 152 152
152 152 152
153 153 153
152 152 152
152 152 152
152 152 152
152 152 152
152 152 152
150 150 150
150 150 150
150 150 150
151 151 151
152 152 152
151 151 151
150 150 150
151 151 151
154 154 154
155 155 155
154 154 154
151 151 151
142 142 142
141 141 141
146 146 146
152 152 152
153 153 153
153 153 153
153 153 153
153 153 153
152 152 152
150 150 150
150 150 150
150 150 150
149 149 149
148 148 148
148 148 148
147 147 147
148 148 148
147 147 147
146 146 146
145 145 145
145 145 145
149 149 149
154 154 154
155 155 155
153 153 153
152 152 152
154 154 154
155 155 155
153 153 153
151 151 151
151 151 151
153 153 153
154 154 154
152 152 152
151 151 151
151 151 151
149 149 149
147 147 147
147 147 147
150 150 150
149 149 149
148 148 148
147 147 147
148 148 148
149 149 149
150 150 150
151 151 151
152 152 152
152 152 152
152 152 152
152 152 152
151 151 151
149 149 149
149 149 149
150 150 150
150 150 150
150 150 150
150 150 150
150 150 150
153 153 153
155 155 155
154 154 154
153 153 153
151 151 151
143 143 143
142 142 142
147 147 147
152 152 152
153 153 153
154 154 154
153 153 153
153 153 153
152 152 152
151 151 151
150 150 150
149 149 149
147 147 147
146 146 146
145 145 145
145 145 145
145 145 145
145 145 145
145 145 145
146 146 146
147 147 147
150 150 150
153 153 153
153 153 153
152 152 152
152 152 152
154 154 154
156 156 156
153 153 153
150 150 150
151 151 151
153 153 153
153 153 153
152 152 152
152 152 152
151 151 151
150 150 150
148 148 148
147 147 147
149 149 149
149 149 149
150 150 150
150 150 150
146 146 146
145 145 145
146 146 146
148 148 148
149 149 149
149 149 149
149 149 149
149 149 149
148 148 148
147 147 147
147 147 147
147 147 147
148 148 148
149 149 149
151 151 151
153 153 153
155 155 155
156 156 156
154 154 154
152 152 152
152 152 152
143 143 143
143 143 143
148 148 148
152 152 152
154 154 154
154 154 154
154 154 154
153 153 153
152 152 152
152 152 152
151 151 151
150 150 150
149 149 149
148 148 148
147 147 147
146 146 146
145 145 145
145 145 145
146 146 146
146 146 146
147 147 147
149 149 149
150 150 150
151 151 151
151 151 151
151 151 151
152 152 152
154 154 154
151 151 151
148 148 148
148 148 148
149 149 149
150 150 150
151 151 151
150 150 150
149 149 149
149 149 149
148 148 148
147 147 147
147 147 147
147 147 147
149 149 149
151 151 151
149 149 149
147 147 147
145 145 145
145 145 145
146 146 146
146 146 146
146 146 146
145 145 145
145 145 145
144 144 144
145 145 145
146 146 146
147 147 147
150 150 150
153 153 153
155 155 155
156 156 156
156 156 156
153 153 153
152 152 152
151 151 151
143 143 143
144 144 144
149 149 149
154 154 154
155 155 155
154 154 154
154 154 154
153 153 153
152 152 152
151 151 151
150 150 150
148 148 148
147 147 147
146 146 146
145 145 145
144 144 144
144 144 144
144 144 144
145 145 145
146 146 146
147 147 147
148 148 148
147 147 147
150 150 150
150 150 150
146 146 146
146 146 146
149 149 149
147 147 147
144 144 144
144 144 144
145 145 145
146 146 146
147 147 147
147 147 147
145 145 145
144 144 144
145 145 145
147 147 147
148 148 148
146 146 146
148 148 148
150 150 150
150 150 150
148 148 148
147 147 147
146 146 146
145 145 145
145 145 145
145 145 145
145 145 145
145 145 145
145 145 145
145 145 145
146 146 146
148 148 148
151 151 151
154 154 154
156 156 156
156 156 156
155 155 155
152 152 152
151 151 151
151 151 151
143 143 143
145 145 145
151 151 151
155 155 155
155 155 155
154 154 154
153 153 153
152 152 152
151 151 151
150 150 150
148 148 148
146 146 146
145 145 145
144 144 144
144 144 144
144 144 144
144 144 144
145 145 145
145 145 145
146 146 146
147 147 147
147 147 147
146 146 146
149 149 149
147 147 147
140 140 140
138 138 138
142 142 142
144 144 144
140 140 140
139 139 139
140 140 140
142 142 142
142 142 142
140 140 140
137 137 137
136 136 136
139 139 139
144 144 144
148 148 148
149 149 149
149 149 149
149 149 149
149 149 149
148 148 148
146 146 146
145 145 145
144 144 144
144 144 144
144 144 144
144 144 144
144 144 144
144 144 144
144 144 144
146 146 146
148 148 148
151 151 151
154 154 154
156 156 156
156 156 156
155 155 155
152 152 152
151 151 151
150 150 150
142 142 142
146 146 146
151 151 151
154 154 154
154 154 154
153 153 153
152 152 152
152 152 152
152 152 152
150 150 150
148 148 148
146 146 146
145 145 145
145 145 145
145 145 145
145 145 145
145 145 145
145 145 145
146 146 146
146 146 146
146 146 146
147 147 147
145 145 145
147 147 147
144 144 144
136 136 136
131 131 131
135 135 135
143 143 143
140 140 140
135 135 135
136 136 136
139 139 139
139 139 139
136 136 136
131 131 131
131 131 131
134 134 134
140 140 140
148 148 148
151 151 151
153 153 153
152 152 152
150 150 150
148 148 148
146 146 146
144 144 144
144 144 144
143 143 143
143 143 143
143 143 143
143 143 143
143 143 143
145 145 145
146 146 146
148 148 148
151 151 151
154 154 154
155 155 155
156 156 156
154 154 154
151 151 151
150 150 150
148 148 148
140 140 140
146 146 146
150 150 150
154 154 154
153 153 153
152 152 152
152 152 152
152 152 152
151 151 151
150 150 150
148 148 148
147 147 147
146 146 146
146 146 146
147 147 147
146 146 146
146 146 146
146 146 146
146 146 146
146 146 146
148 148 148
147 147 147
146 146 146
145 145 145
144 144 144
138 138 138
132 132 132
137 137 137
144 144 144
143 143 143
136 136 136
134 134 134
137 137 137
138 138 138
137 137 137
133 133 133
131 131 131
134 134 134
140 140 140
148 148 148
152 152 152
154 154 154
155 155 155
154 154 154
151 151 151
149 149 149
146 146 146
146 146 146
144 144 144
144 144 144
143 143 143
144 144 144
144 144 144
145 145 145
147 147 147
149 149 149
152 152 152
154 154 154
155 155 155
155 155 155
154 154 154
150 150 150
149 149 149
147 147 147
136 136 136
145 145 145
150 150 150
154 154 154
153 153 153
152 152 152
152 152 152
152 152 152
151 151 151
150 150 150
149 149 149
148 148 148
147 147 147
147 147 147
147 147 147
147 147 147
146 146 146
146 146 146
146 146 146
148 148 148
150 150 150
150 150 150
148 148 148
146 146 146
145 145 145
142 142 142
141 141 141
144 144 144
146 146 146
143 143 143
135 135 135
133 133 133
136 136 136
139 139 139
140 140 140
138 138 138
136 136 136
137 137 137
141 141 141
148 148 148
152 152 152
154 154 154
156 156 156
156 156 156
155 155 155
153 153 153
150 150 150
149 149 149
147 147 147
146 146 146
146 146 146
146 146 146
146 146 146
147 147 147
149 149 149
150 150 150
152 152 152
153 153 153
154 154 154
154 154 154
153 153 153
150 150 150
146 146 146
148 148 148
135 135 135
142 142 142
149 149 149
153 153 153
153 153 153
152 152 152
152 152 152
152 152 152
151 151 151
150 150 150
149 149 149
149 149 149
148 148 148
148 148 148
147 147 147
147 147 147
146 146 146
146 146 146
148 148 148
151 151 151
154 154 154
154 154 154
152 152 152
150 150 150
149 149 149
148 148 148
148 148 148
149 149 149
146 146 146
140 140 140
134 134 134
133 133 133
136 136 136
140 140 140
143 143 143
143 143 143
142 142 142
142 142 142
145 145 145
149 149 149
152 152 152
154 154 154
157 157 157
158 158 158
157 157 157
155 155 155
153 153 153
151 151 151
150 150 150
149 149 149
149 149 149
149 149 149
149 149 149
149 149 149
150 150 150
151 151 151
152 152 152
153 153 153
153 153 153
153 153 153
153 153 153
148 148 148
146 146 146
149 149 149
133 133 133
140 140 140
147 147 147
152 152 152
153 153 153
152 152 152
151 151 151
151 151 151
151 151 151
150 150 150
150 150 150
149 149 149
149 149 149
148 148 148
148 148 148
147 147 147
147 147 147
148 148 148
151 151 151
155 155 155
156 156 156
156 156 156
154 154 154
153 153 153
152 152 152
152 152 152
152 152 152
150 150 150
144 144 144
137 137 137
134 134 134
135 135 135
138 138 138
142 142 142
144 144 144
147 147 147
147 147 147
148 148 148
149 149 149
151 151 151
152 152 152
154 154 154
157 157 157
159 159 159
159 159 159
157 157 157
155 155 155
153 153 153
151 151 151
151 151 151
150 150 150
151 151 151
151 151 151
151 151 151
151 151 151
152 152 152
153 153 153
153 153 153
153 153 153
152 152 152
151 151 151
148 148 148
147 147 147
150 150 150
133 133 133
137 137 137
144 144 144
152 152 152
153 153 153
153 153 153
152 152 152
151 151 151
151 151 151
151 151 151
151 151 151
150 150 150
149 149 149
148 148 148
148 148 148
148 148 148
148 148 148
151 151 151
155 155 155
157 157 157
157 157 157
156 156 156
155 155 155
155 155 155
154 154 154
153 153 153
153 153 153
148 148 148
142 142 142
138 138 138
137 137 137
139 139 139
142 142 142
145 145 145
146 146 146
148 148 148
150 150 150
150 150 150
151 151 151
151 151 151
151 151 151
153 153 153
156 156 156
158 158 158
158 158 158
157 157 157
156 156 156
154 154 154
152 152 152
151 151 151
151 151 151
151 151 151
152 152 152
152 152 152
152 152 152
152 152 152
153 153 153
152 152 152
152 152 152
151 151 151
150 150 150
148 148 148
149 149 149
151 151 151
133 133 133
135 135 135
143 143 143
151 151 151
153 153 153
153 153 153
153 153 153
152 152 152
152 152 152
152 152 152
152 152 152
151 151 151
150 150 150
149 149 149
148 148 148
149 149 149
151 151 151
154 154 154
157 157 157
158 158 158
157 157 157
156 156 156
154 154 154
153 153 153
154 154 154
154 154 154
152 152 152
146 146 146
142 142 142
141 141 141
141 141 141
143 143 143
145 145 145
147 147 147
148 148 148
150 150 150
151 151 151
152 152 152
152 152 152
152 152 152
151 151 151
153 153 153
155 155 155
157 157 157
157 157 157
157 157 157
156 156 156
156 156 156
154 154 154
152 152 152
151 151 151
151 151 151
152 152 152
152 152 152
152 152 152
152 152 152
152 152 152
152 152 152
151 151 151
150 150 150
148 148 148
148 148 148
150 150 150
151 151 151
134 134 134
135 135 135
142 142 142
150 150 150
154 154 154
153 153 153
153 153 153
153 153 153
152 152 152
153 153 153
153 153 153
152 152 152
150 150 150
149 149 149
150 150 150
152 152 152
153 153 153
155 155 155
157 157 157
157 157 157
156 156 156
154 154 154
152 152 152
151 151 151
151 151 151
153 153 153
151 151 151
147 147 147
144 144 144
144 144 144
145 145 145
145 145 145
147 147 147
148 148 148
149 149 149
151 151 151
152 152 152
152 152 152
153 153 153
152 152 152
152 152 152
153 153 153
154 154 154
156 156 156
156 156 156
156 156 156
156 156 156
156 156 156
155 155 155
153 153 153
152 152 152
152 152 152
152 152 152
152 152 152
152 152 152
152 152 152
152 152 152
151 151 151
151 151 151
149 149 149
148 148 148
148 148 148
151 151 151
151 151 151
135 135 135
134 134 134
140 140 140
147 147 147
153 153 153
154 154 154
153 153 153
153 153 153
153 153 153
153 153 153
154 154 154
153 153 153
151 151 151
150 150 150
152 152 152
154 154 154
154 154 154
154 154 154
155 155 155
155 155 155
154 154 154
152 152 152
150 150 150
149 149 149
148 148 148
150 150 150
151 151 151
149 149 149
147 147 147
148 148 148
148 148 148
148 148 148
149 149 149
150 150 150
151 151 151
152 152 152
153 153 153
152 152 152
152 152 152
153 153 153
152 152 152
153 153 153
154 154 154
154 154 154
156 156 156
155 155 155
155 155 155
155 155 155
155 155 155
154 154 154
153 153 153
153 153 153
152 152 152
151 151 151
151 151 151
151 151 151
151 151 151
151 151 151
150 150 150
149 149 149
147 147 147
149 149 149
151 151 151
151 151 151
135 135 135
135 135 135
137 137 137
143 143 143
152 152 152
154 154 154
153 153 153
153 153 153
153 153 153
153 153 153
154 154 154
153 153 153
152 152 152
151 151 151
153 153 153
153 153 153
152 152 152
152 152 152
153 153 153
152 152 152
150 150 150
149 149 149
147 147 147
147 147 147
147 147 147
147 147 147
149 149 149
148 148 148
149 149 149
150 150 150
151 151 151
150 150 150
152 152 152
153 153 153
153 153 153
153 153 153
153 153 153
153 153 153
153 153 153
152 152 152
152 152 152
152 152 152
152 152 152
153 153 153
154 154 154
154 154 154
154 154 154
154 154 154
155 155 155
154 154 154
154 154 154
154 154 154
154 154 154
152 152 152
151 151 151
150 150 150
150 150 150
150 150 150
149 149 149
148 148 148
146 146 146
147 147 147
149 149 149
147 147 147
135 135 135
135 135 135
135 135 135
140 140 140
150 150 150
153 153 153
153 153 153
152 152 152
152 152 152
153 153 153
153 153 153
153 153 153
152 152 152
152 152 152
152 152 152
151 151 151
149 149 149
149 149 149
149 149 149
147 147 147
146 146 146
145 145 145
144 144 144
145 145 145
144 144 144
145 145 145
146 146 146
147 147 147
148 148 148
151 151 151
151 151 151
151 151 151
152 152 152
153 153 153
154 154 154
152 152 152
152 152 152
152 152 152
152 152 152
152 152 152
151 151 151
151 151 151
151 151 151
152 152 152
151 151 151
151 151 151
152 152 152
153 153 153
154 154 154
154 154 154
154 154 154
154 154 154
154 154 154
153 153 153
151 151 151
149 149 149
149 149 149
149 149 149
148 148 148
147 147 147
143 143 143
143 143 143
143 143 143
142 142 142
135 135 135
134 134 134
134 134 134
138 138 138
147 147 147
152 152 152
152 152 152
152 152 152
152 152 152
152 152 152
153 153 153
153 153 153
153 153 153
152 152 152
151 151 151
148 148 148
145 145 145
143 143 143
143 143 143
142 142 142
142 142 142
142 142 142
141 141 141
141 141 141
142 142 142
141 141 141
142 142 142
143 143 143
145 145 145
148 148 148
150 150 150
151 151 151
150 150 150
150 150 150
151 151 151
150 150 150
149 149 149
150 150 150
150 150 150
150 150 150
150 150 150
150 150 150
150 150 150
150 150 150
149 149 149
149 149 149
149 149 149
150 150 150
151 151 151
153 153 153
154 154 154
154 154 154
153 153 153
152 152 152
150 150 150
149 149 149
149 149 149
149 149 149
147 147 147
144 144 144
139 139 139
140 140 140
140 140 140
139 139 139
135 135 135
134 134 134
133 133 133
136 136 136
143 143 143
150 150 150
152 152 152
151 151 151
151 151 151
152 152 152
152 152 152
153 153 153
152 152 152
151 151 151
150 150 150
147 147 147
142 142 142
139 139 139
138 138 138
138 138 138
138 138 138
139 139 139
139 139 139
139 139 139
140 140 140
139 139 139
139 139 139
140 140 140
142 142 142
144 144 144
147 147 147
148 148 148
147 147 147
147 147 147
147 147 147
147 147 147
146 146 146
146 146 146
147 147 147
147 147 147
147 147 147
147 147 147
148 148 148
148 148 148
147 147 147
146 146 146
146 146 146
148 148 148
150 150 150
152 152 152
153 153 153
154 154 154
153 153 153
152 152 152
150 150 150
148 148 148
148 148 148
148 148 148
146 146 146
141 141 141
137 137 137
138 138 138
138 138 138
138 138 138
135 135 135
134 134 134
133 133 133
134 134 134
140 140 140
147 147 147
151 151 151
150 150 150
150 150 150
151 151 151
150 150 150
151 151 151
151 151 151
149 149 149
148 148 148
145 145 145
141 141 141
138 138 138
139 139 139
139 139 139
139 139 139
140 140 140
140 140 140
139 139 139
139 139 139
138 138 138
138 138 138
138 138 138
140 140 140
142 142 142
144 144 144
145 145 145
145 145 145
145 145 145
146 146 146
146 146 146
146 146 146
146 146 146
146 146 146
147 147 147
147 147 147
146 146 146
147 147 147
146 146 146
146 146 146
146 146 146
147 147 147
148 148 148
150 150 150
151 151 151
152 152 152
153 153 153
153 153 153
151 151 151
150 150 150
148 148 148
148 148 148
147 147 147
144 144 144
139 139 139
137 137 137
137 137 137
137 137 137
137 137 137
135 135 135
134 134 134
133 133 133
134 134 134
137 137 137
144 144 144
150 150 150
150 150 150
148 148 148
149 149 149
150 150 150
150 150 150
149 149 149
149 149 149
147 147 147
145 145 145
143 143 143
141 141 141
143 143 143
143 143 143
143 143 143
143 143 143
144 144 144
143 143 143
141 141 141
140 140 140
139 139 139
139 139 139
140 140 140
141 141 141
142 142 142
144 144 144
144 144 144
146 146 146
146 146 146
146 146 146
146 146 146
147 147 147
147 147 147
147 147 147
148 148 148
148 148 148
148 148 148
148 148 148
148 148 148
147 147 147
148 148 148
148 148 148
149 149 149
151 151 151
152 152 152
152 152 152
152 152 152
151 151 151
150 150 150
149 149 149
147 147 147
146 146 146
143 143 143
137 137 137
136 136 136
137 137 137
136 136 136
136 136 136
135 135 135
133 133 133
133 133 133
133 133 133
135 135 135
141 141 141
147 147 147
149 149 149
147 147 147
148 148 148
149 149 149
149 149 149
148 148 148
148 148 148
146 146 146
146 146 146
145 145 145
146 146 146
147 147 147
148 148 148
147 147 147
148 148 148
149 149 149
149 149 149
147 147 147
145 145 145
143 143 143
143 143 143
142 142 142
142 142 142
142 142 142
143 143 143
145 145 145
146 146 146
147 147 147
147 147 147
147 147 147
147 147 147
147 147 147
148 148 148
149 149 149
150 150 150
150 150 150
150 150 150
149 149 149
149 149 149
149 149 149
148 148 148
150 150 150
151 151 151
151 151 151
151 151 151
151 151 151
151 151 151
149 149 149
148 148 148
147 147 147
145 145 145
140 140 140
137 137 137
136 136 136
136 136 136
135 135 135
137 137 137
135 135 135
133 133 133
133 133 133
132 132 132
134 134 134
138 138 138
144 144 144
149 149 149
147 147 147
147 147 147
148 148 148
149 149 149
148 148 148
147 147 147
146 146 146
147 147 147
148 148 148
148 148 148
150 150 150
152 152 152
152 152 152
152 152 152
151 151 151
151 151 151
150 150 150
148 148 148
146 146 146
146 146 146
146 146 146
145 145 145
145 145 145
145 145 145
146 146 146
147 147 147
148 148 148
149 149 149
149 149 149
150 150 150
150 150 150
150 150 150
151 151 151
151 151 151
152 152 152
152 152 152
151 151 151
151 151 151
151 151 151
150 150 150
150 150 150
151 151 151
151 151 151
151 151 151
151 151 151
150 150 150
149 149 149
147 147 147
146 146 146
143 143 143
138 138 138
136 136 136
136 136 136
136 136 136
136 136 136
138 138 138
136 136 136
133 133 133
133 133 133
133 133 133
133 133 133
135 135 135
141 141 141
147 147 147
147 147 147
146 146 146
147 147 147
148 148 148
148 148 148
147 147 147
147 147 147
148 148 148
150 150 150
152 152 152
154 154 154
156 156 156
156 156 156
156 156 156
155 155 155
152 152 152
151 151 151
149 149 149
147 147 147
146 146 146
146 146 146
145 145 145
145 145 145
145 145 145
146 146 146
147 147 147
148 148 148
149 149 149
151 151 151
152 152 152
153 153 153
153 153 153
153 153 153
154 154 154
154 154 154
154 154 154
153 153 153
152 152 152
152 152 152
151 151 151
151 151 151
150 150 150
151 151 151
150 150 150
150 150 150
149 149 149
148 148 148
147 147 147
146 146 146
142 142 142
136 136 136
135 135 135
136 136 136
135 135 135
137 137 137
139 139 139
136 136 136
134 134 134
133 133 133
133 133 133
133 133 133
133 133 133
137 137 137
145 145 145
147 147 147
146 146 146
145 145 145
146 146 146
147 147 147
147 147 147
148 148 148
149 149 149
152 152 152
155 155 155
157 157 157
158 158 158
158 158 158
157 157 157
156 156 156
154 154 154
151 151 151
150 150 150
148 148 148
147 147 147
146 146 146
145 145 145
145 145 145
145 145 145
146 146 146
146 146 146
148 148 148
150 150 150
151 151 151
153 153 153
155 155 155
154 154 154
155 155 155
156 156 156
156 156 156
157 157 157
156 156 156
156 156 156
154 154 154
152 152 152
151 151 151
151 151 151
150 150 150
150 150 150
150 150 150
148 148 148
148 148 148
146 146 146
145 145 145
141 141 141
135 135 135
135 135 135
135 135 135
136 136 136
138 138 138
139 139 139
136 136 136
135 135 135
133 133 133
133 133 133
134 134 134
133 133 133
134 134 134
143 143 143
147 147 147
147 147 147
145 145 145
145 145 145
146 146 146
148 148 148
148 148 148
149 149 149
152 152 152
154 154 154
157 157 157
159 159 159
159 159 159
157 157 157
156 156 156
153 153 153
151 151 151
148 148 148
147 147 147
146 146 146
145 145 145
144 144 144
144 144 144
145 145 145
146 146 146
145 145 145
146 146 146
148 148 148
150 150 150
152 152 152
154 154 154
154 154 154
156 156 156
157 157 157
158 158 158
160 160 160
158 158 158
157 157 157
154 154 154
153 153 153
152 152 152
151 151 151
150 150 150
149 149 149
148 148 148
147 147 147
146 146 146
146 146 146
146 146 146
141 141 141
134 134 134
135 135 135
135 135 135
137 137 137
139 139 139
139 139 139
136 136 136
135 135 135
134 134 134
133 133 133
134 134 134
133 133 133
133 133 133
140 140 140
144 144 144
146 146 146
145 145 145
145 145 145
145 145 145
147 147 147
148 148 148
149 149 149
150 150 150
152 152 152
153 153 153
155 155 155
156 156 156
155 155 155
154 154 154
151 151 151
149 149 149
145 145 145
145 145 145
145 145 145
143 143 143
143 143 143
143 143 143
143 143 143
143 143 143
143 143 143
144 144 144
145 145 145
148 148 148
149 149 149
151 151 151
152 152 152
155 155 155
157 157 157
157 157 157
158 158 158
157 157 157
155 155 155
154 154 154
152 152 152
152 152 152
151 151 151
150 150 150
148 148 148
148 148 148
147 147 147
146 146 146
146 146 146
146 146 146
142 142 142
134 134 134
135 135 135
136 136 136
138 138 138
140 140 140
139 139 139
136 136 136
135 135 135
134 134 134
134 134 134
134 134 134
133 133 133
134 134 134
138 138 138
142 142 142
145 145 145
146 146 146
145 145 145
145 145 145
146 146 146
148 148 148
149 149 149
148 148 148
150 150 150
150 150 150
150 150 150
152 152 152
152 152 152
151 151 151
150 150 150
146 146 146
143 143 143
143 143 143
142 142 142
140 140 140
140 140 140
141 141 141
140 140 140
140 140 140
141 141 141
142 142 142
143 143 143
146 146 146
148 148 148
150 150 150
152 152 152
155 155 155
156 156 156
156 156 156
156 156 156
155 155 155
153 153 153
152 152 152
152 152 152
152 152 152
151 151 151
149 149 149
148 148 148
148 148 148
147 147 147
146 146 146
147 147 147
146 146 146
142 142 142
134 134 134
135 135 135
136 136 136
138 138 138
140 140 140
139 139 139
136 136 136
135 135 135
134 134 134
135 135 135
134 134 134
132 132 132
134 134 134
137 137 137
140 140 140
144 144 144
146 146 146
146 146 146
146 146 146
146 146 146
147 147 147
147 147 147
147 147 147
148 148 148
148 148 148
148 148 148
148 148 148
149 149 149
149 149 149
148 148 148
145 145 145
143 143 143
144 144 144
143 143 143
142 142 142
141 141 141
142 142 142
140 140 140
140 140 140
142 142 142
143 143 143
145 145 145
147 147 147
149 149 149
150 150 150
151 151 151
155 155 155
155 155 155
154 154 154
153 153 153
152 152 152
151 151 151
151 151 151
151 151 151
151 151 151
150 150 150
149 149 149
148 148 148
147 147 147
147 147 147
147 147 147
147 147 147
146 146 146
143 143 143
135 135 135
136 136 136
137 137 137
139 139 139
140 140 140
140 140 140
136 136 136
135 135 135
135 135 135
135 135 135
134 134 134
132 132 132
134 134 134
136 136 136
140 140 140
144 144 144
147 147 147
147 147 147
147 147 147
146 146 146
147 147 147
146 146 146
145 145 145
146 146 146
146 146 146
147 147 147
146 146 146
147 147 147
147 147 147
146 146 146
145 145 145
143 143 143
143 143 143
144 144 144
144 144 144
144 144 144
144 144 144
143 143 143
143 143 143
144 144 144
146 146 146
148 148 148
149 149 149
150 150 150
151 151 151
152 152 152
154 154 154
153 153 153
153 153 153
153 153 153
151 151 151
151 151 151
150 150 150
150 150 150
150 150 150
149 149 149
149 149 149
147 147 147
147 147 147
147 147 147
147 147 147
148 148 148
147 147 147
143 143 143
136 136 136
137 137 137
138 138 138
140 140 140
141 141 141
140 140 140
136 136 136
135 135 135
134 134 134
135 135 135
134 134 134
132 132 132
133 133 133
134 134 134
139 139 139
145 145 145
148 148 148
148 148 148
146 146 146
146 146 146
146 146 146
146 146 146
144 144 144
145 145 145
145 145 145
147 147 147
146 146 146
146 146 146
146 146 146
146 146 146
145 145 145
144 144 144
144 144 144
144 144 144
145 145 145
146 146 146
146 146 146
146 146 146
146 146 146
147 147 147
149 149 149
150 150 150
150 150 150
150 150 150
151 151 151
152 152 152
153 153 153
153 153 153
153 153 153
152 152 152
152 152 152
151 151 151
150 150 150
149 149 149
149 149 149
149 149 149
148 148 148
147 147 147
148 148 148
147 147 147
148 148 148
149 149 149
147 147 147
143 143 143
137 137 137
138 138 138
138 138 138
141 141 141
141 141 141
140 140 140
136 136 136
136 136 136
135 135 135
135 135 135
134 134 134
131 131 131
130 130 130
133 133 133
140 140 140
146 146 146
149 149 149
148 148 148
146 146 146
146 146 146
146 146 146
146 146 146
144 144 144
144 144 144
144 144 144
146 146 146
147 147 147
146 146 146
147 147 147
147 147 147
145 145 145
144 144 144
145 145 145
146 146 146
146 146 146
147 147 147
147 147 147
148 148 148
148 148 148
149 149 149
150 150 150
151 151 151
151 151 151
150 150 150
151 151 151
152 152 152
153 153 153
153 153 153
153 153 153
152 152 152
151 151 151
151 151 151
150 150 150
149 149 149
149 149 149
149 149 149
149 149 149
147 147 147
148 148 148
148 148 148
149 149 149
149 149 149
147 147 147
145 145 145
138 138 138
138 138 138
139 139 139
141 141 141
141 141 141
140 140 140
136 136 136
136 136 136
134 134 134
134 134 134
134 134 134
130 130 130
130 130 130
133 133 133
141 141 141
146 146 146
149 149 149
149 149 149
148 148 148
146 146 146
146 146 146
145 145 145
143 143 143
143 143 143
143 143 143
144 144 144
146 146 146
147 147 147
147 147 147
147 147 147
145 145 145
144 144 144
145 145 145
145 145 145
145 145 145
146 146 146
146 146 146
147 147 147
147 147 147
147 147 147
149 149 149
150 150 150
151 151 151
151 151 151
151 151 151
152 152 152
153 153 153
153 153 153
152 152 152
152 152 152
151 151 151
150 150 150
149 149 149
148 148 148
148 148 148
148 148 148
148 148 148
148 148 148
148 148 148
149 149 149
149 149 149
149 149 149
147 147 147
145 145 145
139 139 139
138 138 138
139 139 139
141 141 141
141 141 141
140 140 140
136 136 136
134 134 134
133 133 133
132 132 132
132 132 132
130 130 130
130 130 130
134 134 134
141 141 141
147 147 147
149 149 149
149 149 149
148 148 148
147 147 147
146 146 146
144 144 144
143 143 143
143 143 143
142 142 142
143 143 143
144 144 144
146 146 146
147 147 147
148 148 148
146 146 146
146 146 146
146 146 146
145 145 145
145 145 145
145 145 145
146 146 146
146 146 146
146 146 146
146 146 146
148 148 148
149 149 149
151 151 151
151 151 151
150 150 150
151 151 151
152 152 152
152 152 152
152 152 152
151 151 151
150 150 150
148 148 148
148 148 148
147 147 147
148 148 148
148 148 148
148 148 148
148 148 148
148 148 148
148 148 148
150 150 150
150 150 150
148 148 148
147 147 147
140 140 140
138 138 138
139 139 139
142 142 142
141 141 141
140 140 140
133 133 133
131 131 131
130 130 130
130 130 130
131 131 131
131 131 131
131 131 131
135 135 135
140 140 140
147 147 147
150 150 150
149 149 149
148 148 148
147 147 147
145 145 145
144 144 144
143 143 143
142 142 142
142 142 142
142 142 142
143 143 143
145 145 145
147 147 147
147 147 147
146 146 146
147 147 147
148 148 148
147 147 147
146 146 146
146 146 146
147 147 147
147 147 147
147 147 147
147 147 147
148 148 148
149 149 149
150 150 150
150 150 150
150 150 150
150 150 150
151 151 151
151 151 151
150 150 150
150 150 150
149 149 149
147 147 147
146 146 146
147 147 147
148 148 148
149 149 149
149 149 149
149 149 149
149 149 149
149 149 149
150 150 150
150 150 150
149 149 149
147 147 147
142 142 142
139 139 139
139 139 139
141 141 141
141 141 141
140 140 140
130 130 130
129 129 129
129 129 129
129 129 129
131 131 131
131 131 131
132 132 132
135 135 135
141 141 141
148 148 148
150 150 150
150 150 150
149 149 149
147 147 147
146 146 146
144 144 144
143 143 143
142 142 142
141 141 141
141 141 141
142 142 142
143 143 143
145 145 145
146 146 146
146 146 146
146 146 146
147 147 147
147 147 147
146 146 146
146 146 146
147 147 147
147 147 147
147 147 147
147 147 147
148 148 148
148 148 148
148 148 148
149 149 149
149 149 149
149 149 149
150 150 150
149 149 149
148 148 148
148 148 148
147 147 147
147 147 147
146 146 146
147 147 147
148 148 148
149 149 149
148 148 148
148 148 148
150 150 150
150 150 150
151 151 151
152 152 152
149 149 149
149 149 149
142 142 142
139 139 139
139 139 139
141 141 141
141 141 141
140 140 140
129 129 129
128 128 128
129 129 129
130 130 130
131 131 131
131 131 131
132 132 132
136 136 136
141 141 141
149 149 149
152 152 152
150 150 150
149 149 149
148 148 148
146 146 146
144 144 144
143 143 143
142 142 142
141 141 141
140 140 140
141 141 141
141 141 141
142 142 142
143 143 143
143 143 143
143 143 143
143 143 143
143 143 143
143 143 143
144 144 144
145 145 145
144 144 144
145 145 145
145 145 145
146 146 146
146 146 146
147 147 147
147 147 147
147 147 147
148 148 148
148 148 148
147 147 147
147 147 147
147 147 147
146 146 146
146 146 146
146 146 146
146 146 146
148 148 148
148 148 148
148 148 148
148 148 148
150 150 150
152 152 152
152 152 152
153 153 153
151 151 151
150 150 150
144 144 144
140 140 140
139 139 139
139 139 139
140 140 140
140 140 140
128 128 128
128 128 128
128 128 128
130 130 130
131 131 131
131 131 131
132 132 132
136 136 136
143 143 143
151 151 151
152 152 152
151 151 151
149 149 149
147 147 147
146 146 146
144 144 144
143 143 143
142 142 142
140 140 140
140 140 140
140 140 140
140 140 140
140 140 140
140 140 140
140 140 140
139 139 139
139 139 139
140 140 140
141 141 141
142 142 142
143 143 143
143 143 143
143 143 143
144 144 144
144 144 144
145 145 145
146 146 146
146 146 146
145 145 145
146 146 146
145 145 145
145 145 145
145 145 145
145 145 145
145 145 145
144 144 144
146 146 146
147 147 147
148 148 148
147 147 147
148 148 148
149 149 149
150 150 150
152 152 152
153 153 153
153 153 153
152 152 152
151 151 151
145 145 145
141 141 141
140 140 140
139 139 139
139 139 139
140 140 140
128 128 128
128 128 128
128 128 128
129 129 129
130 130 130
130 130 130
132 132 132
136 136 136
146 146 146
154 154 154
154 154 154
151 151 151
148 148 148
147 147 147
145 145 145
143 143 143
144 144 144
142 142 142
140 140 140
140 140 140
140 140 140
140 140 140
139 139 139
139 139 139
138 138 138
137 137 137
138 138 138
138 138 138
139 139 139
140 140 140
141 141 141
141 141 141
141 141 141
142 142 142
142 142 142
142 142 142
143 143 143
144 144 144
143 143 143
144 144 144
143 143 143
144 144 144
143 143 143
143 143 143
143 143 143
144 144 144
145 145 145
147 147 147
147 147 147
147 147 147
149 149 149
150 150 150
151 151 151
152 152 152
153 153 153
154 154 154
153 153 153
152 152 152
146 146 146
141 141 141
141 141 141
141 141 141
139 139 139
139 139 139
127 127 127
127 127 127
127 127 127
128 128 128
128 128 128
130 130 130
131 131 131
137 137 137
147 147 147
154 154 154
153 153 153
151 151 151
148 148 148
146 146 146
144 144 144
142 142 142
142 142 142
142 142 142
141 141 141
139 139 139
139 139 139
139 139 139
138 138 138
137 137 137
137 137 137
136 136 136
137 137 137
137 137 137
137 137 137
138 138 138
139 139 139
140 140 140
140 140 140
140 140 140
140 140 140
140 140 140
140 140 140
141 141 141
141 141 141
141 141 141
142 142 142
142 142 142
142 142 142
142 142 142
142 142 142
144 144 144
145 145 145
147 147 147
147 147 147
147 147 147
149 149 149
151 151 151
152 152 152
153 153 153
154 154 154
155 155 155
153 153 153
153 153 153
147 147 147
142 142 142
141 141 141
141 141 141
140 140 140
139 139 139
