P3
64 64
255
110 110 110
112 112 112
113 113 113
112 112 112
110 110 110
108 108 108
106 106 106
104 104 104
103 103 103
102 102 102
102 102 102
102 102 102
102 102 102
102 102 102
103 103 103
103 103 103
103 103 103
103 103 103
103 103 103
103 103 103
103 103 103
103 103 103
103 103 103
103 103 103
103 103 103
103 103 103
102 102 102
102 102 102
102 102 102
101 101 101
101 101 101
101 101 101
101 101 101
101 101 101
100 100 100
100 100 100
99 99 99
98 98 98
98 98 98
98 98 98
97 97 97
97 97 97
96 96 96
96 96 96
95 95 95
95 95 95
95 95 95
94 94 94
94 94 94
94 94 94
94 94 94
93 93 93
93 93 93
93 93 93
94 94 94
94 94 94
94 94 94
94 94 94
94 94 94
95 95 95
96 96 96
95 95 95
95 95 95
97 97 97
111 111 111
113 113 113
114 114 114
112 112 112
110 110 110
108 108 108
106 106 106
104 104 104
103 103 103
102 102 102
102 102 102
102 102 102
102 102 102
103 103 103
103 103 103
103 103 103
103 103 103
103 103 103
103 103 103
103 103 103
103 103 103
103 103 103
103 103 103
103 103 103
103 103 103
103 103 103
102 102 102
102 102 102
102 102 102
101 101 101
101 101 101
101 101 101
101 101 101
101 101 101
100 100 100
100 100 100
100 100 100
99 99 99
99 99 99
99 99 99
98 98 98
98 98 98
97 97 97
97 97 97
96 96 96
96 96 96
95 95 95
95 95 95
94 94 94
94 94 94
94 94 94
94 94 94
94 94 94
94 94 94
93 93 93
94 94 94
94 94 94
94 94 94
94 94 94
95 95 95
95 95 95
95 95 95
95 95 95
97 97 97
112 112 112
113 113 113
114 114 114
112 112 112
110 110 110
108 108 108
106 106 106
104 104 104
102 102 102
102 102 102
102 102 102
102 102 102
103 103 103
103 103 103
103 103 103
103 103 103
103 103 103
104 104 104
104 104 104
103 103 103
103 103 103
103 103 103
103 103 103
103 103 103
103 103 103
103 103 103
102 102 102
102 102 102
102 102 102
102 102 102
101 101 101
101 101 101
101 101 101
101 101 101
101 101 101
101 101 101
100 100 100
100 100 100
100 100 100
99 99 99
99 99 99
98 98 98
98 98 98
97 97 97
97 97 97
96 96 96
96 96 96
95 95 95
95 95 95
95 95 95
94 94 94
94 94 94
94 94 94
94 94 94
94 94 94
94 94 94
94 94 94
94 94 94
94 94 94
95 95 95
95 95 95
96 96 96
95 95 95
96 96 96
113 113 113
114 114 114
114 114 114
112 112 112
110 110 110
108 108 108
106 106 106
104 104 104
102 102 102
102 102 102
103 103 103
103 103 103
103 103 103
103 103 103
103 103 103
103 103 103
103 103 103
103 103 103
104 104 104
104 104 104
103 103 103
103 103 103
103 103 103
103 103 103
103 103 103
103 103 103
102 102 102
102 102 102
102 102 102
102 102 102
102 102 102
102 102 102
101 101 101
101 101 101
101 101 101
101 101 101
101 101 101
100 100 100
100 100 100
100 100 100
100 100 100
99 99 99
99 99 99
98 98 98
98 98 98
97 97 97
97 97 97
96 96 96
96 96 96
96 96 96
95 95 95
95 95 95
95 95 95
94 94 94
94 94 94
94 94 94
94 94 94
94 94 94
94 94 94
95 95 95
95 95 95
96 96 96
95 95 95
96 96 96
114 114 114
115 115 115
114 114 114
112 112 112
110 110 110
108 108 108
106 106 106
104 104 104
102 102 102
103 103 103
103 103 103
103 103 103
103 103 103
103 103 103
103 103 103
104 104 104
104 104 104
104 104 104
104 104 104
104 104 104
104 104 104
103 103 103
103 103 103
103 103 103
103 103 103
103 103 103
102 102 102
102 102 102
102 102 102
101 101 101
101 101 101
102 102 102
101 101 101
102 102 102
102 102 102
101 101 101
101 101 101
101 101 101
100 100 100
100 100 100
100 100 100
100 100 100
100 100 100
99 99 99
99 99 99
99 99 99
98 98 98
98 98 98
97 97 97
97 97 97
97 97 97
96 96 96
96 96 96
95 95 95
95 95 95
95 95 95
95 95 95
95 95 95
95 95 95
95 95 95
95 95 95
96 96 96
96 96 96
96 96 96
114 114 114
115 115 115
115 115 115
112 112 112
110 110 110
108 108 108
106 106 106
104 104 104
103 103 103
103 103 103
103 103 103
103 103 103
103 103 103
103 103 103
104 104 104
104 104 104
104 104 104
104 104 104
104 104 104
103 103 103
103 103 103
103 103 103
103 103 103
102 102 102
102 102 102
102 102 102
102 102 102
102 102 102
101 101 101
101 101 101
101 101 101
101 101 101
101 101 101
101 101 101
102 102 102
101 101 101
101 101 101
101 101 101
101 101 101
101 101 101
101 101 101
101 101 101
101 101 101
101 101 101
100 100 100
100 100 100
100 100 100
99 99 99
98 98 98
98 98 98
98 98 98
97 97 97
97 97 97
96 96 96
96 96 96
96 96 96
96 96 96
95 95 95
95 95 95
95 95 95
96 96 96
96 96 96
96 96 96
96 96 96
115 115 115
115 115 115
115 115 115
112 112 112
110 110 110
108 108 108
106 106 106
104 104 104
103 103 103
103 103 103
103 103 103
103 103 103
103 103 103
103 103 103
104 104 104
104 104 104
104 104 104
103 103 103
103 103 103
103 103 103
102 102 102
102 102 102
102 102 102
102 102 102
101 101 101
101 101 101
101 101 101
101 101 101
101 101 101
101 101 101
101 101 101
101 101 101
101 101 101
101 101 101
102 102 102
101 101 101
101 101 101
101 101 101
101 101 101
101 101 101
101 101 101
101 101 101
101 101 101
101 101 101
101 101 101
100 100 100
100 100 100
100 100 100
99 99 99
99 99 99
99 99 99
98 98 98
99 99 99
99 99 99
97 97 97
97 97 97
97 97 97
97 97 97
96 96 96
96 96 96
96 96 96
96 96 96
96 96 96
96 96 96
114 114 114
115 115 115
114 114 114
112 112 112
109 109 109
108 108 108
106 106 106
104 104 104
104 104 104
104 104 104
104 104 104
103 103 103
103 103 103
103 103 103
103 103 103
103 103 103
103 103 103
103 103 103
102 102 102
102 102 102
102 102 102
102 102 102
101 101 101
101 101 101
101 101 101
101 101 101
100 100 100
100 100 100
100 100 100
100 100 100
101 101 101
101 101 101
101 101 101
101 101 101
101 101 101
101 101 101
101 101 101
101 101 101
101 101 101
101 101 101
101 101 101
101 101 101
101 101 101
101 101 101
101 101 101
100 100 100
100 100 100
100 100 100
100 100 100
100 100 100
100 100 100
99 99 99
99 99 99
100 100 100
100 100 100
98 98 98
98 98 98
98 98 98
98 98 98
98 98 98
97 97 97
97 97 97
96 96 96
96 96 96
114 114 114
115 115 115
114 114 114
111 111 111
108 108 108
107 107 107
105 105 105
104 104 104
104 104 104
104 104 104
104 104 104
103 103 103
103 103 103
103 103 103
103 103 103
103 103 103
102 102 102
102 102 102
102 102 102
102 102 102
102 102 102
102 102 102
101 101 101
101 101 101
101 101 101
100 100 100
100 100 100
99 99 99
100 100 100
100 100 100
100 100 100
101 101 101
101 101 101
101 101 101
101 101 101
101 101 101
102 102 102
101 101 101
100 100 100
101 101 101
101 101 101
101 101 101
101 101 101
102 102 102
102 102 102
102 102 102
102 102 102
100 100 100
100 100 100
100 100 100
100 100 100
99 99 99
98 98 98
100 100 100
101 101 101
100 100 100
99 99 99
99 99 99
99 99 99
100 100 100
99 99 99
98 98 98
97 97 97
97 97 97
114 114 114
115 115 115
114 114 114
111 111 111
108 108 108
106 106 106
105 105 105
104 104 104
105 105 105
105 105 105
105 105 105
103 103 103
103 103 103
103 103 103
102 102 102
102 102 102
101 101 101
102 102 102
102 102 102
102 102 102
101 101 101
101 101 101
101 101 101
101 101 101
100 100 100
100 100 100
100 100 100
99 99 99
100 100 100
100 100 100
100 100 100
101 101 101
101 101 101
101 101 101
101 101 101
102 102 102
103 103 103
102 102 102
100 100 100
101 101 101
102 102 102
101 101 101
101 101 101
103 103 103
103 103 103
103 103 103
102 102 102
99 99 99
98 98 98
99 99 99
99 99 99
99 99 99
98 98 98
99 99 99
100 100 100
101 101 101
100 100 100
99 99 99
99 99 99
100 100 100
100 100 100
99 99 99
98 98 98
98 98 98
114 114 114
114 114 114
113 113 113
111 111 111
108 108 108
106 106 106
104 104 104
104 104 104
105 105 105
105 105 105
104 104 104
103 103 103
103 103 103
103 103 103
102 102 102
102 102 102
101 101 101
101 101 101
102 102 102
102 102 102
101 101 101
101 101 101
101 101 101
101 101 101
100 100 100
100 100 100
99 99 99
99 99 99
100 100 100
101 101 101
101 101 101
101 101 101
101 101 101
101 101 101
101 101 101
103 103 103
104 104 104
103 103 103
102 102 102
102 102 102
102 102 102
102 102 102
103 103 103
104 104 104
103 103 103
103 103 103
102 102 102
100 100 100
98 98 98
97 97 97
97 97 97
97 97 97
97 97 97
97 97 97
98 98 98
98 98 98
99 99 99
100 100 100
98 98 98
99 99 99
100 100 100
100 100 100
99 99 99
98 98 98
114 114 114
115 115 115
113 113 113
111 111 111
107 107 107
105 105 105
104 104 104
105 105 105
105 105 105
105 105 105
105 105 105
104 104 104
103 103 103
102 102 102
101 101 101
101 101 101
100 100 100
101 101 101
100 100 100
101 101 101
100 100 100
100 100 100
100 100 100
99 99 99
98 98 98
99 99 99
99 99 99
97 97 97
98 98 98
100 100 100
101 101 101
100 100 100
100 100 100
101 101 101
101 101 101
103 103 103
104 104 104
104 104 104
104 104 104
104 104 104
104 104 104
104 104 104
104 104 104
103 103 103
103 103 103
102 102 102
102 102 102
101 101 101
97 97 97
97 97 97
97 97 97
97 97 97
97 97 97
98 98 98
99 99 99
99 99 99
98 98 98
97 97 97
99 99 99
99 99 99
100 100 100
100 100 100
100 100 100
99 99 99
115 115 115
115 115 115
112 112 112
110 110 110
107 107 107
105 105 105
105 105 105
105 105 105
105 105 105
105 105 105
104 104 104
103 103 103
101 101 101
100 100 100
100 100 100
100 100 100
100 100 100
101 101 101
101 101 101
101 101 101
101 101 101
100 100 100
100 100 100
99 99 99
97 97 97
97 97 97
97 97 97
98 98 98
98 98 98
100 100 100
100 100 100
100 100 100
100 100 100
100 100 100
101 101 101
102 102 102
104 104 104
104 104 104
105 105 105
104 104 104
104 104 104
103 103 103
103 103 103
102 102 102
101 101 101
101 101 101
100 100 100
98 98 98
95 95 95
96 96 96
96 96 96
97 97 97
98 98 98
100 100 100
102 102 102
102 102 102
101 101 101
99 99 99
99 99 99
99 99 99
100 100 100
100 100 100
100 100 100
99 99 99
116 116 116
115 115 115
112 112 112
110 110 110
107 107 107
106 106 106
104 104 104
104 104 104
103 103 103
103 103 103
103 103 103
103 103 103
102 102 102
102 102 102
102 102 102
101 101 101
100 100 100
100 100 100
100 100 100
100 100 100
100 100 100
100 100 100
100 100 100
100 100 100
99 99 99
98 98 98
97 97 97
98 98 98
98 98 98
100 100 100
100 100 100
100 100 100
100 100 100
101 101 101
101 101 101
102 102 102
104 104 104
104 104 104
105 105 105
104 104 104
103 103 103
103 103 103
102 102 102
101 101 101
101 101 101
100 100 100
99 99 99
98 98 98
95 95 95
95 95 95
95 95 95
96 96 96
97 97 97
100 100 100
102 102 102
104 104 104
103 103 103
101 101 101
99 99 99
99 99 99
100 100 100
100 100 100
99 99 99
99 99 99
116 116 116
113 113 113
110 110 110
110 110 110
108 108 108
106 106 106
104 104 104
103 103 103
102 102 102
102 102 102
105 105 105
106 106 106
104 104 104
103 103 103
102 102 102
100 100 100
100 100 100
99 99 99
98 98 98
99 99 99
99 99 99
101 101 101
101 101 101
102 102 102
102 102 102
101 101 101
99 99 99
98 98 98
99 99 99
99 99 99
100 100 100
100 100 100
100 100 100
101 101 101
102 102 102
103 103 103
104 104 104
104 104 104
104 104 104
103 103 103
102 102 102
102 102 102
101 101 101
101 101 101
101 101 101
101 101 101
100 100 100
99 99 99
98 98 98
97 97 97
97 97 97
97 97 97
99 99 99
100 100 100
101 101 101
103 103 103
104 104 104
102 102 102
100 100 100
99 99 99
99 99 99
99 99 99
100 100 100
100 100 100
115 115 115
113 113 113
112 112 112
111 111 111
108 108 108
107 107 107
103 103 103
101 101 101
101 101 101
102 102 102
105 105 105
105 105 105
104 104 104
102 102 102
101 101 101
101 101 101
101 101 101
101 101 101
100 100 100
100 100 100
100 100 100
101 101 101
101 101 101
102 102 102
102 102 102
102 102 102
101 101 101
99 99 99
99 99 99
99 99 99
101 101 101
101 101 101
101 101 101
102 102 102
103 103 103
104 104 104
105 105 105
104 104 104
103 103 103
101 101 101
101 101 101
100 100 100
99 99 99
100 100 100
100 100 100
102 102 102
103 103 103
102 102 102
101 101 101
100 100 100
100 100 100
99 99 99
101 101 101
102 102 102
101 101 101
102 102 102
103 103 103
103 103 103
101 101 101
100 100 100
98 98 98
98 98 98
100 100 100
100 100 100
115 115 115
114 114 114
113 113 113
110 110 110
107 107 107
106 106 106
103 103 103
101 101 101
101 101 101
101 101 101
102 102 102
103 103 103
102 102 102
101 101 101
101 101 101
100 100 100
102 102 102
102 102 102
101 101 101
101 101 101
100 100 100
100 100 100
100 100 100
100 100 100
100 100 100
101 101 101
101 101 101
100 100 100
100 100 100
100 100 100
101 101 101
101 101 101
101 101 101
102 102 102
103 103 103
104 104 104
104 104 104
104 104 104
102 102 102
99 99 99
100 100 100
99 99 99
98 98 98
98 98 98
98 98 98
99 99 99
102 102 102
102 102 102
102 102 102
101 101 101
102 102 102
101 101 101
100 100 100
100 100 100
101 101 101
100 100 100
100 100 100
102 102 102
101 101 101
101 101 101
99 99 99
99 99 99
99 99 99
100 100 100
114 114 114
114 114 114
113 113 113
110 110 110
108 108 108
106 106 106
104 104 104
102 102 102
101 101 101
100 100 100
100 100 100
100 100 100
99 99 99
100 100 100
100 100 100
100 100 100
101 101 101
102 102 102
101 101 101
101 101 101
101 101 101
100 100 100
100 100 100
99 99 99
100 100 100
101 101 101
101 101 101
101 101 101
100 100 100
100 100 100
101 101 101
101 101 101
101 101 101
102 102 102
103 103 103
103 103 103
104 104 104
103 103 103
101 101 101
100 100 100
99 99 99
99 99 99
99 99 99
98 98 98
99 99 99
99 99 99
100 100 100
101 101 101
100 100 100
100 100 100
101 101 101
102 102 102
102 102 102
100 100 100
98 98 98
99 99 99
98 98 98
100 100 100
101 101 101
101 101 101
101 101 101
100 100 100
101 101 101
101 101 101
114 114 114
114 114 114
114 114 114
110 110 110
107 107 107
106 106 106
104 104 104
101 101 101
100 100 100
100 100 100
99 99 99
99 99 99
99 99 99
100 100 100
101 101 101
101 101 101
102 102 102
102 102 102
101 101 101
101 101 101
100 100 100
100 100 100
100 100 100
100 100 100
99 99 99
100 100 100
103 103 103
102 102 102
100 100 100
100 100 100
101 101 101
101 101 101
102 102 102
102 102 102
103 103 103
103 103 103
104 104 104
103 103 103
101 101 101
100 100 100
99 99 99
99 99 99
99 99 99
98 98 98
98 98 98
99 99 99
99 99 99
100 100 100
99 99 99
99 99 99
100 100 100
101 101 101
102 102 102
100 100 100
98 98 98
97 97 97
98 98 98
99 99 99
101 101 101
101 101 101
100 100 100
100 100 100
101 101 101
102 102 102
112 112 112
114 114 114
115 115 115
112 112 112
108 108 108
106 106 106
103 103 103
101 101 101
100 100 100
100 100 100
100 100 100
100 100 100
100 100 100
101 101 101
102 102 102
102 102 102
102 102 102
102 102 102
101 101 101
100 100 100
100 100 100
100 100 100
99 99 99
100 100 100
100 100 100
101 101 101
104 104 104
102 102 102
100 100 100
100 100 100
101 101 101
102 102 102
102 102 102
102 102 102
103 103 103
103 103 103
104 104 104
103 103 103
101 101 101
100 100 100
99 99 99
98 98 98
99 99 99
99 99 99
98 98 98
99 99 99
99 99 99
100 100 100
100 100 100
99 99 99
100 100 100
100 100 100
101 101 101
99 99 99
98 98 98
98 98 98
98 98 98
98 98 98
100 100 100
101 101 101
101 101 101
100 100 100
101 101 101
102 102 102
109 109 109
112 112 112
114 114 114
112 112 112
108 108 108
106 106 106
104 104 104
102 102 102
101 101 101
101 101 101
101 101 101
100 100 100
100 100 100
101 101 101
102 102 102
102 102 102
102 102 102
102 102 102
101 101 101
100 100 100
100 100 100
99 99 99
99 99 99
99 99 99
100 100 100
103 103 103
104 104 104
102 102 102
100 100 100
101 101 101
101 101 101
102 102 102
102 102 102
102 102 102
103 103 103
103 103 103
104 104 104
104 104 104
101 101 101
100 100 100
99 99 99
98 98 98
98 98 98
98 98 98
98 98 98
98 98 98
98 98 98
99 99 99
100 100 100
100 100 100
100 100 100
100 100 100
101 101 101
100 100 100
99 99 99
98 98 98
99 99 99
99 99 99
100 100 100
101 101 101
101 101 101
100 100 100
101 101 101
101 101 101
106 106 106
110 110 110
112 112 112
111 111 111
108 108 108
106 106 106
104 104 104
102 102 102
101 101 101
101 101 101
101 101 101
101 101 101
100 100 100
100 100 100
101 101 101
101 101 101
101 101 101
101 101 101
100 100 100
100 100 100
100 100 100
99 99 99
99 99 99
99 99 99
102 102 102
104 104 104
104 104 104
102 102 102
101 101 101
101 101 101
102 102 102
102 102 102
102 102 102
102 102 102
103 103 103
103 103 103
103 103 103
104 104 104
102 102 102
100 100 100
99 99 99
99 99 99
98 98 98
98 98 98
98 98 98
98 98 98
98 98 98
98 98 98
99 99 99
99 99 99
99 99 99
100 100 100
100 100 100
100 100 100
100 100 100
99 99 99
99 99 99
99 99 99
99 99 99
101 101 101
101 101 101
101 101 101
101 101 101
101 101 101
106 106 106
111 111 111
112 112 112
110 110 110
108 108 108
106 106 106
104 104 104
102 102 102
102 102 102
102 102 102
102 102 102
102 102 102
102 102 102
102 102 102
101 101 101
101 101 101
101 101 101
101 101 101
101 101 101
100 100 100
100 100 100
100 100 100
100 100 100
101 101 101
103 103 103
104 104 104
103 103 103
102 102 102
101 101 101
102 102 102
102 102 102
102 102 102
102 102 102
102 102 102
103 103 103
103 103 103
103 103 103
103 103 103
103 103 103
102 102 102
100 100 100
99 99 99
99 99 99
99 99 99
99 99 99
98 98 98
98 98 98
98 98 98
98 98 98
99 99 99
99 99 99
100 100 100
100 100 100
100 100 100
100 100 100
99 99 99
99 99 99
99 99 99
100 100 100
101 101 101
100 100 100
101 101 101
100 100 100
100 100 100
107 107 107
111 111 111
112 112 112
109 109 109
107 107 107
105 105 105
104 104 104
103 103 103
102 102 102
102 102 102
102 102 102
103 103 103
103 103 103
103 103 103
103 103 103
103 103 103
103 103 103
102 102 102
102 102 102
101 101 101
101 101 101
102 102 102
102 102 102
103 103 103
103 103 103
104 104 104
103 103 103
102 102 102
102 102 102
102 102 102
102 102 102
102 102 102
102 102 102
102 102 102
102 102 102
103 103 103
103 103 103
103 103 103
102 102 102
102 102 102
102 102 102
100 100 100
100 100 100
100 100 100
100 100 100
99 99 99
99 99 99
99 99 99
99 99 99
99 99 99
99 99 99
100 100 100
100 100 100
100 100 100
100 100 100
100 100 100
100 100 100
99 99 99
100 100 100
101 101 101
100 100 100
100 100 100
100 100 100
100 100 100
108 108 108
111 111 111
111 111 111
108 108 108
107 107 107
105 105 105
104 104 104
103 103 103
103 103 103
102 102 102
102 102 102
103 103 103
103 103 103
104 104 104
104 104 104
104 104 104
103 103 103
103 103 103
103 103 103
103 103 103
103 103 103
104 104 104
103 103 103
102 102 102
103 103 103
104 104 104
103 103 103
102 102 102
102 102 102
103 103 103
102 102 102
102 102 102
102 102 102
102 102 102
102 102 102
103 103 103
103 103 103
104 104 104
103 103 103
101 101 101
102 102 102
102 102 102
100 100 100
101 101 101
101 101 101
100 100 100
100 100 100
100 100 100
100 100 100
100 100 100
100 100 100
100 100 100
101 101 101
101 101 101
101 101 101
100 100 100
100 100 100
100 100 100
101 101 101
101 101 101
100 100 100
100 100 100
101 101 101
101 101 101
108 108 108
111 111 111
110 110 110
108 108 108
106 106 106
105 105 105
104 104 104
103 103 103
103 103 103
103 103 103
103 103 103
103 103 103
103 103 103
104 104 104
104 104 104
104 104 104
104 104 104
104 104 104
104 104 104
104 104 104
104 104 104
103 103 103
102 102 102
103 103 103
103 103 103
103 103 103
102 102 102
102 102 102
102 102 102
103 103 103
103 103 103
102 102 102
102 102 102
102 102 102
102 102 102
103 103 103
103 103 103
104 104 104
103 103 103
102 102 102
102 102 102
102 102 102
101 101 101
101 101 101
101 101 101
101 101 101
101 101 101
100 100 100
100 100 100
101 101 101
101 101 101
101 101 101
101 101 101
101 101 101
101 101 101
100 100 100
100 100 100
101 101 101
101 101 101
101 101 101
100 100 100
101 101 101
101 101 101
101 101 101
108 108 108
110 110 110
110 110 110
108 108 108
106 106 106
105 105 105
104 104 104
104 104 104
103 103 103
103 103 103
103 103 103
103 103 103
104 104 104
104 104 104
104 104 104
104 104 104
104 104 104
104 104 104
104 104 104
104 104 104
104 104 104
104 104 104
103 103 103
103 103 103
103 103 103
103 103 103
102 102 102
101 101 101
102 102 102
102 102 102
102 102 102
102 102 102
101 101 101
101 101 101
102 102 102
102 102 102
103 103 103
104 104 104
104 104 104
102 102 102
102 102 102
101 101 101
101 101 101
102 102 102
102 102 102
102 102 102
102 102 102
101 101 101
101 101 101
101 101 101
101 101 101
101 101 101
102 102 102
102 102 102
102 102 102
101 101 101
101 101 101
101 101 101
100 100 100
100 100 100
100 100 100
101 101 101
101 101 101
101 101 101
109 109 109
110 110 110
110 110 110
108 108 108
106 106 106
105 105 105
104 104 104
104 104 104
103 103 103
103 103 103
103 103 103
103 103 103
103 103 103
104 104 104
104 104 104
104 104 104
104 104 104
104 104 104
104 104 104
104 104 104
104 104 104
104 104 104
104 104 104
104 104 104
103 103 103
103 103 103
102 102 102
101 101 101
102 102 102
102 102 102
102 102 102
102 102 102
101 101 101
101 101 101
102 102 102
102 102 102
103 103 103
104 104 104
103 103 103
103 103 103
103 103 103
102 102 102
101 101 101
101 101 101
102 102 102
102 102 102
102 102 102
102 102 102
102 102 102
103 103 103
102 102 102
103 103 103
103 103 103
103 103 103
102 102 102
102 102 102
101 101 101
100 100 100
100 100 100
100 100 100
101 101 101
102 102 102
102 102 102
100 100 100
110 110 110
110 110 110
109 109 109
107 107 107
106 106 106
105 105 105
104 104 104
104 104 104
104 104 104
104 104 104
104 104 104
104 104 104
104 104 104
104 104 104
105 105 105
105 105 105
105 105 105
105 105 105
105 105 105
105 105 105
104 104 104
105 105 105
105 105 105
104 104 104
104 104 104
104 104 104
103 103 103
102 102 102
101 101 101
101 101 101
101 101 101
102 102 102
102 102 102
101 101 101
102 102 102
103 103 103
103 103 103
103 103 103
102 102 102
102 102 102
103 103 103
103 103 103
101 101 101
101 101 101
102 102 102
102 102 102
102 102 102
102 102 102
103 103 103
103 103 103
103 103 103
103 103 103
103 103 103
103 103 103
103 103 103
102 102 102
101 101 101
100 100 100
100 100 100
101 101 101
101 101 101
102 102 102
102 102 102
100 100 100
110 110 110
110 110 110
108 108 108
106 106 106
106 106 106
106 106 106
105 105 105
104 104 104
104 104 104
104 104 104
104 104 104
105 105 105
105 105 105
105 105 105
105 105 105
105 105 105
105 105 105
105 105 105
105 105 105
105 105 105
105 105 105
105 105 105
105 105 105
104 104 104
104 104 104
106 106 106
105 105 105
103 103 103
100 100 100
100 100 100
101 101 101
103 103 103
103 103 103
102 102 102
103 103 103
105 105 105
105 105 105
104 104 104
102 102 102
100 100 100
101 101 101
102 102 102
102 102 102
102 102 102
102 102 102
102 102 102
103 103 103
103 103 103
103 103 103
103 103 103
103 103 103
103 103 103
103 103 103
103 103 103
103 103 103
102 102 102
101 101 101
101 101 101
100 100 100
101 101 101
101 101 101
102 102 102
102 102 102
101 101 101
110 110 110
109 109 109
108 108 108
106 106 106
107 107 107
106 106 106
106 106 106
105 105 105
104 104 104
105 105 105
105 105 105
105 105 105
105 105 105
105 105 105
105 105 105
105 105 105
105 105 105
105 105 105
105 105 105
105 105 105
106 106 106
105 105 105
106 106 106
105 105 105
105 105 105
107 107 107
107 107 107
104 104 104
100 100 100
100 100 100
102 102 102
104 104 104
104 104 104
103 103 103
104 104 104
106 106 106
106 106 106
105 105 105
102 102 102
100 100 100
100 100 100
101 101 101
101 101 101
102 102 102
102 102 102
103 103 103
103 103 103
103 103 103
103 103 103
103 103 103
104 104 104
104 104 104
104 104 104
103 103 103
103 103 103
102 102 102
102 102 102
101 101 101
101 101 101
101 101 101
101 101 101
102 102 102
102 102 102
102 102 102
111 111 111
110 110 110
108 108 108
107 107 107
107 107 107
107 107 107
106 106 106
105 105 105
105 105 105
105 105 105
105 105 105
105 105 105
105 105 105
105 105 105
104 104 104
104 104 104
104 104 104
104 104 104
105 105 105
105 105 105
106 106 106
106 106 106
106 106 106
106 106 106
106 106 106
107 107 107
107 107 107
104 104 104
100 100 100
100 100 100
104 104 104
106 106 106
105 105 105
104 104 104
104 104 104
106 106 106
107 107 107
106 106 106
103 103 103
101 101 101
101 101 101
101 101 101
100 100 100
101 101 101
102 102 102
103 103 103
103 103 103
103 103 103
103 103 103
103 103 103
104 104 104
104 104 104
104 104 104
103 103 103
103 103 103
103 103 103
102 102 102
101 101 101
101 101 101
102 102 102
102 102 102
103 103 103
102 102 102
102 102 102
113 113 113
111 111 111
109 109 109
107 107 107
107 107 107
107 107 107
107 107 107
106 106 106
105 105 105
105 105 105
105 105 105
105 105 105
104 104 104
104 104 104
104 104 104
104 104 104
104 104 104
105 105 105
105 105 105
106 106 106
105 105 105
105 105 105
106 106 106
106 106 106
106 106 106
106 106 106
106 106 106
104 104 104
102 102 102
103 103 103
106 106 106
108 108 108
106 106 106
104 104 104
104 104 104
106 106 106
107 107 107
107 107 107
104 104 104
102 102 102
101 101 101
101 101 101
100 100 100
101 101 101
101 101 101
102 102 102
102 102 102
103 103 103
103 103 103
103 103 103
103 103 103
103 103 103
103 103 103
103 103 103
102 102 102
102 102 102
102 102 102
102 102 102
102 102 102
102 102 102
102 102 102
103 103 103
104 104 104
102 102 102
113 113 113
112 112 112
109 109 109
108 108 108
107 107 107
107 107 107
107 107 107
106 106 106
106 106 106
105 105 105
105 105 105
104 104 104
104 104 104
104 104 104
104 104 104
104 104 104
104 104 104
105 105 105
105 105 105
105 105 105
104 104 104
103 103 103
104 104 104
105 105 105
106 106 106
106 106 106
105 105 105
104 104 104
104 104 104
106 106 106
108 108 108
108 108 108
106 106 106
104 104 104
104 104 104
105 105 105
106 106 106
106 106 106
104 104 104
103 103 103
101 101 101
101 101 101
100 100 100
100 100 100
100 100 100
101 101 101
102 102 102
102 102 102
102 102 102
102 102 102
102 102 102
102 102 102
102 102 102
102 102 102
102 102 102
102 102 102
102 102 102
102 102 102
103 103 103
102 102 102
102 102 102
104 104 104
104 104 104
102 102 102
113 113 113
113 113 113
111 111 111
108 108 108
108 108 108
107 107 107
107 107 107
107 107 107
106 106 106
105 105 105
105 105 105
104 104 104
104 104 104
104 104 104
104 104 104
104 104 104
105 105 105
105 105 105
105 105 105
104 104 104
103 103 103
103 103 103
103 103 103
104 104 104
105 105 105
105 105 105
105 105 105
104 104 104
106 106 106
108 108 108
108 108 108
108 108 108
106 106 106
104 104 104
103 103 103
104 104 104
104 104 104
104 104 104
103 103 103
102 102 102
102 102 102
101 101 101
100 100 100
100 100 100
100 100 100
101 101 101
101 101 101
102 102 102
103 103 103
102 102 102
102 102 102
102 102 102
102 102 102
102 102 102
102 102 102
102 102 102
102 102 102
103 103 103
103 103 103
103 103 103
103 103 103
104 104 104
104 104 104
102 102 102
113 113 113
113 113 113
112 112 112
109 109 109
108 108 108
107 107 107
107 107 107
107 107 107
106 106 106
106 106 106
105 105 105
104 104 104
104 104 104
104 104 104
104 104 104
104 104 104
105 105 105
105 105 105
104 104 104
103 103 103
103 103 103
103 103 103
103 103 103
104 104 104
105 105 105
106 106 106
105 105 105
106 106 106
107 107 107
108 108 108
108 108 108
106 106 106
104 104 104
103 103 103
103 103 103
103 103 103
103 103 103
103 103 103
103 103 103
103 103 103
103 103 103
102 102 102
100 100 100
100 100 100
100 100 100
100 100 100
101 101 101
101 101 101
102 102 102
103 103 103
102 102 102
102 102 102
102 102 102
102 102 102
102 102 102
102 102 102
103 103 103
103 103 103
103 103 103
104 104 104
104 104 104
104 104 104
103 103 103
101 101 101
112 112 112
113 113 113
112 112 112
109 109 109
108 108 108
107 107 107
107 107 107
107 107 107
106 106 106
106 106 106
105 105 105
104 104 104
104 104 104
104 104 104
104 104 104
104 104 104
104 104 104
104 104 104
103 103 103
103 103 103
103 103 103
103 103 103
104 104 104
105 105 105
105 105 105
105 105 105
106 106 106
107 107 107
108 108 108
108 108 108
107 107 107
105 105 105
104 104 104
103 103 103
103 103 103
103 103 103
104 104 104
103 103 103
103 103 103
103 103 103
103 103 103
102 102 102
101 101 101
100 100 100
100 100 100
101 101 101
101 101 101
101 101 101
102 102 102
103 103 103
103 103 103
103 103 103
102 102 102
102 102 102
102 102 102
103 103 103
103 103 103
104 104 104
104 104 104
104 104 104
104 104 104
104 104 104
103 103 103
101 101 101
112 112 112
113 113 113
111 111 111
109 109 109
108 108 108
107 107 107
107 107 107
106 106 106
106 106 106
105 105 105
104 104 104
104 104 104
104 104 104
104 104 104
104 104 104
104 104 104
104 104 104
103 103 103
103 103 103
103 103 103
103 103 103
104 104 104
105 105 105
106 106 106
106 106 106
105 105 105
106 106 106
107 107 107
108 108 108
107 107 107
107 107 107
106 106 106
105 105 105
104 104 104
104 104 104
104 104 104
104 104 104
104 104 104
103 103 103
103 103 103
103 103 103
102 102 102
101 101 101
100 100 100
100 100 100
101 101 101
101 101 101
101 101 101
101 101 101
102 102 102
103 103 103
103 103 103
103 103 103
103 103 103
103 103 103
103 103 103
104 104 104
104 104 104
104 104 104
105 105 105
105 105 105
104 104 104
103 103 103
101 101 101
111 111 111
113 113 113
112 112 112
110 110 110
108 108 108
107 107 107
107 107 107
106 106 106
106 106 106
105 105 105
105 105 105
104 104 104
104 104 104
104 104 104
104 104 104
104 104 104
104 104 104
104 104 104
103 103 103
103 103 103
104 104 104
104 104 104
105 105 105
106 106 106
107 107 107
106 106 106
106 106 106
107 107 107
108 108 108
107 107 107
106 106 106
106 106 106
105 105 105
105 105 105
105 105 105
104 104 104
104 104 104
104 104 104
104 104 104
103 103 103
103 103 103
102 102 102
101 101 101
101 101 101
100 100 100
101 101 101
101 101 101
101 101 101
101 101 101
102 102 102
102 102 102
102 102 102
103 103 103
103 103 103
103 103 103
104 104 104
104 104 104
104 104 104
105 105 105
105 105 105
105 105 105
104 104 104
103 103 103
102 102 102
112 112 112
112 112 112
112 112 112
111 111 111
108 108 108
107 107 107
107 107 107
106 106 106
106 106 106
105 105 105
104 104 104
104 104 104
104 104 104
104 104 104
103 103 103
104 104 104
105 105 105
105 105 105
104 104 104
104 104 104
105 105 105
105 105 105
106 106 106
107 107 107
107 107 107
107 107 107
106 106 106
107 107 107
107 107 107
106 106 106
106 106 106
106 106 106
105 105 105
104 104 104
104 104 104
103 103 103
103 103 103
103 103 103
103 103 103
103 103 103
103 103 103
103 103 103
102 102 102
101 101 101
101 101 101
101 101 101
101 101 101
101 101 101
101 101 101
101 101 101
102 102 102
102 102 102
102 102 102
103 103 103
104 104 104
104 104 104
105 105 105
104 104 104
105 105 105
105 105 105
106 106 106
105 105 105
104 104 104
104 104 104
112 112 112
112 112 112
112 112 112
111 111 111
108 108 108
107 107 107
107 107 107
106 106 106
106 106 106
106 106 106
105 105 105
104 104 104
104 104 104
103 103 103
103 103 103
104 104 104
105 105 105
105 105 105
106 106 106
106 106 106
106 106 106
107 107 107
107 107 107
107 107 107
107 107 107
107 107 107
107 107 107
107 107 107
107 107 107
106 106 106
105 105 105
105 105 105
104 104 104
104 104 104
103 103 103
103 103 103
103 103 103
103 103 103
103 103 103
103 103 103
103 103 103
103 103 103
102 102 102
102 102 102
102 102 102
102 102 102
102 102 102
101 101 101
101 101 101
101 101 101
102 102 102
102 102 102
102 102 102
102 102 102
104 104 104
104 104 104
104 104 104
105 105 105
105 105 105
106 106 106
107 107 107
106 106 106
105 105 105
106 106 106
112 112 112
113 113 113
113 113 113
112 112 112
109 109 109
107 107 107
107 107 107
107 107 107
106 106 106
106 106 106
105 105 105
104 104 104
103 103 103
102 102 102
103 103 103
105 105 105
106 106 106
107 107 107
107 107 107
108 108 108
108 108 108
108 108 108
108 108 108
108 108 108
108 108 108
108 108 108
107 107 107
107 107 107
106 106 106
105 105 105
104 104 104
104 104 104
103 103 103
104 104 104
103 103 103
103 103 103
103 103 103
103 103 103
103 103 103
103 103 103
103 103 103
103 103 103
103 103 103
103 103 103
103 103 103
103 103 103
103 103 103
102 102 102
102 102 102
101 101 101
101 101 101
102 102 102
102 102 102
102 102 102
104 104 104
104 104 104
104 104 104
105 105 105
105 105 105
107 107 107
108 108 108
106 106 106
106 106 106
106 106 106
113 113 113
113 113 113
113 113 113
112 112 112
110 110 110
108 108 108
107 107 107
107 107 107
106 106 106
106 106 106
106 106 106
104 104 104
103 103 103
102 102 102
103 103 103
104 104 104
106 106 106
107 107 107
108 108 108
109 109 109
109 109 109
108 108 108
108 108 108
107 107 107
107 107 107
107 107 107
107 107 107
107 107 107
105 105 105
104 104 104
103 103 103
103 103 103
103 103 103
103 103 103
103 103 103
103 103 103
103 103 103
104 104 104
103 103 103
103 103 103
103 103 103
104 104 104
103 103 103
103 103 103
104 104 104
104 104 104
104 104 104
103 103 103
103 103 103
102 102 102
101 101 101
101 101 101
102 102 102
103 103 103
103 103 103
104 104 104
105 105 105
105 105 105
106 106 106
107 107 107
108 108 108
106 106 106
107 107 107
107 107 107
112 112 112
112 112 112
113 113 113
112 112 112
111 111 111
109 109 109
107 107 107
108 108 108
107 107 107
106 106 106
106 106 106
105 105 105
104 104 104
103 103 103
103 103 103
104 104 104
106 106 106
107 107 107
106 106 106
107 107 107
107 107 107
107 107 107
107 107 107
108 108 108
107 107 107
107 107 107
106 106 106
106 106 106
104 104 104
103 103 103
102 102 102
102 102 102
102 102 102
102 102 102
102 102 102
102 102 102
103 103 103
103 103 103
103 103 103
103 103 103
103 103 103
103 103 103
103 103 103
104 104 104
104 104 104
104 104 104
104 104 104
103 103 103
103 103 103
102 102 102
101 101 101
101 101 101
101 101 101
102 102 102
103 103 103
104 104 104
105 105 105
105 105 105
106 106 106
108 108 108
108 108 108
107 107 107
107 107 107
108 108 108
112 112 112
112 112 112
112 112 112
113 113 113
112 112 112
110 110 110
108 108 108
107 107 107
108 108 108
107 107 107
106 106 106
106 106 106
104 104 104
104 104 104
104 104 104
103 103 103
104 104 104
104 104 104
105 105 105
105 105 105
105 105 105
105 105 105
105 105 105
106 106 106
108 108 108
108 108 108
107 107 107
107 107 107
105 105 105
104 104 104
104 104 104
103 103 103
103 103 103
102 102 102
102 102 102
102 102 102
102 102 102
103 103 103
103 103 103
103 103 103
103 103 103
103 103 103
103 103 103
103 103 103
104 104 104
104 104 104
103 103 103
103 103 103
103 103 103
102 102 102
101 101 101
101 101 101
101 101 101
102 102 102
103 103 103
104 104 104
105 105 105
106 106 106
107 107 107
108 108 108
107 107 107
107 107 107
107 107 107
107 107 107
111 111 111
111 111 111
112 112 112
113 113 113
113 113 113
111 111 111
109 109 109
107 107 107
109 109 109
108 108 108
107 107 107
106 106 106
106 106 106
105 105 105
104 104 104
103 103 103
102 102 102
102 102 102
103 103 103
103 103 103
104 104 104
104 104 104
104 104 104
104 104 104
105 105 105
106 106 106
106 106 106
106 106 106
106 106 106
105 105 105
105 105 105
104 104 104
104 104 104
103 103 103
103 103 103
103 103 103
103 103 103
103 103 103
103 103 103
103 103 103
102 102 102
102 102 102
102 102 102
102 102 102
102 102 102
102 102 102
102 102 102
103 103 103
102 102 102
102 102 102
102 102 102
102 102 102
102 102 102
102 102 102
103 103 103
104 104 104
106 106 106
106 106 106
107 107 107
108 108 108
107 107 107
107 107 107
107 107 107
107 107 107
109 109 109
110 110 110
111 111 111
113 113 113
113 113 113
112 112 112
110 110 110
107 107 107
108 108 108
109 109 109
107 107 107
106 106 106
106 106 106
106 106 106
105 105 105
103 103 103
102 102 102
102 102 102
102 102 102
101 101 101
102 102 102
102 102 102
103 103 103
103 103 103
104 104 104
105 105 105
105 105 105
105 105 105
104 104 104
104 104 104
103 103 103
103 103 103
103 103 103
102 102 102
102 102 102
101 101 101
102 102 102
101 101 101
101 101 101
101 101 101
101 101 101
101 101 101
100 100 100
100 100 100
101 101 101
101 101 101
101 101 101
102 102 102
102 102 102
102 102 102
102 102 102
102 102 102
102 102 102
102 102 102
104 104 104
105 105 105
106 106 106
107 107 107
108 108 108
108 108 108
108 108 108
107 107 107
107 107 107
105 105 105
108 108 108
109 109 109
110 110 110
112 112 112
113 113 113
113 113 113
111 111 111
108 108 108
108 108 108
109 109 109
108 108 108
107 107 107
107 107 107
106 106 106
105 105 105
104 104 104
102 102 102
102 102 102
102 102 102
101 101 101
101 101 101
101 101 101
102 102 102
103 103 103
103 103 103
104 104 104
104 104 104
104 104 104
104 104 104
103 103 103
102 102 102
102 102 102
102 102 102
101 101 101
101 101 101
100 100 100
100 100 100
100 100 100
99 99 99
100 100 100
100 100 100
100 100 100
100 100 100
100 100 100
100 100 100
101 101 101
101 101 101
102 102 102
102 102 102
102 102 102
102 102 102
102 102 102
102 102 102
103 103 103
104 104 104
105 105 105
106 106 106
107 107 107
108 108 108
108 108 108
108 108 108
106 106 106
105 105 105
104 104 104
107 107 107
108 108 108
110 110 110
112 112 112
112 112 112
113 113 113
112 112 112
109 109 109
108 108 108
108 108 108
109 109 109
108 108 108
107 107 107
107 107 107
105 105 105
104 104 104
103 103 103
101 101 101
101 101 101
101 101 101
101 101 101
102 102 102
102 102 102
102 102 102
103 103 103
103 103 103
104 104 104
103 103 103
103 103 103
102 102 102
102 102 102
102 102 102
101 101 101
101 101 101
100 100 100
100 100 100
100 100 100
99 99 99
99 99 99
99 99 99
100 100 100
99 99 99
99 99 99
99 99 99
100 100 100
100 100 100
100 100 100
101 101 101
102 102 102
102 102 102
102 102 102
102 102 102
103 103 103
104 104 104
105 105 105
105 105 105
106 106 106
107 107 107
109 109 109
108 108 108
108 108 108
105 105 105
104 104 104
103 103 103
106 106 106
107 107 107
109 109 109
111 111 111
112 112 112
113 113 113
112 112 112
109 109 109
108 108 108
108 108 108
109 109 109
109 109 109
108 108 108
106 106 106
106 106 106
105 105 105
103 103 103
102 102 102
102 102 102
101 101 101
101 101 101
102 102 102
102 102 102
103 103 103
104 104 104
104 104 104
104 104 104
103 103 103
103 103 103
103 103 103
103 103 103
102 102 102
102 102 102
102 102 102
102 102 102
101 101 101
101 101 101
100 100 100
100 100 100
100 100 100
100 100 100
100 100 100
100 100 100
99 99 99
99 99 99
100 100 100
100 100 100
101 101 101
102 102 102
102 102 102
102 102 102
102 102 102
104 104 104
104 104 104
105 105 105
105 105 105
105 105 105
107 107 107
109 109 109
108 108 108
107 107 107
104 104 104
103 103 103
103 103 103
106 106 106
107 107 107
108 108 108
111 111 111
112 112 112
113 113 113
112 112 112
110 110 110
109 109 109
108 108 108
109 109 109
109 109 109
109 109 109
107 107 107
106 106 106
106 106 106
104 104 104
103 103 103
103 103 103
102 102 102
102 102 102
102 102 102
103 103 103
103 103 103
104 104 104
105 105 105
105 105 105
104 104 104
104 104 104
104 104 104
104 104 104
104 104 104
103 103 103
103 103 103
103 103 103
103 103 103
102 102 102
102 102 102
101 101 101
101 101 101
101 101 101
100 100 100
100 100 100
99 99 99
100 100 100
100 100 100
101 101 101
101 101 101
101 101 101
102 102 102
102 102 102
103 103 103
104 104 104
105 105 105
105 105 105
105 105 105
105 105 105
107 107 107
109 109 109
108 108 108
106 106 106
103 103 103
102 102 102
103 103 103
106 106 106
107 107 107
107 107 107
109 109 109
111 111 111
112 112 112
112 112 112
110 110 110
109 109 109
108 108 108
108 108 108
108 108 108
109 109 109
108 108 108
106 106 106
106 106 106
106 106 106
104 104 104
104 104 104
104 104 104
103 103 103
104 104 104
103 103 103
103 103 103
105 105 105
106 106 106
105 105 105
105 105 105
106 106 106
105 105 105
105 105 105
105 105 105
105 105 105
104 104 104
104 104 104
104 104 104
103 103 103
103 103 103
102 102 102
101 101 101
100 100 100
100 100 100
100 100 100
100 100 100
100 100 100
101 101 101
101 101 101
101 101 101
101 101 101
102 102 102
103 103 103
103 103 103
104 104 104
105 105 105
105 105 105
104 104 104
105 105 105
106 106 106
109 109 109
107 107 107
105 105 105
102 102 102
102 102 102
103 103 103
106 106 106
107 107 107
107 107 107
108 108 108
110 110 110
112 112 112
111 111 111
110 110 110
110 110 110
109 109 109
108 108 108
108 108 108
108 108 108
109 109 109
107 107 107
106 106 106
106 106 106
106 106 106
105 105 105
105 105 105
105 105 105
104 104 104
104 104 104
104 104 104
105 105 105
105 105 105
104 104 104
104 104 104
105 105 105
105 105 105
105 105 105
105 105 105
105 105 105
104 104 104
104 104 104
103 103 103
103 103 103
102 102 102
102 102 102
101 101 101
100 100 100
100 100 100
101 101 101
101 101 101
101 101 101
101 101 101
102 102 102
101 101 101
102 102 102
102 102 102
103 103 103
104 104 104
104 104 104
104 104 104
104 104 104
104 104 104
105 105 105
107 107 107
109 109 109
106 106 106
103 103 103
102 102 102
102 102 102
102 102 102
106 106 106
107 107 107
107 107 107
107 107 107
110 110 110
112 112 112
111 111 111
111 111 111
110 110 110
109 109 109
107 107 107
108 108 108
108 108 108
108 108 108
108 108 108
108 108 108
107 107 107
106 106 106
106 106 106
105 105 105
105 105 105
105 105 105
105 105 105
104 104 104
105 105 105
105 105 105
105 105 105
104 104 104
103 103 103
103 103 103
103 103 103
104 104 104
104 104 104
103 103 103
102 102 102
102 102 102
102 102 102
102 102 102
101 101 101
101 101 101
100 100 100
101 101 101
101 101 101
101 101 101
101 101 101
102 102 102
102 102 102
102 102 102
102 102 102
103 103 103
103 103 103
104 104 104
104 104 104
104 104 104
104 104 104
104 104 104
105 105 105
107 107 107
108 108 108
105 105 105
103 103 103
102 102 102
101 101 101
102 102 102
106 106 106
107 107 107
107 107 107
107 107 107
109 109 109
111 111 111
111 111 111
111 111 111
110 110 110
108 108 108
107 107 107
108 108 108
108 108 108
108 108 108
108 108 108
108 108 108
108 108 108
107 107 107
106 106 106
105 105 105
105 105 105
105 105 105
105 105 105
104 104 104
104 104 104
105 105 105
104 104 104
104 104 104
103 103 103
103 103 103
103 103 103
103 103 103
103 103 103
102 102 102
101 101 101
101 101 101
101 101 101
102 102 102
101 101 101
101 101 101
101 101 101
101 101 101
101 101 101
101 101 101
101 101 101
101 101 101
102 102 102
102 102 102
103 103 103
103 103 103
103 103 103
104 104 104
104 104 104
104 104 104
104 104 104
104 104 104
105 105 105
107 107 107
107 107 107
103 103 103
102 102 102
101 101 101
101 101 101
102 102 102
106 106 106
107 107 107
107 107 107
107 107 107
108 108 108
111 111 111
112 112 112
112 112 112
110 110 110
108 108 108
107 107 107
107 107 107
108 108 108
108 108 108
108 108 108
108 108 108
108 108 108
108 108 108
107 107 107
105 105 105
105 105 105
104 104 104
104 104 104
104 104 104
104 104 104
104 104 104
104 104 104
103 103 103
103 103 103
102 102 102
102 102 102
102 102 102
102 102 102
102 102 102
101 101 101
101 101 101
101 101 101
102 102 102
101 101 101
101 101 101
101 101 101
101 101 101
101 101 101
101 101 101
101 101 101
101 101 101
102 102 102
103 103 103
103 103 103
103 103 103
103 103 103
104 104 104
104 104 104
104 104 104
104 104 104
104 104 104
105 105 105
106 106 106
106 106 106
103 103 103
102 102 102
101 101 101
101 101 101
102 102 102
106 106 106
107 107 107
107 107 107
107 107 107
108 108 108
111 111 111
112 112 112
112 112 112
109 109 109
108 108 108
107 107 107
107 107 107
108 108 108
108 108 108
108 108 108
109 109 109
108 108 108
108 108 108
108 108 108
106 106 106
105 105 105
104 104 104
104 104 104
103 103 103
104 104 104
104 104 104
104 104 104
103 103 103
103 103 103
103 103 103
103 103 103
103 103 103
103 103 103
102 102 102
102 102 102
101 101 101
101 101 101
101 101 101
101 101 101
101 101 101
100 100 100
100 100 100
100 100 100
100 100 100
101 101 101
102 102 102
102 102 102
103 103 103
103 103 103
103 103 103
103 103 103
104 104 104
104 104 104
104 104 104
105 105 105
105 105 105
105 105 105
105 105 105
105 105 105
103 103 103
102 102 102
101 101 101
101 101 101
102 102 102
106 106 106
107 107 107
108 108 108
108 108 108
108 108 108
110 110 110
112 112 112
111 111 111
110 110 110
108 108 108
107 107 107
107 107 107
108 108 108
108 108 108
108 108 108
109 109 109
108 108 108
109 109 109
109 109 109
107 107 107
106 106 106
105 105 105
104 104 104
103 103 103
104 104 104
103 103 103
103 103 103
103 103 103
103 103 103
103 103 103
103 103 103
103 103 103
103 103 103
103 103 103
102 102 102
102 102 102
101 101 101
101 101 101
101 101 101
101 101 101
100 100 100
100 100 100
100 100 100
101 101 101
102 102 102
102 102 102
103 103 103
103 103 103
103 103 103
103 103 103
103 103 103
104 104 104
104 104 104
105 105 105
105 105 105
104 104 104
104 104 104
104 104 104
105 105 105
103 103 103
102 102 102
101 101 101
101 101 101
102 102 102
107 107 107
109 109 109
109 109 109
109 109 109
108 108 108
109 109 109
111 111 111
111 111 111
110 110 110
108 108 108
107 107 107
107 107 107
108 108 108
108 108 108
108 108 108
109 109 109
109 109 109
109 109 109
109 109 109
108 108 108
107 107 107
106 106 106
104 104 104
103 103 103
104 104 104
103 103 103
102 102 102
103 103 103
103 103 103
103 103 103
102 102 102
102 102 102
103 103 103
103 103 103
102 102 102
102 102 102
101 101 101
101 101 101
101 101 101
101 101 101
100 100 100
101 101 101
101 101 101
102 102 102
102 102 102
103 103 103
103 103 103
103 103 103
103 103 103
103 103 103
103 103 103
104 104 104
104 104 104
105 105 105
104 104 104
104 104 104
104 104 104
104 104 104
104 104 104
103 103 103
101 101 101
101 101 101
101 101 101
102 102 102
108 108 108
109 109 109
109 109 109
109 109 109
108 108 108
108 108 108
110 110 110
111 111 111
110 110 110
108 108 108
107 107 107
107 107 107
107 107 107
108 108 108
108 108 108
109 109 109
109 109 109
109 109 109
109 109 109
109 109 109
108 108 108
107 107 107
105 105 105
104 104 104
104 104 104
104 104 104
103 103 103
103 103 103
103 103 103
103 103 103
103 103 103
103 103 103
103 103 103
103 103 103
102 102 102
102 102 102
102 102 102
102 102 102
102 102 102
101 101 101
101 101 101
101 101 101
102 102 102
102 102 102
103 103 103
103 103 103
104 104 104
104 104 104
103 103 103
103 103 103
104 104 104
105 105 105
104 104 104
104 104 104
104 104 104
103 103 103
103 103 103
103 103 103
104 104 104
103 103 103
102 102 102
101 101 101
102 102 102
102 102 102
109 109 109
109 109 109
109 109 109
109 109 109
108 108 108
108 108 108
110 110 110
111 111 111
110 110 110
108 108 108
107 107 107
107 107 107
107 107 107
108 108 108
108 108 108
109 109 109
109 109 109
109 109 109
109 109 109
109 109 109
109 109 109
108 108 108
107 107 107
106 106 106
105 105 105
105 105 105
105 105 105
104 104 104
104 104 104
104 104 104
104 104 104
104 104 104
104 104 104
104 104 104
103 103 103
103 103 103
103 103 103
102 102 102
102 102 102
102 102 102
102 102 102
102 102 102
103 103 103
103 103 103
103 103 103
104 104 104
104 104 104
104 104 104
104 104 104
104 104 104
105 105 105
105 105 105
104 104 104
103 103 103
103 103 103
102 102 102
103 103 103
103 103 103
104 104 104
103 103 103
101 101 101
102 102 102
102 102 102
102 102 102
110 110 110
109 109 109
109 109 109
109 109 109
108 108 108
108 108 108
110 110 110
111 111 111
110 110 110
107 107 107
106 106 106
107 107 107
108 108 108
108 108 108
107 107 107
108 108 108
108 108 108
109 109 109
110 110 110
109 109 109
109 109 109
109 109 109
108 108 108
107 107 107
107 107 107
106 106 106
106 106 106
106 106 106
105 105 105
105 105 105
104 104 104
104 104 104
104 104 104
104 104 104
103 103 103
103 103 103
103 103 103
102 102 102
103 103 103
103 103 103
103 103 103
103 103 103
103 103 103
104 104 104
104 104 104
104 104 104
104 104 104
104 104 104
104 104 104
105 105 105
105 105 105
104 104 104
104 104 104
103 103 103
102 102 102
102 102 102
102 102 102
102 102 102
103 103 103
103 103 103
101 101 101
102 102 102
103 103 103
103 103 103
110 110 110
109 109 109
109 109 109
109 109 109
109 109 109
108 108 108
110 110 110
111 111 111
109 109 109
106 106 106
106 106 106
107 107 107
108 108 108
108 108 108
108 108 108
108 108 108
107 107 107
109 109 109
110 110 110
109 109 109
109 109 109
109 109 109
109 109 109
108 108 108
108 108 108
107 107 107
107 107 107
106 106 106
106 106 106
105 105 105
105 105 105
104 104 104
104 104 104
104 104 104
104 104 104
104 104 104
104 104 104
103 103 103
104 104 104
103 103 103
104 104 104
104 104 104
104 104 104
104 104 104
105 105 105
105 105 105
105 105 105
104 104 104
105 105 105
105 105 105
104 104 104
104 104 104
103 103 103
102 102 102
102 102 102
101 101 101
102 102 102
102 102 102
103 103 103
103 103 103
101 101 101
101 101 101
103 103 103
103 103 103
110 110 110
110 110 110
110 110 110
110 110 110
109 109 109
108 108 108
110 110 110
110 110 110
108 108 108
106 106 106
106 106 106
107 107 107
108 108 108
108 108 108
108 108 108
109 109 109
108 108 108
108 108 108
109 109 109
110 110 110
109 109 109
108 108 108
109 109 109
109 109 109
108 108 108
108 108 108
107 107 107
107 107 107
106 106 106
106 106 106
105 105 105
105 105 105
105 105 105
105 105 105
105 105 105
104 104 104
105 105 105
104 104 104
104 104 104
105 105 105
105 105 105
105 105 105
105 105 105
105 105 105
105 105 105
105 105 105
105 105 105
105 105 105
105 105 105
105 105 105
104 104 104
103 103 103
102 102 102
102 102 102
101 101 101
101 101 101
102 102 102
102 102 102
103 103 103
103 103 103
101 101 101
102 102 102
103 103 103
103 103 103
