P3
64 64
255
147 147 147
171 171 171
194 194 194
198 198 198
206 206 206
215 215 215
217 217 217
203 203 203
189 189 189
183 183 183
179 179 179
175 175 175
172 172 172
168 168 168
164 164 164
161 161 161
158 158 158
155 155 155
152 152 152
148 148 148
147 147 147
145 145 145
143 143 143
142 142 142
141 141 141
142 142 142
142 142 142
141 141 141
140 140 140
143 143 143
146 146 146
147 147 147
149 149 149
150 150 150
153 153 153
155 155 155
154 154 154
157 157 157
161 161 161
163 163 163
163 163 163
166 166 166
167 167 167
169 169 169
172 172 172
174 174 174
177 177 177
178 178 178
179 179 179
181 181 181
181 181 181
180 180 180
181 181 181
183 183 183
185 185 185
183 183 183
180 180 180
179 179 179
179 179 179
176 176 176
178 178 178
172 172 172
139 139 139
115 115 115
154 154 154
182 182 182
201 201 201
204 204 204
209 209 209
219 219 219
218 218 218
203 203 203
189 189 189
183 183 183
178 178 178
175 175 175
171 171 171
168 168 168
165 165 165
163 163 163
160 160 160
157 157 157
153 153 153
150 150 150
149 149 149
148 148 148
146 146 146
144 144 144
144 144 144
144 144 144
143 143 143
142 142 142
141 141 141
142 142 142
144 144 144
146 146 146
149 149 149
150 150 150
152 152 152
153 153 153
155 155 155
156 156 156
160 160 160
163 163 163
164 164 164
166 166 166
168 168 168
169 169 169
170 170 170
173 173 173
175 175 175
178 178 178
179 179 179
180 180 180
180 180 180
180 180 180
182 182 182
184 184 184
188 188 188
188 188 188
186 186 186
184 184 184
183 183 183
180 180 180
179 179 179
175 175 175
147 147 147
121 121 121
158 158 158
188 188 188
207 207 207
208 208 208
213 213 213
222 222 222
218 218 218
202 202 202
188 188 188
182 182 182
178 178 178
174 174 174
171 171 171
168 168 168
166 166 166
165 165 165
162 162 162
159 159 159
156 156 156
153 153 153
151 151 151
151 151 151
149 149 149
147 147 147
147 147 147
146 146 146
145 145 145
144 144 144
145 145 145
144 144 144
145 145 145
147 147 147
150 150 150
151 151 151
153 153 153
154 154 154
156 156 156
159 159 159
161 161 161
165 165 165
166 166 166
168 168 168
168 168 168
169 169 169
170 170 170
171 171 171
174 174 174
176 176 176
179 179 179
178 178 178
178 178 178
178 178 178
180 180 180
185 185 185
187 187 187
189 189 189
188 188 188
186 186 186
186 186 186
183 183 183
180 180 180
178 178 178
155 155 155
126 126 126
164 164 164
194 194 194
212 212 212
215 215 215
218 218 218
225 225 225
217 217 217
200 200 200
188 188 188
182 182 182
177 177 177
174 174 174
171 171 171
169 169 169
167 167 167
166 166 166
164 164 164
161 161 161
157 157 157
154 154 154
154 154 154
153 153 153
151 151 151
148 148 148
148 148 148
147 147 147
145 145 145
146 146 146
148 148 148
148 148 148
147 147 147
150 150 150
154 154 154
154 154 154
156 156 156
156 156 156
157 157 157
161 161 161
165 165 165
167 167 167
169 169 169
169 169 169
170 170 170
171 171 171
172 172 172
172 172 172
174 174 174
176 176 176
180 180 180
179 179 179
179 179 179
179 179 179
179 179 179
181 181 181
184 184 184
188 188 188
187 187 187
187 187 187
188 188 188
184 184 184
181 181 181
178 178 178
159 159 159
132 132 132
168 168 168
196 196 196
213 213 213
219 219 219
221 221 221
224 224 224
214 214 214
197 197 197
187 187 187
182 182 182
177 177 177
173 173 173
171 171 171
169 169 169
168 168 168
167 167 167
164 164 164
162 162 162
159 159 159
156 156 156
155 155 155
153 153 153
151 151 151
147 147 147
148 148 148
147 147 147
146 146 146
148 148 148
151 151 151
151 151 151
151 151 151
154 154 154
158 158 158
160 160 160
158 158 158
157 157 157
159 159 159
162 162 162
166 166 166
169 169 169
168 168 168
168 168 168
170 170 170
170 170 170
172 172 172
173 173 173
175 175 175
177 177 177
178 178 178
179 179 179
178 178 178
179 179 179
178 178 178
176 176 176
180 180 180
184 184 184
185 185 185
186 186 186
187 187 187
185 185 185
182 182 182
179 179 179
162 162 162
134 134 134
173 173 173
200 200 200
216 216 216
221 221 221
223 223 223
222 222 222
210 210 210
195 195 195
188 188 188
183 183 183
178 178 178
171 171 171
168 168 168
166 166 166
165 165 165
163 163 163
163 163 163
161 161 161
157 157 157
154 154 154
151 151 151
149 149 149
146 146 146
142 142 142
144 144 144
145 145 145
144 144 144
148 148 148
152 152 152
154 154 154
154 154 154
158 158 158
163 163 163
165 165 165
159 159 159
156 156 156
158 158 158
161 161 161
164 164 164
166 166 166
166 166 166
166 166 166
168 168 168
167 167 167
168 168 168
169 169 169
171 171 171
172 172 172
173 173 173
172 172 172
172 172 172
174 174 174
174 174 174
171 171 171
173 173 173
179 179 179
183 183 183
184 184 184
185 185 185
183 183 183
183 183 183
181 181 181
165 165 165
139 139 139
179 179 179
200 200 200
219 219 219
223 223 223
221 221 221
219 219 219
207 207 207
196 196 196
189 189 189
184 184 184
176 176 176
165 165 165
157 157 157
153 153 153
151 151 151
150 150 150
150 150 150
147 147 147
144 144 144
140 140 140
136 136 136
135 135 135
134 134 134
133 133 133
136 136 136
136 136 136
136 136 136
141 141 141
146 146 146
149 149 149
154 154 154
159 159 159
167 167 167
165 165 165
158 158 158
154 154 154
154 154 154
158 158 158
160 160 160
159 159 159
159 159 159
158 158 158
157 157 157
155 155 155
155 155 155
156 156 156
159 159 159
159 159 159
160 160 160
161 161 161
162 162 162
164 164 164
166 166 166
165 165 165
161 161 161
166 166 166
178 178 178
183 183 183
183 183 183
181 181 181
184 184 184
183 183 183
168 168 168
141 141 141
182 182 182
203 203 203
221 221 221
225 225 225
221 221 221
220 220 220
208 208 208
192 192 192
182 182 182
172 172 172
162 162 162
151 151 151
139 139 139
135 135 135
134 134 134
134 134 134
133 133 133
130 130 130
126 126 126
123 123 123
120 120 120
118 118 118
120 120 120
122 122 122
126 126 126
126 126 126
126 126 126
133 133 133
135 135 135
138 138 138
149 149 149
159 159 159
165 165 165
164 164 164
157 157 157
152 152 152
148 148 148
150 150 150
153 153 153
145 145 145
142 142 142
139 139 139
133 133 133
131 131 131
131 131 131
131 131 131
129 129 129
133 133 133
132 132 132
133 133 133
138 138 138
144 144 144
146 146 146
150 150 150
150 150 150
149 149 149
158 158 158
174 174 174
182 182 182
180 180 180
182 182 182
184 184 184
166 166 166
140 140 140
186 186 186
209 209 209
222 222 222
228 228 228
223 223 223
219 219 219
202 202 202
181 181 181
164 164 164
154 154 154
146 146 146
133 133 133
122 122 122
119 119 119
121 121 121
116 116 116
117 117 117
113 113 113
110 110 110
112 112 112
109 109 109
105 105 105
107 107 107
112 112 112
118 118 118
117 117 117
118 118 118
121 121 121
122 122 122
129 129 129
143 143 143
157 157 157
162 162 162
161 161 161
153 153 153
148 148 148
141 141 141
137 137 137
142 142 142
130 130 130
122 122 122
121 121 121
114 114 114
110 110 110
110 110 110
110 110 110
108 108 108
126 126 126
125 125 125
122 122 122
124 124 124
127 127 127
133 133 133
126 126 126
126 126 126
133 133 133
142 142 142
154 154 154
171 171 171
175 175 175
178 178 178
183 183 183
166 166 166
140 140 140
187 187 187
213 213 213
221 221 221
230 230 230
226 226 226
214 214 214
191 191 191
165 165 165
146 146 146
139 139 139
136 136 136
130 130 130
126 126 126
126 126 126
124 124 124
121 121 121
119 119 119
111 111 111
111 111 111
113 113 113
113 113 113
111 111 111
109 109 109
115 115 115
123 123 123
122 122 122
120 120 120
120 120 120
118 118 118
126 126 126
142 142 142
155 155 155
158 158 158
155 155 155
146 146 146
142 142 142
134 134 134
128 128 128
135 135 135
129 129 129
119 119 119
123 123 123
120 120 120
108 108 108
104 104 104
101 101 101
101 101 101
136 136 136
145 145 145
143 143 143
140 140 140
143 143 143
147 147 147
144 144 144
136 136 136
133 133 133
136 136 136
142 142 142
150 150 150
166 166 166
172 172 172
181 181 181
172 172 172
141 141 141
186 186 186
209 209 209
219 219 219
233 233 233
228 228 228
204 204 204
173 173 173
150 150 150
144 144 144
145 145 145
147 147 147
147 147 147
142 142 142
139 139 139
135 135 135
130 130 130
127 127 127
118 118 118
121 121 121
121 121 121
125 125 125
121 121 121
120 120 120
130 130 130
141 141 141
141 141 141
143 143 143
133 133 133
128 128 128
138 138 138
147 147 147
154 154 154
157 157 157
151 151 151
146 146 146
142 142 142
135 135 135
130 130 130
132 132 132
133 133 133
133 133 133
131 131 131
122 122 122
112 112 112
106 106 106
104 104 104
106 106 106
126 126 126
153 153 153
164 164 164
170 170 170
175 175 175
176 176 176
176 176 176
173 173 173
166 166 166
156 156 156
138 138 138
138 138 138
152 152 152
169 169 169
177 177 177
174 174 174
145 145 145
186 186 186
206 206 206
220 220 220
236 236 236
223 223 223
190 190 190
165 165 165
156 156 156
158 158 158
165 165 165
166 166 166
164 164 164
155 155 155
147 147 147
143 143 143
139 139 139
136 136 136
126 126 126
128 128 128
128 128 128
133 133 133
129 129 129
130 130 130
144 144 144
163 163 163
162 162 162
161 161 161
171 171 171
166 166 166
160 160 160
160 160 160
164 164 164
166 166 166
159 159 159
154 154 154
149 149 149
146 146 146
144 144 144
142 142 142
137 137 137
133 133 133
125 125 125
113 113 113
108 108 108
106 106 106
108 108 108
114 114 114
130 130 130
168 168 168
177 177 177
178 178 178
177 177 177
176 176 176
177 177 177
181 181 181
177 177 177
174 174 174
158 158 158
129 129 129
145 145 145
165 165 165
176 176 176
173 173 173
150 150 150
186 186 186
204 204 204
226 226 226
238 238 238
214 214 214
183 183 183
175 175 175
175 175 175
183 183 183
187 187 187
180 180 180
172 172 172
161 161 161
154 154 154
149 149 149
148 148 148
144 144 144
135 135 135
135 135 135
134 134 134
138 138 138
131 131 131
131 131 131
143 143 143
163 163 163
175 175 175
177 177 177
174 174 174
185 185 185
171 171 171
160 160 160
164 164 164
165 165 165
163 163 163
165 165 165
162 162 162
155 155 155
151 151 151
143 143 143
135 135 135
123 123 123
113 113 113
107 107 107
109 109 109
114 114 114
122 122 122
128 128 128
151 151 151
184 184 184
182 182 182
183 183 183
182 182 182
175 175 175
168 168 168
168 168 168
157 157 157
157 157 157
155 155 155
134 134 134
142 142 142
161 161 161
173 173 173
172 172 172
155 155 155
183 183 183
202 202 202
222 222 222
229 229 229
207 207 207
189 189 189
194 194 194
194 194 194
195 195 195
189 189 189
174 174 174
168 168 168
176 176 176
179 179 179
176 176 176
168 168 168
157 157 157
145 145 145
144 144 144
143 143 143
148 148 148
142 142 142
139 139 139
139 139 139
145 145 145
152 152 152
162 162 162
169 169 169
181 181 181
172 172 172
159 159 159
158 158 158
159 159 159
158 158 158
167 167 167
162 162 162
155 155 155
154 154 154
141 141 141
124 124 124
116 116 116
114 114 114
116 116 116
122 122 122
132 132 132
136 136 136
134 134 134
142 142 142
172 172 172
184 184 184
188 188 188
191 191 191
184 184 184
167 167 167
167 167 167
154 154 154
145 145 145
151 151 151
146 146 146
145 145 145
155 155 155
168 168 168
168 168 168
158 158 158
187 187 187
218 218 218
231 231 231
220 220 220
200 200 200
198 198 198
205 205 205
202 202 202
195 195 195
180 180 180
172 172 172
195 195 195
204 204 204
189 189 189
170 170 170
154 154 154
137 137 137
140 140 140
137 137 137
134 134 134
142 142 142
142 142 142
135 135 135
128 128 128
125 125 125
121 121 121
128 128 128
163 163 163
176 176 176
173 173 173
159 159 159
155 155 155
155 155 155
158 158 158
155 155 155
151 151 151
152 152 152
153 153 153
134 134 134
122 122 122
124 124 124
132 132 132
139 139 139
140 140 140
144 144 144
141 141 141
134 134 134
130 130 130
139 139 139
162 162 162
177 177 177
180 180 180
169 169 169
164 164 164
167 167 167
159 159 159
151 151 151
153 153 153
155 155 155
149 149 149
154 154 154
165 165 165
165 165 165
159 159 159
185 185 185
206 206 206
213 213 213
205 205 205
194 194 194
201 201 201
207 207 207
200 200 200
189 189 189
174 174 174
189 189 189
211 211 211
191 191 191
164 164 164
157 157 157
150 150 150
144 144 144
143 143 143
148 148 148
142 142 142
151 151 151
144 144 144
129 129 129
123 123 123
122 122 122
116 116 116
118 118 118
144 144 144
169 169 169
162 162 162
152 152 152
147 147 147
145 145 145
146 146 146
148 148 148
146 146 146
149 149 149
151 151 151
136 136 136
134 134 134
137 137 137
144 144 144
146 146 146
139 139 139
146 146 146
148 148 148
146 146 146
138 138 138
131 131 131
136 136 136
155 155 155
161 161 161
161 161 161
159 159 159
163 163 163
159 159 159
155 155 155
157 157 157
161 161 161
157 157 157
168 168 168
177 177 177
164 164 164
160 160 160
179 179 179
191 191 191
202 202 202
208 208 208
197 197 197
196 196 196
203 203 203
195 195 195
186 186 186
180 180 180
184 184 184
177 177 177
156 156 156
154 154 154
155 155 155
143 143 143
143 143 143
143 143 143
150 150 150
152 152 152
152 152 152
145 145 145
131 131 131
117 117 117
115 115 115
117 117 117
127 127 127
140 140 140
166 166 166
159 159 159
151 151 151
147 147 147
146 146 146
145 145 145
150 150 150
152 152 152
152 152 152
149 149 149
143 143 143
147 147 147
145 145 145
134 134 134
137 137 137
133 133 133
141 141 141
146 146 146
142 142 142
128 128 128
134 134 134
138 138 138
157 157 157
149 149 149
144 144 144
153 153 153
162 162 162
160 160 160
160 160 160
159 159 159
161 161 161
157 157 157
154 154 154
162 162 162
172 172 172
162 162 162
172 172 172
182 182 182
194 194 194
200 200 200
193 193 193
184 184 184
193 193 193
191 191 191
188 188 188
184 184 184
165 165 165
153 153 153
148 148 148
155 155 155
157 157 157
144 144 144
148 148 148
155 155 155
153 153 153
145 145 145
134 134 134
134 134 134
136 136 136
130 130 130
124 124 124
130 130 130
134 134 134
147 147 147
169 169 169
159 159 159
151 151 151
147 147 147
146 146 146
147 147 147
151 151 151
153 153 153
146 146 146
145 145 145
145 145 145
149 149 149
146 146 146
133 133 133
129 129 129
122 122 122
132 132 132
144 144 144
143 143 143
142 142 142
142 142 142
145 145 145
151 151 151
140 140 140
132 132 132
137 137 137
147 147 147
159 159 159
163 163 163
165 165 165
165 165 165
158 158 158
146 146 146
144 144 144
148 148 148
148 148 148
160 160 160
172 172 172
181 181 181
189 189 189
187 187 187
185 185 185
203 203 203
204 204 204
198 198 198
187 187 187
168 168 168
157 157 157
156 156 156
152 152 152
146 146 146
143 143 143
139 139 139
141 141 141
137 137 137
128 128 128
121 121 121
122 122 122
127 127 127
125 125 125
124 124 124
134 134 134
135 135 135
153 153 153
169 169 169
161 161 161
151 151 151
147 147 147
146 146 146
148 148 148
150 150 150
152 152 152
143 143 143
138 138 138
140 140 140
145 145 145
143 143 143
137 137 137
127 127 127
118 118 118
119 119 119
134 134 134
140 140 140
144 144 144
144 144 144
146 146 146
146 146 146
137 137 137
137 137 137
137 137 137
139 139 139
150 150 150
160 160 160
164 164 164
162 162 162
155 155 155
147 147 147
151 151 151
149 149 149
137 137 137
154 154 154
168 168 168
171 171 171
186 186 186
186 186 186
196 196 196
213 213 213
207 207 207
198 198 198
191 191 191
183 183 183
174 174 174
165 165 165
153 153 153
137 137 137
128 128 128
122 122 122
120 120 120
118 118 118
116 116 116
114 114 114
116 116 116
118 118 118
121 121 121
133 133 133
141 141 141
138 138 138
160 160 160
168 168 168
161 161 161
154 154 154
150 150 150
148 148 148
150 150 150
152 152 152
153 153 153
144 144 144
134 134 134
138 138 138
144 144 144
139 139 139
136 136 136
129 129 129
118 118 118
113 113 113
117 117 117
123 123 123
127 127 127
128 128 128
133 133 133
134 134 134
136 136 136
141 141 141
142 142 142
144 144 144
150 150 150
163 163 163
169 169 169
165 165 165
153 153 153
144 144 144
150 150 150
144 144 144
130 130 130
164 164 164
180 180 180
180 180 180
192 192 192
189 189 189
197 197 197
203 203 203
195 195 195
191 191 191
187 187 187
185 185 185
180 180 180
171 171 171
154 154 154
136 136 136
123 123 123
118 118 118
117 117 117
118 118 118
120 120 120
123 123 123
125 125 125
131 131 131
141 141 141
149 149 149
141 141 141
144 144 144
166 166 166
168 168 168
162 162 162
156 156 156
154 154 154
152 152 152
153 153 153
156 156 156
154 154 154
146 146 146
136 136 136
138 138 138
149 149 149
147 147 147
139 139 139
135 135 135
127 127 127
121 121 121
112 112 112
112 112 112
117 117 117
118 118 118
123 123 123
129 129 129
137 137 137
143 143 143
146 146 146
145 145 145
151 151 151
162 162 162
169 169 169
164 164 164
151 151 151
145 145 145
155 155 155
146 146 146
126 126 126
173 173 173
193 193 193
191 191 191
202 202 202
193 193 193
193 193 193
196 196 196
188 188 188
186 186 186
184 184 184
183 183 183
181 181 181
174 174 174
159 159 159
147 147 147
140 140 140
137 137 137
138 138 138
139 139 139
141 141 141
145 145 145
148 148 148
157 157 157
164 164 164
156 156 156
143 143 143
154 154 154
171 171 171
168 168 168
162 162 162
157 157 157
154 154 154
155 155 155
156 156 156
158 158 158
155 155 155
146 146 146
139 139 139
133 133 133
148 148 148
154 154 154
149 149 149
142 142 142
137 137 137
136 136 136
130 130 130
122 122 122
120 120 120
120 120 120
121 121 121
127 127 127
133 133 133
139 139 139
142 142 142
145 145 145
150 150 150
156 156 156
158 158 158
153 153 153
145 145 145
147 147 147
154 154 154
147 147 147
128 128 128
159 159 159
185 185 185
192 192 192
209 209 209
198 198 198
192 192 192
191 191 191
184 184 184
182 182 182
179 179 179
179 179 179
179 179 179
174 174 174
167 167 167
161 161 161
160 160 160
154 154 154
154 154 154
155 155 155
157 157 157
160 160 160
163 163 163
169 169 169
169 169 169
162 162 162
153 153 153
164 164 164
172 172 172
166 166 166
160 160 160
155 155 155
154 154 154
155 155 155
157 157 157
158 158 158
155 155 155
148 148 148
141 141 141
131 131 131
135 135 135
151 151 151
153 153 153
149 149 149
144 144 144
141 141 141
142 142 142
141 141 141
140 140 140
137 137 137
136 136 136
138 138 138
138 138 138
138 138 138
137 137 137
140 140 140
144 144 144
148 148 148
148 148 148
144 144 144
140 140 140
144 144 144
152 152 152
148 148 148
134 134 134
150 150 150
173 173 173
191 191 191
212 212 212
204 204 204
192 192 192
187 187 187
179 179 179
175 175 175
174 174 174
173 173 173
172 172 172
168 168 168
161 161 161
157 157 157
156 156 156
154 154 154
154 154 154
159 159 159
161 161 161
162 162 162
160 160 160
162 162 162
169 169 169
173 173 173
165 165 165
168 168 168
170 170 170
162 162 162
157 157 157
154 154 154
154 154 154
157 157 157
156 156 156
156 156 156
156 156 156
149 149 149
141 141 141
137 137 137
129 129 129
137 137 137
146 146 146
148 148 148
146 146 146
145 145 145
143 143 143
143 143 143
143 143 143
142 142 142
140 140 140
140 140 140
139 139 139
135 135 135
134 134 134
136 136 136
137 137 137
140 140 140
141 141 141
138 138 138
137 137 137
147 147 147
155 155 155
152 152 152
139 139 139
153 153 153
172 172 172
196 196 196
213 213 213
206 206 206
192 192 192
182 182 182
175 175 175
171 171 171
169 169 169
166 166 166
163 163 163
159 159 159
156 156 156
153 153 153
151 151 151
153 153 153
155 155 155
157 157 157
155 155 155
152 152 152
149 149 149
163 163 163
180 180 180
178 178 178
167 167 167
168 168 168
167 167 167
159 159 159
157 157 157
157 157 157
158 158 158
160 160 160
158 158 158
157 157 157
156 156 156
151 151 151
144 144 144
140 140 140
137 137 137
130 130 130
132 132 132
139 139 139
141 141 141
143 143 143
145 145 145
144 144 144
144 144 144
142 142 142
141 141 141
141 141 141
140 140 140
136 136 136
134 134 134
134 134 134
135 135 135
136 136 136
134 134 134
133 133 133
138 138 138
150 150 150
157 157 157
154 154 154
141 141 141
160 160 160
177 177 177
201 201 201
212 212 212
204 204 204
194 194 194
183 183 183
174 174 174
166 166 166
161 161 161
158 158 158
158 158 158
155 155 155
154 154 154
151 151 151
149 149 149
149 149 149
149 149 149
146 146 146
142 142 142
140 140 140
154 154 154
174 174 174
180 180 180
176 176 176
167 167 167
169 169 169
169 169 169
160 160 160
156 156 156
159 159 159
162 162 162
161 161 161
159 159 159
158 158 158
158 158 158
154 154 154
150 150 150
144 144 144
142 142 142
136 136 136
131 131 131
125 125 125
129 129 129
135 135 135
139 139 139
141 141 141
143 143 143
144 144 144
143 143 143
142 142 142
140 140 140
135 135 135
133 133 133
134 134 134
134 134 134
134 134 134
133 133 133
136 136 136
146 146 146
156 156 156
158 158 158
153 153 153
142 142 142
166 166 166
182 182 182
203 203 203
213 213 213
205 205 205
195 195 195
185 185 185
175 175 175
169 169 169
164 164 164
158 158 158
152 152 152
147 147 147
144 144 144
142 142 142
139 139 139
140 140 140
140 140 140
141 141 141
143 143 143
146 146 146
159 159 159
172 172 172
175 175 175
172 172 172
166 166 166
166 166 166
169 169 169
159 159 159
150 150 150
152 152 152
157 157 157
156 156 156
154 154 154
154 154 154
155 155 155
155 155 155
155 155 155
148 148 148
143 143 143
141 141 141
138 138 138
134 134 134
123 123 123
119 119 119
126 126 126
130 130 130
134 134 134
136 136 136
135 135 135
136 136 136
133 133 133
129 129 129
129 129 129
129 129 129
129 129 129
131 131 131
139 139 139
147 147 147
155 155 155
162 162 162
157 157 157
152 152 152
141 141 141
173 173 173
185 185 185
205 205 205
213 213 213
206 206 206
197 197 197
188 188 188
176 176 176
171 171 171
168 168 168
164 164 164
159 159 159
153 153 153
151 151 151
146 146 146
143 143 143
143 143 143
142 142 142
143 143 143
144 144 144
150 150 150
159 159 159
166 166 166
167 167 167
167 167 167
160 160 160
158 158 158
160 160 160
146 146 146
132 132 132
134 134 134
141 141 141
142 142 142
141 141 141
144 144 144
145 145 145
146 146 146
150 150 150
144 144 144
139 139 139
139 139 139
141 141 141
138 138 138
132 132 132
124 124 124
122 122 122
123 123 123
125 125 125
126 126 126
127 127 127
124 124 124
122 122 122
121 121 121
124 124 124
127 127 127
131 131 131
138 138 138
147 147 147
157 157 157
161 161 161
164 164 164
158 158 158
152 152 152
139 139 139
177 177 177
188 188 188
206 206 206
212 212 212
209 209 209
200 200 200
189 189 189
180 180 180
173 173 173
168 168 168
162 162 162
156 156 156
152 152 152
147 147 147
144 144 144
140 140 140
139 139 139
141 141 141
143 143 143
147 147 147
153 153 153
159 159 159
158 158 158
163 163 163
160 160 160
148 148 148
141 141 141
140 140 140
122 122 122
104 104 104
107 107 107
119 119 119
124 124 124
124 124 124
126 126 126
126 126 126
128 128 128
131 131 131
131 131 131
131 131 131
135 135 135
140 140 140
141 141 141
136 136 136
131 131 131
128 128 128
127 127 127
125 125 125
126 126 126
128 128 128
125 125 125
125 125 125
125 125 125
126 126 126
130 130 130
135 135 135
142 142 142
152 152 152
162 162 162
167 167 167
164 164 164
158 158 158
150 150 150
138 138 138
180 180 180
192 192 192
207 207 207
212 212 212
209 209 209
202 202 202
190 190 190
181 181 181
174 174 174
168 168 168
159 159 159
151 151 151
148 148 148
143 143 143
141 141 141
140 140 140
140 140 140
142 142 142
144 144 144
150 150 150
158 158 158
158 158 158
155 155 155
160 160 160
151 151 151
128 128 128
112 112 112
110 110 110
97 97 97
76 76 76
79 79 79
100 100 100
110 110 110
108 108 108
103 103 103
101 101 101
102 102 102
107 107 107
111 111 111
121 121 121
134 134 134
141 141 141
142 142 142
140 140 140
135 135 135
128 128 128
125 125 125
124 124 124
125 125 125
126 126 126
126 126 126
126 126 126
127 127 127
127 127 127
132 132 132
136 136 136
145 145 145
156 156 156
162 162 162
168 168 168
164 164 164
157 157 157
149 149 149
135 135 135
180 180 180
195 195 195
206 206 206
211 211 211
208 208 208
201 201 201
192 192 192
183 183 183
177 177 177
168 168 168
158 158 158
151 151 151
147 147 147
144 144 144
144 144 144
145 145 145
143 143 143
144 144 144
147 147 147
153 153 153
161 161 161
160 160 160
155 155 155
156 156 156
146 146 146
117 117 117
92 92 92
85 85 85
85 85 85
70 70 70
70 70 70
91 91 91
104 104 104
98 98 98
88 88 88
84 84 84
85 85 85
88 88 88
97 97 97
116 116 116
137 137 137
148 148 148
150 150 150
147 147 147
141 141 141
132 132 132
125 125 125
125 125 125
123 123 123
123 123 123
125 125 125
126 126 126
127 127 127
129 129 129
134 134 134
140 140 140
148 148 148
158 158 158
164 164 164
167 167 167
164 164 164
156 156 156
147 147 147
132 132 132
177 177 177
198 198 198
206 206 206
211 211 211
207 207 207
203 203 203
195 195 195
185 185 185
178 178 178
169 169 169
161 161 161
155 155 155
149 149 149
148 148 148
149 149 149
147 147 147
145 145 145
145 145 145
151 151 151
160 160 160
168 168 168
166 166 166
162 162 162
157 157 157
150 150 150
126 126 126
100 100 100
95 95 95
97 97 97
91 91 91
86 86 86
97 97 97
104 104 104
98 98 98
94 94 94
94 94 94
93 93 93
95 95 95
105 105 105
125 125 125
145 145 145
154 154 154
159 159 159
160 160 160
153 153 153
145 145 145
134 134 134
131 131 131
127 127 127
125 125 125
125 125 125
127 127 127
129 129 129
132 132 132
137 137 137
144 144 144
153 153 153
161 161 161
166 166 166
167 167 167
163 163 163
156 156 156
144 144 144
134 134 134
174 174 174
200 200 200
207 207 207
211 211 211
208 208 208
204 204 204
199 199 199
189 189 189
181 181 181
172 172 172
165 165 165
159 159 159
153 153 153
151 151 151
151 151 151
148 148 148
146 146 146
149 149 149
156 156 156
169 169 169
178 178 178
175 175 175
171 171 171
164 164 164
159 159 159
147 147 147
133 133 133
130 130 130
124 124 124
115 115 115
107 107 107
106 106 106
108 108 108
107 107 107
113 113 113
118 118 118
116 116 116
117 117 117
123 123 123
136 136 136
148 148 148
156 156 156
163 163 163
168 168 168
164 164 164
159 159 159
151 151 151
143 143 143
137 137 137
134 134 134
133 133 133
133 133 133
135 135 135
138 138 138
144 144 144
149 149 149
158 158 158
162 162 162
167 167 167
167 167 167
163 163 163
156 156 156
143 143 143
137 137 137
169 169 169
197 197 197
209 209 209
214 214 214
211 211 211
206 206 206
201 201 201
193 193 193
184 184 184
175 175 175
168 168 168
162 162 162
156 156 156
154 154 154
151 151 151
148 148 148
147 147 147
153 153 153
166 166 166
182 182 182
188 188 188
181 181 181
177 177 177
174 174 174
172 172 172
170 170 170
165 165 165
157 157 157
141 141 141
128 128 128
117 117 117
112 112 112
112 112 112
114 114 114
124 124 124
135 135 135
137 137 137
139 139 139
140 140 140
145 145 145
152 152 152
157 157 157
165 165 165
170 170 170
169 169 169
166 166 166
161 161 161
155 155 155
149 149 149
144 144 144
142 142 142
142 142 142
143 143 143
145 145 145
149 149 149
155 155 155
162 162 162
166 166 166
169 169 169
167 167 167
164 164 164
154 154 154
144 144 144
140 140 140
161 161 161
192 192 192
209 209 209
215 215 215
214 214 214
208 208 208
204 204 204
196 196 196
187 187 187
179 179 179
172 172 172
165 165 165
159 159 159
156 156 156
153 153 153
149 149 149
152 152 152
163 163 163
179 179 179
191 191 191
192 192 192
185 185 185
181 181 181
184 184 184
187 187 187
188 188 188
183 183 183
169 169 169
147 147 147
132 132 132
122 122 122
115 115 115
115 115 115
121 121 121
128 128 128
141 141 141
149 149 149
152 152 152
151 151 151
153 153 153
156 156 156
160 160 160
165 165 165
170 170 170
171 171 171
169 169 169
165 165 165
161 161 161
158 158 158
151 151 151
149 149 149
149 149 149
150 150 150
152 152 152
154 154 154
159 159 159
164 164 164
168 168 168
170 170 170
168 168 168
162 162 162
152 152 152
147 147 147
142 142 142
155 155 155
183 183 183
206 206 206
215 215 215
215 215 215
210 210 210
205 205 205
200 200 200
192 192 192
184 184 184
175 175 175
168 168 168
162 162 162
158 158 158
155 155 155
155 155 155
163 163 163
174 174 174
188 188 188
193 193 193
192 192 192
187 187 187
186 186 186
188 188 188
194 194 194
198 198 198
191 191 191
174 174 174
153 153 153
138 138 138
129 129 129
123 123 123
123 123 123
129 129 129
136 136 136
146 146 146
157 157 157
160 160 160
161 161 161
164 164 164
163 163 163
162 162 162
162 162 162
167 167 167
170 170 170
171 171 171
168 168 168
163 163 163
162 162 162
159 159 159
154 154 154
154 154 154
153 153 153
156 156 156
159 159 159
163 163 163
168 168 168
171 171 171
171 171 171
167 167 167
162 162 162
154 154 154
153 153 153
146 146 146
152 152 152
172 172 172
198 198 198
215 215 215
216 216 216
211 211 211
207 207 207
201 201 201
196 196 196
190 190 190
179 179 179
173 173 173
165 165 165
160 160 160
159 159 159
164 164 164
173 173 173
184 184 184
191 191 191
193 193 193
192 192 192
189 189 189
188 188 188
187 187 187
193 193 193
196 196 196
191 191 191
177 177 177
162 162 162
151 151 151
144 144 144
137 137 137
136 136 136
141 141 141
149 149 149
156 156 156
166 166 166
168 168 168
168 168 168
166 166 166
164 164 164
161 161 161
161 161 161
162 162 162
167 167 167
169 169 169
170 170 170
167 167 167
163 163 163
163 163 163
161 161 161
159 159 159
158 158 158
159 159 159
162 162 162
166 166 166
170 170 170
173 173 173
172 172 172
168 168 168
160 160 160
156 156 156
156 156 156
145 145 145
151 151 151
165 165 165
190 190 190
211 211 211
217 217 217
212 212 212
207 207 207
203 203 203
198 198 198
193 193 193
185 185 185
176 176 176
168 168 168
163 163 163
167 167 167
176 176 176
183 183 183
187 187 187
193 193 193
192 192 192
190 190 190
186 186 186
184 184 184
186 186 186
187 187 187
191 191 191
186 186 186
181 181 181
173 173 173
165 165 165
160 160 160
154 154 154
153 153 153
160 160 160
164 164 164
167 167 167
173 173 173
175 175 175
173 173 173
170 170 170
166 166 166
163 163 163
161 161 161
161 161 161
163 163 163
165 165 165
168 168 168
167 167 167
164 164 164
165 165 165
163 163 163
164 164 164
163 163 163
163 163 163
164 164 164
167 167 167
171 171 171
172 172 172
172 172 172
167 167 167
161 161 161
159 159 159
159 159 159
146 146 146
152 152 152
161 161 161
184 184 184
204 204 204
215 215 215
214 214 214
206 206 206
202 202 202
199 199 199
195 195 195
189 189 189
180 180 180
171 171 171
168 168 168
175 175 175
183 183 183
186 186 186
188 188 188
189 189 189
188 188 188
182 182 182
178 178 178
177 177 177
179 179 179
181 181 181
185 185 185
186 186 186
183 183 183
181 181 181
177 177 177
176 176 176
172 172 172
172 172 172
175 175 175
174 174 174
174 174 174
176 176 176
177 177 177
175 175 175
171 171 171
167 167 167
164 164 164
159 159 159
159 159 159
161 161 161
163 163 163
162 162 162
163 163 163
163 163 163
164 164 164
165 165 165
165 165 165
165 165 165
166 166 166
167 167 167
168 168 168
171 171 171
171 171 171
169 169 169
166 166 166
160 160 160
163 163 163
160 160 160
148 148 148
154 154 154
161 161 161
174 174 174
193 193 193
210 210 210
212 212 212
207 207 207
201 201 201
198 198 198
196 196 196
190 190 190
182 182 182
173 173 173
168 168 168
172 172 172
180 180 180
185 185 185
183 183 183
183 183 183
179 179 179
173 173 173
169 169 169
170 170 170
172 172 172
172 172 172
177 177 177
182 182 182
182 182 182
185 185 185
185 185 185
186 186 186
186 186 186
184 184 184
183 183 183
178 178 178
176 176 176
176 176 176
173 173 173
171 171 171
167 167 167
165 165 165
163 163 163
158 158 158
157 157 157
158 158 158
161 161 161
158 158 158
158 158 158
162 162 162
163 163 163
166 166 166
166 166 166
164 164 164
164 164 164
167 167 167
169 169 169
169 169 169
167 167 167
168 168 168
166 166 166
158 158 158
159 159 159
155 155 155
143 143 143
157 157 157
158 158 158
164 164 164
180 180 180
204 204 204
208 208 208
207 207 207
200 200 200
195 195 195
195 195 195
191 191 191
183 183 183
172 172 172
162 162 162
164 164 164
173 173 173
174 174 174
172 172 172
174 174 174
171 171 171
167 167 167
162 162 162
164 164 164
164 164 164
164 164 164
167 167 167
171 171 171
173 173 173
177 177 177
182 182 182
184 184 184
184 184 184
181 181 181
181 181 181
177 177 177
172 172 172
169 169 169
166 166 166
166 166 166
164 164 164
163 163 163
161 161 161
158 158 158
157 157 157
156 156 156
155 155 155
154 154 154
155 155 155
159 159 159
159 159 159
164 164 164
164 164 164
164 164 164
162 162 162
166 166 166
164 164 164
166 166 166
164 164 164
165 165 165
164 164 164
151 151 151
145 145 145
139 139 139
135 135 135
163 163 163
158 158 158
158 158 158
170 170 170
197 197 197
205 205 205
205 205 205
200 200 200
193 193 193
195 195 195
191 191 191
182 182 182
171 171 171
155 155 155
156 156 156
163 163 163
158 158 158
152 152 152
156 156 156
159 159 159
160 160 160
153 153 153
152 152 152
152 152 152
154 154 154
155 155 155
154 154 154
154 154 154
160 160 160
165 165 165
166 166 166
164 164 164
161 161 161
162 162 162
162 162 162
157 157 157
155 155 155
154 154 154
156 156 156
155 155 155
157 157 157
157 157 157
155 155 155
155 155 155
154 154 154
149 149 149
149 149 149
150 150 150
154 154 154
156 156 156
161 161 161
166 166 166
164 164 164
163 163 163
163 163 163
161 161 161
162 162 162
162 162 162
163 163 163
157 157 157
140 140 140
131 131 131
129 129 129
130 130 130
166 166 166
160 160 160
156 156 156
164 164 164
188 188 188
202 202 202
203 203 203
200 200 200
193 193 193
191 191 191
191 191 191
180 180 180
168 168 168
153 153 153
152 152 152
152 152 152
144 144 144
134 134 134
136 136 136
141 141 141
146 146 146
144 144 144
139 139 139
137 137 137
138 138 138
137 137 137
133 133 133
133 133 133
135 135 135
138 138 138
141 141 141
141 141 141
140 140 140
140 140 140
141 141 141
140 140 140
140 140 140
141 141 141
142 142 142
142 142 142
145 145 145
146 146 146
147 147 147
148 148 148
148 148 148
147 147 147
144 144 144
146 146 146
150 150 150
154 154 154
157 157 157
162 162 162
162 162 162
161 161 161
158 158 158
158 158 158
160 160 160
163 163 163
162 162 162
149 149 149
132 132 132
124 124 124
127 127 127
129 129 129
163 163 163
159 159 159
155 155 155
158 158 158
178 178 178
199 199 199
200 200 200
199 199 199
193 193 193
188 188 188
188 188 188
180 180 180
164 164 164
153 153 153
147 147 147
140 140 140
131 131 131
125 125 125
130 130 130
134 134 134
139 139 139
139 139 139
141 141 141
139 139 139
134 134 134
127 127 127
121 121 121
117 117 117
116 116 116
115 115 115
116 116 116
120 120 120
119 119 119
121 121 121
125 125 125
126 126 126
128 128 128
130 130 130
132 132 132
135 135 135
137 137 137
140 140 140
140 140 140
144 144 144
148 148 148
148 148 148
146 146 146
144 144 144
149 149 149
151 151 151
152 152 152
155 155 155
156 156 156
157 157 157
156 156 156
157 157 157
160 160 160
163 163 163
157 157 157
142 142 142
127 127 127
120 120 120
124 124 124
130 130 130
157 157 157
154 154 154
152 152 152
155 155 155
171 171 171
193 193 193
200 200 200
197 197 197
193 193 193
186 186 186
185 185 185
180 180 180
165 165 165
156 156 156
146 146 146
132 132 132
122 122 122
122 122 122
131 131 131
139 139 139
140 140 140
142 142 142
147 147 147
149 149 149
148 148 148
143 143 143
134 134 134
128 128 128
122 122 122
118 118 118
117 117 117
121 121 121
122 122 122
123 123 123
127 127 127
129 129 129
130 130 130
133 133 133
137 137 137
140 140 140
144 144 144
144 144 144
144 144 144
144 144 144
148 148 148
147 147 147
145 145 145
145 145 145
147 147 147
149 149 149
149 149 149
149 149 149
151 151 151
153 153 153
155 155 155
158 158 158
160 160 160
162 162 162
151 151 151
134 134 134
124 124 124
120 120 120
118 118 118
124 124 124
146 146 146
144 144 144
147 147 147
152 152 152
164 164 164
184 184 184
194 194 194
193 193 193
192 192 192
188 188 188
183 183 183
181 181 181
171 171 171
158 158 158
146 146 146
134 134 134
124 124 124
125 125 125
137 137 137
143 143 143
148 148 148
151 151 151
155 155 155
157 157 157
157 157 157
157 157 157
152 152 152
147 147 147
142 142 142
136 136 136
131 131 131
132 132 132
133 133 133
136 136 136
138 138 138
138 138 138
138 138 138
137 137 137
139 139 139
141 141 141
145 145 145
147 147 147
145 145 145
143 143 143
144 144 144
145 145 145
145 145 145
144 144 144
145 145 145
149 149 149
150 150 150
148 148 148
147 147 147
152 152 152
155 155 155
160 160 160
162 162 162
157 157 157
144 144 144
130 130 130
122 122 122
117 117 117
114 114 114
120 120 120
134 134 134
134 134 134
141 141 141
150 150 150
159 159 159
174 174 174
189 189 189
188 188 188
189 189 189
189 189 189
185 185 185
180 180 180
175 175 175
162 162 162
151 151 151
142 142 142
135 135 135
137 137 137
147 147 147
153 153 153
155 155 155
156 156 156
159 159 159
160 160 160
161 161 161
159 159 159
154 154 154
147 147 147
142 142 142
134 134 134
129 129 129
128 128 128
130 130 130
134 134 134
135 135 135
135 135 135
135 135 135
134 134 134
138 138 138
140 140 140
141 141 141
141 141 141
141 141 141
140 140 140
140 140 140
141 141 141
142 142 142
144 144 144
146 146 146
150 150 150
150 150 150
146 146 146
147 147 147
151 151 151
157 157 157
160 160 160
161 161 161
152 152 152
137 137 137
126 126 126
124 124 124
112 112 112
113 113 113
111 111 111
124 124 124
124 124 124
135 135 135
148 148 148
156 156 156
165 165 165
181 181 181
187 187 187
185 185 185
187 187 187
185 185 185
181 181 181
176 176 176
168 168 168
158 158 158
151 151 151
149 149 149
153 153 153
163 163 163
169 169 169
171 171 171
170 170 170
167 167 167
165 165 165
163 163 163
159 159 159
151 151 151
144 144 144
137 137 137
127 127 127
120 120 120
118 118 118
121 121 121
122 122 122
126 126 126
127 127 127
131 131 131
134 134 134
138 138 138
140 140 140
142 142 142
144 144 144
145 145 145
145 145 145
145 145 145
145 145 145
145 145 145
148 148 148
150 150 150
152 152 152
148 148 148
145 145 145
148 148 148
152 152 152
157 157 157
159 159 159
157 157 157
148 148 148
131 131 131
125 125 125
123 123 123
106 106 106
106 106 106
101 101 101
115 115 115
115 115 115
126 126 126
144 144 144
154 154 154
159 159 159
169 169 169
183 183 183
185 185 185
184 184 184
185 185 185
181 181 181
177 177 177
172 172 172
166 166 166
159 159 159
160 160 160
167 167 167
177 177 177
181 181 181
182 182 182
179 179 179
176 176 176
170 170 170
165 165 165
162 162 162
151 151 151
139 139 139
131 131 131
123 123 123
117 117 117
116 116 116
116 116 116
116 116 116
120 120 120
125 125 125
129 129 129
135 135 135
141 141 141
146 146 146
151 151 151
155 155 155
156 156 156
158 158 158
158 158 158
154 154 154
153 153 153
151 151 151
151 151 151
150 150 150
149 149 149
145 145 145
150 150 150
154 154 154
157 157 157
156 156 156
153 153 153
146 146 146
129 129 129
126 126 126
117 117 117
102 102 102
98 98 98
96 96 96
112 112 112
110 110 110
120 120 120
139 139 139
151 151 151
155 155 155
159 159 159
175 175 175
183 183 183
184 184 184
183 183 183
182 182 182
179 179 179
174 174 174
171 171 171
167 167 167
167 167 167
171 171 171
179 179 179
185 185 185
187 187 187
184 184 184
178 178 178
172 172 172
166 166 166
159 159 159
151 151 151
141 141 141
131 131 131
124 124 124
120 120 120
119 119 119
118 118 118
118 118 118
122 122 122
129 129 129
134 134 134
140 140 140
144 144 144
151 151 151
159 159 159
163 163 163
165 165 165
168 168 168
165 165 165
159 159 159
155 155 155
152 152 152
151 151 151
149 149 149
147 147 147
146 146 146
151 151 151
155 155 155
156 156 156
154 154 154
152 152 152
145 145 145
128 128 128
126 126 126
111 111 111
96 96 96
94 94 94
98 98 98
112 112 112
110 110 110
113 113 113
134 134 134
147 147 147
153 153 153
153 153 153
164 164 164
178 178 178
183 183 183
182 182 182
183 183 183
183 183 183
178 178 178
172 172 172
174 174 174
170 170 170
169 169 169
170 170 170
176 176 176
179 179 179
177 177 177
172 172 172
166 166 166
161 161 161
151 151 151
146 146 146
140 140 140
132 132 132
127 127 127
126 126 126
124 124 124
122 122 122
122 122 122
125 125 125
127 127 127
134 134 134
141 141 141
147 147 147
152 152 152
161 161 161
164 164 164
164 164 164
164 164 164
161 161 161
157 157 157
153 153 153
150 150 150
150 150 150
148 148 148
147 147 147
147 147 147
153 153 153
155 155 155
153 153 153
152 152 152
152 152 152
146 146 146
128 128 128
122 122 122
103 103 103
89 89 89
93 93 93
98 98 98
110 110 110
110 110 110
110 110 110
128 128 128
143 143 143
150 150 150
149 149 149
159 159 159
171 171 171
180 180 180
182 182 182
180 180 180
183 183 183
183 183 183
177 177 177
174 174 174
172 172 172
168 168 168
163 163 163
166 166 166
168 168 168
169 169 169
164 164 164
159 159 159
152 152 152
143 143 143
138 138 138
134 134 134
128 128 128
124 124 124
126 126 126
120 120 120
120 120 120
120 120 120
122 122 122
124 124 124
132 132 132
139 139 139
144 144 144
150 150 150
157 157 157
159 159 159
159 159 159
158 158 158
156 156 156
153 153 153
150 150 150
150 150 150
150 150 150
148 148 148
147 147 147
149 149 149
154 154 154
154 154 154
150 150 150
152 152 152
152 152 152
147 147 147
128 128 128
116 116 116
96 96 96
87 87 87
91 91 91
97 97 97
110 110 110
111 111 111
109 109 109
122 122 122
137 137 137
146 146 146
146 146 146
156 156 156
166 166 166
176 176 176
180 180 180
180 180 180
184 184 184
186 186 186
182 182 182
174 174 174
172 172 172
168 168 168
161 161 161
160 160 160
160 160 160
161 161 161
159 159 159
155 155 155
146 146 146
138 138 138
135 135 135
131 131 131
127 127 127
124 124 124
124 124 124
120 120 120
117 117 117
120 120 120
122 122 122
127 127 127
134 134 134
141 141 141
144 144 144
148 148 148
153 153 153
154 154 154
154 154 154
153 153 153
150 150 150
149 149 149
147 147 147
149 149 149
149 149 149
149 149 149
149 149 149
152 152 152
153 153 153
151 151 151
150 150 150
153 153 153
153 153 153
152 152 152
126 126 126
107 107 107
87 87 87
87 87 87
90 90 90
95 95 95
109 109 109
110 110 110
109 109 109
116 116 116
132 132 132
141 141 141
143 143 143
152 152 152
165 165 165
176 176 176
183 183 183
182 182 182
181 181 181
185 185 185
186 186 186
177 177 177
169 169 169
167 167 167
160 160 160
157 157 157
155 155 155
153 153 153
153 153 153
149 149 149
145 145 145
137 137 137
131 131 131
130 130 130
128 128 128
126 126 126
125 125 125
124 124 124
122 122 122
125 125 125
129 129 129
133 133 133
140 140 140
142 142 142
144 144 144
148 148 148
151 151 151
152 152 152
153 153 153
150 150 150
147 147 147
147 147 147
145 145 145
148 148 148
149 149 149
149 149 149
151 151 151
152 152 152
152 152 152
150 150 150
151 151 151
155 155 155
156 156 156
152 152 152
125 125 125
100 100 100
85 85 85
88 88 88
91 91 91
93 93 93
110 110 110
111 111 111
108 108 108
113 113 113
126 126 126
135 135 135
137 137 137
146 146 146
163 163 163
177 177 177
186 186 186
187 187 187
180 180 180
181 181 181
186 186 186
182 182 182
171 171 171
165 165 165
160 160 160
158 158 158
153 153 153
150 150 150
148 148 148
144 144 144
142 142 142
138 138 138
134 134 134
131 131 131
130 130 130
130 130 130
130 130 130
131 131 131
131 131 131
133 133 133
137 137 137
139 139 139
142 142 142
143 143 143
143 143 143
146 146 146
151 151 151
151 151 151
152 152 152
148 148 148
146 146 146
145 145 145
145 145 145
146 146 146
147 147 147
150 150 150
151 151 151
151 151 151
151 151 151
152 152 152
154 154 154
159 159 159
159 159 159
155 155 155
121 121 121
93 93 93
83 83 83
89 89 89
90 90 90
93 93 93
111 111 111
112 112 112
108 108 108
111 111 111
120 120 120
129 129 129
133 133 133
144 144 144
163 163 163
180 180 180
188 188 188
188 188 188
184 184 184
180 180 180
184 184 184
182 182 182
173 173 173
165 165 165
160 160 160
155 155 155
152 152 152
149 149 149
146 146 146
144 144 144
140 140 140
135 135 135
135 135 135
133 133 133
133 133 133
133 133 133
133 133 133
137 137 137
137 137 137
139 139 139
140 140 140
142 142 142
145 145 145
142 142 142
143 143 143
146 146 146
149 149 149
148 148 148
148 148 148
146 146 146
144 144 144
143 143 143
145 145 145
146 146 146
147 147 147
150 150 150
152 152 152
150 150 150
150 150 150
156 156 156
160 160 160
163 163 163
161 161 161
152 152 152
118 118 118
88 88 88
83 83 83
88 88 88
89 89 89
91 91 91
111 111 111
113 113 113
108 108 108
108 108 108
112 112 112
118 118 118
131 131 131
146 146 146
165 165 165
182 182 182
190 190 190
190 190 190
188 188 188
186 186 186
182 182 182
180 180 180
170 170 170
167 167 167
161 161 161
155 155 155
151 151 151
148 148 148
146 146 146
143 143 143
139 139 139
133 133 133
133 133 133
132 132 132
132 132 132
132 132 132
132 132 132
134 134 134
135 135 135
136 136 136
138 138 138
138 138 138
143 143 143
142 142 142
141 141 141
143 143 143
144 144 144
145 145 145
144 144 144
143 143 143
142 142 142
143 143 143
144 144 144
145 145 145
148 148 148
150 150 150
151 151 151
150 150 150
153 153 153
160 160 160
166 166 166
166 166 166
160 160 160
150 150 150
117 117 117
88 88 88
83 83 83
88 88 88
91 91 91
92 92 92
111 111 111
109 109 109
107 107 107
105 105 105
106 106 106
113 113 113
130 130 130
149 149 149
165 165 165
183 183 183
192 192 192
191 191 191
188 188 188
186 186 186
181 181 181
179 179 179
169 169 169
167 167 167
164 164 164
157 157 157
151 151 151
149 149 149
146 146 146
144 144 144
141 141 141
135 135 135
134 134 134
131 131 131
131 131 131
131 131 131
131 131 131
131 131 131
134 134 134
134 134 134
137 137 137
138 138 138
141 141 141
140 140 140
138 138 138
140 140 140
140 140 140
140 140 140
141 141 141
141 141 141
142 142 142
141 141 141
142 142 142
143 143 143
146 146 146
149 149 149
151 151 151
153 153 153
156 156 156
164 164 164
169 169 169
167 167 167
158 158 158
149 149 149
118 118 118
89 89 89
84 84 84
88 88 88
92 92 92
94 94 94
107 107 107
104 104 104
99 99 99
101 101 101
103 103 103
108 108 108
126 126 126
150 150 150
167 167 167
186 186 186
192 192 192
191 191 191
189 189 189
186 186 186
180 180 180
179 179 179
169 169 169
166 166 166
165 165 165
161 161 161
155 155 155
153 153 153
149 149 149
145 145 145
143 143 143
140 140 140
137 137 137
134 134 134
134 134 134
134 134 134
133 133 133
135 135 135
137 137 137
138 138 138
139 139 139
139 139 139
139 139 139
138 138 138
138 138 138
137 137 137
138 138 138
138 138 138
138 138 138
140 140 140
140 140 140
140 140 140
140 140 140
145 145 145
147 147 147
149 149 149
153 153 153
158 158 158
162 162 162
168 168 168
169 169 169
165 165 165
157 157 157
149 149 149
121 121 121
92 92 92
84 84 84
89 89 89
94 94 94
95 95 95
101 101 101
99 99 99
97 97 97
100 100 100
103 103 103
103 103 103
124 124 124
150 150 150
170 170 170
191 191 191
195 195 195
192 192 192
190 190 190
187 187 187
179 179 179
176 176 176
171 171 171
166 166 166
166 166 166
163 163 163
159 159 159
153 153 153
149 149 149
147 147 147
143 143 143
140 140 140
138 138 138
136 136 136
134 134 134
135 135 135
136 136 136
137 137 137
139 139 139
138 138 138
137 137 137
137 137 137
135 135 135
135 135 135
135 135 135
135 135 135
136 136 136
136 136 136
136 136 136
137 137 137
138 138 138
141 141 141
140 140 140
144 144 144
149 149 149
151 151 151
156 156 156
161 161 161
166 166 166
168 168 168
169 169 169
165 165 165
155 155 155
150 150 150
123 123 123
95 95 95
84 84 84
89 89 89
94 94 94
97 97 97
99 99 99
97 97 97
97 97 97
99 99 99
102 102 102
101 101 101
121 121 121
151 151 151
175 175 175
193 193 193
198 198 198
193 193 193
189 189 189
187 187 187
177 177 177
172 172 172
169 169 169
168 168 168
166 166 166
162 162 162
159 159 159
154 154 154
148 148 148
144 144 144
139 139 139
136 136 136
133 133 133
132 132 132
129 129 129
132 132 132
134 134 134
134 134 134
136 136 136
135 135 135
135 135 135
133 133 133
134 134 134
134 134 134
132 132 132
133 133 133
133 133 133
133 133 133
134 134 134
134 134 134
136 136 136
140 140 140
141 141 141
145 145 145
151 151 151
153 153 153
161 161 161
161 161 161
167 167 167
167 167 167
167 167 167
163 163 163
154 154 154
152 152 152
128 128 128
98 98 98
83 83 83
88 88 88
94 94 94
98 98 98
99 99 99
95 95 95
96 96 96
100 100 100
102 102 102
100 100 100
119 119 119
151 151 151
179 179 179
198 198 198
200 200 200
196 196 196
191 191 191
183 183 183
173 173 173
171 171 171
166 166 166
168 168 168
164 164 164
161 161 161
156 156 156
157 157 157
149 149 149
141 141 141
134 134 134
130 130 130
127 127 127
125 125 125
124 124 124
125 125 125
127 127 127
129 129 129
129 129 129
128 128 128
128 128 128
129 129 129
130 130 130
130 130 130
128 128 128
128 128 128
130 130 130
130 130 130
132 132 132
133 133 133
137 137 137
138 138 138
143 143 143
147 147 147
153 153 153
157 157 157
161 161 161
160 160 160
166 166 166
165 165 165
163 163 163
162 162 162
156 156 156
153 153 153
134 134 134
102 102 102
85 85 85
89 89 89
94 94 94
98 98 98
98 98 98
94 94 94
96 96 96
99 99 99
101 101 101
97 97 97
121 121 121
153 153 153
185 185 185
203 203 203
203 203 203
197 197 197
193 193 193
181 181 181
169 169 169
167 167 167
164 164 164
164 164 164
165 165 165
161 161 161
153 153 153
152 152 152
150 150 150
142 142 142
132 132 132
127 127 127
124 124 124
121 121 121
119 119 119
119 119 119
121 121 121
122 122 122
122 122 122
122 122 122
120 120 120
123 123 123
124 124 124
123 123 123
123 123 123
125 125 125
127 127 127
129 129 129
131 131 131
133 133 133
135 135 135
139 139 139
144 144 144
150 150 150
155 155 155
158 158 158
161 161 161
161 161 161
165 165 165
161 161 161
162 162 162
162 162 162
157 157 157
157 157 157
137 137 137
106 106 106
88 88 88
90 90 90
95 95 95
98 98 98
98 98 98
95 95 95
95 95 95
99 99 99
97 97 97
96 96 96
119 119 119
156 156 156
191 191 191
206 206 206
201 201 201
195 195 195
188 188 188
179 179 179
168 168 168
164 164 164
159 159 159
160 160 160
162 162 162
160 160 160
151 151 151
146 146 146
148 148 148
142 142 142
135 135 135
127 127 127
124 124 124
121 121 121
115 115 115
117 117 117
116 116 116
115 115 115
117 117 117
117 117 117
115 115 115
116 116 116
118 118 118
119 119 119
121 121 121
124 124 124
126 126 126
129 129 129
130 130 130
130 130 130
137 137 137
143 143 143
149 149 149
153 153 153
156 156 156
157 157 157
160 160 160
160 160 160
161 161 161
160 160 160
162 162 162
162 162 162
159 159 159
158 158 158
141 141 141
111 111 111
90 90 90
92 92 92
97 97 97
99 99 99
