P3
64 64
255
123 123 123
131 131 131
137 137 137
135 135 135
130 130 130
125 125 125
119 119 119
112 112 112
107 107 107
106 106 106
105 105 105
104 104 104
104 104 104
104 104 104
105 105 105
105 105 105
105 105 105
106 106 106
105 105 105
105 105 105
104 104 104
104 104 104
104 104 104
103 103 103
103 103 103
102 102 102
102 102 102
101 101 101
100 100 100
98 98 98
98 98 98
98 98 98
98 98 98
97 97 97
97 97 97
96 96 96
94 94 94
93 93 93
92 92 92
91 91 91
90 90 90
89 89 89
87 87 87
87 87 87
86 86 86
85 85 85
84 84 84
83 83 83
82 82 82
82 82 82
82 82 82
81 81 81
81 81 81
81 81 81
82 82 82
83 83 83
83 83 83
82 82 82
83 83 83
85 85 85
87 87 87
86 86 86
80 80 80
85 85 85
126 126 126
135 135 135
139 139 139
136 136 136
131 131 131
126 126 126
120 120 120
113 113 113
107 107 107
105 105 105
105 105 105
104 104 104
104 104 104
105 105 105
106 106 106
106 106 106
106 106 106
106 106 106
106 106 106
105 105 105
105 105 105
105 105 105
104 104 104
104 104 104
103 103 103
103 103 103
102 102 102
101 101 101
100 100 100
99 99 99
98 98 98
99 99 99
99 99 99
98 98 98
98 98 98
97 97 97
96 96 96
94 94 94
94 94 94
93 93 93
92 92 92
91 91 91
90 90 90
89 89 89
88 88 88
87 87 87
86 86 86
85 85 85
84 84 84
83 83 83
82 82 82
82 82 82
82 82 82
82 82 82
82 82 82
83 83 83
83 83 83
83 83 83
83 83 83
85 85 85
86 86 86
86 86 86
81 81 81
83 83 83
130 130 130
137 137 137
141 141 141
137 137 137
131 131 131
126 126 126
121 121 121
113 113 113
106 106 106
105 105 105
105 105 105
105 105 105
105 105 105
106 106 106
106 106 106
107 107 107
106 106 106
107 107 107
106 106 106
106 106 106
105 105 105
105 105 105
104 104 104
104 104 104
104 104 104
104 104 104
102 102 102
101 101 101
101 101 101
100 100 100
99 99 99
100 100 100
99 99 99
99 99 99
98 98 98
99 99 99
98 98 98
97 97 97
96 96 96
96 96 96
95 95 95
93 93 93
92 92 92
91 91 91
89 89 89
88 88 88
87 87 87
86 86 86
86 86 86
84 84 84
83 83 83
83 83 83
83 83 83
83 83 83
83 83 83
83 83 83
84 84 84
83 83 83
84 84 84
85 85 85
87 87 87
87 87 87
83 83 83
83 83 83
133 133 133
140 140 140
142 142 142
137 137 137
131 131 131
127 127 127
121 121 121
112 112 112
106 106 106
106 106 106
106 106 106
106 106 106
106 106 106
106 106 106
106 106 106
107 107 107
107 107 107
107 107 107
107 107 107
107 107 107
106 106 106
105 105 105
105 105 105
104 104 104
104 104 104
103 103 103
102 102 102
101 101 101
100 100 100
101 101 101
100 100 100
100 100 100
100 100 100
100 100 100
100 100 100
99 99 99
99 99 99
98 98 98
98 98 98
97 97 97
97 97 97
96 96 96
95 95 95
93 93 93
92 92 92
91 91 91
90 90 90
89 89 89
89 89 89
88 88 88
86 86 86
85 85 85
84 84 84
84 84 84
84 84 84
84 84 84
85 85 85
84 84 84
85 85 85
85 85 85
87 87 87
87 87 87
84 84 84
83 83 83
136 136 136
142 142 142
143 143 143
138 138 138
131 131 131
127 127 127
120 120 120
111 111 111
107 107 107
107 107 107
107 107 107
106 106 106
106 106 106
107 107 107
107 107 107
108 108 108
107 107 107
108 108 108
108 108 108
107 107 107
106 106 106
106 106 106
105 105 105
104 104 104
103 103 103
103 103 103
102 102 102
102 102 102
100 100 100
100 100 100
100 100 100
101 101 101
101 101 101
101 101 101
101 101 101
100 100 100
99 99 99
99 99 99
99 99 99
99 99 99
99 99 99
99 99 99
98 98 98
96 96 96
96 96 96
95 95 95
94 94 94
93 93 93
92 92 92
91 91 91
90 90 90
89 89 89
87 87 87
85 85 85
85 85 85
86 86 86
85 85 85
85 85 85
85 85 85
86 86 86
86 86 86
87 87 87
85 85 85
84 84 84
139 139 139
144 144 144
144 144 144
138 138 138
131 131 131
127 127 127
120 120 120
111 111 111
108 108 108
107 107 107
107 107 107
105 105 105
106 106 106
107 107 107
108 108 108
108 108 108
108 108 108
108 108 108
107 107 107
106 106 106
105 105 105
104 104 104
103 103 103
102 102 102
101 101 101
101 101 101
101 101 101
101 101 101
100 100 100
100 100 100
100 100 100
101 101 101
101 101 101
102 102 102
102 102 102
100 100 100
99 99 99
99 99 99
100 100 100
100 100 100
100 100 100
101 101 101
101 101 101
99 99 99
98 98 98
98 98 98
98 98 98
96 96 96
94 94 94
94 94 94
93 93 93
92 92 92
91 91 91
89 89 89
87 87 87
88 88 88
88 88 88
87 87 87
86 86 86
86 86 86
87 87 87
88 88 88
86 86 86
84 84 84
140 140 140
144 144 144
144 144 144
138 138 138
130 130 130
127 127 127
120 120 120
112 112 112
109 109 109
109 109 109
108 108 108
106 106 106
105 105 105
105 105 105
106 106 106
106 106 106
106 106 106
105 105 105
104 104 104
102 102 102
101 101 101
100 100 100
100 100 100
99 99 99
98 98 98
99 99 99
98 98 98
99 99 99
98 98 98
98 98 98
99 99 99
100 100 100
101 101 101
101 101 101
101 101 101
100 100 100
100 100 100
100 100 100
100 100 100
99 99 99
100 100 100
100 100 100
101 101 101
100 100 100
98 98 98
97 97 97
97 97 97
96 96 96
95 95 95
95 95 95
94 94 94
93 93 93
95 95 95
95 95 95
90 90 90
89 89 89
91 91 91
91 91 91
90 90 90
89 89 89
89 89 89
89 89 89
87 87 87
83 83 83
139 139 139
143 143 143
143 143 143
137 137 137
129 129 129
125 125 125
119 119 119
111 111 111
109 109 109
109 109 109
107 107 107
105 105 105
102 102 102
102 102 102
102 102 102
103 103 103
102 102 102
101 101 101
100 100 100
99 99 99
98 98 98
97 97 97
97 97 97
96 96 96
95 95 95
95 95 95
94 94 94
94 94 94
94 94 94
96 96 96
98 98 98
100 100 100
101 101 101
101 101 101
100 100 100
100 100 100
99 99 99
99 99 99
98 98 98
97 97 97
97 97 97
97 97 97
97 97 97
98 98 98
97 97 97
95 95 95
95 95 95
95 95 95
93 93 93
93 93 93
94 94 94
91 91 91
94 94 94
97 97 97
95 95 95
90 90 90
90 90 90
94 94 94
95 95 95
93 93 93
92 92 92
91 91 91
88 88 88
85 85 85
139 139 139
143 143 143
142 142 142
136 136 136
127 127 127
123 123 123
116 116 116
110 110 110
108 108 108
108 108 108
107 107 107
103 103 103
100 100 100
101 101 101
100 100 100
100 100 100
98 98 98
98 98 98
98 98 98
98 98 98
96 96 96
95 95 95
94 94 94
94 94 94
94 94 94
93 93 93
92 92 92
91 91 91
92 92 92
94 94 94
96 96 96
99 99 99
100 100 100
100 100 100
100 100 100
100 100 100
100 100 100
99 99 99
96 96 96
96 96 96
96 96 96
95 95 95
95 95 95
97 97 97
97 97 97
96 96 96
95 95 95
93 93 93
93 93 93
93 93 93
93 93 93
90 90 90
89 89 89
93 93 93
96 96 96
94 94 94
91 91 91
92 92 92
97 97 97
98 98 98
96 96 96
94 94 94
90 90 90
86 86 86
138 138 138
144 144 144
142 142 142
136 136 136
126 126 126
121 121 121
114 114 114
109 109 109
108 108 108
108 108 108
107 107 107
103 103 103
101 101 101
100 100 100
100 100 100
98 98 98
97 97 97
96 96 96
97 97 97
96 96 96
95 95 95
95 95 95
94 94 94
94 94 94
93 93 93
93 93 93
92 92 92
90 90 90
91 91 91
94 94 94
96 96 96
99 99 99
100 100 100
99 99 99
99 99 99
100 100 100
102 102 102
100 100 100
95 95 95
95 95 95
97 97 97
95 95 95
95 95 95
99 99 99
98 98 98
97 97 97
97 97 97
90 90 90
91 91 91
92 92 92
93 93 93
93 93 93
91 91 91
91 91 91
94 94 94
97 97 97
95 95 95
92 92 92
92 92 92
97 97 97
98 98 98
98 98 98
94 94 94
89 89 89
138 138 138
143 143 143
141 141 141
136 136 136
125 125 125
117 117 117
110 110 110
108 108 108
109 109 109
109 109 109
108 108 108
105 105 105
103 103 103
102 102 102
100 100 100
98 98 98
97 97 97
96 96 96
97 97 97
97 97 97
96 96 96
96 96 96
96 96 96
95 95 95
94 94 94
94 94 94
91 91 91
91 91 91
93 93 93
96 96 96
99 99 99
100 100 100
101 101 101
99 99 99
100 100 100
102 102 102
105 105 105
103 103 103
100 100 100
99 99 99
100 100 100
101 101 101
101 101 101
102 102 102
100 100 100
98 98 98
96 96 96
93 93 93
90 90 90
89 89 89
89 89 89
90 90 90
90 90 90
91 91 91
92 92 92
92 92 92
93 93 93
94 94 94
90 90 90
94 94 94
98 98 98
99 99 99
97 97 97
91 91 91
138 138 138
142 142 142
140 140 140
136 136 136
124 124 124
114 114 114
109 109 109
109 109 109
112 112 112
112 112 112
111 111 111
108 108 108
105 105 105
101 101 101
99 99 99
97 97 97
95 95 95
95 95 95
94 94 94
95 95 95
94 94 94
94 94 94
95 95 95
94 94 94
92 92 92
95 95 95
93 93 93
89 89 89
93 93 93
98 98 98
100 100 100
99 99 99
99 99 99
99 99 99
100 100 100
104 104 104
107 107 107
106 106 106
106 106 106
105 105 105
105 105 105
105 105 105
102 102 102
100 100 100
98 98 98
98 98 98
96 96 96
96 96 96
91 91 91
89 89 89
90 90 90
91 91 91
92 92 92
93 93 93
96 96 96
96 96 96
93 93 93
89 89 89
91 91 91
93 93 93
97 97 97
99 99 99
98 98 98
93 93 93
140 140 140
143 143 143
139 139 139
133 133 133
121 121 121
113 113 113
112 112 112
111 111 111
114 114 114
113 113 113
110 110 110
105 105 105
101 101 101
97 97 97
97 97 97
96 96 96
96 96 96
97 97 97
97 97 97
97 97 97
96 96 96
95 95 95
94 94 94
93 93 93
90 90 90
90 90 90
91 91 91
92 92 92
94 94 94
98 98 98
98 98 98
98 98 98
97 97 97
98 98 98
100 100 100
103 103 103
107 107 107
108 108 108
109 109 109
106 106 106
103 103 103
101 101 101
98 98 98
97 97 97
96 96 96
95 95 95
93 93 93
91 91 91
87 87 87
88 88 88
90 90 90
91 91 91
94 94 94
99 99 99
103 103 103
103 103 103
101 101 101
94 94 94
91 91 91
92 92 92
96 96 96
97 97 97
98 98 98
95 95 95
143 143 143
142 142 142
138 138 138
133 133 133
122 122 122
116 116 116
113 113 113
112 112 112
110 110 110
108 108 108
108 108 108
106 106 106
106 106 106
105 105 105
104 104 104
100 100 100
97 97 97
96 96 96
95 95 95
96 96 96
95 95 95
95 95 95
95 95 95
95 95 95
93 93 93
90 90 90
90 90 90
93 93 93
95 95 95
97 97 97
97 97 97
98 98 98
97 97 97
99 99 99
100 100 100
103 103 103
107 107 107
109 109 109
108 108 108
104 104 104
100 100 100
99 99 99
98 98 98
97 97 97
97 97 97
94 94 94
91 91 91
88 88 88
83 83 83
85 85 85
87 87 87
89 89 89
91 91 91
97 97 97
103 103 103
107 107 107
105 105 105
100 100 100
93 93 93
93 93 93
96 96 96
97 97 97
96 96 96
95 95 95
143 143 143
138 138 138
134 134 134
131 131 131
124 124 124
119 119 119
113 113 113
109 109 109
107 107 107
106 106 106
112 112 112
117 117 117
114 114 114
109 109 109
104 104 104
98 98 98
93 93 93
93 93 93
90 90 90
91 91 91
93 93 93
97 97 97
98 98 98
100 100 100
99 99 99
94 94 94
92 92 92
92 92 92
95 95 95
95 95 95
96 96 96
97 97 97
97 97 97
99 99 99
102 102 102
105 105 105
107 107 107
108 108 108
106 106 106
101 101 101
100 100 100
99 99 99
99 99 99
98 98 98
98 98 98
97 97 97
94 94 94
92 92 92
88 88 88
88 88 88
90 90 90
92 92 92
96 96 96
99 99 99
102 102 102
105 105 105
106 106 106
102 102 102
96 96 96
94 94 94
94 94 94
95 95 95
98 98 98
96 96 96
143 143 143
138 138 138
136 136 136
133 133 133
124 124 124
120 120 120
112 112 112
106 106 106
104 104 104
105 105 105
113 113 113
117 117 117
111 111 111
103 103 103
101 101 101
98 98 98
98 98 98
96 96 96
95 95 95
94 94 94
95 95 95
97 97 97
97 97 97
97 97 97
99 99 99
98 98 98
94 94 94
93 93 93
96 96 96
95 95 95
98 98 98
98 98 98
98 98 98
100 100 100
104 104 104
107 107 107
108 108 108
108 108 108
104 104 104
97 97 97
98 98 98
95 95 95
94 94 94
93 93 93
96 96 96
101 101 101
104 104 104
101 101 101
97 97 97
93 93 93
95 95 95
95 95 95
99 99 99
102 102 102
101 101 101
102 102 102
104 104 104
104 104 104
99 99 99
96 96 96
92 92 92
93 93 93
99 99 99
97 97 97
141 141 141
138 138 138
138 138 138
131 131 131
122 122 122
118 118 118
111 111 111
104 104 104
102 102 102
103 103 103
106 106 106
107 107 107
102 102 102
98 98 98
99 99 99
96 96 96
100 100 100
100 100 100
99 99 99
98 98 98
98 98 98
97 97 97
94 94 94
92 92 92
93 93 93
96 96 96
96 96 96
96 96 96
96 96 96
96 96 96
98 98 98
97 97 97
98 98 98
100 100 100
104 104 104
106 106 106
108 108 108
107 107 107
102 102 102
94 94 94
95 95 95
90 90 90
89 89 89
88 88 88
91 91 91
94 94 94
100 100 100
99 99 99
100 100 100
98 98 98
103 103 103
100 100 100
96 96 96
98 98 98
100 100 100
98 98 98
98 98 98
101 101 101
101 101 101
98 98 98
95 95 95
94 94 94
96 96 96
99 99 99
138 138 138
137 137 137
137 137 137
130 130 130
122 122 122
117 117 117
112 112 112
105 105 105
103 103 103
101 101 101
96 96 96
96 96 96
94 94 94
96 96 96
98 98 98
95 95 95
99 99 99
101 101 101
99 99 99
98 98 98
96 96 96
95 95 95
94 94 94
92 92 92
93 93 93
96 96 96
97 97 97
99 99 99
97 97 97
97 97 97
98 98 98
98 98 98
99 99 99
101 101 101
104 104 104
105 105 105
107 107 107
105 105 105
99 99 99
95 95 95
93 93 93
90 90 90
90 90 90
87 87 87
90 90 90
93 93 93
95 95 95
97 97 97
96 96 96
95 95 95
99 99 99
99 99 99
99 99 99
94 94 94
91 91 91
93 93 93
93 93 93
96 96 96
101 101 101
100 100 100
98 98 98
96 96 96
99 99 99
99 99 99
136 136 136
137 137 137
137 137 137
129 129 129
120 120 120
117 117 117
112 112 112
104 104 104
101 101 101
99 99 99
95 95 95
94 94 94
95 95 95
96 96 96
98 98 98
99 99 99
99 99 99
100 100 100
98 98 98
97 97 97
93 93 93
92 92 92
92 92 92
93 93 93
92 92 92
94 94 94
102 102 102
101 101 101
97 97 97
98 98 98
98 98 98
99 99 99
100 100 100
101 101 101
104 104 104
105 105 105
107 107 107
103 103 103
98 98 98
96 96 96
93 93 93
91 91 91
90 90 90
87 87 87
88 88 88
91 91 91
93 93 93
95 95 95
93 93 93
93 93 93
95 95 95
98 98 98
99 99 99
94 94 94
89 89 89
89 89 89
91 91 91
95 95 95
99 99 99
99 99 99
97 97 97
95 95 95
98 98 98
100 100 100
131 131 131
136 136 136
139 139 139
133 133 133
121 121 121
117 117 117
110 110 110
104 104 104
101 101 101
100 100 100
99 99 99
99 99 99
98 98 98
98 98 98
99 99 99
99 99 99
99 99 99
97 97 97
95 95 95
93 93 93
91 91 91
91 91 91
90 90 90
93 93 93
93 93 93
98 98 98
106 106 106
103 103 103
99 99 99
98 98 98
99 99 99
101 101 101
102 102 102
102 102 102
104 104 104
106 106 106
107 107 107
104 104 104
98 98 98
94 94 94
93 93 93
89 89 89
89 89 89
89 89 89
87 87 87
89 89 89
91 91 91
93 93 93
93 93 93
93 93 93
93 93 93
96 96 96
97 97 97
93 93 93
90 90 90
90 90 90
91 91 91
94 94 94
98 98 98
99 99 99
97 97 97
97 97 97
98 98 98
98 98 98
123 123 123
131 131 131
137 137 137
134 134 134
123 123 123
118 118 118
112 112 112
105 105 105
103 103 103
102 102 102
103 103 103
100 100 100
99 99 99
99 99 99
100 100 100
99 99 99
98 98 98
96 96 96
95 95 95
94 94 94
92 92 92
91 91 91
91 91 91
92 92 92
96 96 96
103 103 103
107 107 107
103 103 103
99 99 99
99 99 99
100 100 100
102 102 102
103 103 103
103 103 103
104 104 104
105 105 105
106 106 106
104 104 104
98 98 98
95 95 95
93 93 93
90 90 90
89 89 89
88 88 88
88 88 88
87 87 87
87 87 87
90 90 90
91 91 91
92 92 92
94 94 94
95 95 95
97 97 97
96 96 96
92 92 92
91 91 91
93 93 93
95 95 95
97 97 97
99 99 99
97 97 97
97 97 97
98 98 98
97 97 97
115 115 115
129 129 129
135 135 135
132 132 132
123 123 123
118 118 118
112 112 112
105 105 105
104 104 104
104 104 104
104 104 104
102 102 102
100 100 100
98 98 98
98 98 98
98 98 98
97 97 97
97 97 97
95 95 95
95 95 95
94 94 94
94 94 94
94 94 94
96 96 96
101 101 101
107 107 107
107 107 107
103 103 103
99 99 99
100 100 100
102 102 102
103 103 103
102 102 102
103 103 103
105 105 105
105 105 105
105 105 105
104 104 104
101 101 101
97 97 97
95 95 95
92 92 92
90 90 90
89 89 89
88 88 88
88 88 88
87 87 87
88 88 88
90 90 90
90 90 90
92 92 92
94 94 94
95 95 95
95 95 95
95 95 95
92 92 92
93 93 93
93 93 93
94 94 94
97 97 97
97 97 97
98 98 98
98 98 98
96 96 96
115 115 115
129 129 129
134 134 134
131 131 131
122 122 122
116 116 116
111 111 111
105 105 105
104 104 104
104 104 104
106 106 106
105 105 105
104 104 104
102 102 102
101 101 101
101 101 101
100 100 100
99 99 99
99 99 99
98 98 98
97 97 97
98 98 98
99 99 99
101 101 101
105 105 105
108 108 108
106 106 106
103 103 103
101 101 101
102 102 102
102 102 102
102 102 102
101 101 101
102 102 102
104 104 104
105 105 105
105 105 105
104 104 104
102 102 102
99 99 99
97 97 97
95 95 95
93 93 93
92 92 92
91 91 91
91 91 91
90 90 90
90 90 90
90 90 90
91 91 91
92 92 92
93 93 93
95 95 95
95 95 95
94 94 94
93 93 93
93 93 93
92 92 92
94 94 94
97 97 97
96 96 96
98 98 98
97 97 97
95 95 95
116 116 116
129 129 129
133 133 133
129 129 129
121 121 121
116 116 116
112 112 112
107 107 107
105 105 105
105 105 105
105 105 105
106 106 106
107 107 107
106 106 106
105 105 105
105 105 105
105 105 105
103 103 103
102 102 102
101 101 101
101 101 101
102 102 102
104 104 104
105 105 105
106 106 106
108 108 108
107 107 107
103 103 103
102 102 102
103 103 103
103 103 103
101 101 101
101 101 101
103 103 103
103 103 103
104 104 104
105 105 105
104 104 104
101 101 101
100 100 100
99 99 99
97 97 97
95 95 95
95 95 95
94 94 94
94 94 94
93 93 93
94 94 94
93 93 93
93 93 93
93 93 93
94 94 94
94 94 94
94 94 94
94 94 94
94 94 94
94 94 94
93 93 93
95 95 95
96 96 96
96 96 96
97 97 97
97 97 97
95 95 95
118 118 118
128 128 128
131 131 131
127 127 127
120 120 120
115 115 115
112 112 112
108 108 108
106 106 106
105 105 105
104 104 104
105 105 105
107 107 107
107 107 107
107 107 107
106 106 106
106 106 106
105 105 105
105 105 105
104 104 104
105 105 105
106 106 106
105 105 105
106 106 106
107 107 107
108 108 108
106 106 106
103 103 103
102 102 102
104 104 104
103 103 103
102 102 102
102 102 102
103 103 103
104 104 104
104 104 104
105 105 105
106 106 106
102 102 102
99 99 99
99 99 99
99 99 99
96 96 96
96 96 96
97 97 97
97 97 97
96 96 96
96 96 96
96 96 96
96 96 96
96 96 96
96 96 96
96 96 96
96 96 96
96 96 96
94 94 94
93 93 93
94 94 94
96 96 96
96 96 96
96 96 96
98 98 98
98 98 98
97 97 97
119 119 119
128 128 128
129 129 129
125 125 125
120 120 120
115 115 115
112 112 112
108 108 108
106 106 106
107 107 107
106 106 106
106 106 106
106 106 106
107 107 107
107 107 107
107 107 107
106 106 106
106 106 106
107 107 107
107 107 107
106 106 106
106 106 106
106 106 106
107 107 107
108 108 108
107 107 107
104 104 104
102 102 102
102 102 102
104 104 104
104 104 104
102 102 102
102 102 102
103 103 103
103 103 103
104 104 104
105 105 105
107 107 107
104 104 104
100 100 100
99 99 99
98 98 98
97 97 97
97 97 97
97 97 97
97 97 97
97 97 97
96 96 96
96 96 96
97 97 97
97 97 97
97 97 97
98 98 98
97 97 97
96 96 96
95 95 95
95 95 95
96 96 96
97 97 97
97 97 97
97 97 97
99 99 99
99 99 99
97 97 97
121 121 121
128 128 128
129 129 129
126 126 126
120 120 120
115 115 115
112 112 112
109 109 109
107 107 107
106 106 106
106 106 106
105 105 105
106 106 106
107 107 107
107 107 107
107 107 107
107 107 107
106 106 106
106 106 106
106 106 106
106 106 106
107 107 107
107 107 107
108 108 108
108 108 108
106 106 106
103 103 103
102 102 102
102 102 102
102 102 102
102 102 102
101 101 101
100 100 100
100 100 100
102 102 102
103 103 103
104 104 104
108 108 108
106 106 106
102 102 102
100 100 100
98 98 98
96 96 96
98 98 98
99 99 99
99 99 99
98 98 98
98 98 98
98 98 98
98 98 98
98 98 98
98 98 98
99 99 99
99 99 99
99 99 99
98 98 98
97 97 97
96 96 96
97 97 97
97 97 97
98 98 98
100 100 100
100 100 100
97 97 97
124 124 124
129 129 129
129 129 129
125 125 125
119 119 119
115 115 115
112 112 112
109 109 109
108 108 108
107 107 107
106 106 106
106 106 106
106 106 106
106 106 106
106 106 106
106 106 106
107 107 107
107 107 107
107 107 107
107 107 107
108 108 108
108 108 108
110 110 110
109 109 109
107 107 107
106 106 106
104 104 104
100 100 100
100 100 100
99 99 99
100 100 100
100 100 100
99 99 99
98 98 98
100 100 100
102 102 102
103 103 103
106 106 106
104 104 104
103 103 103
102 102 102
100 100 100
96 96 96
97 97 97
97 97 97
99 99 99
99 99 99
99 99 99
100 100 100
100 100 100
99 99 99
100 100 100
100 100 100
100 100 100
100 100 100
99 99 99
97 97 97
97 97 97
97 97 97
98 98 98
99 99 99
101 101 101
101 101 101
96 96 96
126 126 126
128 128 128
127 127 127
122 122 122
119 119 119
116 116 116
113 113 113
110 110 110
109 109 109
108 108 108
108 108 108
108 108 108
109 109 109
108 108 108
108 108 108
108 108 108
108 108 108
108 108 108
108 108 108
108 108 108
109 109 109
110 110 110
111 111 111
108 108 108
107 107 107
107 107 107
105 105 105
99 99 99
95 95 95
94 94 94
95 95 95
98 98 98
98 98 98
97 97 97
98 98 98
101 101 101
103 103 103
103 103 103
100 100 100
98 98 98
102 102 102
102 102 102
99 99 99
98 98 98
98 98 98
99 99 99
99 99 99
100 100 100
101 101 101
101 101 101
100 100 100
101 101 101
100 100 100
101 101 101
101 101 101
99 99 99
98 98 98
98 98 98
98 98 98
99 99 99
100 100 100
102 102 102
101 101 101
96 96 96
126 126 126
128 128 128
124 124 124
120 120 120
119 119 119
118 118 118
114 114 114
111 111 111
111 111 111
110 110 110
109 109 109
110 110 110
110 110 110
109 109 109
109 109 109
109 109 109
108 108 108
108 108 108
108 108 108
109 109 109
111 111 111
110 110 110
110 110 110
108 108 108
108 108 108
109 109 109
107 107 107
99 99 99
90 90 90
88 88 88
92 92 92
97 97 97
99 99 99
98 98 98
99 99 99
103 103 103
105 105 105
102 102 102
97 97 97
94 94 94
97 97 97
100 100 100
100 100 100
101 101 101
100 100 100
100 100 100
101 101 101
101 101 101
101 101 101
102 102 102
102 102 102
102 102 102
102 102 102
102 102 102
101 101 101
100 100 100
99 99 99
98 98 98
98 98 98
100 100 100
101 101 101
103 103 103
101 101 101
97 97 97
128 128 128
127 127 127
124 124 124
121 121 121
121 121 121
119 119 119
116 116 116
113 113 113
111 111 111
110 110 110
110 110 110
110 110 110
110 110 110
109 109 109
108 108 108
108 108 108
108 108 108
108 108 108
108 108 108
110 110 110
113 113 113
112 112 112
113 113 113
110 110 110
110 110 110
111 111 111
109 109 109
100 100 100
88 88 88
86 86 86
93 93 93
100 100 100
102 102 102
100 100 100
100 100 100
106 106 106
107 107 107
103 103 103
96 96 96
93 93 93
95 95 95
98 98 98
99 99 99
102 102 102
102 102 102
102 102 102
102 102 102
102 102 102
102 102 102
102 102 102
103 103 103
103 103 103
104 104 104
103 103 103
102 102 102
102 102 102
100 100 100
100 100 100
100 100 100
101 101 101
101 101 101
103 103 103
101 101 101
98 98 98
131 131 131
129 129 129
125 125 125
121 121 121
122 122 122
121 121 121
118 118 118
114 114 114
112 112 112
111 111 111
111 111 111
109 109 109
109 109 109
108 108 108
108 108 108
107 107 107
107 107 107
108 108 108
110 110 110
112 112 112
114 114 114
114 114 114
115 115 115
113 113 113
112 112 112
112 112 112
111 111 111
101 101 101
90 90 90
90 90 90
99 99 99
106 106 106
105 105 105
101 101 101
101 101 101
106 106 106
109 109 109
106 106 106
100 100 100
96 96 96
97 97 97
98 98 98
98 98 98
101 101 101
102 102 102
102 102 102
102 102 102
102 102 102
103 103 103
103 103 103
104 104 104
103 103 103
104 104 104
103 103 103
103 103 103
102 102 102
101 101 101
101 101 101
101 101 101
102 102 102
102 102 102
105 105 105
102 102 102
100 100 100
134 134 134
132 132 132
126 126 126
122 122 122
122 122 122
122 122 122
120 120 120
116 116 116
114 114 114
112 112 112
111 111 111
110 110 110
108 108 108
108 108 108
108 108 108
107 107 107
107 107 107
108 108 108
111 111 111
114 114 114
114 114 114
112 112 112
114 114 114
114 114 114
114 114 114
113 113 113
110 110 110
103 103 103
98 98 98
100 100 100
108 108 108
112 112 112
108 108 108
103 103 103
103 103 103
108 108 108
112 112 112
110 110 110
105 105 105
100 100 100
99 99 99
99 99 99
98 98 98
100 100 100
101 101 101
101 101 101
103 103 103
102 102 102
102 102 102
102 102 102
102 102 102
102 102 102
102 102 102
102 102 102
102 102 102
102 102 102
102 102 102
102 102 102
103 103 103
103 103 103
103 103 103
106 106 106
106 106 106
101 101 101
135 135 135
134 134 134
129 129 129
124 124 124
123 123 123
123 123 123
121 121 121
118 118 118
115 115 115
113 113 113
111 111 111
109 109 109
108 108 108
108 108 108
107 107 107
107 107 107
108 108 108
110 110 110
112 112 112
114 114 114
112 112 112
109 109 109
111 111 111
113 113 113
114 114 114
114 114 114
112 112 112
107 107 107
106 106 106
110 110 110
115 115 115
115 115 115
109 109 109
103 103 103
103 103 103
107 107 107
110 110 110
110 110 110
106 106 106
103 103 103
100 100 100
99 99 99
98 98 98
98 98 98
99 99 99
101 101 101
103 103 103
103 103 103
102 102 102
102 102 102
102 102 102
101 101 101
102 102 102
102 102 102
102 102 102
103 103 103
104 104 104
104 104 104
105 105 105
104 104 104
104 104 104
107 107 107
107 107 107
100 100 100
134 134 134
136 136 136
132 132 132
126 126 126
125 125 125
123 123 123
123 123 123
120 120 120
117 117 117
114 114 114
111 111 111
109 109 109
108 108 108
108 108 108
107 107 107
107 107 107
109 109 109
111 111 111
112 112 112
112 112 112
110 110 110
107 107 107
109 109 109
112 112 112
115 115 115
115 115 115
113 113 113
110 110 110
111 111 111
116 116 116
116 116 116
113 113 113
107 107 107
104 104 104
103 103 103
105 105 105
106 106 106
107 107 107
105 105 105
103 103 103
102 102 102
101 101 101
98 98 98
97 97 97
97 97 97
100 100 100
101 101 101
103 103 103
104 104 104
102 102 102
101 101 101
101 101 101
102 102 102
102 102 102
102 102 102
103 103 103
104 104 104
105 105 105
106 106 106
106 106 106
106 106 106
107 107 107
106 106 106
100 100 100
132 132 132
137 137 137
134 134 134
127 127 127
125 125 125
123 123 123
122 122 122
121 121 121
118 118 118
115 115 115
112 112 112
110 110 110
109 109 109
109 109 109
108 108 108
109 109 109
111 111 111
111 111 111
111 111 111
109 109 109
108 108 108
108 108 108
110 110 110
111 111 111
115 115 115
117 117 117
115 115 115
115 115 115
116 116 116
117 117 117
115 115 115
110 110 110
105 105 105
103 103 103
103 103 103
104 104 104
105 105 105
107 107 107
106 106 106
107 107 107
106 106 106
103 103 103
98 98 98
97 97 97
98 98 98
100 100 100
100 100 100
101 101 101
104 104 104
104 104 104
103 103 103
102 102 102
101 101 101
103 103 103
104 104 104
104 104 104
106 106 106
108 108 108
108 108 108
108 108 108
108 108 108
107 107 107
105 105 105
99 99 99
130 130 130
135 135 135
134 134 134
128 128 128
124 124 124
123 123 123
122 122 122
120 120 120
119 119 119
116 116 116
112 112 112
110 110 110
109 109 109
108 108 108
109 109 109
110 110 110
111 111 111
111 111 111
109 109 109
108 108 108
109 109 109
110 110 110
113 113 113
113 113 113
115 115 115
115 115 115
116 116 116
119 119 119
120 120 120
118 118 118
114 114 114
109 109 109
105 105 105
104 104 104
105 105 105
106 106 106
108 108 108
107 107 107
106 106 106
106 106 106
106 106 106
103 103 103
99 99 99
96 96 96
98 98 98
100 100 100
101 101 101
101 101 101
102 102 102
105 105 105
105 105 105
104 104 104
103 103 103
104 104 104
104 104 104
105 105 105
107 107 107
109 109 109
109 109 109
110 110 110
109 109 109
108 108 108
106 106 106
99 99 99
128 128 128
134 134 134
132 132 132
129 129 129
124 124 124
123 123 123
121 121 121
120 120 120
119 119 119
116 116 116
112 112 112
111 111 111
109 109 109
109 109 109
109 109 109
110 110 110
111 111 111
110 110 110
109 109 109
109 109 109
110 110 110
110 110 110
114 114 114
117 117 117
116 116 116
115 115 115
116 116 116
120 120 120
122 122 122
118 118 118
115 115 115
113 113 113
109 109 109
109 109 109
109 109 109
108 108 108
109 109 109
109 109 109
108 108 108
108 108 108
106 106 106
103 103 103
100 100 100
98 98 98
98 98 98
99 99 99
101 101 101
100 100 100
101 101 101
104 104 104
105 105 105
105 105 105
105 105 105
105 105 105
106 106 106
107 107 107
109 109 109
110 110 110
111 111 111
111 111 111
110 110 110
109 109 109
105 105 105
99 99 99
128 128 128
132 132 132
133 133 133
130 130 130
125 125 125
123 123 123
120 120 120
119 119 119
119 119 119
116 116 116
113 113 113
110 110 110
110 110 110
109 109 109
110 110 110
110 110 110
111 111 111
111 111 111
110 110 110
110 110 110
109 109 109
111 111 111
114 114 114
117 117 117
118 118 118
117 117 117
117 117 117
118 118 118
120 120 120
118 118 118
116 116 116
115 115 115
113 113 113
113 113 113
112 112 112
109 109 109
109 109 109
110 110 110
109 109 109
107 107 107
106 106 106
104 104 104
101 101 101
99 99 99
98 98 98
99 99 99
99 99 99
100 100 100
100 100 100
102 102 102
104 104 104
104 104 104
105 105 105
107 107 107
107 107 107
108 108 108
110 110 110
110 110 110
111 111 111
112 112 112
111 111 111
109 109 109
105 105 105
101 101 101
128 128 128
131 131 131
133 133 133
131 131 131
124 124 124
122 122 122
121 121 121
119 119 119
118 118 118
116 116 116
113 113 113
110 110 110
109 109 109
109 109 109
107 107 107
110 110 110
113 113 113
113 113 113
112 112 112
112 112 112
112 112 112
113 113 113
116 116 116
116 116 116
117 117 117
118 118 118
117 117 117
118 118 118
119 119 119
117 117 117
116 116 116
117 117 117
114 114 114
111 111 111
110 110 110
108 108 108
109 109 109
108 108 108
107 107 107
106 106 106
106 106 106
105 105 105
103 103 103
101 101 101
100 100 100
101 101 101
99 99 99
99 99 99
100 100 100
101 101 101
103 103 103
103 103 103
103 103 103
105 105 105
108 108 108
110 110 110
111 111 111
110 110 110
112 112 112
112 112 112
112 112 112
110 110 110
107 107 107
105 105 105
129 129 129
130 130 130
132 132 132
131 131 131
125 125 125
121 121 121
122 122 122
119 119 119
117 117 117
117 117 117
114 114 114
111 111 111
109 109 109
105 105 105
105 105 105
111 111 111
114 114 114
113 113 113
114 114 114
116 116 116
116 116 116
116 116 116
117 117 117
117 117 117
118 118 118
118 118 118
117 117 117
118 118 118
117 117 117
115 115 115
114 114 114
115 115 115
111 111 111
110 110 110
108 108 108
108 108 108
107 107 107
106 106 106
105 105 105
105 105 105
106 106 106
105 105 105
104 104 104
103 103 103
103 103 103
103 103 103
101 101 101
100 100 100
100 100 100
100 100 100
102 102 102
103 103 103
102 102 102
103 103 103
108 108 108
109 109 109
110 110 110
110 110 110
112 112 112
113 113 113
114 114 114
112 112 112
109 109 109
110 110 110
131 131 131
132 132 132
132 132 132
131 131 131
127 127 127
122 122 122
122 122 122
121 121 121
118 118 118
118 118 118
115 115 115
111 111 111
107 107 107
102 102 102
104 104 104
111 111 111
114 114 114
114 114 114
117 117 117
119 119 119
119 119 119
117 117 117
118 118 118
118 118 118
118 118 118
119 119 119
117 117 117
116 116 116
115 115 115
112 112 112
110 110 110
108 108 108
107 107 107
107 107 107
107 107 107
105 105 105
106 106 106
105 105 105
105 105 105
105 105 105
105 105 105
106 106 106
105 105 105
104 104 104
105 105 105
105 105 105
104 104 104
102 102 102
102 102 102
100 100 100
100 100 100
103 103 103
104 104 104
104 104 104
107 107 107
109 109 109
110 110 110
110 110 110
113 113 113
115 115 115
116 116 116
111 111 111
110 110 110
111 111 111
132 132 132
132 132 132
132 132 132
131 131 131
129 129 129
125 125 125
121 121 121
122 122 122
119 119 119
117 117 117
117 117 117
111 111 111
107 107 107
103 103 103
103 103 103
109 109 109
113 113 113
114 114 114
116 116 116
119 119 119
120 120 120
118 118 118
116 116 116
114 114 114
114 114 114
114 114 114
114 114 114
112 112 112
109 109 109
107 107 107
104 104 104
103 103 103
103 103 103
104 104 104
104 104 104
103 103 103
104 104 104
105 105 105
104 104 104
104 104 104
105 105 105
105 105 105
105 105 105
105 105 105
107 107 107
107 107 107
106 106 106
104 104 104
103 103 103
102 102 102
100 100 100
101 101 101
103 103 103
104 104 104
106 106 106
108 108 108
110 110 110
111 111 111
114 114 114
117 117 117
116 116 116
111 111 111
112 112 112
114 114 114
132 132 132
131 131 131
131 131 131
131 131 131
130 130 130
128 128 128
122 122 122
123 123 123
121 121 121
117 117 117
118 118 118
113 113 113
107 107 107
105 105 105
104 104 104
106 106 106
109 109 109
111 111 111
112 112 112
113 113 113
115 115 115
114 114 114
115 115 115
116 116 116
113 113 113
112 112 112
110 110 110
108 108 108
104 104 104
101 101 101
99 99 99
99 99 99
98 98 98
98 98 98
98 98 98
100 100 100
101 101 101
101 101 101
101 101 101
102 102 102
103 103 103
104 104 104
104 104 104
106 106 106
108 108 108
108 108 108
106 106 106
104 104 104
103 103 103
102 102 102
100 100 100
100 100 100
101 101 101
103 103 103
105 105 105
108 108 108
110 110 110
112 112 112
114 114 114
117 117 117
115 115 115
111 111 111
113 113 113
115 115 115
130 130 130
130 130 130
130 130 130
131 131 131
132 132 132
129 129 129
124 124 124
122 122 122
123 123 123
119 119 119
118 118 118
116 116 116
110 110 110
107 107 107
105 105 105
103 103 103
103 103 103
105 105 105
107 107 107
109 109 109
110 110 110
110 110 110
110 110 110
114 114 114
117 117 117
117 117 117
114 114 114
112 112 112
108 108 108
104 104 104
102 102 102
101 101 101
100 100 100
99 99 99
99 99 99
100 100 100
100 100 100
101 101 101
103 103 103
104 104 104
104 104 104
104 104 104
103 103 103
104 104 104
106 106 106
106 106 106
104 104 104
104 104 104
103 103 103
101 101 101
99 99 99
100 100 100
100 100 100
102 102 102
105 105 105
108 108 108
111 111 111
114 114 114
114 114 114
117 117 117
114 114 114
112 112 112
112 112 112
114 114 114
125 125 125
127 127 127
129 129 129
131 131 131
132 132 132
131 131 131
125 125 125
121 121 121
125 125 125
122 122 122
118 118 118
117 117 117
114 114 114
109 109 109
107 107 107
102 102 102
100 100 100
99 99 99
102 102 102
103 103 103
106 106 106
107 107 107
107 107 107
107 107 107
111 111 111
114 114 114
114 114 114
113 113 113
112 112 112
109 109 109
107 107 107
106 106 106
104 104 104
103 103 103
102 102 102
102 102 102
102 102 102
101 101 101
102 102 102
103 103 103
102 102 102
101 101 101
100 100 100
100 100 100
101 101 101
102 102 102
102 102 102
103 103 103
101 101 101
101 101 101
100 100 100
100 100 100
100 100 100
102 102 102
106 106 106
109 109 109
113 113 113
114 114 114
116 116 116
116 116 116
114 114 114
111 111 111
112 112 112
112 112 112
120 120 120
123 123 123
126 126 126
131 131 131
133 133 133
132 132 132
128 128 128
121 121 121
123 123 123
124 124 124
120 120 120
117 117 117
117 117 117
113 113 113
109 109 109
104 104 104
100 100 100
100 100 100
101 101 101
100 100 100
101 101 101
102 102 102
105 105 105
105 105 105
107 107 107
110 110 110
110 110 110
108 108 108
106 106 106
104 104 104
103 103 103
101 101 101
101 101 101
101 101 101
99 99 99
98 98 98
98 98 98
97 97 97
98 98 98
98 98 98
98 98 98
97 97 97
96 96 96
95 95 95
96 96 96
98 98 98
99 99 99
101 101 101
101 101 101
102 102 102
101 101 101
100 100 100
100 100 100
103 103 103
107 107 107
111 111 111
114 114 114
114 114 114
116 116 116
116 116 116
114 114 114
110 110 110
110 110 110
106 106 106
115 115 115
118 118 118
123 123 123
129 129 129
132 132 132
133 133 133
130 130 130
122 122 122
121 121 121
125 125 125
122 122 122
119 119 119
117 117 117
116 116 116
111 111 111
106 106 106
102 102 102
101 101 101
102 102 102
101 101 101
102 102 102
102 102 102
102 102 102
105 105 105
107 107 107
108 108 108
108 108 108
106 106 106
104 104 104
101 101 101
99 99 99
97 97 97
97 97 97
97 97 97
96 96 96
94 94 94
94 94 94
94 94 94
92 92 92
94 94 94
95 95 95
94 94 94
95 95 95
95 95 95
96 96 96
97 97 97
98 98 98
101 101 101
101 101 101
103 103 103
101 101 101
100 100 100
101 101 101
105 105 105
109 109 109
111 111 111
112 112 112
115 115 115
117 117 117
116 116 116
115 115 115
108 108 108
105 105 105
101 101 101
111 111 111
113 113 113
120 120 120
127 127 127
131 131 131
133 133 133
131 131 131
124 124 124
122 122 122
123 123 123
124 124 124
121 121 121
118 118 118
117 117 117
112 112 112
107 107 107
104 104 104
102 102 102
102 102 102
102 102 102
103 103 103
104 104 104
103 103 103
105 105 105
106 106 106
107 107 107
106 106 106
103 103 103
101 101 101
99 99 99
97 97 97
96 96 96
96 96 96
95 95 95
94 94 94
93 93 93
93 93 93
92 92 92
91 91 91
94 94 94
95 95 95
95 95 95
95 95 95
95 95 95
96 96 96
96 96 96
97 97 97
99 99 99
101 101 101
102 102 102
101 101 101
101 101 101
103 103 103
108 108 108
109 109 109
111 111 111
111 111 111
115 115 115
118 118 118
117 117 117
113 113 113
105 105 105
101 101 101
98 98 98
109 109 109
110 110 110
117 117 117
125 125 125
129 129 129
132 132 132
131 131 131
124 124 124
122 122 122
122 122 122
125 125 125
124 124 124
120 120 120
116 116 116
115 115 115
111 111 111
107 107 107
104 104 104
103 103 103
102 102 102
103 103 103
105 105 105
105 105 105
106 106 106
108 108 108
109 109 109
107 107 107
105 105 105
103 103 103
101 101 101
100 100 100
98 98 98
97 97 97
97 97 97
97 97 97
97 97 97
96 96 96
95 95 95
94 94 94
96 96 96
97 97 97
97 97 97
96 96 96
95 95 95
96 96 96
96 96 96
98 98 98
99 99 99
100 100 100
101 101 101
101 101 101
102 102 102
106 106 106
109 109 109
111 111 111
111 111 111
110 110 110
114 114 114
119 119 119
116 116 116
111 111 111
102 102 102
98 98 98
99 99 99
109 109 109
110 110 110
114 114 114
123 123 123
128 128 128
131 131 131
130 130 130
125 125 125
123 123 123
122 122 122
123 123 123
124 124 124
124 124 124
118 118 118
114 114 114
114 114 114
110 110 110
107 107 107
106 106 106
105 105 105
105 105 105
105 105 105
105 105 105
107 107 107
109 109 109
111 111 111
109 109 109
107 107 107
106 106 106
105 105 105
104 104 104
103 103 103
102 102 102
102 102 102
102 102 102
101 101 101
100 100 100
100 100 100
99 99 99
100 100 100
99 99 99
97 97 97
97 97 97
95 95 95
97 97 97
97 97 97
98 98 98
99 99 99
100 100 100
100 100 100
102 102 102
104 104 104
108 108 108
109 109 109
111 111 111
109 109 109
109 109 109
114 114 114
120 120 120
115 115 115
107 107 107
98 98 98
96 96 96
99 99 99
109 109 109
110 110 110
112 112 112
119 119 119
126 126 126
130 130 130
128 128 128
126 126 126
124 124 124
123 123 123
122 122 122
122 122 122
125 125 125
122 122 122
116 116 116
115 115 115
114 114 114
110 110 110
109 109 109
109 109 109
108 108 108
108 108 108
107 107 107
106 106 106
109 109 109
111 111 111
109 109 109
109 109 109
109 109 109
108 108 108
107 107 107
107 107 107
105 105 105
104 104 104
104 104 104
103 103 103
102 102 102
102 102 102
101 101 101
100 100 100
97 97 97
96 96 96
97 97 97
96 96 96
98 98 98
99 99 99
99 99 99
99 99 99
99 99 99
101 101 101
103 103 103
105 105 105
108 108 108
110 110 110
109 109 109
108 108 108
110 110 110
114 114 114
119 119 119
113 113 113
103 103 103
95 95 95
94 94 94
98 98 98
109 109 109
110 110 110
111 111 111
116 116 116
123 123 123
129 129 129
126 126 126
125 125 125
126 126 126
123 123 123
122 122 122
121 121 121
123 123 123
124 124 124
120 120 120
117 117 117
116 116 116
114 114 114
111 111 111
110 110 110
110 110 110
109 109 109
108 108 108
108 108 108
109 109 109
109 109 109
107 107 107
106 106 106
106 106 106
106 106 106
106 106 106
107 107 107
105 105 105
104 104 104
103 103 103
101 101 101
101 101 101
101 101 101
101 101 101
100 100 100
96 96 96
96 96 96
98 98 98
98 98 98
99 99 99
100 100 100
100 100 100
100 100 100
100 100 100
102 102 102
105 105 105
106 106 106
108 108 108
108 108 108
108 108 108
108 108 108
110 110 110
114 114 114
117 117 117
108 108 108
98 98 98
94 94 94
94 94 94
97 97 97
108 108 108
110 110 110
111 111 111
113 113 113
121 121 121
127 127 127
125 125 125
126 126 126
125 125 125
122 122 122
120 120 120
121 121 121
121 121 121
123 123 123
123 123 123
120 120 120
118 118 118
116 116 116
113 113 113
111 111 111
111 111 111
110 110 110
109 109 109
108 108 108
109 109 109
108 108 108
106 106 106
104 104 104
103 103 103
103 103 103
103 103 103
104 104 104
103 103 103
102 102 102
100 100 100
99 99 99
99 99 99
99 99 99
99 99 99
99 99 99
97 97 97
98 98 98
99 99 99
99 99 99
100 100 100
100 100 100
100 100 100
101 101 101
102 102 102
104 104 104
105 105 105
108 108 108
108 108 108
108 108 108
107 107 107
108 108 108
110 110 110
115 115 115
115 115 115
104 104 104
96 96 96
93 93 93
93 93 93
96 96 96
108 108 108
110 110 110
110 110 110
111 111 111
118 118 118
125 125 125
125 125 125
127 127 127
125 125 125
122 122 122
120 120 120
122 122 122
121 121 121
121 121 121
124 124 124
123 123 123
120 120 120
117 117 117
114 114 114
110 110 110
110 110 110
109 109 109
108 108 108
107 107 107
107 107 107
107 107 107
106 106 106
104 104 104
102 102 102
101 101 101
101 101 101
102 102 102
101 101 101
100 100 100
98 98 98
98 98 98
99 99 99
100 100 100
98 98 98
98 98 98
98 98 98
98 98 98
99 99 99
98 98 98
99 99 99
99 99 99
100 100 100
102 102 102
103 103 103
105 105 105
105 105 105
108 108 108
107 107 107
108 108 108
107 107 107
108 108 108
110 110 110
115 115 115
112 112 112
99 99 99
94 94 94
92 92 92
93 93 93
95 95 95
108 108 108
110 110 110
110 110 110
111 111 111
115 115 115
124 124 124
127 127 127
128 128 128
125 125 125
122 122 122
120 120 120
121 121 121
123 123 123
122 122 122
123 123 123
123 123 123
122 122 122
119 119 119
116 116 116
111 111 111
109 109 109
108 108 108
106 106 106
105 105 105
106 106 106
106 106 106
105 105 105
103 103 103
102 102 102
100 100 100
100 100 100
101 101 101
101 101 101
99 99 99
99 99 99
98 98 98
100 100 100
99 99 99
98 98 98
97 97 97
98 98 98
98 98 98
97 97 97
97 97 97
98 98 98
99 99 99
101 101 101
103 103 103
104 104 104
105 105 105
106 106 106
107 107 107
106 106 106
108 108 108
109 109 109
109 109 109
112 112 112
112 112 112
109 109 109
97 97 97
93 93 93
91 91 91
92 92 92
94 94 94
109 109 109
110 110 110
110 110 110
111 111 111
113 113 113
122 122 122
126 126 126
128 128 128
123 123 123
121 121 121
120 120 120
121 121 121
122 122 122
123 123 123
123 123 123
124 124 124
121 121 121
121 121 121
119 119 119
114 114 114
110 110 110
107 107 107
105 105 105
104 104 104
105 105 105
105 105 105
104 104 104
103 103 103
103 103 103
102 102 102
101 101 101
101 101 101
102 102 102
101 101 101
100 100 100
98 98 98
99 99 99
98 98 98
97 97 97
97 97 97
96 96 96
96 96 96
96 96 96
96 96 96
98 98 98
100 100 100
102 102 102
104 104 104
104 104 104
105 105 105
106 106 106
106 106 106
107 107 107
109 109 109
111 111 111
111 111 111
111 111 111
110 110 110
106 106 106
96 96 96
93 93 93
91 91 91
93 93 93
94 94 94
109 109 109
111 111 111
113 113 113
113 113 113
114 114 114
119 119 119
126 126 126
128 128 128
124 124 124
121 121 121
121 121 121
121 121 121
122 122 122
123 123 123
123 123 123
124 124 124
121 121 121
121 121 121
122 122 122
118 118 118
112 112 112
108 108 108
105 105 105
104 104 104
105 105 105
103 103 103
102 102 102
103 103 103
103 103 103
103 103 103
102 102 102
101 101 101
103 103 103
103 103 103
101 101 101
99 99 99
98 98 98
98 98 98
98 98 98
97 97 97
95 95 95
95 95 95
96 96 96
97 97 97
100 100 100
101 101 101
103 103 103
104 104 104
105 105 105
105 105 105
106 106 106
106 106 106
108 108 108
111 111 111
111 111 111
110 110 110
109 109 109
108 108 108
105 105 105
96 96 96
93 93 93
91 91 91
93 93 93
95 95 95
112 112 112
114 114 114
114 114 114
115 115 115
114 114 114
116 116 116
124 124 124
127 127 127
125 125 125
121 121 121
120 120 120
120 120 120
122 122 122
122 122 122
123 123 123
124 124 124
122 122 122
122 122 122
122 122 122
121 121 121
116 116 116
112 112 112
107 107 107
105 105 105
105 105 105
103 103 103
101 101 101
101 101 101
102 102 102
102 102 102
101 101 101
101 101 101
102 102 102
102 102 102
101 101 101
100 100 100
98 98 98
98 98 98
98 98 98
97 97 97
95 95 95
97 97 97
98 98 98
99 99 99
101 101 101
103 103 103
104 104 104
105 105 105
105 105 105
104 104 104
105 105 105
108 108 108
110 110 110
111 111 111
110 110 110
108 108 108
108 108 108
106 106 106
104 104 104
97 97 97
93 93 93
91 91 91
93 93 93
95 95 95
114 114 114
116 116 116
115 115 115
115 115 115
114 114 114
114 114 114
121 121 121
126 126 126
126 126 126
123 123 123
120 120 120
120 120 120
121 121 121
122 122 122
121 121 121
123 123 123
123 123 123
121 121 121
123 123 123
122 122 122
119 119 119
115 115 115
111 111 111
107 107 107
106 106 106
105 105 105
103 103 103
102 102 102
102 102 102
103 103 103
102 102 102
102 102 102
103 103 103
102 102 102
101 101 101
100 100 100
99 99 99
99 99 99
99 99 99
98 98 98
97 97 97
98 98 98
100 100 100
100 100 100
102 102 102
104 104 104
105 105 105
106 106 106
105 105 105
105 105 105
108 108 108
110 110 110
109 109 109
109 109 109
108 108 108
106 106 106
106 106 106
105 105 105
104 104 104
97 97 97
93 93 93
93 93 93
94 94 94
96 96 96
115 115 115
115 115 115
115 115 115
115 115 115
113 113 113
112 112 112
120 120 120
126 126 126
127 127 127
122 122 122
120 120 120
120 120 120
121 121 121
121 121 121
120 120 120
122 122 122
122 122 122
122 122 122
123 123 123
123 123 123
121 121 121
119 119 119
114 114 114
111 111 111
109 109 109
108 108 108
107 107 107
106 106 106
105 105 105
105 105 105
105 105 105
105 105 105
104 104 104
104 104 104
103 103 103
102 102 102
102 102 102
101 101 101
100 100 100
99 99 99
99 99 99
100 100 100
101 101 101
102 102 102
104 104 104
106 106 106
105 105 105
106 106 106
106 106 106
106 106 106
111 111 111
111 111 111
110 110 110
107 107 107
106 106 106
104 104 104
103 103 103
103 103 103
104 104 104
98 98 98
92 92 92
95 95 95
96 96 96
97 97 97
117 117 117
115 115 115
116 116 116
115 115 115
114 114 114
112 112 112
119 119 119
126 126 126
126 126 126
120 120 120
119 119 119
120 120 120
121 121 121
121 121 121
119 119 119
121 121 121
120 120 120
123 123 123
124 124 124
123 123 123
121 121 121
121 121 121
118 118 118
114 114 114
112 112 112
111 111 111
110 110 110
109 109 109
107 107 107
106 106 106
105 105 105
105 105 105
105 105 105
104 104 104
103 103 103
102 102 102
101 101 101
100 100 100
101 101 101
101 101 101
102 102 102
102 102 102
103 103 103
104 104 104
105 105 105
107 107 107
106 106 106
106 106 106
107 107 107
109 109 109
110 110 110
109 109 109
109 109 109
105 105 105
104 104 104
102 102 102
102 102 102
103 103 103
103 103 103
98 98 98
92 92 92
94 94 94
97 97 97
98 98 98
117 117 117
115 115 115
116 116 116
116 116 116
115 115 115
113 113 113
119 119 119
126 126 126
124 124 124
119 119 119
118 118 118
120 120 120
123 123 123
121 121 121
119 119 119
120 120 120
118 118 118
121 121 121
125 125 125
123 123 123
120 120 120
120 120 120
120 120 120
118 118 118
115 115 115
113 113 113
112 112 112
110 110 110
108 108 108
106 106 106
105 105 105
105 105 105
105 105 105
104 104 104
103 103 103
103 103 103
103 103 103
102 102 102
103 103 103
103 103 103
104 104 104
104 104 104
106 106 106
106 106 106
107 107 107
108 108 108
108 108 108
107 107 107
109 109 109
111 111 111
109 109 109
107 107 107
107 107 107
104 104 104
102 102 102
101 101 101
101 101 101
102 102 102
103 103 103
99 99 99
92 92 92
93 93 93
97 97 97
98 98 98
118 118 118
117 117 117
116 116 116
117 117 117
115 115 115
113 113 113
120 120 120
126 126 126
124 124 124
119 119 119
118 118 118
120 120 120
122 122 122
122 122 122
120 120 120
122 122 122
118 118 118
119 119 119
122 122 122
125 125 125
120 120 120
119 119 119
121 121 121
120 120 120
118 118 118
115 115 115
113 113 113
111 111 111
109 109 109
108 108 108
105 105 105
105 105 105
105 105 105
105 105 105
105 105 105
105 105 105
105 105 105
104 104 104
105 105 105
106 106 106
106 106 106
107 107 107
108 108 108
108 108 108
110 110 110
110 110 110
110 110 110
109 109 109
110 110 110
111 111 111
108 108 108
105 105 105
103 103 103
102 102 102
101 101 101
100 100 100
101 101 101
102 102 102
104 104 104
100 100 100
93 93 93
94 94 94
97 97 97
99 99 99
