P3
64 64
255
104 104 104
103 103 103
103 103 103
103 103 103
103 103 103
103 103 103
103 103 103
103 103 103
103 103 103
103 103 103
103 103 103
103 103 103
103 103 103
103 103 103
103 103 103
104 104 104
104 104 104
104 104 104
104 104 104
104 104 104
104 104 104
104 104 104
104 104 104
104 104 104
104 104 104
104 104 104
104 104 104
104 104 104
104 104 104
104 104 104
104 104 104
104 104 104
104 104 104
104 104 104
104 104 104
104 104 104
104 104 104
104 104 104
103 103 103
103 103 103
103 103 103
103 103 103
103 103 103
103 103 103
103 103 103
103 103 103
103 103 103
103 103 103
103 103 103
103 103 103
103 103 103
103 103 103
103 103 103
103 103 103
103 103 103
103 103 103
103 103 103
103 103 103
103 103 103
103 103 103
103 103 103
103 103 103
104 104 104
104 104 104
104 104 104
103 103 103
103 103 103
103 103 103
103 103 103
103 103 103
103 103 103
103 103 103
103 103 103
103 103 103
103 103 103
103 103 103
103 103 103
103 103 103
103 103 103
103 103 103
104 104 104
104 104 104
104 104 104
104 104 104
104 104 104
104 104 104
104 104 104
104 104 104
104 104 104
104 104 104
104 104 104
104 104 104
104 104 104
104 104 104
104 104 104
104 104 104
104 104 104
104 104 104
104 104 104
104 104 104
104 104 104
104 104 104
104 104 104
103 103 103
103 103 103
103 103 103
103 103 103
103 103 103
103 103 103
103 103 103
103 103 103
103 103 103
103 103 103
103 103 103
103 103 103
103 103 103
103 103 103
103 103 103
103 103 103
103 103 103
103 103 103
103 103 103
103 103 103
103 103 103
103 103 103
103 103 103
104 104 104
104 104 104
104 104 104
103 103 103
103 103 103
103 103 103
103 103 103
103 103 103
103 103 103
103 103 103
103 103 103
103 103 103
103 103 103
103 103 103
103 103 103
103 103 103
103 103 103
103 103 103
104 104 104
104 104 104
104 104 104
104 104 104
104 104 104
104 104 104
104 104 104
104 104 104
104 104 104
104 104 104
104 104 104
104 104 104
104 104 104
104 104 104
104 104 104
104 104 104
104 104 104
104 104 104
104 104 104
104 104 104
104 104 104
104 104 104
103 103 103
103 103 103
103 103 103
103 103 103
103 103 103
103 103 103
103 103 103
103 103 103
103 103 103
103 103 103
103 103 103
103 103 103
103 103 103
103 103 103
103 103 103
103 103 103
103 103 103
103 103 103
103 103 103
103 103 103
103 103 103
103 103 103
103 103 103
103 103 103
104 104 104
104 104 104
104 104 104
103 103 103
103 103 103
103 103 103
103 103 103
103 103 103
103 103 103
103 103 103
103 103 103
103 103 103
103 103 103
103 103 103
103 103 103
103 103 103
103 103 103
103 103 103
103 103 103
104 104 104
104 104 104
104 104 104
104 104 104
104 104 104
104 104 104
104 104 104
104 104 104
104 104 104
104 104 104
104 104 104
104 104 104
104 104 104
104 104 104
104 104 104
104 104 104
104 104 104
104 104 104
104 104 104
104 104 104
104 104 104
103 103 103
103 103 103
103 103 103
103 103 103
103 103 103
103 103 103
103 103 103
103 103 103
103 103 103
103 103 103
103 103 103
103 103 103
103 103 103
103 103 103
103 103 103
103 103 103
103 103 103
103 103 103
103 103 103
103 103 103
103 103 103
103 103 103
103 103 103
103 103 103
104 104 104
104 104 104
103 103 103
103 103 103
103 103 103
103 103 103
103 103 103
103 103 103
103 103 103
103 103 103
103 103 103
103 103 103
103 103 103
103 103 103
103 103 103
103 103 103
103 103 103
103 103 103
103 103 103
104 104 104
104 104 104
104 104 104
104 104 104
104 104 104
104 104 104
104 104 104
104 104 104
104 104 104
104 104 104
104 104 104
104 104 104
104 104 104
104 104 104
104 104 104
104 104 104
104 104 104
104 104 104
104 104 104
104 104 104
103 103 103
103 103 103
103 103 103
103 103 103
103 103 103
103 103 103
103 103 103
103 103 103
103 103 103
103 103 103
103 103 103
103 103 103
103 103 103
103 103 103
103 103 103
103 103 103
103 103 103
103 103 103
103 103 103
103 103 103
103 103 103
103 103 103
103 103 103
103 103 103
103 103 103
103 103 103
104 104 104
103 103 103
103 103 103
103 103 103
103 103 103
103 103 103
103 103 103
103 103 103
103 103 103
103 103 103
103 103 103
103 103 103
103 103 103
103 103 103
103 103 103
103 103 103
104 104 104
104 104 104
104 104 104
104 104 104
104 104 104
104 104 104
104 104 104
104 104 104
104 104 104
104 104 104
104 104 104
104 104 104
104 104 104
104 104 104
104 104 104
104 104 104
104 104 104
103 103 103
103 103 103
104 104 104
104 104 104
104 104 104
104 104 104
103 103 103
103 103 103
103 103 103
103 103 103
103 103 103
103 103 103
103 103 103
103 103 103
103 103 103
103 103 103
103 103 103
103 103 103
103 103 103
103 103 103
103 103 103
103 103 103
103 103 103
103 103 103
103 103 103
103 103 103
103 103 103
103 103 103
103 103 103
103 103 103
103 103 103
104 104 104
103 103 103
103 103 103
103 103 103
103 103 103
103 103 103
103 103 103
103 103 103
103 103 103
103 103 103
103 103 103
103 103 103
103 103 103
104 104 104
104 104 104
104 104 104
104 104 104
104 104 104
104 104 104
104 104 104
104 104 104
104 104 104
104 104 104
104 104 104
104 104 104
104 104 104
104 104 104
104 104 104
104 104 104
104 104 104
104 104 104
104 104 104
104 104 104
103 103 103
103 103 103
104 104 104
104 104 104
104 104 104
104 104 104
104 104 104
104 104 104
104 104 104
104 104 104
104 104 104
104 104 104
104 104 104
104 104 104
104 104 104
104 104 104
104 104 104
104 104 104
103 103 103
103 103 103
103 103 103
103 103 103
103 103 103
103 103 103
103 103 103
103 103 103
103 103 103
103 103 103
103 103 103
103 103 103
103 103 103
104 104 104
103 103 103
103 103 103
103 103 103
103 103 103
103 103 103
103 103 103
103 103 103
103 103 103
103 103 103
103 103 103
104 104 104
104 104 104
104 104 104
104 104 104
104 104 104
104 104 104
104 104 104
104 104 104
104 104 104
104 104 104
104 104 104
104 104 104
104 104 104
104 104 104
104 104 104
104 104 104
104 104 104
104 104 104
104 104 104
104 104 104
104 104 104
104 104 104
103 103 103
103 103 103
104 104 104
104 104 104
104 104 104
104 104 104
104 104 104
104 104 104
104 104 104
104 104 104
104 104 104
104 104 104
104 104 104
104 104 104
104 104 104
104 104 104
104 104 104
104 104 104
104 104 104
104 104 104
104 104 104
104 104 104
104 104 104
104 104 104
104 104 104
103 103 103
103 103 103
103 103 103
103 103 103
103 103 103
103 103 103
104 104 104
103 103 103
103 103 103
103 103 103
103 103 103
103 103 103
103 103 103
103 103 103
103 103 103
103 103 103
104 104 104
104 104 104
104 104 104
104 104 104
104 104 104
104 104 104
104 104 104
104 104 104
104 104 104
104 104 104
104 104 104
104 104 104
104 104 104
104 104 104
104 104 104
104 104 104
104 104 104
104 104 104
104 104 104
104 104 104
104 104 104
104 104 104
104 104 104
103 103 103
104 104 104
104 104 104
104 104 104
104 104 104
104 104 104
104 104 104
104 104 104
104 104 104
104 104 104
104 104 104
104 104 104
104 104 104
104 104 104
104 104 104
104 104 104
104 104 104
104 104 104
104 104 104
104 104 104
104 104 104
104 104 104
104 104 104
104 104 104
104 104 104
104 104 104
103 103 103
103 103 103
103 103 103
103 103 103
103 103 103
104 104 104
103 103 103
103 103 103
103 103 103
103 103 103
103 103 103
103 103 103
103 103 103
103 103 103
104 104 104
104 104 104
104 104 104
104 104 104
104 104 104
104 104 104
104 104 104
104 104 104
104 104 104
104 104 104
104 104 104
104 104 104
104 104 104
104 104 104
104 104 104
104 104 104
104 104 104
104 104 104
104 104 104
104 104 104
104 104 104
104 104 104
104 104 104
104 104 104
104 104 104
104 104 104
104 104 104
104 104 104
104 104 104
104 104 104
104 104 104
104 104 104
104 104 104
104 104 104
104 104 104
104 104 104
104 104 104
104 104 104
104 104 104
104 104 104
104 104 104
104 104 104
104 104 104
104 104 104
104 104 104
104 104 104
104 104 104
104 104 104
104 104 104
104 104 104
104 104 104
103 103 103
103 103 103
103 103 103
103 103 103
104 104 104
103 103 103
103 103 103
103 103 103
103 103 103
103 103 103
103 103 103
103 103 103
104 104 104
104 104 104
104 104 104
104 104 104
104 104 104
104 104 104
104 104 104
104 104 104
104 104 104
104 104 104
104 104 104
104 104 104
104 104 104
104 104 104
104 104 104
104 104 104
104 104 104
104 104 104
104 104 104
104 104 104
104 104 104
104 104 104
104 104 104
104 104 104
104 104 104
104 104 104
104 104 104
104 104 104
104 104 104
104 104 104
104 104 104
104 104 104
104 104 104
104 104 104
104 104 104
104 104 104
104 104 104
104 104 104
104 104 104
104 104 104
104 104 104
104 104 104
103 103 103
103 103 103
103 103 103
103 103 103
103 103 103
103 103 103
103 103 103
104 104 104
104 104 104
104 104 104
104 104 104
103 103 103
103 103 103
103 103 103
104 104 104
103 103 103
103 103 103
103 103 103
102 102 102
103 103 103
103 103 103
103 103 103
104 104 104
104 104 104
103 103 103
103 103 103
103 103 103
104 104 104
104 104 104
104 104 104
104 104 104
104 104 104
104 104 104
104 104 104
104 104 104
104 104 104
104 104 104
104 104 104
104 104 104
103 103 103
103 103 103
104 104 104
103 103 103
103 103 103
104 104 104
104 104 104
103 103 103
103 103 103
104 104 104
104 104 104
104 104 104
104 104 104
104 104 104
104 104 104
104 104 104
104 104 104
104 104 104
104 104 104
104 104 104
104 104 104
104 104 104
104 104 104
104 104 104
103 103 103
103 103 103
103 103 103
103 103 103
103 103 103
103 103 103
103 103 103
103 103 103
103 103 103
104 104 104
104 104 104
104 104 104
103 103 103
103 103 103
103 103 103
104 104 104
103 103 103
103 103 103
103 103 103
102 102 102
103 103 103
103 103 103
103 103 103
103 103 103
103 103 103
103 103 103
103 103 103
103 103 103
104 104 104
104 104 104
104 104 104
104 104 104
104 104 104
104 104 104
104 104 104
104 104 104
104 104 104
104 104 104
104 104 104
104 104 104
103 103 103
103 103 103
103 103 103
103 103 103
103 103 103
103 103 103
104 104 104
103 103 103
103 103 103
103 103 103
103 103 103
104 104 104
104 104 104
104 104 104
104 104 104
104 104 104
104 104 104
104 104 104
104 104 104
104 104 104
104 104 104
104 104 104
104 104 104
104 104 104
103 103 103
103 103 103
103 103 103
103 103 103
103 103 103
103 103 103
103 103 103
104 104 104
104 104 104
104 104 104
104 104 104
104 104 104
103 103 103
103 103 103
103 103 103
104 104 104
103 103 103
103 103 103
103 103 103
103 103 103
103 103 103
103 103 103
103 103 103
103 103 103
103 103 103
103 103 103
103 103 103
103 103 103
103 103 103
103 103 103
103 103 103
103 103 103
104 104 104
104 104 104
104 104 104
104 104 104
104 104 104
104 104 104
104 104 104
104 104 104
104 104 104
104 104 104
103 103 103
103 103 103
103 103 103
103 103 103
104 104 104
104 104 104
104 104 104
104 104 104
103 103 103
104 104 104
104 104 104
104 104 104
104 104 104
104 104 104
104 104 104
104 104 104
104 104 104
104 104 104
104 104 104
104 104 104
104 104 104
104 104 104
103 103 103
103 103 103
103 103 103
103 103 103
103 103 103
103 103 103
103 103 103
104 104 104
104 104 104
104 104 104
104 104 104
104 104 104
104 104 104
103 103 103
103 103 103
104 104 104
103 103 103
103 103 103
103 103 103
103 103 103
103 103 103
103 103 103
103 103 103
103 103 103
103 103 103
103 103 103
103 103 103
103 103 103
103 103 103
103 103 103
103 103 103
104 104 104
104 104 104
104 104 104
104 104 104
104 104 104
104 104 104
104 104 104
104 104 104
104 104 104
104 104 104
104 104 104
104 104 104
103 103 103
103 103 103
103 103 103
104 104 104
104 104 104
104 104 104
104 104 104
104 104 104
104 104 104
104 104 104
104 104 104
104 104 104
104 104 104
104 104 104
104 104 104
104 104 104
104 104 104
104 104 104
104 104 104
104 104 104
104 104 104
104 104 104
103 103 103
103 103 103
103 103 103
103 103 103
103 103 103
103 103 103
104 104 104
104 104 104
104 104 104
104 104 104
104 104 104
104 104 104
103 103 103
103 103 103
104 104 104
103 103 103
103 103 103
103 103 103
103 103 103
103 103 103
103 103 103
103 103 103
103 103 103
103 103 103
103 103 103
103 103 103
103 103 103
103 103 103
103 103 103
104 104 104
104 104 104
104 104 104
104 104 104
104 104 104
104 104 104
104 104 104
104 104 104
104 104 104
104 104 104
104 104 104
104 104 104
104 104 104
104 104 104
103 103 103
103 103 103
104 104 104
104 104 104
104 104 104
104 104 104
104 104 104
104 104 104
104 104 104
104 104 104
104 104 104
104 104 104
104 104 104
104 104 104
104 104 104
104 104 104
104 104 104
104 104 104
104 104 104
104 104 104
104 104 104
104 104 104
104 104 104
104 104 104
104 104 104
104 104 104
103 103 103
104 104 104
104 104 104
104 104 104
104 104 104
104 104 104
103 103 103
103 103 103
103 103 103
104 104 104
103 103 103
103 103 103
103 103 103
103 103 103
103 103 103
103 103 103
103 103 103
103 103 103
103 103 103
103 103 103
103 103 103
103 103 103
104 104 104
104 104 104
104 104 104
104 104 104
104 104 104
104 104 104
104 104 104
104 104 104
104 104 104
104 104 104
104 104 104
104 104 104
104 104 104
104 104 104
104 104 104
104 104 104
103 103 103
104 104 104
104 104 104
104 104 104
104 104 104
104 104 104
104 104 104
104 104 104
104 104 104
104 104 104
104 104 104
104 104 104
104 104 104
104 104 104
104 104 104
104 104 104
104 104 104
104 104 104
104 104 104
104 104 104
104 104 104
104 104 104
104 104 104
104 104 104
104 104 104
104 104 104
103 103 103
104 104 104
104 104 104
104 104 104
104 104 104
104 104 104
104 104 104
103 103 103
103 103 103
103 103 103
103 103 103
103 103 103
103 103 103
103 103 103
103 103 103
103 103 103
103 103 103
103 103 103
103 103 103
103 103 103
103 103 103
104 104 104
104 104 104
104 104 104
104 104 104
104 104 104
104 104 104
104 104 104
104 104 104
104 104 104
104 104 104
104 104 104
104 104 104
104 104 104
104 104 104
104 104 104
104 104 104
104 104 104
103 103 103
104 104 104
104 104 104
104 104 104
104 104 104
104 104 104
104 104 104
104 104 104
104 104 104
104 104 104
104 104 104
104 104 104
104 104 104
104 104 104
104 104 104
104 104 104
104 104 104
104 104 104
104 104 104
104 104 104
104 104 104
104 104 104
104 104 104
104 104 104
104 104 104
104 104 104
104 104 104
104 104 104
103 103 103
103 103 103
103 103 103
104 104 104
104 104 104
104 104 104
104 104 104
104 104 104
104 104 104
103 103 103
103 103 103
103 103 103
103 103 103
103 103 103
103 103 103
103 103 103
103 103 103
103 103 103
103 103 103
104 104 104
104 104 104
104 104 104
104 104 104
104 104 104
104 104 104
104 104 104
104 104 104
104 104 104
104 104 104
104 104 104
104 104 104
104 104 104
104 104 104
104 104 104
104 104 104
104 104 104
103 103 103
104 104 104
104 104 104
104 104 104
104 104 104
104 104 104
104 104 104
104 104 104
104 104 104
104 104 104
104 104 104
104 104 104
104 104 104
104 104 104
104 104 104
104 104 104
104 104 104
104 104 104
104 104 104
104 104 104
104 104 104
104 104 104
104 104 104
104 104 104
104 104 104
104 104 104
104 104 104
104 104 104
104 104 104
103 103 103
103 103 103
104 104 104
104 104 104
104 104 104
104 104 104
104 104 104
104 104 104
103 103 103
103 103 103
103 103 103
103 103 103
103 103 103
103 103 103
103 103 103
103 103 103
103 103 103
103 103 103
103 103 103
103 103 103
104 104 104
104 104 104
104 104 104
104 104 104
104 104 104
104 104 104
104 104 104
104 104 104
104 104 104
104 104 104
104 104 104
104 104 104
104 104 104
104 104 104
104 104 104
103 103 103
104 104 104
104 104 104
104 104 104
104 104 104
104 104 104
104 104 104
104 104 104
104 104 104
104 104 104
104 104 104
104 104 104
104 104 104
104 104 104
104 104 104
104 104 104
104 104 104
104 104 104
104 104 104
104 104 104
104 104 104
104 104 104
104 104 104
104 104 104
104 104 104
104 104 104
104 104 104
104 104 104
103 103 103
103 103 103
103 103 103
104 104 104
104 104 104
104 104 104
104 104 104
104 104 104
104 104 104
103 103 103
103 103 103
103 103 103
103 103 103
103 103 103
103 103 103
103 103 103
103 103 103
103 103 103
103 103 103
103 103 103
103 103 103
104 104 104
104 104 104
104 104 104
104 104 104
104 104 104
104 104 104
104 104 104
104 104 104
104 104 104
104 104 104
104 104 104
104 104 104
104 104 104
104 104 104
103 103 103
103 103 103
103 103 103
104 104 104
104 104 104
104 104 104
104 104 104
104 104 104
104 104 104
104 104 104
104 104 104
104 104 104
104 104 104
104 104 104
104 104 104
104 104 104
104 104 104
104 104 104
104 104 104
104 104 104
104 104 104
104 104 104
104 104 104
104 104 104
104 104 104
104 104 104
104 104 104
104 104 104
104 104 104
103 103 103
103 103 103
103 103 103
104 104 104
104 104 104
104 104 104
104 104 104
104 104 104
103 103 103
103 103 103
103 103 103
103 103 103
103 103 103
103 103 103
103 103 103
103 103 103
103 103 103
103 103 103
103 103 103
103 103 103
103 103 103
104 104 104
104 104 104
104 104 104
104 104 104
104 104 104
104 104 104
104 104 104
104 104 104
104 104 104
104 104 104
103 103 103
104 104 104
104 104 104
104 104 104
103 103 103
103 103 103
103 103 103
104 104 104
104 104 104
104 104 104
104 104 104
104 104 104
104 104 104
104 104 104
104 104 104
104 104 104
104 104 104
104 104 104
104 104 104
104 104 104
104 104 104
104 104 104
104 104 104
104 104 104
104 104 104
104 104 104
104 104 104
104 104 104
104 104 104
104 104 104
104 104 104
104 104 104
104 104 104
104 104 104
104 104 104
104 104 104
104 104 104
104 104 104
104 104 104
104 104 104
104 104 104
104 104 104
103 103 103
103 103 103
103 103 103
103 103 103
103 103 103
103 103 103
103 103 103
103 103 103
103 103 103
103 103 103
103 103 103
103 103 103
103 103 103
104 104 104
104 104 104
104 104 104
104 104 104
104 104 104
104 104 104
104 104 104
103 103 103
103 103 103
103 103 103
104 104 104
104 104 104
103 103 103
103 103 103
103 103 103
104 104 104
104 104 104
104 104 104
104 104 104
104 104 104
104 104 104
104 104 104
104 104 104
104 104 104
104 104 104
104 104 104
104 104 104
104 104 104
104 104 104
104 104 104
104 104 104
104 104 104
104 104 104
104 104 104
104 104 104
104 104 104
104 104 104
104 104 104
104 104 104
104 104 104
104 104 104
104 104 104
104 104 104
104 104 104
104 104 104
104 104 104
104 104 104
104 104 104
104 104 104
104 104 104
104 104 104
103 103 103
103 103 103
103 103 103
103 103 103
103 103 103
103 103 103
103 103 103
103 103 103
103 103 103
103 103 103
103 103 103
103 103 103
104 104 104
104 104 104
104 104 104
104 104 104
104 104 104
104 104 104
104 104 104
104 104 104
104 104 104
103 103 103
103 103 103
103 103 103
103 103 103
103 103 103
103 103 103
103 103 103
104 104 104
104 104 104
104 104 104
104 104 104
104 104 104
104 104 104
104 104 104
104 104 104
104 104 104
104 104 104
104 104 104
104 104 104
104 104 104
104 104 104
104 104 104
104 104 104
104 104 104
104 104 104
104 104 104
104 104 104
104 104 104
104 104 104
104 104 104
104 104 104
104 104 104
104 104 104
104 104 104
104 104 104
104 104 104
104 104 104
104 104 104
104 104 104
104 104 104
104 104 104
104 104 104
104 104 104
103 103 103
103 103 103
103 103 103
103 103 103
103 103 103
103 103 103
103 103 103
103 103 103
103 103 103
103 103 103
103 103 103
104 104 104
104 104 104
104 104 104
104 104 104
104 104 104
104 104 104
104 104 104
104 104 104
104 104 104
104 104 104
103 103 103
103 103 103
103 103 103
103 103 103
103 103 103
103 103 103
104 104 104
104 104 104
104 104 104
104 104 104
104 104 104
104 104 104
104 104 104
104 104 104
104 104 104
104 104 104
104 104 104
104 104 104
104 104 104
104 104 104
104 104 104
104 104 104
104 104 104
104 104 104
104 104 104
104 104 104
104 104 104
104 104 104
104 104 104
104 104 104
104 104 104
104 104 104
104 104 104
104 104 104
104 104 104
104 104 104
104 104 104
104 104 104
104 104 104
104 104 104
104 104 104
104 104 104
104 104 104
103 103 103
103 103 103
103 103 103
103 103 103
103 103 103
103 103 103
103 103 103
103 103 103
104 104 104
104 104 104
104 104 104
104 104 104
104 104 104
104 104 104
104 104 104
104 104 104
104 104 104
104 104 104
104 104 104
104 104 104
104 104 104
103 103 103
103 103 103
103 103 103
103 103 103
103 103 103
103 103 103
104 104 104
104 104 104
104 104 104
104 104 104
104 104 104
104 104 104
104 104 104
104 104 104
104 104 104
104 104 104
104 104 104
104 104 104
104 104 104
104 104 104
104 104 104
104 104 104
104 104 104
104 104 104
104 104 104
104 104 104
104 104 104
104 104 104
104 104 104
104 104 104
104 104 104
104 104 104
104 104 104
104 104 104
104 104 104
104 104 104
104 104 104
104 104 104
104 104 104
104 104 104
104 104 104
104 104 104
103 103 103
103 103 103
103 103 103
103 103 103
103 103 103
103 103 103
103 103 103
103 103 103
103 103 103
103 103 103
104 104 104
104 104 104
104 104 104
104 104 104
104 104 104
104 104 104
104 104 104
104 104 104
104 104 104
104 104 104
104 104 104
104 104 104
103 103 103
103 103 103
103 103 103
103 103 103
103 103 103
103 103 103
104 104 104
104 104 104
104 104 104
104 104 104
104 104 104
104 104 104
104 104 104
104 104 104
104 104 104
104 104 104
104 104 104
104 104 104
104 104 104
104 104 104
104 104 104
104 104 104
104 104 104
104 104 104
104 104 104
104 104 104
104 104 104
104 104 104
104 104 104
104 104 104
104 104 104
104 104 104
104 104 104
104 104 104
104 104 104
104 104 104
104 104 104
104 104 104
103 103 103
104 104 104
104 104 104
104 104 104
103 103 103
103 103 103
103 103 103
103 103 103
103 103 103
103 103 103
103 103 103
103 103 103
103 103 103
103 103 103
103 103 103
104 104 104
104 104 104
104 104 104
104 104 104
104 104 104
104 104 104
104 104 104
104 104 104
104 104 104
104 104 104
104 104 104
103 103 103
103 103 103
103 103 103
104 104 104
104 104 104
104 104 104
104 104 104
104 104 104
104 104 104
104 104 104
104 104 104
104 104 104
104 104 104
104 104 104
104 104 104
104 104 104
104 104 104
104 104 104
104 104 104
104 104 104
104 104 104
104 104 104
104 104 104
104 104 104
104 104 104
104 104 104
104 104 104
104 104 104
104 104 104
104 104 104
104 104 104
104 104 104
104 104 104
104 104 104
104 104 104
104 104 104
104 104 104
104 104 104
103 103 103
104 104 104
104 104 104
104 104 104
103 103 103
103 103 103
103 103 103
103 103 103
103 103 103
103 103 103
103 103 103
103 103 103
103 103 103
103 103 103
104 104 104
104 104 104
104 104 104
104 104 104
104 104 104
104 104 104
104 104 104
104 104 104
104 104 104
104 104 104
104 104 104
104 104 104
104 104 104
103 103 103
104 104 104
104 104 104
104 104 104
104 104 104
104 104 104
104 104 104
104 104 104
104 104 104
104 104 104
104 104 104
104 104 104
104 104 104
104 104 104
104 104 104
104 104 104
104 104 104
104 104 104
104 104 104
104 104 104
104 104 104
104 104 104
104 104 104
104 104 104
104 104 104
104 104 104
104 104 104
104 104 104
104 104 104
104 104 104
104 104 104
104 104 104
104 104 104
104 104 104
104 104 104
103 103 103
103 103 103
103 103 103
104 104 104
104 104 104
104 104 104
103 103 103
103 103 103
103 103 103
103 103 103
103 103 103
103 103 103
103 103 103
103 103 103
103 103 103
103 103 103
104 104 104
104 104 104
104 104 104
104 104 104
104 104 104
104 104 104
104 104 104
104 104 104
104 104 104
104 104 104
104 104 104
104 104 104
104 104 104
104 104 104
104 104 104
104 104 104
104 104 104
104 104 104
104 104 104
105 105 105
105 105 105
104 104 104
104 104 104
104 104 104
104 104 104
104 104 104
104 104 104
104 104 104
104 104 104
104 104 104
104 104 104
104 104 104
104 104 104
104 104 104
104 104 104
104 104 104
104 104 104
104 104 104
104 104 104
104 104 104
104 104 104
104 104 104
104 104 104
104 104 104
104 104 104
104 104 104
104 104 104
104 104 104
103 103 103
103 103 103
103 103 103
104 104 104
104 104 104
104 104 104
103 103 103
103 103 103
103 103 103
103 103 103
103 103 103
103 103 103
103 103 103
103 103 103
103 103 103
103 103 103
104 104 104
104 104 104
104 104 104
104 104 104
104 104 104
104 104 104
104 104 104
104 104 104
104 104 104
104 104 104
104 104 104
104 104 104
104 104 104
104 104 104
104 104 104
104 104 104
105 105 105
105 105 105
105 105 105
105 105 105
105 105 105
105 105 105
104 104 104
104 104 104
105 105 105
105 105 105
105 105 105
105 105 105
104 104 104
104 104 104
104 104 104
104 104 104
104 104 104
104 104 104
104 104 104
104 104 104
104 104 104
104 104 104
104 104 104
104 104 104
104 104 104
104 104 104
104 104 104
104 104 104
104 104 104
104 104 104
104 104 104
104 104 104
103 103 103
103 103 103
103 103 103
104 104 104
104 104 104
104 104 104
103 103 103
103 103 103
103 103 103
103 103 103
103 103 103
103 103 103
103 103 103
103 103 103
103 103 103
103 103 103
104 104 104
104 104 104
104 104 104
104 104 104
104 104 104
104 104 104
104 104 104
104 104 104
104 104 104
104 104 104
103 103 103
103 103 103
104 104 104
104 104 104
104 104 104
104 104 104
104 104 104
104 104 104
104 104 104
105 105 105
105 105 105
104 104 104
104 104 104
104 104 104
105 105 105
105 105 105
105 105 105
104 104 104
104 104 104
104 104 104
104 104 104
104 104 104
104 104 104
104 104 104
104 104 104
104 104 104
104 104 104
104 104 104
104 104 104
104 104 104
104 104 104
104 104 104
104 104 104
104 104 104
104 104 104
104 104 104
104 104 104
104 104 104
103 103 103
103 103 103
103 103 103
104 104 104
104 104 104
104 104 104
103 103 103
103 103 103
103 103 103
103 103 103
103 103 103
103 103 103
103 103 103
103 103 103
103 103 103
103 103 103
103 103 103
104 104 104
104 104 104
104 104 104
104 104 104
104 104 104
104 104 104
104 104 104
104 104 104
103 103 103
103 103 103
103 103 103
103 103 103
103 103 103
104 104 104
104 104 104
104 104 104
104 104 104
104 104 104
104 104 104
104 104 104
104 104 104
104 104 104
104 104 104
104 104 104
104 104 104
104 104 104
104 104 104
104 104 104
104 104 104
104 104 104
104 104 104
103 103 103
103 103 103
103 103 103
104 104 104
104 104 104
104 104 104
104 104 104
104 104 104
104 104 104
104 104 104
104 104 104
104 104 104
104 104 104
104 104 104
104 104 104
103 103 103
103 103 103
103 103 103
103 103 103
104 104 104
104 104 104
104 104 104
103 103 103
103 103 103
103 103 103
103 103 103
103 103 103
103 103 103
103 103 103
103 103 103
103 103 103
103 103 103
103 103 103
104 104 104
104 104 104
104 104 104
104 104 104
104 104 104
104 104 104
104 104 104
103 103 103
103 103 103
103 103 103
103 103 103
103 103 103
103 103 103
103 103 103
103 103 103
103 103 103
104 104 104
104 104 104
104 104 104
104 104 104
104 104 104
104 104 104
104 104 104
104 104 104
104 104 104
104 104 104
104 104 104
104 104 104
104 104 104
104 104 104
104 104 104
103 103 103
103 103 103
103 103 103
103 103 103
104 104 104
104 104 104
104 104 104
104 104 104
104 104 104
104 104 104
104 104 104
104 104 104
104 104 104
104 104 104
104 104 104
103 103 103
103 103 103
103 103 103
103 103 103
104 104 104
104 104 104
104 104 104
104 104 104
103 103 103
103 103 103
103 103 103
103 103 103
103 103 103
103 103 103
103 103 103
103 103 103
103 103 103
103 103 103
103 103 103
104 104 104
104 104 104
104 104 104
104 104 104
104 104 104
104 104 104
103 103 103
103 103 103
103 103 103
103 103 103
103 103 103
103 103 103
103 103 103
103 103 103
103 103 103
103 103 103
104 104 104
104 104 104
104 104 104
104 104 104
104 104 104
104 104 104
104 104 104
104 104 104
104 104 104
104 104 104
104 104 104
104 104 104
104 104 104
104 104 104
103 103 103
103 103 103
103 103 103
103 103 103
103 103 103
104 104 104
104 104 104
104 104 104
104 104 104
104 104 104
104 104 104
104 104 104
104 104 104
104 104 104
103 103 103
103 103 103
103 103 103
103 103 103
104 104 104
104 104 104
104 104 104
104 104 104
104 104 104
103 103 103
103 103 103
103 103 103
103 103 103
103 103 103
103 103 103
103 103 103
103 103 103
103 103 103
103 103 103
103 103 103
104 104 104
104 104 104
104 104 104
104 104 104
104 104 104
103 103 103
103 103 103
103 103 103
103 103 103
103 103 103
103 103 103
103 103 103
103 103 103
103 103 103
103 103 103
103 103 103
104 104 104
104 104 104
104 104 104
104 104 104
104 104 104
104 104 104
104 104 104
104 104 104
104 104 104
104 104 104
104 104 104
103 103 103
103 103 103
103 103 103
103 103 103
103 103 103
103 103 103
103 103 103
103 103 103
103 103 103
104 104 104
104 104 104
104 104 104
104 104 104
104 104 104
104 104 104
104 104 104
103 103 103
103 103 103
103 103 103
103 103 103
103 103 103
104 104 104
104 104 104
104 104 104
104 104 104
104 104 104
103 103 103
103 103 103
103 103 103
103 103 103
103 103 103
103 103 103
103 103 103
103 103 103
103 103 103
103 103 103
103 103 103
103 103 103
104 104 104
104 104 104
103 103 103
103 103 103
103 103 103
103 103 103
103 103 103
103 103 103
103 103 103
103 103 103
103 103 103
103 103 103
103 103 103
103 103 103
103 103 103
104 104 104
104 104 104
104 104 104
104 104 104
104 104 104
104 104 104
104 104 104
104 104 104
103 103 103
103 103 103
103 103 103
103 103 103
103 103 103
104 104 104
104 104 104
103 103 103
103 103 103
103 103 103
103 103 103
103 103 103
103 103 103
103 103 103
104 104 104
104 104 104
104 104 104
104 104 104
104 104 104
103 103 103
103 103 103
103 103 103
103 103 103
103 103 103
104 104 104
104 104 104
104 104 104
104 104 104
104 104 104
104 104 104
103 103 103
103 103 103
103 103 103
103 103 103
103 103 103
103 103 103
103 103 103
103 103 103
103 103 103
103 103 103
103 103 103
103 103 103
103 103 103
103 103 103
103 103 103
103 103 103
103 103 103
103 103 103
103 103 103
103 103 103
103 103 103
103 103 103
103 103 103
103 103 103
103 103 103
103 103 103
103 103 103
103 103 103
104 104 104
104 104 104
104 104 104
104 104 104
103 103 103
103 103 103
103 103 103
103 103 103
103 103 103
103 103 103
103 103 103
103 103 103
104 104 104
104 104 104
103 103 103
103 103 103
103 103 103
103 103 103
103 103 103
103 103 103
103 103 103
103 103 103
103 103 103
103 103 103
103 103 103
103 103 103
103 103 103
103 103 103
103 103 103
103 103 103
104 104 104
104 104 104
104 104 104
104 104 104
104 104 104
104 104 104
103 103 103
103 103 103
103 103 103
103 103 103
103 103 103
103 103 103
103 103 103
103 103 103
103 103 103
103 103 103
103 103 103
103 103 103
103 103 103
103 103 103
103 103 103
103 103 103
103 103 103
103 103 103
103 103 103
103 103 103
103 103 103
103 103 103
103 103 103
103 103 103
103 103 103
103 103 103
103 103 103
103 103 103
103 103 103
103 103 103
103 103 103
103 103 103
103 103 103
103 103 103
103 103 103
103 103 103
103 103 103
103 103 103
103 103 103
103 103 103
104 104 104
104 104 104
104 104 104
103 103 103
103 103 103
103 103 103
103 103 103
103 103 103
103 103 103
103 103 103
103 103 103
103 103 103
103 103 103
103 103 103
103 103 103
103 103 103
103 103 103
103 103 103
104 104 104
104 104 104
104 104 104
104 104 104
104 104 104
104 104 104
103 103 103
103 103 103
103 103 103
103 103 103
103 103 103
103 103 103
103 103 103
103 103 103
103 103 103
103 103 103
103 103 103
103 103 103
103 103 103
103 103 103
103 103 103
103 103 103
103 103 103
103 103 103
103 103 103
103 103 103
103 103 103
103 103 103
103 103 103
103 103 103
103 103 103
103 103 103
103 103 103
103 103 103
103 103 103
103 103 103
103 103 103
103 103 103
103 103 103
103 103 103
103 103 103
103 103 103
103 103 103
103 103 103
103 103 103
103 103 103
104 104 104
104 104 104
104 104 104
104 104 104
104 104 104
104 104 104
103 103 103
103 103 103
103 103 103
103 103 103
103 103 103
103 103 103
103 103 103
103 103 103
103 103 103
103 103 103
103 103 103
103 103 103
104 104 104
104 104 104
104 104 104
104 104 104
104 104 104
104 104 104
104 104 104
103 103 103
103 103 103
103 103 103
103 103 103
103 103 103
103 103 103
103 103 103
103 103 103
103 103 103
103 103 103
104 104 104
103 103 103
103 103 103
103 103 103
103 103 103
103 103 103
103 103 103
103 103 103
104 104 104
103 103 103
103 103 103
104 104 104
103 103 103
103 103 103
103 103 103
103 103 103
103 103 103
103 103 103
103 103 103
103 103 103
103 103 103
103 103 103
103 103 103
103 103 103
103 103 103
103 103 103
103 103 103
103 103 103
104 104 104
104 104 104
104 104 104
104 104 104
104 104 104
104 104 104
104 104 104
104 104 104
104 104 104
103 103 103
103 103 103
103 103 103
104 104 104
103 103 103
103 103 103
103 103 103
103 103 103
103 103 103
103 103 103
104 104 104
104 104 104
104 104 104
104 104 104
104 104 104
104 104 104
104 104 104
103 103 103
103 103 103
103 103 103
103 103 103
103 103 103
103 103 103
103 103 103
103 103 103
103 103 103
103 103 103
104 104 104
104 104 104
104 104 104
104 104 104
104 104 104
104 104 104
104 104 104
104 104 104
104 104 104
104 104 104
104 104 104
104 104 104
104 104 104
104 104 104
104 104 104
104 104 104
103 103 103
103 103 103
103 103 103
104 104 104
104 104 104
104 104 104
104 104 104
104 104 104
104 104 104
104 104 104
104 104 104
104 104 104
104 104 104
104 104 104
104 104 104
104 104 104
104 104 104
104 104 104
104 104 104
104 104 104
104 104 104
104 104 104
103 103 103
103 103 103
103 103 103
103 103 103
104 104 104
104 104 104
104 104 104
104 104 104
104 104 104
104 104 104
104 104 104
104 104 104
104 104 104
104 104 104
104 104 104
104 104 104
104 104 104
103 103 103
103 103 103
103 103 103
103 103 103
103 103 103
103 103 103
103 103 103
103 103 103
103 103 103
104 104 104
104 104 104
104 104 104
104 104 104
104 104 104
104 104 104
104 104 104
104 104 104
104 104 104
104 104 104
104 104 104
104 104 104
104 104 104
104 104 104
104 104 104
104 104 104
104 104 104
104 104 104
104 104 104
104 104 104
104 104 104
104 104 104
104 104 104
104 104 104
104 104 104
104 104 104
104 104 104
104 104 104
104 104 104
104 104 104
104 104 104
104 104 104
104 104 104
104 104 104
104 104 104
104 104 104
104 104 104
104 104 104
103 103 103
104 104 104
104 104 104
104 104 104
104 104 104
104 104 104
104 104 104
104 104 104
104 104 104
104 104 104
104 104 104
104 104 104
104 104 104
104 104 104
104 104 104
104 104 104
104 104 104
103 103 103
103 103 103
103 103 103
103 103 103
103 103 103
103 103 103
103 103 103
103 103 103
103 103 103
104 104 104
104 104 104
104 104 104
104 104 104
104 104 104
104 104 104
104 104 104
104 104 104
104 104 104
104 104 104
104 104 104
104 104 104
104 104 104
104 104 104
104 104 104
104 104 104
104 104 104
104 104 104
104 104 104
104 104 104
104 104 104
104 104 104
104 104 104
104 104 104
104 104 104
104 104 104
104 104 104
104 104 104
104 104 104
104 104 104
104 104 104
104 104 104
104 104 104
104 104 104
104 104 104
104 104 104
104 104 104
104 104 104
104 104 104
104 104 104
104 104 104
104 104 104
104 104 104
104 104 104
104 104 104
104 104 104
104 104 104
104 104 104
104 104 104
104 104 104
104 104 104
104 104 104
104 104 104
104 104 104
104 104 104
103 103 103
103 103 103
103 103 103
103 103 103
103 103 103
103 103 103
103 103 103
103 103 103
103 103 103
104 104 104
104 104 104
104 104 104
104 104 104
104 104 104
104 104 104
104 104 104
104 104 104
104 104 104
104 104 104
104 104 104
104 104 104
104 104 104
104 104 104
104 104 104
104 104 104
104 104 104
104 104 104
104 104 104
104 104 104
104 104 104
104 104 104
104 104 104
104 104 104
104 104 104
104 104 104
104 104 104
104 104 104
104 104 104
104 104 104
104 104 104
104 104 104
104 104 104
104 104 104
104 104 104
104 104 104
104 104 104
104 104 104
104 104 104
104 104 104
104 104 104
104 104 104
104 104 104
104 104 104
104 104 104
104 104 104
104 104 104
104 104 104
104 104 104
104 104 104
104 104 104
104 104 104
104 104 104
104 104 104
104 104 104
104 104 104
103 103 103
103 103 103
103 103 103
103 103 103
103 103 103
103 103 103
103 103 103
103 103 103
104 104 104
104 104 104
104 104 104
104 104 104
104 104 104
104 104 104
104 104 104
104 104 104
104 104 104
104 104 104
104 104 104
104 104 104
104 104 104
104 104 104
104 104 104
104 104 104
104 104 104
104 104 104
104 104 104
104 104 104
104 104 104
104 104 104
104 104 104
104 104 104
104 104 104
104 104 104
104 104 104
104 104 104
104 104 104
104 104 104
104 104 104
104 104 104
104 104 104
104 104 104
104 104 104
104 104 104
104 104 104
104 104 104
104 104 104
104 104 104
104 104 104
104 104 104
104 104 104
104 104 104
104 104 104
104 104 104
104 104 104
104 104 104
104 104 104
104 104 104
104 104 104
104 104 104
104 104 104
104 104 104
104 104 104
104 104 104
103 103 103
103 103 103
103 103 103
103 103 103
103 103 103
103 103 103
103 103 103
103 103 103
104 104 104
104 104 104
104 104 104
104 104 104
104 104 104
104 104 104
104 104 104
104 104 104
104 104 104
104 104 104
104 104 104
104 104 104
104 104 104
104 104 104
104 104 104
104 104 104
104 104 104
104 104 104
104 104 104
104 104 104
104 104 104
104 104 104
104 104 104
104 104 104
104 104 104
104 104 104
104 104 104
104 104 104
104 104 104
104 104 104
104 104 104
104 104 104
104 104 104
104 104 104
104 104 104
104 104 104
104 104 104
104 104 104
104 104 104
104 104 104
104 104 104
104 104 104
104 104 104
104 104 104
104 104 104
104 104 104
104 104 104
104 104 104
104 104 104
104 104 104
104 104 104
104 104 104
104 104 104
104 104 104
104 104 104
104 104 104
104 104 104
103 103 103
103 103 103
103 103 103
103 103 103
103 103 103
103 103 103
103 103 103
103 103 103
104 104 104
104 104 104
104 104 104
104 104 104
103 103 103
103 103 103
103 103 103
103 103 103
103 103 103
103 103 103
103 103 103
104 104 104
104 104 104
104 104 104
104 104 104
104 104 104
104 104 104
104 104 104
104 104 104
104 104 104
104 104 104
104 104 104
104 104 104
104 104 104
104 104 104
104 104 104
104 104 104
104 104 104
104 104 104
104 104 104
104 104 104
104 104 104
104 104 104
104 104 104
104 104 104
104 104 104
104 104 104
104 104 104
104 104 104
104 104 104
104 104 104
104 104 104
104 104 104
104 104 104
104 104 104
104 104 104
104 104 104
104 104 104
104 104 104
104 104 104
104 104 104
104 104 104
104 104 104
104 104 104
104 104 104
104 104 104
103 103 103
103 103 103
103 103 103
103 103 103
103 103 103
103 103 103
103 103 103
103 103 103
103 103 103
104 104 104
104 104 104
103 103 103
103 103 103
103 103 103
103 103 103
103 103 103
103 103 103
103 103 103
103 103 103
104 104 104
104 104 104
104 104 104
104 104 104
104 104 104
104 104 104
104 104 104
104 104 104
104 104 104
104 104 104
104 104 104
104 104 104
104 104 104
104 104 104
104 104 104
104 104 104
104 104 104
104 104 104
104 104 104
104 104 104
104 104 104
104 104 104
104 104 104
104 104 104
104 104 104
104 104 104
104 104 104
104 104 104
104 104 104
104 104 104
104 104 104
104 104 104
104 104 104
104 104 104
104 104 104
104 104 104
104 104 104
104 104 104
104 104 104
104 104 104
104 104 104
104 104 104
104 104 104
104 104 104
104 104 104
104 104 104
103 103 103
103 103 103
103 103 103
103 103 103
103 103 103
103 103 103
103 103 103
103 103 103
103 103 103
103 103 103
103 103 103
103 103 103
103 103 103
103 103 103
103 103 103
103 103 103
103 103 103
103 103 103
104 104 104
104 104 104
104 104 104
104 104 104
104 104 104
104 104 104
104 104 104
104 104 104
104 104 104
104 104 104
104 104 104
104 104 104
104 104 104
104 104 104
104 104 104
104 104 104
103 103 103
103 103 103
103 103 103
103 103 103
104 104 104
104 104 104
104 104 104
104 104 104
104 104 104
104 104 104
104 104 104
104 104 104
104 104 104
104 104 104
104 104 104
104 104 104
104 104 104
104 104 104
104 104 104
104 104 104
104 104 104
104 104 104
104 104 104
104 104 104
104 104 104
104 104 104
104 104 104
104 104 104
104 104 104
104 104 104
104 104 104
103 103 103
103 103 103
103 103 103
103 103 103
103 103 103
103 103 103
103 103 103
103 103 103
103 103 103
103 103 103
103 103 103
103 103 103
103 103 103
103 103 103
103 103 103
103 103 103
104 104 104
104 104 104
104 104 104
104 104 104
104 104 104
104 104 104
104 104 104
104 104 104
104 104 104
104 104 104
104 104 104
104 104 104
104 104 104
104 104 104
104 104 104
104 104 104
104 104 104
103 103 103
103 103 103
103 103 103
104 104 104
104 104 104
104 104 104
104 104 104
104 104 104
104 104 104
104 104 104
104 104 104
104 104 104
104 104 104
104 104 104
104 104 104
104 104 104
104 104 104
104 104 104
104 104 104
104 104 104
105 105 105
105 105 105
104 104 104
104 104 104
104 104 104
104 104 104
104 104 104
104 104 104
104 104 104
104 104 104
104 104 104
103 103 103
103 103 103
103 103 103
103 103 103
103 103 103
103 103 103
103 103 103
103 103 103
103 103 103
103 103 103
103 103 103
103 103 103
103 103 103
103 103 103
103 103 103
104 104 104
104 104 104
104 104 104
104 104 104
104 104 104
104 104 104
104 104 104
104 104 104
104 104 104
104 104 104
104 104 104
104 104 104
104 104 104
104 104 104
104 104 104
104 104 104
104 104 104
104 104 104
104 104 104
104 104 104
104 104 104
104 104 104
104 104 104
104 104 104
104 104 104
104 104 104
104 104 104
104 104 104
104 104 104
104 104 104
104 104 104
104 104 104
104 104 104
104 104 104
104 104 104
104 104 104
104 104 104
104 104 104
105 105 105
105 105 105
104 104 104
104 104 104
104 104 104
104 104 104
104 104 104
104 104 104
104 104 104
104 104 104
104 104 104
103 103 103
103 103 103
103 103 103
103 103 103
103 103 103
103 103 103
103 103 103
103 103 103
103 103 103
103 103 103
104 104 104
104 104 104
104 104 104
104 104 104
104 104 104
104 104 104
104 104 104
104 104 104
104 104 104
104 104 104
104 104 104
104 104 104
104 104 104
104 104 104
104 104 104
104 104 104
104 104 104
104 104 104
104 104 104
104 104 104
104 104 104
104 104 104
104 104 104
104 104 104
104 104 104
104 104 104
104 104 104
104 104 104
104 104 104
104 104 104
104 104 104
104 104 104
104 104 104
104 104 104
104 104 104
104 104 104
104 104 104
104 104 104
104 104 104
104 104 104
104 104 104
104 104 104
105 105 105
105 105 105
105 105 105
104 104 104
104 104 104
104 104 104
104 104 104
104 104 104
104 104 104
104 104 104
104 104 104
104 104 104
104 104 104
103 103 103
103 103 103
103 103 103
103 103 103
103 103 103
103 103 103
103 103 103
103 103 103
103 103 103
104 104 104
104 104 104
104 104 104
104 104 104
104 104 104
104 104 104
104 104 104
104 104 104
104 104 104
104 104 104
104 104 104
104 104 104
104 104 104
104 104 104
104 104 104
104 104 104
104 104 104
104 104 104
104 104 104
104 104 104
104 104 104
104 104 104
104 104 104
104 104 104
104 104 104
104 104 104
104 104 104
104 104 104
104 104 104
104 104 104
104 104 104
104 104 104
104 104 104
104 104 104
104 104 104
104 104 104
104 104 104
104 104 104
104 104 104
104 104 104
104 104 104
104 104 104
105 105 105
105 105 105
105 105 105
105 105 105
104 104 104
104 104 104
104 104 104
104 104 104
104 104 104
104 104 104
104 104 104
104 104 104
104 104 104
103 103 103
103 103 103
103 103 103
103 103 103
103 103 103
103 103 103
103 103 103
103 103 103
103 103 103
104 104 104
104 104 104
104 104 104
104 104 104
104 104 104
104 104 104
104 104 104
104 104 104
104 104 104
104 104 104
104 104 104
104 104 104
104 104 104
104 104 104
104 104 104
104 104 104
104 104 104
104 104 104
104 104 104
104 104 104
104 104 104
104 104 104
104 104 104
104 104 104
104 104 104
104 104 104
104 104 104
104 104 104
104 104 104
104 104 104
104 104 104
104 104 104
104 104 104
104 104 104
104 104 104
104 104 104
104 104 104
104 104 104
104 104 104
104 104 104
104 104 104
105 105 105
105 105 105
105 105 105
105 105 105
105 105 105
104 104 104
104 104 104
104 104 104
104 104 104
104 104 104
104 104 104
104 104 104
104 104 104
104 104 104
103 103 103
103 103 103
103 103 103
103 103 103
103 103 103
103 103 103
103 103 103
103 103 103
103 103 103
104 104 104
104 104 104
104 104 104
104 104 104
104 104 104
104 104 104
104 104 104
104 104 104
104 104 104
104 104 104
104 104 104
104 104 104
104 104 104
104 104 104
104 104 104
104 104 104
104 104 104
104 104 104
104 104 104
104 104 104
104 104 104
104 104 104
104 104 104
104 104 104
104 104 104
104 104 104
104 104 104
104 104 104
104 104 104
104 104 104
104 104 104
104 104 104
104 104 104
104 104 104
104 104 104
104 104 104
104 104 104
104 104 104
104 104 104
104 104 104
104 104 104
105 105 105
105 105 105
105 105 105
105 105 105
105 105 105
104 104 104
104 104 104
104 104 104
104 104 104
104 104 104
104 104 104
104 104 104
104 104 104
104 104 104
103 103 103
103 103 103
103 103 103
103 103 103
103 103 103
103 103 103
103 103 103
103 103 103
103 103 103
104 104 104
104 104 104
104 104 104
104 104 104
104 104 104
104 104 104
104 104 104
104 104 104
104 104 104
104 104 104
104 104 104
104 104 104
104 104 104
104 104 104
104 104 104
104 104 104
104 104 104
104 104 104
104 104 104
104 104 104
104 104 104
104 104 104
104 104 104
104 104 104
104 104 104
104 104 104
104 104 104
104 104 104
104 104 104
104 104 104
104 104 104
104 104 104
104 104 104
104 104 104
104 104 104
104 104 104
103 103 103
103 103 103
104 104 104
104 104 104
104 104 104
105 105 105
105 105 105
105 105 105
105 105 105
105 105 105
104 104 104
104 104 104
104 104 104
104 104 104
104 104 104
104 104 104
104 104 104
104 104 104
104 104 104
103 103 103
103 103 103
103 103 103
103 103 103
103 103 103
103 103 103
103 103 103
103 103 103
103 103 103
104 104 104
104 104 104
104 104 104
104 104 104
104 104 104
104 104 104
104 104 104
104 104 104
104 104 104
104 104 104
104 104 104
104 104 104
104 104 104
104 104 104
104 104 104
104 104 104
104 104 104
104 104 104
104 104 104
104 104 104
104 104 104
104 104 104
104 104 104
104 104 104
104 104 104
104 104 104
104 104 104
104 104 104
104 104 104
104 104 104
104 104 104
104 104 104
104 104 104
104 104 104
104 104 104
103 103 103
103 103 103
103 103 103
104 104 104
104 104 104
104 104 104
105 105 105
105 105 105
105 105 105
105 105 105
104 104 104
104 104 104
104 104 104
104 104 104
104 104 104
104 104 104
104 104 104
104 104 104
104 104 104
103 103 103
103 103 103
103 103 103
103 103 103
103 103 103
103 103 103
103 103 103
103 103 103
103 103 103
103 103 103
104 104 104
104 104 104
104 104 104
104 104 104
104 104 104
104 104 104
104 104 104
104 104 104
104 104 104
104 104 104
104 104 104
104 104 104
104 104 104
104 104 104
104 104 104
104 104 104
104 104 104
104 104 104
104 104 104
104 104 104
104 104 104
104 104 104
104 104 104
104 104 104
104 104 104
104 104 104
104 104 104
104 104 104
104 104 104
104 104 104
104 104 104
104 104 104
104 104 104
104 104 104
104 104 104
103 103 103
103 103 103
103 103 103
104 104 104
104 104 104
104 104 104
105 105 105
105 105 105
105 105 105
104 104 104
104 104 104
104 104 104
104 104 104
104 104 104
104 104 104
104 104 104
104 104 104
104 104 104
104 104 104
103 103 103
103 103 103
103 103 103
103 103 103
103 103 103
103 103 103
103 103 103
103 103 103
103 103 103
103 103 103
103 103 103
104 104 104
104 104 104
104 104 104
104 104 104
104 104 104
104 104 104
104 104 104
104 104 104
104 104 104
104 104 104
104 104 104
104 104 104
104 104 104
104 104 104
104 104 104
104 104 104
104 104 104
104 104 104
104 104 104
104 104 104
104 104 104
104 104 104
104 104 104
104 104 104
104 104 104
104 104 104
104 104 104
104 104 104
104 104 104
104 104 104
104 104 104
104 104 104
104 104 104
103 103 103
103 103 103
103 103 103
103 103 103
104 104 104
104 104 104
104 104 104
104 104 104
105 105 105
105 105 105
104 104 104
104 104 104
104 104 104
105 105 105
104 104 104
104 104 104
104 104 104
104 104 104
104 104 104
104 104 104
103 103 103
103 103 103
103 103 103
103 103 103
103 103 103
103 103 103
103 103 103
103 103 103
103 103 103
103 103 103
103 103 103
104 104 104
104 104 104
104 104 104
104 104 104
104 104 104
104 104 104
104 104 104
104 104 104
104 104 104
104 104 104
104 104 104
104 104 104
104 104 104
104 104 104
104 104 104
104 104 104
104 104 104
104 104 104
104 104 104
104 104 104
104 104 104
104 104 104
104 104 104
104 104 104
104 104 104
104 104 104
104 104 104
104 104 104
104 104 104
104 104 104
104 104 104
104 104 104
104 104 104
103 103 103
103 103 103
103 103 103
103 103 103
104 104 104
104 104 104
104 104 104
104 104 104
105 105 105
105 105 105
104 104 104
104 104 104
104 104 104
105 105 105
105 105 105
104 104 104
104 104 104
104 104 104
104 104 104
104 104 104
103 103 103
103 103 103
103 103 103
103 103 103
103 103 103
103 103 103
103 103 103
103 103 103
103 103 103
103 103 103
104 104 104
104 104 104
104 104 104
104 104 104
104 104 104
104 104 104
104 104 104
104 104 104
104 104 104
104 104 104
104 104 104
104 104 104
104 104 104
104 104 104
104 104 104
104 104 104
104 104 104
104 104 104
104 104 104
104 104 104
104 104 104
104 104 104
104 104 104
104 104 104
104 104 104
104 104 104
104 104 104
104 104 104
104 104 104
104 104 104
104 104 104
104 104 104
104 104 104
104 104 104
103 103 103
103 103 103
103 103 103
104 104 104
104 104 104
104 104 104
104 104 104
104 104 104
105 105 105
105 105 105
104 104 104
104 104 104
104 104 104
105 105 105
105 105 105
104 104 104
104 104 104
104 104 104
104 104 104
104 104 104
103 103 103
103 103 103
103 103 103
103 103 103
103 103 103
103 103 103
103 103 103
103 103 103
104 104 104
104 104 104
104 104 104
104 104 104
104 104 104
104 104 104
104 104 104
104 104 104
104 104 104
104 104 104
104 104 104
104 104 104
104 104 104
104 104 104
104 104 104
104 104 104
104 104 104
104 104 104
104 104 104
104 104 104
104 104 104
104 104 104
104 104 104
104 104 104
104 104 104
104 104 104
104 104 104
104 104 104
104 104 104
104 104 104
104 104 104
104 104 104
104 104 104
104 104 104
104 104 104
104 104 104
103 103 103
104 104 104
104 104 104
103 103 103
104 104 104
104 104 104
104 104 104
104 104 104
105 105 105
105 105 105
104 104 104
104 104 104
104 104 104
105 105 105
105 105 105
104 104 104
104 104 104
105 105 105
104 104 104
104 104 104
103 103 103
103 103 103
103 103 103
103 103 103
103 103 103
103 103 103
103 103 103
104 104 104
104 104 104
104 104 104
104 104 104
104 104 104
104 104 104
104 104 104
104 104 104
104 104 104
104 104 104
104 104 104
104 104 104
104 104 104
104 104 104
104 104 104
104 104 104
104 104 104
104 104 104
104 104 104
104 104 104
104 104 104
104 104 104
104 104 104
104 104 104
104 104 104
104 104 104
104 104 104
104 104 104
104 104 104
104 104 104
104 104 104
104 104 104
104 104 104
104 104 104
104 104 104
104 104 104
104 104 104
104 104 104
104 104 104
104 104 104
103 103 103
104 104 104
104 104 104
104 104 104
104 104 104
105 105 105
105 105 105
104 104 104
104 104 104
