P3
64 64
255
112 112 112
118 118 118
124 124 124
124 124 124
123 123 123
123 123 123
121 121 121
117 117 117
113 113 113
111 111 111
110 110 110
110 110 110
109 109 109
109 109 109
108 108 108
108 108 108
107 107 107
107 107 107
106 106 106
106 106 106
105 105 105
105 105 105
105 105 105
104 104 104
104 104 104
104 104 104
104 104 104
103 103 103
103 103 103
103 103 103
103 103 103
103 103 103
104 104 104
103 103 103
104 104 104
104 104 104
103 103 103
103 103 103
103 103 103
103 103 103
103 103 103
103 103 103
103 103 103
103 103 103
103 103 103
103 103 103
103 103 103
103 103 103
103 103 103
103 103 103
103 103 103
102 102 102
102 102 102
103 103 103
103 103 103
103 103 103
103 103 103
103 103 103
103 103 103
103 103 103
104 104 104
103 103 103
96 96 96
94 94 94
114 114 114
121 121 121
126 126 126
125 125 125
124 124 124
124 124 124
122 122 122
117 117 117
113 113 113
111 111 111
110 110 110
110 110 110
109 109 109
109 109 109
109 109 109
108 108 108
108 108 108
108 108 108
107 107 107
106 106 106
106 106 106
106 106 106
105 105 105
105 105 105
105 105 105
105 105 105
104 104 104
103 103 103
103 103 103
103 103 103
103 103 103
103 103 103
104 104 104
104 104 104
104 104 104
104 104 104
104 104 104
103 103 103
104 104 104
104 104 104
104 104 104
104 104 104
104 104 104
103 103 103
103 103 103
103 103 103
103 103 103
103 103 103
103 103 103
103 103 103
103 103 103
103 103 103
103 103 103
103 103 103
104 104 104
104 104 104
104 104 104
103 103 103
104 104 104
104 104 104
104 104 104
103 103 103
97 97 97
94 94 94
116 116 116
123 123 123
127 127 127
126 126 126
125 125 125
124 124 124
122 122 122
117 117 117
112 112 112
111 111 111
110 110 110
110 110 110
109 109 109
109 109 109
109 109 109
109 109 109
108 108 108
108 108 108
107 107 107
107 107 107
106 106 106
106 106 106
106 106 106
105 105 105
105 105 105
105 105 105
104 104 104
104 104 104
104 104 104
104 104 104
104 104 104
104 104 104
104 104 104
104 104 104
104 104 104
105 105 105
105 105 105
105 105 105
105 105 105
105 105 105
105 105 105
105 105 105
104 104 104
104 104 104
104 104 104
103 103 103
104 104 104
104 104 104
104 104 104
103 103 103
103 103 103
103 103 103
103 103 103
104 104 104
104 104 104
104 104 104
104 104 104
104 104 104
104 104 104
104 104 104
104 104 104
104 104 104
99 99 99
95 95 95
118 118 118
125 125 125
128 128 128
127 127 127
125 125 125
125 125 125
122 122 122
116 116 116
112 112 112
111 111 111
111 111 111
110 110 110
110 110 110
109 109 109
109 109 109
109 109 109
109 109 109
108 108 108
108 108 108
107 107 107
107 107 107
107 107 107
106 106 106
106 106 106
105 105 105
105 105 105
104 104 104
104 104 104
104 104 104
104 104 104
104 104 104
105 105 105
105 105 105
105 105 105
105 105 105
105 105 105
105 105 105
105 105 105
106 106 106
106 106 106
106 106 106
106 106 106
106 106 106
105 105 105
105 105 105
105 105 105
105 105 105
104 104 104
105 105 105
105 105 105
104 104 104
104 104 104
103 103 103
103 103 103
104 104 104
105 105 105
105 105 105
104 104 104
105 105 105
104 104 104
105 105 105
104 104 104
100 100 100
96 96 96
119 119 119
126 126 126
129 129 129
128 128 128
126 126 126
125 125 125
121 121 121
116 116 116
112 112 112
111 111 111
111 111 111
110 110 110
110 110 110
110 110 110
110 110 110
110 110 110
109 109 109
109 109 109
108 108 108
108 108 108
107 107 107
107 107 107
106 106 106
105 105 105
105 105 105
105 105 105
104 104 104
105 105 105
105 105 105
105 105 105
105 105 105
105 105 105
106 106 106
106 106 106
106 106 106
105 105 105
105 105 105
106 106 106
106 106 106
107 107 107
107 107 107
107 107 107
107 107 107
106 106 106
106 106 106
106 106 106
106 106 106
106 106 106
106 106 106
106 106 106
105 105 105
105 105 105
104 104 104
103 103 103
104 104 104
105 105 105
105 105 105
105 105 105
105 105 105
105 105 105
104 104 104
104 104 104
101 101 101
96 96 96
121 121 121
127 127 127
129 129 129
128 128 128
126 126 126
125 125 125
120 120 120
115 115 115
113 113 113
112 112 112
111 111 111
109 109 109
109 109 109
109 109 109
109 109 109
109 109 109
109 109 109
109 109 109
108 108 108
107 107 107
106 106 106
106 106 106
105 105 105
104 104 104
104 104 104
104 104 104
104 104 104
104 104 104
105 105 105
105 105 105
105 105 105
106 106 106
107 107 107
107 107 107
106 106 106
105 105 105
105 105 105
106 106 106
106 106 106
107 107 107
107 107 107
107 107 107
107 107 107
107 107 107
106 106 106
107 107 107
107 107 107
106 106 106
106 106 106
105 105 105
105 105 105
105 105 105
105 105 105
104 104 104
103 103 103
105 105 105
105 105 105
105 105 105
105 105 105
105 105 105
105 105 105
105 105 105
102 102 102
97 97 97
123 123 123
127 127 127
130 130 130
128 128 128
126 126 126
124 124 124
120 120 120
115 115 115
113 113 113
113 113 113
111 111 111
109 109 109
107 107 107
107 107 107
107 107 107
107 107 107
107 107 107
106 106 106
105 105 105
104 104 104
103 103 103
102 102 102
102 102 102
101 101 101
102 102 102
102 102 102
102 102 102
102 102 102
103 103 103
104 104 104
105 105 105
106 106 106
107 107 107
107 107 107
106 106 106
105 105 105
105 105 105
106 106 106
106 106 106
105 105 105
106 106 106
105 105 105
106 106 106
105 105 105
104 104 104
104 104 104
105 105 105
104 104 104
104 104 104
104 104 104
104 104 104
104 104 104
105 105 105
105 105 105
102 102 102
103 103 103
105 105 105
106 106 106
106 106 106
105 105 105
106 106 106
106 106 106
102 102 102
97 97 97
123 123 123
127 127 127
130 130 130
128 128 128
125 125 125
124 124 124
120 120 120
114 114 114
112 112 112
111 111 111
109 109 109
106 106 106
103 103 103
103 103 103
103 103 103
103 103 103
103 103 103
102 102 102
101 101 101
100 100 100
99 99 99
99 99 99
99 99 99
99 99 99
99 99 99
99 99 99
99 99 99
100 100 100
100 100 100
101 101 101
103 103 103
106 106 106
107 107 107
107 107 107
106 106 106
105 105 105
104 104 104
104 104 104
104 104 104
103 103 103
102 102 102
101 101 101
101 101 101
101 101 101
101 101 101
100 100 100
99 99 99
100 100 100
99 99 99
100 100 100
100 100 100
100 100 100
102 102 102
103 103 103
103 103 103
101 101 101
102 102 102
106 106 106
108 108 108
107 107 107
106 106 106
106 106 106
103 103 103
97 97 97
123 123 123
128 128 128
130 130 130
129 129 129
125 125 125
123 123 123
118 118 118
113 113 113
109 109 109
108 108 108
106 106 106
103 103 103
100 100 100
100 100 100
100 100 100
99 99 99
99 99 99
98 98 98
98 98 98
98 98 98
97 97 97
96 96 96
96 96 96
97 97 97
97 97 97
97 97 97
97 97 97
97 97 97
97 97 97
99 99 99
102 102 102
105 105 105
106 106 106
106 106 106
105 105 105
104 104 104
103 103 103
102 102 102
102 102 102
100 100 100
99 99 99
98 98 98
97 97 97
97 97 97
97 97 97
97 97 97
96 96 96
99 99 99
98 98 98
98 98 98
98 98 98
98 98 98
98 98 98
98 98 98
99 99 99
100 100 100
100 100 100
102 102 102
106 106 106
107 107 107
107 107 107
107 107 107
104 104 104
98 98 98
123 123 123
129 129 129
129 129 129
129 129 129
125 125 125
121 121 121
115 115 115
110 110 110
107 107 107
106 106 106
105 105 105
103 103 103
101 101 101
101 101 101
100 100 100
99 99 99
99 99 99
97 97 97
97 97 97
98 98 98
97 97 97
97 97 97
96 96 96
97 97 97
98 98 98
98 98 98
97 97 97
96 96 96
97 97 97
99 99 99
102 102 102
105 105 105
106 106 106
105 105 105
104 104 104
103 103 103
103 103 103
101 101 101
100 100 100
100 100 100
99 99 99
99 99 99
98 98 98
98 98 98
97 97 97
96 96 96
96 96 96
99 99 99
100 100 100
100 100 100
100 100 100
101 101 101
101 101 101
100 100 100
100 100 100
101 101 101
101 101 101
100 100 100
102 102 102
106 106 106
107 107 107
108 108 108
106 106 106
99 99 99
123 123 123
128 128 128
129 129 129
129 129 129
125 125 125
119 119 119
111 111 111
107 107 107
107 107 107
107 107 107
107 107 107
106 106 106
104 104 104
104 104 104
102 102 102
101 101 101
100 100 100
98 98 98
99 99 99
99 99 99
99 99 99
99 99 99
98 98 98
100 100 100
101 101 101
101 101 101
100 100 100
99 99 99
99 99 99
101 101 101
104 104 104
105 105 105
106 106 106
104 104 104
104 104 104
104 104 104
104 104 104
103 103 103
102 102 102
101 101 101
102 102 102
102 102 102
101 101 101
99 99 99
98 98 98
97 97 97
96 96 96
99 99 99
101 101 101
103 103 103
104 104 104
105 105 105
105 105 105
105 105 105
105 105 105
104 104 104
103 103 103
101 101 101
99 99 99
103 103 103
107 107 107
108 108 108
107 107 107
101 101 101
123 123 123
128 128 128
129 129 129
130 130 130
124 124 124
115 115 115
110 110 110
109 109 109
110 110 110
111 111 111
111 111 111
109 109 109
107 107 107
104 104 104
103 103 103
102 102 102
101 101 101
99 99 99
99 99 99
99 99 99
100 100 100
99 99 99
100 100 100
101 101 101
104 104 104
104 104 104
104 104 104
104 104 104
104 104 104
105 105 105
106 106 106
106 106 106
106 106 106
105 105 105
105 105 105
106 106 106
106 106 106
106 106 106
105 105 105
104 104 104
104 104 104
102 102 102
100 100 100
98 98 98
97 97 97
97 97 97
98 98 98
100 100 100
104 104 104
105 105 105
105 105 105
105 105 105
105 105 105
106 106 106
108 108 108
107 107 107
105 105 105
102 102 102
98 98 98
101 101 101
106 106 106
108 108 108
107 107 107
102 102 102
124 124 124
127 127 127
129 129 129
129 129 129
121 121 121
114 114 114
112 112 112
112 112 112
114 114 114
115 115 115
112 112 112
110 110 110
106 106 106
104 104 104
103 103 103
103 103 103
102 102 102
101 101 101
101 101 101
101 101 101
101 101 101
100 100 100
100 100 100
101 101 101
103 103 103
105 105 105
106 106 106
105 105 105
108 108 108
107 107 107
105 105 105
106 106 106
106 106 106
106 106 106
107 107 107
107 107 107
108 108 108
107 107 107
106 106 106
104 104 104
102 102 102
99 99 99
97 97 97
97 97 97
98 98 98
99 99 99
99 99 99
101 101 101
105 105 105
105 105 105
106 106 106
106 106 106
106 106 106
107 107 107
108 108 108
107 107 107
106 106 106
103 103 103
99 99 99
101 101 101
105 105 105
107 107 107
107 107 107
103 103 103
124 124 124
127 127 127
128 128 128
128 128 128
121 121 121
116 116 116
116 116 116
115 115 115
115 115 115
113 113 113
111 111 111
109 109 109
110 110 110
111 111 111
110 110 110
107 107 107
104 104 104
102 102 102
102 102 102
102 102 102
102 102 102
102 102 102
101 101 101
101 101 101
101 101 101
101 101 101
103 103 103
105 105 105
107 107 107
107 107 107
105 105 105
105 105 105
105 105 105
105 105 105
107 107 107
107 107 107
108 108 108
108 108 108
106 106 106
102 102 102
99 99 99
99 99 99
99 99 99
99 99 99
101 101 101
100 100 100
99 99 99
99 99 99
102 102 102
104 104 104
106 106 106
107 107 107
106 106 106
106 106 106
108 108 108
107 107 107
105 105 105
104 104 104
102 102 102
101 101 101
104 104 104
106 106 106
106 106 106
104 104 104
125 125 125
128 128 128
128 128 128
126 126 126
120 120 120
118 118 118
117 117 117
115 115 115
114 114 114
111 111 111
112 112 112
117 117 117
117 117 117
113 113 113
109 109 109
104 104 104
100 100 100
100 100 100
99 99 99
99 99 99
101 101 101
102 102 102
102 102 102
101 101 101
100 100 100
98 98 98
98 98 98
104 104 104
107 107 107
106 106 106
104 104 104
104 104 104
104 104 104
105 105 105
106 106 106
106 106 106
107 107 107
108 108 108
104 104 104
101 101 101
100 100 100
101 101 101
102 102 102
102 102 102
103 103 103
102 102 102
100 100 100
99 99 99
99 99 99
102 102 102
105 105 105
106 106 106
106 106 106
106 106 106
108 108 108
108 108 108
107 107 107
106 106 106
104 104 104
102 102 102
103 103 103
105 105 105
106 106 106
104 104 104
124 124 124
126 126 126
126 126 126
124 124 124
119 119 119
119 119 119
117 117 117
114 114 114
112 112 112
110 110 110
115 115 115
120 120 120
114 114 114
108 108 108
106 106 106
104 104 104
103 103 103
102 102 102
102 102 102
101 101 101
103 103 103
103 103 103
100 100 100
99 99 99
100 100 100
99 99 99
97 97 97
101 101 101
106 106 106
105 105 105
104 104 104
103 103 103
103 103 103
104 104 104
106 106 106
106 106 106
107 107 107
107 107 107
104 104 104
101 101 101
102 102 102
102 102 102
102 102 102
100 100 100
102 102 102
104 104 104
105 105 105
103 103 103
101 101 101
100 100 100
103 103 103
104 104 104
106 106 106
107 107 107
107 107 107
107 107 107
107 107 107
107 107 107
106 106 106
104 104 104
104 104 104
106 106 106
106 106 106
105 105 105
123 123 123
124 124 124
125 125 125
124 124 124
119 119 119
118 118 118
116 116 116
112 112 112
110 110 110
110 110 110
112 112 112
111 111 111
106 106 106
104 104 104
105 105 105
102 102 102
103 103 103
103 103 103
104 104 104
104 104 104
104 104 104
102 102 102
100 100 100
97 97 97
97 97 97
98 98 98
100 100 100
101 101 101
106 106 106
104 104 104
104 104 104
103 103 103
103 103 103
104 104 104
106 106 106
107 107 107
108 108 108
107 107 107
104 104 104
102 102 102
102 102 102
99 99 99
99 99 99
98 98 98
100 100 100
102 102 102
103 103 103
101 101 101
102 102 102
102 102 102
106 106 106
104 104 104
102 102 102
104 104 104
106 106 106
105 105 105
105 105 105
106 106 106
106 106 106
105 105 105
103 103 103
104 104 104
106 106 106
106 106 106
121 121 121
122 122 122
124 124 124
122 122 122
118 118 118
115 115 115
115 115 115
112 112 112
111 111 111
110 110 110
105 105 105
103 103 103
102 102 102
104 104 104
105 105 105
102 102 102
104 104 104
106 106 106
104 104 104
103 103 103
100 100 100
100 100 100
100 100 100
99 99 99
98 98 98
100 100 100
101 101 101
103 103 103
106 106 106
105 105 105
104 104 104
103 103 103
103 103 103
104 104 104
106 106 106
107 107 107
106 106 106
105 105 105
103 103 103
103 103 103
101 101 101
98 98 98
98 98 98
96 96 96
98 98 98
101 101 101
102 102 102
102 102 102
102 102 102
102 102 102
104 104 104
103 103 103
101 101 101
100 100 100
101 101 101
103 103 103
104 104 104
105 105 105
107 107 107
106 106 106
103 103 103
102 102 102
104 104 104
104 104 104
118 118 118
121 121 121
122 122 122
120 120 120
117 117 117
116 116 116
117 117 117
114 114 114
112 112 112
110 110 110
105 105 105
103 103 103
103 103 103
103 103 103
103 103 103
103 103 103
102 102 102
103 103 103
102 102 102
100 100 100
98 98 98
97 97 97
98 98 98
98 98 98
98 98 98
100 100 100
103 103 103
105 105 105
106 106 106
105 105 105
104 104 104
104 104 104
104 104 104
105 105 105
106 106 106
107 107 107
106 106 106
104 104 104
102 102 102
102 102 102
101 101 101
99 99 99
97 97 97
95 95 95
96 96 96
99 99 99
100 100 100
102 102 102
101 101 101
101 101 101
102 102 102
102 102 102
102 102 102
100 100 100
99 99 99
100 100 100
103 103 103
105 105 105
106 106 106
105 105 105
103 103 103
103 103 103
103 103 103
102 102 102
116 116 116
120 120 120
121 121 121
121 121 121
117 117 117
117 117 117
117 117 117
114 114 114
112 112 112
110 110 110
109 109 109
107 107 107
106 106 106
104 104 104
102 102 102
101 101 101
100 100 100
99 99 99
98 98 98
97 97 97
96 96 96
96 96 96
96 96 96
98 98 98
99 99 99
102 102 102
105 105 105
107 107 107
107 107 107
105 105 105
105 105 105
105 105 105
105 105 105
105 105 105
106 106 106
107 107 107
106 106 106
103 103 103
102 102 102
102 102 102
100 100 100
99 99 99
98 98 98
96 96 96
94 94 94
96 96 96
97 97 97
98 98 98
98 98 98
99 99 99
100 100 100
101 101 101
102 102 102
101 101 101
100 100 100
101 101 101
103 103 103
105 105 105
106 106 106
105 105 105
102 102 102
103 103 103
103 103 103
101 101 101
114 114 114
120 120 120
122 122 122
123 123 123
118 118 118
118 118 118
117 117 117
113 113 113
112 112 112
111 111 111
111 111 111
109 109 109
107 107 107
105 105 105
102 102 102
100 100 100
99 99 99
98 98 98
98 98 98
98 98 98
98 98 98
97 97 97
98 98 98
100 100 100
103 103 103
104 104 104
106 106 106
108 108 108
107 107 107
106 106 106
106 106 106
106 106 106
106 106 106
106 106 106
107 107 107
107 107 107
106 106 106
104 104 104
102 102 102
102 102 102
101 101 101
99 99 99
98 98 98
97 97 97
96 96 96
94 94 94
94 94 94
96 96 96
97 97 97
98 98 98
99 99 99
101 101 101
102 102 102
103 103 103
101 101 101
101 101 101
104 104 104
106 106 106
105 105 105
104 104 104
103 103 103
104 104 104
103 103 103
100 100 100
113 113 113
121 121 121
123 123 123
123 123 123
119 119 119
117 117 117
115 115 115
112 112 112
111 111 111
111 111 111
111 111 111
110 110 110
108 108 108
105 105 105
103 103 103
102 102 102
102 102 102
101 101 101
101 101 101
101 101 101
102 102 102
102 102 102
103 103 103
105 105 105
106 106 106
106 106 106
107 107 107
109 109 109
107 107 107
106 106 106
106 106 106
106 106 106
106 106 106
106 106 106
107 107 107
107 107 107
106 106 106
104 104 104
102 102 102
103 103 103
103 103 103
102 102 102
100 100 100
99 99 99
98 98 98
97 97 97
96 96 96
96 96 96
96 96 96
97 97 97
98 98 98
100 100 100
101 101 101
102 102 102
102 102 102
102 102 102
103 103 103
103 103 103
103 103 103
103 103 103
103 103 103
104 104 104
103 103 103
100 100 100
111 111 111
120 120 120
123 123 123
124 124 124
119 119 119
116 116 116
114 114 114
111 111 111
111 111 111
110 110 110
111 111 111
111 111 111
109 109 109
108 108 108
106 106 106
106 106 106
105 105 105
105 105 105
105 105 105
105 105 105
105 105 105
106 106 106
107 107 107
108 108 108
108 108 108
108 108 108
109 109 109
109 109 109
107 107 107
107 107 107
106 106 106
106 106 106
105 105 105
106 106 106
107 107 107
107 107 107
106 106 106
104 104 104
102 102 102
102 102 102
104 104 104
103 103 103
102 102 102
101 101 101
100 100 100
100 100 100
99 99 99
99 99 99
99 99 99
99 99 99
100 100 100
100 100 100
101 101 101
101 101 101
101 101 101
101 101 101
102 102 102
102 102 102
101 101 101
102 102 102
102 102 102
104 104 104
103 103 103
100 100 100
110 110 110
118 118 118
122 122 122
124 124 124
120 120 120
116 116 116
114 114 114
111 111 111
110 110 110
110 110 110
110 110 110
110 110 110
109 109 109
108 108 108
107 107 107
107 107 107
107 107 107
106 106 106
106 106 106
106 106 106
107 107 107
107 107 107
108 108 108
109 109 109
110 110 110
109 109 109
109 109 109
109 109 109
107 107 107
107 107 107
106 106 106
105 105 105
106 106 106
106 106 106
107 107 107
107 107 107
106 106 106
104 104 104
103 103 103
101 101 101
102 102 102
103 103 103
102 102 102
102 102 102
102 102 102
101 101 101
101 101 101
101 101 101
101 101 101
100 100 100
100 100 100
101 101 101
100 100 100
100 100 100
100 100 100
100 100 100
101 101 101
100 100 100
101 101 101
101 101 101
103 103 103
104 104 104
104 104 104
101 101 101
111 111 111
118 118 118
122 122 122
123 123 123
120 120 120
116 116 116
113 113 113
111 111 111
110 110 110
109 109 109
108 108 108
108 108 108
108 108 108
108 108 108
107 107 107
107 107 107
107 107 107
107 107 107
107 107 107
106 106 106
106 106 106
106 106 106
108 108 108
111 111 111
111 111 111
110 110 110
109 109 109
108 108 108
107 107 107
107 107 107
107 107 107
106 106 106
107 107 107
107 107 107
107 107 107
107 107 107
106 106 106
106 106 106
104 104 104
102 102 102
101 101 101
101 101 101
101 101 101
102 102 102
102 102 102
102 102 102
102 102 102
102 102 102
102 102 102
102 102 102
102 102 102
101 101 101
101 101 101
101 101 101
100 100 100
100 100 100
100 100 100
100 100 100
101 101 101
101 101 101
103 103 103
105 105 105
104 104 104
102 102 102
113 113 113
118 118 118
122 122 122
122 122 122
119 119 119
116 116 116
113 113 113
111 111 111
109 109 109
108 108 108
108 108 108
108 108 108
107 107 107
107 107 107
107 107 107
107 107 107
106 106 106
107 107 107
106 106 106
106 106 106
105 105 105
107 107 107
110 110 110
111 111 111
111 111 111
110 110 110
109 109 109
108 108 108
107 107 107
107 107 107
107 107 107
107 107 107
107 107 107
107 107 107
107 107 107
107 107 107
107 107 107
107 107 107
105 105 105
103 103 103
102 102 102
101 101 101
100 100 100
100 100 100
101 101 101
102 102 102
102 102 102
102 102 102
102 102 102
102 102 102
102 102 102
102 102 102
101 101 101
101 101 101
101 101 101
100 100 100
100 100 100
100 100 100
101 101 101
103 103 103
104 104 104
105 105 105
104 104 104
102 102 102
114 114 114
119 119 119
122 122 122
123 123 123
119 119 119
116 116 116
114 114 114
111 111 111
110 110 110
109 109 109
108 108 108
106 106 106
106 106 106
106 106 106
106 106 106
105 105 105
105 105 105
105 105 105
105 105 105
106 106 106
106 106 106
108 108 108
110 110 110
111 111 111
110 110 110
109 109 109
108 108 108
108 108 108
106 106 106
105 105 105
105 105 105
106 106 106
105 105 105
105 105 105
106 106 106
106 106 106
107 107 107
108 108 108
106 106 106
104 104 104
103 103 103
102 102 102
101 101 101
100 100 100
99 99 99
100 100 100
101 101 101
101 101 101
101 101 101
101 101 101
101 101 101
101 101 101
101 101 101
101 101 101
101 101 101
100 100 100
100 100 100
101 101 101
103 103 103
104 104 104
106 106 106
105 105 105
105 105 105
102 102 102
116 116 116
119 119 119
123 123 123
122 122 122
120 120 120
117 117 117
114 114 114
112 112 112
110 110 110
110 110 110
109 109 109
108 108 108
107 107 107
107 107 107
106 106 106
106 106 106
106 106 106
106 106 106
106 106 106
106 106 106
107 107 107
109 109 109
110 110 110
110 110 110
110 110 110
108 108 108
107 107 107
106 106 106
104 104 104
101 101 101
102 102 102
103 103 103
103 103 103
102 102 102
103 103 103
104 104 104
105 105 105
106 106 106
105 105 105
104 104 104
104 104 104
103 103 103
101 101 101
101 101 101
99 99 99
100 100 100
100 100 100
100 100 100
101 101 101
101 101 101
100 100 100
100 100 100
100 100 100
101 101 101
101 101 101
101 101 101
102 102 102
103 103 103
104 104 104
106 106 106
106 106 106
106 106 106
105 105 105
101 101 101
117 117 117
120 120 120
122 122 122
121 121 121
120 120 120
117 117 117
115 115 115
112 112 112
111 111 111
110 110 110
109 109 109
108 108 108
108 108 108
107 107 107
106 106 106
106 106 106
105 105 105
106 106 106
106 106 106
107 107 107
108 108 108
109 109 109
109 109 109
109 109 109
108 108 108
107 107 107
105 105 105
103 103 103
99 99 99
95 95 95
96 96 96
99 99 99
100 100 100
99 99 99
100 100 100
101 101 101
102 102 102
103 103 103
102 102 102
101 101 101
103 103 103
104 104 104
103 103 103
102 102 102
101 101 101
101 101 101
101 101 101
101 101 101
101 101 101
101 101 101
101 101 101
101 101 101
101 101 101
101 101 101
102 102 102
102 102 102
103 103 103
104 104 104
106 106 106
107 107 107
106 106 106
107 107 107
105 105 105
101 101 101
118 118 118
120 120 120
121 121 121
121 121 121
120 120 120
118 118 118
115 115 115
113 113 113
112 112 112
111 111 111
109 109 109
108 108 108
108 108 108
107 107 107
106 106 106
106 106 106
106 106 106
106 106 106
106 106 106
108 108 108
109 109 109
109 109 109
109 109 109
109 109 109
107 107 107
104 104 104
101 101 101
98 98 98
93 93 93
89 89 89
91 91 91
96 96 96
98 98 98
97 97 97
97 97 97
98 98 98
99 99 99
99 99 99
97 97 97
98 98 98
101 101 101
103 103 103
103 103 103
103 103 103
102 102 102
101 101 101
101 101 101
101 101 101
101 101 101
101 101 101
101 101 101
102 102 102
102 102 102
102 102 102
102 102 102
102 102 102
103 103 103
105 105 105
106 106 106
107 107 107
107 107 107
107 107 107
105 105 105
101 101 101
119 119 119
121 121 121
121 121 121
121 121 121
120 120 120
119 119 119
116 116 116
114 114 114
112 112 112
111 111 111
109 109 109
108 108 108
107 107 107
107 107 107
106 106 106
106 106 106
106 106 106
106 106 106
107 107 107
108 108 108
110 110 110
110 110 110
110 110 110
109 109 109
107 107 107
103 103 103
99 99 99
95 95 95
90 90 90
88 88 88
90 90 90
96 96 96
98 98 98
96 96 96
95 95 95
96 96 96
97 97 97
96 96 96
95 95 95
97 97 97
101 101 101
103 103 103
104 104 104
105 105 105
104 104 104
102 102 102
101 101 101
101 101 101
101 101 101
101 101 101
102 102 102
102 102 102
102 102 102
102 102 102
103 103 103
103 103 103
104 104 104
106 106 106
106 106 106
107 107 107
107 107 107
107 107 107
104 104 104
101 101 101
119 119 119
122 122 122
122 122 122
121 121 121
121 121 121
119 119 119
118 118 118
115 115 115
113 113 113
111 111 111
110 110 110
108 108 108
107 107 107
107 107 107
107 107 107
107 107 107
106 106 106
106 106 106
108 108 108
110 110 110
112 112 112
112 112 112
111 111 111
110 110 110
108 108 108
105 105 105
101 101 101
96 96 96
93 93 93
92 92 92
94 94 94
99 99 99
99 99 99
97 97 97
96 96 96
98 98 98
99 99 99
98 98 98
98 98 98
99 99 99
103 103 103
104 104 104
105 105 105
106 106 106
105 105 105
104 104 104
103 103 103
102 102 102
102 102 102
102 102 102
102 102 102
102 102 102
103 103 103
103 103 103
103 103 103
104 104 104
105 105 105
106 106 106
107 107 107
108 108 108
107 107 107
107 107 107
104 104 104
102 102 102
120 120 120
123 123 123
122 122 122
121 121 121
121 121 121
120 120 120
119 119 119
116 116 116
114 114 114
112 112 112
110 110 110
109 109 109
108 108 108
107 107 107
107 107 107
107 107 107
106 106 106
107 107 107
109 109 109
112 112 112
113 113 113
112 112 112
113 113 113
111 111 111
111 111 111
109 109 109
105 105 105
103 103 103
100 100 100
99 99 99
101 101 101
102 102 102
101 101 101
99 99 99
100 100 100
103 103 103
103 103 103
103 103 103
102 102 102
102 102 102
104 104 104
105 105 105
106 106 106
107 107 107
107 107 107
106 106 106
106 106 106
104 104 104
103 103 103
103 103 103
103 103 103
103 103 103
103 103 103
103 103 103
104 104 104
105 105 105
106 106 106
107 107 107
108 108 108
108 108 108
107 107 107
107 107 107
106 106 106
103 103 103
119 119 119
124 124 124
123 123 123
122 122 122
122 122 122
121 121 121
119 119 119
117 117 117
115 115 115
113 113 113
111 111 111
109 109 109
108 108 108
108 108 108
107 107 107
107 107 107
107 107 107
108 108 108
111 111 111
114 114 114
114 114 114
112 112 112
112 112 112
112 112 112
113 113 113
112 112 112
111 111 111
108 108 108
105 105 105
105 105 105
105 105 105
104 104 104
102 102 102
100 100 100
102 102 102
105 105 105
106 106 106
106 106 106
105 105 105
105 105 105
105 105 105
105 105 105
106 106 106
107 107 107
107 107 107
107 107 107
107 107 107
106 106 106
105 105 105
104 104 104
104 104 104
104 104 104
104 104 104
104 104 104
105 105 105
106 106 106
108 108 108
108 108 108
109 109 109
108 108 108
108 108 108
108 108 108
106 106 106
103 103 103
118 118 118
123 123 123
124 124 124
123 123 123
123 123 123
121 121 121
120 120 120
118 118 118
116 116 116
114 114 114
112 112 112
110 110 110
109 109 109
108 108 108
107 107 107
107 107 107
108 108 108
110 110 110
113 113 113
115 115 115
114 114 114
112 112 112
112 112 112
113 113 113
115 115 115
115 115 115
114 114 114
111 111 111
108 108 108
107 107 107
106 106 106
104 104 104
102 102 102
101 101 101
102 102 102
105 105 105
106 106 106
107 107 107
106 106 106
106 106 106
106 106 106
106 106 106
106 106 106
106 106 106
107 107 107
107 107 107
107 107 107
107 107 107
107 107 107
105 105 105
105 105 105
105 105 105
105 105 105
106 106 106
106 106 106
107 107 107
108 108 108
109 109 109
110 110 110
109 109 109
108 108 108
107 107 107
106 106 106
103 103 103
116 116 116
122 122 122
125 125 125
124 124 124
123 123 123
122 122 122
120 120 120
119 119 119
117 117 117
115 115 115
112 112 112
110 110 110
109 109 109
109 109 109
108 108 108
108 108 108
110 110 110
112 112 112
114 114 114
114 114 114
114 114 114
113 113 113
113 113 113
114 114 114
116 116 116
117 117 117
116 116 116
113 113 113
110 110 110
109 109 109
106 106 106
104 104 104
102 102 102
102 102 102
103 103 103
105 105 105
107 107 107
108 108 108
108 108 108
109 109 109
108 108 108
107 107 107
106 106 106
106 106 106
107 107 107
107 107 107
107 107 107
107 107 107
108 108 108
107 107 107
106 106 106
106 106 106
105 105 105
106 106 106
107 107 107
108 108 108
109 109 109
110 110 110
110 110 110
110 110 110
109 109 109
108 108 108
107 107 107
103 103 103
115 115 115
120 120 120
123 123 123
124 124 124
123 123 123
121 121 121
121 121 121
119 119 119
118 118 118
116 116 116
113 113 113
111 111 111
110 110 110
109 109 109
109 109 109
110 110 110
112 112 112
113 113 113
114 114 114
113 113 113
114 114 114
114 114 114
114 114 114
114 114 114
116 116 116
117 117 117
116 116 116
115 115 115
113 113 113
111 111 111
108 108 108
106 106 106
104 104 104
104 104 104
106 106 106
107 107 107
109 109 109
109 109 109
109 109 109
109 109 109
109 109 109
107 107 107
106 106 106
105 105 105
106 106 106
107 107 107
108 108 108
107 107 107
107 107 107
108 108 108
108 108 108
107 107 107
107 107 107
107 107 107
108 108 108
109 109 109
110 110 110
111 111 111
111 111 111
110 110 110
109 109 109
108 108 108
107 107 107
103 103 103
114 114 114
118 118 118
122 122 122
124 124 124
123 123 123
122 122 122
120 120 120
119 119 119
118 118 118
116 116 116
114 114 114
112 112 112
110 110 110
110 110 110
110 110 110
112 112 112
113 113 113
113 113 113
114 114 114
114 114 114
114 114 114
113 113 113
114 114 114
116 116 116
116 116 116
116 116 116
115 115 115
116 116 116
115 115 115
113 113 113
111 111 111
109 109 109
108 108 108
109 109 109
110 110 110
110 110 110
111 111 111
111 111 111
111 111 111
110 110 110
109 109 109
107 107 107
106 106 106
105 105 105
105 105 105
106 106 106
107 107 107
107 107 107
107 107 107
108 108 108
108 108 108
108 108 108
108 108 108
108 108 108
108 108 108
109 109 109
110 110 110
111 111 111
111 111 111
111 111 111
109 109 109
109 109 109
108 108 108
103 103 103
114 114 114
117 117 117
121 121 121
123 123 123
123 123 123
122 122 122
120 120 120
119 119 119
118 118 118
117 117 117
115 115 115
113 113 113
111 111 111
110 110 110
111 111 111
113 113 113
114 114 114
114 114 114
114 114 114
113 113 113
112 112 112
112 112 112
113 113 113
115 115 115
115 115 115
115 115 115
116 116 116
116 116 116
116 116 116
115 115 115
114 114 114
113 113 113
112 112 112
113 113 113
112 112 112
111 111 111
111 111 111
112 112 112
111 111 111
110 110 110
109 109 109
108 108 108
106 106 106
105 105 105
105 105 105
106 106 106
106 106 106
107 107 107
106 106 106
107 107 107
108 108 108
108 108 108
108 108 108
109 109 109
110 110 110
110 110 110
111 111 111
111 111 111
111 111 111
111 111 111
110 110 110
109 109 109
108 108 108
104 104 104
115 115 115
117 117 117
119 119 119
121 121 121
122 122 122
122 122 122
120 120 120
118 118 118
118 118 118
117 117 117
115 115 115
113 113 113
111 111 111
110 110 110
110 110 110
112 112 112
114 114 114
114 114 114
113 113 113
113 113 113
112 112 112
112 112 112
113 113 113
113 113 113
114 114 114
115 115 115
115 115 115
116 116 116
116 116 116
116 116 116
116 116 116
116 116 116
114 114 114
113 113 113
112 112 112
111 111 111
111 111 111
111 111 111
110 110 110
109 109 109
109 109 109
108 108 108
107 107 107
106 106 106
106 106 106
106 106 106
105 105 105
105 105 105
106 106 106
107 107 107
108 108 108
108 108 108
108 108 108
108 108 108
110 110 110
111 111 111
111 111 111
111 111 111
111 111 111
111 111 111
110 110 110
109 109 109
107 107 107
105 105 105
116 116 116
116 116 116
118 118 118
119 119 119
121 121 121
121 121 121
121 121 121
119 119 119
117 117 117
117 117 117
115 115 115
113 113 113
111 111 111
108 108 108
108 108 108
112 112 112
113 113 113
112 112 112
113 113 113
113 113 113
112 112 112
112 112 112
113 113 113
113 113 113
113 113 113
113 113 113
114 114 114
114 114 114
115 115 115
115 115 115
114 114 114
115 115 115
113 113 113
112 112 112
111 111 111
111 111 111
110 110 110
109 109 109
109 109 109
108 108 108
108 108 108
108 108 108
107 107 107
106 106 106
106 106 106
106 106 106
105 105 105
105 105 105
106 106 106
106 106 106
107 107 107
108 108 108
107 107 107
107 107 107
109 109 109
110 110 110
110 110 110
110 110 110
111 111 111
111 111 111
110 110 110
108 108 108
106 106 106
105 105 105
117 117 117
117 117 117
117 117 117
118 118 118
121 121 121
121 121 121
120 120 120
119 119 119
117 117 117
117 117 117
116 116 116
113 113 113
110 110 110
106 106 106
107 107 107
110 110 110
110 110 110
110 110 110
111 111 111
112 112 112
113 113 113
111 111 111
111 111 111
111 111 111
111 111 111
112 112 112
111 111 111
111 111 111
111 111 111
111 111 111
110 110 110
109 109 109
108 108 108
109 109 109
109 109 109
107 107 107
107 107 107
107 107 107
107 107 107
107 107 107
107 107 107
107 107 107
107 107 107
107 107 107
107 107 107
106 106 106
106 106 106
105 105 105
106 106 106
105 105 105
106 106 106
108 108 108
108 108 108
108 108 108
109 109 109
109 109 109
110 110 110
110 110 110
111 111 111
111 111 111
108 108 108
106 106 106
105 105 105
105 105 105
118 118 118
117 117 117
116 116 116
117 117 117
120 120 120
121 121 121
120 120 120
120 120 120
117 117 117
116 116 116
116 116 116
113 113 113
109 109 109
106 106 106
106 106 106
108 108 108
108 108 108
107 107 107
108 108 108
110 110 110
111 111 111
110 110 110
108 108 108
107 107 107
108 108 108
107 107 107
107 107 107
106 106 106
105 105 105
105 105 105
105 105 105
104 104 104
104 104 104
104 104 104
104 104 104
104 104 104
104 104 104
105 105 105
105 105 105
105 105 105
105 105 105
106 106 106
106 106 106
106 106 106
107 107 107
106 106 106
106 106 106
105 105 105
105 105 105
106 106 106
106 106 106
107 107 107
107 107 107
108 108 108
108 108 108
109 109 109
109 109 109
110 110 110
111 111 111
110 110 110
107 107 107
104 104 104
105 105 105
106 106 106
117 117 117
117 117 117
116 116 116
116 116 116
119 119 119
121 121 121
120 120 120
120 120 120
118 118 118
116 116 116
116 116 116
113 113 113
109 109 109
107 107 107
105 105 105
105 105 105
105 105 105
105 105 105
105 105 105
107 107 107
108 108 108
108 108 108
108 108 108
108 108 108
107 107 107
105 105 105
103 103 103
102 102 102
101 101 101
99 99 99
99 99 99
100 100 100
99 99 99
99 99 99
100 100 100
101 101 101
101 101 101
102 102 102
102 102 102
103 103 103
103 103 103
104 104 104
104 104 104
106 106 106
107 107 107
107 107 107
106 106 106
105 105 105
105 105 105
105 105 105
105 105 105
105 105 105
105 105 105
107 107 107
107 107 107
108 108 108
109 109 109
111 111 111
110 110 110
109 109 109
106 106 106
104 104 104
105 105 105
107 107 107
116 116 116
116 116 116
115 115 115
116 116 116
119 119 119
121 121 121
120 120 120
119 119 119
119 119 119
117 117 117
116 116 116
114 114 114
110 110 110
108 108 108
106 106 106
103 103 103
101 101 101
102 102 102
104 104 104
106 106 106
106 106 106
107 107 107
107 107 107
109 109 109
110 110 110
109 109 109
107 107 107
105 105 105
103 103 103
101 101 101
100 100 100
101 101 101
100 100 100
100 100 100
101 101 101
101 101 101
102 102 102
102 102 102
103 103 103
104 104 104
105 105 105
105 105 105
104 104 104
105 105 105
106 106 106
106 106 106
105 105 105
105 105 105
105 105 105
105 105 105
104 104 104
104 104 104
104 104 104
106 106 106
107 107 107
108 108 108
110 110 110
111 111 111
110 110 110
108 108 108
105 105 105
104 104 104
104 104 104
105 105 105
113 113 113
113 113 113
114 114 114
116 116 116
118 118 118
120 120 120
120 120 120
118 118 118
119 119 119
118 118 118
116 116 116
115 115 115
112 112 112
109 109 109
106 106 106
103 103 103
100 100 100
100 100 100
103 103 103
104 104 104
106 106 106
107 107 107
107 107 107
108 108 108
109 109 109
110 110 110
110 110 110
108 108 108
107 107 107
105 105 105
104 104 104
104 104 104
103 103 103
103 103 103
103 103 103
103 103 103
103 103 103
103 103 103
104 104 104
104 104 104
104 104 104
104 104 104
104 104 104
103 103 103
104 104 104
104 104 104
104 104 104
105 105 105
104 104 104
104 104 104
104 104 104
104 104 104
104 104 104
106 106 106
107 107 107
109 109 109
111 111 111
110 110 110
109 109 109
107 107 107
105 105 105
103 103 103
103 103 103
104 104 104
109 109 109
110 110 110
112 112 112
115 115 115
117 117 117
119 119 119
120 120 120
117 117 117
118 118 118
119 119 119
117 117 117
115 115 115
114 114 114
111 111 111
108 108 108
105 105 105
102 102 102
102 102 102
104 104 104
105 105 105
106 106 106
106 106 106
107 107 107
108 108 108
109 109 109
109 109 109
108 108 108
107 107 107
105 105 105
103 103 103
102 102 102
101 101 101
102 102 102
102 102 102
102 102 102
101 101 101
102 102 102
101 101 101
102 102 102
102 102 102
102 102 102
102 102 102
102 102 102
101 101 101
102 102 102
102 102 102
103 103 103
104 104 104
104 104 104
105 105 105
105 105 105
104 104 104
104 104 104
106 106 106
108 108 108
110 110 110
111 111 111
110 110 110
108 108 108
106 106 106
105 105 105
102 102 102
102 102 102
101 101 101
106 106 106
107 107 107
110 110 110
114 114 114
116 116 116
118 118 118
119 119 119
118 118 118
117 117 117
119 119 119
117 117 117
116 116 116
114 114 114
112 112 112
109 109 109
107 107 107
105 105 105
105 105 105
107 107 107
108 108 108
108 108 108
108 108 108
108 108 108
108 108 108
109 109 109
109 109 109
107 107 107
106 106 106
104 104 104
101 101 101
99 99 99
99 99 99
99 99 99
99 99 99
99 99 99
99 99 99
99 99 99
100 100 100
100 100 100
101 101 101
101 101 101
101 101 101
102 102 102
102 102 102
102 102 102
103 103 103
103 103 103
104 104 104
105 105 105
106 106 106
104 104 104
104 104 104
105 105 105
106 106 106
108 108 108
110 110 110
110 110 110
109 109 109
107 107 107
106 106 106
105 105 105
101 101 101
100 100 100
97 97 97
103 103 103
104 104 104
108 108 108
113 113 113
116 116 116
117 117 117
118 118 118
118 118 118
117 117 117
118 118 118
118 118 118
116 116 116
115 115 115
113 113 113
111 111 111
108 108 108
107 107 107
108 108 108
109 109 109
110 110 110
110 110 110
110 110 110
109 109 109
109 109 109
109 109 109
109 109 109
107 107 107
104 104 104
102 102 102
100 100 100
98 98 98
98 98 98
98 98 98
98 98 98
98 98 98
98 98 98
99 99 99
99 99 99
100 100 100
102 102 102
103 103 103
103 103 103
104 104 104
104 104 104
104 104 104
104 104 104
104 104 104
104 104 104
105 105 105
105 105 105
105 105 105
104 104 104
105 105 105
108 108 108
109 109 109
109 109 109
109 109 109
109 109 109
107 107 107
107 107 107
104 104 104
99 99 99
97 97 97
96 96 96
102 102 102
102 102 102
106 106 106
111 111 111
115 115 115
116 116 116
117 117 117
117 117 117
117 117 117
117 117 117
118 118 118
118 118 118
116 116 116
114 114 114
113 113 113
111 111 111
109 109 109
109 109 109
110 110 110
110 110 110
111 111 111
111 111 111
110 110 110
110 110 110
109 109 109
109 109 109
107 107 107
105 105 105
103 103 103
101 101 101
100 100 100
99 99 99
99 99 99
99 99 99
99 99 99
100 100 100
101 101 101
101 101 101
101 101 101
103 103 103
105 105 105
105 105 105
105 105 105
105 105 105
105 105 105
104 104 104
104 104 104
104 104 104
105 105 105
105 105 105
104 104 104
105 105 105
107 107 107
108 108 108
109 109 109
109 109 109
108 108 108
109 109 109
108 108 108
106 106 106
102 102 102
97 97 97
95 95 95
96 96 96
102 102 102
102 102 102
104 104 104
110 110 110
114 114 114
116 116 116
115 115 115
115 115 115
117 117 117
117 117 117
117 117 117
118 118 118
117 117 117
115 115 115
113 113 113
113 113 113
111 111 111
110 110 110
110 110 110
110 110 110
110 110 110
110 110 110
110 110 110
109 109 109
109 109 109
108 108 108
107 107 107
105 105 105
104 104 104
103 103 103
102 102 102
101 101 101
101 101 101
101 101 101
101 101 101
101 101 101
102 102 102
103 103 103
104 104 104
105 105 105
106 106 106
106 106 106
105 105 105
105 105 105
105 105 105
105 105 105
104 104 104
104 104 104
104 104 104
104 104 104
105 105 105
105 105 105
108 108 108
108 108 108
109 109 109
108 108 108
108 108 108
109 109 109
108 108 108
105 105 105
100 100 100
94 94 94
94 94 94
96 96 96
101 101 101
102 102 102
102 102 102
108 108 108
112 112 112
115 115 115
114 114 114
115 115 115
116 116 116
117 117 117
117 117 117
117 117 117
118 118 118
117 117 117
114 114 114
113 113 113
113 113 113
111 111 111
109 109 109
110 110 110
110 110 110
110 110 110
109 109 109
108 108 108
108 108 108
107 107 107
106 106 106
105 105 105
104 104 104
103 103 103
103 103 103
102 102 102
102 102 102
101 101 101
102 102 102
101 101 101
102 102 102
103 103 103
104 104 104
104 104 104
105 105 105
104 104 104
105 105 105
104 104 104
105 105 105
105 105 105
104 104 104
104 104 104
104 104 104
104 104 104
105 105 105
106 106 106
108 108 108
108 108 108
108 108 108
108 108 108
108 108 108
109 109 109
108 108 108
104 104 104
97 97 97
93 93 93
94 94 94
96 96 96
102 102 102
102 102 102
102 102 102
106 106 106
111 111 111
114 114 114
113 113 113
114 114 114
116 116 116
116 116 116
116 116 116
116 116 116
117 117 117
118 118 118
116 116 116
114 114 114
113 113 113
112 112 112
110 110 110
109 109 109
109 109 109
109 109 109
109 109 109
108 108 108
107 107 107
106 106 106
104 104 104
104 104 104
103 103 103
103 103 103
102 102 102
102 102 102
101 101 101
101 101 101
101 101 101
101 101 101
102 102 102
103 103 103
104 104 104
104 104 104
104 104 104
104 104 104
104 104 104
104 104 104
104 104 104
104 104 104
104 104 104
104 104 104
104 104 104
105 105 105
106 106 106
107 107 107
108 108 108
107 107 107
107 107 107
108 108 108
108 108 108
110 110 110
107 107 107
101 101 101
94 94 94
93 93 93
93 93 93
95 95 95
101 101 101
102 102 102
102 102 102
104 104 104
109 109 109
112 112 112
112 112 112
114 114 114
115 115 115
116 116 116
116 116 116
116 116 116
116 116 116
118 118 118
118 118 118
116 116 116
113 113 113
112 112 112
110 110 110
109 109 109
109 109 109
108 108 108
108 108 108
107 107 107
107 107 107
105 105 105
104 104 104
103 103 103
102 102 102
102 102 102
101 101 101
102 102 102
101 101 101
101 101 101
101 101 101
102 102 102
103 103 103
103 103 103
103 103 103
104 104 104
104 104 104
104 104 104
105 105 105
104 104 104
104 104 104
104 104 104
104 104 104
104 104 104
105 105 105
106 106 106
106 106 106
107 107 107
107 107 107
107 107 107
107 107 107
108 108 108
109 109 109
110 110 110
106 106 106
98 98 98
93 93 93
93 93 93
93 93 93
94 94 94
101 101 101
102 102 102
102 102 102
103 103 103
107 107 107
111 111 111
111 111 111
113 113 113
115 115 115
116 116 116
117 117 117
117 117 117
116 116 116
116 116 116
118 118 118
117 117 117
114 114 114
112 112 112
111 111 111
109 109 109
108 108 108
108 108 108
107 107 107
106 106 106
106 106 106
105 105 105
104 104 104
103 103 103
102 102 102
102 102 102
102 102 102
102 102 102
102 102 102
102 102 102
102 102 102
102 102 102
103 103 103
103 103 103
103 103 103
103 103 103
104 104 104
104 104 104
104 104 104
104 104 104
103 103 103
103 103 103
104 104 104
105 105 105
105 105 105
106 106 106
106 106 106
107 107 107
107 107 107
107 107 107
108 108 108
109 109 109
109 109 109
110 110 110
104 104 104
95 95 95
92 92 92
93 93 93
93 93 93
94 94 94
101 101 101
102 102 102
101 101 101
102 102 102
105 105 105
110 110 110
111 111 111
113 113 113
115 115 115
116 116 116
117 117 117
117 117 117
117 117 117
116 116 116
117 117 117
117 117 117
115 115 115
113 113 113
111 111 111
109 109 109
108 108 108
107 107 107
106 106 106
105 105 105
105 105 105
104 104 104
104 104 104
103 103 103
102 102 102
102 102 102
102 102 102
103 103 103
103 103 103
103 103 103
103 103 103
103 103 103
104 104 104
103 103 103
103 103 103
103 103 103
103 103 103
103 103 103
103 103 103
103 103 103
103 103 103
103 103 103
104 104 104
105 105 105
105 105 105
106 106 106
107 107 107
107 107 107
107 107 107
108 108 108
109 109 109
110 110 110
110 110 110
109 109 109
103 103 103
94 94 94
92 92 92
92 92 92
93 93 93
93 93 93
102 102 102
102 102 102
102 102 102
102 102 102
103 103 103
107 107 107
111 111 111
113 113 113
115 115 115
117 117 117
117 117 117
118 118 118
118 118 118
118 118 118
117 117 117
117 117 117
115 115 115
114 114 114
113 113 113
110 110 110
108 108 108
106 106 106
106 106 106
105 105 105
105 105 105
104 104 104
103 103 103
103 103 103
103 103 103
102 102 102
102 102 102
102 102 102
103 103 103
102 102 102
103 103 103
102 102 102
103 103 103
103 103 103
102 102 102
102 102 102
102 102 102
102 102 102
102 102 102
102 102 102
103 103 103
103 103 103
104 104 104
105 105 105
106 106 106
106 106 106
107 107 107
107 107 107
107 107 107
109 109 109
110 110 110
111 111 111
110 110 110
108 108 108
102 102 102
94 94 94
92 92 92
92 92 92
93 93 93
94 94 94
102 102 102
102 102 102
102 102 102
102 102 102
103 103 103
105 105 105
110 110 110
114 114 114
115 115 115
117 117 117
118 118 118
118 118 118
118 118 118
118 118 118
117 117 117
117 117 117
115 115 115
114 114 114
114 114 114
112 112 112
109 109 109
107 107 107
106 106 106
105 105 105
105 105 105
103 103 103
103 103 103
103 103 103
103 103 103
103 103 103
102 102 102
102 102 102
103 103 103
103 103 103
103 103 103
102 102 102
102 102 102
102 102 102
102 102 102
102 102 102
101 101 101
101 101 101
102 102 102
102 102 102
103 103 103
103 103 103
104 104 104
105 105 105
106 106 106
106 106 106
106 106 106
107 107 107
108 108 108
110 110 110
111 111 111
110 110 110
109 109 109
107 107 107
101 101 101
94 94 94
92 92 92
92 92 92
93 93 93
94 94 94
102 102 102
102 102 102
102 102 102
102 102 102
102 102 102
104 104 104
109 109 109
114 114 114
116 116 116
117 117 117
118 118 118
118 118 118
118 118 118
118 118 118
117 117 117
117 117 117
115 115 115
115 115 115
114 114 114
113 113 113
111 111 111
109 109 109
107 107 107
105 105 105
105 105 105
104 104 104
103 103 103
102 102 102
103 103 103
103 103 103
102 102 102
102 102 102
103 103 103
103 103 103
103 103 103
103 103 103
102 102 102
102 102 102
102 102 102
102 102 102
101 101 101
101 101 101
102 102 102
102 102 102
103 103 103
104 104 104
104 104 104
105 105 105
105 105 105
106 106 106
107 107 107
108 108 108
110 110 110
111 111 111
111 111 111
110 110 110
108 108 108
106 106 106
102 102 102
95 95 95
92 92 92
92 92 92
94 94 94
94 94 94
102 102 102
102 102 102
102 102 102
102 102 102
102 102 102
102 102 102
108 108 108
113 113 113
116 116 116
118 118 118
118 118 118
117 117 117
118 118 118
117 117 117
116 116 116
116 116 116
115 115 115
114 114 114
115 115 115
114 114 114
112 112 112
110 110 110
108 108 108
106 106 106
105 105 105
105 105 105
104 104 104
103 103 103
103 103 103
103 103 103
103 103 103
103 103 103
104 104 104
103 103 103
103 103 103
102 102 102
102 102 102
102 102 102
102 102 102
101 101 101
101 101 101
102 102 102
102 102 102
103 103 103
103 103 103
104 104 104
105 105 105
106 106 106
106 106 106
106 106 106
108 108 108
110 110 110
110 110 110
110 110 110
110 110 110
109 109 109
107 107 107
106 106 106
102 102 102
95 95 95
92 92 92
93 93 93
94 94 94
95 95 95
102 102 102
102 102 102
102 102 102
102 102 102
102 102 102
101 101 101
107 107 107
114 114 114
117 117 117
119 119 119
119 119 119
118 118 118
118 118 118
117 117 117
115 115 115
115 115 115
115 115 115
115 115 115
115 115 115
114 114 114
113 113 113
111 111 111
109 109 109
107 107 107
106 106 106
105 105 105
104 104 104
104 104 104
103 103 103
103 103 103
104 104 104
104 104 104
104 104 104
104 104 104
103 103 103
102 102 102
103 103 103
102 102 102
102 102 102
102 102 102
101 101 101
102 102 102
102 102 102
103 103 103
104 104 104
105 105 105
105 105 105
106 106 106
107 107 107
107 107 107
110 110 110
110 110 110
110 110 110
109 109 109
109 109 109
108 108 108
106 106 106
106 106 106
103 103 103
96 96 96
92 92 92
93 93 93
95 95 95
96 96 96
103 103 103
101 101 101
102 102 102
102 102 102
102 102 102
101 101 101
106 106 106
113 113 113
118 118 118
119 119 119
119 119 119
118 118 118
118 118 118
117 117 117
114 114 114
115 115 115
114 114 114
115 115 115
115 115 115
114 114 114
112 112 112
113 113 113
110 110 110
108 108 108
106 106 106
105 105 105
104 104 104
104 104 104
103 103 103
103 103 103
103 103 103
103 103 103
103 103 103
103 103 103
102 102 102
102 102 102
102 102 102
101 101 101
101 101 101
101 101 101
102 102 102
102 102 102
103 103 103
103 103 103
104 104 104
105 105 105
105 105 105
106 106 106
107 107 107
109 109 109
110 110 110
109 109 109
110 110 110
108 108 108
108 108 108
107 107 107
106 106 106
106 106 106
103 103 103
96 96 96
92 92 92
93 93 93
95 95 95
96 96 96
103 103 103
101 101 101
102 102 102
102 102 102
102 102 102
101 101 101
107 107 107
114 114 114
118 118 118
119 119 119
119 119 119
119 119 119
119 119 119
116 116 116
114 114 114
114 114 114
113 113 113
114 114 114
115 115 115
114 114 114
112 112 112
112 112 112
111 111 111
109 109 109
107 107 107
106 106 106
105 105 105
104 104 104
103 103 103
102 102 102
102 102 102
102 102 102
102 102 102
102 102 102
101 101 101
101 101 101
102 102 102
101 101 101
101 101 101
102 102 102
102 102 102
103 103 103
104 104 104
104 104 104
105 105 105
106 106 106
106 106 106
107 107 107
108 108 108
109 109 109
109 109 109
109 109 109
109 109 109
107 107 107
107 107 107
107 107 107
106 106 106
106 106 106
104 104 104
97 97 97
92 92 92
93 93 93
95 95 95
96 96 96
103 103 103
102 102 102
102 102 102
103 103 103
102 102 102
101 101 101
107 107 107
114 114 114
119 119 119
119 119 119
118 118 118
118 118 118
118 118 118
116 116 116
114 114 114
114 114 114
112 112 112
113 113 113
114 114 114
115 115 115
111 111 111
110 110 110
111 111 111
110 110 110
108 108 108
106 106 106
105 105 105
104 104 104
102 102 102
102 102 102
101 101 101
101 101 101
101 101 101
101 101 101
101 101 101
101 101 101
101 101 101
101 101 101
102 102 102
102 102 102
103 103 103
104 104 104
104 104 104
104 104 104
106 106 106
107 107 107
108 108 108
108 108 108
109 109 109
109 109 109
109 109 109
108 108 108
107 107 107
107 107 107
106 106 106
106 106 106
106 106 106
106 106 106
104 104 104
98 98 98
93 93 93
94 94 94
95 95 95
97 97 97
