P3
64 64
255
91 91 91
110 110 110
131 131 131
140 140 140
162 162 162
187 187 187
204 204 204
198 198 198
189 189 189
183 183 183
179 179 179
174 174 174
170 170 170
164 164 164
157 157 157
152 152 152
147 147 147
141 141 141
138 138 138
134 134 134
133 133 133
131 131 131
129 129 129
129 129 129
128 128 128
130 130 130
131 131 131
133 133 133
134 134 134
140 140 140
146 146 146
147 147 147
150 150 150
153 153 153
159 159 159
163 163 163
166 166 166
174 174 174
181 181 181
185 185 185
188 188 188
195 195 195
200 200 200
205 205 205
211 211 211
216 216 216
221 221 221
226 226 226
229 229 229
232 232 232
233 233 233
233 233 233
234 234 234
238 238 238
237 237 237
232 232 232
229 229 229
229 229 229
228 228 228
219 219 219
217 217 217
211 211 211
176 176 176
130 130 130
95 95 95
118 118 118
134 134 134
147 147 147
165 165 165
191 191 191
202 202 202
195 195 195
188 188 188
183 183 183
178 178 178
174 174 174
169 169 169
162 162 162
156 156 156
153 153 153
149 149 149
143 143 143
140 140 140
135 135 135
135 135 135
133 133 133
133 133 133
131 131 131
132 132 132
132 132 132
133 133 133
134 134 134
134 134 134
139 139 139
143 143 143
144 144 144
149 149 149
151 151 151
156 156 156
158 158 158
162 162 162
169 169 169
175 175 175
180 180 180
185 185 185
190 190 190
195 195 195
200 200 200
204 204 204
209 209 209
215 215 215
222 222 222
225 225 225
229 229 229
230 230 230
231 231 231
233 233 233
236 236 236
242 242 242
239 239 239
237 237 237
235 235 235
232 232 232
224 224 224
220 220 220
214 214 214
185 185 185
142 142 142
95 95 95
121 121 121
140 140 140
151 151 151
171 171 171
195 195 195
201 201 201
195 195 195
189 189 189
183 183 183
176 176 176
170 170 170
166 166 166
160 160 160
157 157 157
154 154 154
151 151 151
145 145 145
141 141 141
138 138 138
136 136 136
137 137 137
136 136 136
133 133 133
134 134 134
133 133 133
134 134 134
137 137 137
138 138 138
138 138 138
142 142 142
144 144 144
149 149 149
151 151 151
155 155 155
156 156 156
161 161 161
168 168 168
173 173 173
178 178 178
183 183 183
188 188 188
192 192 192
196 196 196
201 201 201
204 204 204
210 210 210
216 216 216
221 221 221
223 223 223
225 225 225
227 227 227
230 230 230
236 236 236
238 238 238
240 240 240
238 238 238
238 238 238
235 235 235
227 227 227
220 220 220
216 216 216
192 192 192
150 150 150
95 95 95
124 124 124
146 146 146
161 161 161
178 178 178
197 197 197
200 200 200
194 194 194
188 188 188
181 181 181
174 174 174
168 168 168
165 165 165
161 161 161
158 158 158
155 155 155
152 152 152
148 148 148
143 143 143
138 138 138
139 139 139
140 140 140
139 139 139
134 134 134
136 136 136
136 136 136
135 135 135
138 138 138
144 144 144
143 143 143
143 143 143
146 146 146
152 152 152
152 152 152
155 155 155
158 158 158
160 160 160
168 168 168
174 174 174
177 177 177
182 182 182
185 185 185
188 188 188
192 192 192
197 197 197
199 199 199
204 204 204
209 209 209
216 216 216
217 217 217
221 221 221
222 222 222
224 224 224
229 229 229
233 233 233
237 237 237
235 235 235
237 237 237
236 236 236
229 229 229
222 222 222
217 217 217
195 195 195
157 157 157
95 95 95
123 123 123
145 145 145
163 163 163
183 183 183
196 196 196
196 196 196
191 191 191
186 186 186
179 179 179
172 172 172
168 168 168
165 165 165
161 161 161
158 158 158
154 154 154
152 152 152
148 148 148
143 143 143
140 140 140
140 140 140
139 139 139
138 138 138
135 135 135
138 138 138
137 137 137
138 138 138
141 141 141
148 148 148
149 149 149
148 148 148
151 151 151
158 158 158
159 159 159
156 156 156
157 157 157
162 162 162
168 168 168
173 173 173
177 177 177
176 176 176
177 177 177
182 182 182
185 185 185
188 188 188
191 191 191
195 195 195
202 202 202
206 206 206
209 209 209
211 211 211
214 214 214
216 216 216
217 217 217
223 223 223
229 229 229
231 231 231
232 232 232
233 233 233
230 230 230
223 223 223
218 218 218
198 198 198
160 160 160
96 96 96
123 123 123
147 147 147
167 167 167
186 186 186
193 193 193
191 191 191
189 189 189
185 185 185
179 179 179
172 172 172
167 167 167
160 160 160
155 155 155
152 152 152
149 149 149
148 148 148
145 145 145
141 141 141
140 140 140
138 138 138
137 137 137
134 134 134
131 131 131
136 136 136
137 137 137
137 137 137
141 141 141
150 150 150
154 154 154
152 152 152
157 157 157
164 164 164
165 165 165
157 157 157
156 156 156
160 160 160
165 165 165
168 168 168
170 170 170
170 170 170
169 169 169
172 172 172
174 174 174
177 177 177
181 181 181
183 183 183
188 188 188
193 193 193
194 194 194
196 196 196
201 201 201
202 202 202
203 203 203
208 208 208
216 216 216
223 223 223
225 225 225
228 228 228
226 226 226
223 223 223
220 220 220
201 201 201
166 166 166
102 102 102
123 123 123
151 151 151
171 171 171
185 185 185
190 190 190
188 188 188
189 189 189
185 185 185
177 177 177
168 168 168
156 156 156
146 146 146
139 139 139
135 135 135
135 135 135
133 133 133
132 132 132
131 131 131
128 128 128
125 125 125
125 125 125
125 125 125
124 124 124
131 131 131
131 131 131
131 131 131
137 137 137
147 147 147
150 150 150
155 155 155
160 160 160
169 169 169
167 167 167
157 157 157
152 152 152
155 155 155
158 158 158
162 162 162
163 163 163
161 161 161
159 159 159
156 156 156
155 155 155
158 158 158
162 162 162
167 167 167
168 168 168
172 172 172
174 174 174
178 178 178
183 183 183
183 183 183
181 181 181
185 185 185
196 196 196
207 207 207
215 215 215
218 218 218
218 218 218
221 221 221
220 220 220
202 202 202
170 170 170
108 108 108
129 129 129
158 158 158
175 175 175
187 187 187
193 193 193
191 191 191
185 185 185
174 174 174
159 159 159
150 150 150
138 138 138
127 127 127
121 121 121
118 118 118
117 117 117
118 118 118
116 116 116
112 112 112
109 109 109
108 108 108
107 107 107
111 111 111
116 116 116
123 123 123
123 123 123
126 126 126
135 135 135
137 137 137
140 140 140
150 150 150
161 161 161
168 168 168
165 165 165
156 156 156
150 150 150
145 145 145
148 148 148
155 155 155
146 146 146
141 141 141
138 138 138
130 130 130
124 124 124
126 126 126
130 130 130
128 128 128
134 134 134
135 135 135
137 137 137
144 144 144
157 157 157
155 155 155
153 153 153
158 158 158
168 168 168
181 181 181
195 195 195
204 204 204
206 206 206
213 213 213
216 216 216
198 198 198
166 166 166
115 115 115
139 139 139
161 161 161
182 182 182
195 195 195
197 197 197
187 187 187
169 169 169
149 149 149
135 135 135
127 127 127
116 116 116
105 105 105
100 100 100
104 104 104
98 98 98
104 104 104
98 98 98
93 93 93
95 95 95
95 95 95
92 92 92
97 97 97
105 105 105
114 114 114
114 114 114
120 120 120
124 124 124
124 124 124
130 130 130
146 146 146
160 160 160
166 166 166
163 163 163
153 153 153
146 146 146
134 134 134
132 132 132
145 145 145
127 127 127
115 115 115
116 116 116
106 106 106
95 95 95
95 95 95
97 97 97
96 96 96
127 127 127
125 125 125
122 122 122
124 124 124
135 135 135
145 145 145
128 128 128
121 121 121
136 136 136
154 154 154
170 170 170
184 184 184
189 189 189
198 198 198
208 208 208
192 192 192
163 163 163
118 118 118
143 143 143
159 159 159
185 185 185
201 201 201
196 196 196
176 176 176
149 149 149
123 123 123
113 113 113
112 112 112
111 111 111
110 110 110
110 110 110
110 110 110
109 109 109
110 110 110
99 99 99
97 97 97
102 102 102
103 103 103
101 101 101
101 101 101
110 110 110
124 124 124
122 122 122
121 121 121
126 126 126
119 119 119
126 126 126
144 144 144
156 156 156
160 160 160
157 157 157
143 143 143
135 135 135
120 120 120
115 115 115
136 136 136
127 127 127
109 109 109
118 118 118
114 114 114
87 87 87
84 84 84
81 81 81
82 82 82
148 148 148
160 160 160
155 155 155
148 148 148
152 152 152
164 164 164
157 157 157
140 140 140
129 129 129
137 137 137
153 153 153
165 165 165
177 177 177
184 184 184
198 198 198
192 192 192
159 159 159
117 117 117
140 140 140
159 159 159
189 189 189
205 205 205
188 188 188
158 158 158
130 130 130
118 118 118
121 121 121
126 126 126
132 132 132
128 128 128
127 127 127
125 125 125
123 123 123
121 121 121
108 108 108
111 111 111
112 112 112
119 119 119
115 115 115
113 113 113
129 129 129
146 146 146
148 148 148
157 157 157
142 142 142
130 130 130
137 137 137
144 144 144
154 154 154
156 156 156
151 151 151
143 143 143
131 131 131
113 113 113
111 111 111
120 120 120
125 125 125
122 122 122
117 117 117
105 105 105
87 87 87
84 84 84
84 84 84
90 90 90
127 127 127
173 173 173
193 193 193
201 201 201
206 206 206
208 208 208
205 205 205
199 199 199
187 187 187
172 172 172
142 142 142
151 151 151
163 163 163
178 178 178
190 190 190
190 190 190
159 159 159
116 116 116
135 135 135
161 161 161
194 194 194
202 202 202
174 174 174
148 148 148
136 136 136
134 134 134
143 143 143
148 148 148
151 151 151
145 145 145
140 140 140
139 139 139
137 137 137
137 137 137
124 124 124
128 128 128
125 125 125
136 136 136
128 128 128
129 129 129
153 153 153
183 183 183
176 176 176
177 177 177
201 201 201
186 186 186
165 165 165
162 162 162
170 170 170
173 173 173
164 164 164
153 153 153
138 138 138
126 126 126
126 126 126
123 123 123
117 117 117
110 110 110
101 101 101
89 89 89
85 85 85
87 87 87
91 91 91
103 103 103
128 128 128
193 193 193
209 209 209
211 211 211
206 206 206
204 204 204
201 201 201
201 201 201
196 196 196
198 198 198
184 184 184
136 136 136
156 156 156
176 176 176
188 188 188
185 185 185
162 162 162
111 111 111
133 133 133
174 174 174
202 202 202
195 195 195
166 166 166
158 158 158
159 159 159
163 163 163
172 172 172
169 169 169
167 167 167
162 162 162
158 158 158
153 153 153
153 153 153
147 147 147
132 132 132
131 131 131
129 129 129
138 138 138
130 130 130
133 133 133
152 152 152
188 188 188
204 204 204
206 206 206
199 199 199
211 211 211
183 183 183
166 166 166
173 173 173
175 175 175
171 171 171
169 169 169
157 157 157
140 140 140
131 131 131
118 118 118
111 111 111
101 101 101
91 91 91
88 88 88
95 95 95
103 103 103
117 117 117
131 131 131
168 168 168
226 226 226
221 221 221
219 219 219
214 214 214
197 197 197
175 175 175
166 166 166
151 151 151
156 156 156
167 167 167
143 143 143
153 153 153
173 173 173
186 186 186
183 183 183
167 167 167
102 102 102
131 131 131
170 170 170
191 191 191
182 182 182
169 169 169
182 182 182
186 186 186
190 190 190
186 186 186
165 165 165
160 160 160
172 172 172
178 178 178
176 176 176
173 173 173
163 163 163
149 149 149
150 150 150
146 146 146
154 154 154
146 146 146
141 141 141
142 142 142
155 155 155
173 173 173
186 186 186
191 191 191
203 203 203
186 186 186
166 166 166
165 165 165
166 166 166
162 162 162
171 171 171
158 158 158
139 139 139
134 134 134
116 116 116
101 101 101
97 97 97
96 96 96
103 103 103
113 113 113
129 129 129
139 139 139
142 142 142
161 161 161
216 216 216
231 231 231
231 231 231
230 230 230
216 216 216
178 178 178
164 164 164
137 137 137
129 129 129
149 149 149
156 156 156
156 156 156
165 165 165
181 181 181
181 181 181
169 169 169
106 106 106
162 162 162
192 192 192
181 181 181
168 168 168
176 176 176
199 199 199
204 204 204
198 198 198
178 178 178
153 153 153
177 177 177
196 196 196
185 185 185
168 168 168
158 158 158
143 143 143
148 148 148
149 149 149
143 143 143
151 151 151
142 142 142
129 129 129
115 115 115
113 113 113
117 117 117
132 132 132
183 183 183
197 197 197
191 191 191
170 170 170
162 162 162
161 161 161
161 161 161
149 149 149
137 137 137
135 135 135
134 134 134
112 112 112
104 104 104
110 110 110
123 123 123
134 134 134
138 138 138
142 142 142
140 140 140
137 137 137
135 135 135
157 157 157
193 193 193
208 208 208
210 210 210
183 183 183
170 170 170
167 167 167
149 149 149
134 134 134
147 147 147
163 163 163
159 159 159
166 166 166
179 179 179
175 175 175
169 169 169
105 105 105
146 146 146
161 161 161
156 156 156
159 159 159
177 177 177
204 204 204
208 208 208
195 195 195
172 172 172
175 175 175
198 198 198
183 183 183
160 160 160
155 155 155
152 152 152
142 142 142
144 144 144
154 154 154
149 149 149
159 159 159
145 145 145
123 123 123
113 113 113
107 107 107
103 103 103
113 113 113
154 154 154
183 183 183
175 175 175
155 155 155
147 147 147
144 144 144
141 141 141
135 135 135
127 127 127
127 127 127
131 131 131
119 119 119
130 130 130
134 134 134
148 148 148
155 155 155
145 145 145
151 151 151
143 143 143
132 132 132
128 128 128
125 125 125
142 142 142
165 165 165
174 174 174
167 167 167
156 156 156
164 164 164
155 155 155
146 146 146
149 149 149
165 165 165
167 167 167
191 191 191
202 202 202
170 170 170
167 167 167
100 100 100
122 122 122
140 140 140
163 163 163
168 168 168
176 176 176
199 199 199
205 205 205
196 196 196
185 185 185
184 184 184
172 172 172
152 152 152
157 157 157
158 158 158
145 145 145
137 137 137
137 137 137
150 150 150
154 154 154
156 156 156
147 147 147
132 132 132
117 117 117
111 111 111
108 108 108
122 122 122
143 143 143
178 178 178
167 167 167
154 154 154
149 149 149
146 146 146
140 140 140
138 138 138
137 137 137
131 131 131
130 130 130
133 133 133
156 156 156
151 151 151
145 145 145
152 152 152
148 148 148
155 155 155
155 155 155
136 136 136
117 117 117
123 123 123
135 135 135
152 152 152
145 145 145
148 148 148
158 158 158
164 164 164
166 166 166
166 166 166
157 157 157
160 160 160
161 161 161
165 165 165
178 178 178
188 188 188
168 168 168
96 96 96
113 113 113
131 131 131
156 156 156
162 162 162
160 160 160
183 183 183
196 196 196
196 196 196
194 194 194
177 177 177
161 161 161
158 158 158
165 165 165
162 162 162
150 150 150
146 146 146
151 151 151
155 155 155
145 145 145
133 133 133
136 136 136
139 139 139
136 136 136
124 124 124
126 126 126
130 130 130
145 145 145
181 181 181
167 167 167
152 152 152
146 146 146
145 145 145
140 140 140
140 140 140
140 140 140
125 125 125
129 129 129
141 141 141
157 157 157
156 156 156
145 145 145
139 139 139
135 135 135
144 144 144
154 154 154
147 147 147
142 142 142
143 143 143
150 150 150
152 152 152
134 134 134
124 124 124
143 143 143
162 162 162
176 176 176
181 181 181
177 177 177
168 168 168
158 158 158
146 146 146
147 147 147
146 146 146
148 148 148
83 83 83
96 96 96
110 110 110
139 139 139
159 159 159
162 162 162
198 198 198
218 218 218
215 215 215
204 204 204
185 185 185
171 171 171
167 167 167
159 159 159
146 146 146
139 139 139
132 132 132
135 135 135
133 133 133
122 122 122
119 119 119
124 124 124
131 131 131
126 126 126
128 128 128
137 137 137
120 120 120
149 149 149
180 180 180
168 168 168
153 153 153
145 145 145
142 142 142
141 141 141
139 139 139
138 138 138
121 121 121
122 122 122
137 137 137
148 148 148
153 153 153
147 147 147
135 135 135
129 129 129
127 127 127
142 142 142
149 149 149
149 149 149
152 152 152
157 157 157
151 151 151
134 134 134
131 131 131
141 141 141
156 156 156
173 173 173
180 180 180
179 179 179
168 168 168
157 157 157
149 149 149
159 159 159
151 151 151
129 129 129
85 85 85
95 95 95
91 91 91
126 126 126
154 154 154
179 179 179
216 216 216
220 220 220
215 215 215
207 207 207
196 196 196
185 185 185
174 174 174
155 155 155
130 130 130
116 116 116
108 108 108
109 109 109
112 112 112
113 113 113
115 115 115
117 117 117
121 121 121
121 121 121
136 136 136
138 138 138
117 117 117
156 156 156
176 176 176
167 167 167
155 155 155
145 145 145
141 141 141
143 143 143
142 142 142
139 139 139
123 123 123
116 116 116
135 135 135
151 151 151
147 147 147
150 150 150
140 140 140
125 125 125
120 120 120
125 125 125
129 129 129
130 130 130
131 131 131
138 138 138
138 138 138
136 136 136
141 141 141
151 151 151
161 161 161
171 171 171
185 185 185
188 188 188
174 174 174
153 153 153
144 144 144
154 154 154
144 144 144
122 122 122
116 116 116
123 123 123
109 109 109
133 133 133
154 154 154
176 176 176
197 197 197
202 202 202
200 200 200
196 196 196
193 193 193
190 190 190
180 180 180
154 154 154
126 126 126
109 109 109
104 104 104
107 107 107
113 113 113
118 118 118
124 124 124
130 130 130
140 140 140
151 151 151
154 154 154
127 127 127
123 123 123
165 165 165
175 175 175
167 167 167
156 156 156
148 148 148
143 143 143
145 145 145
147 147 147
141 141 141
127 127 127
118 118 118
134 134 134
157 157 157
158 158 158
154 154 154
150 150 150
139 139 139
131 131 131
122 122 122
120 120 120
121 121 121
119 119 119
125 125 125
131 131 131
138 138 138
143 143 143
150 150 150
158 158 158
169 169 169
179 179 179
185 185 185
176 176 176
152 152 152
147 147 147
161 161 161
147 147 147
117 117 117
146 146 146
148 148 148
131 131 131
153 153 153
159 159 159
171 171 171
188 188 188
193 193 193
192 192 192
188 188 188
188 188 188
189 189 189
184 184 184
165 165 165
147 147 147
136 136 136
135 135 135
138 138 138
142 142 142
145 145 145
152 152 152
158 158 158
171 171 171
177 177 177
154 154 154
121 121 121
138 138 138
172 172 172
175 175 175
165 165 165
154 154 154
147 147 147
149 149 149
149 149 149
148 148 148
144 144 144
131 131 131
122 122 122
120 120 120
151 151 151
164 164 164
162 162 162
157 157 157
152 152 152
153 153 153
144 144 144
134 134 134
130 130 130
125 125 125
126 126 126
131 131 131
136 136 136
141 141 141
145 145 145
151 151 151
164 164 164
170 170 170
173 173 173
164 164 164
146 146 146
148 148 148
156 156 156
146 146 146
124 124 124
129 129 129
134 134 134
134 134 134
166 166 166
169 169 169
173 173 173
183 183 183
185 185 185
185 185 185
181 181 181
177 177 177
178 178 178
173 173 173
167 167 167
162 162 162
159 159 159
153 153 153
154 154 154
158 158 158
161 161 161
168 168 168
171 171 171
178 178 178
172 172 172
153 153 153
134 134 134
154 154 154
174 174 174
170 170 170
158 158 158
149 149 149
149 149 149
152 152 152
151 151 151
150 150 150
144 144 144
132 132 132
124 124 124
115 115 115
126 126 126
155 155 155
162 162 162
162 162 162
156 156 156
154 154 154
157 157 157
156 156 156
155 155 155
150 150 150
148 148 148
148 148 148
143 143 143
142 142 142
140 140 140
145 145 145
154 154 154
159 159 159
162 162 162
152 152 152
140 140 140
147 147 147
155 155 155
152 152 152
135 135 135
113 113 113
118 118 118
135 135 135
175 175 175
181 181 181
174 174 174
175 175 175
174 174 174
173 173 173
171 171 171
170 170 170
166 166 166
160 160 160
150 150 150
146 146 146
144 144 144
143 143 143
147 147 147
157 157 157
162 162 162
161 161 161
157 157 157
157 157 157
164 164 164
168 168 168
152 152 152
159 159 159
169 169 169
160 160 160
151 151 151
147 147 147
151 151 151
155 155 155
151 151 151
149 149 149
147 147 147
135 135 135
124 124 124
125 125 125
116 116 116
130 130 130
149 149 149
155 155 155
152 152 152
153 153 153
151 151 151
153 153 153
150 150 150
151 151 151
149 149 149
148 148 148
144 144 144
138 138 138
137 137 137
139 139 139
142 142 142
147 147 147
149 149 149
141 141 141
137 137 137
150 150 150
160 160 160
156 156 156
141 141 141
113 113 113
117 117 117
146 146 146
181 181 181
185 185 185
175 175 175
168 168 168
165 165 165
164 164 164
165 165 165
161 161 161
155 155 155
146 146 146
140 140 140
136 136 136
134 134 134
139 139 139
143 143 143
147 147 147
147 147 147
139 139 139
131 131 131
155 155 155
178 178 178
173 173 173
155 155 155
160 160 160
166 166 166
155 155 155
148 148 148
150 150 150
155 155 155
157 157 157
152 152 152
149 149 149
148 148 148
137 137 137
126 126 126
127 127 127
132 132 132
119 119 119
124 124 124
141 141 141
142 142 142
144 144 144
147 147 147
148 148 148
147 147 147
144 144 144
143 143 143
144 144 144
141 141 141
135 135 135
133 133 133
133 133 133
137 137 137
141 141 141
138 138 138
131 131 131
138 138 138
157 157 157
162 162 162
156 156 156
142 142 142
120 120 120
125 125 125
157 157 157
184 184 184
183 183 183
178 178 178
171 171 171
164 164 164
157 157 157
149 149 149
147 147 147
145 145 145
141 141 141
137 137 137
133 133 133
132 132 132
133 133 133
132 132 132
126 126 126
121 121 121
119 119 119
140 140 140
170 170 170
176 176 176
167 167 167
156 156 156
165 165 165
170 170 170
158 158 158
148 148 148
151 151 151
160 160 160
160 160 160
155 155 155
151 151 151
149 149 149
141 141 141
131 131 131
129 129 129
136 136 136
129 129 129
123 123 123
117 117 117
123 123 123
130 130 130
137 137 137
140 140 140
145 145 145
146 146 146
143 143 143
142 142 142
139 139 139
131 131 131
129 129 129
131 131 131
134 134 134
133 133 133
132 132 132
134 134 134
148 148 148
162 162 162
161 161 161
154 154 154
141 141 141
124 124 124
132 132 132
162 162 162
183 183 183
184 184 184
180 180 180
173 173 173
164 164 164
158 158 158
154 154 154
146 146 146
138 138 138
129 129 129
124 124 124
121 121 121
117 117 117
117 117 117
118 118 118
120 120 120
123 123 123
128 128 128
145 145 145
163 163 163
166 166 166
162 162 162
157 157 157
163 163 163
172 172 172
156 156 156
142 142 142
145 145 145
155 155 155
157 157 157
152 152 152
150 150 150
149 149 149
146 146 146
136 136 136
130 130 130
132 132 132
133 133 133
135 135 135
132 132 132
112 112 112
105 105 105
115 115 115
122 122 122
128 128 128
131 131 131
130 130 130
131 131 131
126 126 126
119 119 119
118 118 118
120 120 120
121 121 121
127 127 127
139 139 139
150 150 150
160 160 160
168 168 168
158 158 158
150 150 150
142 142 142
128 128 128
135 135 135
164 164 164
185 185 185
187 187 187
182 182 182
175 175 175
166 166 166
161 161 161
158 158 158
154 154 154
148 148 148
139 139 139
135 135 135
128 128 128
123 123 123
121 121 121
120 120 120
122 122 122
123 123 123
130 130 130
141 141 141
149 149 149
154 154 154
156 156 156
149 149 149
151 151 151
160 160 160
142 142 142
123 123 123
124 124 124
134 134 134
138 138 138
139 139 139
139 139 139
136 136 136
135 135 135
133 133 133
129 129 129
126 126 126
125 125 125
134 134 134
139 139 139
128 128 128
115 115 115
109 109 109
110 110 110
112 112 112
113 113 113
113 113 113
110 110 110
106 106 106
104 104 104
108 108 108
113 113 113
122 122 122
136 136 136
151 151 151
164 164 164
167 167 167
169 169 169
156 156 156
148 148 148
141 141 141
131 131 131
142 142 142
169 169 169
189 189 189
192 192 192
185 185 185
176 176 176
167 167 167
160 160 160
155 155 155
148 148 148
138 138 138
131 131 131
125 125 125
121 121 121
115 115 115
113 113 113
116 116 116
120 120 120
124 124 124
133 133 133
139 139 139
136 136 136
149 149 149
147 147 147
128 128 128
124 124 124
133 133 133
116 116 116
93 93 93
95 95 95
107 107 107
113 113 113
115 115 115
116 116 116
109 109 109
108 108 108
113 113 113
120 120 120
123 123 123
120 120 120
128 128 128
137 137 137
132 132 132
124 124 124
117 117 117
115 115 115
111 111 111
111 111 111
112 112 112
110 110 110
109 109 109
109 109 109
111 111 111
116 116 116
126 126 126
141 141 141
156 156 156
168 168 168
173 173 173
168 168 168
154 154 154
145 145 145
139 139 139
132 132 132
148 148 148
177 177 177
194 194 194
191 191 191
184 184 184
176 176 176
167 167 167
160 160 160
152 152 152
140 140 140
128 128 128
122 122 122
117 117 117
115 115 115
114 114 114
114 114 114
119 119 119
122 122 122
126 126 126
135 135 135
135 135 135
131 131 131
144 144 144
131 131 131
96 96 96
77 77 77
91 91 91
91 91 91
66 66 66
62 62 62
80 80 80
91 91 91
90 90 90
81 81 81
69 69 69
66 66 66
80 80 80
97 97 97
119 119 119
129 129 129
134 134 134
135 135 135
131 131 131
125 125 125
114 114 114
110 110 110
107 107 107
107 107 107
108 108 108
108 108 108
107 107 107
109 109 109
109 109 109
118 118 118
127 127 127
142 142 142
160 160 160
168 168 168
173 173 173
167 167 167
151 151 151
144 144 144
133 133 133
129 129 129
154 154 154
176 176 176
191 191 191
186 186 186
180 180 180
174 174 174
167 167 167
162 162 162
150 150 150
137 137 137
128 128 128
121 121 121
119 119 119
121 121 121
122 122 122
120 120 120
121 121 121
125 125 125
129 129 129
135 135 135
135 135 135
128 128 128
134 134 134
120 120 120
74 74 74
42 42 42
53 53 53
79 79 79
62 62 62
45 45 45
61 61 61
75 75 75
72 72 72
56 56 56
39 39 39
38 38 38
51 51 51
78 78 78
114 114 114
139 139 139
150 150 150
149 149 149
139 139 139
130 130 130
116 116 116
106 106 106
106 106 106
103 103 103
103 103 103
104 104 104
105 105 105
106 106 106
111 111 111
119 119 119
129 129 129
144 144 144
160 160 160
168 168 168
170 170 170
164 164 164
149 149 149
141 141 141
125 125 125
120 120 120
155 155 155
174 174 174
189 189 189
183 183 183
179 179 179
173 173 173
168 168 168
162 162 162
150 150 150
140 140 140
134 134 134
127 127 127
127 127 127
129 129 129
127 127 127
125 125 125
123 123 123
127 127 127
134 134 134
143 143 143
141 141 141
132 132 132
127 127 127
122 122 122
85 85 85
49 49 49
66 66 66
92 92 92
83 83 83
56 56 56
56 56 56
69 69 69
70 70 70
64 64 64
51 51 51
44 44 44
55 55 55
81 81 81
119 119 119
146 146 146
157 157 157
163 163 163
159 159 159
147 147 147
134 134 134
120 120 120
115 115 115
108 108 108
105 105 105
104 104 104
106 106 106
108 108 108
115 115 115
123 123 123
134 134 134
150 150 150
161 161 161
167 167 167
168 168 168
162 162 162
146 146 146
133 133 133
123 123 123
106 106 106
151 151 151
173 173 173
189 189 189
184 184 184
178 178 178
175 175 175
169 169 169
162 162 162
153 153 153
145 145 145
139 139 139
134 134 134
132 132 132
132 132 132
129 129 129
126 126 126
127 127 127
132 132 132
146 146 146
158 158 158
156 156 156
145 145 145
137 137 137
129 129 129
113 113 113
100 100 100
110 110 110
113 113 113
96 96 96
66 66 66
56 56 56
68 68 68
78 78 78
87 87 87
83 83 83
72 72 72
76 76 76
96 96 96
126 126 126
148 148 148
158 158 158
171 171 171
174 174 174
166 166 166
157 157 157
143 143 143
132 132 132
125 125 125
120 120 120
118 118 118
117 117 117
120 120 120
125 125 125
133 133 133
141 141 141
154 154 154
160 160 160
165 165 165
165 165 165
160 160 160
143 143 143
123 123 123
127 127 127
98 98 98
141 141 141
171 171 171
188 188 188
186 186 186
179 179 179
176 176 176
171 171 171
163 163 163
154 154 154
149 149 149
144 144 144
139 139 139
136 136 136
133 133 133
129 129 129
126 126 126
130 130 130
143 143 143
163 163 163
176 176 176
173 173 173
163 163 163
155 155 155
149 149 149
144 144 144
141 141 141
141 141 141
121 121 121
94 94 94
66 66 66
59 59 59
71 71 71
88 88 88
102 102 102
109 109 109
106 106 106
108 108 108
119 119 119
134 134 134
150 150 150
159 159 159
173 173 173
180 180 180
178 178 178
169 169 169
157 157 157
148 148 148
141 141 141
134 134 134
132 132 132
132 132 132
133 133 133
136 136 136
142 142 142
148 148 148
157 157 157
162 162 162
164 164 164
162 162 162
158 158 158
138 138 138
123 123 123
132 132 132
87 87 87
128 128 128
163 163 163
184 184 184
187 187 187
181 181 181
176 176 176
171 171 171
165 165 165
158 158 158
154 154 154
148 148 148
143 143 143
138 138 138
135 135 135
130 130 130
130 130 130
142 142 142
162 162 162
181 181 181
187 187 187
183 183 183
174 174 174
171 171 171
169 169 169
170 170 170
167 167 167
152 152 152
118 118 118
87 87 87
71 71 71
67 67 67
80 80 80
97 97 97
109 109 109
124 124 124
132 132 132
134 134 134
137 137 137
145 145 145
151 151 151
161 161 161
173 173 173
183 183 183
184 184 184
175 175 175
167 167 167
156 156 156
149 149 149
144 144 144
142 142 142
143 143 143
144 144 144
146 146 146
148 148 148
154 154 154
158 158 158
162 162 162
163 163 163
159 159 159
152 152 152
134 134 134
131 131 131
136 136 136
84 84 84
115 115 115
153 153 153
183 183 183
189 189 189
184 184 184
179 179 179
174 174 174
169 169 169
163 163 163
158 158 158
151 151 151
145 145 145
141 141 141
137 137 137
135 135 135
143 143 143
158 158 158
179 179 179
190 190 190
191 191 191
183 183 183
178 178 178
178 178 178
179 179 179
180 180 180
175 175 175
149 149 149
116 116 116
93 93 93
85 85 85
86 86 86
97 97 97
110 110 110
119 119 119
133 133 133
146 146 146
147 147 147
150 150 150
153 153 153
154 154 154
158 158 158
169 169 169
179 179 179
181 181 181
178 178 178
174 174 174
164 164 164
156 156 156
150 150 150
146 146 146
149 149 149
148 148 148
150 150 150
152 152 152
157 157 157
161 161 161
161 161 161
161 161 161
155 155 155
146 146 146
137 137 137
141 141 141
143 143 143
84 84 84
102 102 102
142 142 142
180 180 180
190 190 190
187 187 187
182 182 182
178 178 178
173 173 173
170 170 170
163 163 163
157 157 157
149 149 149
143 143 143
140 140 140
147 147 147
158 158 158
173 173 173
188 188 188
192 192 192
189 189 189
183 183 183
175 175 175
174 174 174
179 179 179
180 180 180
171 171 171
144 144 144
121 121 121
111 111 111
107 107 107
108 108 108
116 116 116
125 125 125
133 133 133
143 143 143
154 154 154
159 159 159
160 160 160
157 157 157
154 154 154
156 156 156
165 165 165
173 173 173
177 177 177
176 176 176
175 175 175
170 170 170
162 162 162
155 155 155
151 151 151
152 152 152
152 152 152
153 153 153
156 156 156
158 158 158
161 161 161
162 162 162
158 158 158
152 152 152
141 141 141
138 138 138
144 144 144
141 141 141
86 86 86
95 95 95
135 135 135
174 174 174
192 192 192
188 188 188
184 184 184
182 182 182
176 176 176
175 175 175
171 171 171
163 163 163
152 152 152
146 146 146
151 151 151
162 162 162
172 172 172
179 179 179
190 190 190
189 189 189
184 184 184
177 177 177
167 167 167
164 164 164
167 167 167
174 174 174
166 166 166
149 149 149
134 134 134
129 129 129
128 128 128
125 125 125
131 131 131
142 142 142
147 147 147
154 154 154
161 161 161
163 163 163
164 164 164
159 159 159
157 157 157
158 158 158
162 162 162
169 169 169
171 171 171
170 170 170
171 171 171
172 172 172
167 167 167
160 160 160
155 155 155
156 156 156
154 154 154
155 155 155
155 155 155
158 158 158
158 158 158
158 158 158
155 155 155
149 149 149
140 140 140
141 141 141
150 150 150
144 144 144
89 89 89
92 92 92
125 125 125
161 161 161
188 188 188
189 189 189
185 185 185
182 182 182
178 178 178
178 178 178
176 176 176
168 168 168
157 157 157
153 153 153
163 163 163
174 174 174
177 177 177
178 178 178
183 183 183
181 181 181
173 173 173
164 164 164
156 156 156
153 153 153
152 152 152
161 161 161
164 164 164
155 155 155
148 148 148
148 148 148
149 149 149
145 145 145
150 150 150
156 156 156
157 157 157
163 163 163
165 165 165
165 165 165
164 164 164
162 162 162
158 158 158
158 158 158
159 159 159
162 162 162
169 169 169
167 167 167
166 166 166
166 166 166
167 167 167
164 164 164
161 161 161
160 160 160
158 158 158
156 156 156
156 156 156
156 156 156
156 156 156
155 155 155
151 151 151
145 145 145
138 138 138
146 146 146
151 151 151
143 143 143
91 91 91
95 95 95
110 110 110
142 142 142
182 182 182
189 189 189
184 184 184
181 181 181
178 178 178
179 179 179
177 177 177
171 171 171
160 160 160
155 155 155
163 163 163
169 169 169
169 169 169
168 168 168
169 169 169
165 165 165
155 155 155
148 148 148
143 143 143
143 143 143
142 142 142
147 147 147
156 156 156
153 153 153
156 156 156
161 161 161
164 164 164
163 163 163
166 166 166
170 170 170
167 167 167
167 167 167
166 166 166
164 164 164
163 163 163
159 159 159
156 156 156
156 156 156
154 154 154
156 156 156
158 158 158
161 161 161
161 161 161
160 160 160
164 164 164
164 164 164
164 164 164
164 164 164
162 162 162
156 156 156
154 154 154
153 153 153
152 152 152
150 150 150
147 147 147
144 144 144
132 132 132
137 137 137
139 139 139
126 126 126
93 93 93
92 92 92
98 98 98
124 124 124
172 172 172
185 185 185
182 182 182
178 178 178
176 176 176
176 176 176
176 176 176
172 172 172
160 160 160
154 154 154
157 157 157
158 158 158
151 151 151
150 150 150
150 150 150
144 144 144
137 137 137
130 130 130
130 130 130
130 130 130
129 129 129
132 132 132
139 139 139
142 142 142
149 149 149
161 161 161
165 165 165
165 165 165
167 167 167
170 170 170
169 169 169
162 162 162
160 160 160
158 158 158
159 159 159
156 156 156
154 154 154
153 153 153
150 150 150
152 152 152
149 149 149
148 148 148
151 151 151
153 153 153
160 160 160
161 161 161
163 163 163
162 162 162
162 162 162
157 157 157
153 153 153
147 147 147
148 148 148
145 145 145
143 143 143
139 139 139
117 117 117
113 113 113
112 112 112
104 104 104
97 97 97
90 90 90
90 90 90
109 109 109
157 157 157
179 179 179
179 179 179
175 175 175
171 171 171
173 173 173
174 174 174
170 170 170
163 163 163
151 151 151
149 149 149
143 143 143
129 129 129
119 119 119
119 119 119
118 118 118
119 119 119
113 113 113
111 111 111
111 111 111
114 114 114
113 113 113
115 115 115
118 118 118
129 129 129
143 143 143
149 149 149
151 151 151
148 148 148
149 149 149
150 150 150
146 146 146
142 142 142
142 142 142
144 144 144
145 145 145
146 146 146
144 144 144
145 145 145
145 145 145
142 142 142
136 136 136
136 136 136
142 142 142
148 148 148
156 156 156
162 162 162
164 164 164
159 159 159
157 157 157
150 150 150
144 144 144
144 144 144
143 143 143
139 139 139
125 125 125
97 97 97
94 94 94
95 95 95
93 93 93
99 99 99
91 91 91
86 86 86
98 98 98
139 139 139
169 169 169
177 177 177
173 173 173
169 169 169
170 170 170
170 170 170
167 167 167
159 159 159
145 145 145
143 143 143
131 131 131
110 110 110
93 93 93
92 92 92
93 93 93
97 97 97
99 99 99
97 97 97
96 96 96
98 98 98
96 96 96
92 92 92
95 95 95
106 106 106
115 115 115
124 124 124
128 128 128
126 126 126
124 124 124
125 125 125
125 125 125
123 123 123
123 123 123
126 126 126
126 126 126
129 129 129
130 130 130
131 131 131
133 133 133
128 128 128
126 126 126
126 126 126
133 133 133
141 141 141
150 150 150
157 157 157
164 164 164
158 158 158
155 155 155
147 147 147
141 141 141
141 141 141
142 142 142
134 134 134
109 109 109
86 86 86
86 86 86
87 87 87
87 87 87
97 97 97
91 91 91
86 86 86
90 90 90
122 122 122
158 158 158
173 173 173
169 169 169
164 164 164
164 164 164
164 164 164
163 163 163
152 152 152
140 140 140
135 135 135
119 119 119
99 99 99
86 86 86
92 92 92
95 95 95
97 97 97
101 101 101
101 101 101
96 96 96
94 94 94
87 87 87
84 84 84
81 81 81
88 88 88
93 93 93
100 100 100
106 106 106
106 106 106
109 109 109
114 114 114
112 112 112
114 114 114
116 116 116
118 118 118
121 121 121
122 122 122
123 123 123
124 124 124
125 125 125
127 127 127
126 126 126
127 127 127
130 130 130
140 140 140
145 145 145
150 150 150
156 156 156
154 154 154
150 150 150
146 146 146
140 140 140
140 140 140
139 139 139
126 126 126
98 98 98
81 81 81
80 80 80
82 82 82
86 86 86
92 92 92
88 88 88
85 85 85
86 86 86
108 108 108
146 146 146
168 168 168
167 167 167
158 158 158
158 158 158
160 160 160
157 157 157
148 148 148
140 140 140
129 129 129
115 115 115
100 100 100
96 96 96
104 104 104
111 111 111
111 111 111
113 113 113
119 119 119
116 116 116
107 107 107
101 101 101
93 93 93
90 90 90
89 89 89
91 91 91
94 94 94
103 103 103
106 106 106
111 111 111
115 115 115
116 116 116
118 118 118
120 120 120
122 122 122
123 123 123
129 129 129
130 130 130
131 131 131
130 130 130
132 132 132
130 130 130
130 130 130
131 131 131
136 136 136
144 144 144
148 148 148
147 147 147
148 148 148
146 146 146
145 145 145
141 141 141
138 138 138
135 135 135
117 117 117
87 87 87
78 78 78
78 78 78
74 74 74
79 79 79
85 85 85
80 80 80
79 79 79
82 82 82
97 97 97
130 130 130
156 156 156
163 163 163
154 154 154
155 155 155
155 155 155
154 154 154
148 148 148
138 138 138
126 126 126
118 118 118
110 110 110
113 113 113
123 123 123
130 130 130
130 130 130
134 134 134
140 140 140
141 141 141
134 134 134
127 127 127
119 119 119
115 115 115
110 110 110
107 107 107
104 104 104
108 108 108
113 113 113
121 121 121
126 126 126
124 124 124
124 124 124
125 125 125
126 126 126
128 128 128
136 136 136
141 141 141
139 139 139
137 137 137
136 136 136
136 136 136
135 135 135
133 133 133
137 137 137
144 144 144
146 146 146
145 145 145
143 143 143
144 144 144
142 142 142
141 141 141
137 137 137
128 128 128
103 103 103
82 82 82
76 76 76
74 74 74
69 69 69
77 77 77
80 80 80
74 74 74
78 78 78
79 79 79
89 89 89
112 112 112
144 144 144
158 158 158
152 152 152
151 151 151
154 154 154
154 154 154
148 148 148
136 136 136
129 129 129
126 126 126
125 125 125
128 128 128
141 141 141
151 151 151
153 153 153
153 153 153
151 151 151
150 150 150
147 147 147
138 138 138
131 131 131
125 125 125
122 122 122
114 114 114
110 110 110
112 112 112
114 114 114
123 123 123
127 127 127
129 129 129
128 128 128
131 131 131
136 136 136
136 136 136
139 139 139
142 142 142
142 142 142
144 144 144
141 141 141
139 139 139
139 139 139
137 137 137
140 140 140
143 143 143
145 145 145
141 141 141
142 142 142
142 142 142
141 141 141
138 138 138
133 133 133
119 119 119
91 91 91
77 77 77
78 78 78
70 70 70
71 71 71
77 77 77
76 76 76
69 69 69
75 75 75
79 79 79
85 85 85
97 97 97
127 127 127
152 152 152
151 151 151
147 147 147
150 150 150
151 151 151
148 148 148
139 139 139
135 135 135
136 136 136
141 141 141
148 148 148
163 163 163
171 171 171
174 174 174
173 173 173
167 167 167
158 158 158
152 152 152
142 142 142
132 132 132
126 126 126
119 119 119
111 111 111
106 106 106
107 107 107
111 111 111
115 115 115
121 121 121
127 127 127
133 133 133
138 138 138
147 147 147
146 146 146
147 147 147
151 151 151
152 152 152
153 153 153
148 148 148
146 146 146
144 144 144
143 143 143
144 144 144
143 143 143
143 143 143
139 139 139
141 141 141
140 140 140
139 139 139
136 136 136
129 129 129
111 111 111
82 82 82
75 75 75
75 75 75
65 65 65
71 71 71
75 75 75
72 72 72
67 67 67
69 69 69
79 79 79
85 85 85
88 88 88
107 107 107
143 143 143
150 150 150
146 146 146
145 145 145
146 146 146
146 146 146
143 143 143
143 143 143
145 145 145
153 153 153
167 167 167
182 182 182
188 188 188
188 188 188
181 181 181
178 178 178
165 165 165
154 154 154
150 150 150
135 135 135
124 124 124
117 117 117
110 110 110
104 104 104
106 106 106
107 107 107
109 109 109
118 118 118
127 127 127
133 133 133
143 143 143
154 154 154
155 155 155
159 159 159
166 166 166
166 166 166
170 170 170
168 168 168
163 163 163
157 157 157
150 150 150
147 147 147
144 144 144
142 142 142
137 137 137
140 140 140
137 137 137
137 137 137
132 132 132
126 126 126
109 109 109
76 76 76
76 76 76
70 70 70
65 65 65
70 70 70
72 72 72
72 72 72
66 66 66
66 66 66
77 77 77
84 84 84
83 83 83
91 91 91
130 130 130
148 148 148
149 149 149
142 142 142
141 141 141
145 145 145
146 146 146
145 145 145
148 148 148
158 158 158
169 169 169
182 182 182
193 193 193
195 195 195
186 186 186
176 176 176
166 166 166
153 153 153
141 141 141
133 133 133
124 124 124
114 114 114
106 106 106
102 102 102
106 106 106
108 108 108
106 106 106
112 112 112
124 124 124
133 133 133
143 143 143
151 151 151
156 156 156
166 166 166
173 173 173
176 176 176
185 185 185
179 179 179
170 170 170
160 160 160
152 152 152
148 148 148
144 144 144
140 140 140
136 136 136
135 135 135
135 135 135
132 132 132
129 129 129
128 128 128
108 108 108
73 73 73
76 76 76
67 67 67
64 64 64
70 70 70
74 74 74
71 71 71
67 67 67
63 63 63
73 73 73
83 83 83
83 83 83
84 84 84
113 113 113
138 138 138
146 146 146
143 143 143
141 141 141
143 143 143
148 148 148
147 147 147
151 151 151
154 154 154
159 159 159
162 162 162
173 173 173
179 179 179
174 174 174
167 167 167
155 155 155
142 142 142
125 125 125
121 121 121
118 118 118
108 108 108
103 103 103
103 103 103
102 102 102
103 103 103
102 102 102
107 107 107
112 112 112
125 125 125
134 134 134
144 144 144
151 151 151
166 166 166
174 174 174
175 175 175
178 178 178
171 171 171
164 164 164
156 156 156
150 150 150
147 147 147
143 143 143
138 138 138
134 134 134
135 135 135
133 133 133
128 128 128
130 130 130
129 129 129
110 110 110
72 72 72
72 72 72
64 64 64
64 64 64
73 73 73
73 73 73
70 70 70
67 67 67
63 63 63
73 73 73
80 80 80
80 80 80
84 84 84
105 105 105
124 124 124
141 141 141
145 145 145
142 142 142
141 141 141
147 147 147
150 150 150
150 150 150
147 147 147
151 151 151
147 147 147
152 152 152
157 157 157
158 158 158
153 153 153
147 147 147
130 130 130
112 112 112
109 109 109
104 104 104
94 94 94
92 92 92
97 97 97
88 88 88
91 91 91
93 93 93
96 96 96
102 102 102
116 116 116
126 126 126
137 137 137
147 147 147
163 163 163
169 169 169
168 168 168
167 167 167
161 161 161
154 154 154
148 148 148
149 149 149
149 149 149
142 142 142
137 137 137
134 134 134
136 136 136
132 132 132
127 127 127
132 132 132
129 129 129
113 113 113
74 74 74
69 69 69
62 62 62
65 65 65
74 74 74
74 74 74
69 69 69
68 68 68
63 63 63
71 71 71
78 78 78
76 76 76
84 84 84
100 100 100
115 115 115
135 135 135
144 144 144
145 145 145
146 146 146
147 147 147
150 150 150
146 146 146
144 144 144
144 144 144
140 140 140
139 139 139
141 141 141
144 144 144
141 141 141
138 138 138
122 122 122
111 111 111
110 110 110
107 107 107
100 100 100
96 96 96
97 97 97
89 89 89
88 88 88
95 95 95
101 101 101
111 111 111
122 122 122
132 132 132
137 137 137
145 145 145
161 161 161
161 161 161
158 158 158
155 155 155
150 150 150
146 146 146
144 144 144
146 146 146
145 145 145
141 141 141
136 136 136
136 136 136
134 134 134
132 132 132
130 130 130
134 134 134
130 130 130
118 118 118
74 74 74
67 67 67
60 60 60
68 68 68
73 73 73
74 74 74
68 68 68
66 66 66
65 65 65
70 70 70
75 75 75
74 74 74
81 81 81
93 93 93
113 113 113
135 135 135
151 151 151
149 149 149
147 147 147
148 148 148
149 149 149
142 142 142
136 136 136
137 137 137
133 133 133
134 134 134
130 130 130
131 131 131
132 132 132
128 128 128
120 120 120
110 110 110
106 106 106
108 108 108
109 109 109
106 106 106
104 104 104
102 102 102
100 100 100
107 107 107
116 116 116
124 124 124
133 133 133
137 137 137
141 141 141
147 147 147
154 154 154
155 155 155
153 153 153
150 150 150
144 144 144
143 143 143
140 140 140
141 141 141
141 141 141
137 137 137
137 137 137
134 134 134
134 134 134
130 130 130
132 132 132
137 137 137
133 133 133
117 117 117
77 77 77
67 67 67
62 62 62
72 72 72
75 75 75
73 73 73
71 71 71
68 68 68
63 63 63
69 69 69
72 72 72
71 71 71
73 73 73
82 82 82
111 111 111
139 139 139
156 156 156
154 154 154
145 145 145
146 146 146
148 148 148
144 144 144
133 133 133
133 133 133
130 130 130
135 135 135
130 130 130
127 127 127
126 126 126
123 123 123
120 120 120
114 114 114
111 111 111
110 110 110
114 114 114
116 116 116
115 115 115
116 116 116
116 116 116
122 122 122
132 132 132
136 136 136
138 138 138
138 138 138
140 140 140
146 146 146
153 153 153
153 153 153
152 152 152
148 148 148
145 145 145
142 142 142
139 139 139
136 136 136
135 135 135
136 136 136
136 136 136
132 132 132
133 133 133
133 133 133
136 136 136
142 142 142
137 137 137
120 120 120
79 79 79
66 66 66
62 62 62
75 75 75
75 75 75
75 75 75
72 72 72
70 70 70
63 63 63
66 66 66
70 70 70
63 63 63
62 62 62
78 78 78
112 112 112
143 143 143
158 158 158
157 157 157
147 147 147
144 144 144
148 148 148
145 145 145
133 133 133
128 128 128
128 128 128
130 130 130
131 131 131
128 128 128
129 129 129
127 127 127
119 119 119
112 112 112
115 115 115
117 117 117
119 119 119
122 122 122
123 123 123
125 125 125
125 125 125
133 133 133
136 136 136
139 139 139
141 141 141
137 137 137
142 142 142
147 147 147
151 151 151
150 150 150
149 149 149
147 147 147
142 142 142
139 139 139
137 137 137
136 136 136
135 135 135
137 137 137
137 137 137
132 132 132
133 133 133
139 139 139
142 142 142
145 145 145
137 137 137
123 123 123
81 81 81
64 64 64
64 64 64
76 76 76
74 74 74
75 75 75
71 71 71
71 71 71
63 63 63
62 62 62
62 62 62
53 53 53
62 62 62
81 81 81
117 117 117
146 146 146
160 160 160
159 159 159
154 154 154
149 149 149
144 144 144
139 139 139
130 130 130
127 127 127
122 122 122
124 124 124
127 127 127
128 128 128
130 130 130
128 128 128
119 119 119
110 110 110
113 113 113
114 114 114
115 115 115
117 117 117
118 118 118
121 121 121
121 121 121
124 124 124
130 130 130
134 134 134
140 140 140
139 139 139
140 140 140
143 143 143
147 147 147
147 147 147
147 147 147
145 145 145
139 139 139
137 137 137
133 133 133
131 131 131
135 135 135
136 136 136
137 137 137
134 134 134
136 136 136
142 142 142
147 147 147
147 147 147
137 137 137
125 125 125
85 85 85
65 65 65
65 65 65
76 76 76
76 76 76
75 75 75
71 71 71
63 63 63
56 56 56
51 51 51
52 52 52
51 51 51
61 61 61
85 85 85
117 117 117
148 148 148
163 163 163
161 161 161
155 155 155
149 149 149
143 143 143
137 137 137
128 128 128
125 125 125
120 120 120
119 119 119
121 121 121
128 128 128
130 130 130
130 130 130
123 123 123
119 119 119
118 118 118
113 113 113
113 113 113
113 113 113
115 115 115
118 118 118
118 118 118
119 119 119
126 126 126
132 132 132
139 139 139
138 138 138
135 135 135
139 139 139
144 144 144
144 144 144
142 142 142
140 140 140
136 136 136
130 130 130
128 128 128
128 128 128
131 131 131
135 135 135
136 136 136
137 137 137
139 139 139
143 143 143
150 150 150
151 151 151
139 139 139
129 129 129
90 90 90
65 65 65
66 66 66
77 77 77
79 79 79
76 76 76
59 59 59
48 48 48
41 41 41
43 43 43
48 48 48
50 50 50
61 61 61
87 87 87
117 117 117
152 152 152
164 164 164
162 162 162
157 157 157
151 151 151
142 142 142
137 137 137
127 127 127
122 122 122
120 120 120
118 118 118
119 119 119
125 125 125
129 129 129
130 130 130
125 125 125
127 127 127
126 126 126
121 121 121
119 119 119
120 120 120
121 121 121
123 123 123
124 124 124
125 125 125
129 129 129
133 133 133
135 135 135
134 134 134
133 133 133
135 135 135
140 140 140
137 137 137
135 135 135
134 134 134
131 131 131
127 127 127
123 123 123
129 129 129
132 132 132
137 137 137
139 139 139
142 142 142
144 144 144
150 150 150
153 153 153
151 151 151
141 141 141
132 132 132
96 96 96
69 69 69
67 67 67
77 77 77
80 80 80
77 77 77
45 45 45
38 38 38
36 36 36
41 41 41
49 49 49
48 48 48
62 62 62
89 89 89
120 120 120
157 157 157
168 168 168
165 165 165
160 160 160
153 153 153
143 143 143
134 134 134
127 127 127
124 124 124
120 120 120
117 117 117
118 118 118
119 119 119
122 122 122
126 126 126
124 124 124
123 123 123
123 123 123
121 121 121
118 118 118
119 119 119
123 123 123
124 124 124
123 123 123
125 125 125
127 127 127
128 128 128
127 127 127
128 128 128
128 128 128
131 131 131
134 134 134
131 131 131
127 127 127
127 127 127
125 125 125
125 125 125
121 121 121
126 126 126
134 134 134
137 137 137
139 139 139
140 140 140
150 150 150
153 153 153
157 157 157
155 155 155
142 142 142
136 136 136
100 100 100
72 72 72
67 67 67
74 74 74
78 78 78
78 78 78
39 39 39
35 35 35
36 36 36
41 41 41
49 49 49
48 48 48
61 61 61
92 92 92
126 126 126
162 162 162
174 174 174
166 166 166
159 159 159
155 155 155
142 142 142
131 131 131
127 127 127
124 124 124
120 120 120
115 115 115
114 114 114
113 113 113
113 113 113
114 114 114
111 111 111
109 109 109
107 107 107
108 108 108
106 106 106
111 111 111
114 114 114
113 113 113
117 117 117
116 116 116
118 118 118
119 119 119
120 120 120
122 122 122
122 122 122
125 125 125
124 124 124
122 122 122
121 121 121
120 120 120
118 118 118
120 120 120
123 123 123
126 126 126
134 134 134
138 138 138
139 139 139
140 140 140
150 150 150
157 157 157
159 159 159
159 159 159
145 145 145
143 143 143
107 107 107
76 76 76
67 67 67
68 68 68
75 75 75
79 79 79
36 36 36
33 33 33
34 34 34
42 42 42
46 46 46
47 47 47
60 60 60
92 92 92
133 133 133
172 172 172
178 178 178
170 170 170
161 161 161
148 148 148
138 138 138
130 130 130
127 127 127
123 123 123
115 115 115
113 113 113
110 110 110
110 110 110
107 107 107
102 102 102
97 97 97
93 93 93
91 91 91
92 92 92
95 95 95
98 98 98
103 103 103
106 106 106
106 106 106
107 107 107
109 109 109
111 111 111
115 115 115
117 117 117
113 113 113
113 113 113
114 114 114
114 114 114
114 114 114
115 115 115
116 116 116
115 115 115
123 123 123
129 129 129
135 135 135
136 136 136
141 141 141
142 142 142
151 151 151
158 158 158
159 159 159
160 160 160
151 151 151
146 146 146
116 116 116
82 82 82
70 70 70
70 70 70
72 72 72
76 76 76
34 34 34
32 32 32
34 34 34
38 38 38
42 42 42
43 43 43
63 63 63
94 94 94
145 145 145
184 184 184
184 184 184
170 170 170
160 160 160
147 147 147
133 133 133
126 126 126
128 128 128
121 121 121
115 115 115
112 112 112
107 107 107
106 106 106
103 103 103
97 97 97
88 88 88
84 84 84
84 84 84
83 83 83
84 84 84
89 89 89
92 92 92
95 95 95
95 95 95
97 97 97
97 97 97
99 99 99
102 102 102
104 104 104
102 102 102
104 104 104
106 106 106
107 107 107
107 107 107
109 109 109
110 110 110
113 113 113
120 120 120
131 131 131
135 135 135
135 135 135
142 142 142
147 147 147
154 154 154
156 156 156
160 160 160
163 163 163
155 155 155
152 152 152
121 121 121
86 86 86
75 75 75
75 75 75
72 72 72
75 75 75
32 32 32
29 29 29
31 31 31
36 36 36
36 36 36
39 39 39
58 58 58
100 100 100
155 155 155
187 187 187
181 181 181
169 169 169
155 155 155
143 143 143
129 129 129
120 120 120
119 119 119
119 119 119
115 115 115
107 107 107
105 105 105
99 99 99
98 98 98
92 92 92
86 86 86
81 81 81
81 81 81
81 81 81
77 77 77
81 81 81
85 85 85
86 86 86
87 87 87
88 88 88
85 85 85
88 88 88
90 90 90
92 92 92
95 95 95
97 97 97
99 99 99
101 101 101
101 101 101
101 101 101
107 107 107
115 115 115
123 123 123
131 131 131
132 132 132
135 135 135
144 144 144
151 151 151
156 156 156
158 158 158
162 162 162
165 165 165
158 158 158
155 155 155
126 126 126
90 90 90
75 75 75
77 77 77
76 76 76
74 74 74
