P3
64 64
255
144 144 144
171 171 171
196 196 196
201 201 201
210 210 210
221 221 221
224 224 224
209 209 209
194 194 194
187 187 187
183 183 183
178 178 178
174 174 174
170 170 170
166 166 166
162 162 162
158 158 158
154 154 154
151 151 151
147 147 147
146 146 146
144 144 144
142 142 142
140 140 140
139 139 139
140 140 140
140 140 140
140 140 140
139 139 139
142 142 142
145 145 145
147 147 147
149 149 149
150 150 150
154 154 154
155 155 155
155 155 155
159 159 159
163 163 163
165 165 165
165 165 165
169 169 169
171 171 171
173 173 173
177 177 177
179 179 179
182 182 182
184 184 184
185 185 185
188 188 188
187 187 187
186 186 186
187 187 187
190 190 190
191 191 191
189 189 189
186 186 186
185 185 185
185 185 185
182 182 182
183 183 183
176 176 176
140 140 140
111 111 111
151 151 151
182 182 182
203 203 203
208 208 208
213 213 213
226 226 226
225 225 225
208 208 208
193 193 193
186 186 186
182 182 182
177 177 177
174 174 174
170 170 170
166 166 166
164 164 164
161 161 161
157 157 157
153 153 153
149 149 149
148 148 148
146 146 146
145 145 145
143 143 143
143 143 143
143 143 143
141 141 141
140 140 140
140 140 140
141 141 141
143 143 143
145 145 145
149 149 149
150 150 150
152 152 152
154 154 154
155 155 155
158 158 158
162 162 162
165 165 165
166 166 166
169 169 169
171 171 171
173 173 173
174 174 174
177 177 177
180 180 180
183 183 183
185 185 185
186 186 186
186 186 186
186 186 186
188 188 188
191 191 191
196 196 196
195 195 195
193 193 193
190 190 190
190 190 190
186 186 186
185 185 185
180 180 180
149 149 149
118 118 118
156 156 156
189 189 189
210 210 210
212 212 212
218 218 218
229 229 229
225 225 225
208 208 208
193 193 193
186 186 186
181 181 181
177 177 177
173 173 173
169 169 169
168 168 168
166 166 166
163 163 163
159 159 159
155 155 155
152 152 152
150 150 150
150 150 150
148 148 148
145 145 145
146 146 146
145 145 145
143 143 143
143 143 143
144 144 144
143 143 143
145 145 145
147 147 147
150 150 150
151 151 151
153 153 153
155 155 155
157 157 157
160 160 160
163 163 163
167 167 167
169 169 169
171 171 171
172 172 172
173 173 173
174 174 174
175 175 175
179 179 179
181 181 181
184 184 184
184 184 184
184 184 184
184 184 184
187 187 187
191 191 191
194 194 194
196 196 196
195 195 195
193 193 193
193 193 193
189 189 189
186 186 186
183 183 183
157 157 157
125 125 125
162 162 162
196 196 196
216 216 216
220 220 220
224 224 224
232 232 232
224 224 224
206 206 206
192 192 192
186 186 186
180 180 180
176 176 176
173 173 173
171 171 171
168 168 168
167 167 167
165 165 165
162 162 162
157 157 157
154 154 154
153 153 153
152 152 152
151 151 151
147 147 147
147 147 147
146 146 146
144 144 144
145 145 145
148 148 148
148 148 148
146 146 146
150 150 150
154 154 154
155 155 155
156 156 156
157 157 157
158 158 158
162 162 162
167 167 167
169 169 169
172 172 172
172 172 172
173 173 173
174 174 174
175 175 175
176 176 176
178 178 178
181 181 181
185 185 185
185 185 185
185 185 185
185 185 185
184 184 184
187 187 187
191 191 191
195 195 195
194 194 194
194 194 194
195 195 195
191 191 191
187 187 187
183 183 183
162 162 162
131 131 131
166 166 166
198 198 198
217 217 217
224 224 224
228 228 228
231 231 231
221 221 221
203 203 203
191 191 191
185 185 185
180 180 180
175 175 175
173 173 173
171 171 171
170 170 170
168 168 168
165 165 165
163 163 163
159 159 159
155 155 155
155 155 155
152 152 152
150 150 150
146 146 146
147 147 147
146 146 146
145 145 145
147 147 147
151 151 151
151 151 151
151 151 151
154 154 154
159 159 159
161 161 161
158 158 158
157 157 157
160 160 160
164 164 164
168 168 168
172 172 172
170 170 170
171 171 171
173 173 173
174 174 174
175 175 175
177 177 177
178 178 178
181 181 181
183 183 183
184 184 184
183 183 183
184 184 184
183 183 183
181 181 181
185 185 185
190 190 190
192 192 192
193 193 193
194 194 194
192 192 192
187 187 187
185 185 185
166 166 166
134 134 134
172 172 172
201 201 201
220 220 220
227 227 227
229 229 229
229 229 229
216 216 216
200 200 200
192 192 192
187 187 187
180 180 180
174 174 174
169 169 169
167 167 167
166 166 166
164 164 164
163 163 163
161 161 161
157 157 157
154 154 154
150 150 150
148 148 148
144 144 144
140 140 140
143 143 143
144 144 144
143 143 143
147 147 147
152 152 152
154 154 154
154 154 154
158 158 158
165 165 165
166 166 166
160 160 160
157 157 157
158 158 158
163 163 163
166 166 166
168 168 168
168 168 168
168 168 168
170 170 170
170 170 170
170 170 170
172 172 172
174 174 174
176 176 176
176 176 176
176 176 176
176 176 176
179 179 179
178 178 178
175 175 175
177 177 177
185 185 185
189 189 189
190 190 190
191 191 191
189 189 189
189 189 189
187 187 187
169 169 169
139 139 139
179 179 179
202 202 202
224 224 224
229 229 229
228 228 228
226 226 226
213 213 213
201 201 201
194 194 194
187 187 187
178 178 178
166 166 166
157 157 157
152 152 152
150 150 150
149 149 149
149 149 149
146 146 146
142 142 142
138 138 138
134 134 134
133 133 133
131 131 131
130 130 130
134 134 134
134 134 134
134 134 134
139 139 139
146 146 146
149 149 149
155 155 155
160 160 160
169 169 169
167 167 167
159 159 159
154 154 154
155 155 155
159 159 159
161 161 161
160 160 160
160 160 160
159 159 159
158 158 158
156 156 156
155 155 155
157 157 157
160 160 160
160 160 160
162 162 162
162 162 162
165 165 165
166 166 166
169 169 169
168 168 168
163 163 163
170 170 170
182 182 182
189 189 189
188 188 188
187 187 187
190 190 190
189 189 189
172 172 172
141 141 141
182 182 182
205 205 205
227 227 227
231 231 231
228 228 228
226 226 226
214 214 214
197 197 197
186 186 186
174 174 174
163 163 163
150 150 150
137 137 137
132 132 132
131 131 131
131 131 131
130 130 130
127 127 127
122 122 122
118 118 118
116 116 116
113 113 113
116 116 116
118 118 118
123 123 123
123 123 123
123 123 123
131 131 131
133 133 133
137 137 137
148 148 148
160 160 160
167 167 167
165 165 165
157 157 157
152 152 152
148 148 148
150 150 150
153 153 153
145 145 145
141 141 141
137 137 137
131 131 131
128 128 128
129 129 129
128 128 128
126 126 126
131 131 131
130 130 130
131 131 131
137 137 137
143 143 143
146 146 146
150 150 150
151 151 151
150 150 150
160 160 160
178 178 178
187 187 187
185 185 185
188 188 188
189 189 189
170 170 170
139 139 139
186 186 186
212 212 212
228 228 228
235 235 235
231 231 231
226 226 226
207 207 207
184 184 184
164 164 164
153 153 153
144 144 144
130 130 130
117 117 117
114 114 114
116 116 116
111 111 111
112 112 112
107 107 107
104 104 104
106 106 106
103 103 103
99 99 99
102 102 102
107 107 107
113 113 113
113 113 113
114 114 114
117 117 117
118 118 118
127 127 127
143 143 143
158 158 158
164 164 164
162 162 162
153 153 153
148 148 148
139 139 139
135 135 135
141 141 141
127 127 127
118 118 118
117 117 117
109 109 109
104 104 104
104 104 104
104 104 104
102 102 102
123 123 123
121 121 121
119 119 119
120 120 120
124 124 124
131 131 131
123 123 123
122 122 122
131 131 131
141 141 141
156 156 156
174 174 174
179 179 179
182 182 182
188 188 188
169 169 169
140 140 140
188 188 188
217 217 217
226 226 226
237 237 237
234 234 234
221 221 221
195 195 195
166 166 166
144 144 144
136 136 136
133 133 133
127 127 127
123 123 123
122 122 122
120 120 120
116 116 116
115 115 115
105 105 105
105 105 105
108 108 108
107 107 107
105 105 105
104 104 104
111 111 111
120 120 120
119 119 119
116 116 116
117 117 117
114 114 114
123 123 123
141 141 141
155 155 155
159 159 159
155 155 155
146 146 146
141 141 141
131 131 131
125 125 125
133 133 133
127 127 127
115 115 115
119 119 119
116 116 116
101 101 101
97 97 97
93 93 93
94 94 94
135 135 135
145 145 145
142 142 142
139 139 139
142 142 142
148 148 148
144 144 144
134 134 134
131 131 131
134 134 134
141 141 141
151 151 151
168 168 168
175 175 175
186 186 186
175 175 175
141 141 141
186 186 186
213 213 213
224 224 224
240 240 240
236 236 236
210 210 210
175 175 175
149 149 149
142 142 142
143 143 143
146 146 146
145 145 145
140 140 140
137 137 137
133 133 133
127 127 127
124 124 124
113 113 113
116 116 116
117 117 117
121 121 121
118 118 118
116 116 116
128 128 128
140 140 140
140 140 140
143 143 143
131 131 131
125 125 125
136 136 136
146 146 146
154 154 154
158 158 158
151 151 151
145 145 145
141 141 141
131 131 131
126 126 126
129 129 129
130 130 130
130 130 130
127 127 127
118 118 118
106 106 106
99 99 99
97 97 97
99 99 99
123 123 123
154 154 154
167 167 167
174 174 174
179 179 179
180 180 180
180 180 180
177 177 177
168 168 168
158 158 158
137 137 137
137 137 137
152 152 152
172 172 172
181 181 181
178 178 178
145 145 145
186 186 186
209 209 209
225 225 225
244 244 244
231 231 231
194 194 194
166 166 166
156 156 156
158 158 158
166 166 166
167 167 167
165 165 165
155 155 155
146 146 146
141 141 141
137 137 137
134 134 134
123 123 123
125 125 125
125 125 125
131 131 131
126 126 126
127 127 127
144 144 144
165 165 165
164 164 164
163 163 163
175 175 175
169 169 169
161 161 161
161 161 161
165 165 165
168 168 168
161 161 161
155 155 155
148 148 148
144 144 144
142 142 142
140 140 140
134 134 134
129 129 129
121 121 121
107 107 107
101 101 101
99 99 99
102 102 102
109 109 109
128 128 128
171 171 171
181 181 181
183 183 183
181 181 181
181 181 181
181 181 181
185 185 185
181 181 181
178 178 178
161 161 161
127 127 127
145 145 145
167 167 167
180 180 180
177 177 177
150 150 150
186 186 186
207 207 207
233 233 233
246 246 246
221 221 221
186 186 186
177 177 177
177 177 177
185 185 185
191 191 191
182 182 182
174 174 174
162 162 162
154 154 154
149 149 149
148 148 148
143 143 143
132 132 132
133 133 133
131 131 131
136 136 136
128 128 128
129 129 129
143 143 143
166 166 166
179 179 179
182 182 182
178 178 178
190 190 190
174 174 174
162 162 162
166 166 166
167 167 167
165 165 165
167 167 167
163 163 163
155 155 155
150 150 150
141 141 141
131 131 131
119 119 119
108 108 108
100 100 100
104 104 104
109 109 109
118 118 118
126 126 126
152 152 152
190 190 190
188 188 188
189 189 189
187 187 187
179 179 179
170 170 170
169 169 169
158 158 158
158 158 158
156 156 156
132 132 132
142 142 142
163 163 163
176 176 176
175 175 175
156 156 156
183 183 183
205 205 205
228 228 228
237 237 237
213 213 213
193 193 193
198 198 198
199 199 199
200 200 200
194 194 194
176 176 176
169 169 169
178 178 178
183 183 183
179 179 179
170 170 170
158 158 158
144 144 144
143 143 143
142 142 142
147 147 147
141 141 141
138 138 138
138 138 138
144 144 144
153 153 153
165 165 165
172 172 172
185 185 185
176 176 176
160 160 160
160 160 160
160 160 160
159 159 159
169 169 169
163 163 163
155 155 155
153 153 153
138 138 138
120 120 120
110 110 110
109 109 109
111 111 111
118 118 118
130 130 130
135 135 135
132 132 132
141 141 141
176 176 176
191 191 191
195 195 195
198 198 198
189 189 189
170 170 170
168 168 168
153 153 153
143 143 143
151 151 151
146 146 146
145 145 145
156 156 156
171 171 171
170 170 170
160 160 160
188 188 188
223 223 223
239 239 239
227 227 227
205 205 205
202 202 202
212 212 212
208 208 208
200 200 200
184 184 184
173 173 173
200 200 200
210 210 210
194 194 194
172 172 172
154 154 154
136 136 136
139 139 139
136 136 136
132 132 132
142 142 142
141 141 141
133 133 133
125 125 125
121 121 121
117 117 117
125 125 125
165 165 165
180 180 180
176 176 176
161 161 161
156 156 156
156 156 156
158 158 158
155 155 155
150 150 150
151 151 151
153 153 153
131 131 131
118 118 118
120 120 120
129 129 129
137 137 137
139 139 139
143 143 143
139 139 139
132 132 132
127 127 127
139 139 139
165 165 165
182 182 182
185 185 185
172 172 172
166 166 166
168 168 168
160 160 160
150 150 150
153 153 153
156 156 156
149 149 149
155 155 155
167 167 167
168 168 168
160 160 160
185 185 185
210 210 210
218 218 218
209 209 209
198 198 198
206 206 206
213 213 213
206 206 206
193 193 193
176 176 176
192 192 192
217 217 217
195 195 195
165 165 165
157 157 157
150 150 150
143 143 143
142 142 142
148 148 148
142 142 142
152 152 152
144 144 144
126 126 126
119 119 119
117 117 117
111 111 111
113 113 113
144 144 144
171 171 171
164 164 164
152 152 152
146 146 146
144 144 144
145 145 145
147 147 147
145 145 145
147 147 147
150 150 150
133 133 133
132 132 132
136 136 136
143 143 143
146 146 146
138 138 138
146 146 146
148 148 148
145 145 145
136 136 136
128 128 128
135 135 135
156 156 156
163 163 163
163 163 163
160 160 160
165 165 165
160 160 160
155 155 155
157 157 157
162 162 162
158 158 158
171 171 171
182 182 182
166 166 166
161 161 161
178 178 178
192 192 192
205 205 205
212 212 212
202 202 202
201 201 201
209 209 209
201 201 201
190 190 190
184 184 184
188 188 188
180 180 180
157 157 157
154 154 154
155 155 155
142 142 142
142 142 142
141 141 141
150 150 150
152 152 152
153 153 153
144 144 144
129 129 129
113 113 113
111 111 111
113 113 113
124 124 124
139 139 139
168 168 168
160 160 160
152 152 152
147 147 147
145 145 145
144 144 144
149 149 149
151 151 151
151 151 151
148 148 148
142 142 142
147 147 147
144 144 144
133 133 133
136 136 136
131 131 131
141 141 141
146 146 146
141 141 141
125 125 125
131 131 131
137 137 137
158 158 158
148 148 148
143 143 143
154 154 154
163 163 163
162 162 162
162 162 162
160 160 160
162 162 162
158 158 158
155 155 155
164 164 164
175 175 175
164 164 164
171 171 171
182 182 182
196 196 196
204 204 204
196 196 196
187 187 187
197 197 197
196 196 196
193 193 193
188 188 188
168 168 168
154 154 154
149 149 149
156 156 156
157 157 157
143 143 143
147 147 147
155 155 155
153 153 153
144 144 144
131 131 131
132 132 132
134 134 134
128 128 128
121 121 121
127 127 127
132 132 132
146 146 146
172 172 172
161 161 161
151 151 151
147 147 147
145 145 145
146 146 146
150 150 150
152 152 152
144 144 144
143 143 143
144 144 144
149 149 149
145 145 145
132 132 132
127 127 127
119 119 119
131 131 131
144 144 144
142 142 142
141 141 141
141 141 141
145 145 145
151 151 151
138 138 138
130 130 130
136 136 136
147 147 147
160 160 160
165 165 165
167 167 167
167 167 167
158 158 158
146 146 146
143 143 143
147 147 147
148 148 148
157 157 157
170 170 170
181 181 181
190 190 190
190 190 190
188 188 188
209 209 209
211 211 211
205 205 205
192 192 192
171 171 171
158 158 158
157 157 157
152 152 152
145 145 145
142 142 142
137 137 137
139 139 139
136 136 136
125 125 125
117 117 117
119 119 119
124 124 124
121 121 121
121 121 121
132 132 132
133 133 133
153 153 153
172 172 172
163 163 163
152 152 152
147 147 147
146 146 146
147 147 147
150 150 150
151 151 151
141 141 141
135 135 135
139 139 139
144 144 144
143 143 143
135 135 135
124 124 124
115 115 115
115 115 115
132 132 132
140 140 140
143 143 143
143 143 143
146 146 146
145 145 145
136 136 136
135 135 135
135 135 135
138 138 138
151 151 151
162 162 162
167 167 167
164 164 164
155 155 155
146 146 146
151 151 151
149 149 149
134 134 134
150 150 150
166 166 166
169 169 169
187 187 187
189 189 189
201 201 201
220 220 220
214 214 214
205 205 205
197 197 197
187 187 187
177 177 177
168 168 168
153 153 153
135 135 135
125 125 125
117 117 117
116 116 116
114 114 114
112 112 112
110 110 110
111 111 111
114 114 114
118 118 118
130 130 130
139 139 139
136 136 136
161 161 161
170 170 170
162 162 162
154 154 154
150 150 150
148 148 148
150 150 150
151 151 151
152 152 152
142 142 142
131 131 131
137 137 137
144 144 144
138 138 138
135 135 135
127 127 127
114 114 114
108 108 108
114 114 114
120 120 120
124 124 124
125 125 125
131 131 131
132 132 132
134 134 134
140 140 140
142 142 142
144 144 144
151 151 151
165 165 165
172 172 172
167 167 167
153 153 153
143 143 143
150 150 150
144 144 144
127 127 127
163 163 163
181 181 181
180 180 180
194 194 194
192 192 192
201 201 201
209 209 209
201 201 201
196 196 196
192 192 192
190 190 190
184 184 184
174 174 174
154 154 154
134 134 134
118 118 118
113 113 113
112 112 112
114 114 114
116 116 116
119 119 119
122 122 122
129 129 129
141 141 141
149 149 149
139 139 139
142 142 142
168 168 168
170 170 170
163 163 163
157 157 157
154 154 154
151 151 151
153 153 153
156 156 156
154 154 154
144 144 144
133 133 133
136 136 136
149 149 149
147 147 147
139 139 139
134 134 134
125 125 125
117 117 117
108 108 108
108 108 108
113 113 113
114 114 114
120 120 120
127 127 127
135 135 135
142 142 142
146 146 146
145 145 145
152 152 152
164 164 164
172 172 172
167 167 167
151 151 151
145 145 145
155 155 155
146 146 146
122 122 122
174 174 174
196 196 196
193 193 193
205 205 205
196 196 196
197 197 197
201 201 201
193 193 193
191 191 191
188 188 188
188 188 188
185 185 185
178 178 178
160 160 160
146 146 146
138 138 138
136 136 136
137 137 137
138 138 138
140 140 140
144 144 144
148 148 148
159 159 159
166 166 166
157 157 157
141 141 141
153 153 153
174 174 174
171 171 171
164 164 164
158 158 158
154 154 154
155 155 155
156 156 156
158 158 158
155 155 155
145 145 145
137 137 137
130 130 130
148 148 148
154 154 154
149 149 149
142 142 142
136 136 136
135 135 135
128 128 128
119 119 119
117 117 117
116 116 116
118 118 118
124 124 124
131 131 131
137 137 137
141 141 141
144 144 144
151 151 151
157 157 157
160 160 160
154 154 154
144 144 144
146 146 146
154 154 154
146 146 146
125 125 125
159 159 159
187 187 187
194 194 194
214 214 214
202 202 202
196 196 196
195 195 195
188 188 188
186 186 186
183 183 183
182 182 182
182 182 182
177 177 177
169 169 169
162 162 162
161 161 161
155 155 155
154 154 154
156 156 156
157 157 157
162 162 162
165 165 165
172 172 172
171 171 171
163 163 163
152 152 152
165 165 165
175 175 175
168 168 168
161 161 161
155 155 155
155 155 155
155 155 155
157 157 157
159 159 159
155 155 155
147 147 147
139 139 139
127 127 127
132 132 132
151 151 151
153 153 153
150 150 150
144 144 144
141 141 141
142 142 142
140 140 140
140 140 140
136 136 136
135 135 135
137 137 137
136 136 136
137 137 137
135 135 135
138 138 138
144 144 144
148 148 148
149 149 149
144 144 144
138 138 138
144 144 144
153 153 153
148 148 148
132 132 132
148 148 148
173 173 173
193 193 193
218 218 218
210 210 210
196 196 196
191 191 191
182 182 182
178 178 178
177 177 177
176 176 176
174 174 174
170 170 170
162 162 162
157 157 157
155 155 155
153 153 153
154 154 154
160 160 160
162 162 162
163 163 163
161 161 161
164 164 164
171 171 171
176 176 176
166 166 166
169 169 169
172 172 172
163 163 163
158 158 158
154 154 154
155 155 155
157 157 157
157 157 157
156 156 156
156 156 156
148 148 148
139 139 139
134 134 134
125 125 125
135 135 135
145 145 145
148 148 148
146 146 146
145 145 145
142 142 142
143 143 143
142 142 142
142 142 142
139 139 139
139 139 139
138 138 138
133 133 133
133 133 133
134 134 134
135 135 135
139 139 139
140 140 140
136 136 136
136 136 136
146 146 146
155 155 155
152 152 152
137 137 137
151 151 151
172 172 172
198 198 198
219 219 219
212 212 212
196 196 196
185 185 185
177 177 177
173 173 173
171 171 171
167 167 167
164 164 164
160 160 160
155 155 155
152 152 152
150 150 150
153 153 153
155 155 155
157 157 157
155 155 155
151 151 151
147 147 147
164 164 164
183 183 183
181 181 181
169 169 169
169 169 169
169 169 169
160 160 160
157 157 157
157 157 157
159 159 159
160 160 160
159 159 159
157 157 157
157 157 157
150 150 150
142 142 142
138 138 138
135 135 135
127 127 127
129 129 129
138 138 138
140 140 140
142 142 142
144 144 144
144 144 144
143 143 143
141 141 141
140 140 140
140 140 140
138 138 138
134 134 134
132 132 132
132 132 132
133 133 133
135 135 135
132 132 132
131 131 131
137 137 137
151 151 151
157 157 157
154 154 154
140 140 140
159 159 159
178 178 178
204 204 204
218 218 218
209 209 209
198 198 198
187 187 187
176 176 176
168 168 168
162 162 162
159 159 159
158 158 158
155 155 155
153 153 153
150 150 150
148 148 148
148 148 148
148 148 148
144 144 144
140 140 140
137 137 137
153 153 153
177 177 177
184 184 184
178 178 178
169 169 169
170 170 170
171 171 171
161 161 161
156 156 156
159 159 159
163 163 163
162 162 162
160 160 160
158 158 158
158 158 158
154 154 154
149 149 149
142 142 142
141 141 141
134 134 134
128 128 128
122 122 122
126 126 126
132 132 132
137 137 137
139 139 139
142 142 142
143 143 143
142 142 142
141 141 141
138 138 138
133 133 133
131 131 131
131 131 131
132 132 132
132 132 132
131 131 131
134 134 134
146 146 146
156 156 156
159 159 159
153 153 153
141 141 141
166 166 166
183 183 183
208 208 208
219 219 219
210 210 210
200 200 200
188 188 188
177 177 177
170 170 170
165 165 165
158 158 158
151 151 151
145 145 145
142 142 142
140 140 140
137 137 137
137 137 137
137 137 137
139 139 139
141 141 141
145 145 145
159 159 159
174 174 174
178 178 178
174 174 174
167 167 167
167 167 167
172 172 172
160 160 160
150 150 150
152 152 152
158 158 158
157 157 157
154 154 154
154 154 154
155 155 155
155 155 155
154 154 154
147 147 147
141 141 141
139 139 139
137 137 137
132 132 132
119 119 119
114 114 114
123 123 123
127 127 127
131 131 131
133 133 133
133 133 133
133 133 133
130 130 130
126 126 126
126 126 126
126 126 126
126 126 126
129 129 129
137 137 137
146 146 146
156 156 156
163 163 163
158 158 158
152 152 152
140 140 140
173 173 173
186 186 186
210 210 210
219 219 219
212 212 212
202 202 202
191 191 191
179 179 179
173 173 173
169 169 169
165 165 165
159 159 159
153 153 153
150 150 150
144 144 144
141 141 141
140 140 140
140 140 140
141 141 141
143 143 143
148 148 148
159 159 159
166 166 166
168 168 168
169 169 169
161 161 161
159 159 159
161 161 161
145 145 145
129 129 129
131 131 131
139 139 139
140 140 140
140 140 140
142 142 142
144 144 144
145 145 145
149 149 149
142 142 142
137 137 137
136 136 136
139 139 139
137 137 137
129 129 129
120 120 120
118 118 118
119 119 119
121 121 121
122 122 122
123 123 123
120 120 120
117 117 117
116 116 116
120 120 120
123 123 123
128 128 128
137 137 137
147 147 147
158 158 158
163 163 163
165 165 165
159 159 159
152 152 152
138 138 138
178 178 178
190 190 190
210 210 210
218 218 218
215 215 215
205 205 205
193 193 193
182 182 182
175 175 175
170 170 170
163 163 163
155 155 155
151 151 151
145 145 145
142 142 142
137 137 137
136 136 136
138 138 138
141 141 141
145 145 145
153 153 153
159 159 159
158 158 158
164 164 164
161 161 161
146 146 146
139 139 139
138 138 138
118 118 118
97 97 97
101 101 101
115 115 115
120 120 120
120 120 120
122 122 122
122 122 122
124 124 124
128 128 128
128 128 128
128 128 128
132 132 132
138 138 138
139 139 139
134 134 134
128 128 128
124 124 124
124 124 124
121 121 121
122 122 122
124 124 124
121 121 121
121 121 121
120 120 120
122 122 122
126 126 126
132 132 132
141 141 141
153 153 153
163 163 163
169 169 169
165 165 165
159 159 159
150 150 150
136 136 136
181 181 181
194 194 194
212 212 212
219 219 219
215 215 215
207 207 207
194 194 194
184 184 184
177 177 177
169 169 169
159 159 159
150 150 150
146 146 146
141 141 141
139 139 139
138 138 138
137 137 137
140 140 140
142 142 142
148 148 148
158 158 158
157 157 157
154 154 154
160 160 160
150 150 150
124 124 124
105 105 105
104 104 104
90 90 90
67 67 67
70 70 70
93 93 93
104 104 104
101 101 101
96 96 96
93 93 93
94 94 94
100 100 100
105 105 105
117 117 117
131 131 131
139 139 139
141 141 141
138 138 138
132 132 132
124 124 124
121 121 121
120 120 120
120 120 120
122 122 122
122 122 122
122 122 122
123 123 123
123 123 123
129 129 129
134 134 134
144 144 144
157 157 157
164 164 164
170 170 170
166 166 166
158 158 158
148 148 148
133 133 133
181 181 181
199 199 199
211 211 211
217 217 217
213 213 213
206 206 206
196 196 196
186 186 186
179 179 179
169 169 169
158 158 158
150 150 150
145 145 145
142 142 142
142 142 142
143 143 143
141 141 141
142 142 142
145 145 145
152 152 152
161 161 161
160 160 160
154 154 154
156 156 156
144 144 144
110 110 110
82 82 82
75 75 75
77 77 77
60 60 60
58 58 58
82 82 82
97 97 97
90 90 90
79 79 79
74 74 74
74 74 74
79 79 79
90 90 90
112 112 112
136 136 136
148 148 148
150 150 150
146 146 146
139 139 139
129 129 129
121 121 121
120 120 120
118 118 118
118 118 118
120 120 120
122 122 122
123 123 123
126 126 126
131 131 131
138 138 138
148 148 148
159 159 159
166 166 166
169 169 169
165 165 165
157 157 157
146 146 146
130 130 130
177 177 177
202 202 202
211 211 211
217 217 217
213 213 213
208 208 208
199 199 199
188 188 188
181 181 181
170 170 170
162 162 162
154 154 154
148 148 148
147 147 147
148 148 148
146 146 146
143 143 143
143 143 143
149 149 149
159 159 159
168 168 168
167 167 167
162 162 162
156 156 156
149 149 149
121 121 121
91 91 91
87 87 87
90 90 90
83 83 83
76 76 76
88 88 88
97 97 97
90 90 90
86 86 86
84 84 84
83 83 83
86 86 86
98 98 98
121 121 121
144 144 144
154 154 154
160 160 160
161 161 161
152 152 152
143 143 143
132 132 132
127 127 127
123 123 123
121 121 121
121 121 121
123 123 123
125 125 125
129 129 129
135 135 135
143 143 143
153 153 153
162 162 162
168 168 168
169 169 169
165 165 165
156 156 156
142 142 142
131 131 131
173 173 173
203 203 203
213 213 213
218 218 218
214 214 214
209 209 209
203 203 203
192 192 192
183 183 183
174 174 174
165 165 165
158 158 158
152 152 152
150 150 150
150 150 150
146 146 146
144 144 144
147 147 147
155 155 155
170 170 170
180 180 180
176 176 176
172 172 172
164 164 164
158 158 158
144 144 144
129 129 129
126 126 126
120 120 120
109 109 109
99 99 99
98 98 98
101 101 101
100 100 100
107 107 107
113 113 113
109 109 109
110 110 110
118 118 118
133 133 133
148 148 148
156 156 156
165 165 165
171 171 171
166 166 166
160 160 160
151 151 151
142 142 142
135 135 135
132 132 132
130 130 130
130 130 130
132 132 132
136 136 136
142 142 142
149 149 149
158 158 158
163 163 163
169 169 169
169 169 169
165 165 165
156 156 156
141 141 141
135 135 135
168 168 168
200 200 200
215 215 215
221 221 221
217 217 217
211 211 211
206 206 206
197 197 197
187 187 187
176 176 176
169 169 169
162 162 162
156 156 156
153 153 153
151 151 151
147 147 147
145 145 145
153 153 153
166 166 166
184 184 184
192 192 192
184 184 184
179 179 179
176 176 176
174 174 174
171 171 171
165 165 165
157 157 157
138 138 138
124 124 124
111 111 111
104 104 104
105 105 105
109 109 109
120 120 120
131 131 131
134 134 134
136 136 136
138 138 138
144 144 144
152 152 152
158 158 158
167 167 167
173 173 173
172 172 172
168 168 168
162 162 162
155 155 155
148 148 148
143 143 143
141 141 141
140 140 140
142 142 142
144 144 144
149 149 149
155 155 155
163 163 163
167 167 167
171 171 171
168 168 168
165 165 165
154 154 154
142 142 142
138 138 138
158 158 158
193 193 193
214 214 214
221 221 221
220 220 220
213 213 213
209 209 209
200 200 200
190 190 190
182 182 182
173 173 173
165 165 165
159 159 159
156 156 156
152 152 152
148 148 148
151 151 151
163 163 163
181 181 181
195 195 195
197 197 197
189 189 189
184 184 184
187 187 187
191 191 191
192 192 192
186 186 186
170 170 170
145 145 145
128 128 128
116 116 116
108 108 108
109 109 109
116 116 116
125 125 125
139 139 139
148 148 148
151 151 151
150 150 150
152 152 152
156 156 156
161 161 161
167 167 167
173 173 173
174 174 174
171 171 171
167 167 167
162 162 162
158 158 158
151 151 151
148 148 148
148 148 148
150 150 150
152 152 152
155 155 155
160 160 160
165 165 165
170 170 170
172 172 172
170 170 170
163 163 163
151 151 151
146 146 146
141 141 141
152 152 152
184 184 184
209 209 209
222 222 222
222 222 222
216 216 216
210 210 210
205 205 205
196 196 196
187 187 187
177 177 177
169 169 169
162 162 162
158 158 158
155 155 155
155 155 155
163 163 163
176 176 176
193 193 193
198 198 198
197 197 197
191 191 191
190 190 190
191 191 191
199 199 199
203 203 203
196 196 196
176 176 176
151 151 151
134 134 134
124 124 124
118 118 118
118 118 118
125 125 125
133 133 133
145 145 145
157 157 157
161 161 161
162 162 162
165 165 165
164 164 164
163 163 163
164 164 164
169 169 169
173 173 173
173 173 173
171 171 171
165 165 165
163 163 163
160 160 160
154 154 154
154 154 154
153 153 153
156 156 156
159 159 159
164 164 164
169 169 169
173 173 173
173 173 173
169 169 169
162 162 162
154 154 154
153 153 153
145 145 145
149 149 149
171 171 171
200 200 200
221 221 221
223 223 223
217 217 217
212 212 212
206 206 206
200 200 200
193 193 193
181 181 181
174 174 174
166 166 166
160 160 160
159 159 159
165 165 165
175 175 175
187 187 187
196 196 196
198 198 198
197 197 197
193 193 193
192 192 192
191 191 191
198 198 198
200 200 200
194 194 194
178 178 178
161 161 161
149 149 149
141 141 141
134 134 134
133 133 133
139 139 139
147 147 147
156 156 156
167 167 167
170 170 170
169 169 169
167 167 167
165 165 165
162 162 162
163 163 163
164 164 164
170 170 170
172 172 172
173 173 173
169 169 169
165 165 165
164 164 164
161 161 161
160 160 160
158 158 158
160 160 160
163 163 163
167 167 167
172 172 172
175 175 175
173 173 173
169 169 169
160 160 160
156 156 156
156 156 156
144 144 144
147 147 147
163 163 163
192 192 192
217 217 217
224 224 224
218 218 218
212 212 212
209 209 209
202 202 202
197 197 197
188 188 188
179 179 179
169 169 169
164 164 164
168 168 168
178 178 178
186 186 186
190 190 190
198 198 198
197 197 197
194 194 194
190 190 190
187 187 187
189 189 189
191 191 191
195 195 195
190 190 190
182 182 182
174 174 174
165 165 165
159 159 159
153 153 153
152 152 152
161 161 161
164 164 164
169 169 169
175 175 175
177 177 177
175 175 175
172 172 172
168 168 168
164 164 164
162 162 162
163 163 163
164 164 164
167 167 167
170 170 170
170 170 170
166 166 166
166 166 166
164 164 164
165 165 165
164 164 164
164 164 164
165 165 165
169 169 169
172 172 172
173 173 173
173 173 173
168 168 168
161 161 161
159 159 159
160 160 160
145 145 145
148 148 148
158 158 158
184 184 184
208 208 208
221 221 221
220 220 220
212 212 212
208 208 208
204 204 204
199 199 199
193 193 193
183 183 183
173 173 173
169 169 169
177 177 177
187 187 187
190 190 190
192 192 192
193 193 193
192 192 192
185 185 185
180 180 180
179 179 179
181 181 181
183 183 183
187 187 187
189 189 189
185 185 185
183 183 183
179 179 179
178 178 178
173 173 173
173 173 173
177 177 177
176 176 176
176 176 176
178 178 178
180 180 180
177 177 177
172 172 172
168 168 168
165 165 165
160 160 160
160 160 160
163 163 163
164 164 164
164 164 164
165 165 165
165 165 165
166 166 166
166 166 166
166 166 166
166 166 166
167 167 167
169 169 169
169 169 169
172 172 172
172 172 172
170 170 170
167 167 167
160 160 160
163 163 163
161 161 161
148 148 148
151 151 151
159 159 159
173 173 173
195 195 195
216 216 216
219 219 219
213 213 213
206 206 206
202 202 202
201 201 201
194 194 194
185 185 185
175 175 175
169 169 169
175 175 175
183 183 183
188 188 188
187 187 187
186 186 186
182 182 182
175 175 175
171 171 171
171 171 171
173 173 173
173 173 173
178 178 178
184 184 184
184 184 184
187 187 187
188 188 188
190 190 190
189 189 189
187 187 187
186 186 186
181 181 181
178 178 178
178 178 178
176 176 176
173 173 173
169 169 169
166 166 166
164 164 164
159 159 159
158 158 158
158 158 158
162 162 162
159 159 159
159 159 159
164 164 164
165 165 165
167 167 167
167 167 167
166 166 166
165 165 165
169 169 169
170 170 170
171 171 171
169 169 169
168 168 168
167 167 167
158 158 158
158 158 158
154 154 154
142 142 142
154 154 154
156 156 156
162 162 162
180 180 180
208 208 208
213 213 213
212 212 212
205 205 205
200 200 200
200 200 200
195 195 195
186 186 186
174 174 174
163 163 163
165 165 165
175 175 175
175 175 175
173 173 173
175 175 175
172 172 172
167 167 167
161 161 161
164 164 164
164 164 164
163 163 163
167 167 167
171 171 171
174 174 174
179 179 179
185 185 185
187 187 187
187 187 187
184 184 184
184 184 184
180 180 180
175 175 175
171 171 171
168 168 168
168 168 168
165 165 165
164 164 164
162 162 162
158 158 158
158 158 158
156 156 156
155 155 155
154 154 154
155 155 155
160 160 160
160 160 160
166 166 166
166 166 166
165 165 165
163 163 163
167 167 167
165 165 165
167 167 167
164 164 164
165 165 165
164 164 164
149 149 149
142 142 142
136 136 136
132 132 132
161 161 161
156 156 156
155 155 155
170 170 170
200 200 200
210 210 210
210 210 210
204 204 204
197 197 197
199 199 199
195 195 195
185 185 185
173 173 173
156 156 156
157 157 157
164 164 164
157 157 157
150 150 150
154 154 154
158 158 158
159 159 159
151 151 151
150 150 150
149 149 149
152 152 152
153 153 153
152 152 152
153 153 153
160 160 160
166 166 166
166 166 166
165 165 165
161 161 161
163 163 163
163 163 163
157 157 157
155 155 155
154 154 154
156 156 156
155 155 155
157 157 157
157 157 157
155 155 155
155 155 155
154 154 154
148 148 148
148 148 148
149 149 149
154 154 154
157 157 157
162 162 162
168 168 168
165 165 165
164 164 164
164 164 164
161 161 161
163 163 163
162 162 162
163 163 163
156 156 156
136 136 136
127 127 127
125 125 125
125 125 125
164 164 164
157 157 157
153 153 153
162 162 162
189 189 189
206 206 206
207 207 207
205 205 205
196 196 196
195 195 195
194 194 194
183 183 183
170 170 170
153 153 153
152 152 152
151 151 151
141 141 141
130 130 130
132 132 132
137 137 137
143 143 143
141 141 141
136 136 136
133 133 133
134 134 134
133 133 133
129 129 129
128 128 128
132 132 132
135 135 135
139 139 139
140 140 140
138 138 138
138 138 138
138 138 138
138 138 138
137 137 137
139 139 139
140 140 140
140 140 140
143 143 143
145 145 145
145 145 145
147 147 147
146 146 146
145 145 145
142 142 142
145 145 145
150 150 150
155 155 155
158 158 158
164 164 164
163 163 163
162 162 162
159 159 159
158 158 158
160 160 160
163 163 163
162 162 162
147 147 147
127 127 127
119 119 119
122 122 122
124 124 124
161 161 161
156 156 156
152 152 152
155 155 155
178 178 178
203 203 203
205 205 205
203 203 203
197 197 197
191 191 191
191 191 191
182 182 182
165 165 165
153 153 153
146 146 146
137 137 137
127 127 127
120 120 120
125 125 125
130 130 130
135 135 135
136 136 136
138 138 138
135 135 135
130 130 130
122 122 122
115 115 115
111 111 111
110 110 110
109 109 109
111 111 111
116 116 116
114 114 114
116 116 116
121 121 121
123 123 123
124 124 124
126 126 126
129 129 129
132 132 132
134 134 134
138 138 138
138 138 138
142 142 142
146 146 146
146 146 146
144 144 144
143 143 143
149 149 149
151 151 151
152 152 152
156 156 156
156 156 156
158 158 158
157 157 157
157 157 157
160 160 160
163 163 163
156 156 156
138 138 138
121 121 121
114 114 114
119 119 119
125 125 125
154 154 154
151 151 151
149 149 149
152 152 152
170 170 170
196 196 196
204 204 204
201 201 201
196 196 196
189 189 189
188 188 188
182 182 182
166 166 166
155 155 155
144 144 144
129 129 129
117 117 117
117 117 117
127 127 127
136 136 136
137 137 137
139 139 139
145 145 145
147 147 147
145 145 145
140 140 140
129 129 129
123 123 123
117 117 117
113 113 113
112 112 112
117 117 117
117 117 117
119 119 119
123 123 123
125 125 125
127 127 127
130 130 130
134 134 134
137 137 137
142 142 142
142 142 142
142 142 142
143 143 143
147 147 147
145 145 145
143 143 143
144 144 144
145 145 145
149 149 149
149 149 149
149 149 149
151 151 151
152 152 152
155 155 155
158 158 158
160 160 160
162 162 162
150 150 150
130 130 130
118 118 118
114 114 114
112 112 112
118 118 118
142 142 142
140 140 140
143 143 143
149 149 149
162 162 162
185 185 185
198 198 198
196 196 196
195 195 195
191 191 191
185 185 185
183 183 183
172 172 172
158 158 158
144 144 144
131 131 131
120 120 120
121 121 121
134 134 134
141 141 141
147 147 147
151 151 151
155 155 155
157 157 157
157 157 157
156 156 156
150 150 150
144 144 144
139 139 139
133 133 133
128 128 128
128 128 128
130 130 130
134 134 134
136 136 136
135 135 135
135 135 135
134 134 134
137 137 137
139 139 139
144 144 144
146 146 146
143 143 143
141 141 141
143 143 143
144 144 144
144 144 144
143 143 143
144 144 144
148 148 148
149 149 149
148 148 148
146 146 146
151 151 151
154 154 154
160 160 160
163 163 163
157 157 157
141 141 141
124 124 124
116 116 116
110 110 110
107 107 107
113 113 113
129 129 129
129 129 129
137 137 137
146 146 146
156 156 156
174 174 174
191 191 191
191 191 191
191 191 191
192 192 192
187 187 187
182 182 182
177 177 177
162 162 162
149 149 149
140 140 140
132 132 132
134 134 134
146 146 146
154 154 154
156 156 156
157 157 157
160 160 160
161 161 161
161 161 161
159 159 159
153 153 153
146 146 146
140 140 140
130 130 130
125 125 125
124 124 124
126 126 126
132 132 132
133 133 133
132 132 132
132 132 132
132 132 132
137 137 137
138 138 138
140 140 140
140 140 140
139 139 139
138 138 138
139 139 139
140 140 140
141 141 141
143 143 143
145 145 145
150 150 150
150 150 150
145 145 145
146 146 146
150 150 150
156 156 156
160 160 160
161 161 161
150 150 150
132 132 132
120 120 120
118 118 118
105 105 105
106 106 106
104 104 104
118 118 118
118 118 118
130 130 130
144 144 144
153 153 153
164 164 164
182 182 182
189 189 189
187 187 187
190 190 190
188 188 188
183 183 183
178 178 178
168 168 168
157 157 157
150 150 150
148 148 148
153 153 153
165 165 165
171 171 171
173 173 173
172 172 172
169 169 169
166 166 166
164 164 164
159 159 159
150 150 150
142 142 142
134 134 134
124 124 124
115 115 115
113 113 113
117 117 117
119 119 119
122 122 122
124 124 124
128 128 128
132 132 132
137 137 137
139 139 139
141 141 141
143 143 143
145 145 145
145 145 145
144 144 144
144 144 144
145 145 145
148 148 148
149 149 149
151 151 151
147 147 147
144 144 144
147 147 147
152 152 152
157 157 157
159 159 159
156 156 156
145 145 145
126 126 126
119 119 119
117 117 117
99 99 99
98 98 98
94 94 94
108 108 108
108 108 108
120 120 120
140 140 140
150 150 150
157 157 157
168 168 168
185 185 185
187 187 187
186 186 186
187 187 187
182 182 182
178 178 178
173 173 173
167 167 167
159 159 159
161 161 161
169 169 169
180 180 180
185 185 185
186 186 186
183 183 183
179 179 179
172 172 172
166 166 166
162 162 162
150 150 150
136 136 136
128 128 128
118 118 118
112 112 112
111 111 111
111 111 111
111 111 111
116 116 116
122 122 122
127 127 127
134 134 134
141 141 141
146 146 146
151 151 151
157 157 157
157 157 157
160 160 160
159 159 159
155 155 155
153 153 153
151 151 151
151 151 151
150 150 150
148 148 148
144 144 144
149 149 149
154 154 154
156 156 156
156 156 156
151 151 151
143 143 143
123 123 123
121 121 121
110 110 110
94 94 94
90 90 90
88 88 88
105 105 105
102 102 102
113 113 113
134 134 134
148 148 148
152 152 152
156 156 156
175 175 175
185 185 185
186 186 186
185 185 185
184 184 184
181 181 181
175 175 175
172 172 172
168 168 168
169 169 169
173 173 173
182 182 182
189 189 189
191 191 191
188 188 188
181 181 181
174 174 174
167 167 167
159 159 159
150 150 150
139 139 139
128 128 128
120 120 120
115 115 115
114 114 114
114 114 114
113 113 113
118 118 118
126 126 126
132 132 132
139 139 139
144 144 144
151 151 151
160 160 160
165 165 165
167 167 167
171 171 171
168 168 168
161 161 161
156 156 156
152 152 152
150 150 150
149 149 149
146 146 146
145 145 145
150 150 150
154 154 154
155 155 155
153 153 153
150 150 150
142 142 142
122 122 122
120 120 120
104 104 104
87 87 87
86 86 86
90 90 90
106 106 106
103 103 103
106 106 106
129 129 129
144 144 144
150 150 150
149 149 149
163 163 163
179 179 179
185 185 185
184 184 184
184 184 184
184 184 184
180 180 180
173 173 173
176 176 176
171 171 171
170 170 170
172 172 172
179 179 179
182 182 182
180 180 180
174 174 174
167 167 167
161 161 161
150 150 150
144 144 144
138 138 138
129 129 129
123 123 123
122 122 122
119 119 119
117 117 117
118 118 118
121 121 121
123 123 123
132 132 132
139 139 139
146 146 146
152 152 152
163 163 163
166 166 166
166 166 166
166 166 166
163 163 163
158 158 158
154 154 154
150 150 150
149 149 149
147 147 147
146 146 146
146 146 146
153 153 153
154 154 154
152 152 152
151 151 151
150 150 150
143 143 143
122 122 122
115 115 115
95 95 95
80 80 80
85 85 85
90 90 90
103 103 103
103 103 103
103 103 103
122 122 122
138 138 138
146 146 146
146 146 146
157 157 157
171 171 171
181 181 181
184 184 184
182 182 182
185 185 185
185 185 185
178 178 178
176 176 176
173 173 173
169 169 169
164 164 164
167 167 167
170 170 170
171 171 171
165 165 165
160 160 160
151 151 151
140 140 140
135 135 135
130 130 130
123 123 123
119 119 119
121 121 121
114 114 114
114 114 114
115 115 115
117 117 117
119 119 119
128 128 128
136 136 136
143 143 143
150 150 150
158 158 158
160 160 160
161 161 161
159 159 159
157 157 157
154 154 154
150 150 150
150 150 150
150 150 150
147 147 147
146 146 146
148 148 148
153 153 153
153 153 153
149 149 149
151 151 151
151 151 151
145 145 145
122 122 122
109 109 109
88 88 88
78 78 78
83 83 83
90 90 90
103 103 103
104 104 104
101 101 101
115 115 115
133 133 133
142 142 142
142 142 142
153 153 153
165 165 165
177 177 177
182 182 182
182 182 182
186 186 186
188 188 188
184 184 184
175 175 175
173 173 173
169 169 169
161 161 161
160 160 160
160 160 160
162 162 162
159 159 159
155 155 155
144 144 144
135 135 135
131 131 131
127 127 127
123 123 123
119 119 119
120 120 120
115 115 115
112 112 112
115 115 115
118 118 118
123 123 123
131 131 131
140 140 140
143 143 143
148 148 148
154 154 154
155 155 155
154 154 154
153 153 153
150 150 150
149 149 149
147 147 147
148 148 148
149 149 149
148 148 148
148 148 148
151 151 151
152 152 152
150 150 150
148 148 148
153 153 153
152 152 152
150 150 150
120 120 120
100 100 100
78 78 78
78 78 78
82 82 82
87 87 87
101 101 101
103 103 103
102 102 102
109 109 109
127 127 127
136 136 136
138 138 138
149 149 149
164 164 164
177 177 177
185 185 185
184 184 184
183 183 183
187 187 187
188 188 188
179 179 179
170 170 170
167 167 167
159 159 159
157 157 157
154 154 154
153 153 153
152 152 152
148 148 148
142 142 142
134 134 134
127 127 127
126 126 126
125 125 125
122 122 122
120 120 120
120 120 120
118 118 118
121 121 121
126 126 126
130 130 130
138 138 138
141 141 141
143 143 143
147 147 147
151 151 151
152 152 152
153 153 153
150 150 150
146 146 146
146 146 146
144 144 144
147 147 147
148 148 148
148 148 148
150 150 150
152 152 152
151 151 151
149 149 149
150 150 150
154 154 154
155 155 155
151 151 151
120 120 120
92 92 92
75 75 75
80 80 80
83 83 83
85 85 85
103 103 103
104 104 104
100 100 100
106 106 106
121 121 121
130 130 130
132 132 132
142 142 142
162 162 162
178 178 178
188 188 188
189 189 189
181 181 181
182 182 182
188 188 188
184 184 184
171 171 171
165 165 165
160 160 160
157 157 157
152 152 152
149 149 149
146 146 146
142 142 142
140 140 140
135 135 135
131 131 131
127 127 127
127 127 127
126 126 126
127 127 127
128 128 128
127 127 127
130 130 130
135 135 135
137 137 137
141 141 141
142 142 142
141 141 141
145 145 145
151 151 151
151 151 151
152 152 152
148 148 148
146 146 146
144 144 144
143 143 143
145 145 145
146 146 146
149 149 149
150 150 150
150 150 150
150 150 150
152 152 152
153 153 153
159 159 159
158 158 158
153 153 153
115 115 115
84 84 84
73 73 73
80 80 80
82 82 82
85 85 85
104 104 104
105 105 105
100 100 100
103 103 103
114 114 114
123 123 123
127 127 127
140 140 140
162 162 162
181 181 181
190 190 190
190 190 190
186 186 186
182 182 182
187 187 187
184 184 184
174 174 174
165 165 165
160 160 160
154 154 154
151 151 151
148 148 148
145 145 145
142 142 142
137 137 137
132 132 132
132 132 132
130 130 130
130 130 130
130 130 130
131 131 131
134 134 134
134 134 134
137 137 137
139 139 139
140 140 140
144 144 144
141 141 141
142 142 142
145 145 145
149 149 149
148 148 148
147 147 147
145 145 145
143 143 143
142 142 142
144 144 144
145 145 145
146 146 146
150 150 150
151 151 151
149 149 149
149 149 149
156 156 156
160 160 160
163 163 163
161 161 161
150 150 150
112 112 112
79 79 79
74 74 74
80 80 80
80 80 80
83 83 83
104 104 104
106 106 106
100 100 100
100 100 100
104 104 104
111 111 111
125 125 125
142 142 142
164 164 164
183 183 183
193 193 193
193 193 193
190 190 190
188 188 188
183 183 183
182 182 182
170 170 170
167 167 167
160 160 160
153 153 153
149 149 149
146 146 146
145 145 145
142 142 142
136 136 136
130 130 130
129 129 129
128 128 128
129 129 129
129 129 129
129 129 129
131 131 131
132 132 132
133 133 133
136 136 136
136 136 136
142 142 142
141 141 141
140 140 140
142 142 142
143 143 143
144 144 144
143 143 143
142 142 142
141 141 141
142 142 142
142 142 142
143 143 143
147 147 147
149 149 149
150 150 150
149 149 149
152 152 152
160 160 160
166 166 166
167 167 167
159 159 159
148 148 148
111 111 111
79 79 79
74 74 74
80 80 80
82 82 82
84 84 84
104 104 104
101 101 101
98 98 98
96 96 96
97 97 97
105 105 105
124 124 124
146 146 146
164 164 164
185 185 185
195 195 195
194 194 194
191 191 191
189 189 189
183 183 183
180 180 180
169 169 169
167 167 167
163 163 163
156 156 156
149 149 149
148 148 148
144 144 144
143 143 143
139 139 139
132 132 132
131 131 131
128 128 128
128 128 128
128 128 128
127 127 127
128 128 128
131 131 131
131 131 131
134 134 134
136 136 136
140 140 140
139 139 139
137 137 137
138 138 138
139 139 139
139 139 139
139 139 139
140 140 140
141 141 141
139 139 139
140 140 140
141 141 141
145 145 145
148 148 148
150 150 150
152 152 152
156 156 156
165 165 165
170 170 170
168 168 168
158 158 158
148 148 148
113 113 113
80 80 80
75 75 75
80 80 80
84 84 84
86 86 86
99 99 99
95 95 95
90 90 90
92 92 92
94 94 94
100 100 100
120 120 120
146 146 146
167 167 167
188 188 188
196 196 196
194 194 194
192 192 192
188 188 188
182 182 182
180 180 180
169 169 169
166 166 166
164 164 164
160 160 160
153 153 153
152 152 152
147 147 147
144 144 144
140 140 140
138 138 138
135 135 135
131 131 131
131 131 131
131 131 131
131 131 131
132 132 132
135 135 135
136 136 136
137 137 137
138 138 138
138 138 138
136 136 136
136 136 136
136 136 136
136 136 136
136 136 136
137 137 137
138 138 138
138 138 138
138 138 138
138 138 138
143 143 143
145 145 145
148 148 148
152 152 152
158 158 158
163 163 163
169 169 169
170 170 170
166 166 166
157 157 157
147 147 147
116 116 116
83 83 83
75 75 75
81 81 81
86 86 86
87 87 87
92 92 92
90 90 90
87 87 87
90 90 90
95 95 95
94 94 94
117 117 117
147 147 147
170 170 170
194 194 194
199 199 199
195 195 195
193 193 193
189 189 189
180 180 180
177 177 177
171 171 171
166 166 166
166 166 166
162 162 162
158 158 158
152 152 152
148 148 148
145 145 145
141 141 141
138 138 138
136 136 136
133 133 133
131 131 131
132 132 132
133 133 133
134 134 134
136 136 136
136 136 136
135 135 135
135 135 135
133 133 133
133 133 133
133 133 133
133 133 133
134 134 134
134 134 134
134 134 134
134 134 134
136 136 136
138 138 138
137 137 137
143 143 143
148 148 148
150 150 150
156 156 156
161 161 161
167 167 167
169 169 169
170 170 170
166 166 166
155 155 155
149 149 149
119 119 119
87 87 87
75 75 75
81 81 81
86 86 86
89 89 89
89 89 89
87 87 87
87 87 87
90 90 90
93 93 93
92 92 92
114 114 114
148 148 148
176 176 176
197 197 197
203 203 203
197 197 197
192 192 192
190 190 190
178 178 178
173 173 173
169 169 169
168 168 168
166 166 166
161 161 161
158 158 158
152 152 152
145 145 145
142 142 142
137 137 137
133 133 133
129 129 129
129 129 129
125 125 125
129 129 129
131 131 131
130 130 130
133 133 133
133 133 133
132 132 132
130 130 130
131 131 131
131 131 131
130 130 130
131 131 131
130 130 130
131 131 131
131 131 131
131 131 131
133 133 133
137 137 137
139 139 139
143 143 143
150 150 150
153 153 153
161 161 161
161 161 161
168 168 168
168 168 168
169 169 169
165 165 165
154 154 154
152 152 152
125 125 125
90 90 90
74 74 74
79 79 79
86 86 86
91 91 91
90 90 90
85 85 85
86 86 86
90 90 90
93 93 93
91 91 91
112 112 112
147 147 147
180 180 180
202 202 202
205 205 205
200 200 200
195 195 195
185 185 185
173 173 173
171 171 171
166 166 166
167 167 167
163 163 163
160 160 160
154 154 154
155 155 155
146 146 146
138 138 138
130 130 130
125 125 125
122 122 122
120 120 120
120 120 120
121 121 121
123 123 123
125 125 125
125 125 125
125 125 125
124 124 124
125 125 125
127 127 127
126 126 126
125 125 125
124 124 124
127 127 127
127 127 127
129 129 129
130 130 130
134 134 134
135 135 135
141 141 141
146 146 146
152 152 152
156 156 156
161 161 161
160 160 160
167 167 167
166 166 166
164 164 164
163 163 163
156 156 156
153 153 153
131 131 131
95 95 95
76 76 76
80 80 80
86 86 86
90 90 90
88 88 88
84 84 84
86 86 86
89 89 89
91 91 91
88 88 88
115 115 115
150 150 150
187 187 187
208 208 208
208 208 208
201 201 201
196 196 196
183 183 183
169 169 169
166 166 166
164 164 164
163 163 163
165 165 165
160 160 160
150 150 150
150 150 150
148 148 148
139 139 139
127 127 127
122 122 122
119 119 119
115 115 115
113 113 113
114 114 114
116 116 116
117 117 117
117 117 117
118 118 118
115 115 115
118 118 118
119 119 119
119 119 119
118 118 118
121 121 121
123 123 123
125 125 125
128 128 128
129 129 129
132 132 132
136 136 136
142 142 142
149 149 149
155 155 155
157 157 157
161 161 161
162 162 162
166 166 166
162 162 162
163 163 163
164 164 164
158 158 158
157 157 157
135 135 135
100 100 100
80 80 80
82 82 82
87 87 87
90 90 90
88 88 88
84 84 84
85 85 85
89 89 89
87 87 87
86 86 86
112 112 112
154 154 154
194 194 194
211 211 211
206 206 206
199 199 199
191 191 191
181 181 181
168 168 168
163 163 163
158 158 158
159 159 159
160 160 160
158 158 158
148 148 148
142 142 142
145 145 145
138 138 138
130 130 130
121 121 121
118 118 118
115 115 115
109 109 109
110 110 110
110 110 110
109 109 109
111 111 111
111 111 111
109 109 109
110 110 110
112 112 112
114 114 114
116 116 116
119 119 119
122 122 122
125 125 125
126 126 126
126 126 126
134 134 134
140 140 140
147 147 147
152 152 152
155 155 155
157 157 157
160 160 160
160 160 160
162 162 162
161 161 161
163 163 163
164 164 164
160 160 160
159 159 159
139 139 139
105 105 105
82 82 82
84 84 84
89 89 89
91 91 91
