P3
64 64
255
121 121 121
127 127 127
131 131 131
129 129 129
125 125 125
120 120 120
115 115 115
110 110 110
106 106 106
105 105 105
104 104 104
104 104 104
104 104 104
104 104 104
105 105 105
105 105 105
106 106 106
106 106 106
106 106 106
105 105 105
105 105 105
105 105 105
105 105 105
104 104 104
104 104 104
104 104 104
103 103 103
102 102 102
101 101 101
100 100 100
99 99 99
100 100 100
100 100 100
99 99 99
98 98 98
98 98 98
96 96 96
95 95 95
94 94 94
93 93 93
92 92 92
91 91 91
90 90 90
89 89 89
89 89 89
88 88 88
87 87 87
86 86 86
85 85 85
85 85 85
85 85 85
84 84 84
84 84 84
84 84 84
85 85 85
86 86 86
86 86 86
85 85 85
86 86 86
87 87 87
89 89 89
88 88 88
85 85 85
90 90 90
123 123 123
129 129 129
133 133 133
130 130 130
125 125 125
121 121 121
116 116 116
110 110 110
106 106 106
105 105 105
104 104 104
104 104 104
104 104 104
105 105 105
106 106 106
106 106 106
106 106 106
106 106 106
106 106 106
106 106 106
106 106 106
105 105 105
105 105 105
105 105 105
104 104 104
104 104 104
103 103 103
102 102 102
102 102 102
101 101 101
100 100 100
101 101 101
100 100 100
100 100 100
99 99 99
99 99 99
98 98 98
96 96 96
96 96 96
95 95 95
94 94 94
93 93 93
92 92 92
91 91 91
90 90 90
90 90 90
89 89 89
87 87 87
86 86 86
86 86 86
85 85 85
85 85 85
85 85 85
85 85 85
85 85 85
86 86 86
86 86 86
85 85 85
86 86 86
88 88 88
89 89 89
89 89 89
85 85 85
88 88 88
126 126 126
131 131 131
134 134 134
130 130 130
125 125 125
121 121 121
116 116 116
110 110 110
105 105 105
105 105 105
105 105 105
105 105 105
105 105 105
106 106 106
106 106 106
107 107 107
106 106 106
107 107 107
107 107 107
106 106 106
106 106 106
105 105 105
105 105 105
105 105 105
105 105 105
105 105 105
103 103 103
102 102 102
102 102 102
102 102 102
101 101 101
101 101 101
101 101 101
100 100 100
100 100 100
100 100 100
99 99 99
98 98 98
97 97 97
97 97 97
96 96 96
95 95 95
94 94 94
93 93 93
91 91 91
91 91 91
90 90 90
89 89 89
88 88 88
87 87 87
86 86 86
86 86 86
86 86 86
85 85 85
86 86 86
86 86 86
86 86 86
86 86 86
87 87 87
88 88 88
89 89 89
89 89 89
87 87 87
88 88 88
129 129 129
133 133 133
134 134 134
130 130 130
125 125 125
121 121 121
116 116 116
110 110 110
105 105 105
105 105 105
105 105 105
106 106 106
106 106 106
106 106 106
106 106 106
107 107 107
107 107 107
107 107 107
107 107 107
107 107 107
106 106 106
106 106 106
105 105 105
105 105 105
105 105 105
104 104 104
103 103 103
102 102 102
102 102 102
102 102 102
101 101 101
102 102 102
101 101 101
102 102 102
101 101 101
100 100 100
100 100 100
99 99 99
99 99 99
99 99 99
98 98 98
97 97 97
96 96 96
95 95 95
94 94 94
93 93 93
92 92 92
91 91 91
91 91 91
90 90 90
88 88 88
88 88 88
87 87 87
87 87 87
87 87 87
87 87 87
87 87 87
87 87 87
87 87 87
88 88 88
89 89 89
89 89 89
88 88 88
88 88 88
131 131 131
135 135 135
135 135 135
131 131 131
125 125 125
121 121 121
116 116 116
109 109 109
106 106 106
106 106 106
106 106 106
106 106 106
106 106 106
106 106 106
107 107 107
107 107 107
107 107 107
107 107 107
107 107 107
107 107 107
107 107 107
106 106 106
105 105 105
105 105 105
104 104 104
104 104 104
103 103 103
103 103 103
102 102 102
101 101 101
101 101 101
102 102 102
102 102 102
102 102 102
102 102 102
101 101 101
100 100 100
100 100 100
100 100 100
100 100 100
100 100 100
100 100 100
99 99 99
98 98 98
97 97 97
97 97 97
96 96 96
94 94 94
93 93 93
93 93 93
92 92 92
91 91 91
90 90 90
88 88 88
88 88 88
88 88 88
88 88 88
88 88 88
88 88 88
88 88 88
89 89 89
89 89 89
88 88 88
88 88 88
133 133 133
136 136 136
136 136 136
131 131 131
125 125 125
121 121 121
116 116 116
109 109 109
107 107 107
106 106 106
106 106 106
105 105 105
106 106 106
107 107 107
107 107 107
107 107 107
108 108 108
108 108 108
107 107 107
106 106 106
105 105 105
105 105 105
104 104 104
103 103 103
103 103 103
103 103 103
102 102 102
102 102 102
102 102 102
101 101 101
101 101 101
102 102 102
102 102 102
102 102 102
102 102 102
101 101 101
100 100 100
100 100 100
101 101 101
101 101 101
101 101 101
102 102 102
101 101 101
100 100 100
99 99 99
99 99 99
98 98 98
97 97 97
96 96 96
95 95 95
94 94 94
93 93 93
93 93 93
91 91 91
90 90 90
90 90 90
90 90 90
89 89 89
89 89 89
89 89 89
90 90 90
90 90 90
89 89 89
88 88 88
134 134 134
137 137 137
136 136 136
130 130 130
124 124 124
121 121 121
116 116 116
109 109 109
107 107 107
108 108 108
107 107 107
106 106 106
105 105 105
106 106 106
106 106 106
106 106 106
107 107 107
106 106 106
105 105 105
103 103 103
103 103 103
102 102 102
102 102 102
101 101 101
100 100 100
101 101 101
100 100 100
100 100 100
100 100 100
100 100 100
100 100 100
101 101 101
102 102 102
102 102 102
102 102 102
101 101 101
101 101 101
101 101 101
101 101 101
100 100 100
101 101 101
101 101 101
102 102 102
101 101 101
100 100 100
99 99 99
99 99 99
98 98 98
97 97 97
97 97 97
96 96 96
95 95 95
96 96 96
97 97 97
92 92 92
91 91 91
93 93 93
93 93 93
91 91 91
91 91 91
91 91 91
91 91 91
89 89 89
88 88 88
133 133 133
136 136 136
135 135 135
130 130 130
123 123 123
120 120 120
115 115 115
109 109 109
108 108 108
108 108 108
107 107 107
105 105 105
103 103 103
103 103 103
104 104 104
104 104 104
104 104 104
103 103 103
102 102 102
101 101 101
101 101 101
100 100 100
100 100 100
99 99 99
98 98 98
98 98 98
97 97 97
97 97 97
97 97 97
98 98 98
99 99 99
101 101 101
102 102 102
101 101 101
101 101 101
101 101 101
101 101 101
101 101 101
100 100 100
99 99 99
99 99 99
99 99 99
99 99 99
100 100 100
100 100 100
98 98 98
98 98 98
97 97 97
97 97 97
96 96 96
96 96 96
94 94 94
96 96 96
99 99 99
97 97 97
93 93 93
93 93 93
96 96 96
96 96 96
95 95 95
93 93 93
93 93 93
90 90 90
89 89 89
132 132 132
135 135 135
134 134 134
129 129 129
122 122 122
118 118 118
113 113 113
109 109 109
108 108 108
108 108 108
107 107 107
104 104 104
103 103 103
103 103 103
103 103 103
102 102 102
101 101 101
101 101 101
101 101 101
101 101 101
100 100 100
99 99 99
98 98 98
98 98 98
97 97 97
97 97 97
95 95 95
95 95 95
95 95 95
97 97 97
98 98 98
100 100 100
101 101 101
101 101 101
101 101 101
101 101 101
102 102 102
101 101 101
98 98 98
98 98 98
99 99 99
98 98 98
98 98 98
100 100 100
100 100 100
99 99 99
99 99 99
97 97 97
97 97 97
96 96 96
97 97 97
94 94 94
93 93 93
96 96 96
99 99 99
97 97 97
94 94 94
95 95 95
98 98 98
99 99 99
97 97 97
95 95 95
93 93 93
90 90 90
132 132 132
136 136 136
134 134 134
129 129 129
121 121 121
116 116 116
112 112 112
109 109 109
109 109 109
109 109 109
108 108 108
105 105 105
103 103 103
103 103 103
102 102 102
101 101 101
100 100 100
99 99 99
100 100 100
100 100 100
99 99 99
99 99 99
98 98 98
97 97 97
96 96 96
96 96 96
96 96 96
94 94 94
95 95 95
97 97 97
99 99 99
100 100 100
101 101 101
100 100 100
101 101 101
102 102 102
103 103 103
102 102 102
98 98 98
98 98 98
100 100 100
98 98 98
98 98 98
102 102 102
101 101 101
101 101 101
100 100 100
94 94 94
94 94 94
95 95 95
96 96 96
96 96 96
94 94 94
94 94 94
97 97 97
99 99 99
98 98 98
95 95 95
95 95 95
98 98 98
99 99 99
98 98 98
95 95 95
92 92 92
132 132 132
135 135 135
133 133 133
128 128 128
120 120 120
114 114 114
109 109 109
108 108 108
109 109 109
109 109 109
108 108 108
106 106 106
104 104 104
103 103 103
102 102 102
100 100 100
99 99 99
99 99 99
100 100 100
100 100 100
99 99 99
99 99 99
99 99 99
98 98 98
97 97 97
96 96 96
94 94 94
94 94 94
96 96 96
99 99 99
101 101 101
101 101 101
102 102 102
100 100 100
101 101 101
103 103 103
106 106 106
105 105 105
102 102 102
101 101 101
102 102 102
103 103 103
103 103 103
104 104 104
103 103 103
102 102 102
100 100 100
97 97 97
93 93 93
91 91 91
91 91 91
92 92 92
92 92 92
92 92 92
94 94 94
94 94 94
95 95 95
97 97 97
94 94 94
96 96 96
99 99 99
99 99 99
98 98 98
94 94 94
132 132 132
135 135 135
133 133 133
128 128 128
118 118 118
112 112 112
109 109 109
109 109 109
111 111 111
111 111 111
110 110 110
107 107 107
105 105 105
102 102 102
101 101 101
100 100 100
98 98 98
98 98 98
97 97 97
98 98 98
97 97 97
97 97 97
98 98 98
96 96 96
95 95 95
96 96 96
95 95 95
92 92 92
95 95 95
100 100 100
101 101 101
100 100 100
100 100 100
100 100 100
101 101 101
104 104 104
107 107 107
107 107 107
106 106 106
106 106 106
106 106 106
106 106 106
105 105 105
103 103 103
101 101 101
101 101 101
100 100 100
99 99 99
93 93 93
91 91 91
92 92 92
93 93 93
93 93 93
95 95 95
97 97 97
97 97 97
94 94 94
92 92 92
95 95 95
95 95 95
98 98 98
99 99 99
99 99 99
96 96 96
134 134 134
135 135 135
131 131 131
126 126 126
117 117 117
111 111 111
110 110 110
110 110 110
112 112 112
111 111 111
108 108 108
105 105 105
101 101 101
99 99 99
99 99 99
98 98 98
99 99 99
99 99 99
100 100 100
100 100 100
99 99 99
98 98 98
97 97 97
96 96 96
92 92 92
92 92 92
93 93 93
94 94 94
95 95 95
99 99 99
100 100 100
99 99 99
98 98 98
99 99 99
101 101 101
104 104 104
107 107 107
108 108 108
109 109 109
107 107 107
105 105 105
103 103 103
102 102 102
100 100 100
99 99 99
98 98 98
96 96 96
94 94 94
89 89 89
90 90 90
91 91 91
92 92 92
95 95 95
100 100 100
103 103 103
104 104 104
102 102 102
96 96 96
94 94 94
95 95 95
98 98 98
98 98 98
99 99 99
97 97 97
136 136 136
135 135 135
130 130 130
126 126 126
118 118 118
113 113 113
111 111 111
110 110 110
108 108 108
107 107 107
107 107 107
106 106 106
105 105 105
105 105 105
104 104 104
101 101 101
99 99 99
98 98 98
97 97 97
98 98 98
97 97 97
98 98 98
98 98 98
98 98 98
96 96 96
93 93 93
93 93 93
94 94 94
96 96 96
98 98 98
99 99 99
99 99 99
99 99 99
100 100 100
101 101 101
104 104 104
107 107 107
108 108 108
108 108 108
106 106 106
103 103 103
102 102 102
101 101 101
100 100 100
99 99 99
97 97 97
95 95 95
92 92 92
86 86 86
87 87 87
89 89 89
91 91 91
93 93 93
98 98 98
103 103 103
107 107 107
106 106 106
101 101 101
96 96 96
95 95 95
97 97 97
98 98 98
98 98 98
97 97 97
137 137 137
131 131 131
127 127 127
125 125 125
119 119 119
115 115 115
110 110 110
107 107 107
106 106 106
105 105 105
110 110 110
114 114 114
111 111 111
107 107 107
104 104 104
99 99 99
96 96 96
96 96 96
94 94 94
94 94 94
96 96 96
99 99 99
100 100 100
102 102 102
101 101 101
98 98 98
95 95 95
94 94 94
96 96 96
96 96 96
97 97 97
98 98 98
99 99 99
100 100 100
103 103 103
106 106 106
107 107 107
108 108 108
107 107 107
103 103 103
102 102 102
101 101 101
101 101 101
100 100 100
100 100 100
99 99 99
97 97 97
95 95 95
92 92 92
90 90 90
92 92 92
93 93 93
98 98 98
100 100 100
102 102 102
106 106 106
106 106 106
103 103 103
98 98 98
96 96 96
96 96 96
97 97 97
99 99 99
98 98 98
136 136 136
131 131 131
129 129 129
127 127 127
120 120 120
116 116 116
109 109 109
104 104 104
103 103 103
104 104 104
111 111 111
114 114 114
109 109 109
104 104 104
102 102 102
99 99 99
100 100 100
99 99 99
97 97 97
97 97 97
97 97 97
99 99 99
99 99 99
100 100 100
102 102 102
101 101 101
97 97 97
96 96 96
97 97 97
97 97 97
99 99 99
99 99 99
100 100 100
102 102 102
105 105 105
107 107 107
108 108 108
108 108 108
105 105 105
100 100 100
100 100 100
98 98 98
96 96 96
96 96 96
98 98 98
102 102 102
105 105 105
103 103 103
100 100 100
96 96 96
97 97 97
97 97 97
100 100 100
103 103 103
102 102 102
103 103 103
105 105 105
104 104 104
100 100 100
97 97 97
94 94 94
94 94 94
100 100 100
99 99 99
135 135 135
132 132 132
131 131 131
125 125 125
118 118 118
115 115 115
109 109 109
103 103 103
101 101 101
103 103 103
105 105 105
106 106 106
103 103 103
100 100 100
100 100 100
98 98 98
102 102 102
101 101 101
100 100 100
100 100 100
99 99 99
99 99 99
97 97 97
96 96 96
97 97 97
99 99 99
99 99 99
98 98 98
98 98 98
98 98 98
99 99 99
99 99 99
100 100 100
101 101 101
105 105 105
106 106 106
108 108 108
107 107 107
103 103 103
97 97 97
97 97 97
94 94 94
93 93 93
92 92 92
94 94 94
96 96 96
102 102 102
102 102 102
102 102 102
100 100 100
103 103 103
101 101 101
98 98 98
99 99 99
101 101 101
100 100 100
100 100 100
102 102 102
102 102 102
100 100 100
97 97 97
96 96 96
97 97 97
100 100 100
132 132 132
131 131 131
130 130 130
124 124 124
118 118 118
114 114 114
110 110 110
104 104 104
103 103 103
101 101 101
98 98 98
97 97 97
97 97 97
97 97 97
99 99 99
97 97 97
101 101 101
102 102 102
100 100 100
100 100 100
98 98 98
97 97 97
97 97 97
95 95 95
97 97 97
99 99 99
100 100 100
100 100 100
98 98 98
99 99 99
100 100 100
100 100 100
100 100 100
102 102 102
105 105 105
106 106 106
108 108 108
106 106 106
101 101 101
97 97 97
96 96 96
93 93 93
94 94 94
92 92 92
93 93 93
96 96 96
97 97 97
99 99 99
99 99 99
98 98 98
100 100 100
101 101 101
101 101 101
96 96 96
94 94 94
95 95 95
95 95 95
98 98 98
101 101 101
101 101 101
100 100 100
98 98 98
100 100 100
100 100 100
131 131 131
132 132 132
132 132 132
125 125 125
117 117 117
114 114 114
110 110 110
103 103 103
101 101 101
99 99 99
96 96 96
96 96 96
97 97 97
98 98 98
100 100 100
101 101 101
101 101 101
101 101 101
100 100 100
99 99 99
97 97 97
96 96 96
95 95 95
96 96 96
95 95 95
97 97 97
104 104 104
102 102 102
99 99 99
99 99 99
100 100 100
101 101 101
101 101 101
103 103 103
105 105 105
106 106 106
108 108 108
105 105 105
100 100 100
98 98 98
95 95 95
94 94 94
94 94 94
92 92 92
93 93 93
95 95 95
96 96 96
97 97 97
96 96 96
96 96 96
98 98 98
100 100 100
101 101 101
97 97 97
92 92 92
92 92 92
94 94 94
96 96 96
100 100 100
100 100 100
99 99 99
97 97 97
99 99 99
101 101 101
127 127 127
131 131 131
134 134 134
128 128 128
118 118 118
114 114 114
108 108 108
103 103 103
101 101 101
100 100 100
100 100 100
99 99 99
99 99 99
100 100 100
101 101 101
102 102 102
101 101 101
100 100 100
98 98 98
97 97 97
95 95 95
95 95 95
94 94 94
96 96 96
96 96 96
100 100 100
107 107 107
103 103 103
99 99 99
99 99 99
100 100 100
102 102 102
103 103 103
103 103 103
104 104 104
106 106 106
107 107 107
105 105 105
100 100 100
97 97 97
96 96 96
93 93 93
93 93 93
93 93 93
92 92 92
93 93 93
94 94 94
96 96 96
96 96 96
96 96 96
96 96 96
98 98 98
99 99 99
96 96 96
93 93 93
93 93 93
93 93 93
95 95 95
99 99 99
101 101 101
99 99 99
99 99 99
100 100 100
100 100 100
120 120 120
127 127 127
132 132 132
129 129 129
119 119 119
115 115 115
110 110 110
104 104 104
103 103 103
102 102 102
102 102 102
101 101 101
100 100 100
101 101 101
102 102 102
101 101 101
101 101 101
100 100 100
98 98 98
97 97 97
96 96 96
95 95 95
94 94 94
95 95 95
98 98 98
104 104 104
107 107 107
103 103 103
100 100 100
100 100 100
101 101 101
103 103 103
104 104 104
104 104 104
104 104 104
106 106 106
107 107 107
105 105 105
100 100 100
97 97 97
95 95 95
93 93 93
92 92 92
92 92 92
92 92 92
91 91 91
92 92 92
94 94 94
95 95 95
96 96 96
97 97 97
98 98 98
99 99 99
98 98 98
95 95 95
94 94 94
95 95 95
97 97 97
98 98 98
100 100 100
99 99 99
99 99 99
99 99 99
100 100 100
114 114 114
124 124 124
129 129 129
126 126 126
119 119 119
115 115 115
110 110 110
104 104 104
103 103 103
103 103 103
103 103 103
102 102 102
100 100 100
99 99 99
100 100 100
100 100 100
99 99 99
99 99 99
98 98 98
97 97 97
97 97 97
96 96 96
96 96 96
97 97 97
102 102 102
107 107 107
107 107 107
103 103 103
100 100 100
101 101 101
102 102 102
103 103 103
103 103 103
104 104 104
105 105 105
105 105 105
106 106 106
105 105 105
102 102 102
99 99 99
97 97 97
95 95 95
93 93 93
93 93 93
92 92 92
92 92 92
92 92 92
93 93 93
94 94 94
94 94 94
95 95 95
97 97 97
98 98 98
98 98 98
97 97 97
95 95 95
95 95 95
96 96 96
97 97 97
99 99 99
99 99 99
100 100 100
100 100 100
99 99 99
113 113 113
125 125 125
128 128 128
125 125 125
118 118 118
113 113 113
109 109 109
105 105 105
103 103 103
104 104 104
105 105 105
105 105 105
104 104 104
103 103 103
102 102 102
102 102 102
102 102 102
101 101 101
100 100 100
99 99 99
99 99 99
99 99 99
99 99 99
102 102 102
105 105 105
108 108 108
106 106 106
103 103 103
101 101 101
102 102 102
103 103 103
103 103 103
102 102 102
103 103 103
105 105 105
105 105 105
106 106 106
105 105 105
104 104 104
101 101 101
99 99 99
97 97 97
95 95 95
95 95 95
94 94 94
94 94 94
93 93 93
93 93 93
94 94 94
94 94 94
95 95 95
96 96 96
97 97 97
97 97 97
97 97 97
96 96 96
96 96 96
95 95 95
97 97 97
99 99 99
98 98 98
99 99 99
99 99 99
98 98 98
115 115 115
125 125 125
128 128 128
123 123 123
117 117 117
113 113 113
110 110 110
106 106 106
105 105 105
105 105 105
105 105 105
105 105 105
106 106 106
106 106 106
105 105 105
105 105 105
105 105 105
104 104 104
102 102 102
102 102 102
102 102 102
103 103 103
104 104 104
105 105 105
106 106 106
107 107 107
106 106 106
103 103 103
103 103 103
104 104 104
103 103 103
102 102 102
102 102 102
103 103 103
104 104 104
105 105 105
105 105 105
105 105 105
103 103 103
102 102 102
101 101 101
99 99 99
97 97 97
97 97 97
97 97 97
96 96 96
96 96 96
96 96 96
96 96 96
95 95 95
96 96 96
97 97 97
97 97 97
97 97 97
97 97 97
97 97 97
96 96 96
96 96 96
97 97 97
99 99 99
98 98 98
99 99 99
99 99 99
98 98 98
116 116 116
124 124 124
126 126 126
121 121 121
116 116 116
113 113 113
110 110 110
107 107 107
106 106 106
105 105 105
104 104 104
105 105 105
107 107 107
107 107 107
107 107 107
107 107 107
106 106 106
105 105 105
105 105 105
104 104 104
105 105 105
107 107 107
105 105 105
105 105 105
106 106 106
108 108 108
106 106 106
103 103 103
103 103 103
105 105 105
104 104 104
102 102 102
103 103 103
104 104 104
104 104 104
104 104 104
106 106 106
106 106 106
104 104 104
101 101 101
102 102 102
101 101 101
98 98 98
99 99 99
99 99 99
99 99 99
98 98 98
98 98 98
98 98 98
98 98 98
98 98 98
98 98 98
99 99 99
99 99 99
98 98 98
97 97 97
96 96 96
97 97 97
99 99 99
99 99 99
98 98 98
99 99 99
100 100 100
99 99 99
117 117 117
124 124 124
124 124 124
120 120 120
116 116 116
112 112 112
110 110 110
107 107 107
106 106 106
107 107 107
106 106 106
106 106 106
106 106 106
107 107 107
107 107 107
107 107 107
106 106 106
107 107 107
107 107 107
107 107 107
107 107 107
106 106 106
105 105 105
106 106 106
107 107 107
107 107 107
104 104 104
103 103 103
103 103 103
104 104 104
104 104 104
103 103 103
102 102 102
103 103 103
104 104 104
105 105 105
106 106 106
108 108 108
105 105 105
102 102 102
101 101 101
101 101 101
100 100 100
100 100 100
100 100 100
100 100 100
99 99 99
98 98 98
98 98 98
99 99 99
99 99 99
99 99 99
100 100 100
100 100 100
99 99 99
98 98 98
98 98 98
98 98 98
99 99 99
99 99 99
99 99 99
100 100 100
100 100 100
99 99 99
119 119 119
124 124 124
124 124 124
121 121 121
116 116 116
113 113 113
110 110 110
108 108 108
107 107 107
106 106 106
106 106 106
106 106 106
107 107 107
107 107 107
107 107 107
107 107 107
107 107 107
107 107 107
107 107 107
107 107 107
107 107 107
107 107 107
107 107 107
107 107 107
107 107 107
106 106 106
103 103 103
102 102 102
102 102 102
103 103 103
103 103 103
102 102 102
101 101 101
101 101 101
103 103 103
103 103 103
105 105 105
108 108 108
107 107 107
103 103 103
102 102 102
100 100 100
99 99 99
101 101 101
101 101 101
101 101 101
100 100 100
100 100 100
100 100 100
100 100 100
100 100 100
100 100 100
101 101 101
101 101 101
101 101 101
100 100 100
99 99 99
99 99 99
99 99 99
99 99 99
99 99 99
101 101 101
101 101 101
99 99 99
120 120 120
124 124 124
124 124 124
120 120 120
115 115 115
112 112 112
110 110 110
108 108 108
107 107 107
107 107 107
106 106 106
106 106 106
106 106 106
106 106 106
107 107 107
107 107 107
108 108 108
108 108 108
107 107 107
108 108 108
108 108 108
108 108 108
109 109 109
108 108 108
107 107 107
106 106 106
104 104 104
101 101 101
101 101 101
101 101 101
102 102 102
101 101 101
101 101 101
100 100 100
101 101 101
103 103 103
104 104 104
106 106 106
105 105 105
104 104 104
104 104 104
102 102 102
98 98 98
99 99 99
100 100 100
101 101 101
101 101 101
102 102 102
102 102 102
102 102 102
102 102 102
102 102 102
103 103 103
103 103 103
102 102 102
101 101 101
99 99 99
98 98 98
99 99 99
100 100 100
100 100 100
102 102 102
102 102 102
98 98 98
122 122 122
123 123 123
122 122 122
118 118 118
115 115 115
113 113 113
110 110 110
109 109 109
108 108 108
108 108 108
107 107 107
108 108 108
108 108 108
108 108 108
108 108 108
108 108 108
108 108 108
108 108 108
108 108 108
108 108 108
109 109 109
109 109 109
110 110 110
108 108 108
107 107 107
108 108 108
105 105 105
101 101 101
99 99 99
98 98 98
99 99 99
101 101 101
101 101 101
100 100 100
101 101 101
103 103 103
105 105 105
105 105 105
102 102 102
100 100 100
104 104 104
103 103 103
101 101 101
100 100 100
100 100 100
101 101 101
102 102 102
102 102 102
103 103 103
103 103 103
103 103 103
103 103 103
103 103 103
103 103 103
103 103 103
101 101 101
100 100 100
99 99 99
99 99 99
100 100 100
101 101 101
103 103 103
102 102 102
98 98 98
123 123 123
123 123 123
120 120 120
116 116 116
115 115 115
114 114 114
112 112 112
110 110 110
109 109 109
109 109 109
109 109 109
110 110 110
110 110 110
109 109 109
109 109 109
109 109 109
108 108 108
108 108 108
108 108 108
109 109 109
110 110 110
110 110 110
110 110 110
108 108 108
108 108 108
110 110 110
108 108 108
102 102 102
95 95 95
94 94 94
97 97 97
101 101 101
102 102 102
101 101 101
102 102 102
106 106 106
107 107 107
104 104 104
100 100 100
97 97 97
100 100 100
102 102 102
102 102 102
102 102 102
102 102 102
102 102 102
103 103 103
103 103 103
103 103 103
104 104 104
104 104 104
104 104 104
104 104 104
104 104 104
103 103 103
102 102 102
101 101 101
100 100 100
100 100 100
100 100 100
101 101 101
104 104 104
102 102 102
99 99 99
124 124 124
123 123 123
120 120 120
116 116 116
116 116 116
116 116 116
113 113 113
111 111 111
110 110 110
109 109 109
110 110 110
109 109 109
110 110 110
109 109 109
108 108 108
108 108 108
108 108 108
108 108 108
108 108 108
110 110 110
112 112 112
111 111 111
112 112 112
110 110 110
110 110 110
112 112 112
111 111 111
103 103 103
94 94 94
92 92 92
99 99 99
104 104 104
105 105 105
103 103 103
104 104 104
108 108 108
109 109 109
106 106 106
100 100 100
96 96 96
98 98 98
99 99 99
101 101 101
103 103 103
103 103 103
104 104 104
104 104 104
104 104 104
104 104 104
104 104 104
105 105 105
105 105 105
105 105 105
104 104 104
104 104 104
103 103 103
102 102 102
101 101 101
101 101 101
101 101 101
102 102 102
104 104 104
102 102 102
101 101 101
126 126 126
124 124 124
120 120 120
117 117 117
117 117 117
117 117 117
115 115 115
112 112 112
111 111 111
110 110 110
110 110 110
109 109 109
109 109 109
108 108 108
108 108 108
108 108 108
107 107 107
108 108 108
109 109 109
111 111 111
112 112 112
112 112 112
113 113 113
112 112 112
111 111 111
112 112 112
112 112 112
104 104 104
95 95 95
95 95 95
103 103 103
109 109 109
108 108 108
104 104 104
104 104 104
109 109 109
111 111 111
108 108 108
103 103 103
99 99 99
99 99 99
99 99 99
100 100 100
102 102 102
103 103 103
104 104 104
104 104 104
104 104 104
104 104 104
104 104 104
105 105 105
105 105 105
105 105 105
104 104 104
104 104 104
103 103 103
102 102 102
102 102 102
102 102 102
102 102 102
103 103 103
105 105 105
103 103 103
102 102 102
129 129 129
126 126 126
121 121 121
118 118 118
118 118 118
118 118 118
116 116 116
113 113 113
112 112 112
111 111 111
110 110 110
109 109 109
108 108 108
108 108 108
108 108 108
107 107 107
107 107 107
108 108 108
110 110 110
112 112 112
112 112 112
111 111 111
113 113 113
113 113 113
113 113 113
113 113 113
111 111 111
105 105 105
101 101 101
103 103 103
110 110 110
113 113 113
110 110 110
105 105 105
105 105 105
109 109 109
112 112 112
111 111 111
107 107 107
102 102 102
100 100 100
100 100 100
99 99 99
101 101 101
101 101 101
102 102 102
104 104 104
103 103 103
103 103 103
104 104 104
104 104 104
104 104 104
104 104 104
103 103 103
103 103 103
103 103 103
103 103 103
103 103 103
104 104 104
103 103 103
103 103 103
106 106 106
107 107 107
102 102 102
130 130 130
129 129 129
123 123 123
119 119 119
119 119 119
118 118 118
117 117 117
115 115 115
113 113 113
111 111 111
110 110 110
109 109 109
108 108 108
108 108 108
108 108 108
107 107 107
108 108 108
110 110 110
111 111 111
112 112 112
110 110 110
108 108 108
109 109 109
111 111 111
112 112 112
113 113 113
111 111 111
107 107 107
107 107 107
110 110 110
115 115 115
115 115 115
110 110 110
105 105 105
105 105 105
108 108 108
111 111 111
110 110 110
107 107 107
104 104 104
101 101 101
101 101 101
99 99 99
99 99 99
100 100 100
101 101 101
103 103 103
104 104 104
103 103 103
103 103 103
103 103 103
103 103 103
103 103 103
103 103 103
103 103 103
104 104 104
104 104 104
104 104 104
105 105 105
104 104 104
104 104 104
107 107 107
107 107 107
102 102 102
130 130 130
130 130 130
126 126 126
121 121 121
120 120 120
119 119 119
118 118 118
116 116 116
114 114 114
112 112 112
110 110 110
109 109 109
108 108 108
108 108 108
107 107 107
107 107 107
109 109 109
110 110 110
110 110 110
110 110 110
108 108 108
106 106 106
107 107 107
110 110 110
112 112 112
113 113 113
111 111 111
109 109 109
111 111 111
115 115 115
116 116 116
114 114 114
109 109 109
105 105 105
105 105 105
106 106 106
107 107 107
107 107 107
105 105 105
104 104 104
103 103 103
101 101 101
99 99 99
98 98 98
98 98 98
100 100 100
101 101 101
103 103 103
104 104 104
103 103 103
103 103 103
102 102 102
103 103 103
103 103 103
103 103 103
103 103 103
104 104 104
105 105 105
106 106 106
106 106 106
106 106 106
107 107 107
106 106 106
101 101 101
128 128 128
131 131 131
128 128 128
122 122 122
120 120 120
119 119 119
118 118 118
117 117 117
115 115 115
113 113 113
110 110 110
109 109 109
108 108 108
108 108 108
108 108 108
108 108 108
110 110 110
110 110 110
109 109 109
107 107 107
107 107 107
107 107 107
108 108 108
109 109 109
112 112 112
114 114 114
113 113 113
113 113 113
115 115 115
116 116 116
114 114 114
111 111 111
106 106 106
104 104 104
105 105 105
105 105 105
105 105 105
107 107 107
106 106 106
106 106 106
106 106 106
103 103 103
99 99 99
98 98 98
99 99 99
100 100 100
101 101 101
102 102 102
104 104 104
105 105 105
104 104 104
103 103 103
102 102 102
103 103 103
104 104 104
104 104 104
105 105 105
107 107 107
107 107 107
107 107 107
108 108 108
107 107 107
106 106 106
101 101 101
126 126 126
130 130 130
128 128 128
123 123 123
119 119 119
118 118 118
118 118 118
116 116 116
116 116 116
113 113 113
110 110 110
109 109 109
108 108 108
108 108 108
109 109 109
109 109 109
109 109 109
109 109 109
107 107 107
106 106 106
107 107 107
108 108 108
111 111 111
111 111 111
112 112 112
113 113 113
113 113 113
117 117 117
118 118 118
116 116 116
113 113 113
110 110 110
106 106 106
105 105 105
106 106 106
106 106 106
107 107 107
106 106 106
106 106 106
106 106 106
106 106 106
104 104 104
100 100 100
98 98 98
99 99 99
100 100 100
101 101 101
101 101 101
103 103 103
105 105 105
105 105 105
104 104 104
104 104 104
104 104 104
104 104 104
105 105 105
107 107 107
108 108 108
108 108 108
109 109 109
109 109 109
108 108 108
106 106 106
101 101 101
125 125 125
129 129 129
127 127 127
123 123 123
119 119 119
118 118 118
117 117 117
116 116 116
115 115 115
113 113 113
110 110 110
109 109 109
109 109 109
109 109 109
109 109 109
109 109 109
109 109 109
108 108 108
107 107 107
107 107 107
108 108 108
109 109 109
112 112 112
114 114 114
113 113 113
113 113 113
113 113 113
117 117 117
119 119 119
116 116 116
114 114 114
112 112 112
109 109 109
109 109 109
109 109 109
108 108 108
108 108 108
108 108 108
107 107 107
107 107 107
106 106 106
104 104 104
101 101 101
99 99 99
99 99 99
100 100 100
102 102 102
101 101 101
101 101 101
104 104 104
105 105 105
105 105 105
105 105 105
105 105 105
106 106 106
106 106 106
108 108 108
109 109 109
110 110 110
110 110 110
109 109 109
108 108 108
105 105 105
100 100 100
125 125 125
128 128 128
127 127 127
124 124 124
120 120 120
118 118 118
116 116 116
116 116 116
115 115 115
113 113 113
111 111 111
109 109 109
109 109 109
108 108 108
108 108 108
109 109 109
109 109 109
109 109 109
108 108 108
108 108 108
108 108 108
109 109 109
112 112 112
114 114 114
115 115 115
114 114 114
114 114 114
115 115 115
117 117 117
115 115 115
114 114 114
114 114 114
112 112 112
111 111 111
110 110 110
108 108 108
108 108 108
109 109 109
108 108 108
106 106 106
106 106 106
104 104 104
102 102 102
100 100 100
99 99 99
100 100 100
100 100 100
101 101 101
101 101 101
102 102 102
104 104 104
104 104 104
105 105 105
107 107 107
107 107 107
107 107 107
109 109 109
109 109 109
110 110 110
111 111 111
110 110 110
108 108 108
105 105 105
102 102 102
125 125 125
127 127 127
128 128 128
126 126 126
120 120 120
118 118 118
117 117 117
115 115 115
115 115 115
113 113 113
111 111 111
109 109 109
108 108 108
108 108 108
107 107 107
109 109 109
111 111 111
111 111 111
110 110 110
110 110 110
110 110 110
111 111 111
114 114 114
114 114 114
115 115 115
115 115 115
115 115 115
116 116 116
116 116 116
115 115 115
114 114 114
114 114 114
112 112 112
110 110 110
109 109 109
107 107 107
108 108 108
107 107 107
107 107 107
106 106 106
105 105 105
105 105 105
103 103 103
102 102 102
101 101 101
102 102 102
100 100 100
101 101 101
101 101 101
102 102 102
103 103 103
103 103 103
103 103 103
105 105 105
108 108 108
109 109 109
110 110 110
109 109 109
111 111 111
111 111 111
111 111 111
110 110 110
107 107 107
106 106 106
126 126 126
127 127 127
128 128 128
126 126 126
120 120 120
117 117 117
118 118 118
116 116 116
114 114 114
114 114 114
112 112 112
109 109 109
108 108 108
105 105 105
105 105 105
109 109 109
112 112 112
112 112 112
113 113 113
114 114 114
114 114 114
114 114 114
115 115 115
115 115 115
116 116 116
116 116 116
115 115 115
115 115 115
115 115 115
113 113 113
112 112 112
112 112 112
110 110 110
109 109 109
107 107 107
107 107 107
106 106 106
106 106 106
105 105 105
105 105 105
106 106 106
105 105 105
104 104 104
103 103 103
104 104 104
104 104 104
102 102 102
101 101 101
101 101 101
101 101 101
103 103 103
103 103 103
103 103 103
104 104 104
107 107 107
109 109 109
109 109 109
109 109 109
111 111 111
112 112 112
113 113 113
112 112 112
109 109 109
110 110 110
127 127 127
128 128 128
128 128 128
127 127 127
122 122 122
118 118 118
118 118 118
117 117 117
115 115 115
115 115 115
113 113 113
109 109 109
106 106 106
103 103 103
104 104 104
110 110 110
113 113 113
113 113 113
115 115 115
117 117 117
117 117 117
116 116 116
116 116 116
116 116 116
116 116 116
117 117 117
116 116 116
115 115 115
114 114 114
111 111 111
109 109 109
107 107 107
106 106 106
107 107 107
107 107 107
105 105 105
106 106 106
105 105 105
105 105 105
105 105 105
105 105 105
106 106 106
105 105 105
105 105 105
106 106 106
105 105 105
105 105 105
103 103 103
103 103 103
101 101 101
101 101 101
103 103 103
104 104 104
104 104 104
107 107 107
108 108 108
109 109 109
109 109 109
111 111 111
113 113 113
115 115 115
112 112 112
110 110 110
112 112 112
128 128 128
128 128 128
128 128 128
127 127 127
124 124 124
120 120 120
117 117 117
118 118 118
115 115 115
114 114 114
114 114 114
109 109 109
106 106 106
104 104 104
104 104 104
109 109 109
112 112 112
114 114 114
115 115 115
118 118 118
118 118 118
116 116 116
115 115 115
114 114 114
114 114 114
114 114 114
114 114 114
112 112 112
109 109 109
107 107 107
105 105 105
104 104 104
104 104 104
105 105 105
105 105 105
104 104 104
105 105 105
106 106 106
105 105 105
105 105 105
105 105 105
106 106 106
106 106 106
106 106 106
107 107 107
108 108 108
106 106 106
105 105 105
104 104 104
103 103 103
101 101 101
101 101 101
104 104 104
104 104 104
106 106 106
108 108 108
109 109 109
110 110 110
113 113 113
115 115 115
116 116 116
111 111 111
112 112 112
114 114 114
127 127 127
127 127 127
127 127 127
127 127 127
126 126 126
123 123 123
118 118 118
119 119 119
117 117 117
114 114 114
115 115 115
111 111 111
107 107 107
106 106 106
105 105 105
107 107 107
110 110 110
112 112 112
112 112 112
113 113 113
114 114 114
113 113 113
114 114 114
115 115 115
113 113 113
112 112 112
110 110 110
110 110 110
106 106 106
103 103 103
102 102 102
102 102 102
101 101 101
101 101 101
101 101 101
102 102 102
103 103 103
103 103 103
103 103 103
104 104 104
104 104 104
105 105 105
105 105 105
107 107 107
108 108 108
108 108 108
107 107 107
105 105 105
104 104 104
103 103 103
101 101 101
101 101 101
102 102 102
104 104 104
105 105 105
108 108 108
109 109 109
111 111 111
113 113 113
116 116 116
115 115 115
112 112 112
113 113 113
114 114 114
126 126 126
127 127 127
127 127 127
127 127 127
127 127 127
124 124 124
119 119 119
118 118 118
120 120 120
116 116 116
115 115 115
113 113 113
109 109 109
107 107 107
106 106 106
104 104 104
105 105 105
106 106 106
108 108 108
109 109 109
110 110 110
110 110 110
110 110 110
113 113 113
116 116 116
116 116 116
114 114 114
112 112 112
109 109 109
106 106 106
104 104 104
103 103 103
102 102 102
101 101 101
102 102 102
102 102 102
102 102 102
103 103 103
104 104 104
105 105 105
105 105 105
105 105 105
104 104 104
105 105 105
106 106 106
106 106 106
105 105 105
105 105 105
104 104 104
102 102 102
101 101 101
101 101 101
101 101 101
103 103 103
105 105 105
108 108 108
110 110 110
112 112 112
113 113 113
116 116 116
114 114 114
112 112 112
113 113 113
114 114 114
123 123 123
124 124 124
126 126 126
127 127 127
128 128 128
126 126 126
121 121 121
118 118 118
121 121 121
118 118 118
115 115 115
115 115 115
112 112 112
109 109 109
107 107 107
104 104 104
102 102 102
102 102 102
104 104 104
104 104 104
107 107 107
107 107 107
107 107 107
107 107 107
110 110 110
113 113 113
113 113 113
112 112 112
111 111 111
109 109 109
108 108 108
107 107 107
106 106 106
104 104 104
103 103 103
104 104 104
104 104 104
103 103 103
104 104 104
104 104 104
103 103 103
102 102 102
102 102 102
101 101 101
103 103 103
103 103 103
103 103 103
104 104 104
103 103 103
102 102 102
102 102 102
101 101 101
101 101 101
103 103 103
106 106 106
109 109 109
112 112 112
113 113 113
115 115 115
115 115 115
114 114 114
112 112 112
113 113 113
112 112 112
119 119 119
121 121 121
123 123 123
127 127 127
128 128 128
127 127 127
123 123 123
117 117 117
120 120 120
120 120 120
117 117 117
114 114 114
114 114 114
112 112 112
109 109 109
105 105 105
102 102 102
102 102 102
102 102 102
102 102 102
102 102 102
102 102 102
105 105 105
106 106 106
107 107 107
110 110 110
110 110 110
108 108 108
107 107 107
106 106 106
104 104 104
103 103 103
103 103 103
102 102 102
101 101 101
100 100 100
101 101 101
99 99 99
100 100 100
100 100 100
100 100 100
99 99 99
98 98 98
97 97 97
99 99 99
100 100 100
100 100 100
102 102 102
102 102 102
103 103 103
102 102 102
102 102 102
102 102 102
104 104 104
107 107 107
110 110 110
112 112 112
113 113 113
116 116 116
115 115 115
114 114 114
111 111 111
111 111 111
108 108 108
115 115 115
118 118 118
121 121 121
126 126 126
128 128 128
129 129 129
125 125 125
119 119 119
118 118 118
121 121 121
119 119 119
116 116 116
115 115 115
114 114 114
110 110 110
106 106 106
103 103 103
102 102 102
102 102 102
102 102 102
102 102 102
102 102 102
103 103 103
105 105 105
107 107 107
108 108 108
108 108 108
107 107 107
105 105 105
103 103 103
101 101 101
100 100 100
100 100 100
99 99 99
99 99 99
97 97 97
97 97 97
96 96 96
95 95 95
97 97 97
97 97 97
97 97 97
97 97 97
97 97 97
98 98 98
99 99 99
100 100 100
102 102 102
102 102 102
104 104 104
102 102 102
102 102 102
103 103 103
105 105 105
108 108 108
110 110 110
112 112 112
114 114 114
116 116 116
116 116 116
115 115 115
110 110 110
107 107 107
104 104 104
112 112 112
114 114 114
119 119 119
125 125 125
127 127 127
129 129 129
127 127 127
120 120 120
118 118 118
120 120 120
120 120 120
118 118 118
116 116 116
114 114 114
111 111 111
107 107 107
104 104 104
102 102 102
102 102 102
102 102 102
102 102 102
104 104 104
103 103 103
105 105 105
106 106 106
107 107 107
106 106 106
104 104 104
103 103 103
101 101 101
100 100 100
99 99 99
99 99 99
98 98 98
97 97 97
96 96 96
96 96 96
95 95 95
94 94 94
96 96 96
97 97 97
97 97 97
97 97 97
97 97 97
98 98 98
97 97 97
99 99 99
101 101 101
102 102 102
103 103 103
103 103 103
102 102 102
104 104 104
108 108 108
109 109 109
111 111 111
111 111 111
114 114 114
117 117 117
116 116 116
114 114 114
108 108 108
104 104 104
102 102 102
110 110 110
111 111 111
117 117 117
123 123 123
126 126 126
128 128 128
127 127 127
121 121 121
118 118 118
118 118 118
121 121 121
120 120 120
117 117 117
114 114 114
113 113 113
110 110 110
106 106 106
104 104 104
103 103 103
102 102 102
102 102 102
104 104 104
105 105 105
106 106 106
107 107 107
108 108 108
107 107 107
106 106 106
104 104 104
103 103 103
103 103 103
101 101 101
100 100 100
100 100 100
100 100 100
99 99 99
99 99 99
98 98 98
97 97 97
98 98 98
99 99 99
98 98 98
98 98 98
96 96 96
97 97 97
97 97 97
99 99 99
101 101 101
102 102 102
102 102 102
102 102 102
103 103 103
106 106 106
109 109 109
110 110 110
110 110 110
110 110 110
114 114 114
118 118 118
116 116 116
112 112 112
105 105 105
101 101 101
102 102 102
111 111 111
111 111 111
114 114 114
121 121 121
125 125 125
128 128 128
127 127 127
122 122 122
120 120 120
119 119 119
120 120 120
121 121 121
120 120 120
116 116 116
113 113 113
113 113 113
109 109 109
107 107 107
106 106 106
105 105 105
104 104 104
105 105 105
105 105 105
107 107 107
109 109 109
111 111 111
109 109 109
108 108 108
107 107 107
106 106 106
106 106 106
105 105 105
104 104 104
104 104 104
104 104 104
103 103 103
102 102 102
101 101 101
101 101 101
101 101 101
100 100 100
99 99 99
98 98 98
97 97 97
98 98 98
99 99 99
100 100 100
100 100 100
101 101 101
102 102 102
103 103 103
105 105 105
108 108 108
109 109 109
110 110 110
109 109 109
109 109 109
113 113 113
119 119 119
115 115 115
109 109 109
102 102 102
100 100 100
103 103 103
110 110 110
111 111 111
113 113 113
118 118 118
123 123 123
127 127 127
125 125 125
122 122 122
121 121 121
119 119 119
119 119 119
119 119 119
121 121 121
119 119 119
114 114 114
113 113 113
112 112 112
109 109 109
108 108 108
108 108 108
107 107 107
107 107 107
107 107 107
106 106 106
109 109 109
111 111 111
110 110 110
109 109 109
110 110 110
109 109 109
108 108 108
108 108 108
107 107 107
106 106 106
106 106 106
105 105 105
104 104 104
103 103 103
102 102 102
101 101 101
99 99 99
98 98 98
98 98 98
98 98 98
99 99 99
100 100 100
101 101 101
100 100 100
101 101 101
102 102 102
104 104 104
106 106 106
108 108 108
109 109 109
109 109 109
108 108 108
109 109 109
113 113 113
118 118 118
113 113 113
106 106 106
100 100 100
99 99 99
102 102 102
110 110 110
111 111 111
112 112 112
115 115 115
121 121 121
126 126 126
124 124 124
123 123 123
122 122 122
120 120 120
118 118 118
118 118 118
119 119 119
120 120 120
117 117 117
114 114 114
114 114 114
112 112 112
110 110 110
109 109 109
109 109 109
109 109 109
108 108 108
107 107 107
109 109 109
109 109 109
107 107 107
107 107 107
108 108 108
107 107 107
107 107 107
108 108 108
107 107 107
106 106 106
105 105 105
103 103 103
103 103 103
102 102 102
102 102 102
101 101 101
98 98 98
98 98 98
99 99 99
100 100 100
101 101 101
101 101 101
101 101 101
101 101 101
101 101 101
103 103 103
105 105 105
107 107 107
108 108 108
108 108 108
108 108 108
108 108 108
110 110 110
113 113 113
117 117 117
110 110 110
102 102 102
99 99 99
98 98 98
100 100 100
110 110 110
111 111 111
112 112 112
113 113 113
119 119 119
125 125 125
123 123 123
123 123 123
122 122 122
119 119 119
117 117 117
117 117 117
118 118 118
119 119 119
119 119 119
118 118 118
116 116 116
114 114 114
112 112 112
110 110 110
110 110 110
109 109 109
109 109 109
108 108 108
109 109 109
109 109 109
107 107 107
106 106 106
105 105 105
105 105 105
104 104 104
105 105 105
105 105 105
104 104 104
102 102 102
101 101 101
101 101 101
101 101 101
101 101 101
100 100 100
99 99 99
100 100 100
101 101 101
100 100 100
101 101 101
101 101 101
102 102 102
102 102 102
103 103 103
105 105 105
106 106 106
108 108 108
108 108 108
108 108 108
107 107 107
108 108 108
110 110 110
114 114 114
115 115 115
106 106 106
100 100 100
98 98 98
98 98 98
100 100 100
109 109 109
111 111 111
112 112 112
112 112 112
118 118 118
123 123 123
123 123 123
124 124 124
122 122 122
119 119 119
117 117 117
118 118 118
118 118 118
118 118 118
120 120 120
119 119 119
117 117 117
115 115 115
113 113 113
110 110 110
109 109 109
109 109 109
108 108 108
108 108 108
107 107 107
108 108 108
107 107 107
106 106 106
104 104 104
103 103 103
103 103 103
103 103 103
103 103 103
102 102 102
100 100 100
100 100 100
101 101 101
101 101 101
100 100 100
100 100 100
100 100 100
100 100 100
101 101 101
100 100 100
100 100 100
101 101 101
102 102 102
103 103 103
104 104 104
105 105 105
106 106 106
108 108 108
107 107 107
108 108 108
107 107 107
108 108 108
110 110 110
114 114 114
112 112 112
103 103 103
99 99 99
97 97 97
98 98 98
99 99 99
110 110 110
111 111 111
111 111 111
112 112 112
115 115 115
122 122 122
125 125 125
125 125 125
121 121 121
118 118 118
117 117 117
117 117 117
119 119 119
118 118 118
119 119 119
119 119 119
119 119 119
117 117 117
114 114 114
111 111 111
109 109 109
108 108 108
106 106 106
106 106 106
106 106 106
107 107 107
106 106 106
104 104 104
103 103 103
102 102 102
102 102 102
103 103 103
103 103 103
101 101 101
101 101 101
100 100 100
101 101 101
101 101 101
100 100 100
99 99 99
99 99 99
99 99 99
99 99 99
99 99 99
100 100 100
101 101 101
103 103 103
104 104 104
105 105 105
106 106 106
106 106 106
107 107 107
107 107 107
108 108 108
108 108 108
109 109 109
111 111 111
111 111 111
110 110 110
101 101 101
98 98 98
96 96 96
97 97 97
98 98 98
110 110 110
111 111 111
111 111 111
112 112 112
114 114 114
121 121 121
124 124 124
125 125 125
120 120 120
118 118 118
117 117 117
117 117 117
118 118 118
120 120 120
119 119 119
120 120 120
119 119 119
118 118 118
117 117 117
113 113 113
110 110 110
107 107 107
106 106 106
105 105 105
106 106 106
106 106 106
105 105 105
105 105 105
104 104 104
104 104 104
103 103 103
103 103 103
103 103 103
102 102 102
102 102 102
100 100 100
100 100 100
100 100 100
99 99 99
99 99 99
98 98 98
98 98 98
98 98 98
99 99 99
100 100 100
102 102 102
103 103 103
105 105 105
105 105 105
106 106 106
106 106 106
106 106 106
107 107 107
108 108 108
110 110 110
110 110 110
110 110 110
110 110 110
108 108 108
100 100 100
98 98 98
96 96 96
97 97 97
99 99 99
110 110 110
112 112 112
114 114 114
114 114 114
115 115 115
119 119 119
124 124 124
125 125 125
121 121 121
118 118 118
117 117 117
117 117 117
118 118 118
120 120 120
119 119 119
120 120 120
119 119 119
119 119 119
119 119 119
116 116 116
112 112 112
108 108 108
106 106 106
105 105 105
106 106 106
104 104 104
104 104 104
105 105 105
105 105 105
104 104 104
104 104 104
103 103 103
104 104 104
104 104 104
102 102 102
101 101 101
100 100 100
100 100 100
100 100 100
99 99 99
98 98 98
98 98 98
98 98 98
99 99 99
101 101 101
103 103 103
104 104 104
105 105 105
106 106 106
105 105 105
106 106 106
107 107 107
108 108 108
110 110 110
110 110 110
109 109 109
109 109 109
108 108 108
107 107 107
100 100 100
98 98 98
96 96 96
97 97 97
99 99 99
113 113 113
115 115 115
115 115 115
116 116 116
115 115 115
117 117 117
122 122 122
124 124 124
122 122 122
118 118 118
117 117 117
117 117 117
118 118 118
119 119 119
119 119 119
121 121 121
119 119 119
120 120 120
120 120 120
118 118 118
114 114 114
111 111 111
108 108 108
106 106 106
106 106 106
104 104 104
103 103 103
103 103 103
104 104 104
104 104 104
103 103 103
103 103 103
103 103 103
104 104 104
103 103 103
101 101 101
100 100 100
100 100 100
100 100 100
99 99 99
98 98 98
99 99 99
100 100 100
101 101 101
102 102 102
104 104 104
105 105 105
106 106 106
105 105 105
105 105 105
106 106 106
108 108 108
109 109 109
110 110 110
109 109 109
108 108 108
107 107 107
106 106 106
106 106 106
101 101 101
98 98 98
96 96 96
98 98 98
99 99 99
115 115 115
117 117 117
116 116 116
116 116 116
115 115 115
115 115 115
120 120 120
123 123 123
122 122 122
119 119 119
117 117 117
116 116 116
117 117 117
118 118 118
118 118 118
120 120 120
120 120 120
119 119 119
120 120 120
119 119 119
117 117 117
114 114 114
110 110 110
108 108 108
107 107 107
106 106 106
104 104 104
104 104 104
104 104 104
104 104 104
103 103 103
103 103 103
104 104 104
103 103 103
103 103 103
102 102 102
101 101 101
101 101 101
101 101 101
100 100 100
99 99 99
100 100 100
102 102 102
102 102 102
104 104 104
105 105 105
106 106 106
106 106 106
105 105 105
106 106 106
108 108 108
109 109 109
109 109 109
108 108 108
107 107 107
106 106 106
106 106 106
105 105 105
105 105 105
101 101 101
98 98 98
98 98 98
99 99 99
100 100 100
116 116 116
116 116 116
116 116 116
115 115 115
114 114 114
114 114 114
119 119 119
123 123 123
123 123 123
118 118 118
116 116 116
116 116 116
117 117 117
118 118 118
117 117 117
119 119 119
119 119 119
119 119 119
120 120 120
120 120 120
119 119 119
117 117 117
113 113 113
111 111 111
110 110 110
109 109 109
108 108 108
107 107 107
106 106 106
106 106 106
106 106 106
106 106 106
106 106 106
106 106 106
105 105 105
103 103 103
103 103 103
103 103 103
102 102 102
101 101 101
101 101 101
102 102 102
103 103 103
103 103 103
105 105 105
106 106 106
106 106 106
107 107 107
107 107 107
107 107 107
110 110 110
110 110 110
109 109 109
106 106 106
106 106 106
104 104 104
104 104 104
104 104 104
105 105 105
101 101 101
97 97 97
99 99 99
100 100 100
101 101 101
117 117 117
116 116 116
117 117 117
115 115 115
115 115 115
114 114 114
119 119 119
123 123 123
122 122 122
117 117 117
116 116 116
117 117 117
118 118 118
118 118 118
116 116 116
119 119 119
117 117 117
120 120 120
121 121 121
120 120 120
119 119 119
119 119 119
116 116 116
114 114 114
112 112 112
112 112 112
111 111 111
110 110 110
108 108 108
107 107 107
106 106 106
106 106 106
106 106 106
105 105 105
105 105 105
104 104 104
103 103 103
102 102 102
103 103 103
103 103 103
104 104 104
104 104 104
105 105 105
105 105 105
106 106 106
108 108 108
107 107 107
107 107 107
107 107 107
109 109 109
110 110 110
109 109 109
108 108 108
105 105 105
104 104 104
103 103 103
103 103 103
103 103 103
105 105 105
101 101 101
97 97 97
99 99 99
101 101 101
101 101 101
118 118 118
116 116 116
116 116 116
117 117 117
116 116 116
114 114 114
119 119 119
123 123 123
120 120 120
115 115 115
115 115 115
117 117 117
119 119 119
118 118 118
117 117 117
118 118 118
116 116 116
119 119 119
122 122 122
121 121 121
118 118 118
118 118 118
118 118 118
116 116 116
114 114 114
113 113 113
112 112 112
111 111 111
109 109 109
108 108 108
107 107 107
107 107 107
106 106 106
106 106 106
105 105 105
105 105 105
105 105 105
104 104 104
105 105 105
105 105 105
105 105 105
106 106 106
107 107 107
107 107 107
108 108 108
109 109 109
108 108 108
108 108 108
109 109 109
110 110 110
109 109 109
107 107 107
106 106 106
104 104 104
103 103 103
102 102 102
102 102 102
103 103 103
105 105 105
102 102 102
97 97 97
98 98 98
101 101 101
102 102 102
118 118 118
118 118 118
117 117 117
117 117 117
116 116 116
115 115 115
119 119 119
123 123 123
120 120 120
115 115 115
115 115 115
116 116 116
118 118 118
118 118 118
117 117 117
119 119 119
116 116 116
117 117 117
120 120 120
122 122 122
118 118 118
117 117 117
119 119 119
118 118 118
117 117 117
115 115 115
113 113 113
112 112 112
110 110 110
109 109 109
107 107 107
106 106 106
107 107 107
107 107 107
107 107 107
106 106 106
107 107 107
106 106 106
106 106 106
107 107 107
107 107 107
108 108 108
109 109 109
108 108 108
110 110 110
110 110 110
110 110 110
109 109 109
110 110 110
110 110 110
108 108 108
105 105 105
104 104 104
103 103 103
102 102 102
101 101 101
102 102 102
103 103 103
105 105 105
103 103 103
98 98 98
98 98 98
101 101 101
103 103 103
