P3
64 64
255
152 152 152
179 179 179
203 203 203
206 206 206
213 213 213
221 221 221
221 221 221
205 205 205
190 190 190
183 183 183
179 179 179
175 175 175
172 172 172
168 168 168
165 165 165
161 161 161
158 158 158
155 155 155
152 152 152
148 148 148
147 147 147
145 145 145
143 143 143
142 142 142
141 141 141
141 141 141
141 141 141
140 140 140
139 139 139
141 141 141
144 144 144
146 146 146
147 147 147
148 148 148
151 151 151
152 152 152
152 152 152
154 154 154
157 157 157
159 159 159
159 159 159
161 161 161
162 162 162
164 164 164
167 167 167
169 169 169
171 171 171
172 172 172
173 173 173
175 175 175
174 174 174
174 174 174
174 174 174
177 177 177
178 178 178
177 177 177
174 174 174
173 173 173
173 173 173
171 171 171
173 173 173
166 166 166
132 132 132
109 109 109
160 160 160
190 190 190
210 210 210
213 213 213
216 216 216
225 225 225
222 222 222
205 205 205
190 190 190
183 183 183
178 178 178
174 174 174
171 171 171
168 168 168
165 165 165
163 163 163
161 161 161
157 157 157
154 154 154
150 150 150
149 149 149
148 148 148
146 146 146
144 144 144
144 144 144
144 144 144
142 142 142
141 141 141
140 140 140
141 141 141
143 143 143
144 144 144
147 147 147
149 149 149
150 150 150
151 151 151
152 152 152
154 154 154
157 157 157
159 159 159
160 160 160
162 162 162
163 163 163
164 164 164
166 166 166
168 168 168
170 170 170
172 172 172
173 173 173
174 174 174
174 174 174
174 174 174
175 175 175
178 178 178
182 182 182
182 182 182
180 180 180
178 178 178
177 177 177
175 175 175
174 174 174
170 170 170
141 141 141
115 115 115
165 165 165
197 197 197
217 217 217
217 217 217
220 220 220
228 228 228
222 222 222
204 204 204
189 189 189
183 183 183
178 178 178
174 174 174
171 171 171
168 168 168
167 167 167
166 166 166
162 162 162
159 159 159
156 156 156
153 153 153
151 151 151
151 151 151
149 149 149
147 147 147
147 147 147
146 146 146
144 144 144
143 143 143
144 144 144
143 143 143
144 144 144
146 146 146
149 149 149
150 150 150
151 151 151
153 153 153
154 154 154
157 157 157
159 159 159
162 162 162
164 164 164
164 164 164
165 165 165
165 165 165
166 166 166
166 166 166
169 169 169
171 171 171
173 173 173
172 172 172
172 172 172
172 172 172
174 174 174
179 179 179
181 181 181
183 183 183
182 182 182
180 180 180
180 180 180
177 177 177
175 175 175
173 173 173
148 148 148
120 120 120
172 172 172
204 204 204
223 223 223
224 224 224
225 225 225
231 231 231
222 222 222
202 202 202
188 188 188
182 182 182
178 178 178
174 174 174
172 172 172
170 170 170
167 167 167
167 167 167
165 165 165
162 162 162
158 158 158
155 155 155
154 154 154
153 153 153
152 152 152
148 148 148
148 148 148
146 146 146
144 144 144
145 145 145
147 147 147
147 147 147
146 146 146
149 149 149
153 153 153
153 153 153
154 154 154
155 155 155
155 155 155
159 159 159
163 163 163
165 165 165
167 167 167
167 167 167
167 167 167
167 167 167
168 168 168
168 168 168
170 170 170
172 172 172
175 175 175
175 175 175
174 174 174
173 173 173
173 173 173
175 175 175
178 178 178
182 182 182
181 181 181
182 182 182
182 182 182
179 179 179
176 176 176
173 173 173
153 153 153
126 126 126
176 176 176
207 207 207
224 224 224
228 228 228
228 228 228
230 230 230
219 219 219
199 199 199
188 188 188
182 182 182
178 178 178
173 173 173
171 171 171
170 170 170
169 169 169
168 168 168
165 165 165
163 163 163
160 160 160
157 157 157
155 155 155
153 153 153
151 151 151
147 147 147
148 148 148
147 147 147
146 146 146
147 147 147
150 150 150
150 150 150
150 150 150
153 153 153
157 157 157
159 159 159
157 157 157
155 155 155
157 157 157
161 161 161
165 165 165
168 168 168
166 166 166
167 167 167
169 169 169
168 168 168
170 170 170
170 170 170
172 172 172
173 173 173
174 174 174
175 175 175
174 174 174
174 174 174
173 173 173
170 170 170
174 174 174
179 179 179
180 180 180
180 180 180
181 181 181
180 180 180
176 176 176
174 174 174
157 157 157
129 129 129
183 183 183
211 211 211
227 227 227
231 231 231
230 230 230
228 228 228
214 214 214
197 197 197
189 189 189
184 184 184
178 178 178
172 172 172
168 168 168
167 167 167
166 166 166
164 164 164
164 164 164
162 162 162
158 158 158
154 154 154
151 151 151
149 149 149
145 145 145
141 141 141
143 143 143
144 144 144
144 144 144
147 147 147
151 151 151
153 153 153
153 153 153
157 157 157
162 162 162
164 164 164
159 159 159
155 155 155
156 156 156
160 160 160
163 163 163
165 165 165
165 165 165
165 165 165
167 167 167
166 166 166
166 166 166
167 167 167
169 169 169
170 170 170
170 170 170
169 169 169
169 169 169
171 171 171
170 170 170
166 166 166
168 168 168
175 175 175
179 179 179
179 179 179
180 180 180
178 178 178
178 178 178
176 176 176
160 160 160
133 133 133
189 189 189
211 211 211
230 230 230
232 232 232
229 229 229
225 225 225
212 212 212
198 198 198
190 190 190
185 185 185
177 177 177
165 165 165
157 157 157
153 153 153
151 151 151
151 151 151
150 150 150
147 147 147
144 144 144
139 139 139
135 135 135
134 134 134
133 133 133
131 131 131
134 134 134
135 135 135
134 134 134
139 139 139
145 145 145
147 147 147
153 153 153
158 158 158
166 166 166
164 164 164
157 157 157
153 153 153
153 153 153
157 157 157
159 159 159
158 158 158
158 158 158
157 157 157
156 156 156
154 154 154
153 153 153
154 154 154
157 157 157
157 157 157
158 158 158
158 158 158
159 159 159
160 160 160
164 164 164
163 163 163
157 157 157
162 162 162
174 174 174
180 180 180
179 179 179
177 177 177
180 180 180
179 179 179
163 163 163
135 135 135
192 192 192
214 214 214
232 232 232
234 234 234
228 228 228
225 225 225
212 212 212
194 194 194
184 184 184
173 173 173
163 163 163
151 151 151
138 138 138
134 134 134
133 133 133
133 133 133
133 133 133
129 129 129
125 125 125
121 121 121
118 118 118
116 116 116
118 118 118
120 120 120
124 124 124
123 123 123
123 123 123
130 130 130
132 132 132
136 136 136
147 147 147
157 157 157
164 164 164
163 163 163
155 155 155
150 150 150
147 147 147
149 149 149
151 151 151
143 143 143
140 140 140
136 136 136
131 131 131
129 129 129
129 129 129
128 128 128
126 126 126
130 130 130
129 129 129
130 130 130
135 135 135
140 140 140
143 143 143
148 148 148
148 148 148
145 145 145
154 154 154
171 171 171
179 179 179
177 177 177
179 179 179
180 180 180
161 161 161
134 134 134
195 195 195
220 220 220
232 232 232
237 237 237
230 230 230
224 224 224
205 205 205
182 182 182
165 165 165
155 155 155
147 147 147
133 133 133
121 121 121
118 118 118
120 120 120
115 115 115
115 115 115
111 111 111
108 108 108
110 110 110
106 106 106
103 103 103
105 105 105
110 110 110
115 115 115
114 114 114
115 115 115
117 117 117
118 118 118
126 126 126
141 141 141
156 156 156
161 161 161
160 160 160
152 152 152
147 147 147
139 139 139
136 136 136
139 139 139
127 127 127
119 119 119
119 119 119
111 111 111
108 108 108
108 108 108
107 107 107
105 105 105
123 123 123
121 121 121
119 119 119
121 121 121
123 123 123
129 129 129
123 123 123
123 123 123
130 130 130
138 138 138
151 151 151
168 168 168
174 174 174
176 176 176
180 180 180
162 162 162
135 135 135
196 196 196
224 224 224
231 231 231
239 239 239
232 232 232
219 219 219
193 193 193
167 167 167
147 147 147
140 140 140
137 137 137
130 130 130
126 126 126
124 124 124
123 123 123
119 119 119
117 117 117
108 108 108
109 109 109
111 111 111
110 110 110
108 108 108
106 106 106
112 112 112
120 120 120
119 119 119
117 117 117
116 116 116
114 114 114
123 123 123
140 140 140
153 153 153
157 157 157
153 153 153
145 145 145
141 141 141
133 133 133
127 127 127
132 132 132
127 127 127
117 117 117
120 120 120
117 117 117
106 106 106
102 102 102
99 99 99
99 99 99
132 132 132
141 141 141
139 139 139
137 137 137
139 139 139
144 144 144
140 140 140
133 133 133
131 131 131
134 134 134
139 139 139
147 147 147
164 164 164
170 170 170
179 179 179
169 169 169
137 137 137
195 195 195
220 220 220
229 229 229
241 241 241
233 233 233
208 208 208
175 175 175
151 151 151
146 146 146
146 146 146
148 148 148
147 147 147
141 141 141
139 139 139
134 134 134
129 129 129
125 125 125
116 116 116
119 119 119
119 119 119
122 122 122
119 119 119
118 118 118
128 128 128
138 138 138
138 138 138
140 140 140
129 129 129
125 125 125
135 135 135
145 145 145
153 153 153
156 156 156
150 150 150
145 145 145
142 142 142
135 135 135
130 130 130
130 130 130
131 131 131
131 131 131
130 130 130
121 121 121
111 111 111
105 105 105
102 102 102
104 104 104
123 123 123
149 149 149
160 160 160
166 166 166
171 171 171
171 171 171
172 172 172
170 170 170
162 162 162
153 153 153
135 135 135
134 134 134
149 149 149
167 167 167
176 176 176
172 172 172
141 141 141
195 195 195
216 216 216
230 230 230
244 244 244
228 228 228
193 193 193
166 166 166
158 158 158
160 160 160
168 168 168
168 168 168
165 165 165
155 155 155
146 146 146
141 141 141
137 137 137
133 133 133
123 123 123
125 125 125
125 125 125
130 130 130
126 126 126
127 127 127
141 141 141
159 159 159
159 159 159
157 157 157
166 166 166
163 163 163
158 158 158
158 158 158
162 162 162
164 164 164
158 158 158
153 153 153
149 149 149
146 146 146
145 145 145
143 143 143
137 137 137
133 133 133
125 125 125
113 113 113
106 106 106
104 104 104
106 106 106
112 112 112
128 128 128
164 164 164
172 172 172
174 174 174
173 173 173
173 173 173
174 174 174
178 178 178
175 175 175
170 170 170
154 154 154
126 126 126
142 142 142
163 163 163
174 174 174
172 172 172
147 147 147
196 196 196
215 215 215
236 236 236
246 246 246
219 219 219
185 185 185
177 177 177
177 177 177
185 185 185
190 190 190
181 181 181
172 172 172
160 160 160
152 152 152
147 147 147
146 146 146
142 142 142
132 132 132
133 133 133
132 132 132
136 136 136
128 128 128
128 128 128
140 140 140
159 159 159
171 171 171
173 173 173
170 170 170
182 182 182
169 169 169
159 159 159
162 162 162
163 163 163
161 161 161
164 164 164
161 161 161
156 156 156
152 152 152
144 144 144
135 135 135
123 123 123
112 112 112
105 105 105
107 107 107
112 112 112
120 120 120
125 125 125
147 147 147
179 179 179
177 177 177
179 179 179
178 178 178
172 172 172
167 167 167
167 167 167
157 157 157
156 156 156
152 152 152
130 130 130
139 139 139
159 159 159
171 171 171
170 170 170
153 153 153
194 194 194
213 213 213
231 231 231
237 237 237
212 212 212
192 192 192
196 196 196
196 196 196
196 196 196
191 191 191
175 175 175
168 168 168
176 176 176
179 179 179
175 175 175
167 167 167
154 154 154
142 142 142
141 141 141
140 140 140
145 145 145
140 140 140
136 136 136
137 137 137
141 141 141
148 148 148
158 158 158
165 165 165
178 178 178
170 170 170
157 157 157
157 157 157
157 157 157
157 157 157
166 166 166
162 162 162
156 156 156
155 155 155
142 142 142
124 124 124
115 115 115
113 113 113
115 115 115
120 120 120
130 130 130
133 133 133
130 130 130
137 137 137
166 166 166
178 178 178
183 183 183
187 187 187
180 180 180
165 165 165
166 166 166
154 154 154
145 145 145
150 150 150
143 143 143
142 142 142
153 153 153
166 166 166
165 165 165
156 156 156
198 198 198
227 227 227
239 239 239
228 228 228
206 206 206
202 202 202
208 208 208
203 203 203
195 195 195
181 181 181
174 174 174
199 199 199
207 207 207
190 190 190
170 170 170
152 152 152
134 134 134
137 137 137
133 133 133
130 130 130
139 139 139
140 140 140
134 134 134
127 127 127
123 123 123
118 118 118
124 124 124
160 160 160
174 174 174
170 170 170
157 157 157
153 153 153
153 153 153
156 156 156
154 154 154
151 151 151
153 153 153
154 154 154
135 135 135
121 121 121
123 123 123
131 131 131
138 138 138
138 138 138
142 142 142
139 139 139
131 131 131
126 126 126
135 135 135
158 158 158
173 173 173
177 177 177
167 167 167
162 162 162
166 166 166
159 159 159
151 151 151
152 152 152
153 153 153
146 146 146
151 151 151
162 162 162
163 163 163
157 157 157
196 196 196
216 216 216
222 222 222
213 213 213
200 200 200
205 205 205
209 209 209
200 200 200
188 188 188
174 174 174
191 191 191
214 214 214
193 193 193
163 163 163
156 156 156
148 148 148
142 142 142
140 140 140
145 145 145
140 140 140
149 149 149
142 142 142
127 127 127
121 121 121
120 120 120
115 115 115
115 115 115
141 141 141
166 166 166
160 160 160
150 150 150
145 145 145
143 143 143
145 145 145
148 148 148
147 147 147
150 150 150
152 152 152
136 136 136
132 132 132
136 136 136
141 141 141
143 143 143
136 136 136
144 144 144
147 147 147
146 146 146
137 137 137
129 129 129
133 133 133
152 152 152
158 158 158
160 160 160
159 159 159
162 162 162
158 158 158
155 155 155
157 157 157
159 159 159
154 154 154
164 164 164
174 174 174
162 162 162
158 158 158
189 189 189
200 200 200
211 211 211
215 215 215
202 202 202
200 200 200
205 205 205
195 195 195
185 185 185
179 179 179
184 184 184
177 177 177
156 156 156
152 152 152
153 153 153
141 141 141
142 142 142
141 141 141
149 149 149
150 150 150
150 150 150
143 143 143
129 129 129
114 114 114
112 112 112
115 115 115
125 125 125
138 138 138
164 164 164
156 156 156
150 150 150
145 145 145
144 144 144
144 144 144
150 150 150
153 153 153
153 153 153
150 150 150
142 142 142
145 145 145
142 142 142
130 130 130
133 133 133
128 128 128
137 137 137
143 143 143
141 141 141
127 127 127
133 133 133
137 137 137
157 157 157
147 147 147
141 141 141
152 152 152
160 160 160
159 159 159
159 159 159
158 158 158
160 160 160
155 155 155
151 151 151
159 159 159
169 169 169
160 160 160
182 182 182
191 191 191
203 203 203
207 207 207
197 197 197
188 188 188
195 195 195
191 191 191
188 188 188
183 183 183
163 163 163
151 151 151
146 146 146
153 153 153
155 155 155
141 141 141
146 146 146
154 154 154
151 151 151
143 143 143
131 131 131
131 131 131
133 133 133
127 127 127
121 121 121
127 127 127
132 132 132
145 145 145
167 167 167
157 157 157
149 149 149
146 146 146
145 145 145
146 146 146
150 150 150
153 153 153
147 147 147
145 145 145
143 143 143
147 147 147
142 142 142
129 129 129
125 125 125
117 117 117
128 128 128
141 141 141
140 140 140
140 140 140
140 140 140
142 142 142
150 150 150
138 138 138
131 131 131
134 134 134
143 143 143
155 155 155
160 160 160
163 163 163
164 164 164
156 156 156
144 144 144
142 142 142
146 146 146
147 147 147
169 169 169
181 181 181
190 190 190
195 195 195
192 192 192
189 189 189
205 205 205
204 204 204
197 197 197
186 186 186
165 165 165
154 154 154
153 153 153
149 149 149
144 144 144
141 141 141
137 137 137
140 140 140
136 136 136
126 126 126
118 118 118
119 119 119
123 123 123
121 121 121
120 120 120
131 131 131
135 135 135
153 153 153
167 167 167
159 159 159
150 150 150
146 146 146
145 145 145
147 147 147
150 150 150
152 152 152
143 143 143
137 137 137
139 139 139
142 142 142
140 140 140
133 133 133
123 123 123
113 113 113
114 114 114
130 130 130
137 137 137
141 141 141
140 140 140
143 143 143
143 143 143
136 136 136
136 136 136
134 134 134
134 134 134
146 146 146
156 156 156
161 161 161
161 161 161
153 153 153
144 144 144
148 148 148
147 147 147
135 135 135
161 161 161
177 177 177
180 180 180
194 194 194
191 191 191
200 200 200
214 214 214
206 206 206
197 197 197
189 189 189
181 181 181
172 172 172
164 164 164
151 151 151
136 136 136
127 127 127
120 120 120
118 118 118
116 116 116
113 113 113
111 111 111
112 112 112
114 114 114
118 118 118
129 129 129
139 139 139
139 139 139
160 160 160
166 166 166
159 159 159
152 152 152
150 150 150
148 148 148
150 150 150
152 152 152
153 153 153
145 145 145
134 134 134
136 136 136
141 141 141
135 135 135
131 131 131
125 125 125
113 113 113
108 108 108
113 113 113
120 120 120
124 124 124
124 124 124
129 129 129
130 130 130
134 134 134
139 139 139
139 139 139
140 140 140
146 146 146
159 159 159
166 166 166
163 163 163
152 152 152
141 141 141
148 148 148
143 143 143
128 128 128
169 169 169
188 188 188
189 189 189
200 200 200
194 194 194
201 201 201
205 205 205
195 195 195
191 191 191
186 186 186
185 185 185
178 178 178
169 169 169
152 152 152
135 135 135
121 121 121
116 116 116
115 115 115
115 115 115
117 117 117
119 119 119
121 121 121
127 127 127
138 138 138
147 147 147
141 141 141
144 144 144
166 166 166
166 166 166
160 160 160
155 155 155
153 153 153
151 151 151
153 153 153
155 155 155
154 154 154
146 146 146
136 136 136
136 136 136
146 146 146
143 143 143
135 135 135
131 131 131
122 122 122
116 116 116
107 107 107
107 107 107
113 113 113
114 114 114
120 120 120
126 126 126
134 134 134
141 141 141
144 144 144
142 142 142
147 147 147
158 158 158
166 166 166
162 162 162
150 150 150
143 143 143
152 152 152
145 145 145
124 124 124
176 176 176
200 200 200
199 199 199
209 209 209
198 198 198
196 196 196
198 198 198
188 188 188
186 186 186
184 184 184
183 183 183
180 180 180
173 173 173
157 157 157
145 145 145
138 138 138
135 135 135
136 136 136
136 136 136
138 138 138
142 142 142
145 145 145
154 154 154
161 161 161
156 156 156
143 143 143
154 154 154
171 171 171
167 167 167
161 161 161
156 156 156
154 154 154
154 154 154
156 156 156
158 158 158
155 155 155
146 146 146
139 139 139
132 132 132
146 146 146
151 151 151
146 146 146
138 138 138
133 133 133
131 131 131
125 125 125
117 117 117
116 116 116
115 115 115
117 117 117
123 123 123
130 130 130
136 136 136
139 139 139
142 142 142
147 147 147
153 153 153
155 155 155
151 151 151
143 143 143
145 145 145
152 152 152
145 145 145
126 126 126
162 162 162
192 192 192
201 201 201
217 217 217
203 203 203
195 195 195
193 193 193
184 184 184
181 181 181
179 179 179
179 179 179
179 179 179
174 174 174
166 166 166
160 160 160
159 159 159
153 153 153
152 152 152
153 153 153
155 155 155
158 158 158
161 161 161
167 167 167
168 168 168
162 162 162
154 154 154
165 165 165
172 172 172
165 165 165
160 160 160
154 154 154
154 154 154
154 154 154
156 156 156
158 158 158
155 155 155
148 148 148
141 141 141
130 130 130
133 133 133
149 149 149
150 150 150
146 146 146
141 141 141
138 138 138
138 138 138
137 137 137
136 136 136
133 133 133
132 132 132
135 135 135
134 134 134
135 135 135
134 134 134
137 137 137
141 141 141
144 144 144
145 145 145
141 141 141
138 138 138
142 142 142
150 150 150
146 146 146
131 131 131
153 153 153
180 180 180
199 199 199
219 219 219
209 209 209
195 195 195
189 189 189
180 180 180
175 175 175
174 174 174
174 174 174
172 172 172
169 169 169
162 162 162
157 157 157
156 156 156
154 154 154
154 154 154
158 158 158
160 160 160
161 161 161
160 160 160
162 162 162
169 169 169
174 174 174
166 166 166
168 168 168
169 169 169
161 161 161
157 157 157
154 154 154
154 154 154
156 156 156
156 156 156
156 156 156
156 156 156
149 149 149
141 141 141
136 136 136
127 127 127
136 136 136
144 144 144
145 145 145
143 143 143
142 142 142
140 140 140
140 140 140
140 140 140
139 139 139
137 137 137
137 137 137
136 136 136
132 132 132
132 132 132
133 133 133
134 134 134
137 137 137
137 137 137
135 135 135
135 135 135
144 144 144
153 153 153
150 150 150
136 136 136
157 157 157
179 179 179
203 203 203
219 219 219
210 210 210
195 195 195
184 184 184
176 176 176
172 172 172
169 169 169
166 166 166
163 163 163
160 160 160
156 156 156
153 153 153
151 151 151
154 154 154
155 155 155
157 157 157
155 155 155
152 152 152
149 149 149
163 163 163
180 180 180
179 179 179
168 168 168
168 168 168
166 166 166
158 158 158
157 157 157
157 157 157
157 157 157
159 159 159
158 158 158
157 157 157
156 156 156
151 151 151
145 145 145
139 139 139
136 136 136
128 128 128
130 130 130
137 137 137
139 139 139
141 141 141
143 143 143
142 142 142
142 142 142
140 140 140
139 139 139
139 139 139
137 137 137
133 133 133
132 132 132
131 131 131
132 132 132
133 133 133
131 131 131
131 131 131
136 136 136
148 148 148
155 155 155
152 152 152
139 139 139
164 164 164
184 184 184
208 208 208
218 218 218
208 208 208
197 197 197
185 185 185
175 175 175
167 167 167
162 162 162
159 159 159
158 158 158
156 156 156
154 154 154
152 152 152
150 150 150
150 150 150
150 150 150
147 147 147
143 143 143
141 141 141
154 154 154
174 174 174
181 181 181
176 176 176
168 168 168
168 168 168
168 168 168
160 160 160
156 156 156
159 159 159
161 161 161
160 160 160
159 159 159
157 157 157
158 158 158
155 155 155
151 151 151
144 144 144
141 141 141
135 135 135
129 129 129
123 123 123
127 127 127
133 133 133
137 137 137
139 139 139
140 140 140
141 141 141
140 140 140
140 140 140
137 137 137
133 133 133
131 131 131
131 131 131
132 132 132
131 131 131
131 131 131
133 133 133
144 144 144
153 153 153
156 156 156
151 151 151
140 140 140
171 171 171
188 188 188
210 210 210
219 219 219
209 209 209
198 198 198
187 187 187
176 176 176
170 170 170
165 165 165
158 158 158
152 152 152
147 147 147
145 145 145
143 143 143
140 140 140
140 140 140
140 140 140
141 141 141
144 144 144
147 147 147
159 159 159
173 173 173
176 176 176
173 173 173
166 166 166
165 165 165
169 169 169
158 158 158
150 150 150
151 151 151
156 156 156
155 155 155
152 152 152
153 153 153
155 155 155
155 155 155
156 156 156
148 148 148
142 142 142
140 140 140
136 136 136
131 131 131
121 121 121
117 117 117
125 125 125
128 128 128
132 132 132
134 134 134
133 133 133
134 134 134
131 131 131
128 128 128
128 128 128
128 128 128
127 127 127
129 129 129
136 136 136
145 145 145
153 153 153
160 160 160
156 156 156
151 151 151
139 139 139
178 178 178
191 191 191
212 212 212
218 218 218
210 210 210
200 200 200
190 190 190
178 178 178
172 172 172
169 169 169
165 165 165
159 159 159
154 154 154
151 151 151
146 146 146
144 144 144
143 143 143
143 143 143
144 144 144
145 145 145
151 151 151
160 160 160
167 167 167
168 168 168
168 168 168
160 160 160
158 158 158
159 159 159
145 145 145
130 130 130
132 132 132
140 140 140
140 140 140
140 140 140
142 142 142
144 144 144
146 146 146
150 150 150
144 144 144
139 139 139
138 138 138
140 140 140
136 136 136
130 130 130
122 122 122
120 120 120
121 121 121
123 123 123
125 125 125
126 126 126
123 123 123
121 121 121
120 120 120
123 123 123
125 125 125
129 129 129
136 136 136
145 145 145
155 155 155
160 160 160
162 162 162
157 157 157
151 151 151
137 137 137
183 183 183
195 195 195
212 212 212
217 217 217
213 213 213
203 203 203
191 191 191
181 181 181
174 174 174
169 169 169
163 163 163
157 157 157
153 153 153
148 148 148
145 145 145
140 140 140
140 140 140
142 142 142
144 144 144
148 148 148
155 155 155
160 160 160
160 160 160
165 165 165
161 161 161
148 148 148
141 141 141
138 138 138
119 119 119
101 101 101
104 104 104
117 117 117
122 122 122
122 122 122
124 124 124
125 125 125
128 128 128
131 131 131
130 130 130
129 129 129
134 134 134
139 139 139
139 139 139
135 135 135
129 129 129
126 126 126
126 126 126
124 124 124
125 125 125
127 127 127
124 124 124
124 124 124
123 123 123
125 125 125
128 128 128
133 133 133
141 141 141
150 150 150
160 160 160
165 165 165
162 162 162
158 158 158
149 149 149
136 136 136
186 186 186
198 198 198
212 212 212
217 217 217
213 213 213
205 205 205
193 193 193
183 183 183
176 176 176
170 170 170
160 160 160
153 153 153
149 149 149
144 144 144
143 143 143
142 142 142
141 141 141
143 143 143
145 145 145
151 151 151
160 160 160
159 159 159
156 156 156
161 161 161
152 152 152
130 130 130
113 113 113
108 108 108
93 93 93
72 72 72
76 76 76
98 98 98
108 108 108
106 106 106
102 102 102
101 101 101
102 102 102
106 106 106
109 109 109
118 118 118
132 132 132
140 140 140
141 141 141
139 139 139
133 133 133
127 127 127
124 124 124
123 123 123
124 124 124
125 125 125
125 125 125
126 126 126
126 126 126
126 126 126
131 131 131
135 135 135
144 144 144
155 155 155
160 160 160
166 166 166
163 163 163
157 157 157
148 148 148
133 133 133
187 187 187
202 202 202
212 212 212
215 215 215
212 212 212
205 205 205
195 195 195
185 185 185
178 178 178
169 169 169
160 160 160
153 153 153
148 148 148
146 146 146
145 145 145
146 146 146
144 144 144
145 145 145
148 148 148
155 155 155
163 163 163
162 162 162
158 158 158
158 158 158
148 148 148
119 119 119
93 93 93
84 84 84
81 81 81
65 65 65
67 67 67
90 90 90
103 103 103
97 97 97
87 87 87
85 85 85
86 86 86
88 88 88
95 95 95
113 113 113
135 135 135
146 146 146
148 148 148
146 146 146
140 140 140
131 131 131
124 124 124
124 124 124
122 122 122
122 122 122
124 124 124
126 126 126
127 127 127
129 129 129
133 133 133
139 139 139
147 147 147
157 157 157
163 163 163
166 166 166
163 163 163
156 156 156
146 146 146
131 131 131
185 185 185
205 205 205
212 212 212
215 215 215
212 212 212
207 207 207
199 199 199
188 188 188
180 180 180
171 171 171
163 163 163
156 156 156
151 151 151
149 149 149
150 150 150
148 148 148
146 146 146
146 146 146
152 152 152
162 162 162
170 170 170
169 169 169
165 165 165
159 159 159
152 152 152
128 128 128
101 101 101
94 94 94
93 93 93
87 87 87
85 85 85
98 98 98
105 105 105
97 97 97
94 94 94
94 94 94
94 94 94
96 96 96
104 104 104
122 122 122
143 143 143
152 152 152
157 157 157
159 159 159
152 152 152
144 144 144
134 134 134
130 130 130
127 127 127
125 125 125
125 125 125
127 127 127
129 129 129
132 132 132
137 137 137
144 144 144
152 152 152
160 160 160
165 165 165
166 166 166
162 162 162
156 156 156
143 143 143
132 132 132
182 182 182
207 207 207
214 214 214
216 216 216
213 213 213
209 209 209
203 203 203
192 192 192
183 183 183
174 174 174
166 166 166
160 160 160
154 154 154
152 152 152
152 152 152
149 149 149
146 146 146
150 150 150
157 157 157
172 172 172
181 181 181
177 177 177
173 173 173
167 167 167
161 161 161
149 149 149
135 135 135
129 129 129
122 122 122
113 113 113
108 108 108
108 108 108
109 109 109
107 107 107
113 113 113
120 120 120
118 118 118
118 118 118
123 123 123
134 134 134
147 147 147
154 154 154
161 161 161
167 167 167
163 163 163
158 158 158
151 151 151
142 142 142
137 137 137
134 134 134
133 133 133
132 132 132
134 134 134
137 137 137
143 143 143
149 149 149
157 157 157
162 162 162
167 167 167
166 166 166
163 163 163
156 156 156
144 144 144
136 136 136
178 178 178
206 206 206
216 216 216
220 220 220
216 216 216
211 211 211
206 206 206
197 197 197
187 187 187
177 177 177
169 169 169
163 163 163
157 157 157
155 155 155
152 152 152
149 149 149
148 148 148
155 155 155
168 168 168
184 184 184
191 191 191
182 182 182
179 179 179
176 176 176
175 175 175
172 172 172
167 167 167
158 158 158
141 141 141
130 130 130
120 120 120
115 115 115
113 113 113
114 114 114
124 124 124
135 135 135
139 139 139
141 141 141
141 141 141
144 144 144
151 151 151
156 156 156
163 163 163
168 168 168
168 168 168
165 165 165
161 161 161
155 155 155
148 148 148
143 143 143
142 142 142
141 141 141
142 142 142
144 144 144
148 148 148
154 154 154
162 162 162
166 166 166
169 169 169
167 167 167
164 164 164
155 155 155
145 145 145
139 139 139
169 169 169
201 201 201
216 216 216
221 221 221
220 220 220
213 213 213
209 209 209
200 200 200
190 190 190
182 182 182
174 174 174
166 166 166
160 160 160
157 157 157
153 153 153
150 150 150
153 153 153
165 165 165
181 181 181
193 193 193
193 193 193
185 185 185
182 182 182
185 185 185
190 190 190
191 191 191
185 185 185
171 171 171
149 149 149
136 136 136
126 126 126
117 117 117
116 116 116
121 121 121
128 128 128
141 141 141
149 149 149
152 152 152
151 151 151
152 152 152
155 155 155
159 159 159
163 163 163
168 168 168
169 169 169
167 167 167
164 164 164
160 160 160
157 157 157
151 151 151
148 148 148
148 148 148
149 149 149
152 152 152
154 154 154
158 158 158
164 164 164
169 169 169
171 171 171
169 169 169
163 163 163
153 153 153
148 148 148
141 141 141
163 163 163
192 192 192
214 214 214
222 222 222
221 221 221
216 216 216
210 210 210
205 205 205
196 196 196
187 187 187
177 177 177
169 169 169
163 163 163
160 160 160
156 156 156
156 156 156
164 164 164
176 176 176
190 190 190
194 194 194
194 194 194
188 188 188
187 187 187
189 189 189
197 197 197
201 201 201
194 194 194
177 177 177
156 156 156
142 142 142
132 132 132
125 125 125
123 123 123
128 128 128
135 135 135
146 146 146
157 157 157
161 161 161
162 162 162
164 164 164
163 163 163
162 162 162
161 161 161
164 164 164
168 168 168
169 169 169
167 167 167
163 163 163
162 162 162
159 159 159
153 153 153
153 153 153
152 152 152
155 155 155
158 158 158
163 163 163
168 168 168
172 172 172
172 172 172
168 168 168
163 163 163
155 155 155
154 154 154
144 144 144
159 159 159
181 181 181
206 206 206
222 222 222
222 222 222
216 216 216
211 211 211
206 206 206
200 200 200
193 193 193
181 181 181
174 174 174
167 167 167
161 161 161
161 161 161
166 166 166
175 175 175
185 185 185
192 192 192
193 193 193
193 193 193
190 190 190
190 190 190
190 190 190
196 196 196
199 199 199
194 194 194
181 181 181
166 166 166
155 155 155
146 146 146
139 139 139
136 136 136
141 141 141
149 149 149
156 156 156
167 167 167
169 169 169
168 168 168
167 167 167
165 165 165
160 160 160
160 160 160
159 159 159
165 165 165
168 168 168
169 169 169
166 166 166
163 163 163
164 164 164
161 161 161
159 159 159
157 157 157
159 159 159
162 162 162
166 166 166
171 171 171
174 174 174
173 173 173
169 169 169
161 161 161
157 157 157
157 157 157
143 143 143
157 157 157
173 173 173
198 198 198
218 218 218
222 222 222
217 217 217
211 211 211
208 208 208
202 202 202
196 196 196
187 187 187
178 178 178
169 169 169
165 165 165
168 168 168
177 177 177
185 185 185
188 188 188
194 194 194
193 193 193
191 191 191
188 188 188
186 186 186
190 190 190
191 191 191
194 194 194
190 190 190
185 185 185
178 178 178
169 169 169
163 163 163
156 156 156
155 155 155
162 162 162
165 165 165
168 168 168
175 175 175
176 176 176
174 174 174
171 171 171
167 167 167
162 162 162
159 159 159
159 159 159
161 161 161
163 163 163
167 167 167
166 166 166
163 163 163
165 165 165
163 163 163
164 164 164
163 163 163
163 163 163
164 164 164
168 168 168
172 172 172
173 173 173
173 173 173
169 169 169
162 162 162
160 160 160
160 160 160
144 144 144
158 158 158
169 169 169
191 191 191
211 211 211
220 220 220
219 219 219
211 211 211
207 207 207
203 203 203
198 198 198
191 191 191
182 182 182
172 172 172
169 169 169
176 176 176
185 185 185
188 188 188
190 190 190
191 191 191
189 189 189
183 183 183
179 179 179
180 180 180
182 182 182
184 184 184
188 188 188
190 190 190
186 186 186
186 186 186
181 181 181
179 179 179
175 175 175
174 174 174
177 177 177
176 176 176
175 175 175
177 177 177
179 179 179
176 176 176
171 171 171
167 167 167
163 163 163
158 158 158
157 157 157
159 159 159
161 161 161
161 161 161
162 162 162
162 162 162
163 163 163
165 165 165
164 164 164
165 165 165
167 167 167
168 168 168
169 169 169
172 172 172
172 172 172
171 171 171
168 168 168
162 162 162
164 164 164
160 160 160
147 147 147
161 161 161
169 169 169
182 182 182
200 200 200
215 215 215
217 217 217
212 212 212
205 205 205
201 201 201
199 199 199
192 192 192
184 184 184
174 174 174
169 169 169
173 173 173
181 181 181
187 187 187
186 186 186
185 185 185
181 181 181
175 175 175
172 172 172
173 173 173
175 175 175
176 176 176
180 180 180
185 185 185
186 186 186
189 189 189
189 189 189
190 190 190
190 190 190
186 186 186
185 185 185
180 180 180
177 177 177
177 177 177
174 174 174
172 172 172
168 168 168
165 165 165
163 163 163
158 158 158
156 156 156
156 156 156
160 160 160
156 156 156
156 156 156
161 161 161
162 162 162
165 165 165
165 165 165
164 164 164
164 164 164
169 169 169
170 170 170
171 171 171
169 169 169
170 170 170
168 168 168
161 161 161
160 160 160
155 155 155
144 144 144
164 164 164
166 166 166
172 172 172
187 187 187
209 209 209
212 212 212
212 212 212
204 204 204
199 199 199
199 199 199
193 193 193
185 185 185
173 173 173
162 162 162
164 164 164
175 175 175
176 176 176
175 175 175
176 176 176
174 174 174
170 170 170
165 165 165
168 168 168
168 168 168
167 167 167
171 171 171
174 174 174
177 177 177
181 181 181
185 185 185
187 187 187
187 187 187
183 183 183
182 182 182
178 178 178
173 173 173
170 170 170
167 167 167
166 166 166
164 164 164
163 163 163
161 161 161
158 158 158
157 157 157
156 156 156
154 154 154
153 153 153
153 153 153
158 158 158
158 158 158
163 163 163
164 164 164
163 163 163
161 161 161
167 167 167
166 166 166
167 167 167
165 165 165
167 167 167
166 166 166
154 154 154
147 147 147
141 141 141
137 137 137
171 171 171
166 166 166
166 166 166
178 178 178
203 203 203
210 210 210
210 210 210
204 204 204
197 197 197
198 198 198
194 194 194
184 184 184
171 171 171
155 155 155
156 156 156
165 165 165
161 161 161
155 155 155
159 159 159
163 163 163
164 164 164
156 156 156
156 156 156
155 155 155
158 158 158
159 159 159
157 157 157
157 157 157
163 163 163
167 167 167
167 167 167
165 165 165
161 161 161
163 163 163
163 163 163
157 157 157
156 156 156
154 154 154
156 156 156
155 155 155
157 157 157
157 157 157
155 155 155
155 155 155
154 154 154
149 149 149
149 149 149
149 149 149
153 153 153
155 155 155
160 160 160
166 166 166
164 164 164
163 163 163
164 164 164
162 162 162
164 164 164
163 163 163
165 165 165
160 160 160
143 143 143
133 133 133
131 131 131
132 132 132
174 174 174
168 168 168
164 164 164
171 171 171
194 194 194
208 208 208
207 207 207
205 205 205
197 197 197
194 194 194
194 194 194
182 182 182
169 169 169
153 153 153
152 152 152
153 153 153
146 146 146
137 137 137
139 139 139
145 145 145
151 151 151
148 148 148
143 143 143
139 139 139
141 141 141
139 139 139
136 136 136
135 135 135
137 137 137
138 138 138
141 141 141
141 141 141
139 139 139
140 140 140
140 140 140
139 139 139
140 140 140
141 141 141
142 142 142
142 142 142
145 145 145
147 147 147
147 147 147
148 148 148
149 149 149
148 148 148
145 145 145
146 146 146
150 150 150
154 154 154
156 156 156
161 161 161
162 162 162
161 161 161
159 159 159
159 159 159
162 162 162
165 165 165
165 165 165
152 152 152
136 136 136
126 126 126
129 129 129
132 132 132
171 171 171
166 166 166
162 162 162
166 166 166
185 185 185
206 206 206
205 205 205
204 204 204
198 198 198
191 191 191
191 191 191
182 182 182
165 165 165
153 153 153
147 147 147
140 140 140
132 132 132
127 127 127
132 132 132
137 137 137
142 142 142
142 142 142
144 144 144
142 142 142
137 137 137
129 129 129
123 123 123
118 118 118
116 116 116
114 114 114
115 115 115
119 119 119
117 117 117
119 119 119
123 123 123
125 125 125
127 127 127
129 129 129
131 131 131
134 134 134
136 136 136
140 140 140
140 140 140
144 144 144
149 149 149
149 149 149
146 146 146
144 144 144
149 149 149
151 151 151
150 150 150
154 154 154
155 155 155
157 157 157
157 157 157
158 158 158
162 162 162
165 165 165
160 160 160
145 145 145
130 130 130
122 122 122
127 127 127
133 133 133
164 164 164
162 162 162
160 160 160
163 163 163
179 179 179
200 200 200
205 205 205
201 201 201
198 198 198
191 191 191
189 189 189
183 183 183
167 167 167
156 156 156
146 146 146
131 131 131
121 121 121
122 122 122
131 131 131
140 140 140
142 142 142
144 144 144
148 148 148
152 152 152
151 151 151
147 147 147
136 136 136
130 130 130
123 123 123
118 118 118
116 116 116
121 121 121
120 120 120
122 122 122
125 125 125
128 128 128
129 129 129
132 132 132
136 136 136
140 140 140
143 143 143
144 144 144
143 143 143
144 144 144
148 148 148
147 147 147
145 145 145
145 145 145
146 146 146
148 148 148
148 148 148
148 148 148
149 149 149
152 152 152
155 155 155
159 159 159
162 162 162
164 164 164
154 154 154
138 138 138
126 126 126
122 122 122
121 121 121
126 126 126
152 152 152
151 151 151
153 153 153
160 160 160
172 172 172
192 192 192
200 200 200
197 197 197
197 197 197
193 193 193
186 186 186
184 184 184
173 173 173
159 159 159
146 146 146
133 133 133
123 123 123
124 124 124
136 136 136
142 142 142
148 148 148
152 152 152
156 156 156
158 158 158
159 159 159
160 160 160
155 155 155
149 149 149
144 144 144
137 137 137
132 132 132
132 132 132
133 133 133
136 136 136
137 137 137
137 137 137
137 137 137
136 136 136
139 139 139
141 141 141
144 144 144
146 146 146
143 143 143
141 141 141
143 143 143
144 144 144
144 144 144
144 144 144
144 144 144
147 147 147
149 149 149
147 147 147
146 146 146
151 151 151
155 155 155
161 161 161
165 165 165
160 160 160
147 147 147
133 133 133
125 125 125
119 119 119
116 116 116
122 122 122
138 138 138
139 139 139
147 147 147
158 158 158
167 167 167
182 182 182
195 195 195
193 193 193
194 194 194
195 195 195
189 189 189
183 183 183
179 179 179
165 165 165
152 152 152
142 142 142
134 134 134
135 135 135
146 146 146
152 152 152
154 154 154
156 156 156
159 159 159
161 161 161
161 161 161
161 161 161
155 155 155
148 148 148
143 143 143
134 134 134
128 128 128
127 127 127
129 129 129
133 133 133
134 134 134
133 133 133
133 133 133
132 132 132
136 136 136
138 138 138
139 139 139
139 139 139
138 138 138
137 137 137
138 138 138
139 139 139
141 141 141
143 143 143
145 145 145
150 150 150
149 149 149
145 145 145
146 146 146
150 150 150
157 157 157
162 162 162
163 163 163
155 155 155
140 140 140
129 129 129
126 126 126
114 114 114
115 115 115
111 111 111
127 127 127
128 128 128
141 141 141
155 155 155
164 164 164
173 173 173
188 188 188
192 192 192
189 189 189
193 193 193
190 190 190
185 185 185
180 180 180
171 171 171
159 159 159
151 151 151
149 149 149
152 152 152
163 163 163
168 168 168
170 170 170
169 169 169
166 166 166
165 165 165
164 164 164
160 160 160
152 152 152
145 145 145
137 137 137
127 127 127
118 118 118
116 116 116
119 119 119
120 120 120
123 123 123
125 125 125
128 128 128
131 131 131
134 134 134
137 137 137
139 139 139
141 141 141
142 142 142
143 143 143
142 142 142
143 143 143
144 144 144
147 147 147
149 149 149
151 151 151
147 147 147
144 144 144
147 147 147
153 153 153
159 159 159
161 161 161
159 159 159
151 151 151
135 135 135
128 128 128
126 126 126
108 108 108
106 106 106
100 100 100
116 116 116
117 117 117
131 131 131
151 151 151
161 161 161
167 167 167
176 176 176
188 188 188
189 189 189
189 189 189
191 191 191
185 185 185
180 180 180
175 175 175
168 168 168
160 160 160
160 160 160
166 166 166
176 176 176
180 180 180
181 181 181
179 179 179
175 175 175
170 170 170
165 165 165
162 162 162
151 151 151
138 138 138
130 130 130
121 121 121
115 115 115
114 114 114
113 113 113
113 113 113
117 117 117
122 122 122
126 126 126
132 132 132
137 137 137
143 143 143
148 148 148
153 153 153
153 153 153
155 155 155
156 156 156
152 152 152
151 151 151
150 150 150
150 150 150
150 150 150
148 148 148
144 144 144
150 150 150
155 155 155
158 158 158
158 158 158
154 154 154
149 149 149
133 133 133
130 130 130
119 119 119
103 103 103
97 97 97
95 95 95
114 114 114
111 111 111
124 124 124
145 145 145
158 158 158
163 163 163
166 166 166
180 180 180
188 188 188
189 189 189
189 189 189
188 188 188
184 184 184
177 177 177
174 174 174
169 169 169
168 168 168
171 171 171
178 178 178
184 184 184
186 186 186
184 184 184
178 178 178
172 172 172
166 166 166
160 160 160
151 151 151
141 141 141
131 131 131
123 123 123
118 118 118
117 117 117
116 116 116
116 116 116
120 120 120
127 127 127
132 132 132
137 137 137
141 141 141
148 148 148
157 157 157
161 161 161
162 162 162
165 165 165
163 163 163
157 157 157
153 153 153
151 151 151
150 150 150
148 148 148
146 146 146
145 145 145
152 152 152
156 156 156
158 158 158
156 156 156
153 153 153
148 148 148
132 132 132
129 129 129
113 113 113
95 95 95
92 92 92
97 97 97
114 114 114
112 112 112
116 116 116
140 140 140
154 154 154
161 161 161
160 160 160
170 170 170
183 183 183
188 188 188
187 187 187
188 188 188
188 188 188
182 182 182
174 174 174
177 177 177
171 171 171
169 169 169
170 170 170
176 176 176
179 179 179
177 177 177
172 172 172
166 166 166
162 162 162
153 153 153
148 148 148
141 141 141
133 133 133
128 128 128
126 126 126
123 123 123
121 121 121
121 121 121
124 124 124
126 126 126
133 133 133
139 139 139
145 145 145
151 151 151
160 160 160
162 162 162
162 162 162
161 161 161
159 159 159
155 155 155
152 152 152
149 149 149
148 148 148
146 146 146
146 146 146
147 147 147
154 154 154
156 156 156
155 155 155
154 154 154
153 153 153
149 149 149
133 133 133
125 125 125
104 104 104
88 88 88
90 90 90
97 97 97
111 111 111
111 111 111
112 112 112
132 132 132
149 149 149
157 157 157
156 156 156
165 165 165
176 176 176
185 185 185
187 187 187
185 185 185
188 188 188
188 188 188
180 180 180
177 177 177
174 174 174
170 170 170
164 164 164
168 168 168
169 169 169
170 170 170
165 165 165
160 160 160
154 154 154
145 145 145
139 139 139
135 135 135
130 130 130
125 125 125
126 126 126
121 121 121
120 120 120
120 120 120
121 121 121
123 123 123
131 131 131
138 138 138
143 143 143
149 149 149
155 155 155
157 157 157
157 157 157
156 156 156
154 154 154
152 152 152
148 148 148
148 148 148
149 149 149
147 147 147
147 147 147
150 150 150
155 155 155
155 155 155
152 152 152
153 153 153
154 154 154
149 149 149
132 132 132
118 118 118
96 96 96
84 84 84
89 89 89
96 96 96
112 112 112
112 112 112
111 111 111
125 125 125
143 143 143
153 153 153
152 152 152
162 162 162
172 172 172
182 182 182
185 185 185
185 185 185
189 189 189
191 191 191
186 186 186
177 177 177
176 176 176
171 171 171
163 163 163
161 161 161
161 161 161
163 163 163
160 160 160
156 156 156
147 147 147
140 140 140
135 135 135
131 131 131
128 128 128
124 124 124
125 125 125
121 121 121
118 118 118
120 120 120
122 122 122
126 126 126
133 133 133
140 140 140
143 143 143
147 147 147
151 151 151
152 152 152
152 152 152
151 151 151
149 149 149
148 148 148
146 146 146
148 148 148
148 148 148
148 148 148
149 149 149
152 152 152
154 154 154
152 152 152
150 150 150
154 154 154
155 155 155
154 154 154
130 130 130
109 109 109
86 86 86
84 84 84
88 88 88
93 93 93
110 110 110
112 112 112
111 111 111
118 118 118
137 137 137
147 147 147
149 149 149
158 158 158
171 171 171
181 181 181
187 187 187
187 187 187
186 186 186
190 190 190
191 191 191
182 182 182
173 173 173
170 170 170
162 162 162
159 159 159
156 156 156
155 155 155
154 154 154
150 150 150
146 146 146
138 138 138
132 132 132
130 130 130
128 128 128
126 126 126
124 124 124
124 124 124
122 122 122
124 124 124
128 128 128
131 131 131
138 138 138
141 141 141
143 143 143
146 146 146
149 149 149
150 150 150
152 152 152
149 149 149
146 146 146
146 146 146
144 144 144
147 147 147
148 148 148
149 149 149
151 151 151
153 153 153
153 153 153
151 151 151
151 151 151
156 156 156
158 158 158
155 155 155
128 128 128
100 100 100
82 82 82
85 85 85
88 88 88
91 91 91
111 111 111
113 113 113
109 109 109
114 114 114
130 130 130
141 141 141
143 143 143
152 152 152
169 169 169
182 182 182
190 190 190
192 192 192
184 184 184
185 185 185
191 191 191
187 187 187
175 175 175
169 169 169
163 163 163
159 159 159
154 154 154
151 151 151
149 149 149
145 145 145
143 143 143
139 139 139
135 135 135
131 131 131
129 129 129
129 129 129
129 129 129
130 130 130
130 130 130
131 131 131
135 135 135
137 137 137
140 140 140
142 142 142
141 141 141
144 144 144
150 150 150
149 149 149
151 151 151
147 147 147
145 145 145
144 144 144
143 143 143
145 145 145
146 146 146
150 150 150
151 151 151
152 152 152
152 152 152
153 153 153
155 155 155
160 160 160
160 160 160
158 158 158
123 123 123
91 91 91
80 80 80
85 85 85
87 87 87
90 90 90
112 112 112
114 114 114
109 109 109
113 113 113
123 123 123
135 135 135
139 139 139
151 151 151
169 169 169
184 184 184
192 192 192
192 192 192
189 189 189
185 185 185
189 189 189
187 187 187
178 178 178
169 169 169
163 163 163
157 157 157
153 153 153
150 150 150
147 147 147
144 144 144
140 140 140
135 135 135
136 136 136
133 133 133
133 133 133
132 132 132
132 132 132
136 136 136
136 136 136
138 138 138
139 139 139
140 140 140
144 144 144
141 141 141
141 141 141
144 144 144
147 147 147
146 146 146
146 146 146
144 144 144
142 142 142
142 142 142
144 144 144
145 145 145
147 147 147
151 151 151
152 152 152
151 151 151
150 150 150
157 157 157
161 161 161
164 164 164
163 163 163
154 154 154
119 119 119
86 86 86
80 80 80
85 85 85
86 86 86
88 88 88
112 112 112
115 115 115
109 109 109
110 110 110
114 114 114
123 123 123
137 137 137
153 153 153
170 170 170
186 186 186
194 194 194
194 194 194
193 193 193
191 191 191
187 187 187
186 186 186
175 175 175
171 171 171
165 165 165
157 157 157
152 152 152
148 148 148
146 146 146
143 143 143
139 139 139
133 133 133
133 133 133
131 131 131
132 132 132
132 132 132
131 131 131
133 133 133
134 134 134
135 135 135
137 137 137
136 136 136
142 142 142
140 140 140
139 139 139
141 141 141
142 142 142
142 142 142
142 142 142
140 140 140
141 141 141
142 142 142
143 143 143
145 145 145
148 148 148
150 150 150
152 152 152
151 151 151
153 153 153
161 161 161
167 167 167
168 168 168
161 161 161
151 151 151
118 118 118
85 85 85
80 80 80
84 84 84
87 87 87
89 89 89
112 112 112
111 111 111
109 109 109
107 107 107
108 108 108
117 117 117
136 136 136
156 156 156
171 171 171
187 187 187
196 196 196
195 195 195
193 193 193
192 192 192
186 186 186
184 184 184
174 174 174
172 172 172
168 168 168
161 161 161
153 153 153
150 150 150
146 146 146
144 144 144
141 141 141
135 135 135
133 133 133
131 131 131
131 131 131
131 131 131
130 130 130
130 130 130
134 134 134
134 134 134
136 136 136
136 136 136
140 140 140
138 138 138
137 137 137
138 138 138
137 137 137
138 138 138
138 138 138
139 139 139
141 141 141
140 140 140
141 141 141
143 143 143
146 146 146
149 149 149
151 151 151
153 153 153
157 157 157
166 166 166
170 170 170
169 169 169
159 159 159
150 150 150
119 119 119
86 86 86
81 81 81
85 85 85
89 89 89
92 92 92
109 109 109
106 106 106
102 102 102
104 104 104
106 106 106
112 112 112
132 132 132
156 156 156
173 173 173
190 190 190
196 196 196
195 195 195
194 194 194
191 191 191
185 185 185
185 185 185
174 174 174
171 171 171
170 170 170
166 166 166
158 158 158
155 155 155
149 149 149
146 146 146
143 143 143
140 140 140
136 136 136
133 133 133
133 133 133
134 134 134
132 132 132
134 134 134
137 137 137
137 137 137
138 138 138
138 138 138
138 138 138
136 136 136
136 136 136
135 135 135
135 135 135
136 136 136
136 136 136
138 138 138
139 139 139
140 140 140
140 140 140
145 145 145
147 147 147
149 149 149
153 153 153
159 159 159
164 164 164
170 170 170
170 170 170
166 166 166
158 158 158
149 149 149
121 121 121
90 90 90
81 81 81
86 86 86
90 90 90
92 92 92
104 104 104
102 102 102
100 100 100
103 103 103
106 106 106
106 106 106
129 129 129
156 156 156
176 176 176
196 196 196
199 199 199
196 196 196
194 194 194
191 191 191
184 184 184
181 181 181
176 176 176
171 171 171
172 172 172
168 168 168
163 163 163
156 156 156
151 151 151
147 147 147
143 143 143
141 141 141
138 138 138
135 135 135
133 133 133
134 134 134
135 135 135
136 136 136
138 138 138
137 137 137
136 136 136
136 136 136
134 134 134
133 133 133
133 133 133
133 133 133
134 134 134
135 135 135
134 134 134
135 135 135
137 137 137
140 140 140
140 140 140
145 145 145
149 149 149
151 151 151
157 157 157
162 162 162
167 167 167
169 169 169
170 170 170
165 165 165
155 155 155
150 150 150
123 123 123
93 93 93
81 81 81
86 86 86
91 91 91
94 94 94
102 102 102
100 100 100
100 100 100
102 102 102
105 105 105
103 103 103
125 125 125
157 157 157
181 181 181
198 198 198
203 203 203
197 197 197
194 194 194
192 192 192
181 181 181
177 177 177
174 174 174
173 173 173
172 172 172
168 168 168
164 164 164
158 158 158
150 150 150
146 146 146
141 141 141
137 137 137
134 134 134
133 133 133
129 129 129
133 133 133
134 134 134
134 134 134
136 136 136
135 135 135
135 135 135
132 132 132
133 133 133
133 133 133
131 131 131
132 132 132
131 131 131
132 132 132
133 133 133
133 133 133
136 136 136
140 140 140
141 141 141
145 145 145
151 151 151
154 154 154
163 163 163
163 163 163
168 168 168
167 167 167
168 168 168
163 163 163
154 154 154
152 152 152
128 128 128
96 96 96
80 80 80
85 85 85
92 92 92
96 96 96
103 103 103
98 98 98
100 100 100
103 103 103
105 105 105
103 103 103
123 123 123
156 156 156
185 185 185
202 202 202
204 204 204
200 200 200
196 196 196
188 188 188
177 177 177
175 175 175
170 170 170
173 173 173
170 170 170
166 166 166
160 160 160
161 161 161
153 153 153
144 144 144
137 137 137
132 132 132
128 128 128
126 126 126
125 125 125
126 126 126
128 128 128
129 129 129
129 129 129
128 128 128
128 128 128
128 128 128
129 129 129
129 129 129
127 127 127
127 127 127
129 129 129
129 129 129
132 132 132
133 133 133
137 137 137
139 139 139
143 143 143
148 148 148
154 154 154
158 158 158
163 163 163
161 161 161
168 168 168
165 165 165
163 163 163
161 161 161
155 155 155
153 153 153
133 133 133
100 100 100
82 82 82
86 86 86
92 92 92
96 96 96
102 102 102
97 97 97
99 99 99
102 102 102
104 104 104
100 100 100
126 126 126
159 159 159
191 191 191
207 207 207
207 207 207
201 201 201
198 198 198
186 186 186
173 173 173
171 171 171
168 168 168
169 169 169
171 171 171
166 166 166
157 157 157
157 157 157
155 155 155
146 146 146
135 135 135
130 130 130
126 126 126
123 123 123
120 120 120
120 120 120
121 121 121
122 122 122
122 122 122
122 122 122
120 120 120
122 122 122
123 123 123
123 123 123
122 122 122
124 124 124
127 127 127
129 129 129
132 132 132
133 133 133
136 136 136
140 140 140
145 145 145
151 151 151
156 156 156
159 159 159
162 162 162
162 162 162
165 165 165
161 161 161
161 161 161
161 161 161
156 156 156
156 156 156
137 137 137
105 105 105
85 85 85
87 87 87
93 93 93
96 96 96
101 101 101
98 98 98
99 99 99
103 103 103
100 100 100
99 99 99
123 123 123
162 162 162
196 196 196
209 209 209
205 205 205
199 199 199
193 193 193
184 184 184
172 172 172
168 168 168
163 163 163
164 164 164
167 167 167
166 166 166
155 155 155
150 150 150
152 152 152
146 146 146
138 138 138
130 130 130
126 126 126
123 123 123
117 117 117
118 118 118
116 116 116
115 115 115
117 117 117
117 117 117
115 115 115
116 116 116
118 118 118
119 119 119
121 121 121
124 124 124
127 127 127
130 130 130
131 131 131
131 131 131
138 138 138
144 144 144
150 150 150
154 154 154
157 157 157
159 159 159
161 161 161
160 160 160
161 161 161
159 159 159
161 161 161
161 161 161
158 158 158
157 157 157
141 141 141
109 109 109
87 87 87
89 89 89
95 95 95
98 98 98
