P3
64 64
255
127 127 127
135 135 135
141 141 141
139 139 139
134 134 134
128 128 128
122 122 122
115 115 115
110 110 110
109 109 109
108 108 108
107 107 107
107 107 107
108 108 108
108 108 108
108 108 108
109 109 109
109 109 109
109 109 109
108 108 108
108 108 108
108 108 108
107 107 107
106 106 106
106 106 106
106 106 106
105 105 105
104 104 104
103 103 103
102 102 102
101 101 101
102 102 102
101 101 101
101 101 101
100 100 100
99 99 99
97 97 97
95 95 95
95 95 95
94 94 94
93 93 93
92 92 92
90 90 90
89 89 89
88 88 88
88 88 88
87 87 87
85 85 85
85 85 85
85 85 85
84 84 84
84 84 84
84 84 84
83 83 83
84 84 84
86 86 86
85 85 85
84 84 84
85 85 85
87 87 87
90 90 90
88 88 88
83 83 83
88 88 88
130 130 130
138 138 138
143 143 143
140 140 140
134 134 134
129 129 129
123 123 123
116 116 116
110 110 110
108 108 108
108 108 108
107 107 107
108 108 108
108 108 108
109 109 109
109 109 109
109 109 109
110 110 110
109 109 109
109 109 109
109 109 109
108 108 108
108 108 108
107 107 107
107 107 107
106 106 106
105 105 105
104 104 104
104 104 104
102 102 102
102 102 102
102 102 102
102 102 102
101 101 101
101 101 101
100 100 100
99 99 99
97 97 97
97 97 97
96 96 96
95 95 95
94 94 94
93 93 93
91 91 91
90 90 90
90 90 90
89 89 89
87 87 87
86 86 86
85 85 85
85 85 85
84 84 84
85 85 85
85 85 85
84 84 84
86 86 86
86 86 86
85 85 85
86 86 86
88 88 88
89 89 89
89 89 89
84 84 84
86 86 86
133 133 133
141 141 141
144 144 144
140 140 140
135 135 135
130 130 130
124 124 124
116 116 116
109 109 109
108 108 108
108 108 108
109 109 109
109 109 109
109 109 109
110 110 110
110 110 110
110 110 110
110 110 110
110 110 110
109 109 109
109 109 109
108 108 108
108 108 108
108 108 108
107 107 107
107 107 107
106 106 106
104 104 104
104 104 104
103 103 103
103 103 103
103 103 103
102 102 102
102 102 102
102 102 102
102 102 102
101 101 101
100 100 100
99 99 99
99 99 99
98 98 98
96 96 96
95 95 95
93 93 93
92 92 92
91 91 91
90 90 90
89 89 89
88 88 88
87 87 87
86 86 86
85 85 85
85 85 85
85 85 85
85 85 85
86 86 86
86 86 86
85 85 85
86 86 86
88 88 88
89 89 89
89 89 89
85 85 85
86 86 86
137 137 137
144 144 144
146 146 146
141 141 141
134 134 134
130 130 130
124 124 124
115 115 115
109 109 109
109 109 109
109 109 109
109 109 109
109 109 109
109 109 109
110 110 110
110 110 110
110 110 110
110 110 110
110 110 110
110 110 110
109 109 109
109 109 109
108 108 108
108 108 108
107 107 107
106 106 106
105 105 105
104 104 104
104 104 104
104 104 104
103 103 103
104 104 104
104 104 104
104 104 104
103 103 103
102 102 102
102 102 102
101 101 101
101 101 101
100 100 100
100 100 100
99 99 99
97 97 97
96 96 96
95 95 95
94 94 94
93 93 93
92 92 92
91 91 91
90 90 90
88 88 88
88 88 88
87 87 87
86 86 86
86 86 86
86 86 86
87 87 87
86 86 86
87 87 87
88 88 88
89 89 89
90 90 90
87 87 87
86 86 86
140 140 140
146 146 146
146 146 146
142 142 142
134 134 134
130 130 130
124 124 124
115 115 115
110 110 110
110 110 110
110 110 110
109 109 109
109 109 109
110 110 110
111 111 111
111 111 111
111 111 111
111 111 111
111 111 111
111 111 111
110 110 110
109 109 109
108 108 108
107 107 107
106 106 106
106 106 106
105 105 105
105 105 105
104 104 104
103 103 103
103 103 103
104 104 104
104 104 104
105 105 105
104 104 104
103 103 103
102 102 102
102 102 102
102 102 102
102 102 102
102 102 102
102 102 102
101 101 101
99 99 99
99 99 99
98 98 98
97 97 97
96 96 96
94 94 94
94 94 94
92 92 92
91 91 91
90 90 90
88 88 88
88 88 88
88 88 88
88 88 88
88 88 88
88 88 88
88 88 88
89 89 89
90 90 90
88 88 88
87 87 87
143 143 143
148 148 148
147 147 147
142 142 142
134 134 134
130 130 130
123 123 123
114 114 114
111 111 111
110 110 110
110 110 110
109 109 109
109 109 109
110 110 110
111 111 111
111 111 111
111 111 111
111 111 111
111 111 111
109 109 109
108 108 108
107 107 107
106 106 106
105 105 105
105 105 105
105 105 105
104 104 104
104 104 104
104 104 104
103 103 103
103 103 103
104 104 104
104 104 104
105 105 105
105 105 105
103 103 103
102 102 102
103 103 103
103 103 103
103 103 103
103 103 103
104 104 104
104 104 104
102 102 102
101 101 101
101 101 101
100 100 100
99 99 99
97 97 97
96 96 96
95 95 95
94 94 94
94 94 94
91 91 91
90 90 90
91 91 91
90 90 90
90 90 90
89 89 89
89 89 89
90 90 90
90 90 90
88 88 88
87 87 87
144 144 144
148 148 148
148 148 148
141 141 141
134 134 134
130 130 130
123 123 123
115 115 115
112 112 112
112 112 112
111 111 111
109 109 109
109 109 109
109 109 109
109 109 109
109 109 109
110 110 110
108 108 108
107 107 107
105 105 105
104 104 104
104 104 104
103 103 103
102 102 102
102 102 102
102 102 102
102 102 102
102 102 102
101 101 101
102 102 102
102 102 102
104 104 104
104 104 104
104 104 104
104 104 104
103 103 103
103 103 103
103 103 103
103 103 103
102 102 102
103 103 103
103 103 103
104 104 104
103 103 103
101 101 101
100 100 100
100 100 100
99 99 99
98 98 98
98 98 98
97 97 97
96 96 96
98 98 98
98 98 98
93 93 93
91 91 91
94 94 94
94 94 94
92 92 92
91 91 91
92 92 92
92 92 92
89 89 89
86 86 86
143 143 143
147 147 147
146 146 146
140 140 140
132 132 132
129 129 129
122 122 122
114 114 114
112 112 112
112 112 112
110 110 110
108 108 108
105 105 105
105 105 105
106 106 106
106 106 106
105 105 105
104 104 104
103 103 103
102 102 102
101 101 101
100 100 100
100 100 100
99 99 99
99 99 99
98 98 98
97 97 97
97 97 97
98 98 98
99 99 99
101 101 101
103 103 103
104 104 104
104 104 104
104 104 104
103 103 103
103 103 103
103 103 103
101 101 101
100 100 100
101 101 101
100 100 100
100 100 100
101 101 101
100 100 100
98 98 98
98 98 98
98 98 98
97 97 97
97 97 97
97 97 97
94 94 94
97 97 97
100 100 100
98 98 98
93 93 93
93 93 93
97 97 97
98 98 98
96 96 96
94 94 94
94 94 94
90 90 90
88 88 88
142 142 142
147 147 147
145 145 145
139 139 139
130 130 130
126 126 126
119 119 119
113 113 113
111 111 111
111 111 111
110 110 110
106 106 106
104 104 104
104 104 104
104 104 104
103 103 103
101 101 101
101 101 101
102 102 102
102 102 102
100 100 100
99 99 99
98 98 98
98 98 98
97 97 97
97 97 97
95 95 95
94 94 94
95 95 95
97 97 97
99 99 99
102 102 102
103 103 103
103 103 103
103 103 103
103 103 103
103 103 103
102 102 102
99 99 99
99 99 99
99 99 99
99 99 99
98 98 98
101 101 101
100 100 100
99 99 99
99 99 99
97 97 97
97 97 97
96 96 96
96 96 96
93 93 93
92 92 92
96 96 96
99 99 99
97 97 97
95 95 95
95 95 95
100 100 100
101 101 101
98 98 98
97 97 97
93 93 93
89 89 89
142 142 142
148 148 148
145 145 145
139 139 139
130 130 130
124 124 124
117 117 117
113 113 113
112 112 112
112 112 112
111 111 111
107 107 107
105 105 105
104 104 104
103 103 103
102 102 102
100 100 100
99 99 99
100 100 100
100 100 100
99 99 99
99 99 99
97 97 97
97 97 97
96 96 96
96 96 96
96 96 96
93 93 93
95 95 95
97 97 97
100 100 100
102 102 102
103 103 103
102 102 102
102 102 102
104 104 104
105 105 105
103 103 103
98 98 98
99 99 99
100 100 100
98 98 98
99 99 99
103 103 103
102 102 102
101 101 101
101 101 101
94 94 94
94 94 94
95 95 95
96 96 96
96 96 96
94 94 94
94 94 94
97 97 97
100 100 100
99 99 99
95 95 95
95 95 95
100 100 100
101 101 101
100 100 100
97 97 97
92 92 92
141 141 141
146 146 146
144 144 144
139 139 139
129 129 129
121 121 121
114 114 114
111 111 111
113 113 113
112 112 112
111 111 111
108 108 108
107 107 107
105 105 105
103 103 103
101 101 101
100 100 100
100 100 100
100 100 100
100 100 100
99 99 99
99 99 99
99 99 99
99 99 99
97 97 97
97 97 97
94 94 94
94 94 94
96 96 96
100 100 100
102 102 102
103 103 103
104 104 104
102 102 102
103 103 103
106 106 106
109 109 109
107 107 107
103 103 103
102 102 102
103 103 103
104 104 104
105 105 105
106 106 106
103 103 103
102 102 102
100 100 100
97 97 97
93 93 93
91 91 91
92 92 92
92 92 92
92 92 92
93 93 93
95 95 95
95 95 95
96 96 96
98 98 98
93 93 93
97 97 97
101 101 101
102 102 102
100 100 100
94 94 94
142 142 142
146 146 146
144 144 144
139 139 139
127 127 127
118 118 118
113 113 113
113 113 113
115 115 115
116 116 116
114 114 114
111 111 111
108 108 108
104 104 104
102 102 102
101 101 101
98 98 98
98 98 98
97 97 97
98 98 98
97 97 97
98 98 98
98 98 98
97 97 97
95 95 95
98 98 98
96 96 96
92 92 92
96 96 96
101 101 101
103 103 103
102 102 102
102 102 102
102 102 102
103 103 103
107 107 107
110 110 110
109 109 109
109 109 109
108 108 108
109 109 109
108 108 108
106 106 106
104 104 104
102 102 102
101 101 101
100 100 100
99 99 99
94 94 94
92 92 92
92 92 92
93 93 93
94 94 94
96 96 96
99 99 99
99 99 99
95 95 95
92 92 92
95 95 95
96 96 96
100 100 100
101 101 101
101 101 101
96 96 96
144 144 144
146 146 146
142 142 142
137 137 137
124 124 124
117 117 117
115 115 115
115 115 115
118 118 118
117 117 117
113 113 113
109 109 109
104 104 104
101 101 101
100 100 100
99 99 99
100 100 100
100 100 100
101 101 101
101 101 101
100 100 100
98 98 98
97 97 97
96 96 96
93 93 93
93 93 93
94 94 94
95 95 95
97 97 97
101 101 101
102 102 102
101 101 101
100 100 100
101 101 101
103 103 103
106 106 106
110 110 110
111 111 111
112 112 112
110 110 110
107 107 107
105 105 105
102 102 102
100 100 100
100 100 100
98 98 98
96 96 96
94 94 94
89 89 89
90 90 90
92 92 92
94 94 94
97 97 97
102 102 102
106 106 106
107 107 107
104 104 104
97 97 97
94 94 94
95 95 95
99 99 99
100 100 100
101 101 101
98 98 98
147 147 147
146 146 146
141 141 141
136 136 136
125 125 125
119 119 119
116 116 116
115 115 115
113 113 113
112 112 112
111 111 111
109 109 109
109 109 109
108 108 108
107 107 107
104 104 104
100 100 100
99 99 99
98 98 98
99 99 99
98 98 98
99 99 99
99 99 99
99 99 99
96 96 96
93 93 93
93 93 93
95 95 95
98 98 98
100 100 100
100 100 100
101 101 101
100 100 100
102 102 102
103 103 103
106 106 106
110 110 110
112 112 112
111 111 111
107 107 107
104 104 104
103 103 103
101 101 101
100 100 100
100 100 100
98 98 98
94 94 94
91 91 91
86 86 86
87 87 87
90 90 90
92 92 92
94 94 94
100 100 100
106 106 106
110 110 110
108 108 108
103 103 103
97 97 97
96 96 96
99 99 99
100 100 100
99 99 99
98 98 98
147 147 147
142 142 142
137 137 137
135 135 135
127 127 127
122 122 122
116 116 116
112 112 112
110 110 110
109 109 109
115 115 115
120 120 120
117 117 117
112 112 112
107 107 107
101 101 101
96 96 96
96 96 96
93 93 93
94 94 94
96 96 96
100 100 100
102 102 102
104 104 104
102 102 102
98 98 98
95 95 95
95 95 95
98 98 98
98 98 98
99 99 99
100 100 100
100 100 100
102 102 102
106 106 106
109 109 109
110 110 110
112 112 112
109 109 109
105 105 105
103 103 103
102 102 102
102 102 102
101 101 101
101 101 101
100 100 100
97 97 97
95 95 95
91 91 91
90 90 90
93 93 93
94 94 94
99 99 99
102 102 102
105 105 105
109 109 109
110 110 110
105 105 105
99 99 99
97 97 97
97 97 97
98 98 98
101 101 101
99 99 99
147 147 147
142 142 142
139 139 139
136 136 136
128 128 128
123 123 123
115 115 115
108 108 108
107 107 107
108 108 108
116 116 116
120 120 120
114 114 114
107 107 107
104 104 104
101 101 101
101 101 101
100 100 100
98 98 98
97 97 97
99 99 99
100 100 100
100 100 100
101 101 101
103 103 103
101 101 101
97 97 97
96 96 96
99 99 99
98 98 98
101 101 101
101 101 101
101 101 101
103 103 103
107 107 107
110 110 110
112 112 112
111 111 111
107 107 107
101 101 101
101 101 101
99 99 99
97 97 97
97 97 97
99 99 99
104 104 104
107 107 107
104 104 104
101 101 101
96 96 96
98 98 98
98 98 98
102 102 102
105 105 105
104 104 104
106 106 106
107 107 107
107 107 107
102 102 102
99 99 99
94 94 94
96 96 96
102 102 102
100 100 100
145 145 145
142 142 142
141 141 141
135 135 135
125 125 125
121 121 121
114 114 114
107 107 107
105 105 105
106 106 106
109 109 109
110 110 110
105 105 105
101 101 101
102 102 102
99 99 99
103 103 103
103 103 103
102 102 102
101 101 101
101 101 101
100 100 100
98 98 98
95 95 95
97 97 97
99 99 99
99 99 99
99 99 99
99 99 99
99 99 99
101 101 101
101 101 101
101 101 101
103 103 103
107 107 107
109 109 109
112 112 112
110 110 110
105 105 105
97 97 97
98 98 98
93 93 93
92 92 92
91 91 91
94 94 94
97 97 97
103 103 103
103 103 103
104 104 104
101 101 101
106 106 106
103 103 103
99 99 99
101 101 101
103 103 103
102 102 102
102 102 102
105 105 105
104 104 104
101 101 101
98 98 98
97 97 97
99 99 99
102 102 102
142 142 142
141 141 141
140 140 140
133 133 133
125 125 125
120 120 120
115 115 115
108 108 108
106 106 106
104 104 104
99 99 99
99 99 99
97 97 97
99 99 99
101 101 101
98 98 98
102 102 102
104 104 104
102 102 102
101 101 101
99 99 99
98 98 98
97 97 97
95 95 95
97 97 97
100 100 100
101 101 101
102 102 102
100 100 100
100 100 100
101 101 101
102 102 102
102 102 102
104 104 104
107 107 107
109 109 109
111 111 111
108 108 108
103 103 103
98 98 98
96 96 96
93 93 93
93 93 93
90 90 90
93 93 93
96 96 96
98 98 98
100 100 100
100 100 100
98 98 98
102 102 102
102 102 102
102 102 102
97 97 97
94 94 94
96 96 96
96 96 96
99 99 99
104 104 104
103 103 103
101 101 101
99 99 99
102 102 102
102 102 102
140 140 140
141 141 141
141 141 141
133 133 133
123 123 123
120 120 120
115 115 115
107 107 107
104 104 104
102 102 102
98 98 98
97 97 97
98 98 98
99 99 99
101 101 101
102 102 102
103 103 103
103 103 103
101 101 101
100 100 100
97 97 97
95 95 95
95 95 95
96 96 96
95 95 95
97 97 97
106 106 106
105 105 105
100 100 100
101 101 101
101 101 101
102 102 102
103 103 103
105 105 105
107 107 107
109 109 109
111 111 111
107 107 107
101 101 101
99 99 99
96 96 96
94 94 94
93 93 93
90 90 90
91 91 91
94 94 94
96 96 96
98 98 98
96 96 96
96 96 96
99 99 99
101 101 101
102 102 102
97 97 97
92 92 92
92 92 92
94 94 94
98 98 98
102 102 102
102 102 102
100 100 100
98 98 98
101 101 101
103 103 103
135 135 135
140 140 140
143 143 143
137 137 137
125 125 125
120 120 120
113 113 113
107 107 107
104 104 104
103 103 103
102 102 102
101 101 101
101 101 101
101 101 101
103 103 103
103 103 103
102 102 102
101 101 101
98 98 98
97 97 97
94 94 94
94 94 94
94 94 94
96 96 96
97 97 97
101 101 101
109 109 109
106 106 106
102 102 102
101 101 101
102 102 102
104 104 104
105 105 105
105 105 105
107 107 107
109 109 109
110 110 110
107 107 107
101 101 101
97 97 97
96 96 96
92 92 92
93 93 93
92 92 92
91 91 91
92 92 92
94 94 94
96 96 96
96 96 96
96 96 96
96 96 96
99 99 99
100 100 100
97 97 97
93 93 93
93 93 93
94 94 94
97 97 97
101 101 101
102 102 102
100 100 100
100 100 100
101 101 101
101 101 101
127 127 127
135 135 135
141 141 141
138 138 138
126 126 126
121 121 121
115 115 115
108 108 108
106 106 106
105 105 105
106 106 106
103 103 103
102 102 102
102 102 102
103 103 103
102 102 102
101 101 101
100 100 100
98 98 98
97 97 97
96 96 96
94 94 94
94 94 94
96 96 96
99 99 99
107 107 107
110 110 110
106 106 106
102 102 102
102 102 102
104 104 104
105 105 105
106 106 106
106 106 106
107 107 107
109 109 109
110 110 110
108 108 108
101 101 101
98 98 98
96 96 96
93 93 93
92 92 92
91 91 91
91 91 91
90 90 90
91 91 91
93 93 93
95 95 95
95 95 95
97 97 97
99 99 99
101 101 101
99 99 99
95 95 95
94 94 94
96 96 96
98 98 98
100 100 100
102 102 102
100 100 100
100 100 100
101 101 101
101 101 101
119 119 119
132 132 132
138 138 138
135 135 135
127 127 127
121 121 121
115 115 115
108 108 108
107 107 107
107 107 107
107 107 107
105 105 105
103 103 103
101 101 101
101 101 101
101 101 101
100 100 100
100 100 100
98 98 98
98 98 98
97 97 97
97 97 97
97 97 97
99 99 99
105 105 105
110 110 110
110 110 110
106 106 106
102 102 102
103 103 103
105 105 105
106 106 106
105 105 105
106 106 106
108 108 108
108 108 108
108 108 108
108 108 108
104 104 104
100 100 100
98 98 98
95 95 95
93 93 93
92 92 92
91 91 91
91 91 91
90 90 90
92 92 92
93 93 93
94 94 94
95 95 95
97 97 97
99 99 99
99 99 99
98 98 98
95 95 95
96 96 96
96 96 96
98 98 98
100 100 100
101 101 101
102 102 102
101 101 101
99 99 99
118 118 118
133 133 133
138 138 138
134 134 134
126 126 126
119 119 119
114 114 114
108 108 108
107 107 107
107 107 107
109 109 109
108 108 108
107 107 107
105 105 105
104 104 104
104 104 104
104 104 104
103 103 103
102 102 102
101 101 101
100 100 100
101 101 101
102 102 102
104 104 104
109 109 109
111 111 111
110 110 110
106 106 106
104 104 104
105 105 105
105 105 105
105 105 105
104 104 104
106 106 106
107 107 107
108 108 108
109 109 109
108 108 108
105 105 105
103 103 103
100 100 100
98 98 98
96 96 96
95 95 95
94 94 94
94 94 94
93 93 93
93 93 93
93 93 93
94 94 94
95 95 95
97 97 97
98 98 98
98 98 98
97 97 97
96 96 96
96 96 96
95 95 95
97 97 97
100 100 100
100 100 100
101 101 101
100 100 100
98 98 98
119 119 119
132 132 132
137 137 137
132 132 132
124 124 124
119 119 119
115 115 115
110 110 110
108 108 108
108 108 108
108 108 108
109 109 109
110 110 110
109 109 109
108 108 108
108 108 108
108 108 108
106 106 106
105 105 105
104 104 104
105 105 105
106 106 106
107 107 107
108 108 108
109 109 109
111 111 111
110 110 110
107 107 107
105 105 105
106 106 106
106 106 106
104 104 104
104 104 104
106 106 106
107 107 107
107 107 107
108 108 108
108 108 108
105 105 105
103 103 103
102 102 102
100 100 100
98 98 98
98 98 98
97 97 97
97 97 97
96 96 96
97 97 97
96 96 96
96 96 96
96 96 96
97 97 97
97 97 97
98 98 98
98 98 98
97 97 97
97 97 97
96 96 96
98 98 98
99 99 99
99 99 99
100 100 100
100 100 100
98 98 98
121 121 121
132 132 132
135 135 135
130 130 130
123 123 123
119 119 119
115 115 115
111 111 111
109 109 109
108 108 108
107 107 107
108 108 108
110 110 110
110 110 110
110 110 110
110 110 110
109 109 109
108 108 108
108 108 108
107 107 107
108 108 108
110 110 110
109 109 109
109 109 109
110 110 110
111 111 111
109 109 109
106 106 106
106 106 106
107 107 107
107 107 107
105 105 105
105 105 105
107 107 107
107 107 107
107 107 107
109 109 109
109 109 109
106 106 106
102 102 102
103 103 103
102 102 102
99 99 99
100 100 100
100 100 100
100 100 100
99 99 99
99 99 99
99 99 99
99 99 99
99 99 99
99 99 99
99 99 99
99 99 99
99 99 99
98 98 98
97 97 97
97 97 97
100 100 100
99 99 99
99 99 99
101 101 101
101 101 101
100 100 100
123 123 123
132 132 132
133 133 133
128 128 128
123 123 123
118 118 118
115 115 115
111 111 111
110 110 110
110 110 110
109 109 109
109 109 109
110 110 110
110 110 110
110 110 110
110 110 110
109 109 109
110 110 110
110 110 110
110 110 110
110 110 110
109 109 109
109 109 109
110 110 110
111 111 111
111 111 111
107 107 107
106 106 106
105 105 105
107 107 107
107 107 107
105 105 105
105 105 105
106 106 106
107 107 107
107 107 107
109 109 109
111 111 111
108 108 108
103 103 103
102 102 102
102 102 102
100 100 100
101 101 101
101 101 101
101 101 101
100 100 100
99 99 99
100 100 100
100 100 100
100 100 100
100 100 100
101 101 101
101 101 101
100 100 100
99 99 99
99 99 99
99 99 99
100 100 100
100 100 100
100 100 100
102 102 102
102 102 102
101 101 101
125 125 125
132 132 132
132 132 132
129 129 129
123 123 123
118 118 118
115 115 115
112 112 112
111 111 111
110 110 110
109 109 109
109 109 109
109 109 109
110 110 110
110 110 110
110 110 110
110 110 110
110 110 110
110 110 110
110 110 110
110 110 110
110 110 110
111 111 111
111 111 111
111 111 111
109 109 109
106 106 106
105 105 105
105 105 105
106 106 106
106 106 106
104 104 104
103 103 103
103 103 103
105 105 105
106 106 106
107 107 107
111 111 111
110 110 110
105 105 105
104 104 104
101 101 101
99 99 99
101 101 101
102 102 102
102 102 102
101 101 101
101 101 101
101 101 101
101 101 101
101 101 101
101 101 101
103 103 103
103 103 103
102 102 102
101 101 101
100 100 100
99 99 99
100 100 100
100 100 100
101 101 101
103 103 103
103 103 103
100 100 100
127 127 127
132 132 132
133 133 133
128 128 128
122 122 122
118 118 118
115 115 115
112 112 112
111 111 111
110 110 110
109 109 109
109 109 109
109 109 109
109 109 109
110 110 110
110 110 110
111 111 111
111 111 111
110 110 110
111 111 111
111 111 111
112 112 112
113 113 113
112 112 112
111 111 111
109 109 109
107 107 107
104 104 104
103 103 103
102 102 102
103 103 103
103 103 103
102 102 102
101 101 101
103 103 103
105 105 105
107 107 107
109 109 109
108 108 108
106 106 106
106 106 106
103 103 103
99 99 99
100 100 100
101 101 101
102 102 102
102 102 102
103 103 103
103 103 103
104 104 104
103 103 103
103 103 103
104 104 104
104 104 104
104 104 104
102 102 102
100 100 100
100 100 100
100 100 100
101 101 101
102 102 102
105 105 105
104 104 104
99 99 99
129 129 129
132 132 132
130 130 130
125 125 125
122 122 122
119 119 119
116 116 116
114 114 114
112 112 112
112 112 112
111 111 111
112 112 112
112 112 112
111 111 111
112 112 112
111 111 111
112 112 112
111 111 111
111 111 111
112 112 112
112 112 112
113 113 113
114 114 114
111 111 111
110 110 110
111 111 111
108 108 108
103 103 103
99 99 99
97 97 97
99 99 99
101 101 101
101 101 101
101 101 101
102 102 102
105 105 105
107 107 107
106 106 106
103 103 103
101 101 101
105 105 105
105 105 105
102 102 102
101 101 101
101 101 101
102 102 102
103 103 103
103 103 103
104 104 104
105 105 105
104 104 104
104 104 104
104 104 104
104 104 104
104 104 104
103 103 103
101 101 101
101 101 101
101 101 101
102 102 102
103 103 103
106 106 106
105 105 105
99 99 99
130 130 130
131 131 131
128 128 128
124 124 124
122 122 122
121 121 121
117 117 117
115 115 115
114 114 114
113 113 113
113 113 113
113 113 113
113 113 113
113 113 113
112 112 112
112 112 112
112 112 112
111 111 111
111 111 111
113 113 113
114 114 114
114 114 114
114 114 114
112 112 112
112 112 112
113 113 113
110 110 110
102 102 102
94 94 94
92 92 92
96 96 96
101 101 101
103 103 103
101 101 101
103 103 103
107 107 107
109 109 109
106 106 106
100 100 100
97 97 97
101 101 101
103 103 103
104 104 104
104 104 104
103 103 103
104 104 104
104 104 104
104 104 104
105 105 105
105 105 105
105 105 105
106 106 106
106 106 106
106 106 106
105 105 105
104 104 104
102 102 102
101 101 101
102 102 102
103 103 103
104 104 104
106 106 106
104 104 104
100 100 100
132 132 132
131 131 131
127 127 127
124 124 124
124 124 124
122 122 122
119 119 119
116 116 116
114 114 114
114 114 114
114 114 114
113 113 113
113 113 113
112 112 112
112 112 112
112 112 112
111 111 111
111 111 111
112 112 112
114 114 114
116 116 116
116 116 116
116 116 116
114 114 114
113 113 113
115 115 115
113 113 113
104 104 104
92 92 92
90 90 90
97 97 97
104 104 104
106 106 106
103 103 103
104 104 104
110 110 110
111 111 111
106 106 106
100 100 100
96 96 96
99 99 99
101 101 101
102 102 102
105 105 105
105 105 105
106 106 106
105 105 105
106 106 106
106 106 106
106 106 106
106 106 106
107 107 107
107 107 107
106 106 106
106 106 106
105 105 105
103 103 103
103 103 103
103 103 103
104 104 104
104 104 104
107 107 107
104 104 104
102 102 102
134 134 134
132 132 132
128 128 128
124 124 124
125 125 125
124 124 124
122 122 122
117 117 117
115 115 115
115 115 115
114 114 114
113 113 113
112 112 112
112 112 112
111 111 111
111 111 111
110 110 110
111 111 111
113 113 113
116 116 116
117 117 117
117 117 117
118 118 118
117 117 117
115 115 115
116 116 116
115 115 115
104 104 104
93 93 93
94 94 94
103 103 103
110 110 110
109 109 109
105 105 105
105 105 105
110 110 110
113 113 113
110 110 110
104 104 104
99 99 99
100 100 100
101 101 101
101 101 101
104 104 104
105 105 105
106 106 106
106 106 106
105 105 105
106 106 106
106 106 106
107 107 107
107 107 107
107 107 107
106 106 106
106 106 106
106 106 106
104 104 104
104 104 104
105 105 105
105 105 105
105 105 105
108 108 108
105 105 105
103 103 103
138 138 138
135 135 135
130 130 130
125 125 125
125 125 125
125 125 125
123 123 123
119 119 119
117 117 117
115 115 115
114 114 114
113 113 113
111 111 111
111 111 111
111 111 111
111 111 111
110 110 110
112 112 112
114 114 114
117 117 117
117 117 117
116 116 116
118 118 118
118 118 118
118 118 118
117 117 117
114 114 114
107 107 107
102 102 102
104 104 104
112 112 112
116 116 116
112 112 112
107 107 107
107 107 107
112 112 112
115 115 115
114 114 114
109 109 109
104 104 104
102 102 102
102 102 102
101 101 101
103 103 103
104 104 104
105 105 105
106 106 106
105 105 105
105 105 105
106 106 106
106 106 106
106 106 106
106 106 106
105 105 105
106 106 106
106 106 106
105 105 105
106 106 106
107 107 107
106 106 106
106 106 106
109 109 109
110 110 110
104 104 104
139 139 139
138 138 138
132 132 132
128 128 128
126 126 126
126 126 126
124 124 124
121 121 121
119 119 119
116 116 116
114 114 114
113 113 113
111 111 111
111 111 111
111 111 111
110 110 110
111 111 111
114 114 114
116 116 116
117 117 117
116 116 116
112 112 112
114 114 114
116 116 116
117 117 117
118 118 118
116 116 116
111 111 111
109 109 109
113 113 113
119 119 119
119 119 119
113 113 113
107 107 107
107 107 107
111 111 111
114 114 114
114 114 114
110 110 110
106 106 106
103 103 103
103 103 103
101 101 101
101 101 101
102 102 102
104 104 104
106 106 106
106 106 106
105 105 105
105 105 105
105 105 105
105 105 105
105 105 105
105 105 105
105 105 105
106 106 106
107 107 107
107 107 107
108 108 108
108 108 108
107 107 107
110 110 110
110 110 110
104 104 104
138 138 138
140 140 140
135 135 135
130 130 130
128 128 128
126 126 126
126 126 126
123 123 123
120 120 120
118 118 118
115 115 115
113 113 113
111 111 111
112 112 112
111 111 111
111 111 111
112 112 112
114 114 114
115 115 115
115 115 115
113 113 113
110 110 110
112 112 112
115 115 115
118 118 118
118 118 118
116 116 116
114 114 114
115 115 115
120 120 120
120 120 120
117 117 117
111 111 111
107 107 107
107 107 107
108 108 108
110 110 110
110 110 110
108 108 108
106 106 106
105 105 105
104 104 104
101 101 101
100 100 100
100 100 100
103 103 103
104 104 104
106 106 106
107 107 107
106 106 106
105 105 105
104 104 104
105 105 105
105 105 105
106 106 106
106 106 106
108 108 108
109 109 109
110 110 110
110 110 110
109 109 109
111 111 111
109 109 109
103 103 103
136 136 136
141 141 141
138 138 138
130 130 130
128 128 128
127 127 127
125 125 125
124 124 124
121 121 121
119 119 119
115 115 115
113 113 113
112 112 112
112 112 112
112 112 112
112 112 112
114 114 114
114 114 114
114 114 114
112 112 112
111 111 111
111 111 111
113 113 113
114 114 114
118 118 118
120 120 120
118 118 118
119 119 119
120 120 120
121 121 121
118 118 118
114 114 114
108 108 108
106 106 106
107 107 107
107 107 107
108 108 108
110 110 110
110 110 110
110 110 110
109 109 109
106 106 106
101 101 101
100 100 100
101 101 101
103 103 103
103 103 103
105 105 105
107 107 107
108 108 108
106 106 106
105 105 105
105 105 105
106 106 106
107 107 107
107 107 107
109 109 109
111 111 111
111 111 111
111 111 111
111 111 111
111 111 111
109 109 109
102 102 102
134 134 134
139 139 139
138 138 138
132 132 132
128 128 128
126 126 126
125 125 125
123 123 123
122 122 122
119 119 119
115 115 115
114 114 114
112 112 112
112 112 112
113 113 113
113 113 113
114 114 114
114 114 114
112 112 112
111 111 111
112 112 112
113 113 113
116 116 116
116 116 116
118 118 118
119 119 119
119 119 119
123 123 123
124 124 124
121 121 121
118 118 118
113 113 113
109 109 109
107 107 107
109 109 109
109 109 109
111 111 111
110 110 110
109 109 109
110 110 110
110 110 110
106 106 106
102 102 102
99 99 99
101 101 101
103 103 103
104 104 104
104 104 104
105 105 105
109 109 109
109 109 109
107 107 107
106 106 106
107 107 107
107 107 107
109 109 109
110 110 110
112 112 112
113 113 113
113 113 113
113 113 113
111 111 111
109 109 109
102 102 102
132 132 132
137 137 137
136 136 136
132 132 132
128 128 128
126 126 126
124 124 124
123 123 123
122 122 122
119 119 119
116 116 116
114 114 114
113 113 113
113 113 113
113 113 113
113 113 113
114 114 114
113 113 113
112 112 112
112 112 112
113 113 113
114 114 114
117 117 117
120 120 120
119 119 119
119 119 119
119 119 119
123 123 123
125 125 125
122 122 122
119 119 119
116 116 116
113 113 113
113 113 113
113 113 113
112 112 112
112 112 112
113 113 113
111 111 111
111 111 111
110 110 110
107 107 107
103 103 103
101 101 101
101 101 101
102 102 102
104 104 104
103 103 103
104 104 104
107 107 107
108 108 108
108 108 108
108 108 108
108 108 108
109 109 109
110 110 110
112 112 112
113 113 113
114 114 114
114 114 114
113 113 113
112 112 112
108 108 108
102 102 102
132 132 132
136 136 136
136 136 136
133 133 133
128 128 128
126 126 126
124 124 124
122 122 122
122 122 122
119 119 119
116 116 116
114 114 114
113 113 113
113 113 113
113 113 113
113 113 113
114 114 114
114 114 114
113 113 113
113 113 113
112 112 112
114 114 114
117 117 117
120 120 120
121 121 121
120 120 120
120 120 120
121 121 121
124 124 124
121 121 121
120 120 120
119 119 119
116 116 116
116 116 116
115 115 115
112 112 112
112 112 112
113 113 113
112 112 112
110 110 110
109 109 109
107 107 107
104 104 104
102 102 102
101 101 101
102 102 102
103 103 103
103 103 103
103 103 103
105 105 105
107 107 107
107 107 107
108 108 108
110 110 110
111 111 111
111 111 111
113 113 113
113 113 113
114 114 114
115 115 115
114 114 114
112 112 112
108 108 108
104 104 104
132 132 132
135 135 135
137 137 137
134 134 134
128 128 128
126 126 126
124 124 124
122 122 122
121 121 121
119 119 119
116 116 116
114 114 114
113 113 113
112 112 112
111 111 111
113 113 113
116 116 116
116 116 116
115 115 115
115 115 115
115 115 115
116 116 116
119 119 119
120 120 120
121 121 121
121 121 121
120 120 120
122 122 122
123 123 123
121 121 121
120 120 120
120 120 120
117 117 117
115 115 115
113 113 113
112 112 112
112 112 112
111 111 111
110 110 110
110 110 110
109 109 109
108 108 108
106 106 106
104 104 104
103 103 103
104 104 104
102 102 102
102 102 102
103 103 103
104 104 104
106 106 106
106 106 106
106 106 106
108 108 108
112 112 112
113 113 113
114 114 114
113 113 113
115 115 115
116 116 116
116 116 116
114 114 114
110 110 110
109 109 109
133 133 133
134 134 134
136 136 136
134 134 134
128 128 128
125 125 125
125 125 125
123 123 123
121 121 121
120 120 120
117 117 117
114 114 114
112 112 112
108 108 108
108 108 108
114 114 114
117 117 117
117 117 117
118 118 118
119 119 119
119 119 119
119 119 119
121 121 121
121 121 121
121 121 121
122 122 122
121 121 121
121 121 121
121 121 121
118 118 118
118 118 118
118 118 118
115 115 115
113 113 113
111 111 111
111 111 111
110 110 110
109 109 109
109 109 109
109 109 109
109 109 109
108 108 108
107 107 107
106 106 106
106 106 106
106 106 106
104 104 104
104 104 104
103 103 103
103 103 103
105 105 105
106 106 106
106 106 106
106 106 106
111 111 111
113 113 113
113 113 113
113 113 113
115 115 115
116 116 116
118 118 118
116 116 116
113 113 113
113 113 113
135 135 135
136 136 136
136 136 136
135 135 135
130 130 130
126 126 126
125 125 125
124 124 124
121 121 121
121 121 121
119 119 119
114 114 114
110 110 110
105 105 105
107 107 107
114 114 114
117 117 117
118 118 118
120 120 120
123 123 123
123 123 123
121 121 121
122 122 122
121 121 121
121 121 121
122 122 122
121 121 121
120 120 120
118 118 118
115 115 115
113 113 113
111 111 111
110 110 110
111 111 111
110 110 110
108 108 108
109 109 109
108 108 108
108 108 108
108 108 108
108 108 108
109 109 109
108 108 108
107 107 107
109 109 109
108 108 108
108 108 108
105 105 105
105 105 105
103 103 103
103 103 103
106 106 106
107 107 107
107 107 107
110 110 110
112 112 112
113 113 113
113 113 113
116 116 116
118 118 118
120 120 120
115 115 115
114 114 114
115 115 115
136 136 136
136 136 136
136 136 136
135 135 135
132 132 132
128 128 128
125 125 125
125 125 125
122 122 122
120 120 120
120 120 120
114 114 114
110 110 110
106 106 106
107 107 107
112 112 112
116 116 116
118 118 118
120 120 120
123 123 123
124 124 124
121 121 121
120 120 120
118 118 118
118 118 118
118 118 118
118 118 118
116 116 116
113 113 113
110 110 110
108 108 108
106 106 106
106 106 106
108 108 108
107 107 107
107 107 107
108 108 108
108 108 108
108 108 108
108 108 108
108 108 108
109 109 109
108 108 108
109 109 109
111 111 111
111 111 111
109 109 109
107 107 107
106 106 106
105 105 105
104 104 104
104 104 104
107 107 107
107 107 107
109 109 109
112 112 112
113 113 113
114 114 114
117 117 117
120 120 120
120 120 120
115 115 115
116 116 116
117 117 117
135 135 135
135 135 135
135 135 135
135 135 135
134 134 134
131 131 131
125 125 125
126 126 126
124 124 124
121 121 121
121 121 121
116 116 116
111 111 111
109 109 109
107 107 107
110 110 110
113 113 113
115 115 115
115 115 115
117 117 117
119 119 119
117 117 117
119 119 119
120 120 120
117 117 117
116 116 116
113 113 113
112 112 112
108 108 108
105 105 105
103 103 103
102 102 102
101 101 101
101 101 101
102 102 102
104 104 104
104 104 104
104 104 104
105 105 105
105 105 105
106 106 106
108 108 108
107 107 107
109 109 109
111 111 111
112 112 112
109 109 109
107 107 107
106 106 106
105 105 105
103 103 103
103 103 103
104 104 104
107 107 107
108 108 108
111 111 111
114 114 114
116 116 116
118 118 118
120 120 120
119 119 119
115 115 115
117 117 117
118 118 118
134 134 134
134 134 134
134 134 134
135 135 135
136 136 136
133 133 133
127 127 127
125 125 125
127 127 127
123 123 123
121 121 121
119 119 119
113 113 113
110 110 110
109 109 109
106 106 106
107 107 107
108 108 108
110 110 110
113 113 113
114 114 114
114 114 114
114 114 114
117 117 117
120 120 120
120 120 120
118 118 118
115 115 115
112 112 112
108 108 108
106 106 106
105 105 105
103 103 103
102 102 102
103 103 103
104 104 104
104 104 104
105 105 105
106 106 106
107 107 107
107 107 107
107 107 107
106 106 106
108 108 108
109 109 109
109 109 109
108 108 108
108 108 108
106 106 106
104 104 104
103 103 103
103 103 103
103 103 103
106 106 106
108 108 108
111 111 111
115 115 115
117 117 117
118 118 118
120 120 120
118 118 118
115 115 115
116 116 116
117 117 117
129 129 129
131 131 131
133 133 133
135 135 135
136 136 136
134 134 134
129 129 129
124 124 124
128 128 128
125 125 125
122 122 122
121 121 121
117 117 117
113 113 113
110 110 110
106 106 106
103 103 103
103 103 103
106 106 106
106 106 106
110 110 110
110 110 110
110 110 110
111 111 111
114 114 114
117 117 117
118 118 118
116 116 116
115 115 115
113 113 113
111 111 111
109 109 109
108 108 108
106 106 106
105 105 105
106 106 106
106 106 106
105 105 105
106 106 106
106 106 106
105 105 105
104 104 104
103 103 103
103 103 103
105 105 105
105 105 105
105 105 105
106 106 106
105 105 105
104 104 104
104 104 104
103 103 103
103 103 103
106 106 106
109 109 109
113 113 113
116 116 116
117 117 117
120 120 120
120 120 120
117 117 117
115 115 115
116 116 116
116 116 116
124 124 124
127 127 127
130 130 130
135 135 135
137 137 137
136 136 136
131 131 131
124 124 124
127 127 127
128 128 128
123 123 123
120 120 120
120 120 120
117 117 117
112 112 112
108 108 108
104 104 104
103 103 103
104 104 104
104 104 104
104 104 104
105 105 105
108 108 108
109 109 109
111 111 111
114 114 114
114 114 114
112 112 112
110 110 110
108 108 108
106 106 106
105 105 105
105 105 105
104 104 104
103 103 103
102 102 102
102 102 102
100 100 100
101 101 101
101 101 101
101 101 101
100 100 100
99 99 99
98 98 98
100 100 100
101 101 101
102 102 102
104 104 104
104 104 104
105 105 105
104 104 104
103 103 103
103 103 103
106 106 106
111 111 111
114 114 114
117 117 117
118 118 118
120 120 120
120 120 120
118 118 118
114 114 114
114 114 114
110 110 110
119 119 119
122 122 122
127 127 127
134 134 134
136 136 136
137 137 137
133 133 133
126 126 126
125 125 125
129 129 129
126 126 126
122 122 122
121 121 121
119 119 119
114 114 114
109 109 109
106 106 106
105 105 105
105 105 105
104 104 104
105 105 105
105 105 105
105 105 105
108 108 108
110 110 110
111 111 111
111 111 111
110 110 110
108 108 108
105 105 105
102 102 102
101 101 101
101 101 101
100 100 100
99 99 99
98 98 98
97 97 97
97 97 97
95 95 95
97 97 97
98 98 98
97 97 97
98 98 98
98 98 98
99 99 99
100 100 100
101 101 101
104 104 104
105 105 105
106 106 106
104 104 104
104 104 104
105 105 105
108 108 108
112 112 112
115 115 115
116 116 116
119 119 119
121 121 121
120 120 120
118 118 118
112 112 112
109 109 109
104 104 104
114 114 114
117 117 117
124 124 124
131 131 131
135 135 135
137 137 137
135 135 135
127 127 127
125 125 125
127 127 127
128 128 128
125 125 125
122 122 122
120 120 120
116 116 116
111 111 111
107 107 107
105 105 105
105 105 105
105 105 105
106 106 106
107 107 107
106 106 106
108 108 108
110 110 110
110 110 110
109 109 109
106 106 106
104 104 104
102 102 102
101 101 101
100 100 100
99 99 99
98 98 98
97 97 97
96 96 96
96 96 96
95 95 95
94 94 94
97 97 97
98 98 98
98 98 98
98 98 98
98 98 98
99 99 99
99 99 99
101 101 101
103 103 103
104 104 104
105 105 105
105 105 105
104 104 104
106 106 106
111 111 111
113 113 113
115 115 115
115 115 115
118 118 118
122 122 122
120 120 120
117 117 117
109 109 109
104 104 104
102 102 102
113 113 113
114 114 114
121 121 121
129 129 129
133 133 133
137 137 137
135 135 135
128 128 128
125 125 125
125 125 125
128 128 128
128 128 128
124 124 124
120 120 120
118 118 118
114 114 114
110 110 110
107 107 107
106 106 106
105 105 105
106 106 106
108 108 108
108 108 108
109 109 109
111 111 111
112 112 112
110 110 110
108 108 108
106 106 106
105 105 105
104 104 104
101 101 101
100 100 100
101 101 101
101 101 101
100 100 100
99 99 99
98 98 98
97 97 97
99 99 99
100 100 100
100 100 100
99 99 99
97 97 97
99 99 99
99 99 99
101 101 101
102 102 102
104 104 104
104 104 104
104 104 104
106 106 106
109 109 109
112 112 112
114 114 114
114 114 114
114 114 114
118 118 118
123 123 123
120 120 120
115 115 115
105 105 105
101 101 101
103 103 103
113 113 113
114 114 114
118 118 118
127 127 127
132 132 132
135 135 135
135 135 135
129 129 129
126 126 126
126 126 126
127 127 127
128 128 128
127 127 127
122 122 122
118 118 118
118 118 118
113 113 113
110 110 110
110 110 110
109 109 109
108 108 108
108 108 108
109 109 109
110 110 110
113 113 113
115 115 115
113 113 113
110 110 110
110 110 110
109 109 109
108 108 108
106 106 106
105 105 105
105 105 105
105 105 105
104 104 104
103 103 103
103 103 103
102 102 102
103 103 103
102 102 102
100 100 100
100 100 100
98 98 98
100 100 100
100 100 100
101 101 101
102 102 102
103 103 103
103 103 103
105 105 105
108 108 108
111 111 111
113 113 113
114 114 114
113 113 113
113 113 113
118 118 118
124 124 124
119 119 119
110 110 110
101 101 101
99 99 99
103 103 103
112 112 112
114 114 114
115 115 115
123 123 123
130 130 130
134 134 134
132 132 132
129 129 129
128 128 128
126 126 126
126 126 126
126 126 126
128 128 128
126 126 126
120 120 120
118 118 118
118 118 118
114 114 114
112 112 112
112 112 112
111 111 111
111 111 111
110 110 110
109 109 109
113 113 113
115 115 115
113 113 113
112 112 112
113 113 113
111 111 111
110 110 110
111 111 111
109 109 109
108 108 108
108 108 108
106 106 106
105 105 105
105 105 105
104 104 104
103 103 103
101 101 101
99 99 99
100 100 100
99 99 99
101 101 101
102 102 102
103 103 103
102 102 102
102 102 102
104 104 104
106 106 106
109 109 109
111 111 111
113 113 113
113 113 113
112 112 112
113 113 113
117 117 117
123 123 123
117 117 117
107 107 107
99 99 99
98 98 98
102 102 102
113 113 113
114 114 114
115 115 115
120 120 120
127 127 127
134 134 134
130 130 130
129 129 129
129 129 129
127 127 127
125 125 125
125 125 125
126 126 126
128 128 128
124 124 124
120 120 120
120 120 120
117 117 117
114 114 114
113 113 113
113 113 113
113 113 113
112 112 112
111 111 111
112 112 112
113 113 113
110 110 110
109 109 109
110 110 110
110 110 110
109 109 109
110 110 110
109 109 109
107 107 107
106 106 106
105 105 105
105 105 105
104 104 104
104 104 104
103 103 103
99 99 99
100 100 100
101 101 101
101 101 101
102 102 102
103 103 103
103 103 103
103 103 103
103 103 103
105 105 105
108 108 108
110 110 110
112 112 112
111 111 111
111 111 111
111 111 111
113 113 113
118 118 118
121 121 121
112 112 112
102 102 102
98 98 98
98 98 98
100 100 100
112 112 112
114 114 114
114 114 114
117 117 117
125 125 125
131 131 131
129 129 129
130 130 130
129 129 129
126 126 126
124 124 124
124 124 124
124 124 124
126 126 126
126 126 126
124 124 124
121 121 121
119 119 119
117 117 117
114 114 114
114 114 114
113 113 113
112 112 112
111 111 111
112 112 112
112 112 112
110 110 110
108 108 108
107 107 107
106 106 106
106 106 106
107 107 107
107 107 107
105 105 105
104 104 104
103 103 103
103 103 103
103 103 103
102 102 102
102 102 102
100 100 100
101 101 101
102 102 102
102 102 102
103 103 103
103 103 103
103 103 103
104 104 104
106 106 106
107 107 107
109 109 109
111 111 111
111 111 111
111 111 111
111 111 111
111 111 111
114 114 114
119 119 119
119 119 119
107 107 107
99 99 99
97 97 97
97 97 97
99 99 99
112 112 112
114 114 114
114 114 114
115 115 115
122 122 122
129 129 129
129 129 129
131 131 131
129 129 129
125 125 125
123 123 123
125 125 125
124 124 124
125 125 125
127 127 127
126 126 126
124 124 124
120 120 120
118 118 118
114 114 114
113 113 113
112 112 112
112 112 112
111 111 111
110 110 110
111 111 111
110 110 110
108 108 108
105 105 105
104 104 104
105 105 105
105 105 105
105 105 105
103 103 103
101 101 101
101 101 101
102 102 102
103 103 103
102 102 102
101 101 101
101 101 101
101 101 101
102 102 102
102 102 102
102 102 102
103 103 103
103 103 103
106 106 106
107 107 107
108 108 108
109 109 109
111 111 111
110 110 110
111 111 111
111 111 111
112 112 112
114 114 114
119 119 119
116 116 116
103 103 103
98 98 98
96 96 96
96 96 96
99 99 99
112 112 112
114 114 114
114 114 114
115 115 115
119 119 119
128 128 128
131 131 131
132 132 132
128 128 128
125 125 125
124 124 124
124 124 124
126 126 126
125 125 125
126 126 126
126 126 126
125 125 125
123 123 123
119 119 119
115 115 115
112 112 112
111 111 111
109 109 109
108 108 108
109 109 109
110 110 110
108 108 108
106 106 106
105 105 105
104 104 104
103 103 103
104 104 104
104 104 104
103 103 103
102 102 102
102 102 102
103 103 103
103 103 103
101 101 101
101 101 101
101 101 101
101 101 101
101 101 101
100 100 100
101 101 101
102 102 102
105 105 105
106 106 106
107 107 107
108 108 108
109 109 109
110 110 110
110 110 110
111 111 111
112 112 112
113 113 113
115 115 115
116 116 116
112 112 112
100 100 100
97 97 97
95 95 95
96 96 96
97 97 97
113 113 113
114 114 114
114 114 114
115 115 115
117 117 117
126 126 126
131 131 131
132 132 132
127 127 127
125 125 125
124 124 124
124 124 124
125 125 125
127 127 127
126 126 126
127 127 127
125 125 125
124 124 124
123 123 123
117 117 117
113 113 113
110 110 110
109 109 109
108 108 108
109 109 109
109 109 109
107 107 107
107 107 107
106 106 106
105 105 105
105 105 105
104 104 104
105 105 105
104 104 104
103 103 103
101 101 101
102 102 102
102 102 102
100 100 100
100 100 100
99 99 99
100 100 100
99 99 99
100 100 100
102 102 102
103 103 103
105 105 105
107 107 107
108 108 108
108 108 108
109 109 109
109 109 109
110 110 110
112 112 112
114 114 114
114 114 114
114 114 114
113 113 113
110 110 110
100 100 100
97 97 97
95 95 95
96 96 96
98 98 98
113 113 113
115 115 115
117 117 117
117 117 117
118 118 118
123 123 123
130 130 130
132 132 132
128 128 128
125 125 125
124 124 124
124 124 124
125 125 125
127 127 127
126 126 126
127 127 127
125 125 125
125 125 125
125 125 125
121 121 121
116 116 116
112 112 112
109 109 109
108 108 108
108 108 108
106 106 106
106 106 106
106 106 106
107 107 107
106 106 106
105 105 105
104 104 104
106 106 106
106 106 106
104 104 104
102 102 102
101 101 101
101 101 101
101 101 101
100 100 100
98 98 98
98 98 98
99 99 99
100 100 100
103 103 103
105 105 105
106 106 106
108 108 108
108 108 108
108 108 108
109 109 109
110 110 110
111 111 111
115 115 115
114 114 114
113 113 113
113 113 113
111 111 111
109 109 109
100 100 100
97 97 97
95 95 95
96 96 96
99 99 99
116 116 116
118 118 118
118 118 118
119 119 119
118 118 118
120 120 120
128 128 128
131 131 131
129 129 129
125 125 125
124 124 124
124 124 124
125 125 125
126 126 126
126 126 126
128 128 128
126 126 126
126 126 126
126 126 126
124 124 124
119 119 119
116 116 116
111 111 111
108 108 108
109 109 109
106 106 106
105 105 105
105 105 105
106 106 106
105 105 105
104 104 104
104 104 104
105 105 105
106 106 106
104 104 104
103 103 103
102 102 102
101 101 101
102 102 102
100 100 100
99 99 99
100 100 100
101 101 101
102 102 102
104 104 104
106 106 106
108 108 108
108 108 108
108 108 108
108 108 108
109 109 109
111 111 111
113 113 113
114 114 114
113 113 113
112 112 112
111 111 111
109 109 109
108 108 108
101 101 101
96 96 96
95 95 95
97 97 97
99 99 99
118 118 118
120 120 120
119 119 119
119 119 119
118 118 118
118 118 118
125 125 125
130 130 130
129 129 129
126 126 126
124 124 124
123 123 123
124 124 124
125 125 125
125 125 125
127 127 127
126 126 126
125 125 125
127 127 127
126 126 126
123 123 123
118 118 118
114 114 114
111 111 111
110 110 110
108 108 108
107 107 107
106 106 106
106 106 106
106 106 106
105 105 105
105 105 105
107 107 107
105 105 105
104 104 104
103 103 103
103 103 103
102 102 102
102 102 102
101 101 101
100 100 100
102 102 102
103 103 103
104 104 104
106 106 106
107 107 107
109 109 109
109 109 109
108 108 108
108 108 108
111 111 111
114 114 114
113 113 113
113 113 113
111 111 111
110 110 110
109 109 109
108 108 108
107 107 107
101 101 101
96 96 96
96 96 96
98 98 98
100 100 100
119 119 119
120 120 120
119 119 119
119 119 119
117 117 117
116 116 116
124 124 124
130 130 130
130 130 130
126 126 126
123 123 123
123 123 123
124 124 124
125 125 125
124 124 124
126 126 126
126 126 126
126 126 126
127 127 127
127 127 127
125 125 125
122 122 122
117 117 117
115 115 115
113 113 113
112 112 112
110 110 110
110 110 110
109 109 109
108 108 108
108 108 108
108 108 108
108 108 108
108 108 108
107 107 107
105 105 105
105 105 105
104 104 104
103 103 103
103 103 103
102 102 102
104 104 104
105 105 105
105 105 105
107 107 107
109 109 109
109 109 109
110 110 110
110 110 110
110 110 110
114 114 114
114 114 114
113 113 113
110 110 110
109 109 109
107 107 107
107 107 107
107 107 107
107 107 107
101 101 101
96 96 96
98 98 98
99 99 99
101 101 101
121 121 121
120 120 120
120 120 120
119 119 119
118 118 118
116 116 116
123 123 123
129 129 129
129 129 129
124 124 124
123 123 123
123 123 123
125 125 125
125 125 125
122 122 122
125 125 125
123 123 123
126 126 126
128 128 128
127 127 127
124 124 124
125 125 125
121 121 121
118 118 118
116 116 116
115 115 115
114 114 114
112 112 112
111 111 111
110 110 110
109 109 109
108 108 108
108 108 108
107 107 107
106 106 106
106 106 106
105 105 105
104 104 104
104 104 104
104 104 104
105 105 105
105 105 105
107 107 107
107 107 107
109 109 109
110 110 110
110 110 110
110 110 110
111 111 111
113 113 113
114 114 114
112 112 112
112 112 112
108 108 108
107 107 107
105 105 105
105 105 105
106 106 106
107 107 107
101 101 101
96 96 96
98 98 98
101 101 101
101 101 101
121 121 121
120 120 120
120 120 120
120 120 120
119 119 119
117 117 117
124 124 124
130 130 130
128 128 128
122 122 122
122 122 122
124 124 124
126 126 126
124 124 124
123 123 123
124 124 124
122 122 122
125 125 125
129 129 129
127 127 127
124 124 124
124 124 124
124 124 124
121 121 121
118 118 118
117 117 117
115 115 115
114 114 114
112 112 112
110 110 110
109 109 109
109 109 109
109 109 109
108 108 108
106 106 106
107 107 107
107 107 107
105 105 105
106 106 106
106 106 106
107 107 107
108 108 108
109 109 109
110 110 110
111 111 111
112 112 112
112 112 112
111 111 111
112 112 112
114 114 114
113 113 113
111 111 111
110 110 110
107 107 107
105 105 105
104 104 104
105 105 105
105 105 105
107 107 107
103 103 103
95 95 95
97 97 97
101 101 101
102 102 102
122 122 122
121 121 121
121 121 121
121 121 121
120 120 120
117 117 117
124 124 124
129 129 129
127 127 127
122 122 122
122 122 122
123 123 123
125 125 125
125 125 125
124 124 124
125 125 125
122 122 122
123 123 123
126 126 126
129 129 129
124 124 124
123 123 123
125 125 125
124 124 124
122 122 122
119 119 119
117 117 117
115 115 115
113 113 113
112 112 112
109 109 109
108 108 108
109 109 109
109 109 109
108 108 108
108 108 108
108 108 108
108 108 108
108 108 108
109 109 109
110 110 110
111 111 111
111 111 111
111 111 111
113 113 113
113 113 113
114 114 114
112 112 112
114 114 114
114 114 114
111 111 111
108 108 108
107 107 107
105 105 105
104 104 104
103 103 103
104 104 104
105 105 105
107 107 107
103 103 103
97 97 97
97 97 97
101 101 101
103 103 103
