P3
64 64
255
141 141 141
168 168 168
194 194 194
199 199 199
209 209 209
221 221 221
225 225 225
210 210 210
195 195 195
187 187 187
183 183 183
178 178 178
174 174 174
170 170 170
165 165 165
161 161 161
157 157 157
154 154 154
150 150 150
146 146 146
145 145 145
142 142 142
141 141 141
139 139 139
138 138 138
139 139 139
139 139 139
139 139 139
138 138 138
141 141 141
145 145 145
146 146 146
149 149 149
150 150 150
154 154 154
156 156 156
156 156 156
160 160 160
164 164 164
166 166 166
167 167 167
170 170 170
172 172 172
175 175 175
179 179 179
181 181 181
185 185 185
186 186 186
188 188 188
191 191 191
190 190 190
189 189 189
190 190 190
193 193 193
195 195 195
192 192 192
189 189 189
188 188 188
188 188 188
184 184 184
186 186 186
178 178 178
141 141 141
111 111 111
148 148 148
180 180 180
201 201 201
206 206 206
212 212 212
226 226 226
226 226 226
209 209 209
194 194 194
187 187 187
182 182 182
178 178 178
174 174 174
170 170 170
166 166 166
163 163 163
160 160 160
156 156 156
152 152 152
148 148 148
147 147 147
145 145 145
144 144 144
142 142 142
142 142 142
142 142 142
141 141 141
139 139 139
139 139 139
140 140 140
143 143 143
145 145 145
148 148 148
150 150 150
152 152 152
154 154 154
156 156 156
158 158 158
162 162 162
166 166 166
168 168 168
171 171 171
173 173 173
174 174 174
176 176 176
179 179 179
183 183 183
186 186 186
187 187 187
189 189 189
189 189 189
189 189 189
191 191 191
194 194 194
199 199 199
198 198 198
196 196 196
194 194 194
193 193 193
189 189 189
188 188 188
182 182 182
150 150 150
118 118 118
153 153 153
186 186 186
208 208 208
210 210 210
218 218 218
230 230 230
225 225 225
208 208 208
194 194 194
187 187 187
182 182 182
177 177 177
173 173 173
169 169 169
167 167 167
166 166 166
162 162 162
158 158 158
155 155 155
151 151 151
149 149 149
149 149 149
148 148 148
144 144 144
145 145 145
144 144 144
142 142 142
142 142 142
143 143 143
142 142 142
144 144 144
146 146 146
150 150 150
151 151 151
153 153 153
155 155 155
157 157 157
161 161 161
164 164 164
168 168 168
170 170 170
172 172 172
173 173 173
174 174 174
176 176 176
177 177 177
181 181 181
184 184 184
187 187 187
186 186 186
186 186 186
187 187 187
189 189 189
195 195 195
197 197 197
199 199 199
198 198 198
197 197 197
196 196 196
192 192 192
188 188 188
185 185 185
159 159 159
125 125 125
159 159 159
193 193 193
214 214 214
219 219 219
223 223 223
232 232 232
225 225 225
206 206 206
193 193 193
186 186 186
181 181 181
176 176 176
173 173 173
171 171 171
168 168 168
167 167 167
165 165 165
161 161 161
157 157 157
153 153 153
152 152 152
151 151 151
150 150 150
146 146 146
146 146 146
145 145 145
143 143 143
144 144 144
147 147 147
147 147 147
146 146 146
149 149 149
154 154 154
154 154 154
156 156 156
157 157 157
158 158 158
163 163 163
168 168 168
170 170 170
173 173 173
173 173 173
174 174 174
176 176 176
177 177 177
177 177 177
180 180 180
183 183 183
187 187 187
187 187 187
187 187 187
187 187 187
187 187 187
190 190 190
194 194 194
198 198 198
197 197 197
197 197 197
198 198 198
193 193 193
189 189 189
186 186 186
164 164 164
132 132 132
162 162 162
195 195 195
215 215 215
223 223 223
227 227 227
231 231 231
221 221 221
203 203 203
192 192 192
186 186 186
180 180 180
175 175 175
173 173 173
171 171 171
169 169 169
167 167 167
165 165 165
162 162 162
158 158 158
155 155 155
154 154 154
151 151 151
149 149 149
145 145 145
146 146 146
145 145 145
144 144 144
146 146 146
151 151 151
150 150 150
150 150 150
153 153 153
159 159 159
161 161 161
158 158 158
157 157 157
160 160 160
164 164 164
169 169 169
172 172 172
171 171 171
171 171 171
174 174 174
175 175 175
176 176 176
178 178 178
180 180 180
183 183 183
185 185 185
186 186 186
185 185 185
186 186 186
186 186 186
183 183 183
188 188 188
193 193 193
195 195 195
196 196 196
196 196 196
195 195 195
190 190 190
187 187 187
167 167 167
134 134 134
169 169 169
199 199 199
218 218 218
226 226 226
229 229 229
229 229 229
216 216 216
201 201 201
193 193 193
187 187 187
181 181 181
174 174 174
169 169 169
167 167 167
165 165 165
163 163 163
163 163 163
160 160 160
156 156 156
153 153 153
149 149 149
147 147 147
143 143 143
139 139 139
142 142 142
143 143 143
142 142 142
146 146 146
152 152 152
154 154 154
154 154 154
158 158 158
165 165 165
166 166 166
160 160 160
157 157 157
158 158 158
163 163 163
166 166 166
168 168 168
169 169 169
169 169 169
170 170 170
170 170 170
171 171 171
173 173 173
175 175 175
177 177 177
178 178 178
177 177 177
178 178 178
180 180 180
180 180 180
177 177 177
179 179 179
187 187 187
192 192 192
193 193 193
194 194 194
192 192 192
191 191 191
189 189 189
171 171 171
139 139 139
175 175 175
199 199 199
222 222 222
228 228 228
228 228 228
226 226 226
214 214 214
202 202 202
194 194 194
187 187 187
178 178 178
166 166 166
156 156 156
151 151 151
149 149 149
148 148 148
148 148 148
145 145 145
141 141 141
137 137 137
133 133 133
131 131 131
130 130 130
129 129 129
133 133 133
133 133 133
133 133 133
139 139 139
146 146 146
149 149 149
155 155 155
160 160 160
169 169 169
167 167 167
159 159 159
154 154 154
155 155 155
159 159 159
161 161 161
160 160 160
160 160 160
159 159 159
158 158 158
156 156 156
155 155 155
157 157 157
161 161 161
161 161 161
163 163 163
163 163 163
165 165 165
167 167 167
170 170 170
169 169 169
165 165 165
171 171 171
184 184 184
191 191 191
191 191 191
189 189 189
192 192 192
191 191 191
173 173 173
142 142 142
179 179 179
203 203 203
225 225 225
230 230 230
227 227 227
227 227 227
214 214 214
197 197 197
186 186 186
174 174 174
162 162 162
149 149 149
136 136 136
131 131 131
130 130 130
129 129 129
129 129 129
125 125 125
120 120 120
117 117 117
114 114 114
112 112 112
114 114 114
117 117 117
122 122 122
122 122 122
122 122 122
130 130 130
133 133 133
136 136 136
148 148 148
160 160 160
167 167 167
165 165 165
157 157 157
151 151 151
147 147 147
149 149 149
153 153 153
144 144 144
140 140 140
136 136 136
130 130 130
127 127 127
128 128 128
127 127 127
125 125 125
130 130 130
129 129 129
131 131 131
136 136 136
144 144 144
146 146 146
150 150 150
151 151 151
150 150 150
161 161 161
179 179 179
188 188 188
187 187 187
190 190 190
192 192 192
171 171 171
140 140 140
184 184 184
210 210 210
226 226 226
234 234 234
231 231 231
226 226 226
208 208 208
183 183 183
164 164 164
152 152 152
143 143 143
129 129 129
116 116 116
112 112 112
114 114 114
109 109 109
111 111 111
105 105 105
102 102 102
104 104 104
101 101 101
97 97 97
100 100 100
106 106 106
112 112 112
112 112 112
113 113 113
116 116 116
118 118 118
126 126 126
142 142 142
158 158 158
164 164 164
162 162 162
153 153 153
148 148 148
138 138 138
135 135 135
140 140 140
126 126 126
116 116 116
116 116 116
108 108 108
102 102 102
102 102 102
102 102 102
100 100 100
122 122 122
120 120 120
118 118 118
119 119 119
124 124 124
131 131 131
122 122 122
121 121 121
131 131 131
141 141 141
156 156 156
175 175 175
180 180 180
184 184 184
190 190 190
171 171 171
141 141 141
185 185 185
215 215 215
224 224 224
237 237 237
235 235 235
222 222 222
195 195 195
165 165 165
142 142 142
135 135 135
131 131 131
125 125 125
121 121 121
120 120 120
119 119 119
115 115 115
113 113 113
103 103 103
103 103 103
106 106 106
106 106 106
104 104 104
102 102 102
109 109 109
119 119 119
118 118 118
116 116 116
116 116 116
113 113 113
122 122 122
141 141 141
155 155 155
159 159 159
155 155 155
145 145 145
140 140 140
130 130 130
123 123 123
132 132 132
126 126 126
113 113 113
118 118 118
114 114 114
99 99 99
95 95 95
91 91 91
91 91 91
135 135 135
145 145 145
142 142 142
139 139 139
142 142 142
148 148 148
144 144 144
134 134 134
130 130 130
134 134 134
142 142 142
151 151 151
169 169 169
176 176 176
187 187 187
176 176 176
141 141 141
184 184 184
211 211 211
223 223 223
240 240 240
236 236 236
210 210 210
174 174 174
148 148 148
140 140 140
142 142 142
144 144 144
144 144 144
139 139 139
136 136 136
131 131 131
126 126 126
123 123 123
112 112 112
115 115 115
116 116 116
120 120 120
116 116 116
114 114 114
127 127 127
139 139 139
140 140 140
143 143 143
131 131 131
124 124 124
135 135 135
145 145 145
154 154 154
158 158 158
151 151 151
145 145 145
140 140 140
130 130 130
125 125 125
127 127 127
129 129 129
129 129 129
126 126 126
116 116 116
103 103 103
97 97 97
95 95 95
97 97 97
122 122 122
155 155 155
169 169 169
176 176 176
181 181 181
182 182 182
182 182 182
179 179 179
170 170 170
159 159 159
136 136 136
137 137 137
153 153 153
172 172 172
182 182 182
179 179 179
145 145 145
183 183 183
206 206 206
224 224 224
244 244 244
231 231 231
194 194 194
165 165 165
155 155 155
157 157 157
165 165 165
167 167 167
165 165 165
155 155 155
145 145 145
141 141 141
137 137 137
133 133 133
122 122 122
124 124 124
124 124 124
131 131 131
125 125 125
127 127 127
144 144 144
166 166 166
164 164 164
163 163 163
176 176 176
170 170 170
161 161 161
161 161 161
166 166 166
168 168 168
161 161 161
154 154 154
147 147 147
143 143 143
141 141 141
139 139 139
133 133 133
128 128 128
119 119 119
105 105 105
99 99 99
97 97 97
99 99 99
108 108 108
127 127 127
173 173 173
183 183 183
185 185 185
183 183 183
182 182 182
183 183 183
187 187 187
182 182 182
179 179 179
162 162 162
126 126 126
146 146 146
168 168 168
181 181 181
178 178 178
151 151 151
183 183 183
205 205 205
232 232 232
246 246 246
222 222 222
185 185 185
177 177 177
177 177 177
185 185 185
191 191 191
182 182 182
174 174 174
162 162 162
154 154 154
149 149 149
148 148 148
143 143 143
132 132 132
132 132 132
130 130 130
136 136 136
127 127 127
128 128 128
143 143 143
167 167 167
181 181 181
184 184 184
179 179 179
192 192 192
175 175 175
162 162 162
166 166 166
168 168 168
165 165 165
167 167 167
162 162 162
154 154 154
148 148 148
139 139 139
130 130 130
117 117 117
105 105 105
98 98 98
102 102 102
107 107 107
117 117 117
125 125 125
152 152 152
193 193 193
190 190 190
192 192 192
189 189 189
180 180 180
171 171 171
169 169 169
157 157 157
158 158 158
156 156 156
132 132 132
142 142 142
164 164 164
177 177 177
175 175 175
157 157 157
179 179 179
202 202 202
227 227 227
237 237 237
212 212 212
192 192 192
199 199 199
199 199 199
200 200 200
194 194 194
176 176 176
169 169 169
178 178 178
183 183 183
179 179 179
171 171 171
158 158 158
144 144 144
143 143 143
141 141 141
147 147 147
141 141 141
137 137 137
137 137 137
145 145 145
154 154 154
166 166 166
173 173 173
187 187 187
177 177 177
160 160 160
160 160 160
160 160 160
160 160 160
169 169 169
163 163 163
154 154 154
152 152 152
136 136 136
118 118 118
108 108 108
107 107 107
110 110 110
117 117 117
129 129 129
134 134 134
132 132 132
142 142 142
179 179 179
193 193 193
198 198 198
200 200 200
191 191 191
170 170 170
168 168 168
152 152 152
142 142 142
151 151 151
147 147 147
145 145 145
157 157 157
172 172 172
171 171 171
160 160 160
184 184 184
222 222 222
238 238 238
226 226 226
204 204 204
202 202 202
212 212 212
209 209 209
201 201 201
184 184 184
173 173 173
200 200 200
211 211 211
194 194 194
172 172 172
154 154 154
136 136 136
139 139 139
136 136 136
132 132 132
142 142 142
140 140 140
132 132 132
124 124 124
119 119 119
116 116 116
124 124 124
167 167 167
182 182 182
177 177 177
162 162 162
156 156 156
156 156 156
159 159 159
154 154 154
149 149 149
150 150 150
151 151 151
129 129 129
116 116 116
119 119 119
128 128 128
137 137 137
138 138 138
142 142 142
139 139 139
131 131 131
127 127 127
139 139 139
167 167 167
184 184 184
187 187 187
173 173 173
166 166 166
169 169 169
159 159 159
149 149 149
152 152 152
156 156 156
149 149 149
156 156 156
168 168 168
168 168 168
161 161 161
181 181 181
208 208 208
217 217 217
207 207 207
197 197 197
205 205 205
214 214 214
207 207 207
194 194 194
177 177 177
192 192 192
218 218 218
196 196 196
165 165 165
157 157 157
150 150 150
142 142 142
141 141 141
148 148 148
142 142 142
152 152 152
143 143 143
125 125 125
118 118 118
116 116 116
110 110 110
112 112 112
144 144 144
172 172 172
165 165 165
152 152 152
146 146 146
144 144 144
145 145 145
146 146 146
143 143 143
146 146 146
148 148 148
132 132 132
131 131 131
135 135 135
143 143 143
146 146 146
138 138 138
146 146 146
147 147 147
143 143 143
135 135 135
127 127 127
134 134 134
156 156 156
163 163 163
163 163 163
160 160 160
165 165 165
160 160 160
154 154 154
157 157 157
162 162 162
158 158 158
172 172 172
183 183 183
166 166 166
161 161 161
175 175 175
190 190 190
203 203 203
211 211 211
201 201 201
201 201 201
210 210 210
202 202 202
192 192 192
184 184 184
189 189 189
180 180 180
156 156 156
154 154 154
155 155 155
142 142 142
141 141 141
141 141 141
150 150 150
152 152 152
152 152 152
144 144 144
128 128 128
112 112 112
109 109 109
111 111 111
123 123 123
139 139 139
169 169 169
160 160 160
152 152 152
146 146 146
145 145 145
143 143 143
148 148 148
151 151 151
149 149 149
147 147 147
141 141 141
148 148 148
144 144 144
133 133 133
136 136 136
131 131 131
141 141 141
146 146 146
140 140 140
123 123 123
130 130 130
136 136 136
158 158 158
148 148 148
143 143 143
154 154 154
163 163 163
162 162 162
162 162 162
160 160 160
162 162 162
158 158 158
155 155 155
165 165 165
176 176 176
164 164 164
167 167 167
179 179 179
194 194 194
203 203 203
195 195 195
187 187 187
198 198 198
197 197 197
194 194 194
189 189 189
168 168 168
154 154 154
149 149 149
157 157 157
158 158 158
143 143 143
147 147 147
154 154 154
153 153 153
144 144 144
131 131 131
132 132 132
134 134 134
127 127 127
120 120 120
126 126 126
131 131 131
146 146 146
172 172 172
161 161 161
151 151 151
146 146 146
145 145 145
145 145 145
149 149 149
151 151 151
143 143 143
142 142 142
143 143 143
150 150 150
146 146 146
132 132 132
127 127 127
119 119 119
131 131 131
144 144 144
142 142 142
140 140 140
141 141 141
144 144 144
151 151 151
137 137 137
129 129 129
136 136 136
147 147 147
161 161 161
166 166 166
168 168 168
167 167 167
158 158 158
145 145 145
143 143 143
147 147 147
148 148 148
153 153 153
167 167 167
178 178 178
189 189 189
190 190 190
188 188 188
210 210 210
213 213 213
206 206 206
194 194 194
172 172 172
159 159 159
157 157 157
152 152 152
145 145 145
141 141 141
136 136 136
139 139 139
135 135 135
124 124 124
116 116 116
118 118 118
123 123 123
121 121 121
120 120 120
132 132 132
131 131 131
153 153 153
172 172 172
163 163 163
151 151 151
146 146 146
145 145 145
147 147 147
149 149 149
150 150 150
139 139 139
134 134 134
138 138 138
144 144 144
143 143 143
135 135 135
124 124 124
114 114 114
115 115 115
132 132 132
139 139 139
143 143 143
143 143 143
147 147 147
145 145 145
135 135 135
134 134 134
135 135 135
138 138 138
152 152 152
163 163 163
167 167 167
164 164 164
155 155 155
146 146 146
152 152 152
148 148 148
134 134 134
147 147 147
163 163 163
165 165 165
184 184 184
188 188 188
201 201 201
222 222 222
216 216 216
206 206 206
198 198 198
188 188 188
178 178 178
168 168 168
153 153 153
134 134 134
123 123 123
116 116 116
114 114 114
113 113 113
110 110 110
109 109 109
110 110 110
113 113 113
117 117 117
130 130 130
139 139 139
134 134 134
161 161 161
171 171 171
163 163 163
154 154 154
150 150 150
147 147 147
149 149 149
151 151 151
152 152 152
140 140 140
130 130 130
136 136 136
144 144 144
138 138 138
135 135 135
127 127 127
113 113 113
107 107 107
113 113 113
120 120 120
124 124 124
124 124 124
130 130 130
131 131 131
134 134 134
139 139 139
142 142 142
145 145 145
152 152 152
166 166 166
173 173 173
168 168 168
153 153 153
142 142 142
150 150 150
143 143 143
126 126 126
160 160 160
179 179 179
177 177 177
192 192 192
191 191 191
201 201 201
209 209 209
202 202 202
197 197 197
193 193 193
191 191 191
185 185 185
174 174 174
154 154 154
133 133 133
117 117 117
111 111 111
111 111 111
113 113 113
115 115 115
119 119 119
121 121 121
128 128 128
141 141 141
149 149 149
138 138 138
140 140 140
168 168 168
171 171 171
164 164 164
157 157 157
153 153 153
151 151 151
153 153 153
155 155 155
153 153 153
143 143 143
132 132 132
135 135 135
149 149 149
147 147 147
139 139 139
134 134 134
124 124 124
117 117 117
107 107 107
107 107 107
112 112 112
113 113 113
119 119 119
126 126 126
134 134 134
142 142 142
146 146 146
145 145 145
153 153 153
165 165 165
173 173 173
167 167 167
151 151 151
144 144 144
155 155 155
146 146 146
121 121 121
173 173 173
195 195 195
190 190 190
204 204 204
196 196 196
196 196 196
201 201 201
194 194 194
192 192 192
189 189 189
188 188 188
186 186 186
178 178 178
161 161 161
146 146 146
137 137 137
135 135 135
136 136 136
137 137 137
139 139 139
144 144 144
149 149 149
159 159 159
167 167 167
157 157 157
139 139 139
152 152 152
174 174 174
171 171 171
164 164 164
157 157 157
154 154 154
154 154 154
156 156 156
158 158 158
154 154 154
144 144 144
136 136 136
128 128 128
148 148 148
155 155 155
150 150 150
142 142 142
137 137 137
135 135 135
128 128 128
119 119 119
117 117 117
115 115 115
117 117 117
124 124 124
131 131 131
137 137 137
141 141 141
144 144 144
151 151 151
158 158 158
161 161 161
155 155 155
144 144 144
146 146 146
154 154 154
146 146 146
124 124 124
157 157 157
185 185 185
192 192 192
213 213 213
202 202 202
196 196 196
196 196 196
189 189 189
186 186 186
184 184 184
182 182 182
183 183 183
177 177 177
169 169 169
162 162 162
161 161 161
154 154 154
154 154 154
156 156 156
158 158 158
162 162 162
165 165 165
172 172 172
172 172 172
162 162 162
151 151 151
165 165 165
175 175 175
169 169 169
161 161 161
154 154 154
154 154 154
155 155 155
157 157 157
158 158 158
155 155 155
145 145 145
137 137 137
126 126 126
131 131 131
151 151 151
154 154 154
150 150 150
144 144 144
141 141 141
142 142 142
141 141 141
140 140 140
136 136 136
135 135 135
137 137 137
136 136 136
136 136 136
135 135 135
138 138 138
144 144 144
148 148 148
149 149 149
144 144 144
138 138 138
143 143 143
153 153 153
148 148 148
131 131 131
146 146 146
170 170 170
191 191 191
217 217 217
210 210 210
196 196 196
191 191 191
182 182 182
178 178 178
177 177 177
176 176 176
174 174 174
170 170 170
161 161 161
156 156 156
155 155 155
153 153 153
154 154 154
160 160 160
163 163 163
163 163 163
161 161 161
163 163 163
171 171 171
176 176 176
165 165 165
169 169 169
172 172 172
163 163 163
158 158 158
154 154 154
154 154 154
157 157 157
156 156 156
156 156 156
155 155 155
147 147 147
137 137 137
133 133 133
124 124 124
134 134 134
145 145 145
148 148 148
146 146 146
145 145 145
142 142 142
143 143 143
142 142 142
142 142 142
139 139 139
139 139 139
138 138 138
133 133 133
132 132 132
134 134 134
135 135 135
139 139 139
140 140 140
136 136 136
135 135 135
146 146 146
155 155 155
152 152 152
137 137 137
149 149 149
169 169 169
197 197 197
219 219 219
212 212 212
196 196 196
185 185 185
177 177 177
173 173 173
171 171 171
167 167 167
164 164 164
159 159 159
154 154 154
151 151 151
149 149 149
152 152 152
154 154 154
156 156 156
155 155 155
150 150 150
146 146 146
164 164 164
184 184 184
181 181 181
168 168 168
169 169 169
169 169 169
159 159 159
156 156 156
157 157 157
158 158 158
160 160 160
159 159 159
157 157 157
156 156 156
150 150 150
141 141 141
137 137 137
135 135 135
125 125 125
128 128 128
138 138 138
139 139 139
142 142 142
144 144 144
144 144 144
143 143 143
141 141 141
140 140 140
140 140 140
138 138 138
133 133 133
131 131 131
131 131 131
132 132 132
134 134 134
132 132 132
130 130 130
136 136 136
151 151 151
158 158 158
154 154 154
140 140 140
157 157 157
176 176 176
203 203 203
218 218 218
209 209 209
198 198 198
187 187 187
176 176 176
167 167 167
161 161 161
158 158 158
157 157 157
154 154 154
152 152 152
149 149 149
147 147 147
147 147 147
147 147 147
143 143 143
139 139 139
136 136 136
152 152 152
177 177 177
184 184 184
178 178 178
168 168 168
170 170 170
171 171 171
161 161 161
156 156 156
159 159 159
163 163 163
162 162 162
160 160 160
158 158 158
158 158 158
153 153 153
148 148 148
141 141 141
140 140 140
133 133 133
127 127 127
120 120 120
125 125 125
131 131 131
137 137 137
139 139 139
141 141 141
142 142 142
141 141 141
140 140 140
138 138 138
132 132 132
130 130 130
130 130 130
132 132 132
131 131 131
130 130 130
133 133 133
146 146 146
157 157 157
159 159 159
153 153 153
140 140 140
164 164 164
181 181 181
207 207 207
219 219 219
210 210 210
200 200 200
188 188 188
177 177 177
170 170 170
165 165 165
157 157 157
150 150 150
144 144 144
141 141 141
138 138 138
135 135 135
135 135 135
135 135 135
137 137 137
140 140 140
143 143 143
158 158 158
174 174 174
178 178 178
174 174 174
167 167 167
167 167 167
172 172 172
159 159 159
149 149 149
151 151 151
158 158 158
157 157 157
153 153 153
154 154 154
155 155 155
154 154 154
153 153 153
145 145 145
140 140 140
138 138 138
136 136 136
131 131 131
117 117 117
112 112 112
121 121 121
126 126 126
130 130 130
133 133 133
132 132 132
132 132 132
129 129 129
125 125 125
125 125 125
125 125 125
125 125 125
128 128 128
136 136 136
146 146 146
156 156 156
164 164 164
158 158 158
152 152 152
140 140 140
171 171 171
184 184 184
209 209 209
219 219 219
212 212 212
202 202 202
191 191 191
179 179 179
173 173 173
169 169 169
165 165 165
159 159 159
152 152 152
149 149 149
143 143 143
140 140 140
139 139 139
138 138 138
140 140 140
141 141 141
147 147 147
158 158 158
166 166 166
168 168 168
168 168 168
160 160 160
158 158 158
161 161 161
145 145 145
128 128 128
130 130 130
138 138 138
139 139 139
140 140 140
142 142 142
143 143 143
144 144 144
148 148 148
141 141 141
136 136 136
135 135 135
138 138 138
136 136 136
129 129 129
119 119 119
116 116 116
117 117 117
119 119 119
121 121 121
122 122 122
118 118 118
116 116 116
115 115 115
118 118 118
121 121 121
127 127 127
136 136 136
147 147 147
158 158 158
163 163 163
166 166 166
159 159 159
152 152 152
137 137 137
176 176 176
189 189 189
210 210 210
218 218 218
216 216 216
205 205 205
193 193 193
182 182 182
174 174 174
169 169 169
162 162 162
154 154 154
149 149 149
144 144 144
141 141 141
135 135 135
134 134 134
136 136 136
140 140 140
143 143 143
151 151 151
158 158 158
157 157 157
164 164 164
160 160 160
145 145 145
137 137 137
137 137 137
116 116 116
96 96 96
99 99 99
113 113 113
118 118 118
119 119 119
121 121 121
120 120 120
123 123 123
126 126 126
127 127 127
127 127 127
130 130 130
137 137 137
139 139 139
134 134 134
127 127 127
123 123 123
122 122 122
119 119 119
121 121 121
122 122 122
119 119 119
120 120 120
119 119 119
121 121 121
125 125 125
131 131 131
141 141 141
153 153 153
164 164 164
170 170 170
166 166 166
159 159 159
149 149 149
136 136 136
179 179 179
193 193 193
211 211 211
219 219 219
215 215 215
207 207 207
194 194 194
183 183 183
176 176 176
169 169 169
158 158 158
149 149 149
144 144 144
139 139 139
137 137 137
136 136 136
135 135 135
139 139 139
141 141 141
147 147 147
157 157 157
156 156 156
152 152 152
159 159 159
149 149 149
121 121 121
102 102 102
102 102 102
89 89 89
64 64 64
67 67 67
90 90 90
101 101 101
99 99 99
93 93 93
90 90 90
91 91 91
97 97 97
104 104 104
116 116 116
130 130 130
139 139 139
140 140 140
137 137 137
131 131 131
123 123 123
120 120 120
118 118 118
119 119 119
120 120 120
120 120 120
120 120 120
121 121 121
121 121 121
128 128 128
133 133 133
144 144 144
157 157 157
164 164 164
170 170 170
166 166 166
157 157 157
148 148 148
133 133 133
179 179 179
197 197 197
211 211 211
217 217 217
213 213 213
206 206 206
196 196 196
186 186 186
179 179 179
168 168 168
157 157 157
149 149 149
144 144 144
141 141 141
141 141 141
142 142 142
139 139 139
140 140 140
144 144 144
150 150 150
159 159 159
159 159 159
153 153 153
155 155 155
142 142 142
107 107 107
78 78 78
72 72 72
75 75 75
57 57 57
55 55 55
79 79 79
94 94 94
88 88 88
76 76 76
70 70 70
70 70 70
75 75 75
87 87 87
111 111 111
135 135 135
148 148 148
149 149 149
145 145 145
138 138 138
127 127 127
119 119 119
118 118 118
117 117 117
116 116 116
118 118 118
120 120 120
121 121 121
124 124 124
129 129 129
137 137 137
147 147 147
159 159 159
166 166 166
169 169 169
166 166 166
156 156 156
146 146 146
129 129 129
175 175 175
201 201 201
211 211 211
217 217 217
213 213 213
207 207 207
199 199 199
188 188 188
180 180 180
170 170 170
161 161 161
153 153 153
146 146 146
146 146 146
146 146 146
144 144 144
142 142 142
142 142 142
148 148 148
158 158 158
167 167 167
166 166 166
160 160 160
154 154 154
147 147 147
118 118 118
87 87 87
84 84 84
89 89 89
81 81 81
73 73 73
85 85 85
94 94 94
88 88 88
83 83 83
81 81 81
79 79 79
83 83 83
96 96 96
120 120 120
144 144 144
154 154 154
160 160 160
161 161 161
152 152 152
143 143 143
130 130 130
126 126 126
121 121 121
119 119 119
119 119 119
121 121 121
123 123 123
127 127 127
133 133 133
142 142 142
153 153 153
162 162 162
168 168 168
169 169 169
165 165 165
156 156 156
141 141 141
130 130 130
170 170 170
202 202 202
212 212 212
218 218 218
214 214 214
209 209 209
203 203 203
192 192 192
183 183 183
173 173 173
164 164 164
157 157 157
151 151 151
149 149 149
149 149 149
145 145 145
143 143 143
146 146 146
154 154 154
170 170 170
180 180 180
176 176 176
171 171 171
163 163 163
157 157 157
142 142 142
127 127 127
124 124 124
119 119 119
107 107 107
96 96 96
94 94 94
98 98 98
97 97 97
105 105 105
110 110 110
106 106 106
107 107 107
116 116 116
132 132 132
148 148 148
156 156 156
165 165 165
171 171 171
166 166 166
159 159 159
150 150 150
141 141 141
134 134 134
130 130 130
129 129 129
128 128 128
131 131 131
134 134 134
141 141 141
148 148 148
158 158 158
163 163 163
169 169 169
169 169 169
164 164 164
155 155 155
140 140 140
134 134 134
165 165 165
198 198 198
214 214 214
221 221 221
217 217 217
211 211 211
206 206 206
196 196 196
186 186 186
176 176 176
168 168 168
161 161 161
155 155 155
152 152 152
149 149 149
145 145 145
144 144 144
151 151 151
165 165 165
184 184 184
192 192 192
184 184 184
179 179 179
175 175 175
173 173 173
170 170 170
164 164 164
156 156 156
137 137 137
121 121 121
107 107 107
100 100 100
101 101 101
106 106 106
118 118 118
129 129 129
132 132 132
134 134 134
136 136 136
143 143 143
152 152 152
158 158 158
167 167 167
174 174 174
173 173 173
168 168 168
162 162 162
155 155 155
147 147 147
142 142 142
140 140 140
139 139 139
141 141 141
143 143 143
148 148 148
155 155 155
163 163 163
167 167 167
171 171 171
168 168 168
165 165 165
153 153 153
140 140 140
137 137 137
154 154 154
191 191 191
213 213 213
221 221 221
220 220 220
213 213 213
208 208 208
200 200 200
190 190 190
181 181 181
173 173 173
165 165 165
158 158 158
155 155 155
151 151 151
147 147 147
150 150 150
162 162 162
181 181 181
195 195 195
197 197 197
189 189 189
184 184 184
187 187 187
191 191 191
192 192 192
186 186 186
170 170 170
143 143 143
125 125 125
113 113 113
105 105 105
106 106 106
114 114 114
123 123 123
138 138 138
147 147 147
150 150 150
149 149 149
152 152 152
156 156 156
161 161 161
168 168 168
174 174 174
175 175 175
172 172 172
167 167 167
161 161 161
157 157 157
150 150 150
147 147 147
147 147 147
149 149 149
152 152 152
154 154 154
159 159 159
165 165 165
170 170 170
172 172 172
169 169 169
163 163 163
150 150 150
145 145 145
140 140 140
148 148 148
181 181 181
208 208 208
221 221 221
222 222 222
216 216 216
210 210 210
204 204 204
195 195 195
186 186 186
177 177 177
168 168 168
162 162 162
157 157 157
154 154 154
153 153 153
162 162 162
176 176 176
193 193 193
198 198 198
198 198 198
192 192 192
190 190 190
192 192 192
199 199 199
203 203 203
195 195 195
175 175 175
149 149 149
131 131 131
121 121 121
115 115 115
116 116 116
123 123 123
131 131 131
144 144 144
157 157 157
160 160 160
161 161 161
164 164 164
164 164 164
163 163 163
164 164 164
170 170 170
173 173 173
174 174 174
171 171 171
165 165 165
163 163 163
159 159 159
153 153 153
153 153 153
152 152 152
156 156 156
159 159 159
164 164 164
169 169 169
173 173 173
173 173 173
168 168 168
161 161 161
153 153 153
152 152 152
144 144 144
145 145 145
168 168 168
199 199 199
221 221 221
223 223 223
217 217 217
212 212 212
206 206 206
200 200 200
193 193 193
181 181 181
174 174 174
166 166 166
159 159 159
159 159 159
164 164 164
175 175 175
187 187 187
196 196 196
198 198 198
197 197 197
194 194 194
192 192 192
191 191 191
198 198 198
200 200 200
194 194 194
177 177 177
159 159 159
147 147 147
138 138 138
132 132 132
131 131 131
138 138 138
146 146 146
155 155 155
166 166 166
169 169 169
169 169 169
167 167 167
165 165 165
162 162 162
163 163 163
164 164 164
170 170 170
172 172 172
173 173 173
169 169 169
165 165 165
164 164 164
161 161 161
159 159 159
158 158 158
160 160 160
163 163 163
167 167 167
171 171 171
175 175 175
173 173 173
169 169 169
159 159 159
155 155 155
156 156 156
143 143 143
144 144 144
160 160 160
190 190 190
216 216 216
224 224 224
218 218 218
212 212 212
209 209 209
202 202 202
197 197 197
188 188 188
178 178 178
168 168 168
163 163 163
167 167 167
178 178 178
186 186 186
191 191 191
198 198 198
197 197 197
195 195 195
190 190 190
187 187 187
189 189 189
190 190 190
195 195 195
189 189 189
181 181 181
172 172 172
164 164 164
157 157 157
151 151 151
151 151 151
160 160 160
164 164 164
168 168 168
175 175 175
177 177 177
175 175 175
171 171 171
167 167 167
164 164 164
162 162 162
163 163 163
165 165 165
167 167 167
171 171 171
170 170 170
166 166 166
166 166 166
164 164 164
165 165 165
163 163 163
164 164 164
165 165 165
168 168 168
172 172 172
173 173 173
173 173 173
167 167 167
160 160 160
158 158 158
159 159 159
145 145 145
145 145 145
155 155 155
182 182 182
207 207 207
221 221 221
220 220 220
212 212 212
208 208 208
203 203 203
199 199 199
193 193 193
183 183 183
172 172 172
168 168 168
177 177 177
187 187 187
190 190 190
192 192 192
194 194 194
192 192 192
185 185 185
180 180 180
178 178 178
180 180 180
182 182 182
187 187 187
189 189 189
184 184 184
182 182 182
178 178 178
177 177 177
172 172 172
172 172 172
176 176 176
176 176 176
176 176 176
178 178 178
179 179 179
177 177 177
172 172 172
168 168 168
165 165 165
160 160 160
160 160 160
163 163 163
165 165 165
164 164 164
165 165 165
165 165 165
166 166 166
166 166 166
166 166 166
166 166 166
167 167 167
168 168 168
169 169 169
172 172 172
172 172 172
170 170 170
166 166 166
159 159 159
162 162 162
160 160 160
147 147 147
148 148 148
156 156 156
171 171 171
193 193 193
215 215 215
219 219 219
213 213 213
206 206 206
202 202 202
201 201 201
194 194 194
185 185 185
174 174 174
169 169 169
174 174 174
183 183 183
188 188 188
186 186 186
185 185 185
182 182 182
174 174 174
170 170 170
170 170 170
172 172 172
172 172 172
177 177 177
184 184 184
183 183 183
187 187 187
188 188 188
189 189 189
189 189 189
186 186 186
186 186 186
181 181 181
178 178 178
178 178 178
176 176 176
173 173 173
169 169 169
166 166 166
163 163 163
159 159 159
158 158 158
158 158 158
162 162 162
159 159 159
159 159 159
164 164 164
165 165 165
168 168 168
167 167 167
166 166 166
165 165 165
168 168 168
169 169 169
170 170 170
168 168 168
168 168 168
166 166 166
157 157 157
157 157 157
153 153 153
140 140 140
151 151 151
152 152 152
159 159 159
178 178 178
208 208 208
213 213 213
212 212 212
205 205 205
200 200 200
200 200 200
195 195 195
186 186 186
174 174 174
163 163 163
165 165 165
175 175 175
174 174 174
173 173 173
174 174 174
171 171 171
166 166 166
160 160 160
163 163 163
163 163 163
162 162 162
166 166 166
170 170 170
173 173 173
178 178 178
185 185 185
187 187 187
187 187 187
184 184 184
183 183 183
180 180 180
174 174 174
171 171 171
167 167 167
167 167 167
165 165 165
163 163 163
162 162 162
158 158 158
157 157 157
156 156 156
154 154 154
154 154 154
155 155 155
160 160 160
160 160 160
166 166 166
166 166 166
165 165 165
162 162 162
166 166 166
164 164 164
166 166 166
164 164 164
165 165 165
163 163 163
147 147 147
140 140 140
135 135 135
129 129 129
158 158 158
152 152 152
152 152 152
167 167 167
199 199 199
210 210 210
210 210 210
204 204 204
196 196 196
199 199 199
195 195 195
185 185 185
173 173 173
155 155 155
156 156 156
163 163 163
156 156 156
148 148 148
152 152 152
156 156 156
157 157 157
149 149 149
148 148 148
147 147 147
150 150 150
151 151 151
150 150 150
151 151 151
158 158 158
165 165 165
166 166 166
165 165 165
161 161 161
163 163 163
162 162 162
156 156 156
154 154 154
153 153 153
155 155 155
154 154 154
156 156 156
156 156 156
155 155 155
154 154 154
153 153 153
147 147 147
147 147 147
148 148 148
153 153 153
157 157 157
162 162 162
168 168 168
165 165 165
164 164 164
163 163 163
161 161 161
162 162 162
161 161 161
162 162 162
154 154 154
134 134 134
124 124 124
122 122 122
123 123 123
161 161 161
154 154 154
150 150 150
159 159 159
188 188 188
206 206 206
207 207 207
205 205 205
196 196 196
194 194 194
194 194 194
183 183 183
169 169 169
152 152 152
151 151 151
150 150 150
139 139 139
127 127 127
129 129 129
134 134 134
140 140 140
138 138 138
133 133 133
130 130 130
131 131 131
130 130 130
126 126 126
126 126 126
130 130 130
133 133 133
137 137 137
138 138 138
136 136 136
137 137 137
137 137 137
136 136 136
136 136 136
137 137 137
139 139 139
138 138 138
142 142 142
144 144 144
144 144 144
146 146 146
145 145 145
144 144 144
141 141 141
144 144 144
149 149 149
154 154 154
158 158 158
164 164 164
163 163 163
162 162 162
158 158 158
157 157 157
159 159 159
162 162 162
160 160 160
144 144 144
124 124 124
116 116 116
119 119 119
122 122 122
158 158 158
153 153 153
148 148 148
152 152 152
176 176 176
202 202 202
204 204 204
203 203 203
196 196 196
190 190 190
191 191 191
182 182 182
164 164 164
152 152 152
145 145 145
136 136 136
125 125 125
117 117 117
123 123 123
127 127 127
132 132 132
134 134 134
136 136 136
133 133 133
127 127 127
119 119 119
113 113 113
108 108 108
107 107 107
107 107 107
109 109 109
114 114 114
113 113 113
115 115 115
120 120 120
121 121 121
123 123 123
125 125 125
127 127 127
131 131 131
133 133 133
136 136 136
137 137 137
140 140 140
145 145 145
145 145 145
143 143 143
142 142 142
148 148 148
151 151 151
151 151 151
156 156 156
156 156 156
157 157 157
156 156 156
156 156 156
159 159 159
162 162 162
154 154 154
136 136 136
118 118 118
111 111 111
116 116 116
122 122 122
151 151 151
148 148 148
145 145 145
149 149 149
167 167 167
194 194 194
203 203 203
200 200 200
195 195 195
188 188 188
188 188 188
182 182 182
165 165 165
154 154 154
143 143 143
127 127 127
115 115 115
115 115 115
125 125 125
134 134 134
136 136 136
138 138 138
143 143 143
145 145 145
143 143 143
137 137 137
127 127 127
121 121 121
114 114 114
111 111 111
109 109 109
115 115 115
116 116 116
118 118 118
121 121 121
124 124 124
126 126 126
129 129 129
133 133 133
136 136 136
141 141 141
141 141 141
141 141 141
142 142 142
146 146 146
144 144 144
142 142 142
143 143 143
145 145 145
148 148 148
148 148 148
149 149 149
150 150 150
152 152 152
155 155 155
157 157 157
159 159 159
161 161 161
148 148 148
127 127 127
115 115 115
111 111 111
109 109 109
115 115 115
139 139 139
137 137 137
139 139 139
145 145 145
159 159 159
183 183 183
197 197 197
195 195 195
194 194 194
190 190 190
184 184 184
182 182 182
171 171 171
157 157 157
142 142 142
129 129 129
118 118 118
120 120 120
133 133 133
140 140 140
145 145 145
150 150 150
154 154 154
156 156 156
155 155 155
154 154 154
148 148 148
142 142 142
137 137 137
131 131 131
126 126 126
126 126 126
128 128 128
133 133 133
135 135 135
134 134 134
134 134 134
133 133 133
136 136 136
138 138 138
143 143 143
145 145 145
143 143 143
141 141 141
142 142 142
143 143 143
143 143 143
142 142 142
143 143 143
147 147 147
149 149 149
147 147 147
146 146 146
151 151 151
154 154 154
159 159 159
161 161 161
155 155 155
138 138 138
121 121 121
113 113 113
107 107 107
104 104 104
110 110 110
126 126 126
125 125 125
133 133 133
143 143 143
153 153 153
171 171 171
190 190 190
191 191 191
190 190 190
191 191 191
186 186 186
181 181 181
176 176 176
161 161 161
148 148 148
139 139 139
131 131 131
133 133 133
146 146 146
153 153 153
155 155 155
157 157 157
159 159 159
160 160 160
160 160 160
158 158 158
152 152 152
144 144 144
139 139 139
129 129 129
123 123 123
123 123 123
125 125 125
131 131 131
132 132 132
132 132 132
131 131 131
131 131 131
136 136 136
137 137 137
139 139 139
139 139 139
139 139 139
138 138 138
138 138 138
139 139 139
140 140 140
142 142 142
145 145 145
149 149 149
149 149 149
145 145 145
146 146 146
150 150 150
156 156 156
159 159 159
159 159 159
148 148 148
130 130 130
117 117 117
115 115 115
102 102 102
103 103 103
101 101 101
115 115 115
114 114 114
127 127 127
140 140 140
149 149 149
160 160 160
180 180 180
188 188 188
186 186 186
188 188 188
187 187 187
182 182 182
177 177 177
167 167 167
156 156 156
149 149 149
148 148 148
153 153 153
165 165 165
171 171 171
174 174 174
173 173 173
169 169 169
166 166 166
164 164 164
158 158 158
149 149 149
141 141 141
133 133 133
122 122 122
113 113 113
112 112 112
116 116 116
117 117 117
121 121 121
124 124 124
128 128 128
132 132 132
137 137 137
139 139 139
141 141 141
143 143 143
145 145 145
145 145 145
144 144 144
144 144 144
144 144 144
147 147 147
149 149 149
151 151 151
147 147 147
143 143 143
146 146 146
151 151 151
156 156 156
158 158 158
154 154 154
143 143 143
123 123 123
116 116 116
113 113 113
95 95 95
95 95 95
91 91 91
105 105 105
104 104 104
117 117 117
136 136 136
147 147 147
153 153 153
165 165 165
183 183 183
186 186 186
185 185 185
186 186 186
181 181 181
177 177 177
172 172 172
166 166 166
159 159 159
161 161 161
169 169 169
181 181 181
186 186 186
187 187 187
183 183 183
179 179 179
172 172 172
165 165 165
162 162 162
149 149 149
135 135 135
126 126 126
117 117 117
110 110 110
110 110 110
109 109 109
110 110 110
115 115 115
122 122 122
126 126 126
134 134 134
141 141 141
146 146 146
151 151 151
157 157 157
157 157 157
160 160 160
160 160 160
155 155 155
153 153 153
151 151 151
150 150 150
149 149 149
147 147 147
143 143 143
149 149 149
153 153 153
155 155 155
155 155 155
150 150 150
141 141 141
120 120 120
117 117 117
107 107 107
91 91 91
88 88 88
86 86 86
102 102 102
99 99 99
110 110 110
131 131 131
144 144 144
148 148 148
153 153 153
174 174 174
184 184 184
185 185 185
184 184 184
182 182 182
180 180 180
174 174 174
171 171 171
167 167 167
168 168 168
173 173 173
183 183 183
190 190 190
192 192 192
189 189 189
181 181 181
174 174 174
166 166 166
158 158 158
149 149 149
138 138 138
126 126 126
118 118 118
113 113 113
112 112 112
112 112 112
111 111 111
117 117 117
125 125 125
131 131 131
138 138 138
144 144 144
151 151 151
160 160 160
165 165 165
167 167 167
172 172 172
169 169 169
161 161 161
156 156 156
152 152 152
150 150 150
148 148 148
145 145 145
144 144 144
149 149 149
153 153 153
154 154 154
152 152 152
149 149 149
140 140 140
119 119 119
117 117 117
101 101 101
84 84 84
83 83 83
88 88 88
102 102 102
100 100 100
103 103 103
126 126 126
140 140 140
146 146 146
146 146 146
161 161 161
178 178 178
184 184 184
183 183 183
183 183 183
183 183 183
179 179 179
172 172 172
175 175 175
171 171 171
170 170 170
172 172 172
179 179 179
183 183 183
180 180 180
174 174 174
166 166 166
160 160 160
148 148 148
143 143 143
136 136 136
127 127 127
121 121 121
120 120 120
117 117 117
116 116 116
116 116 116
119 119 119
122 122 122
131 131 131
138 138 138
146 146 146
152 152 152
163 163 163
167 167 167
167 167 167
167 167 167
163 163 163
159 159 159
154 154 154
150 150 150
149 149 149
146 146 146
145 145 145
145 145 145
152 152 152
153 153 153
151 151 151
150 150 150
149 149 149
141 141 141
119 119 119
112 112 112
92 92 92
77 77 77
82 82 82
88 88 88
100 100 100
99 99 99
99 99 99
119 119 119
135 135 135
142 142 142
142 142 142
155 155 155
169 169 169
180 180 180
182 182 182
181 181 181
183 183 183
184 184 184
177 177 177
175 175 175
172 172 172
168 168 168
163 163 163
167 167 167
169 169 169
171 171 171
165 165 165
159 159 159
150 150 150
138 138 138
133 133 133
128 128 128
121 121 121
116 116 116
119 119 119
112 112 112
112 112 112
112 112 112
114 114 114
117 117 117
127 127 127
135 135 135
142 142 142
149 149 149
158 158 158
161 161 161
161 161 161
160 160 160
157 157 157
153 153 153
149 149 149
150 150 150
150 150 150
147 147 147
146 146 146
147 147 147
152 152 152
152 152 152
147 147 147
150 150 150
150 150 150
143 143 143
119 119 119
105 105 105
84 84 84
75 75 75
80 80 80
87 87 87
100 100 100
100 100 100
98 98 98
112 112 112
129 129 129
138 138 138
139 139 139
150 150 150
163 163 163
176 176 176
180 180 180
181 181 181
184 184 184
187 187 187
183 183 183
174 174 174
172 172 172
168 168 168
160 160 160
158 158 158
159 159 159
161 161 161
158 158 158
154 154 154
143 143 143
133 133 133
130 130 130
125 125 125
120 120 120
117 117 117
117 117 117
112 112 112
109 109 109
112 112 112
116 116 116
121 121 121
130 130 130
139 139 139
142 142 142
147 147 147
154 154 154
155 155 155
154 154 154
153 153 153
150 150 150
148 148 148
146 146 146
148 148 148
148 148 148
148 148 148
147 147 147
150 150 150
151 151 151
149 149 149
147 147 147
151 151 151
151 151 151
148 148 148
117 117 117
97 97 97
75 75 75
76 76 76
80 80 80
84 84 84
98 98 98
99 99 99
98 98 98
106 106 106
123 123 123
132 132 132
135 135 135
146 146 146
162 162 162
175 175 175
184 184 184
183 183 183
182 182 182
186 186 186
187 187 187
177 177 177
168 168 168
166 166 166
158 158 158
156 156 156
152 152 152
151 151 151
151 151 151
147 147 147
141 141 141
132 132 132
126 126 126
124 124 124
123 123 123
120 120 120
118 118 118
118 118 118
116 116 116
119 119 119
124 124 124
129 129 129
137 137 137
140 140 140
143 143 143
147 147 147
151 151 151
152 152 152
153 153 153
150 150 150
146 146 146
146 146 146
144 144 144
146 146 146
148 148 148
147 147 147
149 149 149
150 150 150
150 150 150
148 148 148
148 148 148
153 153 153
154 154 154
149 149 149
116 116 116
89 89 89
72 72 72
77 77 77
80 80 80
82 82 82
100 100 100
101 101 101
97 97 97
102 102 102
117 117 117
126 126 126
128 128 128
139 139 139
160 160 160
177 177 177
187 187 187
188 188 188
180 180 180
181 181 181
187 187 187
183 183 183
170 170 170
164 164 164
158 158 158
156 156 156
151 151 151
147 147 147
145 145 145
141 141 141
138 138 138
133 133 133
129 129 129
125 125 125
125 125 125
125 125 125
125 125 125
126 126 126
126 126 126
129 129 129
134 134 134
137 137 137
140 140 140
141 141 141
141 141 141
145 145 145
151 151 151
151 151 151
152 152 152
148 148 148
145 145 145
144 144 144
143 143 143
144 144 144
145 145 145
148 148 148
149 149 149
149 149 149
149 149 149
150 150 150
152 152 152
158 158 158
157 157 157
151 151 151
112 112 112
81 81 81
70 70 70
78 78 78
79 79 79
82 82 82
101 101 101
102 102 102
96 96 96
100 100 100
110 110 110
119 119 119
123 123 123
136 136 136
160 160 160
180 180 180
190 190 190
190 190 190
185 185 185
181 181 181
185 185 185
183 183 183
172 172 172
163 163 163
158 158 158
153 153 153
150 150 150
146 146 146
143 143 143
140 140 140
136 136 136
130 130 130
131 131 131
129 129 129
129 129 129
129 129 129
130 130 130
133 133 133
133 133 133
136 136 136
138 138 138
140 140 140
144 144 144
140 140 140
141 141 141
145 145 145
149 149 149
148 148 148
147 147 147
145 145 145
142 142 142
141 141 141
143 143 143
144 144 144
145 145 145
149 149 149
150 150 150
148 148 148
147 147 147
155 155 155
159 159 159
163 163 163
160 160 160
149 149 149
109 109 109
76 76 76
71 71 71
77 77 77
78 78 78
81 81 81
101 101 101
103 103 103
96 96 96
97 97 97
101 101 101
107 107 107
121 121 121
139 139 139
162 162 162
182 182 182
192 192 192
192 192 192
189 189 189
187 187 187
182 182 182
180 180 180
169 169 169
165 165 165
158 158 158
152 152 152
148 148 148
145 145 145
144 144 144
140 140 140
135 135 135
128 128 128
128 128 128
127 127 127
127 127 127
128 128 128
128 128 128
130 130 130
131 131 131
132 132 132
135 135 135
135 135 135
141 141 141
140 140 140
139 139 139
142 142 142
143 143 143
144 144 144
143 143 143
141 141 141
140 140 140
141 141 141
141 141 141
142 142 142
146 146 146
148 148 148
150 150 150
148 148 148
151 151 151
159 159 159
166 166 166
166 166 166
158 158 158
147 147 147
109 109 109
76 76 76
71 71 71
77 77 77
80 80 80
81 81 81
101 101 101
98 98 98
95 95 95
92 92 92
93 93 93
101 101 101
120 120 120
142 142 142
162 162 162
183 183 183
194 194 194
193 193 193
190 190 190
188 188 188
182 182 182
178 178 178
167 167 167
165 165 165
161 161 161
154 154 154
147 147 147
147 147 147
143 143 143
142 142 142
137 137 137
131 131 131
129 129 129
126 126 126
126 126 126
126 126 126
126 126 126
127 127 127
130 130 130
130 130 130
133 133 133
135 135 135
139 139 139
138 138 138
136 136 136
138 138 138
139 139 139
139 139 139
139 139 139
139 139 139
140 140 140
138 138 138
139 139 139
140 140 140
144 144 144
147 147 147
149 149 149
151 151 151
155 155 155
164 164 164
169 169 169
168 168 168
157 157 157
147 147 147
111 111 111
77 77 77
72 72 72
78 78 78
82 82 82
84 84 84
95 95 95
91 91 91
86 86 86
88 88 88
90 90 90
96 96 96
116 116 116
143 143 143
165 165 165
187 187 187
195 195 195
194 194 194
191 191 191
187 187 187
180 180 180
179 179 179
167 167 167
164 164 164
162 162 162
158 158 158
152 152 152
150 150 150
146 146 146
143 143 143
139 139 139
137 137 137
134 134 134
130 130 130
130 130 130
130 130 130
129 129 129
131 131 131
134 134 134
135 135 135
136 136 136
137 137 137
137 137 137
136 136 136
136 136 136
135 135 135
136 136 136
136 136 136
136 136 136
137 137 137
138 138 138
137 137 137
136 136 136
142 142 142
144 144 144
148 148 148
151 151 151
157 157 157
162 162 162
168 168 168
170 170 170
166 166 166
156 156 156
146 146 146
114 114 114
80 80 80
73 73 73
79 79 79
83 83 83
84 84 84
88 88 88
85 85 85
83 83 83
86 86 86
91 91 91
90 90 90
113 113 113
143 143 143
168 168 168
193 193 193
198 198 198
195 195 195
192 192 192
188 188 188
179 179 179
175 175 175
169 169 169
164 164 164
164 164 164
160 160 160
156 156 156
150 150 150
146 146 146
144 144 144
140 140 140
137 137 137
135 135 135
132 132 132
129 129 129
130 130 130
132 132 132
133 133 133
135 135 135
134 134 134
134 134 134
134 134 134
132 132 132
132 132 132
132 132 132
132 132 132
133 133 133
133 133 133
132 132 132
133 133 133
135 135 135
137 137 137
136 136 136
141 141 141
147 147 147
149 149 149
155 155 155
160 160 160
166 166 166
168 168 168
170 170 170
165 165 165
154 154 154
148 148 148
116 116 116
84 84 84
72 72 72
78 78 78
84 84 84
86 86 86
85 85 85
82 82 82
83 83 83
86 86 86
89 89 89
88 88 88
110 110 110
145 145 145
173 173 173
196 196 196
202 202 202
196 196 196
192 192 192
189 189 189
177 177 177
171 171 171
167 167 167
166 166 166
164 164 164
159 159 159
155 155 155
150 150 150
143 143 143
140 140 140
135 135 135
131 131 131
127 127 127
127 127 127
123 123 123
127 127 127
129 129 129
129 129 129
131 131 131
131 131 131
130 130 130
129 129 129
130 130 130
130 130 130
128 128 128
130 130 130
129 129 129
129 129 129
130 130 130
130 130 130
131 131 131
136 136 136
138 138 138
142 142 142
149 149 149
152 152 152
160 160 160
160 160 160
167 167 167
168 168 168
168 168 168
164 164 164
153 153 153
151 151 151
123 123 123
88 88 88
72 72 72
76 76 76
84 84 84
88 88 88
85 85 85
80 80 80
82 82 82
86 86 86
89 89 89
87 87 87
108 108 108
144 144 144
178 178 178
202 202 202
205 205 205
200 200 200
194 194 194
184 184 184
172 172 172
169 169 169
164 164 164
165 165 165
161 161 161
157 157 157
152 152 152
153 153 153
144 144 144
135 135 135
128 128 128
123 123 123
119 119 119
118 118 118
117 117 117
118 118 118
121 121 121
123 123 123
123 123 123
123 123 123
123 123 123
123 123 123
125 125 125
125 125 125
123 123 123
122 122 122
125 125 125
125 125 125
128 128 128
129 129 129
132 132 132
134 134 134
139 139 139
145 145 145
151 151 151
155 155 155
160 160 160
159 159 159
167 167 167
166 166 166
164 164 164
163 163 163
156 156 156
153 153 153
129 129 129
92 92 92
74 74 74
77 77 77
83 83 83
88 88 88
84 84 84
79 79 79
81 81 81
85 85 85
87 87 87
84 84 84
111 111 111
147 147 147
186 186 186
208 208 208
208 208 208
200 200 200
195 195 195
182 182 182
168 168 168
165 165 165
162 162 162
161 161 161
162 162 162
157 157 157
148 148 148
147 147 147
145 145 145
136 136 136
124 124 124
119 119 119
116 116 116
113 113 113
111 111 111
111 111 111
113 113 113
115 115 115
115 115 115
115 115 115
113 113 113
116 116 116
117 117 117
117 117 117
116 116 116
119 119 119
122 122 122
123 123 123
126 126 126
127 127 127
130 130 130
135 135 135
140 140 140
148 148 148
153 153 153
156 156 156
160 160 160
161 161 161
165 165 165
162 162 162
163 163 163
164 164 164
158 158 158
157 157 157
133 133 133
98 98 98
77 77 77
80 80 80
84 84 84
88 88 88
83 83 83
79 79 79
80 80 80
85 85 85
83 83 83
82 82 82
108 108 108
151 151 151
193 193 193
211 211 211
206 206 206
198 198 198
190 190 190
180 180 180
166 166 166
161 161 161
156 156 156
157 157 157
158 158 158
156 156 156
146 146 146
140 140 140
142 142 142
135 135 135
127 127 127
118 118 118
115 115 115
113 113 113
106 106 106
108 108 108
107 107 107
107 107 107
109 109 109
109 109 109
106 106 106
108 108 108
110 110 110
111 111 111
114 114 114
117 117 117
120 120 120
123 123 123
124 124 124
123 123 123
131 131 131
138 138 138
146 146 146
150 150 150
154 154 154
156 156 156
159 159 159
160 160 160
162 162 162
161 161 161
163 163 163
164 164 164
159 159 159
158 158 158
138 138 138
102 102 102
80 80 80
82 82 82
86 86 86
88 88 88
